G04 #@! TF.FileFunction,Copper,L1,Top,Signal*
%FSLAX46Y46*%
G04 Gerber Fmt 4.6, Leading zero omitted, Abs format (unit mm)*
G04 Created by KiCad (PCBNEW 0.201505121916+5652~23~ubuntu14.04.1-product) date Mon 25 May 2015 21:29:56 BST*
%MOMM*%
G01*
G04 APERTURE LIST*
%ADD10C,0.150000*%
%ADD11C,1.879600*%
%ADD12C,3.403600*%
%ADD13R,1.998980X0.398780*%
%ADD14R,1.899920X2.100580*%
%ADD15R,1.600200X2.100580*%
%ADD16R,1.899920X1.899920*%
%ADD17R,0.797560X0.797560*%
%ADD18R,1.498600X0.248920*%
%ADD19R,0.248920X1.498600*%
%ADD20R,1.100000X1.600000*%
%ADD21R,0.600000X0.650000*%
%ADD22R,0.650000X0.600000*%
%ADD23R,1.300000X1.300000*%
%ADD24C,0.551180*%
%ADD25C,0.299720*%
%ADD26C,0.152400*%
%ADD27C,0.149860*%
G04 APERTURE END LIST*
D10*
D11*
X60960000Y-45847000D03*
X63500000Y-45593000D03*
X66040000Y-45847000D03*
X68580000Y-45593000D03*
X71120000Y-45847000D03*
X73660000Y-45593000D03*
X66040000Y-56007000D03*
X68580000Y-55753000D03*
X71120000Y-56007000D03*
X73660000Y-55753000D03*
D12*
X64500000Y-51700000D03*
D13*
X43248940Y-51900000D03*
X43248940Y-51252300D03*
X43248940Y-53197940D03*
D14*
X40300000Y-48049360D03*
X40300000Y-55750640D03*
D13*
X43248940Y-52547700D03*
X43248940Y-50602060D03*
D15*
X42850160Y-48801200D03*
X42850160Y-54998800D03*
D16*
X40300000Y-50701120D03*
X40300000Y-53098880D03*
D11*
X40640000Y-43307000D03*
X43180000Y-43053000D03*
X45720000Y-43307000D03*
X48260000Y-43053000D03*
X50800000Y-43307000D03*
X53340000Y-43053000D03*
X55880000Y-43307000D03*
X58420000Y-43053000D03*
X60960000Y-43307000D03*
X63500000Y-43053000D03*
X66040000Y-43307000D03*
X68580000Y-43053000D03*
X71120000Y-43307000D03*
X73660000Y-43053000D03*
X40640000Y-58547000D03*
X43180000Y-58293000D03*
X45720000Y-58547000D03*
X48260000Y-58293000D03*
X50800000Y-58547000D03*
X53340000Y-58293000D03*
X55880000Y-58547000D03*
X58420000Y-58293000D03*
X60960000Y-58547000D03*
X63500000Y-58293000D03*
X66040000Y-58547000D03*
X68580000Y-58293000D03*
X71120000Y-58547000D03*
X73660000Y-58293000D03*
D17*
X61249300Y-49600000D03*
X59750700Y-49600000D03*
D18*
X48264320Y-48051720D03*
X48264320Y-48552100D03*
X48264320Y-49052480D03*
X48264320Y-49550320D03*
X48264320Y-50050700D03*
X48264320Y-50551080D03*
X48264320Y-51048920D03*
X48264320Y-51549300D03*
X48264320Y-52049680D03*
X48264320Y-52547520D03*
X48264320Y-53047900D03*
X48264320Y-53548280D03*
D19*
X49813720Y-55097680D03*
X50314100Y-55097680D03*
X50814480Y-55097680D03*
X51312320Y-55097680D03*
X51812700Y-55097680D03*
X52313080Y-55097680D03*
X52810920Y-55097680D03*
X53311300Y-55097680D03*
X53811680Y-55097680D03*
X54309520Y-55097680D03*
X54809900Y-55097680D03*
X55310280Y-55097680D03*
D18*
X56859680Y-53548280D03*
X56859680Y-53047900D03*
X56859680Y-52547520D03*
X56859680Y-52049680D03*
X56859680Y-51549300D03*
X56859680Y-51048920D03*
X56859680Y-50551080D03*
X56859680Y-50050700D03*
X56859680Y-49550320D03*
X56859680Y-49052480D03*
X56859680Y-48552100D03*
X56859680Y-48051720D03*
D19*
X55310280Y-46502320D03*
X54809900Y-46502320D03*
X54309520Y-46502320D03*
X53811680Y-46502320D03*
X53311300Y-46502320D03*
X52810920Y-46502320D03*
X52313080Y-46502320D03*
X51812700Y-46502320D03*
X51312320Y-46502320D03*
X50814480Y-46502320D03*
X50314100Y-46502320D03*
X49813720Y-46502320D03*
D20*
X72682100Y-53233400D03*
X74383000Y-53233400D03*
X72682100Y-49433400D03*
X74383900Y-49433400D03*
D21*
X45300000Y-48300000D03*
X46300000Y-48300000D03*
X45300000Y-49300000D03*
X46300000Y-49300000D03*
D22*
X48200000Y-46800000D03*
X48200000Y-45800000D03*
D21*
X46300000Y-50300000D03*
X45300000Y-50300000D03*
X56500000Y-55200000D03*
X57500000Y-55200000D03*
D22*
X48300000Y-54900000D03*
X48300000Y-55900000D03*
D21*
X59600000Y-51700000D03*
X60600000Y-51700000D03*
X59600000Y-50700000D03*
X60600000Y-50700000D03*
X46300000Y-51300000D03*
X45300000Y-51300000D03*
D23*
X46400000Y-46300000D03*
D11*
X40630000Y-45700000D03*
X43170000Y-45700000D03*
D24*
X49310800Y-50596800D03*
X42110000Y-50620000D03*
X45830000Y-52010000D03*
X56885080Y-45976540D03*
X55875000Y-49550000D03*
X54809900Y-45537120D03*
X53800000Y-47500000D03*
X51825000Y-56150000D03*
X61299600Y-56210200D03*
X60690000Y-55829200D03*
X53300000Y-56100000D03*
X46900000Y-50100000D03*
X41700000Y-51700000D03*
X44330000Y-51250000D03*
X46600000Y-45400000D03*
X50326800Y-56083200D03*
X59826400Y-53060600D03*
X57845200Y-53035200D03*
X50809400Y-54127400D03*
X56175000Y-55250000D03*
X54314600Y-54127400D03*
X49225000Y-46525000D03*
X47420000Y-54120000D03*
X54619400Y-48514000D03*
X44280000Y-54240000D03*
X50330000Y-52510000D03*
X55000400Y-52374800D03*
X56010000Y-54180000D03*
X58090000Y-55840000D03*
X46300000Y-53700000D03*
X69700000Y-52400000D03*
X72900000Y-51500000D03*
D25*
X49265080Y-50551080D02*
X49310800Y-50596800D01*
X49000920Y-50551080D02*
X49265080Y-50551080D01*
D26*
X42110000Y-50620000D02*
X42127940Y-50602060D01*
X42127940Y-50602060D02*
X43248940Y-50602060D01*
X48264320Y-50551080D02*
X47548920Y-50551080D01*
D25*
X47548920Y-50551080D02*
X47328920Y-50551080D01*
X46580000Y-51300000D02*
X46300000Y-51300000D01*
X47328920Y-50551080D02*
X46580000Y-51300000D01*
X45830000Y-52010000D02*
X46300000Y-51540000D01*
X46300000Y-51540000D02*
X46300000Y-51300000D01*
D26*
X42077000Y-57110000D02*
X44540000Y-57110000D01*
X40640000Y-58547000D02*
X42077000Y-57110000D01*
X48264320Y-51048920D02*
X47551080Y-51048920D01*
X45000000Y-53600000D02*
X45000000Y-56650000D01*
X45000000Y-56650000D02*
X44540000Y-57110000D01*
X47551080Y-51048920D02*
X45000000Y-53600000D01*
X58052736Y-52049680D02*
X56859680Y-52049680D01*
X58708802Y-53544690D02*
X59331104Y-54166992D01*
X58708802Y-52705746D02*
X58708802Y-53544690D01*
X58052736Y-52049680D02*
X58708802Y-52705746D01*
X59331104Y-56057056D02*
X60614548Y-57340500D01*
X59331104Y-54166992D02*
X59331104Y-56057056D01*
X62547500Y-57340500D02*
X63500000Y-58293000D01*
X60614548Y-57340500D02*
X62547500Y-57340500D01*
X57983412Y-51549300D02*
X56859680Y-51549300D01*
X59635906Y-54040738D02*
X59635906Y-55930802D01*
X59013604Y-53418436D02*
X59635906Y-54040738D01*
X59013604Y-52579492D02*
X59013604Y-53418436D01*
X57983412Y-51549300D02*
X59013604Y-52579492D01*
X59635906Y-55930802D02*
X60740802Y-57035698D01*
X66040000Y-58547000D02*
X64528698Y-57035698D01*
X60740802Y-57035698D02*
X64528698Y-57035698D01*
X57914088Y-51048920D02*
X59318406Y-52453238D01*
X59318406Y-52453238D02*
X59318406Y-53292182D01*
X59318406Y-53292182D02*
X59940708Y-53914484D01*
X64654952Y-56730896D02*
X65201056Y-57277000D01*
X65201056Y-57277000D02*
X67564000Y-57277000D01*
X67564000Y-57277000D02*
X68580000Y-58293000D01*
X56859680Y-51048920D02*
X57914088Y-51048920D01*
X59940708Y-55804548D02*
X60867056Y-56730896D01*
X59940708Y-53914484D02*
X59940708Y-55804548D01*
X60867056Y-56730896D02*
X64654952Y-56730896D01*
X43180000Y-57914802D02*
X43680000Y-57414802D01*
X43680000Y-57414802D02*
X44666254Y-57414802D01*
X43180000Y-58293000D02*
X43180000Y-57914802D01*
X48264320Y-51549300D02*
X47481756Y-51549300D01*
X45304802Y-56776254D02*
X45304802Y-53726254D01*
X45304802Y-53726254D02*
X47481756Y-51549300D01*
X44666254Y-57414802D02*
X45304802Y-56776254D01*
X48800000Y-57100000D02*
X48800000Y-57099200D01*
X47167000Y-57100000D02*
X48800000Y-57100000D01*
X45720000Y-58547000D02*
X47167000Y-57100000D01*
X49813720Y-56086280D02*
X48800800Y-57099200D01*
X48800800Y-57099200D02*
X48800000Y-57099200D01*
X49813720Y-55097680D02*
X49813720Y-56086280D01*
X52333400Y-55118000D02*
X52333400Y-56388000D01*
X52333400Y-56388000D02*
X52054000Y-56667400D01*
X52313080Y-55097680D02*
X52333400Y-55118000D01*
X48260000Y-58071056D02*
X49663656Y-56667400D01*
X49663656Y-56667400D02*
X52054000Y-56667400D01*
X48260000Y-58293000D02*
X48260000Y-58071056D01*
X52810920Y-55097680D02*
X52790600Y-55118000D01*
X52790000Y-56557000D02*
X52790000Y-55118600D01*
X52790000Y-55118600D02*
X52810920Y-55097680D01*
X50800000Y-58547000D02*
X52790000Y-56557000D01*
X53811680Y-55097680D02*
X53811680Y-57764680D01*
X53811680Y-57821320D02*
X53340000Y-58293000D01*
X53811680Y-55097680D02*
X53811680Y-57821320D01*
X55310280Y-57977280D02*
X55880000Y-58547000D01*
X55310280Y-55097680D02*
X55310280Y-57977280D01*
X57850280Y-53548280D02*
X58721500Y-54419500D01*
X56859680Y-53548280D02*
X57850280Y-53548280D01*
X58721500Y-57991500D02*
X58420000Y-58293000D01*
X58721500Y-54419500D02*
X58721500Y-57991500D01*
X56892700Y-52514500D02*
X56859680Y-52547520D01*
X58404000Y-53670944D02*
X59026302Y-54293246D01*
X58404000Y-52832000D02*
X58404000Y-53670944D01*
X58086500Y-52514500D02*
X58404000Y-52832000D01*
X56892700Y-52514500D02*
X58086500Y-52514500D01*
X59026302Y-54293246D02*
X59026302Y-56183310D01*
X60960000Y-58117008D02*
X60960000Y-58547000D01*
X59026302Y-56183310D02*
X60960000Y-58117008D01*
X55310280Y-46502320D02*
X55310280Y-45613328D01*
X55310280Y-45613328D02*
X55457600Y-45466008D01*
X60579008Y-45466008D02*
X60960000Y-45847000D01*
X55457600Y-45466008D02*
X60579008Y-45466008D01*
X54309520Y-46502320D02*
X54309520Y-47264320D01*
X54309520Y-47264320D02*
X54543200Y-47498000D01*
X55533800Y-47498000D02*
X54543200Y-47498000D01*
X55533800Y-47498000D02*
X55686200Y-47345600D01*
X55686200Y-47345600D02*
X55686200Y-45897810D01*
X55686200Y-45897810D02*
X55813200Y-45770810D01*
X56300000Y-45770810D02*
X56885080Y-45770810D01*
X55813200Y-45770810D02*
X56300000Y-45770810D01*
X56885080Y-45976540D02*
X56885080Y-45770810D01*
X60440800Y-47040800D02*
X59170810Y-45770810D01*
X59170810Y-45770810D02*
X56300000Y-45770810D01*
X63159200Y-47040800D02*
X63500000Y-46700000D01*
X63500000Y-46700000D02*
X63500000Y-45593000D01*
X60440800Y-47040800D02*
X63159200Y-47040800D01*
X58505596Y-47650404D02*
X57603900Y-48552100D01*
X57603900Y-48552100D02*
X56859680Y-48552100D01*
X63575452Y-47650404D02*
X58505596Y-47650404D01*
X65378856Y-45847000D02*
X63575452Y-47650404D01*
X66040000Y-45847000D02*
X65378856Y-45847000D01*
X55875000Y-49550000D02*
X55875320Y-49550320D01*
X55875320Y-49550320D02*
X56859680Y-49550320D01*
X66701254Y-47329802D02*
X67231056Y-46800000D01*
X70167000Y-46800000D02*
X71120000Y-45847000D01*
X67231056Y-46800000D02*
X70167000Y-46800000D01*
X56859680Y-49550320D02*
X57621680Y-49550320D01*
X57621680Y-49550320D02*
X58911992Y-48260008D01*
X63827960Y-48260008D02*
X58911992Y-48260008D01*
X64758166Y-47329802D02*
X63827960Y-48260008D01*
X66701254Y-47329802D02*
X64758166Y-47329802D01*
X61200000Y-48869612D02*
X59267588Y-48869612D01*
X65010674Y-47939406D02*
X64080468Y-48869612D01*
X59267588Y-48869612D02*
X57586120Y-50551080D01*
X57586120Y-50551080D02*
X56859680Y-50551080D01*
X73513056Y-45593000D02*
X73660000Y-45593000D01*
X66953762Y-47939406D02*
X67483564Y-47409604D01*
X67483564Y-47409604D02*
X71696452Y-47409604D01*
X71696452Y-47409604D02*
X73513056Y-45593000D01*
X66953762Y-47939406D02*
X65010674Y-47939406D01*
X64080468Y-48869612D02*
X61200000Y-48869612D01*
X61249300Y-48869612D02*
X61200000Y-48869612D01*
X61249300Y-49500000D02*
X61249300Y-48869612D01*
X41633000Y-44300000D02*
X44568944Y-44300000D01*
X44568944Y-44300000D02*
X45108548Y-44839604D01*
X45108548Y-44839604D02*
X49346436Y-44839604D01*
X49346436Y-44839604D02*
X49813720Y-45306888D01*
X49813720Y-45306888D02*
X49813720Y-46502320D01*
X40640000Y-43307000D02*
X41633000Y-44300000D01*
X62947000Y-43053000D02*
X63500000Y-43053000D01*
X54809900Y-45537120D02*
X55185814Y-45161206D01*
X54809900Y-46502320D02*
X54809900Y-45537120D01*
X59938794Y-45161206D02*
X60500000Y-44600000D01*
X60500000Y-44600000D02*
X61400000Y-44600000D01*
X61400000Y-44600000D02*
X62947000Y-43053000D01*
X55185814Y-45161206D02*
X59938794Y-45161206D01*
X56859680Y-48051720D02*
X57647824Y-48051720D01*
X57647824Y-48051720D02*
X58353942Y-47345602D01*
X63449198Y-47345602D02*
X58353942Y-47345602D01*
X66040000Y-43307000D02*
X64775000Y-44572000D01*
X64775000Y-46019800D02*
X64775000Y-44572000D01*
X64775000Y-46019800D02*
X63449198Y-47345602D01*
X66575000Y-47025000D02*
X67300000Y-46300000D01*
X67300000Y-46300000D02*
X67300000Y-44850000D01*
X67300000Y-44850000D02*
X67825000Y-44325000D01*
X67825000Y-44325000D02*
X70102000Y-44325000D01*
X70102000Y-44325000D02*
X71120000Y-43307000D01*
X56859680Y-49052480D02*
X57586120Y-49052480D01*
X58683394Y-47955206D02*
X57586120Y-49052480D01*
X63701706Y-47955206D02*
X58683394Y-47955206D01*
X64631912Y-47025000D02*
X63701706Y-47955206D01*
X66575000Y-47025000D02*
X64631912Y-47025000D01*
X66827508Y-47634604D02*
X67357310Y-47104802D01*
X72375000Y-44338000D02*
X73660000Y-43053000D01*
X72375000Y-46300000D02*
X72375000Y-44338000D01*
X71570198Y-47104802D02*
X72375000Y-46300000D01*
X67357310Y-47104802D02*
X71570198Y-47104802D01*
X56859680Y-50050700D02*
X57603900Y-50050700D01*
X59089790Y-48564810D02*
X57603900Y-50050700D01*
X63954214Y-48564810D02*
X59089790Y-48564810D01*
X64884420Y-47634604D02*
X63954214Y-48564810D01*
X66827508Y-47634604D02*
X64884420Y-47634604D01*
X43793000Y-43053000D02*
X43180000Y-43053000D01*
X50314100Y-45376212D02*
X49472690Y-44534802D01*
X50314100Y-46502320D02*
X50314100Y-45376212D01*
X45234802Y-44534802D02*
X43753000Y-43053000D01*
X43753000Y-43053000D02*
X43180000Y-43053000D01*
X49472690Y-44534802D02*
X45234802Y-44534802D01*
X50814480Y-46502320D02*
X50814480Y-45445536D01*
X50814480Y-45445536D02*
X49598944Y-44230000D01*
X46643000Y-44230000D02*
X45720000Y-43307000D01*
X49598944Y-44230000D02*
X46643000Y-44230000D01*
X51312320Y-46502320D02*
X51312320Y-45512320D01*
X49725198Y-43925198D02*
X49132198Y-43925198D01*
X49132198Y-43925198D02*
X48260000Y-43053000D01*
X51312320Y-45512320D02*
X49725198Y-43925198D01*
X51812700Y-45581644D02*
X50800000Y-44568944D01*
X50800000Y-44568944D02*
X50800000Y-43307000D01*
X51812700Y-46502320D02*
X51812700Y-45581644D01*
X52313080Y-45355864D02*
X53340000Y-44328944D01*
X53340000Y-44328944D02*
X53340000Y-43053000D01*
X52313080Y-46502320D02*
X52313080Y-45355864D01*
X52810920Y-46502320D02*
X52810920Y-45725824D01*
X54289944Y-44246800D02*
X54940200Y-44246800D01*
X54940200Y-44246800D02*
X55880000Y-43307000D01*
X52810920Y-45725824D02*
X54289944Y-44246800D01*
X53311300Y-45656500D02*
X54416198Y-44551602D01*
X53311300Y-46502320D02*
X53311300Y-45656500D01*
X56921398Y-44551602D02*
X58420000Y-43053000D01*
X54416198Y-44551602D02*
X56921398Y-44551602D01*
X53811680Y-45689520D02*
X54644796Y-44856404D01*
X53811680Y-46502320D02*
X53811680Y-45689520D01*
X53811680Y-47488320D02*
X53800000Y-47500000D01*
X53811680Y-46502320D02*
X53811680Y-47488320D01*
X59812540Y-44856404D02*
X60960000Y-43708944D01*
X60960000Y-43708944D02*
X60960000Y-43307000D01*
X54644796Y-44856404D02*
X59812540Y-44856404D01*
X51812700Y-55097680D02*
X51812700Y-56137700D01*
X51812700Y-56137700D02*
X51825000Y-56150000D01*
X61299600Y-56210200D02*
X61515494Y-56426094D01*
X65620906Y-56426094D02*
X66040000Y-56007000D01*
X61515494Y-56426094D02*
X65620906Y-56426094D01*
X61528200Y-55702200D02*
X61947292Y-56121292D01*
X60817000Y-55702200D02*
X61528200Y-55702200D01*
X64249308Y-56121292D02*
X65557400Y-54813200D01*
X61947292Y-56121292D02*
X64249308Y-56121292D01*
X65557400Y-54813200D02*
X67640200Y-54813200D01*
X60690000Y-55829200D02*
X60817000Y-55702200D01*
X67640200Y-54813200D02*
X68580000Y-55753000D01*
X53311300Y-55097680D02*
X53300000Y-55108980D01*
X53300000Y-55108980D02*
X53300000Y-56100000D01*
X47350320Y-49550320D02*
X47100000Y-49300000D01*
X47100000Y-49300000D02*
X46300000Y-49300000D01*
X48264320Y-49550320D02*
X47350320Y-49550320D01*
X47452480Y-49052480D02*
X46700000Y-48300000D01*
X46700000Y-48300000D02*
X46300000Y-48300000D01*
X48264320Y-49052480D02*
X47452480Y-49052480D01*
X46600000Y-50100000D02*
X46300000Y-50400000D01*
X46900000Y-50100000D02*
X46600000Y-50100000D01*
D25*
X46949300Y-50050700D02*
X46900000Y-50100000D01*
X47549300Y-50050700D02*
X46949300Y-50050700D01*
D26*
X48264320Y-50050700D02*
X47549300Y-50050700D01*
D25*
X46500000Y-50100000D02*
X46300000Y-50300000D01*
X46900000Y-50100000D02*
X46500000Y-50100000D01*
D26*
X42190000Y-51900000D02*
X41600000Y-51310000D01*
X41600000Y-51310000D02*
X41600000Y-50230000D01*
X41600000Y-50230000D02*
X41730000Y-50100000D01*
X41730000Y-50100000D02*
X44000000Y-50100000D01*
X45180000Y-48400000D02*
X45300000Y-48400000D01*
X45280000Y-48300000D02*
X45300000Y-48300000D01*
X44000000Y-50100000D02*
X44750000Y-49350000D01*
X44750000Y-49350000D02*
X44750000Y-48830000D01*
X44750000Y-48830000D02*
X45280000Y-48300000D01*
X41790000Y-51500000D02*
X41790000Y-51610000D01*
X41790000Y-51610000D02*
X41700000Y-51700000D01*
X42190000Y-51900000D02*
X41790000Y-51500000D01*
X43248940Y-51900000D02*
X42190000Y-51900000D01*
X44127700Y-51252300D02*
X43248940Y-51252300D01*
X44490000Y-50890000D02*
X44127700Y-51252300D01*
X44327700Y-51252300D02*
X44330000Y-51250000D01*
X43248940Y-51252300D02*
X44327700Y-51252300D01*
X44490000Y-50041056D02*
X45231056Y-49300000D01*
X45231056Y-49300000D02*
X45300000Y-49300000D01*
X44490000Y-50890000D02*
X44490000Y-50041056D01*
X46400000Y-45600000D02*
X46600000Y-45400000D01*
X46400000Y-46300000D02*
X46400000Y-45600000D01*
X50314100Y-56070500D02*
X50326800Y-56083200D01*
X50314100Y-55097680D02*
X50314100Y-56070500D01*
X60588400Y-55321200D02*
X61578256Y-55321200D01*
X60245510Y-54978310D02*
X60588400Y-55321200D01*
X60245510Y-53479710D02*
X60245510Y-54978310D01*
X59826400Y-53060600D02*
X60245510Y-53479710D01*
X61578256Y-55321200D02*
X62073546Y-55816490D01*
X64123054Y-55816490D02*
X65431146Y-54508398D01*
X62073546Y-55816490D02*
X64123054Y-55816490D01*
X65431146Y-54508398D02*
X70078602Y-54508398D01*
X72170700Y-53721000D02*
X72683700Y-53208000D01*
X70866000Y-53721000D02*
X72169100Y-53721000D01*
X70078602Y-54508398D02*
X70866000Y-53721000D01*
X56859680Y-53047900D02*
X57832500Y-53047900D01*
X57832500Y-53047900D02*
X57845200Y-53035200D01*
X59623208Y-52857408D02*
X59623208Y-52326984D01*
X59623208Y-52326984D02*
X59500000Y-52203776D01*
X59500000Y-52203776D02*
X59500000Y-51600000D01*
X59826400Y-53060600D02*
X59623208Y-52857408D01*
X59900000Y-49475700D02*
X59875700Y-49500000D01*
X59500000Y-49750700D02*
X59750700Y-49500000D01*
X59500000Y-50600000D02*
X59500000Y-49750700D01*
X50814480Y-54132480D02*
X50809400Y-54127400D01*
X50814480Y-55097680D02*
X50814480Y-54132480D01*
X48325280Y-48051720D02*
X48264320Y-48051720D01*
X54314600Y-54127400D02*
X54314600Y-55092600D01*
X54314600Y-55092600D02*
X54309520Y-55097680D01*
X51312320Y-54361080D02*
X51571400Y-54102000D01*
X51312320Y-55097680D02*
X51312320Y-54361080D01*
X51571400Y-54102000D02*
X54289200Y-54102000D01*
X54289200Y-54102000D02*
X54314600Y-54127400D01*
D25*
X56175000Y-55250000D02*
X56307000Y-55118000D01*
X56307000Y-55118000D02*
X56626000Y-55118000D01*
X48788000Y-46962000D02*
X49225000Y-46525000D01*
D26*
X48264320Y-48051720D02*
X48264320Y-47935680D01*
D25*
X48264320Y-47126320D02*
X48100000Y-46962000D01*
X48264320Y-47935680D02*
X48264320Y-47126320D01*
X48100000Y-46962000D02*
X48788000Y-46962000D01*
X48286000Y-54864000D02*
X48244000Y-54864000D01*
D26*
X48264320Y-52049680D02*
X48264320Y-52547520D01*
D25*
X48999680Y-52049680D02*
X49320000Y-52370000D01*
X49320000Y-52370000D02*
X49320000Y-53800000D01*
X49320000Y-53800000D02*
X48256000Y-54864000D01*
X48256000Y-54864000D02*
X48244000Y-54864000D01*
D26*
X48264320Y-52049680D02*
X48999680Y-52049680D01*
D25*
X48164000Y-54864000D02*
X47420000Y-54120000D01*
X48244000Y-54864000D02*
X48164000Y-54864000D01*
D26*
X55000400Y-48895000D02*
X54619400Y-48514000D01*
X54809900Y-55097680D02*
X54809900Y-54368700D01*
X55000400Y-54178200D02*
X55000400Y-52374800D01*
X54809900Y-54368700D02*
X55000400Y-54178200D01*
X55000400Y-52374800D02*
X55000400Y-48895000D01*
X48264320Y-53548280D02*
X48264320Y-53047900D01*
X43248940Y-53608940D02*
X43300000Y-53660000D01*
X43300000Y-53660000D02*
X43920000Y-53660000D01*
X43920000Y-53660000D02*
X44280000Y-54020000D01*
X44280000Y-54020000D02*
X44280000Y-54240000D01*
X43248940Y-53197940D02*
X43248940Y-53608940D01*
D25*
X50465200Y-52374800D02*
X50330000Y-52510000D01*
X55000400Y-52374800D02*
X50465200Y-52374800D01*
D26*
X57500000Y-54510000D02*
X56010000Y-54180000D01*
X57500000Y-55200000D02*
X57500000Y-54510000D01*
X58060000Y-55200000D02*
X58090000Y-55230000D01*
X58090000Y-55230000D02*
X58090000Y-55840000D01*
X57500000Y-55200000D02*
X58060000Y-55200000D01*
X50240000Y-53441634D02*
X50240000Y-52960000D01*
X49220000Y-54461634D02*
X50240000Y-53441634D01*
X49220000Y-55330000D02*
X49220000Y-54461634D01*
X48960000Y-55590000D02*
X49220000Y-55330000D01*
X48370000Y-55590000D02*
X48960000Y-55590000D01*
X48244000Y-55716000D02*
X48370000Y-55590000D01*
X46952100Y-53047900D02*
X46300000Y-53700000D01*
X48264320Y-53047900D02*
X46952100Y-53047900D01*
D27*
G36*
X75133200Y-59396073D02*
X74855121Y-59674151D01*
X74855121Y-58175817D01*
X74855121Y-55635817D01*
X74809599Y-55405916D01*
X74720289Y-55189234D01*
X74590594Y-54994026D01*
X74425452Y-54827728D01*
X74308970Y-54749159D01*
X74308970Y-50401993D01*
X74308970Y-49508330D01*
X74308970Y-49358470D01*
X74308970Y-48464807D01*
X74252773Y-48408610D01*
X73854372Y-48408453D01*
X73810290Y-48408760D01*
X73767107Y-48417624D01*
X73726468Y-48434707D01*
X73689921Y-48459359D01*
X73658858Y-48490639D01*
X73634463Y-48527357D01*
X73617664Y-48568114D01*
X73609101Y-48611358D01*
X73609110Y-49302273D01*
X73665307Y-49358470D01*
X74308970Y-49358470D01*
X74308970Y-49508330D01*
X73665307Y-49508330D01*
X73609110Y-49564527D01*
X73609101Y-50255442D01*
X73617664Y-50298686D01*
X73634463Y-50339443D01*
X73658858Y-50376161D01*
X73689921Y-50407441D01*
X73726468Y-50432093D01*
X73767107Y-50449176D01*
X73810290Y-50458040D01*
X73854372Y-50458347D01*
X74252773Y-50458190D01*
X74308970Y-50401993D01*
X74308970Y-54749159D01*
X74308070Y-54748552D01*
X74308070Y-54201993D01*
X74308070Y-53308330D01*
X74308070Y-53158470D01*
X74308070Y-52264807D01*
X74251873Y-52208610D01*
X73853472Y-52208453D01*
X73809390Y-52208760D01*
X73766207Y-52217624D01*
X73725568Y-52234707D01*
X73689021Y-52259359D01*
X73657958Y-52290639D01*
X73633563Y-52327357D01*
X73616764Y-52368114D01*
X73608201Y-52411358D01*
X73608210Y-53102273D01*
X73664407Y-53158470D01*
X74308070Y-53158470D01*
X74308070Y-53308330D01*
X73664407Y-53308330D01*
X73608210Y-53364527D01*
X73608201Y-54055442D01*
X73616764Y-54098686D01*
X73633563Y-54139443D01*
X73657958Y-54176161D01*
X73689021Y-54207441D01*
X73725568Y-54232093D01*
X73766207Y-54249176D01*
X73809390Y-54258040D01*
X73853472Y-54258347D01*
X74251873Y-54258190D01*
X74308070Y-54201993D01*
X74308070Y-54748552D01*
X74231154Y-54696672D01*
X74015102Y-54605852D01*
X73785523Y-54558726D01*
X73551164Y-54557090D01*
X73320950Y-54601006D01*
X73103650Y-54688801D01*
X72907542Y-54817130D01*
X72740094Y-54981107D01*
X72607685Y-55174485D01*
X72515359Y-55389899D01*
X72466632Y-55619142D01*
X72463360Y-55853485D01*
X72505667Y-56084000D01*
X72591943Y-56301907D01*
X72718900Y-56498907D01*
X72881704Y-56667495D01*
X73074153Y-56801250D01*
X73288916Y-56895078D01*
X73517814Y-56945405D01*
X73752128Y-56950313D01*
X73982933Y-56909616D01*
X74201437Y-56824863D01*
X74399318Y-56699284D01*
X74569039Y-56537661D01*
X74704135Y-56346151D01*
X74799460Y-56132048D01*
X74851383Y-55903507D01*
X74855121Y-55635817D01*
X74855121Y-58175817D01*
X74809599Y-57945916D01*
X74720289Y-57729234D01*
X74590594Y-57534026D01*
X74425452Y-57367728D01*
X74231154Y-57236672D01*
X74015102Y-57145852D01*
X73785523Y-57098726D01*
X73551164Y-57097090D01*
X73320950Y-57141006D01*
X73103650Y-57228801D01*
X72907542Y-57357130D01*
X72740094Y-57521107D01*
X72607685Y-57714485D01*
X72515359Y-57929899D01*
X72466632Y-58159142D01*
X72463360Y-58393485D01*
X72505667Y-58624000D01*
X72591943Y-58841907D01*
X72718900Y-59038907D01*
X72881704Y-59207495D01*
X73074153Y-59341250D01*
X73288916Y-59435078D01*
X73517814Y-59485405D01*
X73752128Y-59490313D01*
X73982933Y-59449616D01*
X74201437Y-59364863D01*
X74399318Y-59239284D01*
X74569039Y-59077661D01*
X74704135Y-58886151D01*
X74799460Y-58672048D01*
X74851383Y-58443507D01*
X74855121Y-58175817D01*
X74855121Y-59674151D01*
X74636072Y-59893200D01*
X72289936Y-59893200D01*
X72289936Y-58521040D01*
X72289936Y-55981040D01*
X72262612Y-55754293D01*
X72191767Y-55537171D01*
X72108831Y-55381191D01*
X71958936Y-55274031D01*
X71852969Y-55379998D01*
X71852969Y-55168064D01*
X71745809Y-55018169D01*
X71541826Y-54915448D01*
X71321776Y-54854303D01*
X71094040Y-54837064D01*
X70867293Y-54864388D01*
X70650171Y-54935233D01*
X70494191Y-55018169D01*
X70387031Y-55168064D01*
X71120000Y-55901033D01*
X71852969Y-55168064D01*
X71852969Y-55379998D01*
X71225967Y-56007000D01*
X71958936Y-56739969D01*
X72108831Y-56632809D01*
X72211552Y-56428826D01*
X72272697Y-56208776D01*
X72289936Y-55981040D01*
X72289936Y-58521040D01*
X72262612Y-58294293D01*
X72191767Y-58077171D01*
X72108831Y-57921191D01*
X71958936Y-57814031D01*
X71852969Y-57919998D01*
X71852969Y-57708064D01*
X71852969Y-56845936D01*
X71120000Y-56112967D01*
X71014033Y-56218934D01*
X71014033Y-56007000D01*
X70281064Y-55274031D01*
X70131169Y-55381191D01*
X70028448Y-55585174D01*
X69967303Y-55805224D01*
X69950064Y-56032960D01*
X69977388Y-56259707D01*
X70048233Y-56476829D01*
X70131169Y-56632809D01*
X70281064Y-56739969D01*
X71014033Y-56007000D01*
X71014033Y-56218934D01*
X70387031Y-56845936D01*
X70494191Y-56995831D01*
X70698174Y-57098552D01*
X70918224Y-57159697D01*
X71145960Y-57176936D01*
X71372707Y-57149612D01*
X71589829Y-57078767D01*
X71745809Y-56995831D01*
X71852969Y-56845936D01*
X71852969Y-57708064D01*
X71745809Y-57558169D01*
X71541826Y-57455448D01*
X71321776Y-57394303D01*
X71094040Y-57377064D01*
X70867293Y-57404388D01*
X70650171Y-57475233D01*
X70494191Y-57558169D01*
X70387031Y-57708064D01*
X71120000Y-58441033D01*
X71852969Y-57708064D01*
X71852969Y-57919998D01*
X71225967Y-58547000D01*
X71958936Y-59279969D01*
X72108831Y-59172809D01*
X72211552Y-58968826D01*
X72272697Y-58748776D01*
X72289936Y-58521040D01*
X72289936Y-59893200D01*
X71852969Y-59893200D01*
X71852969Y-59385936D01*
X71120000Y-58652967D01*
X71014033Y-58758934D01*
X71014033Y-58547000D01*
X70281064Y-57814031D01*
X70131169Y-57921191D01*
X70028448Y-58125174D01*
X69967303Y-58345224D01*
X69950064Y-58572960D01*
X69977388Y-58799707D01*
X70048233Y-59016829D01*
X70131169Y-59172809D01*
X70281064Y-59279969D01*
X71014033Y-58547000D01*
X71014033Y-58758934D01*
X70387031Y-59385936D01*
X70494191Y-59535831D01*
X70698174Y-59638552D01*
X70918224Y-59699697D01*
X71145960Y-59716936D01*
X71372707Y-59689612D01*
X71589829Y-59618767D01*
X71745809Y-59535831D01*
X71852969Y-59385936D01*
X71852969Y-59893200D01*
X39663927Y-59893200D01*
X39167270Y-59396543D01*
X39167270Y-56979168D01*
X39186538Y-56998571D01*
X39228040Y-57026565D01*
X39274190Y-57045964D01*
X39323228Y-57056030D01*
X39373288Y-57056380D01*
X41274991Y-57056211D01*
X41324099Y-57046487D01*
X41370382Y-57027410D01*
X41412079Y-56999707D01*
X41447601Y-56964432D01*
X41475595Y-56922930D01*
X41494994Y-56876780D01*
X41505060Y-56827742D01*
X41505410Y-56777682D01*
X41505241Y-54675319D01*
X41495517Y-54626211D01*
X41476440Y-54579928D01*
X41448737Y-54538231D01*
X41413462Y-54502709D01*
X41371960Y-54474715D01*
X41325810Y-54455316D01*
X41276772Y-54445250D01*
X41226712Y-54444900D01*
X39325009Y-54445069D01*
X39275901Y-54454793D01*
X39229618Y-54473870D01*
X39187921Y-54501573D01*
X39167270Y-54522080D01*
X39167270Y-54227078D01*
X39186538Y-54246481D01*
X39228040Y-54274475D01*
X39274190Y-54293874D01*
X39323228Y-54303940D01*
X39373288Y-54304290D01*
X41274991Y-54304121D01*
X41324099Y-54294397D01*
X41370382Y-54275320D01*
X41412079Y-54247617D01*
X41447601Y-54212342D01*
X41475595Y-54170840D01*
X41494994Y-54124690D01*
X41505060Y-54075652D01*
X41505410Y-54025592D01*
X41505247Y-52194251D01*
X41535161Y-52207321D01*
X41636840Y-52229677D01*
X41740924Y-52231857D01*
X41843450Y-52213779D01*
X41940511Y-52176131D01*
X41977703Y-52152528D01*
X41979262Y-52153808D01*
X41979292Y-52153833D01*
X42002730Y-52173500D01*
X42004218Y-52174318D01*
X42022970Y-52219812D01*
X42025564Y-52223716D01*
X42023815Y-52226310D01*
X42004416Y-52272460D01*
X41994350Y-52321498D01*
X41994000Y-52371558D01*
X41994169Y-52772121D01*
X42003893Y-52821229D01*
X42022970Y-52867512D01*
X42046017Y-52902201D01*
X42033214Y-52933264D01*
X42024651Y-52976508D01*
X42024660Y-53066813D01*
X42080857Y-53123010D01*
X43174010Y-53123010D01*
X43174010Y-53103010D01*
X43323870Y-53103010D01*
X43323870Y-53123010D01*
X44417023Y-53123010D01*
X44473220Y-53066813D01*
X44473229Y-52976508D01*
X44464666Y-52933264D01*
X44451812Y-52902079D01*
X44474065Y-52869090D01*
X44493464Y-52822940D01*
X44503530Y-52773902D01*
X44503880Y-52723842D01*
X44503711Y-52323279D01*
X44493987Y-52274171D01*
X44474910Y-52227888D01*
X44472315Y-52223983D01*
X44474065Y-52221390D01*
X44493464Y-52175240D01*
X44503530Y-52126202D01*
X44503880Y-52076142D01*
X44503743Y-51752028D01*
X44570511Y-51726131D01*
X44658412Y-51670348D01*
X44733803Y-51598553D01*
X44775205Y-51539861D01*
X44775201Y-51647042D01*
X44783764Y-51690286D01*
X44800563Y-51731043D01*
X44824958Y-51767761D01*
X44856021Y-51799041D01*
X44892568Y-51823693D01*
X44933207Y-51840776D01*
X44976390Y-51849640D01*
X45020472Y-51849947D01*
X45168873Y-51849790D01*
X45225070Y-51793593D01*
X45225070Y-51374930D01*
X45205070Y-51374930D01*
X45205070Y-51225070D01*
X45225070Y-51225070D01*
X45225070Y-50806407D01*
X45218663Y-50800000D01*
X45225070Y-50793593D01*
X45225070Y-50374930D01*
X45205070Y-50374930D01*
X45205070Y-50225070D01*
X45225070Y-50225070D01*
X45225070Y-50205070D01*
X45374930Y-50205070D01*
X45374930Y-50225070D01*
X45394930Y-50225070D01*
X45394930Y-50374930D01*
X45374930Y-50374930D01*
X45374930Y-50793593D01*
X45381337Y-50800000D01*
X45374930Y-50806407D01*
X45374930Y-51225070D01*
X45394930Y-51225070D01*
X45394930Y-51374930D01*
X45374930Y-51374930D01*
X45374930Y-51734942D01*
X45362553Y-51753019D01*
X45321540Y-51848707D01*
X45299895Y-51950539D01*
X45298442Y-52054636D01*
X45317235Y-52157033D01*
X45355560Y-52253829D01*
X45411955Y-52341338D01*
X45484274Y-52416227D01*
X45569762Y-52475642D01*
X45629492Y-52501737D01*
X44765615Y-53365615D01*
X44746166Y-53389292D01*
X44726500Y-53412730D01*
X44725659Y-53414259D01*
X44724554Y-53415605D01*
X44710112Y-53442537D01*
X44695334Y-53469420D01*
X44694805Y-53471085D01*
X44693984Y-53472618D01*
X44685055Y-53501822D01*
X44675773Y-53531084D01*
X44675578Y-53532820D01*
X44675070Y-53534483D01*
X44671981Y-53564887D01*
X44668562Y-53595372D01*
X44668538Y-53598779D01*
X44668532Y-53598843D01*
X44668537Y-53598902D01*
X44668530Y-53600000D01*
X44668530Y-56512700D01*
X44473229Y-56708001D01*
X44473229Y-53419372D01*
X44473220Y-53329067D01*
X44417023Y-53272870D01*
X43323870Y-53272870D01*
X43323870Y-53565923D01*
X43380067Y-53622120D01*
X44227958Y-53622277D01*
X44272040Y-53621970D01*
X44315223Y-53613106D01*
X44355862Y-53596023D01*
X44392409Y-53571371D01*
X44423472Y-53540091D01*
X44447867Y-53503373D01*
X44464666Y-53462616D01*
X44473229Y-53419372D01*
X44473229Y-56708001D01*
X44402700Y-56778530D01*
X43905710Y-56778530D01*
X43905710Y-56025842D01*
X43905541Y-53923479D01*
X43895817Y-53874371D01*
X43876740Y-53828088D01*
X43849037Y-53786391D01*
X43813762Y-53750869D01*
X43772260Y-53722875D01*
X43726110Y-53703476D01*
X43677072Y-53693410D01*
X43627012Y-53693060D01*
X43174010Y-53693107D01*
X43174010Y-53565923D01*
X43174010Y-53272870D01*
X42080857Y-53272870D01*
X42024660Y-53329067D01*
X42024651Y-53419372D01*
X42033214Y-53462616D01*
X42050013Y-53503373D01*
X42074408Y-53540091D01*
X42105471Y-53571371D01*
X42142018Y-53596023D01*
X42182657Y-53613106D01*
X42225840Y-53621970D01*
X42269922Y-53622277D01*
X43117813Y-53622120D01*
X43174010Y-53565923D01*
X43174010Y-53693107D01*
X42025029Y-53693229D01*
X41975921Y-53702953D01*
X41929638Y-53722030D01*
X41887941Y-53749733D01*
X41852419Y-53785008D01*
X41824425Y-53826510D01*
X41805026Y-53872660D01*
X41794960Y-53921698D01*
X41794610Y-53971758D01*
X41794779Y-56074121D01*
X41804503Y-56123229D01*
X41823580Y-56169512D01*
X41851283Y-56211209D01*
X41886558Y-56246731D01*
X41928060Y-56274725D01*
X41974210Y-56294124D01*
X42023248Y-56304190D01*
X42073308Y-56304540D01*
X43675291Y-56304371D01*
X43724399Y-56294647D01*
X43770682Y-56275570D01*
X43812379Y-56247867D01*
X43847901Y-56212592D01*
X43875895Y-56171090D01*
X43895294Y-56124940D01*
X43905360Y-56075902D01*
X43905710Y-56025842D01*
X43905710Y-56778530D01*
X42077000Y-56778530D01*
X42046469Y-56781523D01*
X42016026Y-56784187D01*
X42014354Y-56784672D01*
X42012617Y-56784843D01*
X41983301Y-56793694D01*
X41953902Y-56802235D01*
X41952352Y-56803038D01*
X41950687Y-56803541D01*
X41923671Y-56817905D01*
X41896467Y-56832007D01*
X41895105Y-56833094D01*
X41893567Y-56833912D01*
X41869865Y-56853242D01*
X41845910Y-56872366D01*
X41843483Y-56874759D01*
X41843435Y-56874799D01*
X41843398Y-56874843D01*
X41842615Y-56875616D01*
X41220950Y-57497279D01*
X41211154Y-57490672D01*
X40995102Y-57399852D01*
X40765523Y-57352726D01*
X40531164Y-57351090D01*
X40300950Y-57395006D01*
X40083650Y-57482801D01*
X39887542Y-57611130D01*
X39720094Y-57775107D01*
X39587685Y-57968485D01*
X39495359Y-58183899D01*
X39446632Y-58413142D01*
X39443360Y-58647485D01*
X39485667Y-58878000D01*
X39571943Y-59095907D01*
X39698900Y-59292907D01*
X39861704Y-59461495D01*
X40054153Y-59595250D01*
X40268916Y-59689078D01*
X40497814Y-59739405D01*
X40732128Y-59744313D01*
X40962933Y-59703616D01*
X41181437Y-59618863D01*
X41379318Y-59493284D01*
X41549039Y-59331661D01*
X41684135Y-59140151D01*
X41779460Y-58926048D01*
X41831383Y-58697507D01*
X41835121Y-58429817D01*
X41789599Y-58199916D01*
X41700289Y-57983234D01*
X41689210Y-57966559D01*
X42214299Y-57441470D01*
X42341416Y-57441470D01*
X42260094Y-57521107D01*
X42127685Y-57714485D01*
X42035359Y-57929899D01*
X41986632Y-58159142D01*
X41983360Y-58393485D01*
X42025667Y-58624000D01*
X42111943Y-58841907D01*
X42238900Y-59038907D01*
X42401704Y-59207495D01*
X42594153Y-59341250D01*
X42808916Y-59435078D01*
X43037814Y-59485405D01*
X43272128Y-59490313D01*
X43502933Y-59449616D01*
X43721437Y-59364863D01*
X43919318Y-59239284D01*
X44089039Y-59077661D01*
X44224135Y-58886151D01*
X44319460Y-58672048D01*
X44371383Y-58443507D01*
X44375121Y-58175817D01*
X44329599Y-57945916D01*
X44247311Y-57746272D01*
X44666254Y-57746272D01*
X44696735Y-57743283D01*
X44727228Y-57740616D01*
X44728904Y-57740128D01*
X44730637Y-57739959D01*
X44759924Y-57731116D01*
X44789351Y-57722567D01*
X44790899Y-57721764D01*
X44792567Y-57721261D01*
X44819581Y-57706897D01*
X44846786Y-57692796D01*
X44848149Y-57691707D01*
X44849687Y-57690890D01*
X44873352Y-57671588D01*
X44897344Y-57652437D01*
X44899776Y-57650037D01*
X44899819Y-57650003D01*
X44899851Y-57649963D01*
X44900639Y-57649187D01*
X45539187Y-57010639D01*
X45558635Y-56986961D01*
X45578302Y-56963524D01*
X45579142Y-56961994D01*
X45580248Y-56960649D01*
X45594699Y-56933697D01*
X45609468Y-56906834D01*
X45609995Y-56905170D01*
X45610818Y-56903637D01*
X45619751Y-56874416D01*
X45629029Y-56845170D01*
X45629223Y-56843433D01*
X45629732Y-56841771D01*
X45632815Y-56811411D01*
X45636240Y-56780882D01*
X45636263Y-56777463D01*
X45636269Y-56777411D01*
X45636264Y-56777361D01*
X45636272Y-56776254D01*
X45636272Y-53863553D01*
X47266501Y-52233323D01*
X47269463Y-52248279D01*
X47288540Y-52294562D01*
X47291134Y-52298466D01*
X47289385Y-52301060D01*
X47269986Y-52347210D01*
X47259920Y-52396248D01*
X47259570Y-52446308D01*
X47259739Y-52697011D01*
X47269463Y-52746119D01*
X47288540Y-52792402D01*
X47311636Y-52827165D01*
X47299244Y-52856647D01*
X47290380Y-52899830D01*
X47290073Y-52943912D01*
X47290230Y-52929473D01*
X47346427Y-52985670D01*
X48189390Y-52985670D01*
X48189390Y-52952970D01*
X48339250Y-52952970D01*
X48339250Y-52985670D01*
X48359250Y-52985670D01*
X48359250Y-53110130D01*
X48339250Y-53110130D01*
X48339250Y-53255227D01*
X48339250Y-53340953D01*
X48339250Y-53486050D01*
X48359250Y-53486050D01*
X48359250Y-53610510D01*
X48339250Y-53610510D01*
X48339250Y-53841333D01*
X48395447Y-53897530D01*
X48649526Y-53897533D01*
X48210000Y-54337059D01*
X47950745Y-54077805D01*
X47950883Y-54067946D01*
X47930662Y-53965822D01*
X47902515Y-53897533D01*
X48133193Y-53897530D01*
X48189390Y-53841333D01*
X48189390Y-53610510D01*
X48189390Y-53486050D01*
X48189390Y-53340953D01*
X48189390Y-53255227D01*
X48189390Y-53110130D01*
X47346427Y-53110130D01*
X47290230Y-53166327D01*
X47290073Y-53151888D01*
X47290380Y-53195970D01*
X47299244Y-53239153D01*
X47316327Y-53279792D01*
X47328669Y-53298090D01*
X47316327Y-53316388D01*
X47299244Y-53357027D01*
X47290380Y-53400210D01*
X47290073Y-53444292D01*
X47290230Y-53429853D01*
X47346427Y-53486050D01*
X48189390Y-53486050D01*
X48189390Y-53610510D01*
X47577936Y-53610510D01*
X47577739Y-53610427D01*
X47475759Y-53589493D01*
X47371654Y-53588766D01*
X47269391Y-53608274D01*
X47172864Y-53647273D01*
X47085751Y-53704279D01*
X47011370Y-53777118D01*
X46952553Y-53863019D01*
X46911540Y-53958707D01*
X46889895Y-54060539D01*
X46888442Y-54164636D01*
X46907235Y-54267033D01*
X46945560Y-54363829D01*
X47001955Y-54451338D01*
X47074274Y-54526227D01*
X47159762Y-54585642D01*
X47255161Y-54627321D01*
X47356840Y-54649677D01*
X47377162Y-54650102D01*
X47719653Y-54992594D01*
X47719719Y-55225031D01*
X47729443Y-55274139D01*
X47748520Y-55320422D01*
X47776223Y-55362119D01*
X47811498Y-55397641D01*
X47842192Y-55418345D01*
X47832239Y-55424958D01*
X47800959Y-55456021D01*
X47776307Y-55492568D01*
X47759224Y-55533207D01*
X47750360Y-55576390D01*
X47750053Y-55620472D01*
X47750210Y-55768873D01*
X47806407Y-55825070D01*
X48225070Y-55825070D01*
X48225070Y-55805070D01*
X48374930Y-55805070D01*
X48374930Y-55825070D01*
X48793593Y-55825070D01*
X48849790Y-55768873D01*
X48849947Y-55620472D01*
X48849640Y-55576390D01*
X48840776Y-55533207D01*
X48823693Y-55492568D01*
X48799041Y-55456021D01*
X48767761Y-55424958D01*
X48757736Y-55418298D01*
X48787119Y-55398777D01*
X48822641Y-55363502D01*
X48850635Y-55322000D01*
X48870034Y-55275850D01*
X48880100Y-55226812D01*
X48880450Y-55176752D01*
X48880347Y-54812592D01*
X49461496Y-54231443D01*
X49444226Y-54272530D01*
X49434160Y-54321568D01*
X49433810Y-54371628D01*
X49433979Y-55872011D01*
X49443703Y-55921119D01*
X49462780Y-55967402D01*
X49463198Y-55968031D01*
X48849947Y-56581282D01*
X48849947Y-56179528D01*
X48849790Y-56031127D01*
X48793593Y-55974930D01*
X48374930Y-55974930D01*
X48374930Y-56368593D01*
X48431127Y-56424790D01*
X48647042Y-56424799D01*
X48690286Y-56416236D01*
X48731043Y-56399437D01*
X48767761Y-56375042D01*
X48799041Y-56343979D01*
X48823693Y-56307432D01*
X48840776Y-56266793D01*
X48849640Y-56223610D01*
X48849947Y-56179528D01*
X48849947Y-56581282D01*
X48662700Y-56768530D01*
X48225070Y-56768530D01*
X48225070Y-56368593D01*
X48225070Y-55974930D01*
X47806407Y-55974930D01*
X47750210Y-56031127D01*
X47750053Y-56179528D01*
X47750360Y-56223610D01*
X47759224Y-56266793D01*
X47776307Y-56307432D01*
X47800959Y-56343979D01*
X47832239Y-56375042D01*
X47868957Y-56399437D01*
X47909714Y-56416236D01*
X47952958Y-56424799D01*
X48168873Y-56424790D01*
X48225070Y-56368593D01*
X48225070Y-56768530D01*
X47167000Y-56768530D01*
X47136518Y-56771518D01*
X47106026Y-56774186D01*
X47104349Y-56774673D01*
X47102617Y-56774843D01*
X47073329Y-56783685D01*
X47043903Y-56792235D01*
X47042354Y-56793037D01*
X47040687Y-56793541D01*
X47013672Y-56807904D01*
X46986468Y-56822006D01*
X46985104Y-56823094D01*
X46983567Y-56823912D01*
X46959901Y-56843213D01*
X46935910Y-56862365D01*
X46933477Y-56864764D01*
X46933435Y-56864799D01*
X46933402Y-56864838D01*
X46932615Y-56865615D01*
X46300950Y-57497279D01*
X46291154Y-57490672D01*
X46075102Y-57399852D01*
X45845523Y-57352726D01*
X45611164Y-57351090D01*
X45380950Y-57395006D01*
X45163650Y-57482801D01*
X44967542Y-57611130D01*
X44800094Y-57775107D01*
X44667685Y-57968485D01*
X44575359Y-58183899D01*
X44526632Y-58413142D01*
X44523360Y-58647485D01*
X44565667Y-58878000D01*
X44651943Y-59095907D01*
X44778900Y-59292907D01*
X44941704Y-59461495D01*
X45134153Y-59595250D01*
X45348916Y-59689078D01*
X45577814Y-59739405D01*
X45812128Y-59744313D01*
X46042933Y-59703616D01*
X46261437Y-59618863D01*
X46459318Y-59493284D01*
X46629039Y-59331661D01*
X46764135Y-59140151D01*
X46859460Y-58926048D01*
X46911383Y-58697507D01*
X46915121Y-58429817D01*
X46869599Y-58199916D01*
X46780289Y-57983234D01*
X46769210Y-57966559D01*
X47304300Y-57431470D01*
X47431628Y-57431470D01*
X47340094Y-57521107D01*
X47207685Y-57714485D01*
X47115359Y-57929899D01*
X47066632Y-58159142D01*
X47063360Y-58393485D01*
X47105667Y-58624000D01*
X47191943Y-58841907D01*
X47318900Y-59038907D01*
X47481704Y-59207495D01*
X47674153Y-59341250D01*
X47888916Y-59435078D01*
X48117814Y-59485405D01*
X48352128Y-59490313D01*
X48582933Y-59449616D01*
X48801437Y-59364863D01*
X48999318Y-59239284D01*
X49169039Y-59077661D01*
X49304135Y-58886151D01*
X49399460Y-58672048D01*
X49451383Y-58443507D01*
X49455121Y-58175817D01*
X49409599Y-57945916D01*
X49320289Y-57729234D01*
X49220614Y-57579210D01*
X49800955Y-56998870D01*
X51879360Y-56998870D01*
X51380950Y-57497279D01*
X51371154Y-57490672D01*
X51155102Y-57399852D01*
X50925523Y-57352726D01*
X50691164Y-57351090D01*
X50460950Y-57395006D01*
X50243650Y-57482801D01*
X50047542Y-57611130D01*
X49880094Y-57775107D01*
X49747685Y-57968485D01*
X49655359Y-58183899D01*
X49606632Y-58413142D01*
X49603360Y-58647485D01*
X49645667Y-58878000D01*
X49731943Y-59095907D01*
X49858900Y-59292907D01*
X50021704Y-59461495D01*
X50214153Y-59595250D01*
X50428916Y-59689078D01*
X50657814Y-59739405D01*
X50892128Y-59744313D01*
X51122933Y-59703616D01*
X51341437Y-59618863D01*
X51539318Y-59493284D01*
X51709039Y-59331661D01*
X51844135Y-59140151D01*
X51939460Y-58926048D01*
X51991383Y-58697507D01*
X51995121Y-58429817D01*
X51949599Y-58199916D01*
X51860289Y-57983234D01*
X51849210Y-57966559D01*
X53024384Y-56791385D01*
X53043826Y-56767715D01*
X53063500Y-56744270D01*
X53064339Y-56742743D01*
X53065446Y-56741396D01*
X53079889Y-56714457D01*
X53094666Y-56687580D01*
X53095195Y-56685912D01*
X53096015Y-56684383D01*
X53104938Y-56655196D01*
X53114227Y-56625916D01*
X53114421Y-56624180D01*
X53114930Y-56622518D01*
X53117267Y-56599503D01*
X53135161Y-56607321D01*
X53236840Y-56629677D01*
X53340924Y-56631857D01*
X53443450Y-56613779D01*
X53480210Y-56599520D01*
X53480210Y-57101740D01*
X53465523Y-57098726D01*
X53231164Y-57097090D01*
X53000950Y-57141006D01*
X52783650Y-57228801D01*
X52587542Y-57357130D01*
X52420094Y-57521107D01*
X52287685Y-57714485D01*
X52195359Y-57929899D01*
X52146632Y-58159142D01*
X52143360Y-58393485D01*
X52185667Y-58624000D01*
X52271943Y-58841907D01*
X52398900Y-59038907D01*
X52561704Y-59207495D01*
X52754153Y-59341250D01*
X52968916Y-59435078D01*
X53197814Y-59485405D01*
X53432128Y-59490313D01*
X53662933Y-59449616D01*
X53881437Y-59364863D01*
X54079318Y-59239284D01*
X54249039Y-59077661D01*
X54384135Y-58886151D01*
X54479460Y-58672048D01*
X54531383Y-58443507D01*
X54535121Y-58175817D01*
X54489599Y-57945916D01*
X54400289Y-57729234D01*
X54270594Y-57534026D01*
X54143150Y-57405689D01*
X54143150Y-56098980D01*
X54158248Y-56102080D01*
X54208308Y-56102430D01*
X54459011Y-56102261D01*
X54508119Y-56092537D01*
X54554402Y-56073460D01*
X54589091Y-56050412D01*
X54620154Y-56063216D01*
X54663398Y-56071779D01*
X54691473Y-56071770D01*
X54747670Y-56015573D01*
X54747670Y-55172610D01*
X54714970Y-55172610D01*
X54714970Y-55022750D01*
X54747670Y-55022750D01*
X54747670Y-55002750D01*
X54872130Y-55002750D01*
X54872130Y-55022750D01*
X54904830Y-55022750D01*
X54904830Y-55172610D01*
X54872130Y-55172610D01*
X54872130Y-56015573D01*
X54928327Y-56071770D01*
X54956402Y-56071779D01*
X54978810Y-56067341D01*
X54978810Y-57756778D01*
X54960094Y-57775107D01*
X54827685Y-57968485D01*
X54735359Y-58183899D01*
X54686632Y-58413142D01*
X54683360Y-58647485D01*
X54725667Y-58878000D01*
X54811943Y-59095907D01*
X54938900Y-59292907D01*
X55101704Y-59461495D01*
X55294153Y-59595250D01*
X55508916Y-59689078D01*
X55737814Y-59739405D01*
X55972128Y-59744313D01*
X56202933Y-59703616D01*
X56421437Y-59618863D01*
X56619318Y-59493284D01*
X56789039Y-59331661D01*
X56924135Y-59140151D01*
X57019460Y-58926048D01*
X57071383Y-58697507D01*
X57075121Y-58429817D01*
X57029599Y-58199916D01*
X56940289Y-57983234D01*
X56810594Y-57788026D01*
X56645452Y-57621728D01*
X56451154Y-57490672D01*
X56235102Y-57399852D01*
X56005523Y-57352726D01*
X55771164Y-57351090D01*
X55641750Y-57375777D01*
X55641750Y-55996592D01*
X55660375Y-55968980D01*
X55679774Y-55922830D01*
X55689840Y-55873792D01*
X55690190Y-55823732D01*
X55690149Y-55467536D01*
X55700560Y-55493829D01*
X55756955Y-55581338D01*
X55829274Y-55656227D01*
X55914762Y-55715642D01*
X56010161Y-55757321D01*
X56111840Y-55779677D01*
X56215924Y-55781857D01*
X56223904Y-55780449D01*
X56825031Y-55780281D01*
X56874139Y-55770557D01*
X56920422Y-55751480D01*
X56962119Y-55723777D01*
X56997641Y-55688502D01*
X57018345Y-55657807D01*
X57024958Y-55667761D01*
X57056021Y-55699041D01*
X57092568Y-55723693D01*
X57133207Y-55740776D01*
X57176390Y-55749640D01*
X57220472Y-55749947D01*
X57368873Y-55749790D01*
X57425070Y-55693593D01*
X57425070Y-55274930D01*
X57405070Y-55274930D01*
X57405070Y-55125070D01*
X57425070Y-55125070D01*
X57425070Y-54706407D01*
X57368873Y-54650210D01*
X57220472Y-54650053D01*
X57176390Y-54650360D01*
X57133207Y-54659224D01*
X57092568Y-54676307D01*
X57056021Y-54700959D01*
X57024958Y-54732239D01*
X57018298Y-54742263D01*
X56998777Y-54712881D01*
X56963502Y-54677359D01*
X56922000Y-54649365D01*
X56875850Y-54629966D01*
X56826812Y-54619900D01*
X56776752Y-54619550D01*
X56174969Y-54619719D01*
X56125861Y-54629443D01*
X56079578Y-54648520D01*
X56037881Y-54676223D01*
X56002359Y-54711498D01*
X55974365Y-54753000D01*
X55971587Y-54759607D01*
X55927864Y-54777273D01*
X55840751Y-54834279D01*
X55766370Y-54907118D01*
X55707553Y-54993019D01*
X55690101Y-55033736D01*
X55690021Y-54323349D01*
X55680297Y-54274241D01*
X55661220Y-54227958D01*
X55633517Y-54186261D01*
X55598242Y-54150739D01*
X55556740Y-54122745D01*
X55510590Y-54103346D01*
X55461552Y-54093280D01*
X55411492Y-54092930D01*
X55160789Y-54093099D01*
X55111681Y-54102823D01*
X55065398Y-54121900D01*
X55030708Y-54144947D01*
X54999646Y-54132144D01*
X54956402Y-54123581D01*
X54928327Y-54123590D01*
X54884832Y-54167085D01*
X54884832Y-54123590D01*
X54844809Y-54123590D01*
X54845483Y-54075346D01*
X54825262Y-53973222D01*
X54785590Y-53876970D01*
X54727978Y-53790257D01*
X54654620Y-53716386D01*
X54568312Y-53658170D01*
X54472339Y-53617827D01*
X54370359Y-53596893D01*
X54266254Y-53596166D01*
X54163991Y-53615674D01*
X54067464Y-53654673D01*
X53980351Y-53711679D01*
X53920254Y-53770530D01*
X51571400Y-53770530D01*
X51540869Y-53773523D01*
X51510426Y-53776187D01*
X51508754Y-53776672D01*
X51507017Y-53776843D01*
X51477701Y-53785694D01*
X51448302Y-53794235D01*
X51446752Y-53795038D01*
X51445087Y-53795541D01*
X51418090Y-53809895D01*
X51390868Y-53824006D01*
X51389504Y-53825094D01*
X51387967Y-53825912D01*
X51364270Y-53845238D01*
X51340310Y-53864366D01*
X51337883Y-53866759D01*
X51337835Y-53866799D01*
X51337798Y-53866843D01*
X51337015Y-53867616D01*
X51294186Y-53910443D01*
X51280390Y-53876970D01*
X51222778Y-53790257D01*
X51149420Y-53716386D01*
X51063112Y-53658170D01*
X50967139Y-53617827D01*
X50865159Y-53596893D01*
X50761054Y-53596166D01*
X50658791Y-53615674D01*
X50562264Y-53654673D01*
X50475151Y-53711679D01*
X50400770Y-53784518D01*
X50341953Y-53870419D01*
X50300940Y-53966107D01*
X50279295Y-54067939D01*
X50278944Y-54093021D01*
X50164609Y-54093099D01*
X50115501Y-54102823D01*
X50069218Y-54121900D01*
X50064033Y-54125344D01*
X50060180Y-54122745D01*
X50014030Y-54103346D01*
X49964992Y-54093280D01*
X49914932Y-54092930D01*
X49664229Y-54093099D01*
X49615121Y-54102823D01*
X49572584Y-54120355D01*
X49606470Y-54086470D01*
X49630202Y-54057576D01*
X49654278Y-54028885D01*
X49655305Y-54027016D01*
X49656656Y-54025372D01*
X49674333Y-53992403D01*
X49692369Y-53959598D01*
X49693012Y-53957568D01*
X49694020Y-53955690D01*
X49704956Y-53919916D01*
X49716277Y-53884231D01*
X49716514Y-53882111D01*
X49717137Y-53880076D01*
X49720911Y-53842911D01*
X49725091Y-53805656D01*
X49725119Y-53801485D01*
X49725127Y-53801414D01*
X49725120Y-53801347D01*
X49725130Y-53800000D01*
X49725130Y-52370000D01*
X49721474Y-52332716D01*
X49718216Y-52295475D01*
X49717621Y-52293430D01*
X49717414Y-52291310D01*
X49706595Y-52255477D01*
X49696157Y-52219548D01*
X49695177Y-52217657D01*
X49694561Y-52215617D01*
X49676982Y-52182556D01*
X49659770Y-52149350D01*
X49658441Y-52147686D01*
X49657441Y-52145804D01*
X49633804Y-52116822D01*
X49610441Y-52087556D01*
X49607510Y-52084584D01*
X49607468Y-52084532D01*
X49607419Y-52084491D01*
X49606470Y-52083529D01*
X49286150Y-51763210D01*
X49260232Y-51741921D01*
X49268720Y-51700572D01*
X49269070Y-51650512D01*
X49268901Y-51399809D01*
X49259177Y-51350701D01*
X49240100Y-51304418D01*
X49236655Y-51299233D01*
X49239255Y-51295380D01*
X49258654Y-51249230D01*
X49268720Y-51200192D01*
X49269070Y-51150132D01*
X49269054Y-51126925D01*
X49351724Y-51128657D01*
X49454250Y-51110579D01*
X49551311Y-51072931D01*
X49639212Y-51017148D01*
X49714603Y-50945353D01*
X49774614Y-50860283D01*
X49816958Y-50765176D01*
X49840023Y-50663656D01*
X49841683Y-50544746D01*
X49821462Y-50442622D01*
X49781790Y-50346370D01*
X49724178Y-50259657D01*
X49650820Y-50185786D01*
X49564512Y-50127570D01*
X49468539Y-50087227D01*
X49366559Y-50066293D01*
X49269011Y-50065611D01*
X49268901Y-49901209D01*
X49259177Y-49852101D01*
X49240100Y-49805818D01*
X49236655Y-49800633D01*
X49239255Y-49796780D01*
X49258654Y-49750630D01*
X49268720Y-49701592D01*
X49269070Y-49651532D01*
X49268901Y-49400829D01*
X49259177Y-49351721D01*
X49240100Y-49305438D01*
X49237505Y-49301533D01*
X49239255Y-49298940D01*
X49258654Y-49252790D01*
X49268720Y-49203752D01*
X49269070Y-49153692D01*
X49268901Y-48902989D01*
X49259177Y-48853881D01*
X49240100Y-48807598D01*
X49217003Y-48772834D01*
X49229396Y-48743353D01*
X49238260Y-48700170D01*
X49238567Y-48656088D01*
X49238410Y-48670527D01*
X49182213Y-48614330D01*
X48339250Y-48614330D01*
X48339250Y-48647030D01*
X48189390Y-48647030D01*
X48189390Y-48614330D01*
X48169390Y-48614330D01*
X48169390Y-48489870D01*
X48189390Y-48489870D01*
X48189390Y-48457170D01*
X48339250Y-48457170D01*
X48339250Y-48489870D01*
X49182213Y-48489870D01*
X49238410Y-48433673D01*
X49238567Y-48448112D01*
X49238260Y-48404030D01*
X49229396Y-48360847D01*
X49216952Y-48331244D01*
X49239255Y-48298180D01*
X49258654Y-48252030D01*
X49268720Y-48202992D01*
X49269070Y-48152932D01*
X49268901Y-47902229D01*
X49259177Y-47853121D01*
X49240100Y-47806838D01*
X49212397Y-47765141D01*
X49177122Y-47729619D01*
X49135620Y-47701625D01*
X49089470Y-47682226D01*
X49040432Y-47672160D01*
X48990372Y-47671810D01*
X48669450Y-47671846D01*
X48669450Y-47367130D01*
X48788000Y-47367130D01*
X48825246Y-47363477D01*
X48862524Y-47360216D01*
X48864568Y-47359622D01*
X48866690Y-47359414D01*
X48902534Y-47348592D01*
X48938452Y-47338157D01*
X48940342Y-47337177D01*
X48942383Y-47336561D01*
X48975443Y-47318982D01*
X49008650Y-47301770D01*
X49010313Y-47300441D01*
X49012196Y-47299441D01*
X49041171Y-47275809D01*
X49070443Y-47252442D01*
X49073411Y-47249514D01*
X49073468Y-47249468D01*
X49073511Y-47249415D01*
X49074470Y-47248470D01*
X49266117Y-47056822D01*
X49368450Y-47038779D01*
X49433949Y-47013373D01*
X49433979Y-47276651D01*
X49443703Y-47325759D01*
X49462780Y-47372042D01*
X49490483Y-47413739D01*
X49525758Y-47449261D01*
X49567260Y-47477255D01*
X49613410Y-47496654D01*
X49662448Y-47506720D01*
X49712508Y-47507070D01*
X49963211Y-47506901D01*
X50012319Y-47497177D01*
X50058602Y-47478100D01*
X50063786Y-47474655D01*
X50067640Y-47477255D01*
X50113790Y-47496654D01*
X50162828Y-47506720D01*
X50212888Y-47507070D01*
X50463591Y-47506901D01*
X50512699Y-47497177D01*
X50558982Y-47478100D01*
X50564166Y-47474655D01*
X50568020Y-47477255D01*
X50614170Y-47496654D01*
X50663208Y-47506720D01*
X50713268Y-47507070D01*
X50963971Y-47506901D01*
X51013079Y-47497177D01*
X51059362Y-47478100D01*
X51063266Y-47475505D01*
X51065860Y-47477255D01*
X51112010Y-47496654D01*
X51161048Y-47506720D01*
X51211108Y-47507070D01*
X51461811Y-47506901D01*
X51510919Y-47497177D01*
X51557202Y-47478100D01*
X51562386Y-47474655D01*
X51566240Y-47477255D01*
X51612390Y-47496654D01*
X51661428Y-47506720D01*
X51711488Y-47507070D01*
X51962191Y-47506901D01*
X52011299Y-47497177D01*
X52057582Y-47478100D01*
X52062766Y-47474655D01*
X52066620Y-47477255D01*
X52112770Y-47496654D01*
X52161808Y-47506720D01*
X52211868Y-47507070D01*
X52462571Y-47506901D01*
X52511679Y-47497177D01*
X52557962Y-47478100D01*
X52561866Y-47475505D01*
X52564460Y-47477255D01*
X52610610Y-47496654D01*
X52659648Y-47506720D01*
X52709708Y-47507070D01*
X52960411Y-47506901D01*
X53009519Y-47497177D01*
X53055802Y-47478100D01*
X53060986Y-47474655D01*
X53064840Y-47477255D01*
X53110990Y-47496654D01*
X53160028Y-47506720D01*
X53210088Y-47507070D01*
X53268966Y-47507030D01*
X53268442Y-47544636D01*
X53287235Y-47647033D01*
X53325560Y-47743829D01*
X53381955Y-47831338D01*
X53454274Y-47906227D01*
X53539762Y-47965642D01*
X53635161Y-48007321D01*
X53736840Y-48029677D01*
X53840924Y-48031857D01*
X53943450Y-48013779D01*
X54040511Y-47976131D01*
X54128412Y-47920348D01*
X54203803Y-47848553D01*
X54263814Y-47763483D01*
X54287257Y-47710826D01*
X54308815Y-47732384D01*
X54332462Y-47751808D01*
X54355930Y-47771500D01*
X54357459Y-47772340D01*
X54358805Y-47773446D01*
X54385756Y-47787897D01*
X54412620Y-47802666D01*
X54414283Y-47803193D01*
X54415817Y-47804016D01*
X54445037Y-47812949D01*
X54474284Y-47822227D01*
X54476020Y-47822421D01*
X54477683Y-47822930D01*
X54508042Y-47826013D01*
X54538572Y-47829438D01*
X54541990Y-47829461D01*
X54542043Y-47829467D01*
X54542092Y-47829462D01*
X54543200Y-47829470D01*
X55533800Y-47829470D01*
X55564281Y-47826481D01*
X55594774Y-47823814D01*
X55596450Y-47823326D01*
X55598183Y-47823157D01*
X55627470Y-47814314D01*
X55656897Y-47805765D01*
X55658445Y-47804962D01*
X55660113Y-47804459D01*
X55687127Y-47790095D01*
X55714332Y-47775994D01*
X55715695Y-47774905D01*
X55717233Y-47774088D01*
X55740898Y-47754786D01*
X55764890Y-47735635D01*
X55767322Y-47733235D01*
X55767365Y-47733201D01*
X55767397Y-47733161D01*
X55768185Y-47732385D01*
X55920585Y-47579985D01*
X55940033Y-47556307D01*
X55959700Y-47532870D01*
X55960540Y-47531340D01*
X55961646Y-47529995D01*
X55976097Y-47503043D01*
X55990866Y-47476180D01*
X55991393Y-47474516D01*
X55992216Y-47472983D01*
X56001149Y-47443762D01*
X56010427Y-47414516D01*
X56010621Y-47412779D01*
X56011130Y-47411117D01*
X56014218Y-47380712D01*
X56017638Y-47350228D01*
X56017661Y-47346820D01*
X56017668Y-47346757D01*
X56017662Y-47346697D01*
X56017670Y-47345600D01*
X56017670Y-46102280D01*
X56300000Y-46102280D01*
X56368407Y-46102280D01*
X56372315Y-46123573D01*
X56410640Y-46220369D01*
X56467035Y-46307878D01*
X56539354Y-46382767D01*
X56624842Y-46442182D01*
X56720241Y-46483861D01*
X56821920Y-46506217D01*
X56926004Y-46508397D01*
X57028530Y-46490319D01*
X57125591Y-46452671D01*
X57213492Y-46396888D01*
X57288883Y-46325093D01*
X57348894Y-46240023D01*
X57391238Y-46144916D01*
X57400924Y-46102280D01*
X59033510Y-46102280D01*
X59945361Y-47014132D01*
X58353942Y-47014132D01*
X58323411Y-47017125D01*
X58292968Y-47019789D01*
X58291296Y-47020274D01*
X58289559Y-47020445D01*
X58260243Y-47029296D01*
X58230844Y-47037837D01*
X58229294Y-47038640D01*
X58227629Y-47039143D01*
X58200653Y-47053486D01*
X58173409Y-47067608D01*
X58172043Y-47068698D01*
X58170509Y-47069514D01*
X58146834Y-47088822D01*
X58122852Y-47107968D01*
X58120425Y-47110361D01*
X58120377Y-47110401D01*
X58120340Y-47110445D01*
X58119557Y-47111218D01*
X57558961Y-47671813D01*
X56085349Y-47671979D01*
X56036241Y-47681703D01*
X55989958Y-47700780D01*
X55948261Y-47728483D01*
X55912739Y-47763758D01*
X55884745Y-47805260D01*
X55865346Y-47851410D01*
X55855280Y-47900448D01*
X55854930Y-47950508D01*
X55855099Y-48201211D01*
X55864823Y-48250319D01*
X55883900Y-48296602D01*
X55887344Y-48301786D01*
X55884745Y-48305640D01*
X55865346Y-48351790D01*
X55855280Y-48400828D01*
X55854930Y-48450888D01*
X55855099Y-48701591D01*
X55864823Y-48750699D01*
X55883900Y-48796982D01*
X55887344Y-48802166D01*
X55884745Y-48806020D01*
X55865346Y-48852170D01*
X55855280Y-48901208D01*
X55854930Y-48951268D01*
X55854975Y-49018963D01*
X55826654Y-49018766D01*
X55724391Y-49038274D01*
X55627864Y-49077273D01*
X55540751Y-49134279D01*
X55466370Y-49207118D01*
X55407553Y-49293019D01*
X55366540Y-49388707D01*
X55344895Y-49490539D01*
X55343442Y-49594636D01*
X55362235Y-49697033D01*
X55400560Y-49793829D01*
X55456955Y-49881338D01*
X55529274Y-49956227D01*
X55614762Y-50015642D01*
X55710161Y-50057321D01*
X55811840Y-50079677D01*
X55855018Y-50080581D01*
X55855099Y-50200191D01*
X55864823Y-50249299D01*
X55883900Y-50295582D01*
X55887344Y-50300766D01*
X55884745Y-50304620D01*
X55865346Y-50350770D01*
X55855280Y-50399808D01*
X55854930Y-50449868D01*
X55855099Y-50700571D01*
X55864823Y-50749679D01*
X55883900Y-50795962D01*
X55886494Y-50799866D01*
X55884745Y-50802460D01*
X55865346Y-50848610D01*
X55855280Y-50897648D01*
X55854930Y-50947708D01*
X55855099Y-51198411D01*
X55864823Y-51247519D01*
X55883900Y-51293802D01*
X55887344Y-51298986D01*
X55884745Y-51302840D01*
X55865346Y-51348990D01*
X55855280Y-51398028D01*
X55854930Y-51448088D01*
X55855099Y-51698791D01*
X55864823Y-51747899D01*
X55883900Y-51794182D01*
X55887344Y-51799366D01*
X55884745Y-51803220D01*
X55865346Y-51849370D01*
X55855280Y-51898408D01*
X55854930Y-51948468D01*
X55855099Y-52199171D01*
X55864823Y-52248279D01*
X55883900Y-52294562D01*
X55886494Y-52298466D01*
X55884745Y-52301060D01*
X55865346Y-52347210D01*
X55855280Y-52396248D01*
X55854930Y-52446308D01*
X55855099Y-52697011D01*
X55864823Y-52746119D01*
X55883900Y-52792402D01*
X55887344Y-52797586D01*
X55884745Y-52801440D01*
X55865346Y-52847590D01*
X55855280Y-52896628D01*
X55854930Y-52946688D01*
X55855099Y-53197391D01*
X55864823Y-53246499D01*
X55883900Y-53292782D01*
X55887344Y-53297966D01*
X55884745Y-53301820D01*
X55865346Y-53347970D01*
X55855280Y-53397008D01*
X55854930Y-53447068D01*
X55855099Y-53697771D01*
X55864823Y-53746879D01*
X55883900Y-53793162D01*
X55911603Y-53834859D01*
X55946878Y-53870381D01*
X55988380Y-53898375D01*
X56034530Y-53917774D01*
X56083568Y-53927840D01*
X56133628Y-53928190D01*
X57634011Y-53928021D01*
X57683119Y-53918297D01*
X57729402Y-53899220D01*
X57731233Y-53898003D01*
X58390030Y-54556800D01*
X58390030Y-57097640D01*
X58311164Y-57097090D01*
X58080950Y-57141006D01*
X58024799Y-57163692D01*
X58024799Y-55547042D01*
X58024799Y-54852958D01*
X58016236Y-54809714D01*
X57999437Y-54768957D01*
X57975042Y-54732239D01*
X57943979Y-54700959D01*
X57907432Y-54676307D01*
X57866793Y-54659224D01*
X57823610Y-54650360D01*
X57779528Y-54650053D01*
X57631127Y-54650210D01*
X57574930Y-54706407D01*
X57574930Y-55125070D01*
X57968593Y-55125070D01*
X58024790Y-55068873D01*
X58024799Y-54852958D01*
X58024799Y-55547042D01*
X58024790Y-55331127D01*
X57968593Y-55274930D01*
X57574930Y-55274930D01*
X57574930Y-55693593D01*
X57631127Y-55749790D01*
X57779528Y-55749947D01*
X57823610Y-55749640D01*
X57866793Y-55740776D01*
X57907432Y-55723693D01*
X57943979Y-55699041D01*
X57975042Y-55667761D01*
X57999437Y-55631043D01*
X58016236Y-55590286D01*
X58024799Y-55547042D01*
X58024799Y-57163692D01*
X57863650Y-57228801D01*
X57667542Y-57357130D01*
X57500094Y-57521107D01*
X57425070Y-57630676D01*
X57367685Y-57714485D01*
X57275359Y-57929899D01*
X57226632Y-58159142D01*
X57223360Y-58393485D01*
X57265667Y-58624000D01*
X57351943Y-58841907D01*
X57478900Y-59038907D01*
X57641704Y-59207495D01*
X57834153Y-59341250D01*
X58048916Y-59435078D01*
X58277814Y-59485405D01*
X58512128Y-59490313D01*
X58742933Y-59449616D01*
X58961437Y-59364863D01*
X59159318Y-59239284D01*
X59329039Y-59077661D01*
X59464135Y-58886151D01*
X59559460Y-58672048D01*
X59611383Y-58443507D01*
X59615121Y-58175817D01*
X59569599Y-57945916D01*
X59480289Y-57729234D01*
X59350594Y-57534026D01*
X59185452Y-57367728D01*
X59052970Y-57278367D01*
X59052970Y-56678747D01*
X60095283Y-57721061D01*
X60040094Y-57775107D01*
X59907685Y-57968485D01*
X59815359Y-58183899D01*
X59766632Y-58413142D01*
X59763360Y-58647485D01*
X59805667Y-58878000D01*
X59891943Y-59095907D01*
X60018900Y-59292907D01*
X60181704Y-59461495D01*
X60374153Y-59595250D01*
X60588916Y-59689078D01*
X60817814Y-59739405D01*
X61052128Y-59744313D01*
X61282933Y-59703616D01*
X61501437Y-59618863D01*
X61699318Y-59493284D01*
X61869039Y-59331661D01*
X62004135Y-59140151D01*
X62099460Y-58926048D01*
X62151383Y-58697507D01*
X62155121Y-58429817D01*
X62109599Y-58199916D01*
X62020289Y-57983234D01*
X61890594Y-57788026D01*
X61775344Y-57671970D01*
X62410200Y-57671970D01*
X62449729Y-57711499D01*
X62447685Y-57714485D01*
X62355359Y-57929899D01*
X62306632Y-58159142D01*
X62303360Y-58393485D01*
X62345667Y-58624000D01*
X62431943Y-58841907D01*
X62558900Y-59038907D01*
X62721704Y-59207495D01*
X62914153Y-59341250D01*
X63128916Y-59435078D01*
X63357814Y-59485405D01*
X63592128Y-59490313D01*
X63822933Y-59449616D01*
X64041437Y-59364863D01*
X64239318Y-59239284D01*
X64409039Y-59077661D01*
X64544135Y-58886151D01*
X64639460Y-58672048D01*
X64691383Y-58443507D01*
X64695121Y-58175817D01*
X64649599Y-57945916D01*
X64560289Y-57729234D01*
X64430594Y-57534026D01*
X64265452Y-57367728D01*
X64264621Y-57367168D01*
X64391398Y-57367168D01*
X64989729Y-57965499D01*
X64987685Y-57968485D01*
X64895359Y-58183899D01*
X64846632Y-58413142D01*
X64843360Y-58647485D01*
X64885667Y-58878000D01*
X64971943Y-59095907D01*
X65098900Y-59292907D01*
X65261704Y-59461495D01*
X65454153Y-59595250D01*
X65668916Y-59689078D01*
X65897814Y-59739405D01*
X66132128Y-59744313D01*
X66362933Y-59703616D01*
X66581437Y-59618863D01*
X66779318Y-59493284D01*
X66949039Y-59331661D01*
X67084135Y-59140151D01*
X67179460Y-58926048D01*
X67231383Y-58697507D01*
X67235121Y-58429817D01*
X67189599Y-58199916D01*
X67100289Y-57983234D01*
X66970594Y-57788026D01*
X66805452Y-57621728D01*
X66785796Y-57608470D01*
X67426700Y-57608470D01*
X67529729Y-57711499D01*
X67527685Y-57714485D01*
X67435359Y-57929899D01*
X67386632Y-58159142D01*
X67383360Y-58393485D01*
X67425667Y-58624000D01*
X67511943Y-58841907D01*
X67638900Y-59038907D01*
X67801704Y-59207495D01*
X67994153Y-59341250D01*
X68208916Y-59435078D01*
X68437814Y-59485405D01*
X68672128Y-59490313D01*
X68902933Y-59449616D01*
X69121437Y-59364863D01*
X69319318Y-59239284D01*
X69489039Y-59077661D01*
X69624135Y-58886151D01*
X69719460Y-58672048D01*
X69771383Y-58443507D01*
X69775121Y-58175817D01*
X69729599Y-57945916D01*
X69640289Y-57729234D01*
X69510594Y-57534026D01*
X69345452Y-57367728D01*
X69151154Y-57236672D01*
X68935102Y-57145852D01*
X68705523Y-57098726D01*
X68471164Y-57097090D01*
X68240950Y-57141006D01*
X68023650Y-57228801D01*
X68000028Y-57244258D01*
X67798385Y-57042615D01*
X67774707Y-57023166D01*
X67751270Y-57003500D01*
X67749740Y-57002659D01*
X67748395Y-57001554D01*
X67721462Y-56987112D01*
X67694580Y-56972334D01*
X67692914Y-56971805D01*
X67691382Y-56970984D01*
X67662177Y-56962055D01*
X67632916Y-56952773D01*
X67631179Y-56952578D01*
X67629517Y-56952070D01*
X67599112Y-56948981D01*
X67568628Y-56945562D01*
X67565220Y-56945538D01*
X67565157Y-56945532D01*
X67565097Y-56945537D01*
X67564000Y-56945530D01*
X66787460Y-56945530D01*
X66949039Y-56791661D01*
X67084135Y-56600151D01*
X67179460Y-56386048D01*
X67231383Y-56157507D01*
X67235121Y-55889817D01*
X67189599Y-55659916D01*
X67100289Y-55443234D01*
X66970594Y-55248026D01*
X66867956Y-55144670D01*
X67502900Y-55144670D01*
X67529729Y-55171499D01*
X67527685Y-55174485D01*
X67435359Y-55389899D01*
X67386632Y-55619142D01*
X67383360Y-55853485D01*
X67425667Y-56084000D01*
X67511943Y-56301907D01*
X67638900Y-56498907D01*
X67801704Y-56667495D01*
X67994153Y-56801250D01*
X68208916Y-56895078D01*
X68437814Y-56945405D01*
X68672128Y-56950313D01*
X68902933Y-56909616D01*
X69121437Y-56824863D01*
X69319318Y-56699284D01*
X69489039Y-56537661D01*
X69624135Y-56346151D01*
X69719460Y-56132048D01*
X69771383Y-55903507D01*
X69775121Y-55635817D01*
X69729599Y-55405916D01*
X69640289Y-55189234D01*
X69510594Y-54994026D01*
X69357507Y-54839868D01*
X70078602Y-54839868D01*
X70109083Y-54836879D01*
X70139576Y-54834212D01*
X70141252Y-54833724D01*
X70142985Y-54833555D01*
X70172272Y-54824712D01*
X70201699Y-54816163D01*
X70203247Y-54815360D01*
X70204915Y-54814857D01*
X70231929Y-54800493D01*
X70259134Y-54786392D01*
X70260497Y-54785303D01*
X70262035Y-54784486D01*
X70285700Y-54765184D01*
X70309692Y-54746033D01*
X70312124Y-54743633D01*
X70312167Y-54743599D01*
X70312199Y-54743559D01*
X70312987Y-54742783D01*
X71003299Y-54052470D01*
X71876818Y-54052470D01*
X71876819Y-54058431D01*
X71886543Y-54107539D01*
X71905620Y-54153822D01*
X71933323Y-54195519D01*
X71968598Y-54231041D01*
X72010100Y-54259035D01*
X72056250Y-54278434D01*
X72105288Y-54288500D01*
X72155348Y-54288850D01*
X73257131Y-54288681D01*
X73306239Y-54278957D01*
X73352522Y-54259880D01*
X73394219Y-54232177D01*
X73429741Y-54196902D01*
X73457735Y-54155400D01*
X73477134Y-54109250D01*
X73487200Y-54060212D01*
X73487550Y-54010152D01*
X73487550Y-50210152D01*
X73487381Y-48608369D01*
X73477657Y-48559261D01*
X73458580Y-48512978D01*
X73430877Y-48471281D01*
X73395602Y-48435759D01*
X73354100Y-48407765D01*
X73307950Y-48388366D01*
X73258912Y-48378300D01*
X73208852Y-48377950D01*
X72107069Y-48378119D01*
X72057961Y-48387843D01*
X72011678Y-48406920D01*
X71969981Y-48434623D01*
X71934459Y-48469898D01*
X71906465Y-48511400D01*
X71887066Y-48557550D01*
X71877000Y-48606588D01*
X71876650Y-48656648D01*
X71876819Y-50258431D01*
X71886543Y-50307539D01*
X71905620Y-50353822D01*
X71933323Y-50395519D01*
X71968598Y-50431041D01*
X72010100Y-50459035D01*
X72056250Y-50478434D01*
X72105288Y-50488500D01*
X72155348Y-50488850D01*
X73257131Y-50488681D01*
X73306239Y-50478957D01*
X73352522Y-50459880D01*
X73394219Y-50432177D01*
X73429741Y-50396902D01*
X73457735Y-50355400D01*
X73477134Y-50309250D01*
X73487200Y-50260212D01*
X73487550Y-50210152D01*
X73487550Y-54010152D01*
X73487381Y-52408369D01*
X73477657Y-52359261D01*
X73458580Y-52312978D01*
X73430877Y-52271281D01*
X73395602Y-52235759D01*
X73354100Y-52207765D01*
X73307950Y-52188366D01*
X73258912Y-52178300D01*
X73208852Y-52177950D01*
X72107069Y-52178119D01*
X72057961Y-52187843D01*
X72011678Y-52206920D01*
X71969981Y-52234623D01*
X71934459Y-52269898D01*
X71906465Y-52311400D01*
X71887066Y-52357550D01*
X71877000Y-52406588D01*
X71876650Y-52456648D01*
X71876748Y-53389530D01*
X70866000Y-53389530D01*
X70835469Y-53392523D01*
X70805026Y-53395187D01*
X70803354Y-53395672D01*
X70801617Y-53395843D01*
X70772301Y-53404694D01*
X70742902Y-53413235D01*
X70741352Y-53414038D01*
X70739687Y-53414541D01*
X70712671Y-53428905D01*
X70685467Y-53443007D01*
X70684105Y-53444094D01*
X70682567Y-53444912D01*
X70658865Y-53464242D01*
X70634910Y-53483366D01*
X70632483Y-53485759D01*
X70632435Y-53485799D01*
X70632398Y-53485843D01*
X70631615Y-53486616D01*
X69941302Y-54176928D01*
X65431146Y-54176928D01*
X65400615Y-54179921D01*
X65370172Y-54182585D01*
X65368500Y-54183070D01*
X65366763Y-54183241D01*
X65337447Y-54192092D01*
X65308048Y-54200633D01*
X65306498Y-54201436D01*
X65304833Y-54201939D01*
X65277836Y-54216293D01*
X65250614Y-54230404D01*
X65249250Y-54231492D01*
X65247713Y-54232310D01*
X65224016Y-54251636D01*
X65200056Y-54270764D01*
X65197629Y-54273157D01*
X65197581Y-54273197D01*
X65197544Y-54273241D01*
X65196761Y-54274014D01*
X63985754Y-55485020D01*
X62210845Y-55485020D01*
X61812641Y-55086815D01*
X61788963Y-55067366D01*
X61765526Y-55047700D01*
X61763996Y-55046859D01*
X61762651Y-55045754D01*
X61735718Y-55031312D01*
X61708836Y-55016534D01*
X61707170Y-55016005D01*
X61705638Y-55015184D01*
X61676433Y-55006255D01*
X61647172Y-54996973D01*
X61645435Y-54996778D01*
X61643773Y-54996270D01*
X61613368Y-54993181D01*
X61582884Y-54989762D01*
X61579476Y-54989738D01*
X61579413Y-54989732D01*
X61579353Y-54989737D01*
X61578256Y-54989730D01*
X61124799Y-54989730D01*
X61124799Y-52047042D01*
X61124799Y-51352958D01*
X61116236Y-51309714D01*
X61099437Y-51268957D01*
X61075042Y-51232239D01*
X61043979Y-51200959D01*
X61042557Y-51200000D01*
X61043979Y-51199041D01*
X61075042Y-51167761D01*
X61099437Y-51131043D01*
X61116236Y-51090286D01*
X61124799Y-51047042D01*
X61124790Y-50831127D01*
X61068593Y-50774930D01*
X60674930Y-50774930D01*
X60674930Y-51193593D01*
X60681337Y-51200000D01*
X60674930Y-51206407D01*
X60674930Y-51625070D01*
X61068593Y-51625070D01*
X61124790Y-51568873D01*
X61124799Y-51352958D01*
X61124799Y-52047042D01*
X61124790Y-51831127D01*
X61068593Y-51774930D01*
X60674930Y-51774930D01*
X60674930Y-52193593D01*
X60731127Y-52249790D01*
X60879528Y-52249947D01*
X60923610Y-52249640D01*
X60966793Y-52240776D01*
X61007432Y-52223693D01*
X61043979Y-52199041D01*
X61075042Y-52167761D01*
X61099437Y-52131043D01*
X61116236Y-52090286D01*
X61124799Y-52047042D01*
X61124799Y-54989730D01*
X60725699Y-54989730D01*
X60576980Y-54841010D01*
X60576980Y-53479710D01*
X60573991Y-53449228D01*
X60571324Y-53418736D01*
X60570836Y-53417059D01*
X60570667Y-53415327D01*
X60561824Y-53386039D01*
X60553275Y-53356613D01*
X60552472Y-53355064D01*
X60551969Y-53353397D01*
X60537605Y-53326382D01*
X60523504Y-53299178D01*
X60522415Y-53297814D01*
X60521598Y-53296277D01*
X60502296Y-53272611D01*
X60483145Y-53248620D01*
X60480745Y-53246187D01*
X60480711Y-53246145D01*
X60480671Y-53246112D01*
X60479895Y-53245325D01*
X60355711Y-53121141D01*
X60357283Y-53008546D01*
X60337062Y-52906422D01*
X60297390Y-52810170D01*
X60239778Y-52723457D01*
X60166420Y-52649586D01*
X60080112Y-52591370D01*
X59984139Y-52551027D01*
X59954678Y-52544979D01*
X59954678Y-52326984D01*
X59951684Y-52296453D01*
X59949839Y-52275368D01*
X59974139Y-52270557D01*
X60020422Y-52251480D01*
X60062119Y-52223777D01*
X60097641Y-52188502D01*
X60118345Y-52157807D01*
X60124958Y-52167761D01*
X60156021Y-52199041D01*
X60192568Y-52223693D01*
X60233207Y-52240776D01*
X60276390Y-52249640D01*
X60320472Y-52249947D01*
X60468873Y-52249790D01*
X60525070Y-52193593D01*
X60525070Y-51774930D01*
X60505070Y-51774930D01*
X60505070Y-51625070D01*
X60525070Y-51625070D01*
X60525070Y-51206407D01*
X60518663Y-51200000D01*
X60525070Y-51193593D01*
X60525070Y-50774930D01*
X60505070Y-50774930D01*
X60505070Y-50625070D01*
X60525070Y-50625070D01*
X60525070Y-50206407D01*
X60468873Y-50150210D01*
X60355344Y-50150089D01*
X60375115Y-50120780D01*
X60394514Y-50074630D01*
X60404580Y-50025592D01*
X60404930Y-49975532D01*
X60404766Y-49201082D01*
X60595233Y-49201082D01*
X60595070Y-49224468D01*
X60595239Y-50023811D01*
X60604963Y-50072919D01*
X60624040Y-50119202D01*
X60651743Y-50160899D01*
X60685970Y-50195366D01*
X60674930Y-50206407D01*
X60674930Y-50625070D01*
X61068593Y-50625070D01*
X61124790Y-50568873D01*
X61124799Y-50352958D01*
X61116236Y-50309714D01*
X61099437Y-50268957D01*
X61089622Y-50254184D01*
X61673111Y-50254061D01*
X61722219Y-50244337D01*
X61768502Y-50225260D01*
X61810199Y-50197557D01*
X61845721Y-50162282D01*
X61873715Y-50120780D01*
X61893114Y-50074630D01*
X61903180Y-50025592D01*
X61903530Y-49975532D01*
X61903366Y-49201082D01*
X64080468Y-49201082D01*
X64110949Y-49198093D01*
X64141442Y-49195426D01*
X64143118Y-49194938D01*
X64144851Y-49194769D01*
X64174138Y-49185926D01*
X64203565Y-49177377D01*
X64205113Y-49176574D01*
X64206781Y-49176071D01*
X64233795Y-49161707D01*
X64261000Y-49147606D01*
X64262363Y-49146517D01*
X64263901Y-49145700D01*
X64287566Y-49126398D01*
X64311558Y-49107247D01*
X64313990Y-49104847D01*
X64314033Y-49104813D01*
X64314065Y-49104773D01*
X64314853Y-49103997D01*
X65147973Y-48270876D01*
X66953762Y-48270876D01*
X66984243Y-48267887D01*
X67014736Y-48265220D01*
X67016412Y-48264732D01*
X67018145Y-48264563D01*
X67047432Y-48255720D01*
X67076859Y-48247171D01*
X67078407Y-48246368D01*
X67080075Y-48245865D01*
X67107089Y-48231501D01*
X67134294Y-48217400D01*
X67135657Y-48216311D01*
X67137195Y-48215494D01*
X67160860Y-48196192D01*
X67184852Y-48177041D01*
X67187284Y-48174641D01*
X67187327Y-48174607D01*
X67187359Y-48174567D01*
X67188147Y-48173791D01*
X67620864Y-47741074D01*
X71696452Y-47741074D01*
X71726933Y-47738085D01*
X71757426Y-47735418D01*
X71759102Y-47734930D01*
X71760835Y-47734761D01*
X71790122Y-47725918D01*
X71819549Y-47717369D01*
X71821097Y-47716566D01*
X71822765Y-47716063D01*
X71849779Y-47701699D01*
X71876984Y-47687598D01*
X71878347Y-47686509D01*
X71879885Y-47685692D01*
X71903550Y-47666390D01*
X71927542Y-47647239D01*
X71929974Y-47644839D01*
X71930017Y-47644805D01*
X71930049Y-47644765D01*
X71930837Y-47643989D01*
X72991217Y-46583608D01*
X73074153Y-46641250D01*
X73288916Y-46735078D01*
X73517814Y-46785405D01*
X73752128Y-46790313D01*
X73982933Y-46749616D01*
X74201437Y-46664863D01*
X74399318Y-46539284D01*
X74569039Y-46377661D01*
X74704135Y-46186151D01*
X74799460Y-45972048D01*
X74851383Y-45743507D01*
X74855121Y-45475817D01*
X74809599Y-45245916D01*
X74720289Y-45029234D01*
X74590594Y-44834026D01*
X74425452Y-44667728D01*
X74231154Y-44536672D01*
X74015102Y-44445852D01*
X73785523Y-44398726D01*
X73551164Y-44397090D01*
X73320950Y-44441006D01*
X73103650Y-44528801D01*
X72907542Y-44657130D01*
X72740094Y-44821107D01*
X72706470Y-44870213D01*
X72706470Y-44475299D01*
X73078583Y-44103185D01*
X73288916Y-44195078D01*
X73517814Y-44245405D01*
X73752128Y-44250313D01*
X73982933Y-44209616D01*
X74201437Y-44124863D01*
X74399318Y-43999284D01*
X74569039Y-43837661D01*
X74704135Y-43646151D01*
X74799460Y-43432048D01*
X74851383Y-43203507D01*
X74855121Y-42935817D01*
X74809599Y-42705916D01*
X74720289Y-42489234D01*
X74590594Y-42294026D01*
X74425452Y-42127728D01*
X74231154Y-41996672D01*
X74015102Y-41905852D01*
X73785523Y-41858726D01*
X73551164Y-41857090D01*
X73320950Y-41901006D01*
X73103650Y-41988801D01*
X72907542Y-42117130D01*
X72740094Y-42281107D01*
X72607685Y-42474485D01*
X72515359Y-42689899D01*
X72466632Y-42919142D01*
X72463360Y-43153485D01*
X72505667Y-43384000D01*
X72591943Y-43601907D01*
X72611686Y-43632543D01*
X72140615Y-44103615D01*
X72121166Y-44127292D01*
X72101500Y-44150730D01*
X72100659Y-44152259D01*
X72099554Y-44153605D01*
X72085112Y-44180537D01*
X72070334Y-44207420D01*
X72069805Y-44209085D01*
X72068984Y-44210618D01*
X72060055Y-44239822D01*
X72050773Y-44269084D01*
X72050578Y-44270820D01*
X72050070Y-44272483D01*
X72046981Y-44302887D01*
X72043562Y-44333372D01*
X72043538Y-44336779D01*
X72043532Y-44336843D01*
X72043537Y-44336902D01*
X72043530Y-44338000D01*
X72043530Y-45080912D01*
X71885452Y-44921728D01*
X71691154Y-44790672D01*
X71475102Y-44699852D01*
X71245523Y-44652726D01*
X71011164Y-44651090D01*
X70780950Y-44695006D01*
X70563650Y-44782801D01*
X70367542Y-44911130D01*
X70200094Y-45075107D01*
X70067685Y-45268485D01*
X69975359Y-45483899D01*
X69926632Y-45713142D01*
X69923360Y-45947485D01*
X69965667Y-46178000D01*
X70051943Y-46395907D01*
X70071686Y-46426543D01*
X70029700Y-46468530D01*
X69393617Y-46468530D01*
X69489039Y-46377661D01*
X69624135Y-46186151D01*
X69719460Y-45972048D01*
X69771383Y-45743507D01*
X69775121Y-45475817D01*
X69729599Y-45245916D01*
X69640289Y-45029234D01*
X69510594Y-44834026D01*
X69345452Y-44667728D01*
X69328761Y-44656470D01*
X70102000Y-44656470D01*
X70132481Y-44653481D01*
X70162974Y-44650814D01*
X70164650Y-44650326D01*
X70166383Y-44650157D01*
X70195670Y-44641314D01*
X70225097Y-44632765D01*
X70226645Y-44631962D01*
X70228313Y-44631459D01*
X70255327Y-44617095D01*
X70282532Y-44602994D01*
X70283895Y-44601905D01*
X70285433Y-44601088D01*
X70309098Y-44581786D01*
X70333090Y-44562635D01*
X70335522Y-44560235D01*
X70335565Y-44560201D01*
X70335597Y-44560161D01*
X70336385Y-44559385D01*
X70538583Y-44357185D01*
X70748916Y-44449078D01*
X70977814Y-44499405D01*
X71212128Y-44504313D01*
X71442933Y-44463616D01*
X71661437Y-44378863D01*
X71859318Y-44253284D01*
X72029039Y-44091661D01*
X72164135Y-43900151D01*
X72259460Y-43686048D01*
X72311383Y-43457507D01*
X72315121Y-43189817D01*
X72269599Y-42959916D01*
X72180289Y-42743234D01*
X72050594Y-42548026D01*
X71885452Y-42381728D01*
X71691154Y-42250672D01*
X71475102Y-42159852D01*
X71245523Y-42112726D01*
X71011164Y-42111090D01*
X70780950Y-42155006D01*
X70563650Y-42242801D01*
X70367542Y-42371130D01*
X70200094Y-42535107D01*
X70067685Y-42728485D01*
X69975359Y-42943899D01*
X69926632Y-43173142D01*
X69923360Y-43407485D01*
X69965667Y-43638000D01*
X70051943Y-43855907D01*
X70071686Y-43886543D01*
X69964700Y-43993530D01*
X69749936Y-43993530D01*
X69749936Y-43027040D01*
X69722612Y-42800293D01*
X69651767Y-42583171D01*
X69568831Y-42427191D01*
X69418936Y-42320031D01*
X69312969Y-42425998D01*
X69312969Y-42214064D01*
X69205809Y-42064169D01*
X69001826Y-41961448D01*
X68781776Y-41900303D01*
X68554040Y-41883064D01*
X68327293Y-41910388D01*
X68110171Y-41981233D01*
X67954191Y-42064169D01*
X67847031Y-42214064D01*
X68580000Y-42947033D01*
X69312969Y-42214064D01*
X69312969Y-42425998D01*
X68685967Y-43053000D01*
X69418936Y-43785969D01*
X69568831Y-43678809D01*
X69671552Y-43474826D01*
X69732697Y-43254776D01*
X69749936Y-43027040D01*
X69749936Y-43993530D01*
X69240339Y-43993530D01*
X69312969Y-43891936D01*
X68580000Y-43158967D01*
X68474033Y-43264934D01*
X68474033Y-43053000D01*
X67741064Y-42320031D01*
X67591169Y-42427191D01*
X67488448Y-42631174D01*
X67427303Y-42851224D01*
X67410064Y-43078960D01*
X67437388Y-43305707D01*
X67508233Y-43522829D01*
X67591169Y-43678809D01*
X67741064Y-43785969D01*
X68474033Y-43053000D01*
X68474033Y-43264934D01*
X67847031Y-43891936D01*
X67919660Y-43993530D01*
X67825000Y-43993530D01*
X67794518Y-43996518D01*
X67764026Y-43999186D01*
X67762349Y-43999673D01*
X67760617Y-43999843D01*
X67731329Y-44008685D01*
X67701903Y-44017235D01*
X67700354Y-44018037D01*
X67698687Y-44018541D01*
X67671672Y-44032904D01*
X67644468Y-44047006D01*
X67643104Y-44048094D01*
X67641567Y-44048912D01*
X67617870Y-44068238D01*
X67593910Y-44087366D01*
X67591478Y-44089763D01*
X67591435Y-44089799D01*
X67591401Y-44089839D01*
X67590615Y-44090615D01*
X67065615Y-44615615D01*
X67046166Y-44639292D01*
X67026500Y-44662730D01*
X67025659Y-44664259D01*
X67024554Y-44665605D01*
X67010112Y-44692537D01*
X66995334Y-44719420D01*
X66994805Y-44721085D01*
X66993984Y-44722618D01*
X66985055Y-44751822D01*
X66975773Y-44781084D01*
X66975578Y-44782820D01*
X66975070Y-44784483D01*
X66971981Y-44814887D01*
X66968562Y-44845372D01*
X66968538Y-44848779D01*
X66968532Y-44848843D01*
X66968537Y-44848902D01*
X66968530Y-44850000D01*
X66968530Y-45085947D01*
X66805452Y-44921728D01*
X66611154Y-44790672D01*
X66395102Y-44699852D01*
X66165523Y-44652726D01*
X65931164Y-44651090D01*
X65700950Y-44695006D01*
X65483650Y-44782801D01*
X65287542Y-44911130D01*
X65120094Y-45075107D01*
X65106470Y-45095004D01*
X65106470Y-44709300D01*
X65458584Y-44357185D01*
X65668916Y-44449078D01*
X65897814Y-44499405D01*
X66132128Y-44504313D01*
X66362933Y-44463616D01*
X66581437Y-44378863D01*
X66779318Y-44253284D01*
X66949039Y-44091661D01*
X67084135Y-43900151D01*
X67179460Y-43686048D01*
X67231383Y-43457507D01*
X67235121Y-43189817D01*
X67189599Y-42959916D01*
X67100289Y-42743234D01*
X66970594Y-42548026D01*
X66805452Y-42381728D01*
X66611154Y-42250672D01*
X66395102Y-42159852D01*
X66165523Y-42112726D01*
X65931164Y-42111090D01*
X65700950Y-42155006D01*
X65483650Y-42242801D01*
X65287542Y-42371130D01*
X65120094Y-42535107D01*
X64987685Y-42728485D01*
X64895359Y-42943899D01*
X64846632Y-43173142D01*
X64843360Y-43407485D01*
X64885667Y-43638000D01*
X64971943Y-43855907D01*
X64991686Y-43886543D01*
X64540615Y-44337615D01*
X64521166Y-44361292D01*
X64501500Y-44384730D01*
X64500659Y-44386259D01*
X64499554Y-44387605D01*
X64485112Y-44414537D01*
X64470334Y-44441420D01*
X64469805Y-44443085D01*
X64468984Y-44444618D01*
X64460055Y-44473822D01*
X64450773Y-44503084D01*
X64450578Y-44504820D01*
X64450070Y-44506483D01*
X64446981Y-44536887D01*
X64443562Y-44567372D01*
X64443538Y-44570779D01*
X64443532Y-44570843D01*
X64443537Y-44570902D01*
X64443530Y-44572000D01*
X64443530Y-44853496D01*
X64430594Y-44834026D01*
X64265452Y-44667728D01*
X64071154Y-44536672D01*
X63855102Y-44445852D01*
X63625523Y-44398726D01*
X63391164Y-44397090D01*
X63160950Y-44441006D01*
X62943650Y-44528801D01*
X62747542Y-44657130D01*
X62580094Y-44821107D01*
X62447685Y-45014485D01*
X62355359Y-45229899D01*
X62306632Y-45459142D01*
X62303360Y-45693485D01*
X62345667Y-45924000D01*
X62431943Y-46141907D01*
X62558900Y-46338907D01*
X62721704Y-46507495D01*
X62914153Y-46641250D01*
X63036519Y-46694710D01*
X63021900Y-46709330D01*
X61787478Y-46709330D01*
X61869039Y-46631661D01*
X62004135Y-46440151D01*
X62099460Y-46226048D01*
X62151383Y-45997507D01*
X62155121Y-45729817D01*
X62109599Y-45499916D01*
X62020289Y-45283234D01*
X61890594Y-45088026D01*
X61725452Y-44921728D01*
X61617208Y-44848716D01*
X61631090Y-44837635D01*
X61633522Y-44835235D01*
X61633565Y-44835201D01*
X61633597Y-44835161D01*
X61634385Y-44834385D01*
X62613412Y-43855356D01*
X62721704Y-43967495D01*
X62914153Y-44101250D01*
X63128916Y-44195078D01*
X63357814Y-44245405D01*
X63592128Y-44250313D01*
X63822933Y-44209616D01*
X64041437Y-44124863D01*
X64239318Y-43999284D01*
X64409039Y-43837661D01*
X64544135Y-43646151D01*
X64639460Y-43432048D01*
X64691383Y-43203507D01*
X64695121Y-42935817D01*
X64649599Y-42705916D01*
X64560289Y-42489234D01*
X64430594Y-42294026D01*
X64265452Y-42127728D01*
X64071154Y-41996672D01*
X63855102Y-41905852D01*
X63625523Y-41858726D01*
X63391164Y-41857090D01*
X63160950Y-41901006D01*
X62943650Y-41988801D01*
X62747542Y-42117130D01*
X62580094Y-42281107D01*
X62447685Y-42474485D01*
X62355359Y-42689899D01*
X62306632Y-42919142D01*
X62303360Y-43153485D01*
X62314895Y-43216335D01*
X62152482Y-43378747D01*
X62155121Y-43189817D01*
X62109599Y-42959916D01*
X62020289Y-42743234D01*
X61890594Y-42548026D01*
X61725452Y-42381728D01*
X61531154Y-42250672D01*
X61315102Y-42159852D01*
X61085523Y-42112726D01*
X60851164Y-42111090D01*
X60620950Y-42155006D01*
X60403650Y-42242801D01*
X60207542Y-42371130D01*
X60040094Y-42535107D01*
X59907685Y-42728485D01*
X59815359Y-42943899D01*
X59766632Y-43173142D01*
X59763360Y-43407485D01*
X59805667Y-43638000D01*
X59891943Y-43855907D01*
X60018900Y-44052907D01*
X60081963Y-44118210D01*
X59675240Y-44524934D01*
X57416835Y-44524934D01*
X57838583Y-44103185D01*
X58048916Y-44195078D01*
X58277814Y-44245405D01*
X58512128Y-44250313D01*
X58742933Y-44209616D01*
X58961437Y-44124863D01*
X59159318Y-43999284D01*
X59329039Y-43837661D01*
X59464135Y-43646151D01*
X59559460Y-43432048D01*
X59611383Y-43203507D01*
X59615121Y-42935817D01*
X59569599Y-42705916D01*
X59480289Y-42489234D01*
X59350594Y-42294026D01*
X59185452Y-42127728D01*
X58991154Y-41996672D01*
X58775102Y-41905852D01*
X58545523Y-41858726D01*
X58311164Y-41857090D01*
X58080950Y-41901006D01*
X57863650Y-41988801D01*
X57667542Y-42117130D01*
X57500094Y-42281107D01*
X57367685Y-42474485D01*
X57275359Y-42689899D01*
X57226632Y-42919142D01*
X57223360Y-43153485D01*
X57265667Y-43384000D01*
X57351943Y-43601907D01*
X57371686Y-43632543D01*
X56784098Y-44220132D01*
X56654131Y-44220132D01*
X56789039Y-44091661D01*
X56924135Y-43900151D01*
X57019460Y-43686048D01*
X57071383Y-43457507D01*
X57075121Y-43189817D01*
X57029599Y-42959916D01*
X56940289Y-42743234D01*
X56810594Y-42548026D01*
X56645452Y-42381728D01*
X56451154Y-42250672D01*
X56235102Y-42159852D01*
X56005523Y-42112726D01*
X55771164Y-42111090D01*
X55540950Y-42155006D01*
X55323650Y-42242801D01*
X55127542Y-42371130D01*
X54960094Y-42535107D01*
X54827685Y-42728485D01*
X54735359Y-42943899D01*
X54686632Y-43173142D01*
X54683360Y-43407485D01*
X54725667Y-43638000D01*
X54811943Y-43855907D01*
X54831686Y-43886543D01*
X54802900Y-43915330D01*
X54289944Y-43915330D01*
X54259413Y-43918323D01*
X54228970Y-43920987D01*
X54227298Y-43921472D01*
X54225561Y-43921643D01*
X54196245Y-43930494D01*
X54166846Y-43939035D01*
X54165296Y-43939838D01*
X54163631Y-43940341D01*
X54136655Y-43954684D01*
X54113607Y-43966631D01*
X54249039Y-43837661D01*
X54384135Y-43646151D01*
X54479460Y-43432048D01*
X54531383Y-43203507D01*
X54535121Y-42935817D01*
X54489599Y-42705916D01*
X54400289Y-42489234D01*
X54270594Y-42294026D01*
X54105452Y-42127728D01*
X53911154Y-41996672D01*
X53695102Y-41905852D01*
X53465523Y-41858726D01*
X53231164Y-41857090D01*
X53000950Y-41901006D01*
X52783650Y-41988801D01*
X52587542Y-42117130D01*
X52420094Y-42281107D01*
X52287685Y-42474485D01*
X52195359Y-42689899D01*
X52146632Y-42919142D01*
X52143360Y-43153485D01*
X52185667Y-43384000D01*
X52271943Y-43601907D01*
X52398900Y-43798907D01*
X52561704Y-43967495D01*
X52754153Y-44101250D01*
X52968916Y-44195078D01*
X52998574Y-44201599D01*
X52078695Y-45121479D01*
X52059246Y-45145156D01*
X52039580Y-45168594D01*
X52038739Y-45170123D01*
X52037634Y-45171469D01*
X52023192Y-45198401D01*
X52008414Y-45225284D01*
X52007885Y-45226949D01*
X52007064Y-45228482D01*
X51998135Y-45257686D01*
X51988853Y-45286948D01*
X51988658Y-45288684D01*
X51988623Y-45288797D01*
X51152120Y-44452294D01*
X51341437Y-44378863D01*
X51539318Y-44253284D01*
X51709039Y-44091661D01*
X51844135Y-43900151D01*
X51939460Y-43686048D01*
X51991383Y-43457507D01*
X51995121Y-43189817D01*
X51949599Y-42959916D01*
X51860289Y-42743234D01*
X51730594Y-42548026D01*
X51565452Y-42381728D01*
X51371154Y-42250672D01*
X51155102Y-42159852D01*
X50925523Y-42112726D01*
X50691164Y-42111090D01*
X50460950Y-42155006D01*
X50243650Y-42242801D01*
X50047542Y-42371130D01*
X49880094Y-42535107D01*
X49747685Y-42728485D01*
X49655359Y-42943899D01*
X49606632Y-43173142D01*
X49603360Y-43407485D01*
X49637541Y-43593728D01*
X49327475Y-43593728D01*
X49399460Y-43432048D01*
X49451383Y-43203507D01*
X49455121Y-42935817D01*
X49409599Y-42705916D01*
X49320289Y-42489234D01*
X49190594Y-42294026D01*
X49025452Y-42127728D01*
X48831154Y-41996672D01*
X48615102Y-41905852D01*
X48385523Y-41858726D01*
X48151164Y-41857090D01*
X47920950Y-41901006D01*
X47703650Y-41988801D01*
X47507542Y-42117130D01*
X47340094Y-42281107D01*
X47207685Y-42474485D01*
X47115359Y-42689899D01*
X47066632Y-42919142D01*
X47063360Y-43153485D01*
X47105667Y-43384000D01*
X47191943Y-43601907D01*
X47318900Y-43798907D01*
X47415105Y-43898530D01*
X46780300Y-43898530D01*
X46769614Y-43887844D01*
X46859460Y-43686048D01*
X46911383Y-43457507D01*
X46915121Y-43189817D01*
X46869599Y-42959916D01*
X46780289Y-42743234D01*
X46650594Y-42548026D01*
X46485452Y-42381728D01*
X46291154Y-42250672D01*
X46075102Y-42159852D01*
X45845523Y-42112726D01*
X45611164Y-42111090D01*
X45380950Y-42155006D01*
X45163650Y-42242801D01*
X44967542Y-42371130D01*
X44800094Y-42535107D01*
X44667685Y-42728485D01*
X44575359Y-42943899D01*
X44526632Y-43173142D01*
X44524088Y-43355318D01*
X44371395Y-43202625D01*
X44375121Y-42935817D01*
X44329599Y-42705916D01*
X44240289Y-42489234D01*
X44110594Y-42294026D01*
X43945452Y-42127728D01*
X43751154Y-41996672D01*
X43535102Y-41905852D01*
X43305523Y-41858726D01*
X43071164Y-41857090D01*
X42840950Y-41901006D01*
X42623650Y-41988801D01*
X42427542Y-42117130D01*
X42260094Y-42281107D01*
X42127685Y-42474485D01*
X42035359Y-42689899D01*
X41986632Y-42919142D01*
X41983360Y-43153485D01*
X42025667Y-43384000D01*
X42111943Y-43601907D01*
X42238900Y-43798907D01*
X42401704Y-43967495D01*
X42403193Y-43968530D01*
X41770300Y-43968530D01*
X41689614Y-43887844D01*
X41779460Y-43686048D01*
X41831383Y-43457507D01*
X41835121Y-43189817D01*
X41789599Y-42959916D01*
X41700289Y-42743234D01*
X41570594Y-42548026D01*
X41405452Y-42381728D01*
X41211154Y-42250672D01*
X40995102Y-42159852D01*
X40765523Y-42112726D01*
X40531164Y-42111090D01*
X40300950Y-42155006D01*
X40083650Y-42242801D01*
X39887542Y-42371130D01*
X39720094Y-42535107D01*
X39587685Y-42728485D01*
X39495359Y-42943899D01*
X39446632Y-43173142D01*
X39443360Y-43407485D01*
X39485667Y-43638000D01*
X39571943Y-43855907D01*
X39698900Y-44052907D01*
X39861704Y-44221495D01*
X40054153Y-44355250D01*
X40268916Y-44449078D01*
X40497814Y-44499405D01*
X40732128Y-44504313D01*
X40962933Y-44463616D01*
X41181437Y-44378863D01*
X41219155Y-44354925D01*
X41398615Y-44534385D01*
X41422292Y-44553833D01*
X41445730Y-44573500D01*
X41447259Y-44574340D01*
X41448605Y-44575446D01*
X41475556Y-44589897D01*
X41502420Y-44604666D01*
X41504083Y-44605193D01*
X41505617Y-44606016D01*
X41534837Y-44614949D01*
X41564084Y-44624227D01*
X41565820Y-44624421D01*
X41567483Y-44624930D01*
X41597887Y-44628018D01*
X41628372Y-44631438D01*
X41631779Y-44631461D01*
X41631843Y-44631468D01*
X41631902Y-44631462D01*
X41633000Y-44631470D01*
X42694083Y-44631470D01*
X42544191Y-44711169D01*
X42437031Y-44861064D01*
X43170000Y-45594033D01*
X43902969Y-44861064D01*
X43795809Y-44711169D01*
X43637543Y-44631470D01*
X44431644Y-44631470D01*
X44874163Y-45073988D01*
X44897810Y-45093412D01*
X44921278Y-45113104D01*
X44922807Y-45113944D01*
X44924153Y-45115050D01*
X44951104Y-45129501D01*
X44977968Y-45144270D01*
X44979631Y-45144797D01*
X44981165Y-45145620D01*
X45010385Y-45154553D01*
X45039632Y-45163831D01*
X45041368Y-45164025D01*
X45043031Y-45164534D01*
X45073390Y-45167617D01*
X45103920Y-45171042D01*
X45107338Y-45171065D01*
X45107391Y-45171071D01*
X45107440Y-45171066D01*
X45108548Y-45171074D01*
X46120528Y-45171074D01*
X46091540Y-45238707D01*
X46069895Y-45340539D01*
X46069139Y-45394674D01*
X45724969Y-45394719D01*
X45675861Y-45404443D01*
X45629578Y-45423520D01*
X45587881Y-45451223D01*
X45552359Y-45486498D01*
X45524365Y-45528000D01*
X45504966Y-45574150D01*
X45494900Y-45623188D01*
X45494550Y-45673248D01*
X45494719Y-46975031D01*
X45504443Y-47024139D01*
X45523520Y-47070422D01*
X45551223Y-47112119D01*
X45586498Y-47147641D01*
X45628000Y-47175635D01*
X45674150Y-47195034D01*
X45723188Y-47205100D01*
X45773248Y-47205450D01*
X47075031Y-47205281D01*
X47124139Y-47195557D01*
X47170422Y-47176480D01*
X47212119Y-47148777D01*
X47247641Y-47113502D01*
X47275635Y-47072000D01*
X47295034Y-47025850D01*
X47305100Y-46976812D01*
X47305450Y-46926752D01*
X47305281Y-45624969D01*
X47295557Y-45575861D01*
X47276480Y-45529578D01*
X47248777Y-45487881D01*
X47213502Y-45452359D01*
X47172000Y-45424365D01*
X47130062Y-45406736D01*
X47130883Y-45347946D01*
X47110662Y-45245822D01*
X47079853Y-45171074D01*
X49209136Y-45171074D01*
X49482250Y-45444187D01*
X49482250Y-45603407D01*
X49463625Y-45631020D01*
X49444226Y-45677170D01*
X49434160Y-45726208D01*
X49433810Y-45776268D01*
X49433839Y-46036907D01*
X49382739Y-46015427D01*
X49280759Y-45994493D01*
X49176654Y-45993766D01*
X49074391Y-46013274D01*
X48977864Y-46052273D01*
X48890751Y-46109279D01*
X48816370Y-46182118D01*
X48757553Y-46268019D01*
X48726106Y-46341387D01*
X48723777Y-46337881D01*
X48688502Y-46302359D01*
X48657807Y-46281654D01*
X48667761Y-46275042D01*
X48699041Y-46243979D01*
X48723693Y-46207432D01*
X48740776Y-46166793D01*
X48749640Y-46123610D01*
X48749947Y-46079528D01*
X48749947Y-45520472D01*
X48749640Y-45476390D01*
X48740776Y-45433207D01*
X48723693Y-45392568D01*
X48699041Y-45356021D01*
X48667761Y-45324958D01*
X48631043Y-45300563D01*
X48590286Y-45283764D01*
X48547042Y-45275201D01*
X48331127Y-45275210D01*
X48274930Y-45331407D01*
X48274930Y-45725070D01*
X48693593Y-45725070D01*
X48749790Y-45668873D01*
X48749947Y-45520472D01*
X48749947Y-46079528D01*
X48749790Y-45931127D01*
X48693593Y-45874930D01*
X48274930Y-45874930D01*
X48274930Y-45894930D01*
X48125070Y-45894930D01*
X48125070Y-45874930D01*
X48125070Y-45725070D01*
X48125070Y-45331407D01*
X48068873Y-45275210D01*
X47852958Y-45275201D01*
X47809714Y-45283764D01*
X47768957Y-45300563D01*
X47732239Y-45324958D01*
X47700959Y-45356021D01*
X47676307Y-45392568D01*
X47659224Y-45433207D01*
X47650360Y-45476390D01*
X47650053Y-45520472D01*
X47650210Y-45668873D01*
X47706407Y-45725070D01*
X48125070Y-45725070D01*
X48125070Y-45874930D01*
X47706407Y-45874930D01*
X47650210Y-45931127D01*
X47650053Y-46079528D01*
X47650360Y-46123610D01*
X47659224Y-46166793D01*
X47676307Y-46207432D01*
X47700959Y-46243979D01*
X47732239Y-46275042D01*
X47742263Y-46281701D01*
X47712881Y-46301223D01*
X47677359Y-46336498D01*
X47649365Y-46378000D01*
X47629966Y-46424150D01*
X47619900Y-46473188D01*
X47619550Y-46523248D01*
X47619719Y-47125031D01*
X47629443Y-47174139D01*
X47648520Y-47220422D01*
X47676223Y-47262119D01*
X47711498Y-47297641D01*
X47753000Y-47325635D01*
X47799150Y-47345034D01*
X47848188Y-47355100D01*
X47859190Y-47355176D01*
X47859190Y-47671937D01*
X47489989Y-47671979D01*
X47440881Y-47681703D01*
X47394598Y-47700780D01*
X47352901Y-47728483D01*
X47317379Y-47763758D01*
X47289385Y-47805260D01*
X47269986Y-47851410D01*
X47259920Y-47900448D01*
X47259570Y-47950508D01*
X47259739Y-48201211D01*
X47269463Y-48250319D01*
X47288540Y-48296602D01*
X47311636Y-48331365D01*
X47299244Y-48360847D01*
X47290380Y-48404030D01*
X47290258Y-48421488D01*
X46934385Y-48065615D01*
X46910707Y-48046166D01*
X46887270Y-48026500D01*
X46885740Y-48025659D01*
X46884395Y-48024554D01*
X46857462Y-48010112D01*
X46855296Y-48008922D01*
X46855281Y-47949969D01*
X46845557Y-47900861D01*
X46826480Y-47854578D01*
X46798777Y-47812881D01*
X46763502Y-47777359D01*
X46722000Y-47749365D01*
X46675850Y-47729966D01*
X46626812Y-47719900D01*
X46576752Y-47719550D01*
X45974969Y-47719719D01*
X45925861Y-47729443D01*
X45879578Y-47748520D01*
X45837881Y-47776223D01*
X45802359Y-47811498D01*
X45800091Y-47814859D01*
X45798777Y-47812881D01*
X45763502Y-47777359D01*
X45722000Y-47749365D01*
X45675850Y-47729966D01*
X45626812Y-47719900D01*
X45576752Y-47719550D01*
X44974969Y-47719719D01*
X44925861Y-47729443D01*
X44879578Y-47748520D01*
X44837881Y-47776223D01*
X44802359Y-47811498D01*
X44774365Y-47853000D01*
X44754966Y-47899150D01*
X44744900Y-47948188D01*
X44744550Y-47998248D01*
X44744645Y-48366584D01*
X44515615Y-48595615D01*
X44496166Y-48619292D01*
X44476500Y-48642730D01*
X44475659Y-48644259D01*
X44474554Y-48645605D01*
X44460112Y-48672537D01*
X44445334Y-48699420D01*
X44444805Y-48701085D01*
X44443984Y-48702618D01*
X44435055Y-48731822D01*
X44425773Y-48761084D01*
X44425578Y-48762820D01*
X44425070Y-48764483D01*
X44421981Y-48794887D01*
X44418562Y-48825372D01*
X44418538Y-48828779D01*
X44418532Y-48828843D01*
X44418537Y-48828902D01*
X44418530Y-48830000D01*
X44418530Y-49212700D01*
X44339936Y-49291293D01*
X44339936Y-45674040D01*
X44312612Y-45447293D01*
X44241767Y-45230171D01*
X44158831Y-45074191D01*
X44008936Y-44967031D01*
X43275967Y-45700000D01*
X44008936Y-46432969D01*
X44158831Y-46325809D01*
X44261552Y-46121826D01*
X44322697Y-45901776D01*
X44339936Y-45674040D01*
X44339936Y-49291293D01*
X43905701Y-49725528D01*
X43905541Y-47725879D01*
X43902969Y-47712889D01*
X43902969Y-46538936D01*
X43170000Y-45805967D01*
X43064033Y-45911934D01*
X43064033Y-45700000D01*
X42331064Y-44967031D01*
X42181169Y-45074191D01*
X42078448Y-45278174D01*
X42017303Y-45498224D01*
X42000064Y-45725960D01*
X42027388Y-45952707D01*
X42098233Y-46169829D01*
X42181169Y-46325809D01*
X42331064Y-46432969D01*
X43064033Y-45700000D01*
X43064033Y-45911934D01*
X42437031Y-46538936D01*
X42544191Y-46688831D01*
X42748174Y-46791552D01*
X42968224Y-46852697D01*
X43195960Y-46869936D01*
X43422707Y-46842612D01*
X43639829Y-46771767D01*
X43795809Y-46688831D01*
X43902969Y-46538936D01*
X43902969Y-47712889D01*
X43895817Y-47676771D01*
X43876740Y-47630488D01*
X43849037Y-47588791D01*
X43813762Y-47553269D01*
X43772260Y-47525275D01*
X43726110Y-47505876D01*
X43677072Y-47495810D01*
X43627012Y-47495460D01*
X42025029Y-47495629D01*
X41975921Y-47505353D01*
X41929638Y-47524430D01*
X41887941Y-47552133D01*
X41852419Y-47587408D01*
X41824425Y-47628910D01*
X41805026Y-47675060D01*
X41794960Y-47724098D01*
X41794610Y-47774158D01*
X41794770Y-49768530D01*
X41730000Y-49768530D01*
X41699469Y-49771523D01*
X41669026Y-49774187D01*
X41667354Y-49774672D01*
X41665617Y-49774843D01*
X41636301Y-49783694D01*
X41606902Y-49792235D01*
X41605352Y-49793038D01*
X41603687Y-49793541D01*
X41576711Y-49807884D01*
X41549467Y-49822006D01*
X41548101Y-49823096D01*
X41546567Y-49823912D01*
X41522892Y-49843220D01*
X41505252Y-49857302D01*
X41505241Y-49726129D01*
X41495517Y-49677021D01*
X41476440Y-49630738D01*
X41448737Y-49589041D01*
X41413462Y-49553519D01*
X41371960Y-49525525D01*
X41325810Y-49506126D01*
X41276772Y-49496060D01*
X41226712Y-49495710D01*
X39325009Y-49495879D01*
X39275901Y-49505603D01*
X39229618Y-49524680D01*
X39187921Y-49552383D01*
X39167270Y-49572890D01*
X39167270Y-49277888D01*
X39186538Y-49297291D01*
X39228040Y-49325285D01*
X39274190Y-49344684D01*
X39323228Y-49354750D01*
X39373288Y-49355100D01*
X41274991Y-49354931D01*
X41324099Y-49345207D01*
X41370382Y-49326130D01*
X41412079Y-49298427D01*
X41447601Y-49263152D01*
X41475595Y-49221650D01*
X41494994Y-49175500D01*
X41505060Y-49126462D01*
X41505410Y-49076402D01*
X41505241Y-46974039D01*
X41495517Y-46924931D01*
X41476440Y-46878648D01*
X41448737Y-46836951D01*
X41413462Y-46801429D01*
X41371960Y-46773435D01*
X41325810Y-46754036D01*
X41276772Y-46743970D01*
X41226712Y-46743620D01*
X41215939Y-46743620D01*
X41369318Y-46646284D01*
X41539039Y-46484661D01*
X41674135Y-46293151D01*
X41769460Y-46079048D01*
X41821383Y-45850507D01*
X41825121Y-45582817D01*
X41779599Y-45352916D01*
X41690289Y-45136234D01*
X41560594Y-44941026D01*
X41395452Y-44774728D01*
X41201154Y-44643672D01*
X40985102Y-44552852D01*
X40755523Y-44505726D01*
X40521164Y-44504090D01*
X40290950Y-44548006D01*
X40073650Y-44635801D01*
X39877542Y-44764130D01*
X39710094Y-44928107D01*
X39577685Y-45121485D01*
X39485359Y-45336899D01*
X39436632Y-45566142D01*
X39433360Y-45800485D01*
X39475667Y-46031000D01*
X39561943Y-46248907D01*
X39688900Y-46445907D01*
X39851704Y-46614495D01*
X40037643Y-46743725D01*
X39325009Y-46743789D01*
X39275901Y-46753513D01*
X39229618Y-46772590D01*
X39187921Y-46800293D01*
X39167270Y-46820800D01*
X39167270Y-42203457D01*
X39663927Y-41706800D01*
X74636072Y-41706800D01*
X75133200Y-42203927D01*
X75133200Y-48527150D01*
X75108942Y-48490639D01*
X75077879Y-48459359D01*
X75041332Y-48434707D01*
X75000693Y-48417624D01*
X74957510Y-48408760D01*
X74913428Y-48408453D01*
X74515027Y-48408610D01*
X74458830Y-48464807D01*
X74458830Y-49358470D01*
X74478830Y-49358470D01*
X74478830Y-49508330D01*
X74458830Y-49508330D01*
X74458830Y-50401993D01*
X74515027Y-50458190D01*
X74913428Y-50458347D01*
X74957510Y-50458040D01*
X75000693Y-50449176D01*
X75041332Y-50432093D01*
X75077879Y-50407441D01*
X75108942Y-50376161D01*
X75133200Y-50339649D01*
X75133200Y-52329208D01*
X75132437Y-52327357D01*
X75108042Y-52290639D01*
X75076979Y-52259359D01*
X75040432Y-52234707D01*
X74999793Y-52217624D01*
X74956610Y-52208760D01*
X74912528Y-52208453D01*
X74514127Y-52208610D01*
X74457930Y-52264807D01*
X74457930Y-53158470D01*
X74477930Y-53158470D01*
X74477930Y-53308330D01*
X74457930Y-53308330D01*
X74457930Y-54201993D01*
X74514127Y-54258190D01*
X74912528Y-54258347D01*
X74956610Y-54258040D01*
X74999793Y-54249176D01*
X75040432Y-54232093D01*
X75076979Y-54207441D01*
X75108042Y-54176161D01*
X75132437Y-54139443D01*
X75133200Y-54137591D01*
X75133200Y-59396073D01*
X75133200Y-59396073D01*
G37*
X75133200Y-59396073D02*
X74855121Y-59674151D01*
X74855121Y-58175817D01*
X74855121Y-55635817D01*
X74809599Y-55405916D01*
X74720289Y-55189234D01*
X74590594Y-54994026D01*
X74425452Y-54827728D01*
X74308970Y-54749159D01*
X74308970Y-50401993D01*
X74308970Y-49508330D01*
X74308970Y-49358470D01*
X74308970Y-48464807D01*
X74252773Y-48408610D01*
X73854372Y-48408453D01*
X73810290Y-48408760D01*
X73767107Y-48417624D01*
X73726468Y-48434707D01*
X73689921Y-48459359D01*
X73658858Y-48490639D01*
X73634463Y-48527357D01*
X73617664Y-48568114D01*
X73609101Y-48611358D01*
X73609110Y-49302273D01*
X73665307Y-49358470D01*
X74308970Y-49358470D01*
X74308970Y-49508330D01*
X73665307Y-49508330D01*
X73609110Y-49564527D01*
X73609101Y-50255442D01*
X73617664Y-50298686D01*
X73634463Y-50339443D01*
X73658858Y-50376161D01*
X73689921Y-50407441D01*
X73726468Y-50432093D01*
X73767107Y-50449176D01*
X73810290Y-50458040D01*
X73854372Y-50458347D01*
X74252773Y-50458190D01*
X74308970Y-50401993D01*
X74308970Y-54749159D01*
X74308070Y-54748552D01*
X74308070Y-54201993D01*
X74308070Y-53308330D01*
X74308070Y-53158470D01*
X74308070Y-52264807D01*
X74251873Y-52208610D01*
X73853472Y-52208453D01*
X73809390Y-52208760D01*
X73766207Y-52217624D01*
X73725568Y-52234707D01*
X73689021Y-52259359D01*
X73657958Y-52290639D01*
X73633563Y-52327357D01*
X73616764Y-52368114D01*
X73608201Y-52411358D01*
X73608210Y-53102273D01*
X73664407Y-53158470D01*
X74308070Y-53158470D01*
X74308070Y-53308330D01*
X73664407Y-53308330D01*
X73608210Y-53364527D01*
X73608201Y-54055442D01*
X73616764Y-54098686D01*
X73633563Y-54139443D01*
X73657958Y-54176161D01*
X73689021Y-54207441D01*
X73725568Y-54232093D01*
X73766207Y-54249176D01*
X73809390Y-54258040D01*
X73853472Y-54258347D01*
X74251873Y-54258190D01*
X74308070Y-54201993D01*
X74308070Y-54748552D01*
X74231154Y-54696672D01*
X74015102Y-54605852D01*
X73785523Y-54558726D01*
X73551164Y-54557090D01*
X73320950Y-54601006D01*
X73103650Y-54688801D01*
X72907542Y-54817130D01*
X72740094Y-54981107D01*
X72607685Y-55174485D01*
X72515359Y-55389899D01*
X72466632Y-55619142D01*
X72463360Y-55853485D01*
X72505667Y-56084000D01*
X72591943Y-56301907D01*
X72718900Y-56498907D01*
X72881704Y-56667495D01*
X73074153Y-56801250D01*
X73288916Y-56895078D01*
X73517814Y-56945405D01*
X73752128Y-56950313D01*
X73982933Y-56909616D01*
X74201437Y-56824863D01*
X74399318Y-56699284D01*
X74569039Y-56537661D01*
X74704135Y-56346151D01*
X74799460Y-56132048D01*
X74851383Y-55903507D01*
X74855121Y-55635817D01*
X74855121Y-58175817D01*
X74809599Y-57945916D01*
X74720289Y-57729234D01*
X74590594Y-57534026D01*
X74425452Y-57367728D01*
X74231154Y-57236672D01*
X74015102Y-57145852D01*
X73785523Y-57098726D01*
X73551164Y-57097090D01*
X73320950Y-57141006D01*
X73103650Y-57228801D01*
X72907542Y-57357130D01*
X72740094Y-57521107D01*
X72607685Y-57714485D01*
X72515359Y-57929899D01*
X72466632Y-58159142D01*
X72463360Y-58393485D01*
X72505667Y-58624000D01*
X72591943Y-58841907D01*
X72718900Y-59038907D01*
X72881704Y-59207495D01*
X73074153Y-59341250D01*
X73288916Y-59435078D01*
X73517814Y-59485405D01*
X73752128Y-59490313D01*
X73982933Y-59449616D01*
X74201437Y-59364863D01*
X74399318Y-59239284D01*
X74569039Y-59077661D01*
X74704135Y-58886151D01*
X74799460Y-58672048D01*
X74851383Y-58443507D01*
X74855121Y-58175817D01*
X74855121Y-59674151D01*
X74636072Y-59893200D01*
X72289936Y-59893200D01*
X72289936Y-58521040D01*
X72289936Y-55981040D01*
X72262612Y-55754293D01*
X72191767Y-55537171D01*
X72108831Y-55381191D01*
X71958936Y-55274031D01*
X71852969Y-55379998D01*
X71852969Y-55168064D01*
X71745809Y-55018169D01*
X71541826Y-54915448D01*
X71321776Y-54854303D01*
X71094040Y-54837064D01*
X70867293Y-54864388D01*
X70650171Y-54935233D01*
X70494191Y-55018169D01*
X70387031Y-55168064D01*
X71120000Y-55901033D01*
X71852969Y-55168064D01*
X71852969Y-55379998D01*
X71225967Y-56007000D01*
X71958936Y-56739969D01*
X72108831Y-56632809D01*
X72211552Y-56428826D01*
X72272697Y-56208776D01*
X72289936Y-55981040D01*
X72289936Y-58521040D01*
X72262612Y-58294293D01*
X72191767Y-58077171D01*
X72108831Y-57921191D01*
X71958936Y-57814031D01*
X71852969Y-57919998D01*
X71852969Y-57708064D01*
X71852969Y-56845936D01*
X71120000Y-56112967D01*
X71014033Y-56218934D01*
X71014033Y-56007000D01*
X70281064Y-55274031D01*
X70131169Y-55381191D01*
X70028448Y-55585174D01*
X69967303Y-55805224D01*
X69950064Y-56032960D01*
X69977388Y-56259707D01*
X70048233Y-56476829D01*
X70131169Y-56632809D01*
X70281064Y-56739969D01*
X71014033Y-56007000D01*
X71014033Y-56218934D01*
X70387031Y-56845936D01*
X70494191Y-56995831D01*
X70698174Y-57098552D01*
X70918224Y-57159697D01*
X71145960Y-57176936D01*
X71372707Y-57149612D01*
X71589829Y-57078767D01*
X71745809Y-56995831D01*
X71852969Y-56845936D01*
X71852969Y-57708064D01*
X71745809Y-57558169D01*
X71541826Y-57455448D01*
X71321776Y-57394303D01*
X71094040Y-57377064D01*
X70867293Y-57404388D01*
X70650171Y-57475233D01*
X70494191Y-57558169D01*
X70387031Y-57708064D01*
X71120000Y-58441033D01*
X71852969Y-57708064D01*
X71852969Y-57919998D01*
X71225967Y-58547000D01*
X71958936Y-59279969D01*
X72108831Y-59172809D01*
X72211552Y-58968826D01*
X72272697Y-58748776D01*
X72289936Y-58521040D01*
X72289936Y-59893200D01*
X71852969Y-59893200D01*
X71852969Y-59385936D01*
X71120000Y-58652967D01*
X71014033Y-58758934D01*
X71014033Y-58547000D01*
X70281064Y-57814031D01*
X70131169Y-57921191D01*
X70028448Y-58125174D01*
X69967303Y-58345224D01*
X69950064Y-58572960D01*
X69977388Y-58799707D01*
X70048233Y-59016829D01*
X70131169Y-59172809D01*
X70281064Y-59279969D01*
X71014033Y-58547000D01*
X71014033Y-58758934D01*
X70387031Y-59385936D01*
X70494191Y-59535831D01*
X70698174Y-59638552D01*
X70918224Y-59699697D01*
X71145960Y-59716936D01*
X71372707Y-59689612D01*
X71589829Y-59618767D01*
X71745809Y-59535831D01*
X71852969Y-59385936D01*
X71852969Y-59893200D01*
X39663927Y-59893200D01*
X39167270Y-59396543D01*
X39167270Y-56979168D01*
X39186538Y-56998571D01*
X39228040Y-57026565D01*
X39274190Y-57045964D01*
X39323228Y-57056030D01*
X39373288Y-57056380D01*
X41274991Y-57056211D01*
X41324099Y-57046487D01*
X41370382Y-57027410D01*
X41412079Y-56999707D01*
X41447601Y-56964432D01*
X41475595Y-56922930D01*
X41494994Y-56876780D01*
X41505060Y-56827742D01*
X41505410Y-56777682D01*
X41505241Y-54675319D01*
X41495517Y-54626211D01*
X41476440Y-54579928D01*
X41448737Y-54538231D01*
X41413462Y-54502709D01*
X41371960Y-54474715D01*
X41325810Y-54455316D01*
X41276772Y-54445250D01*
X41226712Y-54444900D01*
X39325009Y-54445069D01*
X39275901Y-54454793D01*
X39229618Y-54473870D01*
X39187921Y-54501573D01*
X39167270Y-54522080D01*
X39167270Y-54227078D01*
X39186538Y-54246481D01*
X39228040Y-54274475D01*
X39274190Y-54293874D01*
X39323228Y-54303940D01*
X39373288Y-54304290D01*
X41274991Y-54304121D01*
X41324099Y-54294397D01*
X41370382Y-54275320D01*
X41412079Y-54247617D01*
X41447601Y-54212342D01*
X41475595Y-54170840D01*
X41494994Y-54124690D01*
X41505060Y-54075652D01*
X41505410Y-54025592D01*
X41505247Y-52194251D01*
X41535161Y-52207321D01*
X41636840Y-52229677D01*
X41740924Y-52231857D01*
X41843450Y-52213779D01*
X41940511Y-52176131D01*
X41977703Y-52152528D01*
X41979262Y-52153808D01*
X41979292Y-52153833D01*
X42002730Y-52173500D01*
X42004218Y-52174318D01*
X42022970Y-52219812D01*
X42025564Y-52223716D01*
X42023815Y-52226310D01*
X42004416Y-52272460D01*
X41994350Y-52321498D01*
X41994000Y-52371558D01*
X41994169Y-52772121D01*
X42003893Y-52821229D01*
X42022970Y-52867512D01*
X42046017Y-52902201D01*
X42033214Y-52933264D01*
X42024651Y-52976508D01*
X42024660Y-53066813D01*
X42080857Y-53123010D01*
X43174010Y-53123010D01*
X43174010Y-53103010D01*
X43323870Y-53103010D01*
X43323870Y-53123010D01*
X44417023Y-53123010D01*
X44473220Y-53066813D01*
X44473229Y-52976508D01*
X44464666Y-52933264D01*
X44451812Y-52902079D01*
X44474065Y-52869090D01*
X44493464Y-52822940D01*
X44503530Y-52773902D01*
X44503880Y-52723842D01*
X44503711Y-52323279D01*
X44493987Y-52274171D01*
X44474910Y-52227888D01*
X44472315Y-52223983D01*
X44474065Y-52221390D01*
X44493464Y-52175240D01*
X44503530Y-52126202D01*
X44503880Y-52076142D01*
X44503743Y-51752028D01*
X44570511Y-51726131D01*
X44658412Y-51670348D01*
X44733803Y-51598553D01*
X44775205Y-51539861D01*
X44775201Y-51647042D01*
X44783764Y-51690286D01*
X44800563Y-51731043D01*
X44824958Y-51767761D01*
X44856021Y-51799041D01*
X44892568Y-51823693D01*
X44933207Y-51840776D01*
X44976390Y-51849640D01*
X45020472Y-51849947D01*
X45168873Y-51849790D01*
X45225070Y-51793593D01*
X45225070Y-51374930D01*
X45205070Y-51374930D01*
X45205070Y-51225070D01*
X45225070Y-51225070D01*
X45225070Y-50806407D01*
X45218663Y-50800000D01*
X45225070Y-50793593D01*
X45225070Y-50374930D01*
X45205070Y-50374930D01*
X45205070Y-50225070D01*
X45225070Y-50225070D01*
X45225070Y-50205070D01*
X45374930Y-50205070D01*
X45374930Y-50225070D01*
X45394930Y-50225070D01*
X45394930Y-50374930D01*
X45374930Y-50374930D01*
X45374930Y-50793593D01*
X45381337Y-50800000D01*
X45374930Y-50806407D01*
X45374930Y-51225070D01*
X45394930Y-51225070D01*
X45394930Y-51374930D01*
X45374930Y-51374930D01*
X45374930Y-51734942D01*
X45362553Y-51753019D01*
X45321540Y-51848707D01*
X45299895Y-51950539D01*
X45298442Y-52054636D01*
X45317235Y-52157033D01*
X45355560Y-52253829D01*
X45411955Y-52341338D01*
X45484274Y-52416227D01*
X45569762Y-52475642D01*
X45629492Y-52501737D01*
X44765615Y-53365615D01*
X44746166Y-53389292D01*
X44726500Y-53412730D01*
X44725659Y-53414259D01*
X44724554Y-53415605D01*
X44710112Y-53442537D01*
X44695334Y-53469420D01*
X44694805Y-53471085D01*
X44693984Y-53472618D01*
X44685055Y-53501822D01*
X44675773Y-53531084D01*
X44675578Y-53532820D01*
X44675070Y-53534483D01*
X44671981Y-53564887D01*
X44668562Y-53595372D01*
X44668538Y-53598779D01*
X44668532Y-53598843D01*
X44668537Y-53598902D01*
X44668530Y-53600000D01*
X44668530Y-56512700D01*
X44473229Y-56708001D01*
X44473229Y-53419372D01*
X44473220Y-53329067D01*
X44417023Y-53272870D01*
X43323870Y-53272870D01*
X43323870Y-53565923D01*
X43380067Y-53622120D01*
X44227958Y-53622277D01*
X44272040Y-53621970D01*
X44315223Y-53613106D01*
X44355862Y-53596023D01*
X44392409Y-53571371D01*
X44423472Y-53540091D01*
X44447867Y-53503373D01*
X44464666Y-53462616D01*
X44473229Y-53419372D01*
X44473229Y-56708001D01*
X44402700Y-56778530D01*
X43905710Y-56778530D01*
X43905710Y-56025842D01*
X43905541Y-53923479D01*
X43895817Y-53874371D01*
X43876740Y-53828088D01*
X43849037Y-53786391D01*
X43813762Y-53750869D01*
X43772260Y-53722875D01*
X43726110Y-53703476D01*
X43677072Y-53693410D01*
X43627012Y-53693060D01*
X43174010Y-53693107D01*
X43174010Y-53565923D01*
X43174010Y-53272870D01*
X42080857Y-53272870D01*
X42024660Y-53329067D01*
X42024651Y-53419372D01*
X42033214Y-53462616D01*
X42050013Y-53503373D01*
X42074408Y-53540091D01*
X42105471Y-53571371D01*
X42142018Y-53596023D01*
X42182657Y-53613106D01*
X42225840Y-53621970D01*
X42269922Y-53622277D01*
X43117813Y-53622120D01*
X43174010Y-53565923D01*
X43174010Y-53693107D01*
X42025029Y-53693229D01*
X41975921Y-53702953D01*
X41929638Y-53722030D01*
X41887941Y-53749733D01*
X41852419Y-53785008D01*
X41824425Y-53826510D01*
X41805026Y-53872660D01*
X41794960Y-53921698D01*
X41794610Y-53971758D01*
X41794779Y-56074121D01*
X41804503Y-56123229D01*
X41823580Y-56169512D01*
X41851283Y-56211209D01*
X41886558Y-56246731D01*
X41928060Y-56274725D01*
X41974210Y-56294124D01*
X42023248Y-56304190D01*
X42073308Y-56304540D01*
X43675291Y-56304371D01*
X43724399Y-56294647D01*
X43770682Y-56275570D01*
X43812379Y-56247867D01*
X43847901Y-56212592D01*
X43875895Y-56171090D01*
X43895294Y-56124940D01*
X43905360Y-56075902D01*
X43905710Y-56025842D01*
X43905710Y-56778530D01*
X42077000Y-56778530D01*
X42046469Y-56781523D01*
X42016026Y-56784187D01*
X42014354Y-56784672D01*
X42012617Y-56784843D01*
X41983301Y-56793694D01*
X41953902Y-56802235D01*
X41952352Y-56803038D01*
X41950687Y-56803541D01*
X41923671Y-56817905D01*
X41896467Y-56832007D01*
X41895105Y-56833094D01*
X41893567Y-56833912D01*
X41869865Y-56853242D01*
X41845910Y-56872366D01*
X41843483Y-56874759D01*
X41843435Y-56874799D01*
X41843398Y-56874843D01*
X41842615Y-56875616D01*
X41220950Y-57497279D01*
X41211154Y-57490672D01*
X40995102Y-57399852D01*
X40765523Y-57352726D01*
X40531164Y-57351090D01*
X40300950Y-57395006D01*
X40083650Y-57482801D01*
X39887542Y-57611130D01*
X39720094Y-57775107D01*
X39587685Y-57968485D01*
X39495359Y-58183899D01*
X39446632Y-58413142D01*
X39443360Y-58647485D01*
X39485667Y-58878000D01*
X39571943Y-59095907D01*
X39698900Y-59292907D01*
X39861704Y-59461495D01*
X40054153Y-59595250D01*
X40268916Y-59689078D01*
X40497814Y-59739405D01*
X40732128Y-59744313D01*
X40962933Y-59703616D01*
X41181437Y-59618863D01*
X41379318Y-59493284D01*
X41549039Y-59331661D01*
X41684135Y-59140151D01*
X41779460Y-58926048D01*
X41831383Y-58697507D01*
X41835121Y-58429817D01*
X41789599Y-58199916D01*
X41700289Y-57983234D01*
X41689210Y-57966559D01*
X42214299Y-57441470D01*
X42341416Y-57441470D01*
X42260094Y-57521107D01*
X42127685Y-57714485D01*
X42035359Y-57929899D01*
X41986632Y-58159142D01*
X41983360Y-58393485D01*
X42025667Y-58624000D01*
X42111943Y-58841907D01*
X42238900Y-59038907D01*
X42401704Y-59207495D01*
X42594153Y-59341250D01*
X42808916Y-59435078D01*
X43037814Y-59485405D01*
X43272128Y-59490313D01*
X43502933Y-59449616D01*
X43721437Y-59364863D01*
X43919318Y-59239284D01*
X44089039Y-59077661D01*
X44224135Y-58886151D01*
X44319460Y-58672048D01*
X44371383Y-58443507D01*
X44375121Y-58175817D01*
X44329599Y-57945916D01*
X44247311Y-57746272D01*
X44666254Y-57746272D01*
X44696735Y-57743283D01*
X44727228Y-57740616D01*
X44728904Y-57740128D01*
X44730637Y-57739959D01*
X44759924Y-57731116D01*
X44789351Y-57722567D01*
X44790899Y-57721764D01*
X44792567Y-57721261D01*
X44819581Y-57706897D01*
X44846786Y-57692796D01*
X44848149Y-57691707D01*
X44849687Y-57690890D01*
X44873352Y-57671588D01*
X44897344Y-57652437D01*
X44899776Y-57650037D01*
X44899819Y-57650003D01*
X44899851Y-57649963D01*
X44900639Y-57649187D01*
X45539187Y-57010639D01*
X45558635Y-56986961D01*
X45578302Y-56963524D01*
X45579142Y-56961994D01*
X45580248Y-56960649D01*
X45594699Y-56933697D01*
X45609468Y-56906834D01*
X45609995Y-56905170D01*
X45610818Y-56903637D01*
X45619751Y-56874416D01*
X45629029Y-56845170D01*
X45629223Y-56843433D01*
X45629732Y-56841771D01*
X45632815Y-56811411D01*
X45636240Y-56780882D01*
X45636263Y-56777463D01*
X45636269Y-56777411D01*
X45636264Y-56777361D01*
X45636272Y-56776254D01*
X45636272Y-53863553D01*
X47266501Y-52233323D01*
X47269463Y-52248279D01*
X47288540Y-52294562D01*
X47291134Y-52298466D01*
X47289385Y-52301060D01*
X47269986Y-52347210D01*
X47259920Y-52396248D01*
X47259570Y-52446308D01*
X47259739Y-52697011D01*
X47269463Y-52746119D01*
X47288540Y-52792402D01*
X47311636Y-52827165D01*
X47299244Y-52856647D01*
X47290380Y-52899830D01*
X47290073Y-52943912D01*
X47290230Y-52929473D01*
X47346427Y-52985670D01*
X48189390Y-52985670D01*
X48189390Y-52952970D01*
X48339250Y-52952970D01*
X48339250Y-52985670D01*
X48359250Y-52985670D01*
X48359250Y-53110130D01*
X48339250Y-53110130D01*
X48339250Y-53255227D01*
X48339250Y-53340953D01*
X48339250Y-53486050D01*
X48359250Y-53486050D01*
X48359250Y-53610510D01*
X48339250Y-53610510D01*
X48339250Y-53841333D01*
X48395447Y-53897530D01*
X48649526Y-53897533D01*
X48210000Y-54337059D01*
X47950745Y-54077805D01*
X47950883Y-54067946D01*
X47930662Y-53965822D01*
X47902515Y-53897533D01*
X48133193Y-53897530D01*
X48189390Y-53841333D01*
X48189390Y-53610510D01*
X48189390Y-53486050D01*
X48189390Y-53340953D01*
X48189390Y-53255227D01*
X48189390Y-53110130D01*
X47346427Y-53110130D01*
X47290230Y-53166327D01*
X47290073Y-53151888D01*
X47290380Y-53195970D01*
X47299244Y-53239153D01*
X47316327Y-53279792D01*
X47328669Y-53298090D01*
X47316327Y-53316388D01*
X47299244Y-53357027D01*
X47290380Y-53400210D01*
X47290073Y-53444292D01*
X47290230Y-53429853D01*
X47346427Y-53486050D01*
X48189390Y-53486050D01*
X48189390Y-53610510D01*
X47577936Y-53610510D01*
X47577739Y-53610427D01*
X47475759Y-53589493D01*
X47371654Y-53588766D01*
X47269391Y-53608274D01*
X47172864Y-53647273D01*
X47085751Y-53704279D01*
X47011370Y-53777118D01*
X46952553Y-53863019D01*
X46911540Y-53958707D01*
X46889895Y-54060539D01*
X46888442Y-54164636D01*
X46907235Y-54267033D01*
X46945560Y-54363829D01*
X47001955Y-54451338D01*
X47074274Y-54526227D01*
X47159762Y-54585642D01*
X47255161Y-54627321D01*
X47356840Y-54649677D01*
X47377162Y-54650102D01*
X47719653Y-54992594D01*
X47719719Y-55225031D01*
X47729443Y-55274139D01*
X47748520Y-55320422D01*
X47776223Y-55362119D01*
X47811498Y-55397641D01*
X47842192Y-55418345D01*
X47832239Y-55424958D01*
X47800959Y-55456021D01*
X47776307Y-55492568D01*
X47759224Y-55533207D01*
X47750360Y-55576390D01*
X47750053Y-55620472D01*
X47750210Y-55768873D01*
X47806407Y-55825070D01*
X48225070Y-55825070D01*
X48225070Y-55805070D01*
X48374930Y-55805070D01*
X48374930Y-55825070D01*
X48793593Y-55825070D01*
X48849790Y-55768873D01*
X48849947Y-55620472D01*
X48849640Y-55576390D01*
X48840776Y-55533207D01*
X48823693Y-55492568D01*
X48799041Y-55456021D01*
X48767761Y-55424958D01*
X48757736Y-55418298D01*
X48787119Y-55398777D01*
X48822641Y-55363502D01*
X48850635Y-55322000D01*
X48870034Y-55275850D01*
X48880100Y-55226812D01*
X48880450Y-55176752D01*
X48880347Y-54812592D01*
X49461496Y-54231443D01*
X49444226Y-54272530D01*
X49434160Y-54321568D01*
X49433810Y-54371628D01*
X49433979Y-55872011D01*
X49443703Y-55921119D01*
X49462780Y-55967402D01*
X49463198Y-55968031D01*
X48849947Y-56581282D01*
X48849947Y-56179528D01*
X48849790Y-56031127D01*
X48793593Y-55974930D01*
X48374930Y-55974930D01*
X48374930Y-56368593D01*
X48431127Y-56424790D01*
X48647042Y-56424799D01*
X48690286Y-56416236D01*
X48731043Y-56399437D01*
X48767761Y-56375042D01*
X48799041Y-56343979D01*
X48823693Y-56307432D01*
X48840776Y-56266793D01*
X48849640Y-56223610D01*
X48849947Y-56179528D01*
X48849947Y-56581282D01*
X48662700Y-56768530D01*
X48225070Y-56768530D01*
X48225070Y-56368593D01*
X48225070Y-55974930D01*
X47806407Y-55974930D01*
X47750210Y-56031127D01*
X47750053Y-56179528D01*
X47750360Y-56223610D01*
X47759224Y-56266793D01*
X47776307Y-56307432D01*
X47800959Y-56343979D01*
X47832239Y-56375042D01*
X47868957Y-56399437D01*
X47909714Y-56416236D01*
X47952958Y-56424799D01*
X48168873Y-56424790D01*
X48225070Y-56368593D01*
X48225070Y-56768530D01*
X47167000Y-56768530D01*
X47136518Y-56771518D01*
X47106026Y-56774186D01*
X47104349Y-56774673D01*
X47102617Y-56774843D01*
X47073329Y-56783685D01*
X47043903Y-56792235D01*
X47042354Y-56793037D01*
X47040687Y-56793541D01*
X47013672Y-56807904D01*
X46986468Y-56822006D01*
X46985104Y-56823094D01*
X46983567Y-56823912D01*
X46959901Y-56843213D01*
X46935910Y-56862365D01*
X46933477Y-56864764D01*
X46933435Y-56864799D01*
X46933402Y-56864838D01*
X46932615Y-56865615D01*
X46300950Y-57497279D01*
X46291154Y-57490672D01*
X46075102Y-57399852D01*
X45845523Y-57352726D01*
X45611164Y-57351090D01*
X45380950Y-57395006D01*
X45163650Y-57482801D01*
X44967542Y-57611130D01*
X44800094Y-57775107D01*
X44667685Y-57968485D01*
X44575359Y-58183899D01*
X44526632Y-58413142D01*
X44523360Y-58647485D01*
X44565667Y-58878000D01*
X44651943Y-59095907D01*
X44778900Y-59292907D01*
X44941704Y-59461495D01*
X45134153Y-59595250D01*
X45348916Y-59689078D01*
X45577814Y-59739405D01*
X45812128Y-59744313D01*
X46042933Y-59703616D01*
X46261437Y-59618863D01*
X46459318Y-59493284D01*
X46629039Y-59331661D01*
X46764135Y-59140151D01*
X46859460Y-58926048D01*
X46911383Y-58697507D01*
X46915121Y-58429817D01*
X46869599Y-58199916D01*
X46780289Y-57983234D01*
X46769210Y-57966559D01*
X47304300Y-57431470D01*
X47431628Y-57431470D01*
X47340094Y-57521107D01*
X47207685Y-57714485D01*
X47115359Y-57929899D01*
X47066632Y-58159142D01*
X47063360Y-58393485D01*
X47105667Y-58624000D01*
X47191943Y-58841907D01*
X47318900Y-59038907D01*
X47481704Y-59207495D01*
X47674153Y-59341250D01*
X47888916Y-59435078D01*
X48117814Y-59485405D01*
X48352128Y-59490313D01*
X48582933Y-59449616D01*
X48801437Y-59364863D01*
X48999318Y-59239284D01*
X49169039Y-59077661D01*
X49304135Y-58886151D01*
X49399460Y-58672048D01*
X49451383Y-58443507D01*
X49455121Y-58175817D01*
X49409599Y-57945916D01*
X49320289Y-57729234D01*
X49220614Y-57579210D01*
X49800955Y-56998870D01*
X51879360Y-56998870D01*
X51380950Y-57497279D01*
X51371154Y-57490672D01*
X51155102Y-57399852D01*
X50925523Y-57352726D01*
X50691164Y-57351090D01*
X50460950Y-57395006D01*
X50243650Y-57482801D01*
X50047542Y-57611130D01*
X49880094Y-57775107D01*
X49747685Y-57968485D01*
X49655359Y-58183899D01*
X49606632Y-58413142D01*
X49603360Y-58647485D01*
X49645667Y-58878000D01*
X49731943Y-59095907D01*
X49858900Y-59292907D01*
X50021704Y-59461495D01*
X50214153Y-59595250D01*
X50428916Y-59689078D01*
X50657814Y-59739405D01*
X50892128Y-59744313D01*
X51122933Y-59703616D01*
X51341437Y-59618863D01*
X51539318Y-59493284D01*
X51709039Y-59331661D01*
X51844135Y-59140151D01*
X51939460Y-58926048D01*
X51991383Y-58697507D01*
X51995121Y-58429817D01*
X51949599Y-58199916D01*
X51860289Y-57983234D01*
X51849210Y-57966559D01*
X53024384Y-56791385D01*
X53043826Y-56767715D01*
X53063500Y-56744270D01*
X53064339Y-56742743D01*
X53065446Y-56741396D01*
X53079889Y-56714457D01*
X53094666Y-56687580D01*
X53095195Y-56685912D01*
X53096015Y-56684383D01*
X53104938Y-56655196D01*
X53114227Y-56625916D01*
X53114421Y-56624180D01*
X53114930Y-56622518D01*
X53117267Y-56599503D01*
X53135161Y-56607321D01*
X53236840Y-56629677D01*
X53340924Y-56631857D01*
X53443450Y-56613779D01*
X53480210Y-56599520D01*
X53480210Y-57101740D01*
X53465523Y-57098726D01*
X53231164Y-57097090D01*
X53000950Y-57141006D01*
X52783650Y-57228801D01*
X52587542Y-57357130D01*
X52420094Y-57521107D01*
X52287685Y-57714485D01*
X52195359Y-57929899D01*
X52146632Y-58159142D01*
X52143360Y-58393485D01*
X52185667Y-58624000D01*
X52271943Y-58841907D01*
X52398900Y-59038907D01*
X52561704Y-59207495D01*
X52754153Y-59341250D01*
X52968916Y-59435078D01*
X53197814Y-59485405D01*
X53432128Y-59490313D01*
X53662933Y-59449616D01*
X53881437Y-59364863D01*
X54079318Y-59239284D01*
X54249039Y-59077661D01*
X54384135Y-58886151D01*
X54479460Y-58672048D01*
X54531383Y-58443507D01*
X54535121Y-58175817D01*
X54489599Y-57945916D01*
X54400289Y-57729234D01*
X54270594Y-57534026D01*
X54143150Y-57405689D01*
X54143150Y-56098980D01*
X54158248Y-56102080D01*
X54208308Y-56102430D01*
X54459011Y-56102261D01*
X54508119Y-56092537D01*
X54554402Y-56073460D01*
X54589091Y-56050412D01*
X54620154Y-56063216D01*
X54663398Y-56071779D01*
X54691473Y-56071770D01*
X54747670Y-56015573D01*
X54747670Y-55172610D01*
X54714970Y-55172610D01*
X54714970Y-55022750D01*
X54747670Y-55022750D01*
X54747670Y-55002750D01*
X54872130Y-55002750D01*
X54872130Y-55022750D01*
X54904830Y-55022750D01*
X54904830Y-55172610D01*
X54872130Y-55172610D01*
X54872130Y-56015573D01*
X54928327Y-56071770D01*
X54956402Y-56071779D01*
X54978810Y-56067341D01*
X54978810Y-57756778D01*
X54960094Y-57775107D01*
X54827685Y-57968485D01*
X54735359Y-58183899D01*
X54686632Y-58413142D01*
X54683360Y-58647485D01*
X54725667Y-58878000D01*
X54811943Y-59095907D01*
X54938900Y-59292907D01*
X55101704Y-59461495D01*
X55294153Y-59595250D01*
X55508916Y-59689078D01*
X55737814Y-59739405D01*
X55972128Y-59744313D01*
X56202933Y-59703616D01*
X56421437Y-59618863D01*
X56619318Y-59493284D01*
X56789039Y-59331661D01*
X56924135Y-59140151D01*
X57019460Y-58926048D01*
X57071383Y-58697507D01*
X57075121Y-58429817D01*
X57029599Y-58199916D01*
X56940289Y-57983234D01*
X56810594Y-57788026D01*
X56645452Y-57621728D01*
X56451154Y-57490672D01*
X56235102Y-57399852D01*
X56005523Y-57352726D01*
X55771164Y-57351090D01*
X55641750Y-57375777D01*
X55641750Y-55996592D01*
X55660375Y-55968980D01*
X55679774Y-55922830D01*
X55689840Y-55873792D01*
X55690190Y-55823732D01*
X55690149Y-55467536D01*
X55700560Y-55493829D01*
X55756955Y-55581338D01*
X55829274Y-55656227D01*
X55914762Y-55715642D01*
X56010161Y-55757321D01*
X56111840Y-55779677D01*
X56215924Y-55781857D01*
X56223904Y-55780449D01*
X56825031Y-55780281D01*
X56874139Y-55770557D01*
X56920422Y-55751480D01*
X56962119Y-55723777D01*
X56997641Y-55688502D01*
X57018345Y-55657807D01*
X57024958Y-55667761D01*
X57056021Y-55699041D01*
X57092568Y-55723693D01*
X57133207Y-55740776D01*
X57176390Y-55749640D01*
X57220472Y-55749947D01*
X57368873Y-55749790D01*
X57425070Y-55693593D01*
X57425070Y-55274930D01*
X57405070Y-55274930D01*
X57405070Y-55125070D01*
X57425070Y-55125070D01*
X57425070Y-54706407D01*
X57368873Y-54650210D01*
X57220472Y-54650053D01*
X57176390Y-54650360D01*
X57133207Y-54659224D01*
X57092568Y-54676307D01*
X57056021Y-54700959D01*
X57024958Y-54732239D01*
X57018298Y-54742263D01*
X56998777Y-54712881D01*
X56963502Y-54677359D01*
X56922000Y-54649365D01*
X56875850Y-54629966D01*
X56826812Y-54619900D01*
X56776752Y-54619550D01*
X56174969Y-54619719D01*
X56125861Y-54629443D01*
X56079578Y-54648520D01*
X56037881Y-54676223D01*
X56002359Y-54711498D01*
X55974365Y-54753000D01*
X55971587Y-54759607D01*
X55927864Y-54777273D01*
X55840751Y-54834279D01*
X55766370Y-54907118D01*
X55707553Y-54993019D01*
X55690101Y-55033736D01*
X55690021Y-54323349D01*
X55680297Y-54274241D01*
X55661220Y-54227958D01*
X55633517Y-54186261D01*
X55598242Y-54150739D01*
X55556740Y-54122745D01*
X55510590Y-54103346D01*
X55461552Y-54093280D01*
X55411492Y-54092930D01*
X55160789Y-54093099D01*
X55111681Y-54102823D01*
X55065398Y-54121900D01*
X55030708Y-54144947D01*
X54999646Y-54132144D01*
X54956402Y-54123581D01*
X54928327Y-54123590D01*
X54884832Y-54167085D01*
X54884832Y-54123590D01*
X54844809Y-54123590D01*
X54845483Y-54075346D01*
X54825262Y-53973222D01*
X54785590Y-53876970D01*
X54727978Y-53790257D01*
X54654620Y-53716386D01*
X54568312Y-53658170D01*
X54472339Y-53617827D01*
X54370359Y-53596893D01*
X54266254Y-53596166D01*
X54163991Y-53615674D01*
X54067464Y-53654673D01*
X53980351Y-53711679D01*
X53920254Y-53770530D01*
X51571400Y-53770530D01*
X51540869Y-53773523D01*
X51510426Y-53776187D01*
X51508754Y-53776672D01*
X51507017Y-53776843D01*
X51477701Y-53785694D01*
X51448302Y-53794235D01*
X51446752Y-53795038D01*
X51445087Y-53795541D01*
X51418090Y-53809895D01*
X51390868Y-53824006D01*
X51389504Y-53825094D01*
X51387967Y-53825912D01*
X51364270Y-53845238D01*
X51340310Y-53864366D01*
X51337883Y-53866759D01*
X51337835Y-53866799D01*
X51337798Y-53866843D01*
X51337015Y-53867616D01*
X51294186Y-53910443D01*
X51280390Y-53876970D01*
X51222778Y-53790257D01*
X51149420Y-53716386D01*
X51063112Y-53658170D01*
X50967139Y-53617827D01*
X50865159Y-53596893D01*
X50761054Y-53596166D01*
X50658791Y-53615674D01*
X50562264Y-53654673D01*
X50475151Y-53711679D01*
X50400770Y-53784518D01*
X50341953Y-53870419D01*
X50300940Y-53966107D01*
X50279295Y-54067939D01*
X50278944Y-54093021D01*
X50164609Y-54093099D01*
X50115501Y-54102823D01*
X50069218Y-54121900D01*
X50064033Y-54125344D01*
X50060180Y-54122745D01*
X50014030Y-54103346D01*
X49964992Y-54093280D01*
X49914932Y-54092930D01*
X49664229Y-54093099D01*
X49615121Y-54102823D01*
X49572584Y-54120355D01*
X49606470Y-54086470D01*
X49630202Y-54057576D01*
X49654278Y-54028885D01*
X49655305Y-54027016D01*
X49656656Y-54025372D01*
X49674333Y-53992403D01*
X49692369Y-53959598D01*
X49693012Y-53957568D01*
X49694020Y-53955690D01*
X49704956Y-53919916D01*
X49716277Y-53884231D01*
X49716514Y-53882111D01*
X49717137Y-53880076D01*
X49720911Y-53842911D01*
X49725091Y-53805656D01*
X49725119Y-53801485D01*
X49725127Y-53801414D01*
X49725120Y-53801347D01*
X49725130Y-53800000D01*
X49725130Y-52370000D01*
X49721474Y-52332716D01*
X49718216Y-52295475D01*
X49717621Y-52293430D01*
X49717414Y-52291310D01*
X49706595Y-52255477D01*
X49696157Y-52219548D01*
X49695177Y-52217657D01*
X49694561Y-52215617D01*
X49676982Y-52182556D01*
X49659770Y-52149350D01*
X49658441Y-52147686D01*
X49657441Y-52145804D01*
X49633804Y-52116822D01*
X49610441Y-52087556D01*
X49607510Y-52084584D01*
X49607468Y-52084532D01*
X49607419Y-52084491D01*
X49606470Y-52083529D01*
X49286150Y-51763210D01*
X49260232Y-51741921D01*
X49268720Y-51700572D01*
X49269070Y-51650512D01*
X49268901Y-51399809D01*
X49259177Y-51350701D01*
X49240100Y-51304418D01*
X49236655Y-51299233D01*
X49239255Y-51295380D01*
X49258654Y-51249230D01*
X49268720Y-51200192D01*
X49269070Y-51150132D01*
X49269054Y-51126925D01*
X49351724Y-51128657D01*
X49454250Y-51110579D01*
X49551311Y-51072931D01*
X49639212Y-51017148D01*
X49714603Y-50945353D01*
X49774614Y-50860283D01*
X49816958Y-50765176D01*
X49840023Y-50663656D01*
X49841683Y-50544746D01*
X49821462Y-50442622D01*
X49781790Y-50346370D01*
X49724178Y-50259657D01*
X49650820Y-50185786D01*
X49564512Y-50127570D01*
X49468539Y-50087227D01*
X49366559Y-50066293D01*
X49269011Y-50065611D01*
X49268901Y-49901209D01*
X49259177Y-49852101D01*
X49240100Y-49805818D01*
X49236655Y-49800633D01*
X49239255Y-49796780D01*
X49258654Y-49750630D01*
X49268720Y-49701592D01*
X49269070Y-49651532D01*
X49268901Y-49400829D01*
X49259177Y-49351721D01*
X49240100Y-49305438D01*
X49237505Y-49301533D01*
X49239255Y-49298940D01*
X49258654Y-49252790D01*
X49268720Y-49203752D01*
X49269070Y-49153692D01*
X49268901Y-48902989D01*
X49259177Y-48853881D01*
X49240100Y-48807598D01*
X49217003Y-48772834D01*
X49229396Y-48743353D01*
X49238260Y-48700170D01*
X49238567Y-48656088D01*
X49238410Y-48670527D01*
X49182213Y-48614330D01*
X48339250Y-48614330D01*
X48339250Y-48647030D01*
X48189390Y-48647030D01*
X48189390Y-48614330D01*
X48169390Y-48614330D01*
X48169390Y-48489870D01*
X48189390Y-48489870D01*
X48189390Y-48457170D01*
X48339250Y-48457170D01*
X48339250Y-48489870D01*
X49182213Y-48489870D01*
X49238410Y-48433673D01*
X49238567Y-48448112D01*
X49238260Y-48404030D01*
X49229396Y-48360847D01*
X49216952Y-48331244D01*
X49239255Y-48298180D01*
X49258654Y-48252030D01*
X49268720Y-48202992D01*
X49269070Y-48152932D01*
X49268901Y-47902229D01*
X49259177Y-47853121D01*
X49240100Y-47806838D01*
X49212397Y-47765141D01*
X49177122Y-47729619D01*
X49135620Y-47701625D01*
X49089470Y-47682226D01*
X49040432Y-47672160D01*
X48990372Y-47671810D01*
X48669450Y-47671846D01*
X48669450Y-47367130D01*
X48788000Y-47367130D01*
X48825246Y-47363477D01*
X48862524Y-47360216D01*
X48864568Y-47359622D01*
X48866690Y-47359414D01*
X48902534Y-47348592D01*
X48938452Y-47338157D01*
X48940342Y-47337177D01*
X48942383Y-47336561D01*
X48975443Y-47318982D01*
X49008650Y-47301770D01*
X49010313Y-47300441D01*
X49012196Y-47299441D01*
X49041171Y-47275809D01*
X49070443Y-47252442D01*
X49073411Y-47249514D01*
X49073468Y-47249468D01*
X49073511Y-47249415D01*
X49074470Y-47248470D01*
X49266117Y-47056822D01*
X49368450Y-47038779D01*
X49433949Y-47013373D01*
X49433979Y-47276651D01*
X49443703Y-47325759D01*
X49462780Y-47372042D01*
X49490483Y-47413739D01*
X49525758Y-47449261D01*
X49567260Y-47477255D01*
X49613410Y-47496654D01*
X49662448Y-47506720D01*
X49712508Y-47507070D01*
X49963211Y-47506901D01*
X50012319Y-47497177D01*
X50058602Y-47478100D01*
X50063786Y-47474655D01*
X50067640Y-47477255D01*
X50113790Y-47496654D01*
X50162828Y-47506720D01*
X50212888Y-47507070D01*
X50463591Y-47506901D01*
X50512699Y-47497177D01*
X50558982Y-47478100D01*
X50564166Y-47474655D01*
X50568020Y-47477255D01*
X50614170Y-47496654D01*
X50663208Y-47506720D01*
X50713268Y-47507070D01*
X50963971Y-47506901D01*
X51013079Y-47497177D01*
X51059362Y-47478100D01*
X51063266Y-47475505D01*
X51065860Y-47477255D01*
X51112010Y-47496654D01*
X51161048Y-47506720D01*
X51211108Y-47507070D01*
X51461811Y-47506901D01*
X51510919Y-47497177D01*
X51557202Y-47478100D01*
X51562386Y-47474655D01*
X51566240Y-47477255D01*
X51612390Y-47496654D01*
X51661428Y-47506720D01*
X51711488Y-47507070D01*
X51962191Y-47506901D01*
X52011299Y-47497177D01*
X52057582Y-47478100D01*
X52062766Y-47474655D01*
X52066620Y-47477255D01*
X52112770Y-47496654D01*
X52161808Y-47506720D01*
X52211868Y-47507070D01*
X52462571Y-47506901D01*
X52511679Y-47497177D01*
X52557962Y-47478100D01*
X52561866Y-47475505D01*
X52564460Y-47477255D01*
X52610610Y-47496654D01*
X52659648Y-47506720D01*
X52709708Y-47507070D01*
X52960411Y-47506901D01*
X53009519Y-47497177D01*
X53055802Y-47478100D01*
X53060986Y-47474655D01*
X53064840Y-47477255D01*
X53110990Y-47496654D01*
X53160028Y-47506720D01*
X53210088Y-47507070D01*
X53268966Y-47507030D01*
X53268442Y-47544636D01*
X53287235Y-47647033D01*
X53325560Y-47743829D01*
X53381955Y-47831338D01*
X53454274Y-47906227D01*
X53539762Y-47965642D01*
X53635161Y-48007321D01*
X53736840Y-48029677D01*
X53840924Y-48031857D01*
X53943450Y-48013779D01*
X54040511Y-47976131D01*
X54128412Y-47920348D01*
X54203803Y-47848553D01*
X54263814Y-47763483D01*
X54287257Y-47710826D01*
X54308815Y-47732384D01*
X54332462Y-47751808D01*
X54355930Y-47771500D01*
X54357459Y-47772340D01*
X54358805Y-47773446D01*
X54385756Y-47787897D01*
X54412620Y-47802666D01*
X54414283Y-47803193D01*
X54415817Y-47804016D01*
X54445037Y-47812949D01*
X54474284Y-47822227D01*
X54476020Y-47822421D01*
X54477683Y-47822930D01*
X54508042Y-47826013D01*
X54538572Y-47829438D01*
X54541990Y-47829461D01*
X54542043Y-47829467D01*
X54542092Y-47829462D01*
X54543200Y-47829470D01*
X55533800Y-47829470D01*
X55564281Y-47826481D01*
X55594774Y-47823814D01*
X55596450Y-47823326D01*
X55598183Y-47823157D01*
X55627470Y-47814314D01*
X55656897Y-47805765D01*
X55658445Y-47804962D01*
X55660113Y-47804459D01*
X55687127Y-47790095D01*
X55714332Y-47775994D01*
X55715695Y-47774905D01*
X55717233Y-47774088D01*
X55740898Y-47754786D01*
X55764890Y-47735635D01*
X55767322Y-47733235D01*
X55767365Y-47733201D01*
X55767397Y-47733161D01*
X55768185Y-47732385D01*
X55920585Y-47579985D01*
X55940033Y-47556307D01*
X55959700Y-47532870D01*
X55960540Y-47531340D01*
X55961646Y-47529995D01*
X55976097Y-47503043D01*
X55990866Y-47476180D01*
X55991393Y-47474516D01*
X55992216Y-47472983D01*
X56001149Y-47443762D01*
X56010427Y-47414516D01*
X56010621Y-47412779D01*
X56011130Y-47411117D01*
X56014218Y-47380712D01*
X56017638Y-47350228D01*
X56017661Y-47346820D01*
X56017668Y-47346757D01*
X56017662Y-47346697D01*
X56017670Y-47345600D01*
X56017670Y-46102280D01*
X56300000Y-46102280D01*
X56368407Y-46102280D01*
X56372315Y-46123573D01*
X56410640Y-46220369D01*
X56467035Y-46307878D01*
X56539354Y-46382767D01*
X56624842Y-46442182D01*
X56720241Y-46483861D01*
X56821920Y-46506217D01*
X56926004Y-46508397D01*
X57028530Y-46490319D01*
X57125591Y-46452671D01*
X57213492Y-46396888D01*
X57288883Y-46325093D01*
X57348894Y-46240023D01*
X57391238Y-46144916D01*
X57400924Y-46102280D01*
X59033510Y-46102280D01*
X59945361Y-47014132D01*
X58353942Y-47014132D01*
X58323411Y-47017125D01*
X58292968Y-47019789D01*
X58291296Y-47020274D01*
X58289559Y-47020445D01*
X58260243Y-47029296D01*
X58230844Y-47037837D01*
X58229294Y-47038640D01*
X58227629Y-47039143D01*
X58200653Y-47053486D01*
X58173409Y-47067608D01*
X58172043Y-47068698D01*
X58170509Y-47069514D01*
X58146834Y-47088822D01*
X58122852Y-47107968D01*
X58120425Y-47110361D01*
X58120377Y-47110401D01*
X58120340Y-47110445D01*
X58119557Y-47111218D01*
X57558961Y-47671813D01*
X56085349Y-47671979D01*
X56036241Y-47681703D01*
X55989958Y-47700780D01*
X55948261Y-47728483D01*
X55912739Y-47763758D01*
X55884745Y-47805260D01*
X55865346Y-47851410D01*
X55855280Y-47900448D01*
X55854930Y-47950508D01*
X55855099Y-48201211D01*
X55864823Y-48250319D01*
X55883900Y-48296602D01*
X55887344Y-48301786D01*
X55884745Y-48305640D01*
X55865346Y-48351790D01*
X55855280Y-48400828D01*
X55854930Y-48450888D01*
X55855099Y-48701591D01*
X55864823Y-48750699D01*
X55883900Y-48796982D01*
X55887344Y-48802166D01*
X55884745Y-48806020D01*
X55865346Y-48852170D01*
X55855280Y-48901208D01*
X55854930Y-48951268D01*
X55854975Y-49018963D01*
X55826654Y-49018766D01*
X55724391Y-49038274D01*
X55627864Y-49077273D01*
X55540751Y-49134279D01*
X55466370Y-49207118D01*
X55407553Y-49293019D01*
X55366540Y-49388707D01*
X55344895Y-49490539D01*
X55343442Y-49594636D01*
X55362235Y-49697033D01*
X55400560Y-49793829D01*
X55456955Y-49881338D01*
X55529274Y-49956227D01*
X55614762Y-50015642D01*
X55710161Y-50057321D01*
X55811840Y-50079677D01*
X55855018Y-50080581D01*
X55855099Y-50200191D01*
X55864823Y-50249299D01*
X55883900Y-50295582D01*
X55887344Y-50300766D01*
X55884745Y-50304620D01*
X55865346Y-50350770D01*
X55855280Y-50399808D01*
X55854930Y-50449868D01*
X55855099Y-50700571D01*
X55864823Y-50749679D01*
X55883900Y-50795962D01*
X55886494Y-50799866D01*
X55884745Y-50802460D01*
X55865346Y-50848610D01*
X55855280Y-50897648D01*
X55854930Y-50947708D01*
X55855099Y-51198411D01*
X55864823Y-51247519D01*
X55883900Y-51293802D01*
X55887344Y-51298986D01*
X55884745Y-51302840D01*
X55865346Y-51348990D01*
X55855280Y-51398028D01*
X55854930Y-51448088D01*
X55855099Y-51698791D01*
X55864823Y-51747899D01*
X55883900Y-51794182D01*
X55887344Y-51799366D01*
X55884745Y-51803220D01*
X55865346Y-51849370D01*
X55855280Y-51898408D01*
X55854930Y-51948468D01*
X55855099Y-52199171D01*
X55864823Y-52248279D01*
X55883900Y-52294562D01*
X55886494Y-52298466D01*
X55884745Y-52301060D01*
X55865346Y-52347210D01*
X55855280Y-52396248D01*
X55854930Y-52446308D01*
X55855099Y-52697011D01*
X55864823Y-52746119D01*
X55883900Y-52792402D01*
X55887344Y-52797586D01*
X55884745Y-52801440D01*
X55865346Y-52847590D01*
X55855280Y-52896628D01*
X55854930Y-52946688D01*
X55855099Y-53197391D01*
X55864823Y-53246499D01*
X55883900Y-53292782D01*
X55887344Y-53297966D01*
X55884745Y-53301820D01*
X55865346Y-53347970D01*
X55855280Y-53397008D01*
X55854930Y-53447068D01*
X55855099Y-53697771D01*
X55864823Y-53746879D01*
X55883900Y-53793162D01*
X55911603Y-53834859D01*
X55946878Y-53870381D01*
X55988380Y-53898375D01*
X56034530Y-53917774D01*
X56083568Y-53927840D01*
X56133628Y-53928190D01*
X57634011Y-53928021D01*
X57683119Y-53918297D01*
X57729402Y-53899220D01*
X57731233Y-53898003D01*
X58390030Y-54556800D01*
X58390030Y-57097640D01*
X58311164Y-57097090D01*
X58080950Y-57141006D01*
X58024799Y-57163692D01*
X58024799Y-55547042D01*
X58024799Y-54852958D01*
X58016236Y-54809714D01*
X57999437Y-54768957D01*
X57975042Y-54732239D01*
X57943979Y-54700959D01*
X57907432Y-54676307D01*
X57866793Y-54659224D01*
X57823610Y-54650360D01*
X57779528Y-54650053D01*
X57631127Y-54650210D01*
X57574930Y-54706407D01*
X57574930Y-55125070D01*
X57968593Y-55125070D01*
X58024790Y-55068873D01*
X58024799Y-54852958D01*
X58024799Y-55547042D01*
X58024790Y-55331127D01*
X57968593Y-55274930D01*
X57574930Y-55274930D01*
X57574930Y-55693593D01*
X57631127Y-55749790D01*
X57779528Y-55749947D01*
X57823610Y-55749640D01*
X57866793Y-55740776D01*
X57907432Y-55723693D01*
X57943979Y-55699041D01*
X57975042Y-55667761D01*
X57999437Y-55631043D01*
X58016236Y-55590286D01*
X58024799Y-55547042D01*
X58024799Y-57163692D01*
X57863650Y-57228801D01*
X57667542Y-57357130D01*
X57500094Y-57521107D01*
X57425070Y-57630676D01*
X57367685Y-57714485D01*
X57275359Y-57929899D01*
X57226632Y-58159142D01*
X57223360Y-58393485D01*
X57265667Y-58624000D01*
X57351943Y-58841907D01*
X57478900Y-59038907D01*
X57641704Y-59207495D01*
X57834153Y-59341250D01*
X58048916Y-59435078D01*
X58277814Y-59485405D01*
X58512128Y-59490313D01*
X58742933Y-59449616D01*
X58961437Y-59364863D01*
X59159318Y-59239284D01*
X59329039Y-59077661D01*
X59464135Y-58886151D01*
X59559460Y-58672048D01*
X59611383Y-58443507D01*
X59615121Y-58175817D01*
X59569599Y-57945916D01*
X59480289Y-57729234D01*
X59350594Y-57534026D01*
X59185452Y-57367728D01*
X59052970Y-57278367D01*
X59052970Y-56678747D01*
X60095283Y-57721061D01*
X60040094Y-57775107D01*
X59907685Y-57968485D01*
X59815359Y-58183899D01*
X59766632Y-58413142D01*
X59763360Y-58647485D01*
X59805667Y-58878000D01*
X59891943Y-59095907D01*
X60018900Y-59292907D01*
X60181704Y-59461495D01*
X60374153Y-59595250D01*
X60588916Y-59689078D01*
X60817814Y-59739405D01*
X61052128Y-59744313D01*
X61282933Y-59703616D01*
X61501437Y-59618863D01*
X61699318Y-59493284D01*
X61869039Y-59331661D01*
X62004135Y-59140151D01*
X62099460Y-58926048D01*
X62151383Y-58697507D01*
X62155121Y-58429817D01*
X62109599Y-58199916D01*
X62020289Y-57983234D01*
X61890594Y-57788026D01*
X61775344Y-57671970D01*
X62410200Y-57671970D01*
X62449729Y-57711499D01*
X62447685Y-57714485D01*
X62355359Y-57929899D01*
X62306632Y-58159142D01*
X62303360Y-58393485D01*
X62345667Y-58624000D01*
X62431943Y-58841907D01*
X62558900Y-59038907D01*
X62721704Y-59207495D01*
X62914153Y-59341250D01*
X63128916Y-59435078D01*
X63357814Y-59485405D01*
X63592128Y-59490313D01*
X63822933Y-59449616D01*
X64041437Y-59364863D01*
X64239318Y-59239284D01*
X64409039Y-59077661D01*
X64544135Y-58886151D01*
X64639460Y-58672048D01*
X64691383Y-58443507D01*
X64695121Y-58175817D01*
X64649599Y-57945916D01*
X64560289Y-57729234D01*
X64430594Y-57534026D01*
X64265452Y-57367728D01*
X64264621Y-57367168D01*
X64391398Y-57367168D01*
X64989729Y-57965499D01*
X64987685Y-57968485D01*
X64895359Y-58183899D01*
X64846632Y-58413142D01*
X64843360Y-58647485D01*
X64885667Y-58878000D01*
X64971943Y-59095907D01*
X65098900Y-59292907D01*
X65261704Y-59461495D01*
X65454153Y-59595250D01*
X65668916Y-59689078D01*
X65897814Y-59739405D01*
X66132128Y-59744313D01*
X66362933Y-59703616D01*
X66581437Y-59618863D01*
X66779318Y-59493284D01*
X66949039Y-59331661D01*
X67084135Y-59140151D01*
X67179460Y-58926048D01*
X67231383Y-58697507D01*
X67235121Y-58429817D01*
X67189599Y-58199916D01*
X67100289Y-57983234D01*
X66970594Y-57788026D01*
X66805452Y-57621728D01*
X66785796Y-57608470D01*
X67426700Y-57608470D01*
X67529729Y-57711499D01*
X67527685Y-57714485D01*
X67435359Y-57929899D01*
X67386632Y-58159142D01*
X67383360Y-58393485D01*
X67425667Y-58624000D01*
X67511943Y-58841907D01*
X67638900Y-59038907D01*
X67801704Y-59207495D01*
X67994153Y-59341250D01*
X68208916Y-59435078D01*
X68437814Y-59485405D01*
X68672128Y-59490313D01*
X68902933Y-59449616D01*
X69121437Y-59364863D01*
X69319318Y-59239284D01*
X69489039Y-59077661D01*
X69624135Y-58886151D01*
X69719460Y-58672048D01*
X69771383Y-58443507D01*
X69775121Y-58175817D01*
X69729599Y-57945916D01*
X69640289Y-57729234D01*
X69510594Y-57534026D01*
X69345452Y-57367728D01*
X69151154Y-57236672D01*
X68935102Y-57145852D01*
X68705523Y-57098726D01*
X68471164Y-57097090D01*
X68240950Y-57141006D01*
X68023650Y-57228801D01*
X68000028Y-57244258D01*
X67798385Y-57042615D01*
X67774707Y-57023166D01*
X67751270Y-57003500D01*
X67749740Y-57002659D01*
X67748395Y-57001554D01*
X67721462Y-56987112D01*
X67694580Y-56972334D01*
X67692914Y-56971805D01*
X67691382Y-56970984D01*
X67662177Y-56962055D01*
X67632916Y-56952773D01*
X67631179Y-56952578D01*
X67629517Y-56952070D01*
X67599112Y-56948981D01*
X67568628Y-56945562D01*
X67565220Y-56945538D01*
X67565157Y-56945532D01*
X67565097Y-56945537D01*
X67564000Y-56945530D01*
X66787460Y-56945530D01*
X66949039Y-56791661D01*
X67084135Y-56600151D01*
X67179460Y-56386048D01*
X67231383Y-56157507D01*
X67235121Y-55889817D01*
X67189599Y-55659916D01*
X67100289Y-55443234D01*
X66970594Y-55248026D01*
X66867956Y-55144670D01*
X67502900Y-55144670D01*
X67529729Y-55171499D01*
X67527685Y-55174485D01*
X67435359Y-55389899D01*
X67386632Y-55619142D01*
X67383360Y-55853485D01*
X67425667Y-56084000D01*
X67511943Y-56301907D01*
X67638900Y-56498907D01*
X67801704Y-56667495D01*
X67994153Y-56801250D01*
X68208916Y-56895078D01*
X68437814Y-56945405D01*
X68672128Y-56950313D01*
X68902933Y-56909616D01*
X69121437Y-56824863D01*
X69319318Y-56699284D01*
X69489039Y-56537661D01*
X69624135Y-56346151D01*
X69719460Y-56132048D01*
X69771383Y-55903507D01*
X69775121Y-55635817D01*
X69729599Y-55405916D01*
X69640289Y-55189234D01*
X69510594Y-54994026D01*
X69357507Y-54839868D01*
X70078602Y-54839868D01*
X70109083Y-54836879D01*
X70139576Y-54834212D01*
X70141252Y-54833724D01*
X70142985Y-54833555D01*
X70172272Y-54824712D01*
X70201699Y-54816163D01*
X70203247Y-54815360D01*
X70204915Y-54814857D01*
X70231929Y-54800493D01*
X70259134Y-54786392D01*
X70260497Y-54785303D01*
X70262035Y-54784486D01*
X70285700Y-54765184D01*
X70309692Y-54746033D01*
X70312124Y-54743633D01*
X70312167Y-54743599D01*
X70312199Y-54743559D01*
X70312987Y-54742783D01*
X71003299Y-54052470D01*
X71876818Y-54052470D01*
X71876819Y-54058431D01*
X71886543Y-54107539D01*
X71905620Y-54153822D01*
X71933323Y-54195519D01*
X71968598Y-54231041D01*
X72010100Y-54259035D01*
X72056250Y-54278434D01*
X72105288Y-54288500D01*
X72155348Y-54288850D01*
X73257131Y-54288681D01*
X73306239Y-54278957D01*
X73352522Y-54259880D01*
X73394219Y-54232177D01*
X73429741Y-54196902D01*
X73457735Y-54155400D01*
X73477134Y-54109250D01*
X73487200Y-54060212D01*
X73487550Y-54010152D01*
X73487550Y-50210152D01*
X73487381Y-48608369D01*
X73477657Y-48559261D01*
X73458580Y-48512978D01*
X73430877Y-48471281D01*
X73395602Y-48435759D01*
X73354100Y-48407765D01*
X73307950Y-48388366D01*
X73258912Y-48378300D01*
X73208852Y-48377950D01*
X72107069Y-48378119D01*
X72057961Y-48387843D01*
X72011678Y-48406920D01*
X71969981Y-48434623D01*
X71934459Y-48469898D01*
X71906465Y-48511400D01*
X71887066Y-48557550D01*
X71877000Y-48606588D01*
X71876650Y-48656648D01*
X71876819Y-50258431D01*
X71886543Y-50307539D01*
X71905620Y-50353822D01*
X71933323Y-50395519D01*
X71968598Y-50431041D01*
X72010100Y-50459035D01*
X72056250Y-50478434D01*
X72105288Y-50488500D01*
X72155348Y-50488850D01*
X73257131Y-50488681D01*
X73306239Y-50478957D01*
X73352522Y-50459880D01*
X73394219Y-50432177D01*
X73429741Y-50396902D01*
X73457735Y-50355400D01*
X73477134Y-50309250D01*
X73487200Y-50260212D01*
X73487550Y-50210152D01*
X73487550Y-54010152D01*
X73487381Y-52408369D01*
X73477657Y-52359261D01*
X73458580Y-52312978D01*
X73430877Y-52271281D01*
X73395602Y-52235759D01*
X73354100Y-52207765D01*
X73307950Y-52188366D01*
X73258912Y-52178300D01*
X73208852Y-52177950D01*
X72107069Y-52178119D01*
X72057961Y-52187843D01*
X72011678Y-52206920D01*
X71969981Y-52234623D01*
X71934459Y-52269898D01*
X71906465Y-52311400D01*
X71887066Y-52357550D01*
X71877000Y-52406588D01*
X71876650Y-52456648D01*
X71876748Y-53389530D01*
X70866000Y-53389530D01*
X70835469Y-53392523D01*
X70805026Y-53395187D01*
X70803354Y-53395672D01*
X70801617Y-53395843D01*
X70772301Y-53404694D01*
X70742902Y-53413235D01*
X70741352Y-53414038D01*
X70739687Y-53414541D01*
X70712671Y-53428905D01*
X70685467Y-53443007D01*
X70684105Y-53444094D01*
X70682567Y-53444912D01*
X70658865Y-53464242D01*
X70634910Y-53483366D01*
X70632483Y-53485759D01*
X70632435Y-53485799D01*
X70632398Y-53485843D01*
X70631615Y-53486616D01*
X69941302Y-54176928D01*
X65431146Y-54176928D01*
X65400615Y-54179921D01*
X65370172Y-54182585D01*
X65368500Y-54183070D01*
X65366763Y-54183241D01*
X65337447Y-54192092D01*
X65308048Y-54200633D01*
X65306498Y-54201436D01*
X65304833Y-54201939D01*
X65277836Y-54216293D01*
X65250614Y-54230404D01*
X65249250Y-54231492D01*
X65247713Y-54232310D01*
X65224016Y-54251636D01*
X65200056Y-54270764D01*
X65197629Y-54273157D01*
X65197581Y-54273197D01*
X65197544Y-54273241D01*
X65196761Y-54274014D01*
X63985754Y-55485020D01*
X62210845Y-55485020D01*
X61812641Y-55086815D01*
X61788963Y-55067366D01*
X61765526Y-55047700D01*
X61763996Y-55046859D01*
X61762651Y-55045754D01*
X61735718Y-55031312D01*
X61708836Y-55016534D01*
X61707170Y-55016005D01*
X61705638Y-55015184D01*
X61676433Y-55006255D01*
X61647172Y-54996973D01*
X61645435Y-54996778D01*
X61643773Y-54996270D01*
X61613368Y-54993181D01*
X61582884Y-54989762D01*
X61579476Y-54989738D01*
X61579413Y-54989732D01*
X61579353Y-54989737D01*
X61578256Y-54989730D01*
X61124799Y-54989730D01*
X61124799Y-52047042D01*
X61124799Y-51352958D01*
X61116236Y-51309714D01*
X61099437Y-51268957D01*
X61075042Y-51232239D01*
X61043979Y-51200959D01*
X61042557Y-51200000D01*
X61043979Y-51199041D01*
X61075042Y-51167761D01*
X61099437Y-51131043D01*
X61116236Y-51090286D01*
X61124799Y-51047042D01*
X61124790Y-50831127D01*
X61068593Y-50774930D01*
X60674930Y-50774930D01*
X60674930Y-51193593D01*
X60681337Y-51200000D01*
X60674930Y-51206407D01*
X60674930Y-51625070D01*
X61068593Y-51625070D01*
X61124790Y-51568873D01*
X61124799Y-51352958D01*
X61124799Y-52047042D01*
X61124790Y-51831127D01*
X61068593Y-51774930D01*
X60674930Y-51774930D01*
X60674930Y-52193593D01*
X60731127Y-52249790D01*
X60879528Y-52249947D01*
X60923610Y-52249640D01*
X60966793Y-52240776D01*
X61007432Y-52223693D01*
X61043979Y-52199041D01*
X61075042Y-52167761D01*
X61099437Y-52131043D01*
X61116236Y-52090286D01*
X61124799Y-52047042D01*
X61124799Y-54989730D01*
X60725699Y-54989730D01*
X60576980Y-54841010D01*
X60576980Y-53479710D01*
X60573991Y-53449228D01*
X60571324Y-53418736D01*
X60570836Y-53417059D01*
X60570667Y-53415327D01*
X60561824Y-53386039D01*
X60553275Y-53356613D01*
X60552472Y-53355064D01*
X60551969Y-53353397D01*
X60537605Y-53326382D01*
X60523504Y-53299178D01*
X60522415Y-53297814D01*
X60521598Y-53296277D01*
X60502296Y-53272611D01*
X60483145Y-53248620D01*
X60480745Y-53246187D01*
X60480711Y-53246145D01*
X60480671Y-53246112D01*
X60479895Y-53245325D01*
X60355711Y-53121141D01*
X60357283Y-53008546D01*
X60337062Y-52906422D01*
X60297390Y-52810170D01*
X60239778Y-52723457D01*
X60166420Y-52649586D01*
X60080112Y-52591370D01*
X59984139Y-52551027D01*
X59954678Y-52544979D01*
X59954678Y-52326984D01*
X59951684Y-52296453D01*
X59949839Y-52275368D01*
X59974139Y-52270557D01*
X60020422Y-52251480D01*
X60062119Y-52223777D01*
X60097641Y-52188502D01*
X60118345Y-52157807D01*
X60124958Y-52167761D01*
X60156021Y-52199041D01*
X60192568Y-52223693D01*
X60233207Y-52240776D01*
X60276390Y-52249640D01*
X60320472Y-52249947D01*
X60468873Y-52249790D01*
X60525070Y-52193593D01*
X60525070Y-51774930D01*
X60505070Y-51774930D01*
X60505070Y-51625070D01*
X60525070Y-51625070D01*
X60525070Y-51206407D01*
X60518663Y-51200000D01*
X60525070Y-51193593D01*
X60525070Y-50774930D01*
X60505070Y-50774930D01*
X60505070Y-50625070D01*
X60525070Y-50625070D01*
X60525070Y-50206407D01*
X60468873Y-50150210D01*
X60355344Y-50150089D01*
X60375115Y-50120780D01*
X60394514Y-50074630D01*
X60404580Y-50025592D01*
X60404930Y-49975532D01*
X60404766Y-49201082D01*
X60595233Y-49201082D01*
X60595070Y-49224468D01*
X60595239Y-50023811D01*
X60604963Y-50072919D01*
X60624040Y-50119202D01*
X60651743Y-50160899D01*
X60685970Y-50195366D01*
X60674930Y-50206407D01*
X60674930Y-50625070D01*
X61068593Y-50625070D01*
X61124790Y-50568873D01*
X61124799Y-50352958D01*
X61116236Y-50309714D01*
X61099437Y-50268957D01*
X61089622Y-50254184D01*
X61673111Y-50254061D01*
X61722219Y-50244337D01*
X61768502Y-50225260D01*
X61810199Y-50197557D01*
X61845721Y-50162282D01*
X61873715Y-50120780D01*
X61893114Y-50074630D01*
X61903180Y-50025592D01*
X61903530Y-49975532D01*
X61903366Y-49201082D01*
X64080468Y-49201082D01*
X64110949Y-49198093D01*
X64141442Y-49195426D01*
X64143118Y-49194938D01*
X64144851Y-49194769D01*
X64174138Y-49185926D01*
X64203565Y-49177377D01*
X64205113Y-49176574D01*
X64206781Y-49176071D01*
X64233795Y-49161707D01*
X64261000Y-49147606D01*
X64262363Y-49146517D01*
X64263901Y-49145700D01*
X64287566Y-49126398D01*
X64311558Y-49107247D01*
X64313990Y-49104847D01*
X64314033Y-49104813D01*
X64314065Y-49104773D01*
X64314853Y-49103997D01*
X65147973Y-48270876D01*
X66953762Y-48270876D01*
X66984243Y-48267887D01*
X67014736Y-48265220D01*
X67016412Y-48264732D01*
X67018145Y-48264563D01*
X67047432Y-48255720D01*
X67076859Y-48247171D01*
X67078407Y-48246368D01*
X67080075Y-48245865D01*
X67107089Y-48231501D01*
X67134294Y-48217400D01*
X67135657Y-48216311D01*
X67137195Y-48215494D01*
X67160860Y-48196192D01*
X67184852Y-48177041D01*
X67187284Y-48174641D01*
X67187327Y-48174607D01*
X67187359Y-48174567D01*
X67188147Y-48173791D01*
X67620864Y-47741074D01*
X71696452Y-47741074D01*
X71726933Y-47738085D01*
X71757426Y-47735418D01*
X71759102Y-47734930D01*
X71760835Y-47734761D01*
X71790122Y-47725918D01*
X71819549Y-47717369D01*
X71821097Y-47716566D01*
X71822765Y-47716063D01*
X71849779Y-47701699D01*
X71876984Y-47687598D01*
X71878347Y-47686509D01*
X71879885Y-47685692D01*
X71903550Y-47666390D01*
X71927542Y-47647239D01*
X71929974Y-47644839D01*
X71930017Y-47644805D01*
X71930049Y-47644765D01*
X71930837Y-47643989D01*
X72991217Y-46583608D01*
X73074153Y-46641250D01*
X73288916Y-46735078D01*
X73517814Y-46785405D01*
X73752128Y-46790313D01*
X73982933Y-46749616D01*
X74201437Y-46664863D01*
X74399318Y-46539284D01*
X74569039Y-46377661D01*
X74704135Y-46186151D01*
X74799460Y-45972048D01*
X74851383Y-45743507D01*
X74855121Y-45475817D01*
X74809599Y-45245916D01*
X74720289Y-45029234D01*
X74590594Y-44834026D01*
X74425452Y-44667728D01*
X74231154Y-44536672D01*
X74015102Y-44445852D01*
X73785523Y-44398726D01*
X73551164Y-44397090D01*
X73320950Y-44441006D01*
X73103650Y-44528801D01*
X72907542Y-44657130D01*
X72740094Y-44821107D01*
X72706470Y-44870213D01*
X72706470Y-44475299D01*
X73078583Y-44103185D01*
X73288916Y-44195078D01*
X73517814Y-44245405D01*
X73752128Y-44250313D01*
X73982933Y-44209616D01*
X74201437Y-44124863D01*
X74399318Y-43999284D01*
X74569039Y-43837661D01*
X74704135Y-43646151D01*
X74799460Y-43432048D01*
X74851383Y-43203507D01*
X74855121Y-42935817D01*
X74809599Y-42705916D01*
X74720289Y-42489234D01*
X74590594Y-42294026D01*
X74425452Y-42127728D01*
X74231154Y-41996672D01*
X74015102Y-41905852D01*
X73785523Y-41858726D01*
X73551164Y-41857090D01*
X73320950Y-41901006D01*
X73103650Y-41988801D01*
X72907542Y-42117130D01*
X72740094Y-42281107D01*
X72607685Y-42474485D01*
X72515359Y-42689899D01*
X72466632Y-42919142D01*
X72463360Y-43153485D01*
X72505667Y-43384000D01*
X72591943Y-43601907D01*
X72611686Y-43632543D01*
X72140615Y-44103615D01*
X72121166Y-44127292D01*
X72101500Y-44150730D01*
X72100659Y-44152259D01*
X72099554Y-44153605D01*
X72085112Y-44180537D01*
X72070334Y-44207420D01*
X72069805Y-44209085D01*
X72068984Y-44210618D01*
X72060055Y-44239822D01*
X72050773Y-44269084D01*
X72050578Y-44270820D01*
X72050070Y-44272483D01*
X72046981Y-44302887D01*
X72043562Y-44333372D01*
X72043538Y-44336779D01*
X72043532Y-44336843D01*
X72043537Y-44336902D01*
X72043530Y-44338000D01*
X72043530Y-45080912D01*
X71885452Y-44921728D01*
X71691154Y-44790672D01*
X71475102Y-44699852D01*
X71245523Y-44652726D01*
X71011164Y-44651090D01*
X70780950Y-44695006D01*
X70563650Y-44782801D01*
X70367542Y-44911130D01*
X70200094Y-45075107D01*
X70067685Y-45268485D01*
X69975359Y-45483899D01*
X69926632Y-45713142D01*
X69923360Y-45947485D01*
X69965667Y-46178000D01*
X70051943Y-46395907D01*
X70071686Y-46426543D01*
X70029700Y-46468530D01*
X69393617Y-46468530D01*
X69489039Y-46377661D01*
X69624135Y-46186151D01*
X69719460Y-45972048D01*
X69771383Y-45743507D01*
X69775121Y-45475817D01*
X69729599Y-45245916D01*
X69640289Y-45029234D01*
X69510594Y-44834026D01*
X69345452Y-44667728D01*
X69328761Y-44656470D01*
X70102000Y-44656470D01*
X70132481Y-44653481D01*
X70162974Y-44650814D01*
X70164650Y-44650326D01*
X70166383Y-44650157D01*
X70195670Y-44641314D01*
X70225097Y-44632765D01*
X70226645Y-44631962D01*
X70228313Y-44631459D01*
X70255327Y-44617095D01*
X70282532Y-44602994D01*
X70283895Y-44601905D01*
X70285433Y-44601088D01*
X70309098Y-44581786D01*
X70333090Y-44562635D01*
X70335522Y-44560235D01*
X70335565Y-44560201D01*
X70335597Y-44560161D01*
X70336385Y-44559385D01*
X70538583Y-44357185D01*
X70748916Y-44449078D01*
X70977814Y-44499405D01*
X71212128Y-44504313D01*
X71442933Y-44463616D01*
X71661437Y-44378863D01*
X71859318Y-44253284D01*
X72029039Y-44091661D01*
X72164135Y-43900151D01*
X72259460Y-43686048D01*
X72311383Y-43457507D01*
X72315121Y-43189817D01*
X72269599Y-42959916D01*
X72180289Y-42743234D01*
X72050594Y-42548026D01*
X71885452Y-42381728D01*
X71691154Y-42250672D01*
X71475102Y-42159852D01*
X71245523Y-42112726D01*
X71011164Y-42111090D01*
X70780950Y-42155006D01*
X70563650Y-42242801D01*
X70367542Y-42371130D01*
X70200094Y-42535107D01*
X70067685Y-42728485D01*
X69975359Y-42943899D01*
X69926632Y-43173142D01*
X69923360Y-43407485D01*
X69965667Y-43638000D01*
X70051943Y-43855907D01*
X70071686Y-43886543D01*
X69964700Y-43993530D01*
X69749936Y-43993530D01*
X69749936Y-43027040D01*
X69722612Y-42800293D01*
X69651767Y-42583171D01*
X69568831Y-42427191D01*
X69418936Y-42320031D01*
X69312969Y-42425998D01*
X69312969Y-42214064D01*
X69205809Y-42064169D01*
X69001826Y-41961448D01*
X68781776Y-41900303D01*
X68554040Y-41883064D01*
X68327293Y-41910388D01*
X68110171Y-41981233D01*
X67954191Y-42064169D01*
X67847031Y-42214064D01*
X68580000Y-42947033D01*
X69312969Y-42214064D01*
X69312969Y-42425998D01*
X68685967Y-43053000D01*
X69418936Y-43785969D01*
X69568831Y-43678809D01*
X69671552Y-43474826D01*
X69732697Y-43254776D01*
X69749936Y-43027040D01*
X69749936Y-43993530D01*
X69240339Y-43993530D01*
X69312969Y-43891936D01*
X68580000Y-43158967D01*
X68474033Y-43264934D01*
X68474033Y-43053000D01*
X67741064Y-42320031D01*
X67591169Y-42427191D01*
X67488448Y-42631174D01*
X67427303Y-42851224D01*
X67410064Y-43078960D01*
X67437388Y-43305707D01*
X67508233Y-43522829D01*
X67591169Y-43678809D01*
X67741064Y-43785969D01*
X68474033Y-43053000D01*
X68474033Y-43264934D01*
X67847031Y-43891936D01*
X67919660Y-43993530D01*
X67825000Y-43993530D01*
X67794518Y-43996518D01*
X67764026Y-43999186D01*
X67762349Y-43999673D01*
X67760617Y-43999843D01*
X67731329Y-44008685D01*
X67701903Y-44017235D01*
X67700354Y-44018037D01*
X67698687Y-44018541D01*
X67671672Y-44032904D01*
X67644468Y-44047006D01*
X67643104Y-44048094D01*
X67641567Y-44048912D01*
X67617870Y-44068238D01*
X67593910Y-44087366D01*
X67591478Y-44089763D01*
X67591435Y-44089799D01*
X67591401Y-44089839D01*
X67590615Y-44090615D01*
X67065615Y-44615615D01*
X67046166Y-44639292D01*
X67026500Y-44662730D01*
X67025659Y-44664259D01*
X67024554Y-44665605D01*
X67010112Y-44692537D01*
X66995334Y-44719420D01*
X66994805Y-44721085D01*
X66993984Y-44722618D01*
X66985055Y-44751822D01*
X66975773Y-44781084D01*
X66975578Y-44782820D01*
X66975070Y-44784483D01*
X66971981Y-44814887D01*
X66968562Y-44845372D01*
X66968538Y-44848779D01*
X66968532Y-44848843D01*
X66968537Y-44848902D01*
X66968530Y-44850000D01*
X66968530Y-45085947D01*
X66805452Y-44921728D01*
X66611154Y-44790672D01*
X66395102Y-44699852D01*
X66165523Y-44652726D01*
X65931164Y-44651090D01*
X65700950Y-44695006D01*
X65483650Y-44782801D01*
X65287542Y-44911130D01*
X65120094Y-45075107D01*
X65106470Y-45095004D01*
X65106470Y-44709300D01*
X65458584Y-44357185D01*
X65668916Y-44449078D01*
X65897814Y-44499405D01*
X66132128Y-44504313D01*
X66362933Y-44463616D01*
X66581437Y-44378863D01*
X66779318Y-44253284D01*
X66949039Y-44091661D01*
X67084135Y-43900151D01*
X67179460Y-43686048D01*
X67231383Y-43457507D01*
X67235121Y-43189817D01*
X67189599Y-42959916D01*
X67100289Y-42743234D01*
X66970594Y-42548026D01*
X66805452Y-42381728D01*
X66611154Y-42250672D01*
X66395102Y-42159852D01*
X66165523Y-42112726D01*
X65931164Y-42111090D01*
X65700950Y-42155006D01*
X65483650Y-42242801D01*
X65287542Y-42371130D01*
X65120094Y-42535107D01*
X64987685Y-42728485D01*
X64895359Y-42943899D01*
X64846632Y-43173142D01*
X64843360Y-43407485D01*
X64885667Y-43638000D01*
X64971943Y-43855907D01*
X64991686Y-43886543D01*
X64540615Y-44337615D01*
X64521166Y-44361292D01*
X64501500Y-44384730D01*
X64500659Y-44386259D01*
X64499554Y-44387605D01*
X64485112Y-44414537D01*
X64470334Y-44441420D01*
X64469805Y-44443085D01*
X64468984Y-44444618D01*
X64460055Y-44473822D01*
X64450773Y-44503084D01*
X64450578Y-44504820D01*
X64450070Y-44506483D01*
X64446981Y-44536887D01*
X64443562Y-44567372D01*
X64443538Y-44570779D01*
X64443532Y-44570843D01*
X64443537Y-44570902D01*
X64443530Y-44572000D01*
X64443530Y-44853496D01*
X64430594Y-44834026D01*
X64265452Y-44667728D01*
X64071154Y-44536672D01*
X63855102Y-44445852D01*
X63625523Y-44398726D01*
X63391164Y-44397090D01*
X63160950Y-44441006D01*
X62943650Y-44528801D01*
X62747542Y-44657130D01*
X62580094Y-44821107D01*
X62447685Y-45014485D01*
X62355359Y-45229899D01*
X62306632Y-45459142D01*
X62303360Y-45693485D01*
X62345667Y-45924000D01*
X62431943Y-46141907D01*
X62558900Y-46338907D01*
X62721704Y-46507495D01*
X62914153Y-46641250D01*
X63036519Y-46694710D01*
X63021900Y-46709330D01*
X61787478Y-46709330D01*
X61869039Y-46631661D01*
X62004135Y-46440151D01*
X62099460Y-46226048D01*
X62151383Y-45997507D01*
X62155121Y-45729817D01*
X62109599Y-45499916D01*
X62020289Y-45283234D01*
X61890594Y-45088026D01*
X61725452Y-44921728D01*
X61617208Y-44848716D01*
X61631090Y-44837635D01*
X61633522Y-44835235D01*
X61633565Y-44835201D01*
X61633597Y-44835161D01*
X61634385Y-44834385D01*
X62613412Y-43855356D01*
X62721704Y-43967495D01*
X62914153Y-44101250D01*
X63128916Y-44195078D01*
X63357814Y-44245405D01*
X63592128Y-44250313D01*
X63822933Y-44209616D01*
X64041437Y-44124863D01*
X64239318Y-43999284D01*
X64409039Y-43837661D01*
X64544135Y-43646151D01*
X64639460Y-43432048D01*
X64691383Y-43203507D01*
X64695121Y-42935817D01*
X64649599Y-42705916D01*
X64560289Y-42489234D01*
X64430594Y-42294026D01*
X64265452Y-42127728D01*
X64071154Y-41996672D01*
X63855102Y-41905852D01*
X63625523Y-41858726D01*
X63391164Y-41857090D01*
X63160950Y-41901006D01*
X62943650Y-41988801D01*
X62747542Y-42117130D01*
X62580094Y-42281107D01*
X62447685Y-42474485D01*
X62355359Y-42689899D01*
X62306632Y-42919142D01*
X62303360Y-43153485D01*
X62314895Y-43216335D01*
X62152482Y-43378747D01*
X62155121Y-43189817D01*
X62109599Y-42959916D01*
X62020289Y-42743234D01*
X61890594Y-42548026D01*
X61725452Y-42381728D01*
X61531154Y-42250672D01*
X61315102Y-42159852D01*
X61085523Y-42112726D01*
X60851164Y-42111090D01*
X60620950Y-42155006D01*
X60403650Y-42242801D01*
X60207542Y-42371130D01*
X60040094Y-42535107D01*
X59907685Y-42728485D01*
X59815359Y-42943899D01*
X59766632Y-43173142D01*
X59763360Y-43407485D01*
X59805667Y-43638000D01*
X59891943Y-43855907D01*
X60018900Y-44052907D01*
X60081963Y-44118210D01*
X59675240Y-44524934D01*
X57416835Y-44524934D01*
X57838583Y-44103185D01*
X58048916Y-44195078D01*
X58277814Y-44245405D01*
X58512128Y-44250313D01*
X58742933Y-44209616D01*
X58961437Y-44124863D01*
X59159318Y-43999284D01*
X59329039Y-43837661D01*
X59464135Y-43646151D01*
X59559460Y-43432048D01*
X59611383Y-43203507D01*
X59615121Y-42935817D01*
X59569599Y-42705916D01*
X59480289Y-42489234D01*
X59350594Y-42294026D01*
X59185452Y-42127728D01*
X58991154Y-41996672D01*
X58775102Y-41905852D01*
X58545523Y-41858726D01*
X58311164Y-41857090D01*
X58080950Y-41901006D01*
X57863650Y-41988801D01*
X57667542Y-42117130D01*
X57500094Y-42281107D01*
X57367685Y-42474485D01*
X57275359Y-42689899D01*
X57226632Y-42919142D01*
X57223360Y-43153485D01*
X57265667Y-43384000D01*
X57351943Y-43601907D01*
X57371686Y-43632543D01*
X56784098Y-44220132D01*
X56654131Y-44220132D01*
X56789039Y-44091661D01*
X56924135Y-43900151D01*
X57019460Y-43686048D01*
X57071383Y-43457507D01*
X57075121Y-43189817D01*
X57029599Y-42959916D01*
X56940289Y-42743234D01*
X56810594Y-42548026D01*
X56645452Y-42381728D01*
X56451154Y-42250672D01*
X56235102Y-42159852D01*
X56005523Y-42112726D01*
X55771164Y-42111090D01*
X55540950Y-42155006D01*
X55323650Y-42242801D01*
X55127542Y-42371130D01*
X54960094Y-42535107D01*
X54827685Y-42728485D01*
X54735359Y-42943899D01*
X54686632Y-43173142D01*
X54683360Y-43407485D01*
X54725667Y-43638000D01*
X54811943Y-43855907D01*
X54831686Y-43886543D01*
X54802900Y-43915330D01*
X54289944Y-43915330D01*
X54259413Y-43918323D01*
X54228970Y-43920987D01*
X54227298Y-43921472D01*
X54225561Y-43921643D01*
X54196245Y-43930494D01*
X54166846Y-43939035D01*
X54165296Y-43939838D01*
X54163631Y-43940341D01*
X54136655Y-43954684D01*
X54113607Y-43966631D01*
X54249039Y-43837661D01*
X54384135Y-43646151D01*
X54479460Y-43432048D01*
X54531383Y-43203507D01*
X54535121Y-42935817D01*
X54489599Y-42705916D01*
X54400289Y-42489234D01*
X54270594Y-42294026D01*
X54105452Y-42127728D01*
X53911154Y-41996672D01*
X53695102Y-41905852D01*
X53465523Y-41858726D01*
X53231164Y-41857090D01*
X53000950Y-41901006D01*
X52783650Y-41988801D01*
X52587542Y-42117130D01*
X52420094Y-42281107D01*
X52287685Y-42474485D01*
X52195359Y-42689899D01*
X52146632Y-42919142D01*
X52143360Y-43153485D01*
X52185667Y-43384000D01*
X52271943Y-43601907D01*
X52398900Y-43798907D01*
X52561704Y-43967495D01*
X52754153Y-44101250D01*
X52968916Y-44195078D01*
X52998574Y-44201599D01*
X52078695Y-45121479D01*
X52059246Y-45145156D01*
X52039580Y-45168594D01*
X52038739Y-45170123D01*
X52037634Y-45171469D01*
X52023192Y-45198401D01*
X52008414Y-45225284D01*
X52007885Y-45226949D01*
X52007064Y-45228482D01*
X51998135Y-45257686D01*
X51988853Y-45286948D01*
X51988658Y-45288684D01*
X51988623Y-45288797D01*
X51152120Y-44452294D01*
X51341437Y-44378863D01*
X51539318Y-44253284D01*
X51709039Y-44091661D01*
X51844135Y-43900151D01*
X51939460Y-43686048D01*
X51991383Y-43457507D01*
X51995121Y-43189817D01*
X51949599Y-42959916D01*
X51860289Y-42743234D01*
X51730594Y-42548026D01*
X51565452Y-42381728D01*
X51371154Y-42250672D01*
X51155102Y-42159852D01*
X50925523Y-42112726D01*
X50691164Y-42111090D01*
X50460950Y-42155006D01*
X50243650Y-42242801D01*
X50047542Y-42371130D01*
X49880094Y-42535107D01*
X49747685Y-42728485D01*
X49655359Y-42943899D01*
X49606632Y-43173142D01*
X49603360Y-43407485D01*
X49637541Y-43593728D01*
X49327475Y-43593728D01*
X49399460Y-43432048D01*
X49451383Y-43203507D01*
X49455121Y-42935817D01*
X49409599Y-42705916D01*
X49320289Y-42489234D01*
X49190594Y-42294026D01*
X49025452Y-42127728D01*
X48831154Y-41996672D01*
X48615102Y-41905852D01*
X48385523Y-41858726D01*
X48151164Y-41857090D01*
X47920950Y-41901006D01*
X47703650Y-41988801D01*
X47507542Y-42117130D01*
X47340094Y-42281107D01*
X47207685Y-42474485D01*
X47115359Y-42689899D01*
X47066632Y-42919142D01*
X47063360Y-43153485D01*
X47105667Y-43384000D01*
X47191943Y-43601907D01*
X47318900Y-43798907D01*
X47415105Y-43898530D01*
X46780300Y-43898530D01*
X46769614Y-43887844D01*
X46859460Y-43686048D01*
X46911383Y-43457507D01*
X46915121Y-43189817D01*
X46869599Y-42959916D01*
X46780289Y-42743234D01*
X46650594Y-42548026D01*
X46485452Y-42381728D01*
X46291154Y-42250672D01*
X46075102Y-42159852D01*
X45845523Y-42112726D01*
X45611164Y-42111090D01*
X45380950Y-42155006D01*
X45163650Y-42242801D01*
X44967542Y-42371130D01*
X44800094Y-42535107D01*
X44667685Y-42728485D01*
X44575359Y-42943899D01*
X44526632Y-43173142D01*
X44524088Y-43355318D01*
X44371395Y-43202625D01*
X44375121Y-42935817D01*
X44329599Y-42705916D01*
X44240289Y-42489234D01*
X44110594Y-42294026D01*
X43945452Y-42127728D01*
X43751154Y-41996672D01*
X43535102Y-41905852D01*
X43305523Y-41858726D01*
X43071164Y-41857090D01*
X42840950Y-41901006D01*
X42623650Y-41988801D01*
X42427542Y-42117130D01*
X42260094Y-42281107D01*
X42127685Y-42474485D01*
X42035359Y-42689899D01*
X41986632Y-42919142D01*
X41983360Y-43153485D01*
X42025667Y-43384000D01*
X42111943Y-43601907D01*
X42238900Y-43798907D01*
X42401704Y-43967495D01*
X42403193Y-43968530D01*
X41770300Y-43968530D01*
X41689614Y-43887844D01*
X41779460Y-43686048D01*
X41831383Y-43457507D01*
X41835121Y-43189817D01*
X41789599Y-42959916D01*
X41700289Y-42743234D01*
X41570594Y-42548026D01*
X41405452Y-42381728D01*
X41211154Y-42250672D01*
X40995102Y-42159852D01*
X40765523Y-42112726D01*
X40531164Y-42111090D01*
X40300950Y-42155006D01*
X40083650Y-42242801D01*
X39887542Y-42371130D01*
X39720094Y-42535107D01*
X39587685Y-42728485D01*
X39495359Y-42943899D01*
X39446632Y-43173142D01*
X39443360Y-43407485D01*
X39485667Y-43638000D01*
X39571943Y-43855907D01*
X39698900Y-44052907D01*
X39861704Y-44221495D01*
X40054153Y-44355250D01*
X40268916Y-44449078D01*
X40497814Y-44499405D01*
X40732128Y-44504313D01*
X40962933Y-44463616D01*
X41181437Y-44378863D01*
X41219155Y-44354925D01*
X41398615Y-44534385D01*
X41422292Y-44553833D01*
X41445730Y-44573500D01*
X41447259Y-44574340D01*
X41448605Y-44575446D01*
X41475556Y-44589897D01*
X41502420Y-44604666D01*
X41504083Y-44605193D01*
X41505617Y-44606016D01*
X41534837Y-44614949D01*
X41564084Y-44624227D01*
X41565820Y-44624421D01*
X41567483Y-44624930D01*
X41597887Y-44628018D01*
X41628372Y-44631438D01*
X41631779Y-44631461D01*
X41631843Y-44631468D01*
X41631902Y-44631462D01*
X41633000Y-44631470D01*
X42694083Y-44631470D01*
X42544191Y-44711169D01*
X42437031Y-44861064D01*
X43170000Y-45594033D01*
X43902969Y-44861064D01*
X43795809Y-44711169D01*
X43637543Y-44631470D01*
X44431644Y-44631470D01*
X44874163Y-45073988D01*
X44897810Y-45093412D01*
X44921278Y-45113104D01*
X44922807Y-45113944D01*
X44924153Y-45115050D01*
X44951104Y-45129501D01*
X44977968Y-45144270D01*
X44979631Y-45144797D01*
X44981165Y-45145620D01*
X45010385Y-45154553D01*
X45039632Y-45163831D01*
X45041368Y-45164025D01*
X45043031Y-45164534D01*
X45073390Y-45167617D01*
X45103920Y-45171042D01*
X45107338Y-45171065D01*
X45107391Y-45171071D01*
X45107440Y-45171066D01*
X45108548Y-45171074D01*
X46120528Y-45171074D01*
X46091540Y-45238707D01*
X46069895Y-45340539D01*
X46069139Y-45394674D01*
X45724969Y-45394719D01*
X45675861Y-45404443D01*
X45629578Y-45423520D01*
X45587881Y-45451223D01*
X45552359Y-45486498D01*
X45524365Y-45528000D01*
X45504966Y-45574150D01*
X45494900Y-45623188D01*
X45494550Y-45673248D01*
X45494719Y-46975031D01*
X45504443Y-47024139D01*
X45523520Y-47070422D01*
X45551223Y-47112119D01*
X45586498Y-47147641D01*
X45628000Y-47175635D01*
X45674150Y-47195034D01*
X45723188Y-47205100D01*
X45773248Y-47205450D01*
X47075031Y-47205281D01*
X47124139Y-47195557D01*
X47170422Y-47176480D01*
X47212119Y-47148777D01*
X47247641Y-47113502D01*
X47275635Y-47072000D01*
X47295034Y-47025850D01*
X47305100Y-46976812D01*
X47305450Y-46926752D01*
X47305281Y-45624969D01*
X47295557Y-45575861D01*
X47276480Y-45529578D01*
X47248777Y-45487881D01*
X47213502Y-45452359D01*
X47172000Y-45424365D01*
X47130062Y-45406736D01*
X47130883Y-45347946D01*
X47110662Y-45245822D01*
X47079853Y-45171074D01*
X49209136Y-45171074D01*
X49482250Y-45444187D01*
X49482250Y-45603407D01*
X49463625Y-45631020D01*
X49444226Y-45677170D01*
X49434160Y-45726208D01*
X49433810Y-45776268D01*
X49433839Y-46036907D01*
X49382739Y-46015427D01*
X49280759Y-45994493D01*
X49176654Y-45993766D01*
X49074391Y-46013274D01*
X48977864Y-46052273D01*
X48890751Y-46109279D01*
X48816370Y-46182118D01*
X48757553Y-46268019D01*
X48726106Y-46341387D01*
X48723777Y-46337881D01*
X48688502Y-46302359D01*
X48657807Y-46281654D01*
X48667761Y-46275042D01*
X48699041Y-46243979D01*
X48723693Y-46207432D01*
X48740776Y-46166793D01*
X48749640Y-46123610D01*
X48749947Y-46079528D01*
X48749947Y-45520472D01*
X48749640Y-45476390D01*
X48740776Y-45433207D01*
X48723693Y-45392568D01*
X48699041Y-45356021D01*
X48667761Y-45324958D01*
X48631043Y-45300563D01*
X48590286Y-45283764D01*
X48547042Y-45275201D01*
X48331127Y-45275210D01*
X48274930Y-45331407D01*
X48274930Y-45725070D01*
X48693593Y-45725070D01*
X48749790Y-45668873D01*
X48749947Y-45520472D01*
X48749947Y-46079528D01*
X48749790Y-45931127D01*
X48693593Y-45874930D01*
X48274930Y-45874930D01*
X48274930Y-45894930D01*
X48125070Y-45894930D01*
X48125070Y-45874930D01*
X48125070Y-45725070D01*
X48125070Y-45331407D01*
X48068873Y-45275210D01*
X47852958Y-45275201D01*
X47809714Y-45283764D01*
X47768957Y-45300563D01*
X47732239Y-45324958D01*
X47700959Y-45356021D01*
X47676307Y-45392568D01*
X47659224Y-45433207D01*
X47650360Y-45476390D01*
X47650053Y-45520472D01*
X47650210Y-45668873D01*
X47706407Y-45725070D01*
X48125070Y-45725070D01*
X48125070Y-45874930D01*
X47706407Y-45874930D01*
X47650210Y-45931127D01*
X47650053Y-46079528D01*
X47650360Y-46123610D01*
X47659224Y-46166793D01*
X47676307Y-46207432D01*
X47700959Y-46243979D01*
X47732239Y-46275042D01*
X47742263Y-46281701D01*
X47712881Y-46301223D01*
X47677359Y-46336498D01*
X47649365Y-46378000D01*
X47629966Y-46424150D01*
X47619900Y-46473188D01*
X47619550Y-46523248D01*
X47619719Y-47125031D01*
X47629443Y-47174139D01*
X47648520Y-47220422D01*
X47676223Y-47262119D01*
X47711498Y-47297641D01*
X47753000Y-47325635D01*
X47799150Y-47345034D01*
X47848188Y-47355100D01*
X47859190Y-47355176D01*
X47859190Y-47671937D01*
X47489989Y-47671979D01*
X47440881Y-47681703D01*
X47394598Y-47700780D01*
X47352901Y-47728483D01*
X47317379Y-47763758D01*
X47289385Y-47805260D01*
X47269986Y-47851410D01*
X47259920Y-47900448D01*
X47259570Y-47950508D01*
X47259739Y-48201211D01*
X47269463Y-48250319D01*
X47288540Y-48296602D01*
X47311636Y-48331365D01*
X47299244Y-48360847D01*
X47290380Y-48404030D01*
X47290258Y-48421488D01*
X46934385Y-48065615D01*
X46910707Y-48046166D01*
X46887270Y-48026500D01*
X46885740Y-48025659D01*
X46884395Y-48024554D01*
X46857462Y-48010112D01*
X46855296Y-48008922D01*
X46855281Y-47949969D01*
X46845557Y-47900861D01*
X46826480Y-47854578D01*
X46798777Y-47812881D01*
X46763502Y-47777359D01*
X46722000Y-47749365D01*
X46675850Y-47729966D01*
X46626812Y-47719900D01*
X46576752Y-47719550D01*
X45974969Y-47719719D01*
X45925861Y-47729443D01*
X45879578Y-47748520D01*
X45837881Y-47776223D01*
X45802359Y-47811498D01*
X45800091Y-47814859D01*
X45798777Y-47812881D01*
X45763502Y-47777359D01*
X45722000Y-47749365D01*
X45675850Y-47729966D01*
X45626812Y-47719900D01*
X45576752Y-47719550D01*
X44974969Y-47719719D01*
X44925861Y-47729443D01*
X44879578Y-47748520D01*
X44837881Y-47776223D01*
X44802359Y-47811498D01*
X44774365Y-47853000D01*
X44754966Y-47899150D01*
X44744900Y-47948188D01*
X44744550Y-47998248D01*
X44744645Y-48366584D01*
X44515615Y-48595615D01*
X44496166Y-48619292D01*
X44476500Y-48642730D01*
X44475659Y-48644259D01*
X44474554Y-48645605D01*
X44460112Y-48672537D01*
X44445334Y-48699420D01*
X44444805Y-48701085D01*
X44443984Y-48702618D01*
X44435055Y-48731822D01*
X44425773Y-48761084D01*
X44425578Y-48762820D01*
X44425070Y-48764483D01*
X44421981Y-48794887D01*
X44418562Y-48825372D01*
X44418538Y-48828779D01*
X44418532Y-48828843D01*
X44418537Y-48828902D01*
X44418530Y-48830000D01*
X44418530Y-49212700D01*
X44339936Y-49291293D01*
X44339936Y-45674040D01*
X44312612Y-45447293D01*
X44241767Y-45230171D01*
X44158831Y-45074191D01*
X44008936Y-44967031D01*
X43275967Y-45700000D01*
X44008936Y-46432969D01*
X44158831Y-46325809D01*
X44261552Y-46121826D01*
X44322697Y-45901776D01*
X44339936Y-45674040D01*
X44339936Y-49291293D01*
X43905701Y-49725528D01*
X43905541Y-47725879D01*
X43902969Y-47712889D01*
X43902969Y-46538936D01*
X43170000Y-45805967D01*
X43064033Y-45911934D01*
X43064033Y-45700000D01*
X42331064Y-44967031D01*
X42181169Y-45074191D01*
X42078448Y-45278174D01*
X42017303Y-45498224D01*
X42000064Y-45725960D01*
X42027388Y-45952707D01*
X42098233Y-46169829D01*
X42181169Y-46325809D01*
X42331064Y-46432969D01*
X43064033Y-45700000D01*
X43064033Y-45911934D01*
X42437031Y-46538936D01*
X42544191Y-46688831D01*
X42748174Y-46791552D01*
X42968224Y-46852697D01*
X43195960Y-46869936D01*
X43422707Y-46842612D01*
X43639829Y-46771767D01*
X43795809Y-46688831D01*
X43902969Y-46538936D01*
X43902969Y-47712889D01*
X43895817Y-47676771D01*
X43876740Y-47630488D01*
X43849037Y-47588791D01*
X43813762Y-47553269D01*
X43772260Y-47525275D01*
X43726110Y-47505876D01*
X43677072Y-47495810D01*
X43627012Y-47495460D01*
X42025029Y-47495629D01*
X41975921Y-47505353D01*
X41929638Y-47524430D01*
X41887941Y-47552133D01*
X41852419Y-47587408D01*
X41824425Y-47628910D01*
X41805026Y-47675060D01*
X41794960Y-47724098D01*
X41794610Y-47774158D01*
X41794770Y-49768530D01*
X41730000Y-49768530D01*
X41699469Y-49771523D01*
X41669026Y-49774187D01*
X41667354Y-49774672D01*
X41665617Y-49774843D01*
X41636301Y-49783694D01*
X41606902Y-49792235D01*
X41605352Y-49793038D01*
X41603687Y-49793541D01*
X41576711Y-49807884D01*
X41549467Y-49822006D01*
X41548101Y-49823096D01*
X41546567Y-49823912D01*
X41522892Y-49843220D01*
X41505252Y-49857302D01*
X41505241Y-49726129D01*
X41495517Y-49677021D01*
X41476440Y-49630738D01*
X41448737Y-49589041D01*
X41413462Y-49553519D01*
X41371960Y-49525525D01*
X41325810Y-49506126D01*
X41276772Y-49496060D01*
X41226712Y-49495710D01*
X39325009Y-49495879D01*
X39275901Y-49505603D01*
X39229618Y-49524680D01*
X39187921Y-49552383D01*
X39167270Y-49572890D01*
X39167270Y-49277888D01*
X39186538Y-49297291D01*
X39228040Y-49325285D01*
X39274190Y-49344684D01*
X39323228Y-49354750D01*
X39373288Y-49355100D01*
X41274991Y-49354931D01*
X41324099Y-49345207D01*
X41370382Y-49326130D01*
X41412079Y-49298427D01*
X41447601Y-49263152D01*
X41475595Y-49221650D01*
X41494994Y-49175500D01*
X41505060Y-49126462D01*
X41505410Y-49076402D01*
X41505241Y-46974039D01*
X41495517Y-46924931D01*
X41476440Y-46878648D01*
X41448737Y-46836951D01*
X41413462Y-46801429D01*
X41371960Y-46773435D01*
X41325810Y-46754036D01*
X41276772Y-46743970D01*
X41226712Y-46743620D01*
X41215939Y-46743620D01*
X41369318Y-46646284D01*
X41539039Y-46484661D01*
X41674135Y-46293151D01*
X41769460Y-46079048D01*
X41821383Y-45850507D01*
X41825121Y-45582817D01*
X41779599Y-45352916D01*
X41690289Y-45136234D01*
X41560594Y-44941026D01*
X41395452Y-44774728D01*
X41201154Y-44643672D01*
X40985102Y-44552852D01*
X40755523Y-44505726D01*
X40521164Y-44504090D01*
X40290950Y-44548006D01*
X40073650Y-44635801D01*
X39877542Y-44764130D01*
X39710094Y-44928107D01*
X39577685Y-45121485D01*
X39485359Y-45336899D01*
X39436632Y-45566142D01*
X39433360Y-45800485D01*
X39475667Y-46031000D01*
X39561943Y-46248907D01*
X39688900Y-46445907D01*
X39851704Y-46614495D01*
X40037643Y-46743725D01*
X39325009Y-46743789D01*
X39275901Y-46753513D01*
X39229618Y-46772590D01*
X39187921Y-46800293D01*
X39167270Y-46820800D01*
X39167270Y-42203457D01*
X39663927Y-41706800D01*
X74636072Y-41706800D01*
X75133200Y-42203927D01*
X75133200Y-48527150D01*
X75108942Y-48490639D01*
X75077879Y-48459359D01*
X75041332Y-48434707D01*
X75000693Y-48417624D01*
X74957510Y-48408760D01*
X74913428Y-48408453D01*
X74515027Y-48408610D01*
X74458830Y-48464807D01*
X74458830Y-49358470D01*
X74478830Y-49358470D01*
X74478830Y-49508330D01*
X74458830Y-49508330D01*
X74458830Y-50401993D01*
X74515027Y-50458190D01*
X74913428Y-50458347D01*
X74957510Y-50458040D01*
X75000693Y-50449176D01*
X75041332Y-50432093D01*
X75077879Y-50407441D01*
X75108942Y-50376161D01*
X75133200Y-50339649D01*
X75133200Y-52329208D01*
X75132437Y-52327357D01*
X75108042Y-52290639D01*
X75076979Y-52259359D01*
X75040432Y-52234707D01*
X74999793Y-52217624D01*
X74956610Y-52208760D01*
X74912528Y-52208453D01*
X74514127Y-52208610D01*
X74457930Y-52264807D01*
X74457930Y-53158470D01*
X74477930Y-53158470D01*
X74477930Y-53308330D01*
X74457930Y-53308330D01*
X74457930Y-54201993D01*
X74514127Y-54258190D01*
X74912528Y-54258347D01*
X74956610Y-54258040D01*
X74999793Y-54249176D01*
X75040432Y-54232093D01*
X75076979Y-54207441D01*
X75108042Y-54176161D01*
X75132437Y-54139443D01*
X75133200Y-54137591D01*
X75133200Y-59396073D01*
M02*
