<?xml version="1.0"?>
<svg xmlns="http://www.w3.org/2000/svg" xmlns:xlink="http://www.w3.org/1999/xlink" version="1.1" width="200" height="150" viewBox="2000 4000 1250 1250" stroke-linecap="round" stroke-linejoin="round" stroke-width="0" stroke="#000" class="Board">
  <defs>
    <g fill="currentColor" stroke="currentColor" id="top-out_0">
      <path stroke-width="0" fill="#fff" d="M 2100 4000 L 3150 4000 A 100 100 0 0 1 3250 4100 L 3250 5150 A 100 100 0 0 1 3150 5250 L 2100 5250 A 100 100 0 0 1 2000 5150 L 2000 4100 A 100 100 0 0 1 2100 4000" fill-rule="evenodd"/>
    </g>
    <rect x="-35.5" y="-15" width="71" height="30" id="tool-D10-pad-1592"/>
    <rect x="-51.2" y="-39.35" width="102.4" height="78.7" id="tool-D11-pad-1593"/>
    <rect x="-26.6" y="-7.85" width="53.2" height="15.7" id="tool-D12-pad-1594"/>
    <rect x="-37.4" y="-31.5" width="74.8" height="63" id="tool-D13-pad-1595"/>
    <rect x="-37.4" y="-23.6" width="74.8" height="47.2" id="tool-D14-pad-1596"/>
    <rect x="-39.35" y="-41.35" width="78.7" height="82.7" id="tool-D15-pad-1597"/>
    <rect x="-7.5" y="-10" width="15" height="20" id="tool-D16-pad-1598"/>
    <rect x="-14.55" y="-36.4" width="29.1" height="72.8" id="tool-D17-pad-1599"/>
    <rect x="-39.35" y="-7.85" width="78.7" height="15.7" id="tool-D18-pad-1600"/>
    <rect x="-5.9" y="-23.6" width="11.8" height="47.2" id="tool-D19-pad-1601"/>
    <rect x="-23.6" y="-5.9" width="47.2" height="11.8" id="tool-D20-pad-1602"/>
    <rect x="-11.8" y="-4.9" width="23.6" height="9.8" id="tool-D21-pad-1603"/>
    <rect x="-14.75" y="-23.6" width="29.5" height="47.2" id="tool-D22-pad-1604"/>
    <rect x="-10" y="-7.5" width="20" height="15" id="tool-D23-pad-1605"/>
    <rect x="-15" y="-12.5" width="30" height="25" id="tool-D24-pad-1606"/>
    <rect x="-16.75" y="-6.9" width="33.5" height="13.8" id="tool-D25-pad-1607"/>
    <rect x="-6.9" y="-15.75" width="13.8" height="31.5" id="tool-D26-pad-1608"/>
    <rect x="-12.5" y="-15" width="25" height="30" id="tool-D27-pad-1609"/>
    <rect x="-5.9" y="-8.25" width="11.8" height="16.5" id="tool-D28-pad-1610"/>
    <rect x="-8.25" y="-5.9" width="16.5" height="11.8" id="tool-D29-pad-1611"/>
    <circle cx="0" cy="0" r="21.65" id="tool-D38-pad-1620"/>
    <circle cx="0" cy="0" r="29.55" id="tool-D39-pad-1621"/>
    <rect x="-29.55" y="-29.55" width="59.1" height="59.1" id="tool-D40-pad-1622"/>
    <circle cx="0" cy="0" r="17.7" id="tool-D41-pad-1623"/>
    <circle cx="0" cy="0" r="62.5" id="tool-D42-pad-1624"/>
    <circle cx="0" cy="0" r="9" id="tool-D43-pad-1625"/>
    <g fill="currentColor" stroke="currentColor" id="top-tcu_1">
      <use x="2263" y="4258.2" xlink:href="#tool-D10-pad-1592"/>
      <use x="2263" y="4307.4" xlink:href="#tool-D10-pad-1592"/>
      <use x="2263" y="4356.6" xlink:href="#tool-D10-pad-1592"/>
      <use x="2263" y="4405.8" xlink:href="#tool-D10-pad-1592"/>
      <use x="2063" y="4158" xlink:href="#tool-D11-pad-1593"/>
      <use x="2063" y="4506" xlink:href="#tool-D11-pad-1593"/>
      <use x="2183" y="4878.2" xlink:href="#tool-D12-pad-1594"/>
      <use x="2183" y="4852.6" xlink:href="#tool-D12-pad-1594"/>
      <use x="2183" y="4827" xlink:href="#tool-D12-pad-1594"/>
      <use x="2183" y="4801.4" xlink:href="#tool-D12-pad-1594"/>
      <use x="2183" y="4775.8" xlink:href="#tool-D12-pad-1594"/>
      <use x="2077.7" y="4665.6" xlink:href="#tool-D13-pad-1595"/>
      <use x="2077.7" y="4988.4" xlink:href="#tool-D13-pad-1595"/>
      <use x="2077.7" y="4860.5" xlink:href="#tool-D14-pad-1596"/>
      <use x="2077.7" y="4793.5" xlink:href="#tool-D14-pad-1596"/>
      <use x="2170.2" y="4949" xlink:href="#tool-D15-pad-1597"/>
      <use x="2170.2" y="4705" xlink:href="#tool-D15-pad-1597"/>
      <use x="2926" y="4679" xlink:href="#tool-D16-pad-1598"/>
      <use x="2886" y="4679" xlink:href="#tool-D16-pad-1598"/>
      <use x="2371" y="4264" xlink:href="#tool-D16-pad-1598"/>
      <use x="2411" y="4264" xlink:href="#tool-D16-pad-1598"/>
      <use x="2472" y="4263" xlink:href="#tool-D16-pad-1598"/>
      <use x="2512" y="4263" xlink:href="#tool-D16-pad-1598"/>
      <use x="2371" y="4304" xlink:href="#tool-D16-pad-1598"/>
      <use x="2411" y="4304" xlink:href="#tool-D16-pad-1598"/>
      <use x="2970" y="4150" xlink:href="#tool-D16-pad-1598"/>
      <use x="2930" y="4150" xlink:href="#tool-D16-pad-1598"/>
      <use x="2670" y="4405" xlink:href="#tool-D16-pad-1598"/>
      <use x="2630" y="4405" xlink:href="#tool-D16-pad-1598"/>
      <use x="2434" y="4855" xlink:href="#tool-D16-pad-1598"/>
      <use x="2474" y="4855" xlink:href="#tool-D16-pad-1598"/>
      <use x="2330" y="4537" xlink:href="#tool-D16-pad-1598"/>
      <use x="2290" y="4537" xlink:href="#tool-D16-pad-1598"/>
      <use x="2330" y="4576" xlink:href="#tool-D16-pad-1598"/>
      <use x="2290" y="4576" xlink:href="#tool-D16-pad-1598"/>
      <use x="2970" y="4850" xlink:href="#tool-D16-pad-1598"/>
      <use x="2930" y="4850" xlink:href="#tool-D16-pad-1598"/>
      <use x="3132" y="4619" xlink:href="#tool-D16-pad-1598"/>
      <use x="3172" y="4619" xlink:href="#tool-D16-pad-1598"/>
      <use x="2330" y="4621" xlink:href="#tool-D16-pad-1598"/>
      <use x="2290" y="4621" xlink:href="#tool-D16-pad-1598"/>
      <use x="2522" y="4855" xlink:href="#tool-D16-pad-1598"/>
      <use x="2562" y="4855" xlink:href="#tool-D16-pad-1598"/>
      <use x="2817" y="4526" xlink:href="#tool-D16-pad-1598"/>
      <use x="2777" y="4526" xlink:href="#tool-D16-pad-1598"/>
      <use x="2817" y="4561" xlink:href="#tool-D16-pad-1598"/>
      <use x="2777" y="4561" xlink:href="#tool-D16-pad-1598"/>
      <use x="2817" y="4596" xlink:href="#tool-D16-pad-1598"/>
      <use x="2777" y="4596" xlink:href="#tool-D16-pad-1598"/>
      <use x="2305" y="4986.3" xlink:href="#tool-D17-pad-1599"/>
      <use x="2305" y="5153.7" xlink:href="#tool-D17-pad-1599"/>
      <use x="2355" y="4986.3" xlink:href="#tool-D17-pad-1599"/>
      <use x="2355" y="5153.7" xlink:href="#tool-D17-pad-1599"/>
      <use x="2405" y="4986.3" xlink:href="#tool-D17-pad-1599"/>
      <use x="2405" y="5153.7" xlink:href="#tool-D17-pad-1599"/>
      <use x="2455" y="4986.3" xlink:href="#tool-D17-pad-1599"/>
      <use x="2505" y="4986.3" xlink:href="#tool-D17-pad-1599"/>
      <use x="2455" y="5153.7" xlink:href="#tool-D17-pad-1599"/>
      <use x="2505" y="5153.7" xlink:href="#tool-D17-pad-1599"/>
      <use x="2295" y="4762.2" xlink:href="#tool-D18-pad-1600"/>
      <use x="2295" y="4715" xlink:href="#tool-D18-pad-1600"/>
      <use x="2295" y="4667.8" xlink:href="#tool-D18-pad-1600"/>
      <use x="2443.7" y="4797.3" xlink:href="#tool-D19-pad-1601"/>
      <use x="2463.4" y="4797.3" xlink:href="#tool-D19-pad-1601"/>
      <use x="2483.1" y="4797.3" xlink:href="#tool-D19-pad-1601"/>
      <use x="2502.8" y="4797.3" xlink:href="#tool-D19-pad-1601"/>
      <use x="2522.5" y="4797.3" xlink:href="#tool-D19-pad-1601"/>
      <use x="2542.2" y="4797.3" xlink:href="#tool-D19-pad-1601"/>
      <use x="2561.8" y="4797.3" xlink:href="#tool-D19-pad-1601"/>
      <use x="2581.5" y="4797.3" xlink:href="#tool-D19-pad-1601"/>
      <use x="2601.2" y="4797.3" xlink:href="#tool-D19-pad-1601"/>
      <use x="2620.9" y="4797.3" xlink:href="#tool-D19-pad-1601"/>
      <use x="2640.6" y="4797.3" xlink:href="#tool-D19-pad-1601"/>
      <use x="2660.3" y="4797.3" xlink:href="#tool-D19-pad-1601"/>
      <use x="2443.7" y="4462.7" xlink:href="#tool-D19-pad-1601"/>
      <use x="2463.4" y="4462.7" xlink:href="#tool-D19-pad-1601"/>
      <use x="2483.1" y="4462.7" xlink:href="#tool-D19-pad-1601"/>
      <use x="2502.8" y="4462.7" xlink:href="#tool-D19-pad-1601"/>
      <use x="2522.5" y="4462.7" xlink:href="#tool-D19-pad-1601"/>
      <use x="2542.2" y="4462.7" xlink:href="#tool-D19-pad-1601"/>
      <use x="2561.8" y="4462.7" xlink:href="#tool-D19-pad-1601"/>
      <use x="2581.5" y="4462.7" xlink:href="#tool-D19-pad-1601"/>
      <use x="2601.2" y="4462.7" xlink:href="#tool-D19-pad-1601"/>
      <use x="2620.9" y="4462.7" xlink:href="#tool-D19-pad-1601"/>
      <use x="2640.6" y="4462.7" xlink:href="#tool-D19-pad-1601"/>
      <use x="2660.3" y="4462.7" xlink:href="#tool-D19-pad-1601"/>
      <use x="2384.7" y="4738.3" xlink:href="#tool-D20-pad-1602"/>
      <use x="2384.7" y="4718.6" xlink:href="#tool-D20-pad-1602"/>
      <use x="2384.7" y="4698.9" xlink:href="#tool-D20-pad-1602"/>
      <use x="2384.7" y="4679.2" xlink:href="#tool-D20-pad-1602"/>
      <use x="2384.7" y="4659.5" xlink:href="#tool-D20-pad-1602"/>
      <use x="2384.7" y="4639.8" xlink:href="#tool-D20-pad-1602"/>
      <use x="2384.7" y="4620.2" xlink:href="#tool-D20-pad-1602"/>
      <use x="2384.7" y="4600.5" xlink:href="#tool-D20-pad-1602"/>
      <use x="2384.7" y="4580.8" xlink:href="#tool-D20-pad-1602"/>
      <use x="2384.7" y="4561.1" xlink:href="#tool-D20-pad-1602"/>
      <use x="2384.7" y="4541.4" xlink:href="#tool-D20-pad-1602"/>
      <use x="2384.7" y="4521.7" xlink:href="#tool-D20-pad-1602"/>
      <use x="2719.3" y="4521.7" xlink:href="#tool-D20-pad-1602"/>
      <use x="2719.3" y="4541.4" xlink:href="#tool-D20-pad-1602"/>
      <use x="2719.3" y="4561.1" xlink:href="#tool-D20-pad-1602"/>
      <use x="2719.3" y="4580.8" xlink:href="#tool-D20-pad-1602"/>
      <use x="2719.3" y="4600.5" xlink:href="#tool-D20-pad-1602"/>
      <use x="2719.3" y="4620.2" xlink:href="#tool-D20-pad-1602"/>
      <use x="2719.3" y="4639.8" xlink:href="#tool-D20-pad-1602"/>
      <use x="2719.3" y="4659.5" xlink:href="#tool-D20-pad-1602"/>
      <use x="2719.3" y="4679.2" xlink:href="#tool-D20-pad-1602"/>
      <use x="2719.3" y="4698.9" xlink:href="#tool-D20-pad-1602"/>
      <use x="2719.3" y="4718.6" xlink:href="#tool-D20-pad-1602"/>
      <use x="2719.3" y="4738.3" xlink:href="#tool-D20-pad-1602"/>
      <use x="2590.3" y="4154.4" xlink:href="#tool-D21-pad-1603"/>
      <use x="2590.3" y="4180" xlink:href="#tool-D21-pad-1603"/>
      <use x="2590.3" y="4205.6" xlink:href="#tool-D21-pad-1603"/>
      <use x="2499.7" y="4205.6" xlink:href="#tool-D21-pad-1603"/>
      <use x="2499.7" y="4180" xlink:href="#tool-D21-pad-1603"/>
      <use x="2499.7" y="4154.4" xlink:href="#tool-D21-pad-1603"/>
      <use x="2545" y="4180" xlink:href="#tool-D22-pad-1604"/>
      <use x="2705" y="4150" xlink:href="#tool-D23-pad-1605"/>
      <use x="2705" y="4190" xlink:href="#tool-D23-pad-1605"/>
      <use x="2332" y="4264" xlink:href="#tool-D23-pad-1605"/>
      <use x="2332" y="4304" xlink:href="#tool-D23-pad-1605"/>
      <use x="2409" y="4405" xlink:href="#tool-D23-pad-1605"/>
      <use x="2409" y="4365" xlink:href="#tool-D23-pad-1605"/>
      <use x="2373" y="4405" xlink:href="#tool-D23-pad-1605"/>
      <use x="2373" y="4365" xlink:href="#tool-D23-pad-1605"/>
      <use x="2895" y="4150" xlink:href="#tool-D23-pad-1605"/>
      <use x="2895" y="4190" xlink:href="#tool-D23-pad-1605"/>
      <use x="3005" y="4150" xlink:href="#tool-D23-pad-1605"/>
      <use x="3005" y="4190" xlink:href="#tool-D23-pad-1605"/>
      <use x="3171" y="4357" xlink:href="#tool-D23-pad-1605"/>
      <use x="3171" y="4317" xlink:href="#tool-D23-pad-1605"/>
      <use x="2780" y="4750" xlink:href="#tool-D23-pad-1605"/>
      <use x="2780" y="4710" xlink:href="#tool-D23-pad-1605"/>
      <use x="2468" y="4365" xlink:href="#tool-D23-pad-1605"/>
      <use x="2468" y="4405" xlink:href="#tool-D23-pad-1605"/>
      <use x="2911" y="4386" xlink:href="#tool-D23-pad-1605"/>
      <use x="2911" y="4346" xlink:href="#tool-D23-pad-1605"/>
      <use x="2503" y="4365" xlink:href="#tool-D23-pad-1605"/>
      <use x="2503" y="4405" xlink:href="#tool-D23-pad-1605"/>
      <use x="2538" y="4365" xlink:href="#tool-D23-pad-1605"/>
      <use x="2538" y="4405" xlink:href="#tool-D23-pad-1605"/>
      <use x="2895" y="4850" xlink:href="#tool-D23-pad-1605"/>
      <use x="2895" y="4810" xlink:href="#tool-D23-pad-1605"/>
      <use x="3005" y="4850" xlink:href="#tool-D23-pad-1605"/>
      <use x="3005" y="4810" xlink:href="#tool-D23-pad-1605"/>
      <use x="2337" y="4405" xlink:href="#tool-D23-pad-1605"/>
      <use x="2337" y="4365" xlink:href="#tool-D23-pad-1605"/>
      <use x="2655" y="4155" xlink:href="#tool-D24-pad-1606"/>
      <use x="2655" y="4205" xlink:href="#tool-D24-pad-1606"/>
      <use x="2440" y="4155" xlink:href="#tool-D24-pad-1606"/>
      <use x="2440" y="4205" xlink:href="#tool-D24-pad-1606"/>
      <use x="2850" y="4155" xlink:href="#tool-D24-pad-1606"/>
      <use x="2850" y="4205" xlink:href="#tool-D24-pad-1606"/>
      <use x="2850" y="4845" xlink:href="#tool-D24-pad-1606"/>
      <use x="2850" y="4795" xlink:href="#tool-D24-pad-1606"/>
      <use x="3153" y="4674" xlink:href="#tool-D24-pad-1606"/>
      <use x="3153" y="4724" xlink:href="#tool-D24-pad-1606"/>
      <use x="2963.2" y="4336.8" xlink:href="#tool-D25-pad-1607"/>
      <use x="2963.2" y="4356.5" xlink:href="#tool-D25-pad-1607"/>
      <use x="2963.2" y="4376.2" xlink:href="#tool-D25-pad-1607"/>
      <use x="2963.2" y="4395.8" xlink:href="#tool-D25-pad-1607"/>
      <use x="2963.2" y="4415.5" xlink:href="#tool-D25-pad-1607"/>
      <use x="2963.2" y="4435.2" xlink:href="#tool-D25-pad-1607"/>
      <use x="3118.8" y="4336.8" xlink:href="#tool-D25-pad-1607"/>
      <use x="3118.8" y="4356.5" xlink:href="#tool-D25-pad-1607"/>
      <use x="3118.8" y="4376.2" xlink:href="#tool-D25-pad-1607"/>
      <use x="3118.8" y="4395.8" xlink:href="#tool-D25-pad-1607"/>
      <use x="3118.8" y="4415.5" xlink:href="#tool-D25-pad-1607"/>
      <use x="3118.8" y="4435.2" xlink:href="#tool-D25-pad-1607"/>
      <use x="2991.8" y="4307.3" xlink:href="#tool-D26-pad-1608"/>
      <use x="3011.5" y="4307.3" xlink:href="#tool-D26-pad-1608"/>
      <use x="3031.2" y="4307.3" xlink:href="#tool-D26-pad-1608"/>
      <use x="3050.8" y="4307.3" xlink:href="#tool-D26-pad-1608"/>
      <use x="3070.5" y="4307.3" xlink:href="#tool-D26-pad-1608"/>
      <use x="3090.2" y="4307.3" xlink:href="#tool-D26-pad-1608"/>
      <use x="3090.2" y="4464.7" xlink:href="#tool-D26-pad-1608"/>
      <use x="3070.5" y="4464.7" xlink:href="#tool-D26-pad-1608"/>
      <use x="3050.8" y="4464.7" xlink:href="#tool-D26-pad-1608"/>
      <use x="3031.2" y="4464.7" xlink:href="#tool-D26-pad-1608"/>
      <use x="3011.5" y="4464.7" xlink:href="#tool-D26-pad-1608"/>
      <use x="2991.8" y="4464.7" xlink:href="#tool-D26-pad-1608"/>
      <use x="2383" y="4855" xlink:href="#tool-D27-pad-1609"/>
      <use x="2333" y="4855" xlink:href="#tool-D27-pad-1609"/>
      <use x="3028.2" y="4719.2" xlink:href="#tool-D28-pad-1610"/>
      <use x="3047.8" y="4719.2" xlink:href="#tool-D28-pad-1610"/>
      <use x="3067.5" y="4719" xlink:href="#tool-D28-pad-1610"/>
      <use x="3047.8" y="4618.8" xlink:href="#tool-D28-pad-1610"/>
      <use x="3028.2" y="4618.8" xlink:href="#tool-D28-pad-1610"/>
      <use x="3008.5" y="4618.8" xlink:href="#tool-D28-pad-1610"/>
      <use x="3067.5" y="4618.8" xlink:href="#tool-D28-pad-1610"/>
      <use x="3008.5" y="4719.2" xlink:href="#tool-D28-pad-1610"/>
      <use x="3088.2" y="4678.8" xlink:href="#tool-D29-pad-1611"/>
      <use x="3088.2" y="4659.2" xlink:href="#tool-D29-pad-1611"/>
      <use x="3088.2" y="4639.5" xlink:href="#tool-D29-pad-1611"/>
      <use x="2987.8" y="4659.2" xlink:href="#tool-D29-pad-1611"/>
      <use x="2987.8" y="4678.8" xlink:href="#tool-D29-pad-1611"/>
      <use x="2987.8" y="4698.5" xlink:href="#tool-D29-pad-1611"/>
      <use x="2987.8" y="4639.5" xlink:href="#tool-D29-pad-1611"/>
      <use x="3088.2" y="4698.5" xlink:href="#tool-D29-pad-1611"/>
      <path stroke-width="10" fill="none" d="M 2290 4600.5 L 2384.7 4600.5 M 2290 4600.5 L 2290 4621 M 2290 4576 L 2290 4600.5 M 2886 4657 L 2886 4679 M 2927 4678.8 L 2987.8 4678.8 M 3088.2 4698.5 L 3183.5 4698.5 M 3135.2 4659.2 L 3148 4672 M 3131.8 4618.8 L 3132 4619 M 3067.5 4618.8 L 3131.8 4618.8 M 3153 4724 L 3153 4748.6 M 3088.2 4678.8 L 3112.8 4678.8 M 2434 4839 L 2434 4855 M 2434 4839 L 2443.7 4829.3 M 2443.7 4797.3 L 2443.7 4829.3 M 2474 4839 L 2474 4855 M 2463.4 4828.4 L 2474 4839 M 2463.4 4797.3 L 2463.4 4828.4 M 2329.7 4576 L 2351 4576 M 2356 4581 L 2384.5 4581 M 2351 4576 L 2356 4581 M 2384.5 4581 L 2384.7 4580.8 M 3088.2 4659.2 L 3135.2 4659.2 M 3172 4619 L 3185 4619 M 3067.5 4719 L 3067.5 4756 M 2384.7 4738.3 L 2424 4738.3 M 3185 4619 L 3190 4624 L 3190 4692 M 3183.5 4698.5 L 3190 4692"/>
      <path stroke-width="12" fill="none" d="M 2290 4537 L 2290 4576 M 2271.7 4537 L 2290 4537 M 3090.2 4279 L 3090.2 4306.9 M 2761 4710 L 2780 4710 M 2752.4 4718.6 L 2761 4710 M 2719.3 4718.6 L 2752.4 4718.6 M 2762 4750 L 2780 4750 M 2750.3 4738.3 L 2762 4750 M 2719.3 4738.3 L 2750.3 4738.3 M 2562 4871 L 2583 4892 M 2562 4855.3 L 2562 4871 M 2308 4855 L 2332.7 4855 M 2295 4692.7 L 2295 4715 M 2330 4514.7 L 2330 4537 L 2330 4576 M 2938.8 4376.2 L 2963.2 4376.2 M 2911 4346 L 2930 4346 L 2940.5 4356.5 L 2963.2 4356.5 M 2911 4327 L 2911 4346 M 3171 4298 L 3171 4317 M 3118.8 4356.5 L 3170.5 4356.5 M 3005 4190 L 3005 4209 M 2895 4190 L 2895 4209 M 2895 4791 L 2895 4810 M 3005 4791 L 3005 4810 M 2655 4205 L 2655 4230.7 M 2705 4190 L 2705 4210 M 2440 4205 L 2440 4230.7 M 2544.8 4180.2 L 2544.8 4232 M 2449 4303.7 L 2449.3 4304 M 2660.3 4462.7 L 2680.3 4462.7 M 2610 4405 L 2630 4405 M 2780 4750 L 2780 4770 M 2780 4690 L 2780 4710 M 2850 4771 L 2850 4795 M 2630 4405 L 2630 4420 L 2640.6 4430.6 L 2640.6 4462.7 M 2670 4405 L 2670 4420 M 2660.3 4429.7 L 2670 4420 M 2660.3 4429.7 L 2660.3 4462.7 M 2850 4845 L 2855 4850 M 2332 4243 L 2332 4264 M 2850 4205 L 2850 4229 M 2911 4386 L 2929 4386 L 2938.8 4376.2 M 2474 4855.3 L 2474 4875.3 M 2991.8 4276.2 L 2991.8 4307.3 M 2991.8 4276.2 L 3045 4223 M 3045 4164 L 3045 4223 M 3031 4150 L 3045 4164 M 3005 4150 L 3031 4150 M 2768 4845 L 2768 4845 M 3090.2 4464.7 L 3141.7 4464.7"/>
      <path stroke-width="5" fill="none" d="M 2348 4509 L 2366 4491 M 2452.1 4344 L 2495.1 4344 L 2543.1 4296 M 2503 4350.3 L 2547.3 4306 M 2503 4350.3 L 2503 4365 M 2547.3 4306 L 2730.9 4306 M 2543.1 4296 L 2735 4296 M 2539 4286 L 2911 4286 M 2497 4328 L 2539 4286 M 2433 4328 L 2497 4328 M 2444 4352.1 L 2444 4413 M 2444 4352.1 L 2452.1 4344 M 2348 4552 L 2357.1 4561.1 M 2348 4509 L 2348 4552 M 2916.5 4698.5 L 2987.8 4698.5 M 2817 4596 L 2841 4596 M 2601.2 4462.7 L 2601.2 4504 M 2620.9 4462.7 L 2620.9 4517 M 3088.2 4639.5 L 3113 4639.5 M 2747.3 4521.7 L 2765 4504 M 3177 4442.9 L 3177 4491.1 M 3167 4447 L 3167 4487 M 3149.7 4415.5 L 3177 4442.9 M 3155 4435 L 3167 4447 M 3118.8 4415.5 L 3149.7 4415.5 M 3128 4435 L 3155 4435 M 2583 4340 L 2583 4368 M 2566 4385 L 2583 4368 M 2474 4385 L 2566 4385 M 2468 4379 L 2474 4385 M 2468 4365 L 2468 4379 M 2938.2 4395.8 L 2963.2 4395.8 M 2538 4333 L 2538 4365 M 2719.3 4521.7 L 2747.3 4521.7 M 3025 5140 L 3073 5092 M 2581.5 4797.3 L 2581.5 4825.7 M 2601.2 4797.3 L 2601.2 4831.2 M 2383.4 4620.2 L 2384.7 4620.2 M 2522.5 4756 L 2522.5 4797.3 M 2665 4600.5 L 2719.3 4600.5 M 2666 4639.8 L 2719.3 4639.8 M 2678 4620.2 L 2719.3 4620.2 M 2355.5 4659.5 L 2384.7 4659.5 M 2348 4667 L 2355.5 4659.5 M 2348 4667 L 2348 4740 M 2325.8 4762.2 L 2348 4740 M 2295 4762.2 L 2325.8 4762.2 M 2354.2 4639.8 L 2384.7 4639.8 M 2326.2 4667.8 L 2354.2 4639.8 M 2295 4667.8 L 2326.2 4667.8 M 2764 4596 L 2777 4596 M 2748.8 4580.8 L 2764 4596 M 2719.3 4580.8 L 2748.8 4580.8 M 2719.3 4561.1 L 2776.9 4561.1 M 2764 4526 L 2777 4526 M 2748.6 4541.4 L 2764 4526 M 2719.3 4541.4 L 2748.6 4541.4 M 2538 4405 L 2538 4417 M 2522.5 4432.5 L 2538 4417 M 2522.5 4432.5 L 2522.5 4462.7 M 2502.8 4405.2 L 2502.8 4462.7 M 2468 4405 L 2468 4418 L 2483.1 4433.1 L 2483.1 4462.7 M 2940.8 4336.8 L 2963.2 4336.8 M 2357.1 4561.1 L 2384.7 4561.1 M 2384.7 4541.4 L 2437.9 4541.4 L 2597.4 4701 L 2639 4701 L 2728 4790 L 2794 4790 M 2864 4619 L 2864 4709.9 M 3028.2 4719.2 L 3028.2 4739.8 M 3008.5 4719.2 L 3008.5 4734.5 M 2864 4709.9 L 2897.1 4743 L 3000 4743 L 3008.5 4734.5 M 2841 4596 L 2864 4619 M 2939.5 4639.5 L 2987.8 4639.5 M 2817 4561 L 2836 4561 M 2906 4688 L 2916.5 4698.5 M 2916 4616 L 2939.5 4639.5 M 2765 4504 L 2876 4504 L 2916 4544 L 2916 4616 M 2817 4526 L 2883.9 4526 L 2906 4548.1 L 2906 4688 M 2930 4305 L 2930 4326 L 2940.8 4336.8 M 2463.4 4432.4 L 2463.4 4462.7 M 2444 4413 L 2463.4 4432.4 M 2942.2 4415.5 L 2963.2 4415.5 M 2926.1 4408 L 2938.2 4395.8 M 2931.8 4426 L 2942.2 4415.5 M 2538 4333 L 2555 4316 L 2726.7 4316 M 2583 4340 L 2597 4326 L 2722.6 4326 M 2730.9 4306 L 2832.9 4408 M 2911 4286 L 2930 4305 M 2875 5090 L 2925 5140 M 2483.1 4756 L 2483.1 4797.3 M 2483.1 4756 L 2499.6 4739.5 M 2542.2 4462.7 L 2542.2 4495.8 M 2530 4508 L 2542.2 4495.8 M 2493 4508 L 2530 4508 M 2561.8 4462.7 L 2561.8 4514.2 M 2493 4532 L 2544 4532 L 2561.8 4514.2 M 2384.7 4620.2 L 2428 4620.2 M 2499.6 4739.5 L 2575.5 4739.5 M 2719.3 4698.9 L 2748.1 4698.9 L 2758 4689 M 2575.5 4739.5 L 2588 4752 L 2636 4752 M 2620.9 4797.3 L 2620.9 4828.9 L 2628 4836 L 2646 4836 M 2601.2 4735 L 2644.3 4735 M 2621 4718 L 2641.5 4718 M 2661.6 4796 L 2682 4796 M 2660.3 4797.3 L 2661.6 4796 M 2758 4669 L 2758 4689 M 2758 4669 L 2771 4656 M 2641.5 4718 L 2720 4796.5 M 2644.3 4735 L 2710 4800.7 M 2720 4796.5 L 2720 4877 M 2710 4800.7 L 2710 4881.1 M 2720 4877 L 2774 4931 M 2710 4881.1 L 2769.9 4941 M 2716.9 4961 L 2847 4961 M 2601.2 4831.2 L 2721 4951 M 2581.5 4825.7 L 2716.9 4961 M 2847 4961 L 2875 4989 L 2875 5090 M 3073 4964 L 3073 5092 M 2774 4931 L 3040 4931 L 3073 4964 M 3025 4970 L 3025 5040 M 2769.9 4941 L 2996 4941 L 3025 4970 M 2925 4979 L 2925 5040 M 2721 4951 L 2897 4951 L 2925 4979 M 2794 4790 L 2831 4753 L 3015 4753 L 3028.2 4739.8 M 2961.2 4618.8 L 3008.5 4618.8 M 2960 4620 L 2961.2 4618.8 M 2832.9 4408 L 2926.1 4408 M 2880 4426 L 2931.8 4426 M 2735 4296 L 2826.5 4387.5 L 2841.5 4387.5 M 2726.7 4316 L 2931.7 4521 L 3133 4521 L 3167 4487 M 2927.6 4531 L 3137.1 4531 M 2722.6 4326 L 2927.6 4531 M 3137.1 4531 L 3177 4491.1"/>
      <path stroke-width="6" fill="none" d="M 2397 4459 L 2397 4485 M 2373 4435 L 2397 4459 M 2373 4405 L 2373 4435 M 2384.7 4471.7 L 2384.7 4521.7 M 2337 4424 L 2384.7 4471.7 M 2337 4405 L 2337 4424 M 2397 4485 L 2591.2 4679.2 M 2337 4365 L 2373 4365 M 2284 4357 L 2312 4329 M 2263.4 4357 L 2284 4357 M 2312 4329 L 2392 4329 M 2325 4340 L 2364 4340 M 2314 4351 L 2325 4340 M 2314 4351 L 2314 4376 M 2373 4349 L 2373 4365 M 2364 4340 L 2373 4349 M 2392 4329 L 2409 4346 M 2284.2 4405.8 L 2314 4376 M 2263 4405.8 L 2284.2 4405.8 M 2409 4405 L 2409 4481.4 M 2409 4346 L 2409 4365 M 2263 4356.6 L 2263.4 4357 M 2207.4 4405.8 L 2263 4405.8 M 2207.4 4356.6 L 2263 4356.6 M 2183 4801.4 L 2234 4801.4 M 2183 4827 L 2234 4827 M 2587.1 4659.5 L 2719.3 4659.5 M 2591.2 4679.2 L 2719.3 4679.2 M 2595 4405 L 2610 4405 M 2581.5 4418.5 L 2595 4405 M 2581.5 4418.5 L 2581.5 4462.7 M 2479.6 4205.6 L 2499.7 4205.6 M 2409 4481.4 L 2587.1 4659.5"/>
      <path stroke-width="14" fill="none" d="M 2090 4748 L 2090 4906 M 2090 4677.9 L 2090 4748 M 2115 4906 L 2127.2 4906 M 2090 4906 L 2115 4906 M 2090 4906 L 2090 4976.1 M 2127.2 4748 L 2170.2 4705 M 2090 4748 L 2127.2 4748 M 2127.2 4906 L 2170.2 4949 M 2140 4555 L 2233 4648 M 2140 4290 L 2140 4555 M 2140 4290 L 2171.8 4258.2 M 2183 4878.2 L 2231.8 4878.2 M 2512 4240 L 2512 4263 L 2512 4285 M 2493 4304 L 2512 4285 M 2411 4304 L 2493 4304 M 2221.2 4775.8 L 2233 4764 M 2233 4648 L 2233 4764 M 2183 4775.8 L 2221.2 4775.8 M 2171.8 4258.2 L 2263 4258.2 M 2192.6 4307.4 L 2263 4307.4 M 2469 4154.4 L 2472 4157.4 L 2472 4258 M 2332 4304 L 2371 4304 M 2332 4264 L 2371 4264 M 2455 4986.3 L 2505 4986.3 M 2405 4986.3 L 2455 4986.3 M 2355 4986.3 L 2405 4986.3 M 2287 4304 L 2332 4304 M 2290 4264 L 2332 4264 M 2383 4855 L 2434 4855 M 2855 4150 L 2895 4150 L 2930 4150 M 2970 4150 L 3005 4150 M 2615.6 4154.4 L 2655 4154.4 M 2664 4150 L 2728 4150 M 2469 4154.4 L 2474.4 4154.4 M 2440.6 4154.4 L 2469 4154.4 M 2411 4264 L 2472 4264 M 2970 4850 L 3005 4850 M 2895 4850 L 2930 4850 M 2855 4850 L 2895 4850 M 3005 4849.7 L 3041.3 4849.7 M 2305 4986.3 L 2305 5036 M 2405 4986.3 L 2405 5036 M 3041.3 4849.7 L 3067.5 4823.5 M 3067.5 4756 L 3067.5 4823.5"/>
      <path stroke-width="8" fill="none" d="M 3028.2 4592.8 L 3028.2 4618.8 M 2305 5105 L 2305 5153.7 M 2355 5105 L 2355 5153.7 M 2405 5105 L 2405 5153.7 M 2522.5 4797.3 L 2522.5 4854.5 M 2330.8 4620.2 L 2384.7 4620.2 M 2505 5105 L 2505 5153.7"/>
      <path stroke-width="9.8" fill="none" d="M 2590.3 4205.6 L 2618.4 4205.6 M 2590.3 4154.4 L 2615.6 4154.4 M 2474.4 4154.4 L 2499.7 4154.4"/>
      <path stroke-width="16" fill="none" d="M 2767 4155 L 2850 4155 M 2768 4845 L 2850 4845"/>
      <use x="2219.7" y="4159.8" xlink:href="#tool-D38-pad-1620"/>
      <use x="2219.7" y="4504.2" xlink:href="#tool-D38-pad-1620"/>
      <use x="2925" y="5140" xlink:href="#tool-D39-pad-1621"/>
      <use x="2925" y="5040" xlink:href="#tool-D39-pad-1621"/>
      <use x="2825" y="5140" xlink:href="#tool-D39-pad-1621"/>
      <use x="2825" y="5040" xlink:href="#tool-D39-pad-1621"/>
      <use x="2725" y="5140" xlink:href="#tool-D39-pad-1621"/>
      <use x="3025" y="5040" xlink:href="#tool-D39-pad-1621"/>
      <use x="3025" y="5140" xlink:href="#tool-D39-pad-1621"/>
      <use x="2725" y="5040" xlink:href="#tool-D40-pad-1622"/>
      <use x="2330" y="5070" xlink:href="#tool-D41-pad-1623"/>
      <use x="2480" y="5070" xlink:href="#tool-D41-pad-1623"/>
      <use x="2125" y="5130" xlink:href="#tool-D42-pad-1624"/>
      <use x="3130" y="4120" xlink:href="#tool-D42-pad-1624"/>
      <use x="2271.7" y="4537" xlink:href="#tool-D43-pad-1625"/>
      <use x="2366" y="4491" xlink:href="#tool-D43-pad-1625"/>
      <use x="2308" y="4855" xlink:href="#tool-D43-pad-1625"/>
      <use x="2115" y="4906" xlink:href="#tool-D43-pad-1625"/>
      <use x="2231.8" y="4878.2" xlink:href="#tool-D43-pad-1625"/>
      <use x="2512" y="4240" xlink:href="#tool-D43-pad-1625"/>
      <use x="2545" y="4232" xlink:href="#tool-D43-pad-1625"/>
      <use x="2207.4" y="4405.8" xlink:href="#tool-D43-pad-1625"/>
      <use x="2207.4" y="4356.6" xlink:href="#tool-D43-pad-1625"/>
      <use x="2192.6" y="4307.4" xlink:href="#tool-D43-pad-1625"/>
      <use x="2433" y="4328" xlink:href="#tool-D43-pad-1625"/>
      <use x="2234" y="4801.4" xlink:href="#tool-D43-pad-1625"/>
      <use x="2234" y="4827" xlink:href="#tool-D43-pad-1625"/>
      <use x="3067.5" y="4756" xlink:href="#tool-D43-pad-1625"/>
      <use x="2886" y="4657" xlink:href="#tool-D43-pad-1625"/>
      <use x="2951" y="4678.8" xlink:href="#tool-D43-pad-1625"/>
      <use x="3028.2" y="4592.8" xlink:href="#tool-D43-pad-1625"/>
      <use x="3113" y="4639.5" xlink:href="#tool-D43-pad-1625"/>
      <use x="3153" y="4748.6" xlink:href="#tool-D43-pad-1625"/>
      <use x="3112.8" y="4678.8" xlink:href="#tool-D43-pad-1625"/>
      <use x="2621" y="4718" xlink:href="#tool-D43-pad-1625"/>
      <use x="2601.2" y="4504" xlink:href="#tool-D43-pad-1625"/>
      <use x="2620.9" y="4517" xlink:href="#tool-D43-pad-1625"/>
      <use x="2305" y="5105" xlink:href="#tool-D43-pad-1625"/>
      <use x="2355" y="5105" xlink:href="#tool-D43-pad-1625"/>
      <use x="2405" y="5105" xlink:href="#tool-D43-pad-1625"/>
      <use x="2728" y="4150" xlink:href="#tool-D43-pad-1625"/>
      <use x="2665" y="4600.5" xlink:href="#tool-D43-pad-1625"/>
      <use x="2666" y="4639.8" xlink:href="#tool-D43-pad-1625"/>
      <use x="2678" y="4620.2" xlink:href="#tool-D43-pad-1625"/>
      <use x="2583" y="4892" xlink:href="#tool-D43-pad-1625"/>
      <use x="2411" y="4855" xlink:href="#tool-D43-pad-1625"/>
      <use x="2295" y="4692.7" xlink:href="#tool-D43-pad-1625"/>
      <use x="2330" y="4514.7" xlink:href="#tool-D43-pad-1625"/>
      <use x="2911" y="4327" xlink:href="#tool-D43-pad-1625"/>
      <use x="3171" y="4298" xlink:href="#tool-D43-pad-1625"/>
      <use x="3005" y="4209" xlink:href="#tool-D43-pad-1625"/>
      <use x="2895" y="4209" xlink:href="#tool-D43-pad-1625"/>
      <use x="2895" y="4791" xlink:href="#tool-D43-pad-1625"/>
      <use x="3005" y="4791" xlink:href="#tool-D43-pad-1625"/>
      <use x="2655" y="4230.7" xlink:href="#tool-D43-pad-1625"/>
      <use x="2705" y="4210" xlink:href="#tool-D43-pad-1625"/>
      <use x="2618.4" y="4205.6" xlink:href="#tool-D43-pad-1625"/>
      <use x="2440" y="4230.7" xlink:href="#tool-D43-pad-1625"/>
      <use x="2680.3" y="4462.7" xlink:href="#tool-D43-pad-1625"/>
      <use x="2610" y="4405" xlink:href="#tool-D43-pad-1625"/>
      <use x="2780" y="4770" xlink:href="#tool-D43-pad-1625"/>
      <use x="2780" y="4690" xlink:href="#tool-D43-pad-1625"/>
      <use x="2332" y="4243" xlink:href="#tool-D43-pad-1625"/>
      <use x="2850" y="4771" xlink:href="#tool-D43-pad-1625"/>
      <use x="2850" y="4229" xlink:href="#tool-D43-pad-1625"/>
      <use x="2836" y="4561" xlink:href="#tool-D43-pad-1625"/>
      <use x="2305" y="5036" xlink:href="#tool-D43-pad-1625"/>
      <use x="2405" y="5036" xlink:href="#tool-D43-pad-1625"/>
      <use x="2474" y="4875.3" xlink:href="#tool-D43-pad-1625"/>
      <use x="2601.2" y="4735" xlink:href="#tool-D43-pad-1625"/>
      <use x="2522.5" y="4756" xlink:href="#tool-D43-pad-1625"/>
      <use x="2631" y="4752" xlink:href="#tool-D43-pad-1625"/>
      <use x="2493" y="4532" xlink:href="#tool-D43-pad-1625"/>
      <use x="2493" y="4508" xlink:href="#tool-D43-pad-1625"/>
      <use x="2646" y="4836" xlink:href="#tool-D43-pad-1625"/>
      <use x="2682" y="4796" xlink:href="#tool-D43-pad-1625"/>
      <use x="2771" y="4656" xlink:href="#tool-D43-pad-1625"/>
      <use x="3090" y="4279" xlink:href="#tool-D43-pad-1625"/>
      <use x="2767" y="4155" xlink:href="#tool-D43-pad-1625"/>
      <use x="2768" y="4845" xlink:href="#tool-D43-pad-1625"/>
      <use x="2963" y="4618.8" xlink:href="#tool-D43-pad-1625"/>
      <use x="3144" y="4464" xlink:href="#tool-D43-pad-1625"/>
      <use x="2505" y="5105" xlink:href="#tool-D43-pad-1625"/>
      <use x="2424" y="4738.3" xlink:href="#tool-D43-pad-1625"/>
      <use x="2428.2" y="4620.2" xlink:href="#tool-D43-pad-1625"/>
      <use x="2841.5" y="4387.5" xlink:href="#tool-D43-pad-1625"/>
      <use x="2880" y="4426" xlink:href="#tool-D43-pad-1625"/>
    </g>
    <g fill="currentColor" stroke="currentColor" id="top-tss_2">
      <path d="M 2976 4698.5 L 2960.2 4686.7 L 2960.2 4710.3 L 2976 4698.5 M 2976 4698.5 Z"/>
      <path d="M 3090.2 4484.4 L 3076.4 4502.1 L 3104 4502.1 L 3090.2 4484.4 M 3090.2 4484.4 Z"/>
      <path d="M 2623.7 4140.6 L 2606 4154.4 L 2623.7 4168.2 L 2623.7 4140.6 M 2623.7 4140.6 Z"/>
      <path d="M 2273.1 4985.4 L 2241.6 4961.7 L 2241.6 5009 L 2273.1 4985.4 M 2273.1 4985.4 Z"/>
      <path d="M 2748.6 4942.6 L 2701.4 4942.6 L 2725 4974.1 L 2748.6 4942.6 M 2748.6 4942.6 Z"/>
      <path d="M 2385.7 4755 L 2371.9 4772.7 L 2399.4 4772.7 L 2385.7 4755 M 2385.7 4755 Z"/>
      <path stroke-width="6" fill="none" d="M 2182 5045 L 2172 5045 L 2177 5045 L 2177 5020 L 2172 5015 L 2167 5015 L 2162 5020 M 2212 5015 L 2192 5015 L 2212 5035 L 2212 5040 L 2207 5045 L 2197 5045 L 2192 5040 M 2883 4724 L 2878 4729 L 2868 4729 L 2863 4724 L 2863 4704 L 2868 4699 L 2878 4699 L 2883 4704 M 2913 4699 L 2893 4699 L 2913 4719 L 2913 4724 L 2908 4729 L 2898 4729 L 2893 4724 M 2923 4724 L 2928 4729 L 2938 4729 L 2943 4724 L 2943 4719 L 2938 4714 L 2933 4714 L 2938 4714 L 2943 4709 L 2943 4704 L 2938 4699 L 2928 4699 L 2923 4704 M 2620 5020 L 2620 5010 L 2620 5015 L 2645 5015 L 2650 5010 L 2650 5005 L 2645 5000 M 2650 5045 L 2620 5045 L 2635 5030 L 2635 5050 M 2275 4820 L 2275 4815 L 2285 4805 L 2295 4815 L 2295 4820 M 2285 4805 L 2285 4790 M 2305 4790 L 2315 4790 L 2310 4790 L 2310 4820 L 2305 4815 M 2215 4120 L 2205 4120 L 2210 4120 L 2210 4095 L 2205 4090 L 2200 4090 L 2195 4095 M 2225 4090 L 2235 4090 L 2230 4090 L 2230 4120 L 2225 4115 M 2235 5065 L 2235 5055 L 2235 5060 L 2260 5060 L 2265 5055 L 2265 5050 L 2260 5045 M 2240 5075 L 2235 5080 L 2235 5090 L 2240 5095 L 2245 5095 L 2250 5090 L 2250 5085 L 2250 5090 L 2255 5095 L 2260 5095 L 2265 5090 L 2265 5080 L 2260 5075 M 3008 4772 L 3008 4747 L 3013 4742 L 3023 4742 L 3028 4747 L 3028 4772 M 3053 4742 L 3053 4772 L 3038 4757 L 3058 4757 M 3016 4281 L 3016 4256 L 3021 4251 L 3031 4251 L 3036 4256 L 3036 4281 M 3046 4276 L 3051 4281 L 3061 4281 L 3066 4276 L 3066 4271 L 3061 4266 L 3056 4266 L 3061 4266 L 3066 4261 L 3066 4256 L 3061 4251 L 3051 4251 L 3046 4256 M 2525 4125 L 2525 4100 L 2530 4095 L 2540 4095 L 2545 4100 L 2545 4125 M 2575 4095 L 2555 4095 L 2575 4115 L 2575 4120 L 2570 4125 L 2560 4125 L 2555 4120 M 2377 4820 L 2377 4795 L 2382 4790 L 2392 4790 L 2397 4795 L 2397 4820 M 2407 4790 L 2417 4790 L 2412 4790 L 2412 4820 L 2407 4815 M 2847 4586 L 2847 4616 L 2862 4616 L 2867 4611 L 2867 4601 L 2862 4596 L 2847 4596 M 2857 4596 L 2867 4586 M 2877 4591 L 2882 4586 L 2892 4586 L 2897 4591 L 2897 4611 L 2892 4616 L 2882 4616 L 2877 4611 L 2877 4606 L 2882 4601 L 2897 4601 M 2847 4546 L 2847 4576 L 2862 4576 L 2867 4571 L 2867 4561 L 2862 4556 L 2847 4556 M 2857 4556 L 2867 4546 M 2877 4571 L 2882 4576 L 2892 4576 L 2897 4571 L 2897 4566 L 2892 4561 L 2897 4556 L 2897 4551 L 2892 4546 L 2882 4546 L 2877 4551 L 2877 4556 L 2882 4561 L 2877 4566 L 2877 4571 M 2882 4561 L 2892 4561 M 2847 4506 L 2847 4536 L 2862 4536 L 2867 4531 L 2867 4521 L 2862 4516 L 2847 4516 M 2857 4516 L 2867 4506 M 2877 4536 L 2897 4536 L 2897 4531 L 2877 4511 L 2877 4506 M 2517 4875 L 2517 4905 L 2532 4905 L 2537 4900 L 2537 4890 L 2532 4885 L 2517 4885 M 2527 4885 L 2537 4875 M 2567 4905 L 2557 4900 L 2547 4890 L 2547 4880 L 2552 4875 L 2562 4875 L 2567 4880 L 2567 4885 L 2562 4890 L 2547 4890 M 2558 4295 L 2528 4295 L 2528 4310 L 2533 4315 L 2543 4315 L 2548 4310 L 2548 4295 M 2548 4305 L 2558 4315 M 2528 4345 L 2528 4325 L 2543 4325 L 2538 4335 L 2538 4340 L 2543 4345 L 2553 4345 L 2558 4340 L 2558 4330 L 2553 4325 M 2518 4295 L 2488 4295 L 2488 4310 L 2493 4315 L 2503 4315 L 2508 4310 L 2508 4295 M 2508 4305 L 2518 4315 M 2518 4340 L 2488 4340 L 2503 4325 L 2503 4345 M 2478 4295 L 2448 4295 L 2448 4310 L 2453 4315 L 2463 4315 L 2468 4310 L 2468 4295 M 2468 4305 L 2478 4315 M 2453 4325 L 2448 4330 L 2448 4340 L 2453 4345 L 2458 4345 L 2463 4340 L 2463 4335 L 2463 4340 L 2468 4345 L 2473 4345 L 2478 4340 L 2478 4330 L 2473 4325 M 2388 4423 L 2358 4423 L 2358 4438 L 2363 4443 L 2373 4443 L 2378 4438 L 2378 4423 M 2378 4433 L 2388 4443 M 2388 4473 L 2388 4453 L 2368 4473 L 2363 4473 L 2358 4468 L 2358 4458 L 2363 4453 M 2428 4423 L 2398 4423 L 2398 4438 L 2403 4443 L 2413 4443 L 2418 4438 L 2418 4423 M 2418 4433 L 2428 4443 M 2428 4453 L 2428 4463 L 2428 4458 L 2398 4458 L 2403 4453 M 2935 4870 L 2965 4870 L 2965 4890 M 2965 4915 L 2935 4915 L 2950 4900 L 2950 4920 M 2935 4080 L 2965 4080 L 2965 4100 M 2940 4110 L 2935 4115 L 2935 4125 L 2940 4130 L 2945 4130 L 2950 4125 L 2950 4120 L 2950 4125 L 2955 4130 L 2960 4130 L 2965 4125 L 2965 4115 L 2960 4110 M 2363 4200 L 2363 4170 L 2383 4170 M 2413 4170 L 2393 4170 L 2413 4190 L 2413 4195 L 2408 4200 L 2398 4200 L 2393 4195 M 2363 4242 L 2363 4212 L 2383 4212 M 2393 4212 L 2403 4212 L 2398 4212 L 2398 4242 L 2393 4237 M 3143 4784 L 3138 4779 L 3138 4769 L 3143 4764 L 3163 4764 L 3168 4769 L 3168 4779 L 3163 4784 M 3168 4814 L 3168 4794 L 3148 4814 L 3143 4814 L 3138 4809 L 3138 4799 L 3143 4794 M 3168 4844 L 3168 4824 L 3148 4844 L 3143 4844 L 3138 4839 L 3138 4829 L 3143 4824 M 2222 4630 L 2217 4635 L 2207 4635 L 2202 4630 L 2202 4610 L 2207 4605 L 2217 4605 L 2222 4610 M 2252 4605 L 2232 4605 L 2252 4625 L 2252 4630 L 2247 4635 L 2237 4635 L 2232 4630 M 2262 4605 L 2272 4605 L 2267 4605 L 2267 4635 L 2262 4630 M 2840 4890 L 2835 4885 L 2835 4875 L 2840 4870 L 2860 4870 L 2865 4875 L 2865 4885 L 2860 4890 M 2865 4920 L 2865 4900 L 2845 4920 L 2840 4920 L 2835 4915 L 2835 4905 L 2840 4900 M 2840 4930 L 2835 4935 L 2835 4945 L 2840 4950 L 2860 4950 L 2865 4945 L 2865 4935 L 2860 4930 L 2840 4930 M 2885 4890 L 2880 4885 L 2880 4875 L 2885 4870 L 2905 4870 L 2910 4875 L 2910 4885 L 2905 4890 M 2910 4900 L 2910 4910 L 2910 4905 L 2880 4905 L 2885 4900 M 2905 4925 L 2910 4930 L 2910 4940 L 2905 4945 L 2885 4945 L 2880 4940 L 2880 4930 L 2885 4925 L 2890 4925 L 2895 4930 L 2895 4945 M 2995 4890 L 2990 4885 L 2990 4875 L 2995 4870 L 3015 4870 L 3020 4875 L 3020 4885 L 3015 4890 M 3020 4900 L 3020 4910 L 3020 4905 L 2990 4905 L 2995 4900 M 2995 4925 L 2990 4930 L 2990 4940 L 2995 4945 L 3000 4945 L 3005 4940 L 3010 4945 L 3015 4945 L 3020 4940 L 3020 4930 L 3015 4925 L 3010 4925 L 3005 4930 L 3000 4925 L 2995 4925 M 3005 4930 L 3005 4940 M 3136 4594 L 3131 4599 L 3121 4599 L 3116 4594 L 3116 4574 L 3121 4569 L 3131 4569 L 3136 4574 M 3146 4569 L 3156 4569 L 3151 4569 L 3151 4599 L 3146 4594 M 3171 4599 L 3191 4599 L 3191 4594 L 3171 4574 L 3171 4569 M 2275 4461 L 2270 4456 L 2270 4446 L 2275 4441 L 2295 4441 L 2300 4446 L 2300 4456 L 2295 4461 M 2300 4471 L 2300 4481 L 2300 4476 L 2270 4476 L 2275 4471 M 2270 4516 L 2275 4506 L 2285 4496 L 2295 4496 L 2300 4501 L 2300 4511 L 2295 4516 L 2290 4516 L 2285 4511 L 2285 4496 M 2217 4586 L 2212 4591 L 2202 4591 L 2197 4586 L 2197 4566 L 2202 4561 L 2212 4561 L 2217 4566 M 2227 4561 L 2237 4561 L 2232 4561 L 2232 4591 L 2227 4586 M 2272 4591 L 2252 4591 L 2252 4576 L 2262 4581 L 2267 4581 L 2272 4576 L 2272 4566 L 2267 4561 L 2257 4561 L 2252 4566 M 2901 4426 L 2896 4421 L 2896 4411 L 2901 4406 L 2921 4406 L 2926 4411 L 2926 4421 L 2921 4426 M 2926 4436 L 2926 4446 L 2926 4441 L 2896 4441 L 2901 4436 M 2926 4476 L 2896 4476 L 2911 4461 L 2911 4481 M 2805 4715 L 2800 4710 L 2800 4700 L 2805 4695 L 2825 4695 L 2830 4700 L 2830 4710 L 2825 4715 M 2830 4725 L 2830 4735 L 2830 4730 L 2800 4730 L 2805 4725 M 2805 4750 L 2800 4755 L 2800 4765 L 2805 4770 L 2810 4770 L 2815 4765 L 2815 4760 L 2815 4765 L 2820 4770 L 2825 4770 L 2830 4765 L 2830 4755 L 2825 4750 M 2635 4380 L 2630 4385 L 2620 4385 L 2615 4380 L 2615 4360 L 2620 4355 L 2630 4355 L 2635 4360 M 2645 4355 L 2655 4355 L 2650 4355 L 2650 4385 L 2645 4380 M 2690 4355 L 2670 4355 L 2690 4375 L 2690 4380 L 2685 4385 L 2675 4385 L 2670 4380 M 2439 4900 L 2434 4905 L 2424 4905 L 2419 4900 L 2419 4880 L 2424 4875 L 2434 4875 L 2439 4880 M 2449 4875 L 2459 4875 L 2454 4875 L 2454 4905 L 2449 4900 M 2474 4875 L 2484 4875 L 2479 4875 L 2479 4905 L 2474 4900 M 2338 4905 L 2333 4910 L 2323 4910 L 2318 4905 L 2318 4885 L 2323 4880 L 2333 4880 L 2338 4885 M 2348 4880 L 2358 4880 L 2353 4880 L 2353 4910 L 2348 4905 M 2373 4905 L 2378 4910 L 2388 4910 L 2393 4905 L 2393 4885 L 2388 4880 L 2378 4880 L 2373 4885 L 2373 4905 M 2840 4100 L 2835 4095 L 2835 4085 L 2840 4080 L 2860 4080 L 2865 4085 L 2865 4095 L 2860 4100 M 2860 4110 L 2865 4115 L 2865 4125 L 2860 4130 L 2840 4130 L 2835 4125 L 2835 4115 L 2840 4110 L 2845 4110 L 2850 4115 L 2850 4130 M 2885 4100 L 2880 4095 L 2880 4085 L 2885 4080 L 2905 4080 L 2910 4085 L 2910 4095 L 2905 4100 M 2885 4110 L 2880 4115 L 2880 4125 L 2885 4130 L 2890 4130 L 2895 4125 L 2900 4130 L 2905 4130 L 2910 4125 L 2910 4115 L 2905 4110 L 2900 4110 L 2895 4115 L 2890 4110 L 2885 4110 M 2895 4115 L 2895 4125 M 2995 4100 L 2990 4095 L 2990 4085 L 2995 4080 L 3015 4080 L 3020 4085 L 3020 4095 L 3015 4100 M 2990 4110 L 2990 4130 L 2995 4130 L 3015 4110 L 3020 4110 M 3161 4397 L 3156 4392 L 3156 4382 L 3161 4377 L 3181 4377 L 3186 4382 L 3186 4392 L 3181 4397 M 3156 4427 L 3161 4417 L 3171 4407 L 3181 4407 L 3186 4412 L 3186 4422 L 3181 4427 L 3176 4427 L 3171 4422 L 3171 4407 M 2695 4100 L 2690 4095 L 2690 4085 L 2695 4080 L 2715 4080 L 2720 4085 L 2720 4095 L 2715 4100 M 2690 4130 L 2690 4110 L 2705 4110 L 2700 4120 L 2700 4125 L 2705 4130 L 2715 4130 L 2720 4125 L 2720 4115 L 2715 4110 M 2645 4100 L 2640 4095 L 2640 4085 L 2645 4080 L 2665 4080 L 2670 4085 L 2670 4095 L 2665 4100 M 2670 4125 L 2640 4125 L 2655 4110 L 2655 4130 M 2430 4100 L 2425 4095 L 2425 4085 L 2430 4080 L 2450 4080 L 2455 4085 L 2455 4095 L 2450 4100 M 2430 4110 L 2425 4115 L 2425 4125 L 2430 4130 L 2435 4130 L 2440 4125 L 2440 4120 L 2440 4125 L 2445 4130 L 2450 4130 L 2455 4125 L 2455 4115 L 2450 4110 M 2549 4273 L 2544 4278 L 2534 4278 L 2529 4273 L 2529 4253 L 2534 4248 L 2544 4248 L 2549 4253 M 2579 4248 L 2559 4248 L 2579 4268 L 2579 4273 L 2574 4278 L 2564 4278 L 2559 4273 M 2322 4213 L 2317 4208 L 2317 4198 L 2322 4193 L 2342 4193 L 2347 4198 L 2347 4208 L 2342 4213 M 2347 4223 L 2347 4233 L 2347 4228 L 2317 4228 L 2322 4223 M 2347 4423 L 2317 4423 L 2317 4438 L 2322 4443 L 2332 4443 L 2337 4438 L 2337 4423 M 2337 4433 L 2347 4443 M 2347 4453 L 2347 4463 L 2347 4458 L 2317 4458 L 2322 4453 M 2322 4478 L 2317 4483 L 2317 4493 L 2322 4498 L 2342 4498 L 2347 4493 L 2347 4483 L 2342 4478 L 2322 4478 M 3105 5055 L 3100 5050 L 3100 5040 L 3105 5035 L 3125 5035 L 3130 5040 L 3130 5050 L 3125 5055 L 3115 5055 L 3115 5045 M 3130 5065 L 3100 5065 L 3100 5080 L 3105 5085 L 3115 5085 L 3120 5080 L 3120 5065 M 3100 5095 L 3100 5105 L 3100 5100 L 3130 5100 L 3130 5095 L 3130 5105 M 3100 5135 L 3100 5125 L 3105 5120 L 3125 5120 L 3130 5125 L 3130 5135 L 3125 5140 L 3105 5140 L 3100 5135 M 2036 4605 L 2036 4580 L 2041 4575 L 2051 4575 L 2056 4580 L 2056 4605 M 2086 4600 L 2081 4605 L 2071 4605 L 2066 4600 L 2066 4595 L 2071 4590 L 2081 4590 L 2086 4585 L 2086 4580 L 2081 4575 L 2071 4575 L 2066 4580 M 2096 4605 L 2096 4575 L 2111 4575 L 2116 4580 L 2116 4585 L 2111 4590 L 2096 4590 L 2111 4590 L 2116 4595 L 2116 4600 L 2111 4605 L 2096 4605 M 2550 5045 L 2545 5040 L 2545 5030 L 2550 5025 L 2555 5025 L 2560 5030 L 2560 5040 L 2565 5045 L 2570 5045 L 2575 5040 L 2575 5030 L 2570 5025 M 2545 5055 L 2575 5055 L 2565 5065 L 2575 5075 L 2545 5075 M 2545 5085 L 2575 5085 L 2575 5100 L 2570 5105 L 2550 5105 L 2545 5100 L 2545 5085"/>
      <path stroke-width="8" fill="none" d="M 2665 4984.9 L 2665 5195 M 2665 4984.9 L 3085.2 4984.9 L 3085.2 5195 M 2665 5195 L 3085.2 5195"/>
      <path stroke-width="5.9" fill="none" d="M 2241 4135.1 L 2241 4235.5 M 2121.7 4135.1 L 2241 4135.1 M 2121.7 4528.9 L 2241 4528.9 M 2241 4428.5 L 2241 4528.9 M 2018.1 4205.2 L 2018.1 4459.6 M 2015.7 4998.3 L 2033.4 4998.3 M 2015.7 4655.7 L 2015.7 4998.3 M 2122 4998.3 L 2217.4 4998.3 M 2122 4655.7 L 2217.4 4655.7 L 2217.4 4998.3 M 2015.7 4655.7 L 2033.4 4655.7 M 2279 4940.1 L 2279 5199.9 M 2279 4940.1 L 2531 4940.1 M 2279 5199.9 L 2531 5199.9 M 2531 4940.1 L 2531 5199.9 M 2320.6 4747.5 L 2320.6 4729.8 M 2320.6 4700.2 L 2320.6 4682.5 M 2269.4 4747.5 L 2269.4 4729.8 M 2269.4 4700.2 L 2269.4 4682.5 M 2269.4 4778 L 2320.6 4778 M 2269.4 4652 L 2320.6 4652 M 2672.1 4492.2 L 2689.8 4492.2 L 2689.8 4509.9 M 2414.2 4492.2 L 2414.2 4509.9 M 2414.2 4492.2 L 2431.9 4492.2 M 2689.8 4750.1 L 2689.8 4767.8 M 2672.1 4767.8 L 2689.8 4767.8 M 2414.2 4750.1 L 2414.2 4767.8 L 2431.9 4767.8 M 2495.8 4223.3 L 2594.2 4223.3 M 2594.2 4217.4 L 2594.2 4223.3 M 2495.8 4217.4 L 2495.8 4223.3 M 2594.2 4136.7 L 2594.2 4142.6 M 2495.8 4136.7 L 2495.8 4142.6 M 2495.8 4136.7 L 2594.2 4136.7 M 3104 4307.3 L 3119.7 4307.3 L 3119.7 4323 M 2962.3 4307.3 L 2962.3 4323 M 2962.3 4307.3 L 2978 4307.3 M 2962.3 4464.7 L 2978 4464.7 M 2962.3 4449 L 2962.3 4464.7 M 3104 4464.7 L 3119.7 4464.7 M 3119.7 4449 L 3119.7 4464.7 M 3079.3 4728.1 L 3097.1 4728.1 M 3097.1 4710.3 L 3097.1 4728.1 M 3097.1 4609.9 L 3097.1 4627.7 M 3079.3 4609.9 L 3097.1 4609.9 M 2978.9 4609.9 L 2996.7 4609.9 M 2978.9 4609.9 L 2978.9 4627.7 M 2978.9 4728.1 L 2996.7 4728.1 M 2978.9 4710.3 L 2978.9 4728.1"/>
    </g>
    <rect x="-35.5" y="-15" width="71" height="30" id="tool-D10-pad-1665"/>
    <rect x="-51.2" y="-39.35" width="102.4" height="78.7" id="tool-D11-pad-1666"/>
    <rect x="-26.6" y="-7.85" width="53.2" height="15.7" id="tool-D12-pad-1667"/>
    <rect x="-37.4" y="-31.5" width="74.8" height="63" id="tool-D13-pad-1668"/>
    <rect x="-37.4" y="-23.6" width="74.8" height="47.2" id="tool-D14-pad-1669"/>
    <rect x="-39.35" y="-41.35" width="78.7" height="82.7" id="tool-D15-pad-1670"/>
    <rect x="-7.5" y="-10" width="15" height="20" id="tool-D16-pad-1671"/>
    <rect x="-14.55" y="-36.4" width="29.1" height="72.8" id="tool-D17-pad-1672"/>
    <rect x="-39.35" y="-7.85" width="78.7" height="15.7" id="tool-D18-pad-1673"/>
    <rect x="-5.9" y="-23.6" width="11.8" height="47.2" id="tool-D19-pad-1674"/>
    <rect x="-23.6" y="-5.9" width="47.2" height="11.8" id="tool-D20-pad-1675"/>
    <rect x="-11.8" y="-4.9" width="23.6" height="9.8" id="tool-D21-pad-1676"/>
    <rect x="-14.75" y="-23.6" width="29.5" height="47.2" id="tool-D22-pad-1677"/>
    <rect x="-10" y="-7.5" width="20" height="15" id="tool-D23-pad-1678"/>
    <rect x="-15" y="-12.5" width="30" height="25" id="tool-D24-pad-1679"/>
    <rect x="-16.75" y="-6.9" width="33.5" height="13.8" id="tool-D25-pad-1680"/>
    <rect x="-6.9" y="-15.75" width="13.8" height="31.5" id="tool-D26-pad-1681"/>
    <rect x="-12.5" y="-15" width="25" height="30" id="tool-D27-pad-1682"/>
    <rect x="-5.9" y="-8.25" width="11.8" height="16.5" id="tool-D28-pad-1683"/>
    <rect x="-8.25" y="-5.9" width="16.5" height="11.8" id="tool-D29-pad-1684"/>
    <g fill="currentColor" stroke="currentColor" id="top-tsp_3">
      <use x="2263" y="4258.2" xlink:href="#tool-D10-pad-1665"/>
      <use x="2263" y="4307.4" xlink:href="#tool-D10-pad-1665"/>
      <use x="2263" y="4356.6" xlink:href="#tool-D10-pad-1665"/>
      <use x="2263" y="4405.8" xlink:href="#tool-D10-pad-1665"/>
      <use x="2063" y="4158" xlink:href="#tool-D11-pad-1666"/>
      <use x="2063" y="4506" xlink:href="#tool-D11-pad-1666"/>
      <use x="2183" y="4878.2" xlink:href="#tool-D12-pad-1667"/>
      <use x="2183" y="4852.6" xlink:href="#tool-D12-pad-1667"/>
      <use x="2183" y="4827" xlink:href="#tool-D12-pad-1667"/>
      <use x="2183" y="4801.4" xlink:href="#tool-D12-pad-1667"/>
      <use x="2183" y="4775.8" xlink:href="#tool-D12-pad-1667"/>
      <use x="2077.7" y="4665.6" xlink:href="#tool-D13-pad-1668"/>
      <use x="2077.7" y="4988.4" xlink:href="#tool-D13-pad-1668"/>
      <use x="2077.7" y="4860.5" xlink:href="#tool-D14-pad-1669"/>
      <use x="2077.7" y="4793.5" xlink:href="#tool-D14-pad-1669"/>
      <use x="2170.2" y="4949" xlink:href="#tool-D15-pad-1670"/>
      <use x="2170.2" y="4705" xlink:href="#tool-D15-pad-1670"/>
      <use x="2926" y="4679" xlink:href="#tool-D16-pad-1671"/>
      <use x="2886" y="4679" xlink:href="#tool-D16-pad-1671"/>
      <use x="2371" y="4264" xlink:href="#tool-D16-pad-1671"/>
      <use x="2411" y="4264" xlink:href="#tool-D16-pad-1671"/>
      <use x="2472" y="4263" xlink:href="#tool-D16-pad-1671"/>
      <use x="2512" y="4263" xlink:href="#tool-D16-pad-1671"/>
      <use x="2371" y="4304" xlink:href="#tool-D16-pad-1671"/>
      <use x="2411" y="4304" xlink:href="#tool-D16-pad-1671"/>
      <use x="2970" y="4150" xlink:href="#tool-D16-pad-1671"/>
      <use x="2930" y="4150" xlink:href="#tool-D16-pad-1671"/>
      <use x="2670" y="4405" xlink:href="#tool-D16-pad-1671"/>
      <use x="2630" y="4405" xlink:href="#tool-D16-pad-1671"/>
      <use x="2434" y="4855" xlink:href="#tool-D16-pad-1671"/>
      <use x="2474" y="4855" xlink:href="#tool-D16-pad-1671"/>
      <use x="2330" y="4537" xlink:href="#tool-D16-pad-1671"/>
      <use x="2290" y="4537" xlink:href="#tool-D16-pad-1671"/>
      <use x="2330" y="4576" xlink:href="#tool-D16-pad-1671"/>
      <use x="2290" y="4576" xlink:href="#tool-D16-pad-1671"/>
      <use x="2970" y="4850" xlink:href="#tool-D16-pad-1671"/>
      <use x="2930" y="4850" xlink:href="#tool-D16-pad-1671"/>
      <use x="3132" y="4619" xlink:href="#tool-D16-pad-1671"/>
      <use x="3172" y="4619" xlink:href="#tool-D16-pad-1671"/>
      <use x="2330" y="4621" xlink:href="#tool-D16-pad-1671"/>
      <use x="2290" y="4621" xlink:href="#tool-D16-pad-1671"/>
      <use x="2522" y="4855" xlink:href="#tool-D16-pad-1671"/>
      <use x="2562" y="4855" xlink:href="#tool-D16-pad-1671"/>
      <use x="2817" y="4526" xlink:href="#tool-D16-pad-1671"/>
      <use x="2777" y="4526" xlink:href="#tool-D16-pad-1671"/>
      <use x="2817" y="4561" xlink:href="#tool-D16-pad-1671"/>
      <use x="2777" y="4561" xlink:href="#tool-D16-pad-1671"/>
      <use x="2817" y="4596" xlink:href="#tool-D16-pad-1671"/>
      <use x="2777" y="4596" xlink:href="#tool-D16-pad-1671"/>
      <use x="2305" y="4986.3" xlink:href="#tool-D17-pad-1672"/>
      <use x="2305" y="5153.7" xlink:href="#tool-D17-pad-1672"/>
      <use x="2355" y="4986.3" xlink:href="#tool-D17-pad-1672"/>
      <use x="2355" y="5153.7" xlink:href="#tool-D17-pad-1672"/>
      <use x="2405" y="4986.3" xlink:href="#tool-D17-pad-1672"/>
      <use x="2405" y="5153.7" xlink:href="#tool-D17-pad-1672"/>
      <use x="2455" y="4986.3" xlink:href="#tool-D17-pad-1672"/>
      <use x="2505" y="4986.3" xlink:href="#tool-D17-pad-1672"/>
      <use x="2455" y="5153.7" xlink:href="#tool-D17-pad-1672"/>
      <use x="2505" y="5153.7" xlink:href="#tool-D17-pad-1672"/>
      <use x="2295" y="4762.2" xlink:href="#tool-D18-pad-1673"/>
      <use x="2295" y="4715" xlink:href="#tool-D18-pad-1673"/>
      <use x="2295" y="4667.8" xlink:href="#tool-D18-pad-1673"/>
      <use x="2443.7" y="4797.3" xlink:href="#tool-D19-pad-1674"/>
      <use x="2463.4" y="4797.3" xlink:href="#tool-D19-pad-1674"/>
      <use x="2483.1" y="4797.3" xlink:href="#tool-D19-pad-1674"/>
      <use x="2502.8" y="4797.3" xlink:href="#tool-D19-pad-1674"/>
      <use x="2522.5" y="4797.3" xlink:href="#tool-D19-pad-1674"/>
      <use x="2542.2" y="4797.3" xlink:href="#tool-D19-pad-1674"/>
      <use x="2561.8" y="4797.3" xlink:href="#tool-D19-pad-1674"/>
      <use x="2581.5" y="4797.3" xlink:href="#tool-D19-pad-1674"/>
      <use x="2601.2" y="4797.3" xlink:href="#tool-D19-pad-1674"/>
      <use x="2620.9" y="4797.3" xlink:href="#tool-D19-pad-1674"/>
      <use x="2640.6" y="4797.3" xlink:href="#tool-D19-pad-1674"/>
      <use x="2660.3" y="4797.3" xlink:href="#tool-D19-pad-1674"/>
      <use x="2443.7" y="4462.7" xlink:href="#tool-D19-pad-1674"/>
      <use x="2463.4" y="4462.7" xlink:href="#tool-D19-pad-1674"/>
      <use x="2483.1" y="4462.7" xlink:href="#tool-D19-pad-1674"/>
      <use x="2502.8" y="4462.7" xlink:href="#tool-D19-pad-1674"/>
      <use x="2522.5" y="4462.7" xlink:href="#tool-D19-pad-1674"/>
      <use x="2542.2" y="4462.7" xlink:href="#tool-D19-pad-1674"/>
      <use x="2561.8" y="4462.7" xlink:href="#tool-D19-pad-1674"/>
      <use x="2581.5" y="4462.7" xlink:href="#tool-D19-pad-1674"/>
      <use x="2601.2" y="4462.7" xlink:href="#tool-D19-pad-1674"/>
      <use x="2620.9" y="4462.7" xlink:href="#tool-D19-pad-1674"/>
      <use x="2640.6" y="4462.7" xlink:href="#tool-D19-pad-1674"/>
      <use x="2660.3" y="4462.7" xlink:href="#tool-D19-pad-1674"/>
      <use x="2384.7" y="4738.3" xlink:href="#tool-D20-pad-1675"/>
      <use x="2384.7" y="4718.6" xlink:href="#tool-D20-pad-1675"/>
      <use x="2384.7" y="4698.9" xlink:href="#tool-D20-pad-1675"/>
      <use x="2384.7" y="4679.2" xlink:href="#tool-D20-pad-1675"/>
      <use x="2384.7" y="4659.5" xlink:href="#tool-D20-pad-1675"/>
      <use x="2384.7" y="4639.8" xlink:href="#tool-D20-pad-1675"/>
      <use x="2384.7" y="4620.2" xlink:href="#tool-D20-pad-1675"/>
      <use x="2384.7" y="4600.5" xlink:href="#tool-D20-pad-1675"/>
      <use x="2384.7" y="4580.8" xlink:href="#tool-D20-pad-1675"/>
      <use x="2384.7" y="4561.1" xlink:href="#tool-D20-pad-1675"/>
      <use x="2384.7" y="4541.4" xlink:href="#tool-D20-pad-1675"/>
      <use x="2384.7" y="4521.7" xlink:href="#tool-D20-pad-1675"/>
      <use x="2719.3" y="4521.7" xlink:href="#tool-D20-pad-1675"/>
      <use x="2719.3" y="4541.4" xlink:href="#tool-D20-pad-1675"/>
      <use x="2719.3" y="4561.1" xlink:href="#tool-D20-pad-1675"/>
      <use x="2719.3" y="4580.8" xlink:href="#tool-D20-pad-1675"/>
      <use x="2719.3" y="4600.5" xlink:href="#tool-D20-pad-1675"/>
      <use x="2719.3" y="4620.2" xlink:href="#tool-D20-pad-1675"/>
      <use x="2719.3" y="4639.8" xlink:href="#tool-D20-pad-1675"/>
      <use x="2719.3" y="4659.5" xlink:href="#tool-D20-pad-1675"/>
      <use x="2719.3" y="4679.2" xlink:href="#tool-D20-pad-1675"/>
      <use x="2719.3" y="4698.9" xlink:href="#tool-D20-pad-1675"/>
      <use x="2719.3" y="4718.6" xlink:href="#tool-D20-pad-1675"/>
      <use x="2719.3" y="4738.3" xlink:href="#tool-D20-pad-1675"/>
      <use x="2590.3" y="4154.4" xlink:href="#tool-D21-pad-1676"/>
      <use x="2590.3" y="4180" xlink:href="#tool-D21-pad-1676"/>
      <use x="2590.3" y="4205.6" xlink:href="#tool-D21-pad-1676"/>
      <use x="2499.7" y="4205.6" xlink:href="#tool-D21-pad-1676"/>
      <use x="2499.7" y="4180" xlink:href="#tool-D21-pad-1676"/>
      <use x="2499.7" y="4154.4" xlink:href="#tool-D21-pad-1676"/>
      <use x="2545" y="4180" xlink:href="#tool-D22-pad-1677"/>
      <use x="2705" y="4150" xlink:href="#tool-D23-pad-1678"/>
      <use x="2705" y="4190" xlink:href="#tool-D23-pad-1678"/>
      <use x="2332" y="4264" xlink:href="#tool-D23-pad-1678"/>
      <use x="2332" y="4304" xlink:href="#tool-D23-pad-1678"/>
      <use x="2409" y="4405" xlink:href="#tool-D23-pad-1678"/>
      <use x="2409" y="4365" xlink:href="#tool-D23-pad-1678"/>
      <use x="2373" y="4405" xlink:href="#tool-D23-pad-1678"/>
      <use x="2373" y="4365" xlink:href="#tool-D23-pad-1678"/>
      <use x="2895" y="4150" xlink:href="#tool-D23-pad-1678"/>
      <use x="2895" y="4190" xlink:href="#tool-D23-pad-1678"/>
      <use x="3005" y="4150" xlink:href="#tool-D23-pad-1678"/>
      <use x="3005" y="4190" xlink:href="#tool-D23-pad-1678"/>
      <use x="3171" y="4357" xlink:href="#tool-D23-pad-1678"/>
      <use x="3171" y="4317" xlink:href="#tool-D23-pad-1678"/>
      <use x="2780" y="4750" xlink:href="#tool-D23-pad-1678"/>
      <use x="2780" y="4710" xlink:href="#tool-D23-pad-1678"/>
      <use x="2468" y="4365" xlink:href="#tool-D23-pad-1678"/>
      <use x="2468" y="4405" xlink:href="#tool-D23-pad-1678"/>
      <use x="2911" y="4386" xlink:href="#tool-D23-pad-1678"/>
      <use x="2911" y="4346" xlink:href="#tool-D23-pad-1678"/>
      <use x="2503" y="4365" xlink:href="#tool-D23-pad-1678"/>
      <use x="2503" y="4405" xlink:href="#tool-D23-pad-1678"/>
      <use x="2538" y="4365" xlink:href="#tool-D23-pad-1678"/>
      <use x="2538" y="4405" xlink:href="#tool-D23-pad-1678"/>
      <use x="2895" y="4850" xlink:href="#tool-D23-pad-1678"/>
      <use x="2895" y="4810" xlink:href="#tool-D23-pad-1678"/>
      <use x="3005" y="4850" xlink:href="#tool-D23-pad-1678"/>
      <use x="3005" y="4810" xlink:href="#tool-D23-pad-1678"/>
      <use x="2337" y="4405" xlink:href="#tool-D23-pad-1678"/>
      <use x="2337" y="4365" xlink:href="#tool-D23-pad-1678"/>
      <use x="2655" y="4155" xlink:href="#tool-D24-pad-1679"/>
      <use x="2655" y="4205" xlink:href="#tool-D24-pad-1679"/>
      <use x="2440" y="4155" xlink:href="#tool-D24-pad-1679"/>
      <use x="2440" y="4205" xlink:href="#tool-D24-pad-1679"/>
      <use x="2850" y="4155" xlink:href="#tool-D24-pad-1679"/>
      <use x="2850" y="4205" xlink:href="#tool-D24-pad-1679"/>
      <use x="2850" y="4845" xlink:href="#tool-D24-pad-1679"/>
      <use x="2850" y="4795" xlink:href="#tool-D24-pad-1679"/>
      <use x="3153" y="4674" xlink:href="#tool-D24-pad-1679"/>
      <use x="3153" y="4724" xlink:href="#tool-D24-pad-1679"/>
      <use x="2963.2" y="4336.8" xlink:href="#tool-D25-pad-1680"/>
      <use x="2963.2" y="4356.5" xlink:href="#tool-D25-pad-1680"/>
      <use x="2963.2" y="4376.2" xlink:href="#tool-D25-pad-1680"/>
      <use x="2963.2" y="4395.8" xlink:href="#tool-D25-pad-1680"/>
      <use x="2963.2" y="4415.5" xlink:href="#tool-D25-pad-1680"/>
      <use x="2963.2" y="4435.2" xlink:href="#tool-D25-pad-1680"/>
      <use x="3118.8" y="4336.8" xlink:href="#tool-D25-pad-1680"/>
      <use x="3118.8" y="4356.5" xlink:href="#tool-D25-pad-1680"/>
      <use x="3118.8" y="4376.2" xlink:href="#tool-D25-pad-1680"/>
      <use x="3118.8" y="4395.8" xlink:href="#tool-D25-pad-1680"/>
      <use x="3118.8" y="4415.5" xlink:href="#tool-D25-pad-1680"/>
      <use x="3118.8" y="4435.2" xlink:href="#tool-D25-pad-1680"/>
      <use x="2991.8" y="4307.3" xlink:href="#tool-D26-pad-1681"/>
      <use x="3011.5" y="4307.3" xlink:href="#tool-D26-pad-1681"/>
      <use x="3031.2" y="4307.3" xlink:href="#tool-D26-pad-1681"/>
      <use x="3050.8" y="4307.3" xlink:href="#tool-D26-pad-1681"/>
      <use x="3070.5" y="4307.3" xlink:href="#tool-D26-pad-1681"/>
      <use x="3090.2" y="4307.3" xlink:href="#tool-D26-pad-1681"/>
      <use x="3090.2" y="4464.7" xlink:href="#tool-D26-pad-1681"/>
      <use x="3070.5" y="4464.7" xlink:href="#tool-D26-pad-1681"/>
      <use x="3050.8" y="4464.7" xlink:href="#tool-D26-pad-1681"/>
      <use x="3031.2" y="4464.7" xlink:href="#tool-D26-pad-1681"/>
      <use x="3011.5" y="4464.7" xlink:href="#tool-D26-pad-1681"/>
      <use x="2991.8" y="4464.7" xlink:href="#tool-D26-pad-1681"/>
      <use x="2383" y="4855" xlink:href="#tool-D27-pad-1682"/>
      <use x="2333" y="4855" xlink:href="#tool-D27-pad-1682"/>
      <use x="3028.2" y="4719.2" xlink:href="#tool-D28-pad-1683"/>
      <use x="3047.8" y="4719.2" xlink:href="#tool-D28-pad-1683"/>
      <use x="3067.5" y="4719" xlink:href="#tool-D28-pad-1683"/>
      <use x="3047.8" y="4618.8" xlink:href="#tool-D28-pad-1683"/>
      <use x="3028.2" y="4618.8" xlink:href="#tool-D28-pad-1683"/>
      <use x="3008.5" y="4618.8" xlink:href="#tool-D28-pad-1683"/>
      <use x="3067.5" y="4618.8" xlink:href="#tool-D28-pad-1683"/>
      <use x="3008.5" y="4719.2" xlink:href="#tool-D28-pad-1683"/>
      <use x="3088.2" y="4678.8" xlink:href="#tool-D29-pad-1684"/>
      <use x="3088.2" y="4659.2" xlink:href="#tool-D29-pad-1684"/>
      <use x="3088.2" y="4639.5" xlink:href="#tool-D29-pad-1684"/>
      <use x="2987.8" y="4659.2" xlink:href="#tool-D29-pad-1684"/>
      <use x="2987.8" y="4678.8" xlink:href="#tool-D29-pad-1684"/>
      <use x="2987.8" y="4698.5" xlink:href="#tool-D29-pad-1684"/>
      <use x="2987.8" y="4639.5" xlink:href="#tool-D29-pad-1684"/>
      <use x="3088.2" y="4698.5" xlink:href="#tool-D29-pad-1684"/>
    </g>
    <rect x="-38" y="-17.5" width="76" height="35" id="tool-D49-pad-1743"/>
    <rect x="-53.7" y="-41.85" width="107.4" height="83.7" id="tool-D50-pad-1744"/>
    <rect x="-29.1" y="-10.35" width="58.2" height="20.7" id="tool-D51-pad-1745"/>
    <rect x="-39.9" y="-34" width="79.8" height="68" id="tool-D52-pad-1746"/>
    <rect x="-39.9" y="-26.1" width="79.8" height="52.2" id="tool-D53-pad-1747"/>
    <rect x="-41.85" y="-43.85" width="83.7" height="87.7" id="tool-D54-pad-1748"/>
    <rect x="-10" y="-12.5" width="20" height="25" id="tool-D55-pad-1749"/>
    <rect x="-17.05" y="-38.9" width="34.1" height="77.8" id="tool-D56-pad-1750"/>
    <rect x="-41.85" y="-10.35" width="83.7" height="20.7" id="tool-D57-pad-1751"/>
    <rect x="-8.4" y="-26.1" width="16.8" height="52.2" id="tool-D58-pad-1752"/>
    <rect x="-26.1" y="-8.4" width="52.2" height="16.8" id="tool-D59-pad-1753"/>
    <rect x="-14.3" y="-7.4" width="28.6" height="14.8" id="tool-D60-pad-1754"/>
    <rect x="-17.25" y="-26.1" width="34.5" height="52.2" id="tool-D61-pad-1755"/>
    <rect x="-9.5" y="-12" width="19" height="24" id="tool-D62-pad-1756"/>
    <rect x="-12.5" y="-10" width="25" height="20" id="tool-D63-pad-1757"/>
    <rect x="-17.5" y="-15" width="35" height="30" id="tool-D64-pad-1758"/>
    <rect x="-18.75" y="-8.9" width="37.5" height="17.8" id="tool-D65-pad-1759"/>
    <rect x="-8.9" y="-17.75" width="17.8" height="35.5" id="tool-D66-pad-1760"/>
    <rect x="-15" y="-17.5" width="30" height="35" id="tool-D67-pad-1761"/>
    <rect x="-7.9" y="-10.3" width="15.8" height="20.6" id="tool-D68-pad-1762"/>
    <rect x="-10.3" y="-7.9" width="20.6" height="15.8" id="tool-D69-pad-1763"/>
    <circle cx="0" cy="0" r="24.15" id="tool-D70-pad-1764"/>
    <circle cx="0" cy="0" r="32.55" id="tool-D71-pad-1765"/>
    <rect x="-32.55" y="-32.55" width="65.1" height="65.1" id="tool-D72-pad-1766"/>
    <circle cx="0" cy="0" r="20.7" id="tool-D73-pad-1767"/>
    <circle cx="0" cy="0" r="66.5" id="tool-D74-pad-1768"/>
    <g fill="currentColor" stroke="currentColor" id="top-tsm_4">
      <use x="2263" y="4258.2" xlink:href="#tool-D49-pad-1743"/>
      <use x="2263" y="4307.4" xlink:href="#tool-D49-pad-1743"/>
      <use x="2263" y="4356.6" xlink:href="#tool-D49-pad-1743"/>
      <use x="2263" y="4405.8" xlink:href="#tool-D49-pad-1743"/>
      <use x="2063" y="4158" xlink:href="#tool-D50-pad-1744"/>
      <use x="2063" y="4506" xlink:href="#tool-D50-pad-1744"/>
      <use x="2183" y="4878.2" xlink:href="#tool-D51-pad-1745"/>
      <use x="2183" y="4852.6" xlink:href="#tool-D51-pad-1745"/>
      <use x="2183" y="4827" xlink:href="#tool-D51-pad-1745"/>
      <use x="2183" y="4801.4" xlink:href="#tool-D51-pad-1745"/>
      <use x="2183" y="4775.8" xlink:href="#tool-D51-pad-1745"/>
      <use x="2077.7" y="4665.6" xlink:href="#tool-D52-pad-1746"/>
      <use x="2077.7" y="4988.4" xlink:href="#tool-D52-pad-1746"/>
      <use x="2077.7" y="4860.5" xlink:href="#tool-D53-pad-1747"/>
      <use x="2077.7" y="4793.5" xlink:href="#tool-D53-pad-1747"/>
      <use x="2170.2" y="4949" xlink:href="#tool-D54-pad-1748"/>
      <use x="2170.2" y="4705" xlink:href="#tool-D54-pad-1748"/>
      <use x="2926" y="4679" xlink:href="#tool-D55-pad-1749"/>
      <use x="2886" y="4679" xlink:href="#tool-D55-pad-1749"/>
      <use x="2472" y="4263" xlink:href="#tool-D55-pad-1749"/>
      <use x="2512" y="4263" xlink:href="#tool-D55-pad-1749"/>
      <use x="2670" y="4405" xlink:href="#tool-D55-pad-1749"/>
      <use x="2630" y="4405" xlink:href="#tool-D55-pad-1749"/>
      <use x="2434" y="4855" xlink:href="#tool-D55-pad-1749"/>
      <use x="2474" y="4855" xlink:href="#tool-D55-pad-1749"/>
      <use x="2330" y="4537" xlink:href="#tool-D55-pad-1749"/>
      <use x="2290" y="4537" xlink:href="#tool-D55-pad-1749"/>
      <use x="2330" y="4576" xlink:href="#tool-D55-pad-1749"/>
      <use x="2290" y="4576" xlink:href="#tool-D55-pad-1749"/>
      <use x="3132" y="4619" xlink:href="#tool-D55-pad-1749"/>
      <use x="3172" y="4619" xlink:href="#tool-D55-pad-1749"/>
      <use x="2330" y="4621" xlink:href="#tool-D55-pad-1749"/>
      <use x="2290" y="4621" xlink:href="#tool-D55-pad-1749"/>
      <use x="2522" y="4855" xlink:href="#tool-D55-pad-1749"/>
      <use x="2562" y="4855" xlink:href="#tool-D55-pad-1749"/>
      <use x="2817" y="4526" xlink:href="#tool-D55-pad-1749"/>
      <use x="2777" y="4526" xlink:href="#tool-D55-pad-1749"/>
      <use x="2817" y="4561" xlink:href="#tool-D55-pad-1749"/>
      <use x="2777" y="4561" xlink:href="#tool-D55-pad-1749"/>
      <use x="2817" y="4596" xlink:href="#tool-D55-pad-1749"/>
      <use x="2777" y="4596" xlink:href="#tool-D55-pad-1749"/>
      <use x="2305" y="4986.3" xlink:href="#tool-D56-pad-1750"/>
      <use x="2305" y="5153.7" xlink:href="#tool-D56-pad-1750"/>
      <use x="2355" y="4986.3" xlink:href="#tool-D56-pad-1750"/>
      <use x="2355" y="5153.7" xlink:href="#tool-D56-pad-1750"/>
      <use x="2405" y="4986.3" xlink:href="#tool-D56-pad-1750"/>
      <use x="2405" y="5153.7" xlink:href="#tool-D56-pad-1750"/>
      <use x="2455" y="4986.3" xlink:href="#tool-D56-pad-1750"/>
      <use x="2505" y="4986.3" xlink:href="#tool-D56-pad-1750"/>
      <use x="2455" y="5153.7" xlink:href="#tool-D56-pad-1750"/>
      <use x="2505" y="5153.7" xlink:href="#tool-D56-pad-1750"/>
      <use x="2295" y="4762.2" xlink:href="#tool-D57-pad-1751"/>
      <use x="2295" y="4715" xlink:href="#tool-D57-pad-1751"/>
      <use x="2295" y="4667.8" xlink:href="#tool-D57-pad-1751"/>
      <use x="2443.7" y="4797.3" xlink:href="#tool-D58-pad-1752"/>
      <use x="2463.4" y="4797.3" xlink:href="#tool-D58-pad-1752"/>
      <use x="2483.1" y="4797.3" xlink:href="#tool-D58-pad-1752"/>
      <use x="2502.8" y="4797.3" xlink:href="#tool-D58-pad-1752"/>
      <use x="2522.5" y="4797.3" xlink:href="#tool-D58-pad-1752"/>
      <use x="2542.2" y="4797.3" xlink:href="#tool-D58-pad-1752"/>
      <use x="2561.8" y="4797.3" xlink:href="#tool-D58-pad-1752"/>
      <use x="2581.5" y="4797.3" xlink:href="#tool-D58-pad-1752"/>
      <use x="2601.2" y="4797.3" xlink:href="#tool-D58-pad-1752"/>
      <use x="2620.9" y="4797.3" xlink:href="#tool-D58-pad-1752"/>
      <use x="2640.6" y="4797.3" xlink:href="#tool-D58-pad-1752"/>
      <use x="2660.3" y="4797.3" xlink:href="#tool-D58-pad-1752"/>
      <use x="2443.7" y="4462.7" xlink:href="#tool-D58-pad-1752"/>
      <use x="2463.4" y="4462.7" xlink:href="#tool-D58-pad-1752"/>
      <use x="2483.1" y="4462.7" xlink:href="#tool-D58-pad-1752"/>
      <use x="2502.8" y="4462.7" xlink:href="#tool-D58-pad-1752"/>
      <use x="2522.5" y="4462.7" xlink:href="#tool-D58-pad-1752"/>
      <use x="2542.2" y="4462.7" xlink:href="#tool-D58-pad-1752"/>
      <use x="2561.8" y="4462.7" xlink:href="#tool-D58-pad-1752"/>
      <use x="2581.5" y="4462.7" xlink:href="#tool-D58-pad-1752"/>
      <use x="2601.2" y="4462.7" xlink:href="#tool-D58-pad-1752"/>
      <use x="2620.9" y="4462.7" xlink:href="#tool-D58-pad-1752"/>
      <use x="2640.6" y="4462.7" xlink:href="#tool-D58-pad-1752"/>
      <use x="2660.3" y="4462.7" xlink:href="#tool-D58-pad-1752"/>
      <use x="2384.7" y="4738.3" xlink:href="#tool-D59-pad-1753"/>
      <use x="2384.7" y="4718.6" xlink:href="#tool-D59-pad-1753"/>
      <use x="2384.7" y="4698.9" xlink:href="#tool-D59-pad-1753"/>
      <use x="2384.7" y="4679.2" xlink:href="#tool-D59-pad-1753"/>
      <use x="2384.7" y="4659.5" xlink:href="#tool-D59-pad-1753"/>
      <use x="2384.7" y="4639.8" xlink:href="#tool-D59-pad-1753"/>
      <use x="2384.7" y="4620.2" xlink:href="#tool-D59-pad-1753"/>
      <use x="2384.7" y="4600.5" xlink:href="#tool-D59-pad-1753"/>
      <use x="2384.7" y="4580.8" xlink:href="#tool-D59-pad-1753"/>
      <use x="2384.7" y="4561.1" xlink:href="#tool-D59-pad-1753"/>
      <use x="2384.7" y="4541.4" xlink:href="#tool-D59-pad-1753"/>
      <use x="2384.7" y="4521.7" xlink:href="#tool-D59-pad-1753"/>
      <use x="2719.3" y="4521.7" xlink:href="#tool-D59-pad-1753"/>
      <use x="2719.3" y="4541.4" xlink:href="#tool-D59-pad-1753"/>
      <use x="2719.3" y="4561.1" xlink:href="#tool-D59-pad-1753"/>
      <use x="2719.3" y="4580.8" xlink:href="#tool-D59-pad-1753"/>
      <use x="2719.3" y="4600.5" xlink:href="#tool-D59-pad-1753"/>
      <use x="2719.3" y="4620.2" xlink:href="#tool-D59-pad-1753"/>
      <use x="2719.3" y="4639.8" xlink:href="#tool-D59-pad-1753"/>
      <use x="2719.3" y="4659.5" xlink:href="#tool-D59-pad-1753"/>
      <use x="2719.3" y="4679.2" xlink:href="#tool-D59-pad-1753"/>
      <use x="2719.3" y="4698.9" xlink:href="#tool-D59-pad-1753"/>
      <use x="2719.3" y="4718.6" xlink:href="#tool-D59-pad-1753"/>
      <use x="2719.3" y="4738.3" xlink:href="#tool-D59-pad-1753"/>
      <use x="2590.3" y="4154.4" xlink:href="#tool-D60-pad-1754"/>
      <use x="2590.3" y="4180" xlink:href="#tool-D60-pad-1754"/>
      <use x="2590.3" y="4205.6" xlink:href="#tool-D60-pad-1754"/>
      <use x="2499.7" y="4205.6" xlink:href="#tool-D60-pad-1754"/>
      <use x="2499.7" y="4180" xlink:href="#tool-D60-pad-1754"/>
      <use x="2499.7" y="4154.4" xlink:href="#tool-D60-pad-1754"/>
      <use x="2545" y="4180" xlink:href="#tool-D61-pad-1755"/>
      <use x="2371" y="4264" xlink:href="#tool-D62-pad-1756"/>
      <use x="2411" y="4264" xlink:href="#tool-D62-pad-1756"/>
      <use x="2371" y="4304" xlink:href="#tool-D62-pad-1756"/>
      <use x="2411" y="4304" xlink:href="#tool-D62-pad-1756"/>
      <use x="2970" y="4150" xlink:href="#tool-D62-pad-1756"/>
      <use x="2930" y="4150" xlink:href="#tool-D62-pad-1756"/>
      <use x="2970" y="4850" xlink:href="#tool-D62-pad-1756"/>
      <use x="2930" y="4850" xlink:href="#tool-D62-pad-1756"/>
      <use x="2705" y="4150" xlink:href="#tool-D63-pad-1757"/>
      <use x="2705" y="4190" xlink:href="#tool-D63-pad-1757"/>
      <use x="2332" y="4264" xlink:href="#tool-D63-pad-1757"/>
      <use x="2332" y="4304" xlink:href="#tool-D63-pad-1757"/>
      <use x="2409" y="4405" xlink:href="#tool-D63-pad-1757"/>
      <use x="2409" y="4365" xlink:href="#tool-D63-pad-1757"/>
      <use x="2373" y="4405" xlink:href="#tool-D63-pad-1757"/>
      <use x="2373" y="4365" xlink:href="#tool-D63-pad-1757"/>
      <use x="2895" y="4150" xlink:href="#tool-D63-pad-1757"/>
      <use x="2895" y="4190" xlink:href="#tool-D63-pad-1757"/>
      <use x="3005" y="4150" xlink:href="#tool-D63-pad-1757"/>
      <use x="3005" y="4190" xlink:href="#tool-D63-pad-1757"/>
      <use x="3171" y="4357" xlink:href="#tool-D63-pad-1757"/>
      <use x="3171" y="4317" xlink:href="#tool-D63-pad-1757"/>
      <use x="2780" y="4750" xlink:href="#tool-D63-pad-1757"/>
      <use x="2780" y="4710" xlink:href="#tool-D63-pad-1757"/>
      <use x="2468" y="4365" xlink:href="#tool-D63-pad-1757"/>
      <use x="2468" y="4405" xlink:href="#tool-D63-pad-1757"/>
      <use x="2911" y="4386" xlink:href="#tool-D63-pad-1757"/>
      <use x="2911" y="4346" xlink:href="#tool-D63-pad-1757"/>
      <use x="2503" y="4365" xlink:href="#tool-D63-pad-1757"/>
      <use x="2503" y="4405" xlink:href="#tool-D63-pad-1757"/>
      <use x="2538" y="4365" xlink:href="#tool-D63-pad-1757"/>
      <use x="2538" y="4405" xlink:href="#tool-D63-pad-1757"/>
      <use x="2895" y="4850" xlink:href="#tool-D63-pad-1757"/>
      <use x="2895" y="4810" xlink:href="#tool-D63-pad-1757"/>
      <use x="3005" y="4850" xlink:href="#tool-D63-pad-1757"/>
      <use x="3005" y="4810" xlink:href="#tool-D63-pad-1757"/>
      <use x="2337" y="4405" xlink:href="#tool-D63-pad-1757"/>
      <use x="2337" y="4365" xlink:href="#tool-D63-pad-1757"/>
      <use x="2655" y="4155" xlink:href="#tool-D64-pad-1758"/>
      <use x="2655" y="4205" xlink:href="#tool-D64-pad-1758"/>
      <use x="2440" y="4155" xlink:href="#tool-D64-pad-1758"/>
      <use x="2440" y="4205" xlink:href="#tool-D64-pad-1758"/>
      <use x="2850" y="4155" xlink:href="#tool-D64-pad-1758"/>
      <use x="2850" y="4205" xlink:href="#tool-D64-pad-1758"/>
      <use x="2850" y="4845" xlink:href="#tool-D64-pad-1758"/>
      <use x="2850" y="4795" xlink:href="#tool-D64-pad-1758"/>
      <use x="3153" y="4674" xlink:href="#tool-D64-pad-1758"/>
      <use x="3153" y="4724" xlink:href="#tool-D64-pad-1758"/>
      <use x="2963.2" y="4336.8" xlink:href="#tool-D65-pad-1759"/>
      <use x="2963.2" y="4356.5" xlink:href="#tool-D65-pad-1759"/>
      <use x="2963.2" y="4376.2" xlink:href="#tool-D65-pad-1759"/>
      <use x="2963.2" y="4395.8" xlink:href="#tool-D65-pad-1759"/>
      <use x="2963.2" y="4415.5" xlink:href="#tool-D65-pad-1759"/>
      <use x="2963.2" y="4435.2" xlink:href="#tool-D65-pad-1759"/>
      <use x="3118.8" y="4336.8" xlink:href="#tool-D65-pad-1759"/>
      <use x="3118.8" y="4356.5" xlink:href="#tool-D65-pad-1759"/>
      <use x="3118.8" y="4376.2" xlink:href="#tool-D65-pad-1759"/>
      <use x="3118.8" y="4395.8" xlink:href="#tool-D65-pad-1759"/>
      <use x="3118.8" y="4415.5" xlink:href="#tool-D65-pad-1759"/>
      <use x="3118.8" y="4435.2" xlink:href="#tool-D65-pad-1759"/>
      <use x="2991.8" y="4307.3" xlink:href="#tool-D66-pad-1760"/>
      <use x="3011.5" y="4307.3" xlink:href="#tool-D66-pad-1760"/>
      <use x="3031.2" y="4307.3" xlink:href="#tool-D66-pad-1760"/>
      <use x="3050.8" y="4307.3" xlink:href="#tool-D66-pad-1760"/>
      <use x="3070.5" y="4307.3" xlink:href="#tool-D66-pad-1760"/>
      <use x="3090.2" y="4307.3" xlink:href="#tool-D66-pad-1760"/>
      <use x="3090.2" y="4464.7" xlink:href="#tool-D66-pad-1760"/>
      <use x="3070.5" y="4464.7" xlink:href="#tool-D66-pad-1760"/>
      <use x="3050.8" y="4464.7" xlink:href="#tool-D66-pad-1760"/>
      <use x="3031.2" y="4464.7" xlink:href="#tool-D66-pad-1760"/>
      <use x="3011.5" y="4464.7" xlink:href="#tool-D66-pad-1760"/>
      <use x="2991.8" y="4464.7" xlink:href="#tool-D66-pad-1760"/>
      <use x="2383" y="4855" xlink:href="#tool-D67-pad-1761"/>
      <use x="2333" y="4855" xlink:href="#tool-D67-pad-1761"/>
      <use x="3028.2" y="4719.2" xlink:href="#tool-D68-pad-1762"/>
      <use x="3047.8" y="4719.2" xlink:href="#tool-D68-pad-1762"/>
      <use x="3067.5" y="4719" xlink:href="#tool-D68-pad-1762"/>
      <use x="3047.8" y="4618.8" xlink:href="#tool-D68-pad-1762"/>
      <use x="3028.2" y="4618.8" xlink:href="#tool-D68-pad-1762"/>
      <use x="3008.5" y="4618.8" xlink:href="#tool-D68-pad-1762"/>
      <use x="3067.5" y="4618.8" xlink:href="#tool-D68-pad-1762"/>
      <use x="3008.5" y="4719.2" xlink:href="#tool-D68-pad-1762"/>
      <use x="3088.2" y="4678.8" xlink:href="#tool-D69-pad-1763"/>
      <use x="3088.2" y="4659.2" xlink:href="#tool-D69-pad-1763"/>
      <use x="3088.2" y="4639.5" xlink:href="#tool-D69-pad-1763"/>
      <use x="2987.8" y="4659.2" xlink:href="#tool-D69-pad-1763"/>
      <use x="2987.8" y="4678.8" xlink:href="#tool-D69-pad-1763"/>
      <use x="2987.8" y="4698.5" xlink:href="#tool-D69-pad-1763"/>
      <use x="2987.8" y="4639.5" xlink:href="#tool-D69-pad-1763"/>
      <use x="3088.2" y="4698.5" xlink:href="#tool-D69-pad-1763"/>
      <use x="2219.7" y="4159.8" xlink:href="#tool-D70-pad-1764"/>
      <use x="2219.7" y="4504.2" xlink:href="#tool-D70-pad-1764"/>
      <use x="2925" y="5140" xlink:href="#tool-D71-pad-1765"/>
      <use x="2925" y="5040" xlink:href="#tool-D71-pad-1765"/>
      <use x="2825" y="5140" xlink:href="#tool-D71-pad-1765"/>
      <use x="2825" y="5040" xlink:href="#tool-D71-pad-1765"/>
      <use x="2725" y="5140" xlink:href="#tool-D71-pad-1765"/>
      <use x="3025" y="5040" xlink:href="#tool-D71-pad-1765"/>
      <use x="3025" y="5140" xlink:href="#tool-D71-pad-1765"/>
      <use x="2725" y="5040" xlink:href="#tool-D72-pad-1766"/>
      <use x="2330" y="5070" xlink:href="#tool-D73-pad-1767"/>
      <use x="2480" y="5070" xlink:href="#tool-D73-pad-1767"/>
      <use x="2125" y="5130" xlink:href="#tool-D74-pad-1768"/>
      <use x="3130" y="4120" xlink:href="#tool-D74-pad-1768"/>
    </g>
    <circle cx="0" cy="0" r="4" id="tool-T1-pad-1769"/>
    <circle cx="0" cy="0" r="17.7" id="tool-T2-pad-1770"/>
    <circle cx="0" cy="0" r="17.7" id="tool-T3-pad-1771"/>
    <circle cx="0" cy="0" r="21.65" id="tool-T4-pad-1772"/>
    <circle cx="0" cy="0" r="62.5" id="tool-T5-pad-1773"/>
    <g fill="currentColor" stroke="currentColor" id="top-drl_5">
      <use x="2192.6" y="4307.4" xlink:href="#tool-T1-pad-1769"/>
      <use x="2207.4" y="4356.6" xlink:href="#tool-T1-pad-1769"/>
      <use x="2207.4" y="4405.8" xlink:href="#tool-T1-pad-1769"/>
      <use x="2271.7" y="4537" xlink:href="#tool-T1-pad-1769"/>
      <use x="2330" y="4514.7" xlink:href="#tool-T1-pad-1769"/>
      <use x="2366" y="4491" xlink:href="#tool-T1-pad-1769"/>
      <use x="2493" y="4508" xlink:href="#tool-T1-pad-1769"/>
      <use x="2493" y="4532" xlink:href="#tool-T1-pad-1769"/>
      <use x="2601.2" y="4504" xlink:href="#tool-T1-pad-1769"/>
      <use x="2620.9" y="4517" xlink:href="#tool-T1-pad-1769"/>
      <use x="2680.3" y="4462.7" xlink:href="#tool-T1-pad-1769"/>
      <use x="2610" y="4405" xlink:href="#tool-T1-pad-1769"/>
      <use x="2618.4" y="4205.6" xlink:href="#tool-T1-pad-1769"/>
      <use x="2655" y="4230.7" xlink:href="#tool-T1-pad-1769"/>
      <use x="2705" y="4210" xlink:href="#tool-T1-pad-1769"/>
      <use x="2728" y="4150" xlink:href="#tool-T1-pad-1769"/>
      <use x="2767" y="4155" xlink:href="#tool-T1-pad-1769"/>
      <use x="2850" y="4229" xlink:href="#tool-T1-pad-1769"/>
      <use x="2895" y="4209" xlink:href="#tool-T1-pad-1769"/>
      <use x="3005" y="4209" xlink:href="#tool-T1-pad-1769"/>
      <use x="3090" y="4279" xlink:href="#tool-T1-pad-1769"/>
      <use x="2911" y="4327" xlink:href="#tool-T1-pad-1769"/>
      <use x="2841.5" y="4387.5" xlink:href="#tool-T1-pad-1769"/>
      <use x="2880" y="4426" xlink:href="#tool-T1-pad-1769"/>
      <use x="2836" y="4561" xlink:href="#tool-T1-pad-1769"/>
      <use x="2886" y="4657" xlink:href="#tool-T1-pad-1769"/>
      <use x="2951" y="4678.8" xlink:href="#tool-T1-pad-1769"/>
      <use x="2963" y="4618.8" xlink:href="#tool-T1-pad-1769"/>
      <use x="3028.2" y="4592.8" xlink:href="#tool-T1-pad-1769"/>
      <use x="3113" y="4639.5" xlink:href="#tool-T1-pad-1769"/>
      <use x="3112.8" y="4678.8" xlink:href="#tool-T1-pad-1769"/>
      <use x="2771" y="4656" xlink:href="#tool-T1-pad-1769"/>
      <use x="2666" y="4639.8" xlink:href="#tool-T1-pad-1769"/>
      <use x="2678" y="4620.2" xlink:href="#tool-T1-pad-1769"/>
      <use x="2665" y="4600.5" xlink:href="#tool-T1-pad-1769"/>
      <use x="2428.2" y="4620.2" xlink:href="#tool-T1-pad-1769"/>
      <use x="2433" y="4328" xlink:href="#tool-T1-pad-1769"/>
      <use x="2440" y="4230.7" xlink:href="#tool-T1-pad-1769"/>
      <use x="2512" y="4240" xlink:href="#tool-T1-pad-1769"/>
      <use x="2545" y="4232" xlink:href="#tool-T1-pad-1769"/>
      <use x="2332" y="4243" xlink:href="#tool-T1-pad-1769"/>
      <use x="3171" y="4298" xlink:href="#tool-T1-pad-1769"/>
      <use x="3144" y="4464" xlink:href="#tool-T1-pad-1769"/>
      <use x="3153" y="4748.6" xlink:href="#tool-T1-pad-1769"/>
      <use x="3067.5" y="4756" xlink:href="#tool-T1-pad-1769"/>
      <use x="3005" y="4791" xlink:href="#tool-T1-pad-1769"/>
      <use x="2895" y="4791" xlink:href="#tool-T1-pad-1769"/>
      <use x="2850" y="4771" xlink:href="#tool-T1-pad-1769"/>
      <use x="2780" y="4770" xlink:href="#tool-T1-pad-1769"/>
      <use x="2780" y="4690" xlink:href="#tool-T1-pad-1769"/>
      <use x="2768" y="4845" xlink:href="#tool-T1-pad-1769"/>
      <use x="2646" y="4836" xlink:href="#tool-T1-pad-1769"/>
      <use x="2682" y="4796" xlink:href="#tool-T1-pad-1769"/>
      <use x="2631" y="4752" xlink:href="#tool-T1-pad-1769"/>
      <use x="2621" y="4718" xlink:href="#tool-T1-pad-1769"/>
      <use x="2601.2" y="4735" xlink:href="#tool-T1-pad-1769"/>
      <use x="2522.5" y="4756" xlink:href="#tool-T1-pad-1769"/>
      <use x="2424" y="4738.3" xlink:href="#tool-T1-pad-1769"/>
      <use x="2411" y="4855" xlink:href="#tool-T1-pad-1769"/>
      <use x="2474" y="4875.3" xlink:href="#tool-T1-pad-1769"/>
      <use x="2583" y="4892" xlink:href="#tool-T1-pad-1769"/>
      <use x="2505" y="5105" xlink:href="#tool-T1-pad-1769"/>
      <use x="2405" y="5105" xlink:href="#tool-T1-pad-1769"/>
      <use x="2355" y="5105" xlink:href="#tool-T1-pad-1769"/>
      <use x="2305" y="5105" xlink:href="#tool-T1-pad-1769"/>
      <use x="2305" y="5036" xlink:href="#tool-T1-pad-1769"/>
      <use x="2405" y="5036" xlink:href="#tool-T1-pad-1769"/>
      <use x="2308" y="4855" xlink:href="#tool-T1-pad-1769"/>
      <use x="2231.8" y="4878.2" xlink:href="#tool-T1-pad-1769"/>
      <use x="2234" y="4827" xlink:href="#tool-T1-pad-1769"/>
      <use x="2234" y="4801.4" xlink:href="#tool-T1-pad-1769"/>
      <use x="2295" y="4692.7" xlink:href="#tool-T1-pad-1769"/>
      <use x="2115" y="4906" xlink:href="#tool-T1-pad-1769"/>
      <use x="2725" y="5040" xlink:href="#tool-T2-pad-1770"/>
      <use x="2825" y="5040" xlink:href="#tool-T2-pad-1770"/>
      <use x="2925" y="5040" xlink:href="#tool-T2-pad-1770"/>
      <use x="2925" y="5140" xlink:href="#tool-T2-pad-1770"/>
      <use x="2825" y="5140" xlink:href="#tool-T2-pad-1770"/>
      <use x="2725" y="5140" xlink:href="#tool-T2-pad-1770"/>
      <use x="3025" y="5140" xlink:href="#tool-T2-pad-1770"/>
      <use x="3025" y="5040" xlink:href="#tool-T2-pad-1770"/>
      <use x="2330" y="5070" xlink:href="#tool-T3-pad-1771"/>
      <use x="2480" y="5070" xlink:href="#tool-T3-pad-1771"/>
      <use x="2219.7" y="4159.8" xlink:href="#tool-T4-pad-1772"/>
      <use x="2219.7" y="4504.2" xlink:href="#tool-T4-pad-1772"/>
      <use x="3130" y="4120" xlink:href="#tool-T5-pad-1773"/>
      <use x="2125" y="5130" xlink:href="#tool-T5-pad-1773"/>
    </g>
    <mask id="top-sm_6" color="#fff">
      <use xlink:href="#top-tcu_1"/>
    </mask>
    <mask id="top-sm_7" color="#000">
      <rect class="Board--cover" fill="#fff" x="2000" y="4000" width="1250" height="1250"/>
      <use xlink:href="#top-tsm_4"/>
    </mask>
    <mask id="top-mech_8" color="#000">
      <use xlink:href="#top-out_0"/>
      <use xlink:href="#top-drl_5"/>
    </mask>
  </defs>
  <g transform="translate(0,9250) scale(1,-1)" mask="url(#top-mech_8)">
    <rect class="Board--board" fill="currentColor" x="2000" y="4000" width="1250" height="1250"/>
    <use class="Board--cu" xlink:href="#top-tcu_1"/>
    <use class="Board--cf" mask="url(#top-sm_6)" xlink:href="#top-tsm_4"/>
    <g mask="url(#top-sm_7)">
      <rect class="Board--sm" fill="currentColor" x="2000" y="4000" width="1250" height="1250"/>
      <use class="Board--ss" xlink:href="#top-tss_2"/>
    </g>
    <use class="Board--sp" xlink:href="#top-tsp_3"/>
  </g>
  <style type="text/css">.Board--board { color: dimgrey; } .Board--cu { color: lightgrey; } .Board--cf { color: goldenrod; } .Board--sm { color: darkgreen; opacity: 0.75; } .Board--ss { color: white; } .Board--sp { color: silver; } .Board--out { color: black; } </style>
</svg>
