<?xml version="1.0" encoding="UTF-8" standalone="no"?>
<!-- Created with Inkscape (http://www.inkscape.org/) -->

<svg
   xmlns:dc="http://purl.org/dc/elements/1.1/"
   xmlns:cc="http://creativecommons.org/ns#"
   xmlns:rdf="http://www.w3.org/1999/02/22-rdf-syntax-ns#"
   xmlns:svg="http://www.w3.org/2000/svg"
   xmlns="http://www.w3.org/2000/svg"
   xmlns:sodipodi="http://sodipodi.sourceforge.net/DTD/sodipodi-0.dtd"
   xmlns:inkscape="http://www.inkscape.org/namespaces/inkscape"
   width="262.20471"
   height="372.04724"
   id="svg3124"
   version="1.1"
   inkscape:version="0.48.2 r9819"
   sodipodi:docname="ohwr_updated_tux_bot_rc_v1.svg"
   inkscape:export-filename="G:\Users\c\ckittel\Public\ohwr\ohwr_updated_tux_bot_rc_v1.png"
   inkscape:export-xdpi="350"
   inkscape:export-ydpi="350">
  <title
     id="title3143">Tuxoid</title>
  <defs
     id="defs3126">
    <clipPath
       id="clipPath3481"
       clipPathUnits="userSpaceOnUse">
      <path
         inkscape:connector-curvature="0"
         id="path3483"
         d="m 0,155.906 155.906,0 L 155.906,0 0,0 0,155.906 z" />
    </clipPath>
  </defs>
  <sodipodi:namedview
     id="base"
     pagecolor="#ffffff"
     bordercolor="#666666"
     borderopacity="1.0"
     inkscape:pageopacity="1"
     inkscape:pageshadow="2"
     inkscape:zoom="2.6671633"
     inkscape:cx="16.989542"
     inkscape:cy="191.14194"
     inkscape:document-units="px"
     inkscape:current-layer="layer6"
     showgrid="false"
     inkscape:window-width="1920"
     inkscape:window-height="1033"
     inkscape:window-x="-4"
     inkscape:window-y="24"
     inkscape:window-maximized="1" />
  <metadata
     id="metadata3129">
    <rdf:RDF>
      <cc:Work
         rdf:about="">
        <dc:format>image/svg+xml</dc:format>
        <dc:type
           rdf:resource="http://purl.org/dc/dcmitype/StillImage" />
        <dc:title>Tuxoid</dc:title>
        <dc:publisher>
          <cc:Agent>
            <dc:title>CERN</dc:title>
          </cc:Agent>
        </dc:publisher>
        <dc:date>09.06.2014</dc:date>
        <dc:rights>
          <cc:Agent>
            <dc:title>CERN</dc:title>
          </cc:Agent>
        </dc:rights>
        <cc:license
           rdf:resource="http://creativecommons.org/licenses/by-sa/4.0/" />
        <dc:source>http://www.ohwr.org</dc:source>
        <dc:creator>
          <cc:Agent>
            <dc:title>Alexandra Lewis</dc:title>
          </cc:Agent>
        </dc:creator>
        <dc:contributor>
          <cc:Agent>
            <dc:title>Tomasz Wlostowski, Christoph Kittel</dc:title>
          </cc:Agent>
        </dc:contributor>
        <dc:description>Logo for &quot;CERN open hardware&quot;</dc:description>
        <dc:subject>
          <rdf:Bag>
            <rdf:li>CERN</rdf:li>
            <rdf:li>ohr</rdf:li>
            <rdf:li>ohwr</rdf:li>
            <rdf:li>open hardware repository</rdf:li>
            <rdf:li>open hardware license</rdf:li>
            <rdf:li>open hardware licence</rdf:li>
            <rdf:li>tuxoid</rdf:li>
          </rdf:Bag>
        </dc:subject>
        <dc:relation>http://www.isc.tamu.edu/~lewing/linux/</dc:relation>
      </cc:Work>
      <cc:License
         rdf:about="http://creativecommons.org/licenses/by-sa/3.0/">
        <cc:permits
           rdf:resource="http://creativecommons.org/ns#Reproduction" />
        <cc:permits
           rdf:resource="http://creativecommons.org/ns#Distribution" />
        <cc:requires
           rdf:resource="http://creativecommons.org/ns#Notice" />
        <cc:requires
           rdf:resource="http://creativecommons.org/ns#Attribution" />
        <cc:permits
           rdf:resource="http://creativecommons.org/ns#DerivativeWorks" />
        <cc:requires
           rdf:resource="http://creativecommons.org/ns#ShareAlike" />
      </cc:License>
    </rdf:RDF>
  </metadata>
  <g
     inkscape:groupmode="layer"
     id="layer6"
     inkscape:label="Tuxoid"
     style="display:inline">
    <path
       transform="translate(0,-680.31494)"
       inkscape:connector-curvature="0"
       id="path18-7-7"
       d="m 35.01429,921.4415 c -2.651448,-6.79936 0.554574,-37.90696 17.338906,-64.14301 13.009019,-21.38675 17.349737,-21.20584 40.140595,-45.77226 4.535879,-4.95524 5.967873,-17.93558 6.460622,-39.58149 0.451573,-28.96052 9.387357,-40.87133 16.639227,-46.44881 3.20681,-2.46592 5.73863,-3.85174 7.65063,-4.65665 20.0953,-10.27746 41.80657,-5.55774 54.90711,-0.36439 1.99106,0.83723 3.61704,2.05018 5.29073,3.35442 10.92934,8.51667 15.46386,25.82357 14.05392,40.59072 -1.59795,17.68657 -3.83545,32.94349 0.83062,38.2641 17.24701,17.84045 26.02933,34.19102 33.02837,48.77019 1.9103,3.97775 7.56108,17.44743 9.01039,23.06594 2.45864,11.64703 -0.68441,30.77081 -2.95659,39.17794 1.80503,1.36378 5.01076,4.69112 7.58315,6.69024 6.71817,4.70944 17.32147,9.50665 16.7002,13.36251 -0.33864,2.73523 -21.43634,30.38153 -30.47776,43.30149 -12.18573,16.60803 -29.41856,35.46086 -31.08618,36.86256 -1.92132,1.5202 -4.87427,2.3395 -7.31451,2.3543 -0.88009,0.074 -6.50962,-1.9673 -13.46762,-3.6655 -6.33472,-1.5454 -14.31848,-3.0863 -19.7907,-4.1456 -2.92318,-1.1355 -4.76944,-6.3725 -6.64459,-6.5148 -3.85855,-0.082 -12.36293,-2.2434 -20.77316,-0.2666 -6.82409,0.6823 -8.42621,0.4463 -15.90481,-0.4693 -2.72775,-0.8112 -2.73124,-1.78457 -3.6845,-0.8069 -3.91765,5.8114 -8.94121,13.1007 -17.412161,18.0215 -0.422009,0.3661 -2.244108,-0.133 -3.004514,-0.466 -18.376744,-8.0636 -21.747184,-4.4128 -51.021119,-18.76242 -7.538611,-3.40888 -19.455823,-8.98631 -25.438858,-10.90444 -1.350902,-0.4334 -2.059611,-1.76262 -2.625263,-2.14176 -0.805264,-0.50919 -2.233167,-0.65986 -3.011106,-0.99818 -7.5155839,-3.26343 -8.1584624,-9.48965 -7.6012935,-10.85246 1.5877476,-5.89926 2.8821525,-9.03484 4.9610901,-13.95561 6.7300194,-16.2667 15.0108084,-26.63039 23.6786824,-37.50458 0.493462,-1.26688 4.521913,-0.50707 3.940492,-1.39515 z"
       style="fill:#000000;fill-rule:evenodd;stroke:#000000;stroke-width:0.26300701" />
    <path
       transform="translate(0,-680.31494)"
       inkscape:connector-curvature="0"
       id="path82-1-1"
       d="m 221.17367,837.65099 c -7.98187,-12.88366 -18.78174,-23.36218 -23.41019,-29.00276 -0.0731,-0.0894 -0.14414,-0.17655 -0.21179,-0.26053 -2.75663,-3.46991 -5.9796,-7.60537 -6.20953,-13.75948 1.12746,-12.50741 2.27076,-22.49998 1.85245,-34.29903 -0.2176,-15.10968 -2.14303,-31.28459 -21.12737,-37.7567 15.32158,11.498 14.50915,22.8568 15.47024,33.10699 0.42604,12.80158 -2.08395,29.42611 -2.63396,37.65529 -1.50054,10.67414 4.58075,14.31427 6.90857,17.64813 6.81462,8.06128 23.81622,21.18865 36.71428,47.51134 -1.45351,-7.36827 -3.35459,-13.36029 -7.3527,-20.84325 z"
       style="fill:#363a3d;fill-opacity:1;fill-rule:evenodd;stroke:none"
       sodipodi:nodetypes="ccccccccccc" />
    <path
       transform="translate(0,-680.31494)"
       style="fill:#000000;fill-rule:evenodd;stroke:#000000;stroke-width:0.26300701"
       d="m 179.75768,729.24858 c -1.31954,0.0468 -1.47595,-2.59958 -0.0422,-2.49299 1.82059,-0.58338 2.35189,2.53946 0.39935,2.45526 -0.11862,0.009 -0.24165,0.0196 -0.35714,0.0377 z m -0.37363,-2.44207 c 0.16093,-0.004 0.0334,-0.008 0,0 z"
       id="path216-3-3"
       inkscape:connector-curvature="0" />
    <path
       transform="translate(0,-680.31494)"
       style="fill:#000000;fill-rule:evenodd;stroke:#000000;stroke-width:0.26300701"
       d="m 182.00086,733.22241 c -1.45039,-2.37718 2.34953,-3.38663 3.45747,-1.43897 1.78674,1.99555 -2.00686,3.8947 -3.28547,2.21138 -0.14053,-0.22861 -0.20134,-0.50757 -0.172,-0.77241 z"
       id="path218-7-7"
       inkscape:connector-curvature="0" />
    <path
       transform="translate(0,-680.31494)"
       style="fill:#000000;fill-rule:evenodd;stroke:#000000;stroke-width:0.26300701"
       d="m 185.98396,736.67315 c 1.85661,-0.11337 3.18131,2.35965 1.11742,3.25584 -1.7873,0.85035 -3.47466,-2.34554 -1.60227,-3.18207 l 0.23516,-0.0607 0.24997,-0.0131 -2.8e-4,2e-5 z"
       id="path220-8-8"
       inkscape:connector-curvature="0" />
    <path
       transform="translate(0,-680.31494)"
       style="fill:#000000;fill-rule:evenodd;stroke:#000000;stroke-width:0.26300701"
       d="m 186.90629,743.7286 c 1.00914,-2.01624 4.97007,-1.49507 3.93457,1.14001 -0.6437,1.3657 -3.91027,1.89991 -3.94568,-0.13583 -0.13842,-0.31649 -0.1343,-0.69117 0.0112,-1.00418 z"
       id="path222-8-8"
       inkscape:connector-curvature="0" />
    <path
       transform="translate(0,-680.31494)"
       style="fill:#000000;fill-rule:evenodd;stroke:#000000;stroke-width:0.26300701"
       d="m 188.50556,749.26167 c 1.59991,-1.44428 4.26886,0.92686 3.10834,2.73188 -1.27659,1.85681 -5.09117,0.22684 -4.29676,-2.03404 0.20867,-0.44497 0.69728,-0.73484 1.18842,-0.69784 z"
       id="path224-2-2"
       inkscape:connector-curvature="0" />
    <path
       transform="translate(0,-680.31494)"
       style="fill:#000000;fill-rule:evenodd;stroke:#000000;stroke-width:0.26300701"
       d="m 187.74828,757.77048 c -1.12199,-2.41691 2.36969,-3.80235 3.71855,-1.88952 1.91936,1.74917 -0.34517,4.546 -2.52954,3.21468 -0.58938,-0.21785 -1.21116,-0.61733 -1.18901,-1.32516 z"
       id="path226-9-9"
       inkscape:connector-curvature="0" />
    <path
       transform="translate(0,-680.31494)"
       style="fill:#000000;fill-rule:evenodd;stroke:#000000;stroke-width:0.26300701"
       d="m 187.72994,790.57464 c 3.71873,-0.87404 2.97844,5.1801 -0.50821,4.01259 -2.914,-0.4099 -2.20217,-4.06614 0.50821,-4.01259 z"
       id="path228-1-1"
       inkscape:connector-curvature="0" />
    <path
       transform="translate(0,-680.31494)"
       style="fill:#000000;fill-rule:evenodd;stroke:#000000;stroke-width:0.26300701"
       d="m 187.66871,796.62148 c 2.83915,-0.48814 3.18985,3.64465 0.3428,3.88102 -2.70352,1.04794 -3.4665,-3.03643 -1.14334,-3.93668 l 0.40177,-0.0391 0.39875,0.0949 2e-5,-10e-5 z"
       id="path230-3-3"
       inkscape:connector-curvature="0" />
    <path
       transform="translate(0,-680.31494)"
       style="fill:#000000;fill-rule:evenodd;stroke:#000000;stroke-width:0.26300701"
       d="m 193.39452,803.75958 c 2.53044,1.60471 -0.25443,4.74047 -2.45394,3.21314 -2.58192,-1.12544 0.2107,-4.49268 2.17841,-3.47005 l 0.27553,0.25702 0,-1.1e-4 z"
       id="path232-5-5"
       inkscape:connector-curvature="0" />
    <path
       transform="translate(0,-680.31494)"
       style="fill:#000000;fill-rule:evenodd;stroke:#000000;stroke-width:0.26300701"
       d="m 197.80852,809.91588 c 2.05071,1.90475 -1.3613,3.67054 -2.80381,1.96556 -2.96073,-1.96137 2.155,-4.83581 2.80381,-1.96556 z"
       id="path234-9-9"
       inkscape:connector-curvature="0" />
    <path
       transform="translate(0,-680.31494)"
       style="fill:#000000;fill-rule:evenodd;stroke:#000000;stroke-width:0.26300701"
       d="m 200.58312,814.47307 c 3.12592,-1.60392 2.97576,3.31638 -0.029,2.84853 -1.50975,-0.32522 -1.39481,-2.4913 0.029,-2.84853 z"
       id="path236-8-8"
       inkscape:connector-curvature="0" />
    <path
       transform="translate(0,-680.31494)"
       style="fill:#000000;fill-rule:evenodd;stroke:#000000;stroke-width:0.26300701"
       d="m 206.53667,819.31773 c 2.13706,2.00422 -2.23789,3.74401 -3.10824,1.40409 -0.90511,-2.00737 2.05126,-2.43462 3.10824,-1.40409 z"
       id="path238-4-4"
       inkscape:connector-curvature="0" />
    <path
       transform="translate(0,-680.31494)"
       style="fill:#000000;fill-rule:evenodd;stroke:#000000;stroke-width:0.26300701"
       d="m 207.18911,824.42112 c 1.47555,-2.55495 4.30016,1.56725 1.3643,2.12165 -1.17384,0.22417 -2.01733,-1.15907 -1.3643,-2.12165 z"
       id="path240-0-0"
       inkscape:connector-curvature="0" />
    <path
       transform="translate(0,-680.31494)"
       style="fill:#000000;fill-rule:evenodd;stroke:#000000;stroke-width:0.26300701"
       d="m 212.16588,827.94255 c 3.45729,-0.53961 0.76456,5.3818 -1.27204,2.24448 -0.58727,-0.93214 0.2226,-2.20928 1.27204,-2.24448 z"
       id="path242-7-7"
       inkscape:connector-curvature="0" />
    <path
       transform="translate(0,-680.31494)"
       style="fill:#000000;fill-rule:evenodd;stroke:#000000;stroke-width:0.26300701"
       d="m 216.70557,835.65844 c -2.74059,1.62723 -3.26086,-2.43784 -1.1669,-2.23815 1.7529,-1.07844 3.26332,1.63519 1.1669,2.23815 z"
       id="path244-6-6"
       inkscape:connector-curvature="0" />
    <path
       transform="translate(0,-680.31494)"
       style="fill:#000000;fill-rule:evenodd;stroke:#000000;stroke-width:0.26300701"
       d="m 219.36101,838.82594 c 4.11878,-0.39164 -0.38823,4.91179 -1.16368,1.26366 0.005,-0.62661 0.55099,-1.1893 1.16368,-1.26366 z"
       id="path246-3-3"
       inkscape:connector-curvature="0" />
    <path
       transform="translate(0,-680.31494)"
       style="fill:#000000;fill-rule:evenodd;stroke:#000000;stroke-width:0.26300701"
       d="m 224.23821,846.98683 c -0.99833,3.52726 -4.30304,-1.27718 -1.28037,-2.19684 1.22799,-0.13865 2.02944,1.16786 1.28037,2.19684 z"
       id="path248-6-6"
       inkscape:connector-curvature="0" />
    <path
       transform="translate(0,-680.31494)"
       style="fill:#000000;fill-rule:evenodd;stroke:#000000;stroke-width:0.26300701"
       d="m 191.37084,763.22337 c 1.98,1.19873 -0.28035,3.70841 -1.99556,3.39227 -2.37123,-0.32685 -2.02951,-3.8598 0.20191,-4.17884 0.70233,-0.3028 1.594,-10e-4 1.79365,0.78657 z"
       id="path260-9-9"
       inkscape:connector-curvature="0" />
    <path
       transform="translate(0,-680.31494)"
       style="fill:#000000;fill-rule:evenodd;stroke:#000000;stroke-width:0.26300701"
       d="m 190.22201,777.446 c 3.00325,0.93654 0.79846,4.79255 -1.65555,3.57251 -2.48684,-0.70555 -0.32879,-5.38876 1.65555,-3.57251 z"
       id="path262-7-7"
       inkscape:connector-curvature="0" />
    <path
       transform="translate(0,-680.31494)"
       style="fill:#000000;fill-rule:evenodd;stroke:#000000;stroke-width:0.26300701"
       d="m 189.18066,783.53388 c 2.75418,0.88654 0.73503,5.12645 -1.63981,3.11654 -2.54097,-1.008 -0.12413,-5.3587 1.63981,-3.11654 z"
       id="path264-3-3"
       inkscape:connector-curvature="0" />
    <path
       transform="translate(0,-680.31494)"
       style="fill:#000000;fill-rule:evenodd;stroke:#000000;stroke-width:0.26300701"
       d="m 188.43482,770.51936 c 1.80418,-1.25123 4.15559,1.79417 3.04176,3.39265 -1.58877,2.01541 -5.50352,-0.36339 -3.93128,-2.65353 0.22182,-0.32232 0.54196,-0.56705 0.88952,-0.73912 z"
       id="path270-6-6"
       inkscape:connector-curvature="0" />
    <g
       style="display:inline;fill-rule:evenodd"
       id="g276"
       transform="matrix(1.2485415,0.06036618,-0.06036618,1.2485415,47.837161,-701.79575)" />
    <g
       style="display:inline;fill-rule:evenodd"
       id="g3475"
       transform="matrix(1.2485415,0.06036618,-0.06036618,1.2485415,51.304335,77.58313)">
      <g
         id="g3477">
        <g
           id="g3479"
           clip-path="url(#clipPath3481)">
          <g
             id="g3485" />
        </g>
      </g>
    </g>
    <path
       transform="translate(0,-680.31494)"
       inkscape:connector-curvature="0"
       id="path20-4-4"
       d="m 104.83683,754.80762 c 0.098,-0.70882 0.67248,-1.59421 1.09593,-1.50001 8.01886,1.78377 13.98427,0.71076 31.49033,-0.22055 1.08814,-0.16278 1.30715,0.90367 1.38628,1.36881 1.19597,7.03549 1.12754,12.91555 2.19647,20.91336 0.33327,2.42695 -0.0574,2.6993 -1.40746,3.37022 -17.12323,4.34768 -23.39361,10.5198 -33.73126,16.1361 -0.87586,0.47639 -2.87737,1.46654 -2.49639,-0.35926 -0.19451,-14.14956 -0.54894,-25.64485 1.4661,-39.70867 z"
       style="display:inline;fill:#767b82;fill-rule:evenodd;stroke:#676f79;stroke-width:0.26300700999999999" />
    <path
       transform="translate(0,-680.31494)"
       inkscape:connector-curvature="0"
       id="path22-0-0"
       d="m 158.67754,817.10174 c 5.42651,-3.44975 8.9179,-6.57545 14.66463,-9.12502 1.18132,-0.50058 3.99755,-5.13398 2.82127,-6.20775 -0.9846,-1.14033 -1.24602,-1.81967 -0.6397,-4.31023 0.21959,-1.89676 -0.3503,-3.65718 -1.12008,-5.46223 -2.2128,-2.10757 -2.15611,-0.50892 -4.44955,-1.05358 -7.57116,-4.24879 -14.45064,-9.98681 -23.89579,-11.82163 -0.97144,-0.29126 -1.26653,-1.23243 -1.4773,-2.90569 -1.1672,-9.11161 -0.50225,-16.5495 -1.31768,-25.50034 -0.24453,-1.02873 -2.22891,-2.92989 -4.60873,-2.31351 -4.47278,1.67905 -17.96847,3.07982 -31.22035,2.12736 -1.01245,-0.30278 -2.28963,0.0572 -1.83333,-2.01975 2.88453,-10.0095 2.50838,-11.41953 13.62515,-21.40175 20.94777,-15.692 59.03345,-9.08732 63.45168,18.30076 1.70245,9.41976 1.90922,32.02635 -2.74984,50.37435 -0.40032,2.45469 -0.74008,4.85385 0.5481,7.14109 6.95744,11.17203 15.58705,18.9535 24.73808,27.99295 6.69998,5.92451 23.02092,27.2401 26.01261,49.44313 0.98891,7.69322 1.55325,16.38177 -0.58415,26.54165 -0.0795,0.20528 -0.13664,0.59219 -1.08219,0.0289 -5.94557,-4.58518 -12.58939,-5.88961 -17.4094,-6.18533 -1.67596,-0.10275 -1.59652,-0.92923 -1.55365,-1.28265 0.3175,-4.49617 0.77256,-9.07521 0.30604,-14.06008 -0.51796,-5.31489 -3.02286,-15.30848 -10.75273,-24.94227 -1.043,-1.35906 -2.59916,-2.9046 -5.852,-2.38308 -1.86048,0.37085 -2.22297,1.90157 -1.94881,3.29718 1.8903,8.34403 5.80375,15.47824 5.72665,27.25334 -3.42559,-6.06425 -9.01661,-13.13739 -13.36224,-18.8354 -8.51795,-9.37219 -8.17813,-10.10672 -17.29702,-15.81535 -1.56299,-0.76282 -3.51419,-1.37904 -4.71373,-2.12427 -1.59971,-0.91732 -1.28697,-2.92173 -1.513,-4.28977 -1.01927,-9.99391 -1.94895,-17.47416 -3.02718,-27.6642 -0.12803,-0.69606 -0.50469,-2.21406 0.51425,-2.79673 z"
       style="display:inline;fill:#424a53;fill-rule:evenodd;stroke:#424a53;stroke-width:0.26300700999999999"
       sodipodi:nodetypes="cccccccccccccccccccccccccccccccccc" />
    <path
       transform="translate(0,-680.31494)"
       inkscape:connector-curvature="0"
       id="path24-9-9"
       d="m 11.055228,977.86443 c 8.750531,-28.25856 19.180068,-34.22275 30.822653,-51.20406 1.790529,-2.02728 0.890366,-1.84329 -1.265825,-1.15973 -3.129805,0.99301 -3.56867,-1.19944 -7.691982,2.2022 -4.090562,3.37428 -8.860633,11.18506 -11.218005,14.55099 -5.52872,8.69149 -8.403343,14.09831 -11.560332,21.28935 -4.0628027,8.28891 -5.5489074,15.10522 -0.7045986,16.47061 0.8010436,0.22631 0.8281546,0.6978 1.6180756,-2.14936 z"
       style="display:inline;fill:#efa417;fill-rule:evenodd;stroke:#efa417;stroke-width:0.26300700999999999" />
    <path
       transform="translate(0,-680.31494)"
       inkscape:connector-curvature="0"
       id="path26-4-4"
       d="m 93.754506,966.8938 c -6.963413,-7.67296 -16.429057,-16.22682 -24.08064,-23.34221 -4.113406,-3.8262 -10.614518,-9.60629 -13.884152,-12.25422 -9.476576,-7.67443 -11.079733,-1.77009 -16.246346,4.77608 l -6.684675,8.46922 c -4.294847,5.44137 -12.827694,17.76922 -14.854605,24.62677 -1.48898,5.03671 -6.148303,11.4084 -0.03516,14.7578 4.747521,4.22551 43.574206,20.39936 55.010208,23.46786 6.166257,1.6542 9.854856,2.5182 16.792256,3.7389 8.995697,1.5819 19.320718,-13.01755 23.158068,-20.08613 1.66203,-3.06093 -6.82119,-8.66562 -9.49998,-12.73264 -1.99656,-3.03193 -5.227822,-5.98343 -9.674976,-11.42143 z"
       style="display:inline;fill:#f8d222;fill-rule:evenodd;stroke:#f8d222;stroke-width:0.26300700999999999" />
    <path
       transform="translate(0,-680.31494)"
       inkscape:connector-curvature="0"
       id="path28-8-8"
       d="m 23.457435,984.18472 c -2.945299,-0.69114 -4.177089,-1.88189 -2.450695,-4.52733 1.726422,-2.64495 3.984785,-6.74605 7.572361,-13.63137 0.575208,-1.10439 1.436883,-2.53937 4.286071,-0.3199 2.670615,2.08023 7.177964,6.21882 12.056469,10.17207 0.324722,0.26326 1.541263,1.50588 -0.255231,3.10103 -2.329905,3.68846 -2.172186,4.99948 -3.641772,8.97968 -0.500079,1.34924 -1.626078,2.08839 -4.083122,0.67573 -2.45754,-1.41326 -10.538762,-3.75931 -13.484088,-4.44991 z"
       style="display:inline;fill:#000000;fill-rule:evenodd;stroke:#000000;stroke-width:0.26300700999999999" />
    <path
       transform="translate(0,-680.31494)"
       inkscape:connector-curvature="0"
       id="path30-8-8"
       d="m 27.202651,981.71638 c -1.923716,-0.43795 -2.729295,-1.18889 -1.60522,-2.85184 1.124125,-1.66294 2.593926,-4.24181 4.928589,-8.57094 0.374183,-0.69442 0.934779,-1.5968 2.797541,-0.19651 1.745924,1.31248 4.693643,3.9222 7.882829,6.41565 0.212531,0.16621 1.008016,0.94976 -0.162792,1.95166 -1.517202,2.31907 -1.412317,3.14408 -2.367255,5.64777 -0.324774,0.84847 -1.05947,1.31217 -2.665174,0.42041 -1.606199,-0.89234 -6.884589,-2.37825 -8.808513,-2.8162 z"
       style="display:inline;fill:#efa417;fill-rule:evenodd;stroke:#efa417;stroke-width:0.26300700999999999" />
    <path
       transform="translate(0,-680.31494)"
       inkscape:connector-curvature="0"
       id="path32-2-2"
       d="m 40.477265,920.53603 c -3.33507,-4.08191 -1.4965,-15.4759 0.338047,-25.22965 12.993622,-44.68503 27.193137,-55.00268 54.107994,-79.45714 1.881351,-1.56472 3.753654,-3.54116 4.634051,-6.07111 1.112983,-3.682 2.443513,-10.81811 3.649353,-10.49756 0.97901,0.0474 0.14378,-0.16427 1.51142,0.13065 1.35986,0.21652 -0.6122,5.58466 0.47839,6.6448 6.93654,8.90397 11.11884,8.5943 10.97678,11.17261 0.13352,1.68214 0.7672,3.05617 0.96066,4.51005 1.37592,10.34819 2.28249,14.7245 0.88658,27.72026 -0.44428,2.63478 -1.30518,2.442 -2.07159,2.9521 -31.473096,16.35956 -37.974509,39.43965 -41.32879,56.96546 -3.697595,-10.74955 -2.413856,-25.75923 4.632315,-45.2004 0.213178,-0.72906 0.849076,-1.57724 1.433699,-2.3668 2.266245,-2.87266 -2.325095,-6.47183 -4.886653,-3.21849 -12.636329,15.20281 -16.934403,31.45231 -16.01402,46.23522 2.119678,13.9325 11.951398,25.3894 22.221406,34.33601 11.142075,10.14949 11.504419,11.48565 16.188362,17.31795 1.701448,3.16875 -3.362283,6.73768 -4.743191,4.68083 -15.003805,-14.83663 -28.260109,-27.8599 -44.438057,-39.98173 -0.521239,-0.39067 -1.04216,-0.87509 -2.054411,-0.94245 -2.263165,0.28291 -6.14691,1.11414 -6.482354,0.29956 z"
       style="display:inline;fill:#424a53;fill-rule:evenodd;stroke:#424a53;stroke-width:0.26300700999999999" />
    <path
       transform="translate(0,-680.31494)"
       inkscape:connector-curvature="0"
       id="path34-4-4"
       d="m 137.57763,828.13372 c -1.31554,9.68983 -1.00845,19.71357 -1.02391,29.71381 -6.44396,0.97601 -9.3263,1.32535 -14.60078,3.02515 -15.60963,5.04331 -21.90571,11.99729 -32.392433,28.48205 -6.119371,13.27294 -5.938158,24.82304 -7.956813,43.44772 -8.559529,-6.51996 -15.908907,-19.06912 -17.135927,-26.53005 -2.762653,-15.7251 5.081852,-31.61089 9.220519,-38.80346 -6.730827,23.56768 -6.396719,33.53428 -1.879087,46.60636 1.278142,2.38575 4.097756,4.45478 6.150642,3.41444 1.578505,-1.14807 0.844614,-5.86202 1.355468,-8.58837 2.348913,-23.98545 17.777258,-45.36795 40.036071,-52.73498 3.60668,-1.18693 2.75198,-0.8765 2.99041,-3.33636 0.54543,-9.65705 1.04486,-20.22896 -1.20183,-31.27174 -1.36858,-4.65301 2.15722,-1.73936 4.01568,-0.5984 4.03631,2.41589 8.35852,5.32061 12.42199,7.17383 z"
       style="display:inline;fill:#767b82;fill-rule:evenodd;stroke:#676f79;stroke-width:0.26300700999999999" />
    <path
       transform="translate(0,-680.31494)"
       style="display:inline;fill:#000000;fill-rule:evenodd;stroke:#000000;stroke-width:0.26300700999999999"
       d="m 130.60087,835.3386 c -1.0025,0.48992 0.98239,0.25302 1.35714,0.65245 2.89275,1.19022 3.16497,5.82052 0.48512,7.38392 -2.21227,1.18151 -5.08129,-0.21701 -6.04904,-2.40448 -1.04415,-2.05715 -0.29478,-5.06595 1.98421,-5.91146 0.74979,-0.29638 1.51626,0.0229 2.22257,0.27957 z"
       id="path36-5-5"
       inkscape:connector-curvature="0" />
    <path
       transform="translate(0,-680.31494)"
       style="display:inline;fill:#000000;fill-rule:evenodd;stroke:#000000;stroke-width:0.26300700999999999"
       d="m 130.15557,846.08374 c -0.29723,0.62653 -0.66394,1.22585 0.30744,1.33343 1.57502,0.67403 2.93885,2.32935 2.49693,4.12738 -0.45595,2.1658 -3.07986,3.40642 -5.11724,2.774 -1.30767,-0.39545 -1.79454,-1.88186 -1.6748,-3.12443 0.0655,-1.47723 0.6588,-2.955 1.73586,-3.98434 -0.82887,-0.8449 0.8296,-0.2175 1.13698,-0.785 0.35246,-0.16696 0.72934,-0.28222 1.11483,-0.34104 z"
       id="path38-5-5"
       inkscape:connector-curvature="0" />
    <path
       transform="translate(0,-680.31494)"
       style="display:inline;fill:#000000;fill-rule:evenodd;stroke:#000000;stroke-width:0.26300700999999999"
       d="m 127.15005,824.5046 c 0.54283,-0.52027 1.68049,-0.22867 2.4332,-0.20316 1.76137,0.21856 3.12803,1.92274 2.93959,3.69086 -0.0711,1.72383 -1.29173,3.67569 -3.17603,3.7013 -1.89428,-0.1095 -3.4755,-1.65961 -4.16791,-3.34672 -0.67759,-1.53191 0.15698,-3.70611 1.97115,-3.84228 z"
       id="path40-1-1"
       inkscape:connector-curvature="0" />
    <path
       transform="translate(0,-680.31494)"
       style="display:inline;fill:none;stroke:#ff0000;stroke-width:0.26300700999999999"
       d="m 129.33637,828.413 c 0.0255,0.007 0.0398,-0.0448 0,0 z"
       id="path42-7-7"
       inkscape:connector-curvature="0" />
    <path
       transform="translate(0,-680.31494)"
       inkscape:connector-curvature="0"
       id="path44-1-1"
       d="m 140.81267,827.50124 c -0.51854,6.53501 -0.88269,16.74483 -0.4679,20.13049 -0.0521,5.72917 0.10475,7.89432 -0.0435,9.78349 12.60366,-1.47233 20.4532,0.36223 25.45067,3.82568 8.54696,7.06335 13.4612,13.07532 17.89763,20.06368 2.06396,3.15154 6.62729,15.25632 5.53871,20.90537 4.35651,-1.85527 10.25714,-2.55737 16.12304,-2.18216 0.69557,-2.82326 4.59253,-18.61609 -6.58455,-34.4763 2.15405,9.54115 4.41234,20.39964 2.85652,30.27955 -0.88242,2.36451 -4.85031,2.57343 -5.64353,0.44755 -1.47554,-7.03532 -1.10432,-6.40544 -4.09061,-10.86332 -6.51344,-9.64078 -12.17839,-17.46057 -20.59808,-24.47723 -2.93648,-2.58074 -3.62015,-3.65174 -10.86073,-6.33265 -1.02805,-0.61159 -5.01307,-0.41877 -3.54661,-4.47604 1.27116,-3.65382 -1.30586,-17.86118 -2.22601,-27.98932 0.15129,-3.97025 -3.66438,-0.59165 -4.23706,-0.40825 -3.883,2.46009 -9.47285,5.39059 -9.56804,5.76936 z"
       style="display:inline;fill:#767b82;fill-rule:evenodd;stroke:#676f79;stroke-width:0.26300700999999999" />
    <path
       transform="translate(0,-680.31494)"
       style="display:inline;fill:#efa417;fill-rule:evenodd;stroke:#efa417;stroke-width:0.26300700999999999"
       d="m 172.82278,909.85404 c 0.61266,1.30376 1.9262,2.06586 3.18744,2.63684 0.65469,0.28742 1.30879,0.59369 2.01001,0.75077 1.09463,-0.059 1.96319,-0.84051 3.0136,-1.0716 0.5362,-0.14982 1.09751,-0.14312 1.64679,-0.11637 0.60946,-0.0906 0.71394,-0.81949 0.55926,-1.30855 -0.0733,-0.61126 -0.0708,-1.22823 -0.0766,-1.84169 -0.0623,-0.58876 -0.4793,-1.18942 -1.10583,-1.2492 -1.1049,-0.21955 -2.20956,0.12188 -3.30937,0.20886 -1.45288,0.19844 -2.92672,0.28237 -4.35824,0.61202 -0.58809,0.16062 -1.2357,0.3754 -1.6013,0.89376 -0.0684,0.15359 -0.0671,0.34575 0.0342,0.4851 z"
       id="path46-1-1"
       inkscape:connector-curvature="0" />
    <path
       transform="translate(0,-680.31494)"
       inkscape:connector-curvature="0"
       id="path48-5-5"
       d="m 102.29365,896.53939 c 10.61244,0.37243 36.16232,-2.77572 43.74124,-2.60625 l 12.51792,0.27979 c 3.5754,0.0796 8.42501,0.1335 15.50092,2.53996 0.68729,0.2339 1.13876,0.21619 1.25172,1.03736 0.60953,4.42307 -0.21183,6.88425 -2.1396,7.22234 -5.47145,0.96088 -5.83748,5.88549 -7.9659,13.29003 -2.83037,9.84676 -3.27149,13.92936 -4.04177,15.93483 -0.20305,0.52842 -2.91437,-0.81705 -9.28618,0.69168 -8.7697,0.6361 -23.15048,0.43896 -24.23625,0.43334 -22.50137,-0.11638 -29.456196,1.21205 -28.930066,-9.66978 0.223412,-4.62081 -0.172574,-29.33511 3.587966,-29.1533 z"
       style="display:inline;fill:#417c29;fill-rule:evenodd;stroke:#417c29;stroke-width:0.26300700999999999" />
    <path
       transform="translate(0,-680.31494)"
       inkscape:connector-curvature="0"
       id="path50-2-2"
       d="m 33.107019,956.41407 10.776446,-18.28499 c 1.718759,-2.91649 4.188319,-5.85674 8.001157,-2.42316 1.91702,1.72626 4.369989,4.07245 6.008842,4.7794 3.225098,1.39139 4.60227,3.79773 2.557825,5.7632 -1.698795,1.63255 -4.003467,5.75722 -5.506532,8.9817 -1.149445,2.46535 -2.559723,5.52367 -3.624816,8.54182 -3.087385,8.75002 -4.051334,9.65449 -9.340815,4.98989 l -2.495824,-2.20026 c -2.548285,-2.24757 -5.947281,-6.56429 -6.800367,-7.39757 -1.072773,-1.0477 0.63737,-2.50117 0.424084,-2.75003 z"
       style="display:inline;fill:#000000;fill-rule:evenodd;stroke:#000000;stroke-width:0.26300700999999999" />
    <path
       transform="translate(0,-680.31494)"
       inkscape:connector-curvature="0"
       id="path52-7-7"
       d="m 36.081603,957.94553 c 1.246079,1.94923 3.525204,4.45025 5.407873,5.81989 1.70571,1.24052 2.666485,2.62298 4.788016,2.87406 0.483144,0.0571 0.98023,-1.37181 1.420856,-2.31896 0.640885,-1.37614 1.919334,-5.88905 2.121656,-6.43695 1.272232,-3.44788 8.217076,-12.83394 6.132236,-14.9654 -0.962646,-0.98443 -2.65249,-1.83447 -3.519636,-2.79061 -2.024266,-2.23014 -4.543063,-3.26928 -5.784916,-0.036 -0.707688,1.84319 -5.990102,10.09844 -7.402903,12.01127 -0.992565,1.34385 -3.144745,4.19832 -3.163179,5.84259 z"
       style="display:inline;fill:#efa417;fill-rule:evenodd;stroke:#efa417;stroke-width:0.26300700999999999" />
    <path
       transform="translate(0,-680.31494)"
       inkscape:connector-curvature="0"
       id="path54-6-6"
       d="m 152.47591,991.87352 c -5.75265,1.94258 -20.53465,5.72099 -34.35194,0.16276 -5.64373,5.71106 0.2651,5.61232 6.29725,5.47794 5.30914,-0.11875 10.3175,-0.0599 15.77493,-0.557 3.20065,-0.29128 7.60487,0.65577 10.83946,0.89272 2.29351,0.16734 1.69724,-1.03435 1.3977,-2.83091 -0.17679,-1.05758 -0.102,-2.10296 0.0425,-3.14553 z"
       style="display:inline;fill:#424a53;fill-rule:evenodd;stroke:#424a53;stroke-width:0.26300700999999999" />
    <path
       transform="translate(0,-680.31494)"
       inkscape:connector-curvature="0"
       id="path56-1-1"
       d="m 103.0596,953.50739 c 0.94487,4.73837 -0.58493,9.70254 -2.82365,11.211 -2.088462,1.32984 -1.515369,1.81308 -0.702631,2.75131 8.427441,9.65485 11.214981,12.50694 18.488461,19.26545 8.06874,5.91327 24.17032,5.47107 33.67633,0.41753 0.78104,-0.36614 1.5656,-1.37091 1.58724,-2.4173 0.24578,-11.97601 2.19182,-29.38193 6.52826,-44.2035 0.49386,-1.76504 -1.11759,-1.6776 -1.37695,-1.70329 -16.69788,0.22169 -29.39484,1.07546 -40.93788,0.29723 -7.37683,-0.7774 -19.906794,1.0866 -22.031234,-2.10948 -3.391872,-5.66186 -0.05006,-13.7945 -0.198143,-20.38962 -0.177158,-7.921 0.168608,-19.3624 2.720513,-22.07854 3.887854,-4.13923 24.543554,-1.85717 39.268294,-4.10323 16.69684,-1.17966 26.05325,-0.39498 36.23444,0.90512 1.49653,0.24247 6.0208,2.40913 5.71888,5.00551 -0.20777,2.11011 -0.85917,4.24721 -0.44407,6.68181 0.34727,1.5719 0.78565,1.28134 1.78986,1.45999 1.75471,0.01 1.43481,0.12531 2.47888,0.0141 1.39507,-0.28328 0.53113,-0.72842 0.81457,-2.79117 0.4802,-7.43949 -1.62326,-17.84074 -12.28409,-29.2008 C 160.90638,861.16 155.915,860.89182 144.87185,860.5206 c -20.56579,1.22643 -32.37997,6.49117 -40.77014,14.88053 -11.688094,14.07906 -18.198242,24.26294 -18.593394,57.566 -0.1148,4.14894 1.987104,6.62457 12.234634,13.41204 l 5.31671,7.12836 z"
       style="display:inline;fill:#b6bcc6;fill-rule:evenodd;stroke:#b6bcc6;stroke-width:0.26300700999999999" />
    <path
       transform="translate(0,-680.31494)"
       inkscape:connector-curvature="0"
       id="path58-4-4"
       d="m 164.81746,935.57715 c 0.36468,-1.56483 3.94868,-16.19845 4.63286,-18.45877 0.85887,-2.83641 1.12336,-3.33076 3.3756,-2.57096 4.43706,1.4984 2.18971,7.18095 1.5898,11.2053 -1.00669,6.75366 -1.89514,12.77097 -2.9755,18.92495 -2.11211,12.03217 -5.46918,26.30495 -8.76875,39.00855 -1.44121,5.54932 -1.98663,13.49802 -3.74211,17.28328 -0.24568,0.5305 -1.57764,-0.2963 -1.76204,-1.61135 -1.59978,-11.41223 0.22686,-17.94298 0.77301,-29.23881 0.35723,-7.38856 5.12879,-27.03973 6.87713,-34.54219 z"
       style="display:inline;fill:#efa417;fill-rule:evenodd;stroke:#efa417;stroke-width:0.26300700999999999" />
    <path
       transform="translate(0,-680.31494)"
       inkscape:connector-curvature="0"
       id="path60-2-2"
       d="m 163.92668,999.81927 c 4.73799,-22.12528 11.10149,-51.05274 16.27329,-78.00191 0.21012,-1.01306 2.29415,-3.52642 3.0687,-3.79073 2.93121,-1.39285 3.41807,-2.25139 6.34926,-3.64423 13.43459,1.36578 28.34596,3.63234 41.78056,4.99809 8.63782,3.55048 15.35599,6.80116 20.57615,11.01581 2.48217,1.65512 3.10561,6.58489 0.80858,9.46293 -4.54546,6.70996 -9.80041,12.98174 -14.4214,19.62169 -11.2764,16.20121 -22.37701,31.34821 -36.56612,45.72978 -2.05604,2.3251 -6.13418,6.9154 -11.16975,5.7208 -7.07332,-2.6233 -15.00833,-3.7131 -21.70369,-4.8552 -3.95375,-0.5081 -5.62314,-4.0572 -4.99558,-6.25703 z"
       style="display:inline;fill:#f8d222;fill-rule:evenodd;stroke:#f8d222;stroke-width:0.26300700999999999" />
    <path
       transform="translate(0,-680.31494)"
       style="display:inline;fill:#000000;fill-rule:evenodd;stroke:#000000;stroke-width:0.26300700999999999"
       d="m 231.27057,938.63109 c -1.1921,2.3837 -3.54519,4.14149 -4.14601,6.81859 -0.29895,1.16935 0.025,2.66489 1.24846,3.16095 1.66009,0.99771 3.47889,1.74191 5.0743,2.83427 0.58319,1.19909 1.63592,2.18019 3.02619,1.56684 1.04295,-0.70136 1.41812,-2.05347 2.48263,-2.76676 1.30063,-1.077 2.66262,-2.09594 3.73253,-3.41746 1.70751,-1.85957 3.41455,-3.71957 5.12301,-5.57827 1.1725,-0.6046 2.55368,-1.6353 2.34974,-3.12798 -0.54145,-2.0021 -2.53821,-3.04644 -4.22924,-3.96037 -2.67161,-1.35253 -5.47585,-2.64443 -8.48683,-2.9507 -1.47483,-0.13635 -2.65113,0.8979 -3.23958,2.16164 -1.06874,1.7012 -1.98211,3.49251 -2.9352,5.25925 z"
       id="path62-3-3"
       inkscape:connector-curvature="0" />
    <path
       transform="translate(0,-680.31494)"
       inkscape:connector-curvature="0"
       id="path64-2-2"
       d="m 185.10393,921.35722 39.75533,3.77847 c 1.70257,0.16191 4.59201,0.92821 6.31912,1.34505 1.45908,0.35282 2.88789,1.47356 2.38534,2.86323 -0.4777,1.32187 -6.49681,8.38349 -6.72864,8.6598 -1.0894,1.29915 -5.25535,8.3598 -7.82155,8.23572 -4.8136,-0.23274 -10.49061,-2.58737 -15.48704,-3.64466 -5.01415,-1.0608 -10.60456,-2.14682 -15.67148,-2.91105 -5.27852,-0.79709 -6.76759,-1.47681 -5.91975,-6.52398 0.72975,-4.34618 0.15935,-10.98278 3.16867,-11.80258 z"
       style="display:inline;fill:#000000;fill-rule:evenodd;stroke:#000000;stroke-width:0.26300700999999999" />
    <path
       transform="translate(0,-680.31494)"
       inkscape:connector-curvature="0"
       id="path68-1-1"
       d="m 140.93337,822.43019 c 1.48679,1.0779 1.9143,0.38233 6.22767,-1.90855 3.88323,-2.06249 7.86027,-4.92006 10.73194,-6.79185 3.99745,-2.60567 14.57398,-8.41347 14.28844,-12.39426 -1.50416,-5.11841 -2.63652,-1.26444 -7.8471,3.85874 -5.9114,6.08654 -11.52895,9.86112 -20.88556,13.92848 -1.18942,0.46045 -2.95497,2.34123 -2.51539,3.30744 z"
       style="display:inline;fill:#f8d222;fill-rule:evenodd;stroke:#f8d222;stroke-width:0.26300700999999999"
       sodipodi:nodetypes="ccccccc" />
    <path
       transform="translate(0,-680.31494)"
       inkscape:connector-curvature="0"
       id="path70-6-6"
       d="m 109.64845,801.4652 c 0.82732,-2.68181 2.0337,0.85049 3.75501,2.40408 2.56557,3.26252 5.7886,5.65985 9.24354,7.84258 3.82535,2.57007 6.30448,4.17836 10.78124,6.63399 2.38732,1.34753 3.9759,1.31156 4.11798,2.99071 -0.19361,1.73199 -2.54556,1.40902 -5.64349,-0.76183 -2.34688,-1.64435 -6.68353,-3.37911 -9.60548,-5.30244 -2.48978,-1.63916 -7.40067,-4.12786 -9.4375,-6.1743 -1.28676,-1.29292 -2.9251,-2.08676 -3.31854,-4.11904 -0.53371,-1.64213 -0.028,-2.67367 0.10723,-3.51376 z"
       style="display:inline;fill:#f8d222;fill-rule:evenodd;stroke:#f8d222;stroke-width:0.26300700999999999"
       sodipodi:nodetypes="ccccccccccc" />
    <path
       transform="translate(0,-680.31494)"
       inkscape:connector-curvature="0"
       id="path72-8-8"
       d="m 113.66983,797.31955 c 0.0425,1.20172 1.96728,4.9218 3.30921,5.58544 3.54499,3.0884 5.31615,4.8774 8.04829,6.39291 4.17742,2.78553 8.96348,6.69995 14.44673,6.96506 2.8913,0.1398 9.06343,-3.41952 11.49101,-4.84935 3.29188,-1.93833 6.86124,-4.37418 9.6146,-6.69457 2.69436,-2.47002 4.84533,-4.46247 6.86732,-8.29639 0.58382,-2.17063 0.0931,-2.19363 -1.61112,-3.65102 -3.24004,-2.77026 -5.15696,-2.85453 -9.7146,-5.76745 -3.617,-2.31242 -10.21936,-4.69176 -14.78566,-4.21373 -3.91708,0.40991 -9.96013,3.06678 -13.92393,4.82466 -4.66641,2.06938 -13.62465,5.21177 -13.74185,9.70444 z"
       style="display:inline;fill:#f8d222;fill-rule:evenodd;stroke:#f8d222;stroke-width:0.26300700999999999"
       sodipodi:nodetypes="cccscccccccc" />
    <path
       transform="translate(0,-680.31494)"
       style="display:inline;fill:#000000;fill-rule:evenodd;stroke:#000000;stroke-width:0.26300700999999999"
       d="m 134.08612,942.75788 c 2.646,-0.58716 4.54479,3.12686 2.53495,4.90521 -2.00108,1.66656 -5.3984,-0.16402 -5.75478,-2.55234 -0.1445,-1.79843 1.73738,-2.48736 3.21983,-2.35287 z"
       id="path74-5-5"
       inkscape:connector-curvature="0" />
    <path
       transform="translate(0,-680.31494)"
       style="display:inline;fill:#000000;fill-rule:evenodd;stroke:#000000;stroke-width:0.26300700999999999"
       d="m 131.98763,950.21863 c 1.89985,-1.05071 4.01633,2.00329 3.34409,3.80922 -0.60688,2.03365 -3.41628,1.31829 -4.47829,0.0746 -1.3053,-1.27101 -0.93285,-3.72779 1.1342,-3.88383 z"
       id="path76-7-7"
       inkscape:connector-curvature="0" />
    <path
       transform="translate(0,-680.31494)"
       inkscape:connector-curvature="0"
       id="path84-8-8"
       d="m 222.27846,927.39279 c 0.94013,0.0455 7.25251,1.09476 5.23186,4.01669 -2.40661,3.47832 -2.69128,5.05389 -5.61209,8.49682 -4.1908,4.93927 -7.12891,2.47904 -10.39879,1.76379 l -12.38165,-2.70617 c -14.10433,-3.08384 -13.22236,-2.64147 -13.09336,-5.3094 l 0.31824,-6.58208 c 9.16781,-1.23717 18.9817,1.58393 28.04569,-0.16276 1.06107,-0.19136 5.63131,-1.02269 6.3995,-0.17615 0.30691,0.3382 1.28073,0.56855 1.4906,0.65926 z"
       style="display:inline;fill:#efa417;fill-rule:evenodd;stroke:#efa417;stroke-width:0.26300700999999999" />
    <path
       transform="translate(0,-680.31494)"
       style="display:inline;fill:#000000;fill-rule:evenodd;stroke:#000000;stroke-width:0.26300700999999999"
       d="m 140.67727,944.57475 c 0.76051,-2.74026 4.48241,-1.41049 5.57281,0.38031 1.477,2.18981 -1.59814,4.04586 -3.53335,3.35363 -1.12356,-0.38509 -3.11964,-2.62297 -2.03946,-3.73394 z"
       id="path86-9-9"
       inkscape:connector-curvature="0" />
    <path
       transform="translate(0,-680.31494)"
       style="display:inline;fill:#000000;fill-rule:evenodd;stroke:#000000;stroke-width:0.26300700999999999"
       d="m 142.70906,950.31884 c 1.08395,1.45867 1.40561,4.19933 -0.49272,5.12613 -2.95693,0.50112 -4.53233,-4.10084 -2.19017,-5.79498 0.8907,-0.8248 3.08494,-1.27539 2.68289,0.66885 z"
       id="path88-2-2"
       inkscape:connector-curvature="0" />
    <path
       transform="translate(0,-680.31494)"
       style="display:inline;fill:#424a53;fill-rule:evenodd;stroke:#424a53;stroke-width:0.26300700999999999"
       d="m 133.49214,944.86299 c -1.76281,0.16061 2.76442,2.73314 1.77672,0.40453 -0.35238,-0.73063 -1.18605,-0.34833 -1.77672,-0.40453 z"
       id="path90-7-7"
       inkscape:connector-curvature="0" />
    <path
       transform="translate(0,-680.31494)"
       style="display:inline;fill:#424a53;fill-rule:evenodd;stroke:#424a53;stroke-width:0.26300700999999999"
       d="m 132.81263,952.23174 c -1.95737,-0.16797 1.85961,2.02073 0.0817,-0.002 l -0.0838,9.6e-4 0.002,0.001 z"
       id="path92-9-9"
       inkscape:connector-curvature="0" />
    <path
       transform="translate(0,-680.31494)"
       style="display:inline;fill:#000000;fill-rule:evenodd;stroke:#000000;stroke-width:0.26300700999999999"
       d="m 148.65982,944.36563 c 1.5952,-1.94235 5.71075,-1.42422 5.78686,1.43461 -0.12538,2.59004 -3.1814,1.93465 -4.66253,0.98215 -0.84759,-0.0851 -1.45785,-1.72541 -1.12433,-2.41676 z"
       id="path94-5-5"
       inkscape:connector-curvature="0" />
    <path
       transform="translate(0,-680.31494)"
       style="display:inline;fill:#000000;fill-rule:evenodd;stroke:#000000;stroke-width:0.26300700999999999"
       d="m 151.05133,950.36727 c 1.74863,0.50267 3.8406,2.71407 1.71646,4.2142 -1.85533,1.73436 -5.75215,0.1436 -4.69692,-2.56659 0.44161,-0.97053 1.855,-2.77508 2.98046,-1.64761 z"
       id="path96-4-4"
       inkscape:connector-curvature="0" />
    <path
       transform="translate(0,-680.31494)"
       style="display:inline;fill:#000000;fill-rule:evenodd;stroke:#000000;stroke-width:0.26300700999999999"
       d="m 119.49975,942.40388 c 2.98021,-1.02058 6.6796,0.65792 7.55944,3.76667 1.08735,2.3506 1.00429,5.62506 -1.38733,7.152 -3.21966,2.23372 -8.63145,1.88235 -10.63306,-1.81512 -1.82056,-3.14905 -0.42288,-7.96739 3.31456,-8.89171 0.37552,-0.102 0.76008,-0.16768 1.14639,-0.21184 z"
       id="path98-3-3"
       inkscape:connector-curvature="0" />
    <path
       transform="translate(0,-680.31494)"
       style="display:inline;fill:#424a53;fill-rule:evenodd;stroke:#424a53;stroke-width:0.26300700999999999"
       d="m 117.75113,947.40802 c -0.68579,2.48863 2.12079,4.54051 4.41773,3.7744 2.99548,-0.23625 2.78037,-4.24147 0.38579,-5.3022 -1.39667,-0.68244 -1.27348,-0.28382 -0.67131,0.75502 0.23705,2.5328 -2.97966,2.25375 -4.13232,0.7728 l 1.1e-4,-2e-5 z"
       id="path100-1-1"
       inkscape:connector-curvature="0" />
    <path
       transform="translate(0,-680.31494)"
       style="display:inline;fill:#424a53;fill-rule:evenodd;stroke:#424a53;stroke-width:0.26300700999999999"
       d="m 142.56668,945.50028 c 0.19616,1.25836 2.76715,0.73619 1.15083,-0.0617 -0.37352,-0.26255 -1.14067,-0.79976 -1.15083,0.0617 z"
       id="path102-2-2"
       inkscape:connector-curvature="0" />
    <path
       transform="translate(0,-680.31494)"
       style="display:inline;fill:#424a53;fill-rule:evenodd;stroke:#424a53;stroke-width:0.26300700999999999"
       d="m 141.13488,951.61669 c -0.59025,0.68945 0.69468,2.42046 0.22426,0.70839 l -0.0846,-0.36633 -0.13991,-0.34208 2.6e-4,2e-5 z"
       id="path104-3-3"
       inkscape:connector-curvature="0" />
    <path
       transform="translate(0,-680.31494)"
       style="display:inline;fill:#424a53;fill-rule:evenodd;stroke:#424a53;stroke-width:0.26300700999999999"
       d="m 151.70426,945.31225 c 0.67241,0.37415 0.55583,0.0579 0,0 z"
       id="path106-3-3"
       inkscape:connector-curvature="0" />
    <path
       transform="translate(0,-680.31494)"
       style="display:inline;fill:#424a53;fill-rule:evenodd;stroke:#424a53;stroke-width:0.26300700999999999"
       d="m 150.2757,952.35303 c -1.02222,1.4393 2.10997,0.57529 0.0657,0.0381 l -0.0657,-0.0383 3e-5,10e-5 z"
       id="path108-4-4"
       inkscape:connector-curvature="0" />
    <path
       transform="translate(0,-680.31494)"
       style="display:inline;fill:#000000;fill-rule:evenodd;stroke:#000000;stroke-width:0.26300700999999999"
       d="m 110.23383,950.94048 c -0.42135,1.84716 -2.71015,2.30484 -4.22145,3.0393 -3.4234,1.32101 -7.535355,-0.62729 -8.816509,-4.04164 -1.627096,-3.36575 0.13774,-8.0872 3.940369,-8.922 2.64573,-0.53569 5.48782,0.0229 7.90279,1.15069 2.39643,1.66072 2.08043,4.98934 1.62983,7.50657 -0.0813,0.44065 -0.22592,0.87042 -0.43503,1.26708 z"
       id="path110-1-1"
       inkscape:connector-curvature="0" />
    <path
       transform="translate(0,-680.31494)"
       style="display:inline;fill:#424a53;fill-rule:evenodd;stroke:#424a53;stroke-width:0.26300700999999999"
       d="m 106.33183,947.45624 c 0.85729,1.23934 1.41344,1.08348 1.3358,-0.56306 0.41782,-2.29414 -2.3224,-2.46775 -3.93615,-2.66924 -2.4252,-0.62784 -4.517482,1.9202 -3.49886,4.17079 0.17813,1.92718 3.86264,3.34925 4.33592,2.14741 -2.58485,-1.14148 -0.3521,-5.15449 1.76331,-3.08582 l -2e-5,-8e-5 z"
       id="path112-1-1"
       inkscape:connector-curvature="0" />
    <path
       transform="translate(0,-680.31494)"
       style="display:inline;fill:#d2f799;fill-rule:evenodd;stroke:#d2f799;stroke-width:0.26300700999999999"
       d="m 164.82002,919.6387 c -0.19686,3.34169 -4.6357,1.67328 -6.94921,2.27764 -3.2649,-0.1629 -6.56064,-1.82344 -9.82295,-0.56772 -1.51624,1.34925 -4.63947,1.50871 -4.64164,-1.13977 -0.32641,-2.08847 -2.63245,1.04532 -3.02903,1.81067 -1.32528,2.33627 -4.17945,0.31505 -4.04678,-1.80598 -0.34719,-2.29079 -0.69438,-4.58157 -1.04157,-6.87236 -1.75948,3.6411 -3.3957,7.35122 -5.2323,10.94917 -2.27377,1.73194 -2.90275,-2.0138 -2.97977,-3.59742 -0.5552,-3.35233 -2.98752,0.37105 -3.22503,1.95479 -0.94222,2.96608 -4.39974,1.6933 -5.83276,-0.0961 -1.54419,-2.61804 -3.8343,-0.85476 -6.09417,-0.75649 -4.3774,-0.006 -8.75523,-0.0573 -13.132788,-0.0816 -0.05419,-1.40046 -0.298802,-2.9996 1.543368,-2.46084 4.01472,-0.018 8.04003,0.15235 12.04795,0.0132 2.00649,-0.68689 4.47969,-1.52344 6.1038,0.42354 0.89922,0.34605 2.48798,3.09105 3.25576,1.85599 0.82876,-2.03425 1.92451,-4.6435 4.38898,-4.92407 2.02614,-0.55202 3.01199,3.01238 3.5057,2.89218 1.69014,-3.55156 3.34303,-7.12229 5.0562,-10.662 2.00598,-1.95288 3.02835,1.61504 2.89183,3.22159 0.34911,2.66087 0.58136,5.34296 1.19362,7.96032 1.26515,-1.84522 3.76943,-4.15101 6.04428,-2.4748 1.10495,0.89447 0.56081,3.14611 2.41972,1.46964 2.25919,-0.6451 4.67448,-0.49717 6.98239,-0.26622 0.71082,0.16356 1.66222,0.5055 2.07689,0.50074 2.60857,0.0829 5.23361,-0.22998 7.83723,-0.13713 0.27842,0.0826 0.52472,0.26971 0.68028,0.51296 z"
       id="path118-7-7"
       inkscape:connector-curvature="0" />
    <path
       transform="translate(0,-680.31494)"
       style="display:inline;fill:#424a53;fill-rule:evenodd;stroke:#424a53;stroke-width:0.26300700999999999"
       d="m 129.06769,836.43092 c -1.41938,1.08778 -0.80827,3.73353 0.97104,4.01908 1.44414,0.54692 2.12508,-1.05206 1.45368,-2.14961 -0.47278,-0.95026 -1.53588,-1.39889 -2.42472,-1.86947 z"
       id="path120-4-4"
       inkscape:connector-curvature="0" />
    <path
       transform="translate(0,-680.31494)"
       style="display:inline;fill:#424a53;fill-rule:evenodd;stroke:#424a53;stroke-width:0.26300700999999999"
       d="m 128.01346,825.17828 c -1.27105,0.77186 -0.91885,2.43375 0.40752,2.94891 0.11726,0.28288 1.22731,0.17669 0.71717,0.42264 0.34857,-0.1258 0.44432,-0.53313 0.61654,-0.91775 0.36003,-1.19882 -0.90371,-1.92313 -1.74123,-2.4538 z"
       id="path122-2-2"
       inkscape:connector-curvature="0" />
    <path
       transform="translate(0,-680.31494)"
       style="display:inline;fill:#424a53;fill-rule:evenodd;stroke:#424a53;stroke-width:0.26300700999999999"
       d="m 129.20261,848.39428 c -0.31751,0.9817 -0.64558,2.15812 -0.18552,3.13747 -0.22675,-0.62003 1.50038,-0.23352 1.33583,-1.10947 -0.028,-0.81332 -0.62096,-1.47156 -1.15031,-2.028 z"
       id="path124-7-7"
       inkscape:connector-curvature="0" />
    <path
       transform="translate(0,-680.31494)"
       inkscape:connector-curvature="0"
       id="path126-7-7"
       d="m 182.80149,916.77913 c 3.59944,6.29016 4.02679,11.02931 6.98553,17.10207 5.10901,8.81137 14.40903,6.9297 16.2469,6.26443 6.29193,-2.4147 11.2008,-8.45411 20.09101,-13.9782 3.83414,-3.01698 6.08632,-7.97256 5.22815,-10.19215 l -43.77542,-1.68467 -4.77616,2.48852 z"
       style="display:inline;fill:#000000;fill-rule:evenodd;stroke:#000000;stroke-width:0.26300700999999999" />
    <path
       transform="translate(0,-680.31494)"
       inkscape:connector-curvature="0"
       id="path128-9-9"
       d="m 195.10124,934.13602 c -0.66106,-0.5475 -2.54961,-4.56105 -3.09193,-6.2577 -1.22957,-3.84793 -4.35878,-9.07371 -4.15422,-13.30468 0.21013,-4.34598 -1.71868,-6.51414 4.41709,-8.63886 6.68506,-2.31459 13.9633,-2.5799 21.56038,-1.27258 4.32663,0.74423 10.87437,2.80551 13.0656,6.37342 1.59826,2.60241 -1.23543,9.45886 -2.91356,10.8712 l -9.75019,8.20828 c -2.11935,1.7839 -6.83063,5.75007 -10.60324,5.56767 -1.37186,-0.0664 -5.76792,0.35308 -8.52992,-1.54675 z"
       style="display:inline;fill:#424a53;fill-rule:evenodd;stroke:#424a53;stroke-width:0.26300700999999999" />
    <path
       transform="translate(0,-680.31494)"
       inkscape:connector-curvature="0"
       id="path130-3-3"
       d="m 239.48657,934.63899 c -2.52121,0.28465 -6.64741,7.3609 -8.28915,9.88193 -1.88006,2.88818 4.31405,4.64165 5.17494,4.3768 2.49986,-0.76862 4.36282,-3.94568 4.937,-4.5193 1.22459,-1.22099 5.80315,-5.91611 4.2819,-6.7364 -2.60843,-1.40634 -3.3562,-2.68634 -6.10469,-3.00303 z"
       style="display:inline;fill:#efa417;fill-rule:evenodd;stroke:#efa417;stroke-width:0.26300700999999999" />
    <path
       transform="translate(0,-680.31494)"
       inkscape:connector-curvature="0"
       id="path150-5-5"
       d="m 151.73201,805.06343 c 0.0429,-0.88789 1.43281,-2.04349 2.28233,-1.22408 0.7441,0.70319 -1.75452,1.80519 -1.70626,0.80695"
       style="display:inline;fill:none;stroke:none" />
    <path
       transform="translate(0,-680.31494)"
       inkscape:connector-curvature="0"
       id="path154-0-0"
       d="m 162.38357,798.57287 c -3.82231,-1.40815 3.41662,0.60965 -0.13219,0.43806"
       style="display:inline;fill:none;stroke:none" />
    <path
       transform="translate(0,-680.31494)"
       style="display:inline;fill:#000000;fill-rule:evenodd;stroke:#000000;stroke-width:0.26300700999999999"
       d="m 123.94003,724.44705 c 0.15154,-0.90402 0.58197,-2.16971 1.75972,-1.86077 1.22222,0.3103 0.94607,1.6949 0.54384,2.54169 -0.60478,1.1113 -2.39889,0.58848 -2.30356,-0.68092 z"
       id="path156-2-2"
       inkscape:connector-curvature="0" />
    <path
       transform="translate(0,-680.31494)"
       style="display:inline;fill:#000000;fill-rule:evenodd;stroke:#000000;stroke-width:0.26300700999999999"
       d="m 118.53171,729.14366 c -2.29188,-0.97405 -0.0692,-3.84441 1.53757,-2.27476 0.87773,1.03769 -0.0893,3.04642 -1.53757,2.27476 z"
       id="path158-8-8"
       inkscape:connector-curvature="0" />
    <path
       transform="translate(0,-680.31494)"
       style="display:inline;fill:#000000;fill-rule:evenodd;stroke:#000000;stroke-width:0.26300700999999999"
       d="m 131.72154,724.24771 c -2.09693,-0.63688 -1.82904,-3.75008 0.63723,-3.1903 2.02162,-0.22035 1.76305,2.9082 0.29447,3.35494 -0.3162,0.0715 -0.65918,0.0113 -0.9317,-0.16464 z"
       id="path160-6-6"
       inkscape:connector-curvature="0" />
    <path
       transform="translate(0,-680.31494)"
       style="display:inline;fill:#000000;fill-rule:evenodd;stroke:#000000;stroke-width:0.26300700999999999"
       d="m 137.44749,723.74989 c -1.75062,-0.24796 -2.73348,-2.55368 -1.02581,-3.60348 1.74283,-1.58459 4.09661,0.77878 2.53735,2.5655 -0.0778,0.70789 -0.82277,1.21927 -1.51154,1.03798 z"
       id="path162-0-0"
       inkscape:connector-curvature="0" />
    <path
       transform="translate(0,-680.31494)"
       style="display:inline;fill:#000000;fill-rule:evenodd;stroke:#000000;stroke-width:0.26300700999999999"
       d="m 143.64162,724.22948 c -1.88456,-0.30274 -2.98985,-2.90243 -0.91291,-3.86263 2.07514,-0.91558 3.50568,2.20163 2.03865,3.5836 -0.29874,0.27228 -0.73728,0.38113 -1.12574,0.27903 z"
       id="path164-2-2"
       inkscape:connector-curvature="0" />
    <path
       transform="translate(0,-680.31494)"
       style="display:inline;fill:#000000;fill-rule:evenodd;stroke:#000000;stroke-width:0.26300700999999999"
       d="m 148.23392,722.94119 c -2.31456,-2.14334 1.91272,-3.68368 3.10417,-1.57041 1.97492,1.87586 -1.82526,3.71492 -2.96868,1.96801 l -0.0842,-0.19137 -0.0511,-0.20623 z"
       id="path166-4-4"
       inkscape:connector-curvature="0" />
    <path
       transform="translate(0,-680.31494)"
       style="display:inline;fill:#000000;fill-rule:evenodd;stroke:#000000;stroke-width:0.26300700999999999"
       d="m 157.93754,725.49522 c -1.56476,0.12254 -3.71558,-1.54211 -2.00781,-2.96413 1.22078,-1.14521 3.6746,-0.49078 3.65593,1.35423 0.20442,0.97702 -0.82312,1.56384 -1.64812,1.6099 z"
       id="path168-8-8"
       inkscape:connector-curvature="0" />
    <path
       transform="translate(0,-680.31494)"
       style="display:inline;fill:#000000;fill-rule:evenodd;stroke:#000000;stroke-width:0.26300700999999999"
       d="m 170.49676,728.65548 c 2.61692,-1.56709 3.72605,2.65642 1.06901,3.34199 -1.84049,1.00991 -4.37531,-1.37267 -2.48783,-3.01652 0.33942,-0.40133 0.93869,-0.53894 1.41882,-0.32547 z"
       id="path170-6-6"
       inkscape:connector-curvature="0" />
    <path
       transform="translate(0,-680.31494)"
       style="display:inline;fill:#000000;fill-rule:evenodd;stroke:#000000;stroke-width:0.26300700999999999"
       d="m 163.53232,724.49867 c 0.62394,-1.89794 2.68461,-0.49741 3.18004,0.68758 0.3467,1.64166 -1.69588,2.66632 -3.09325,2.57001 -1.99156,-0.0931 -2.13234,-2.99064 -0.0867,-3.25759 z"
       id="path172-5-5"
       inkscape:connector-curvature="0" />
    <path
       transform="translate(0,-680.31494)"
       style="display:inline;fill:#000000;fill-rule:evenodd;stroke:#000000;stroke-width:0.26300700999999999"
       d="m 173.84122,736.56054 c -2.32934,-0.47161 -1.72004,-3.73034 0.49659,-3.57664 1.54087,-0.1092 3.73607,1.04858 3.26613,2.85543 -0.51841,1.73366 -2.53345,1.09558 -3.76272,0.72121 z"
       id="path174-0-0"
       inkscape:connector-curvature="0" />
    <path
       transform="translate(0,-680.31494)"
       style="display:inline;fill:#000000;fill-rule:evenodd;stroke:#000000;stroke-width:0.26300700999999999"
       d="m 176.63483,741.07287 c -0.56387,-2.72556 2.89714,-3.21896 3.91613,-1.03601 1.62171,1.44355 0.0904,4.48356 -1.95842,3.13733 -0.76731,-0.50984 -2.12977,-0.94311 -1.95771,-2.10132 z"
       id="path176-9-9"
       inkscape:connector-curvature="0" />
    <path
       transform="translate(0,-680.31494)"
       style="display:inline;fill:#000000;fill-rule:evenodd;stroke:#000000;stroke-width:0.26300700999999999"
       d="m 179.14281,748.83639 c -1.83907,-1.04391 -1.39957,-4.01069 1.04447,-3.43665 2.15046,-0.31494 4.0065,3.26643 1.13076,3.54695 -0.73905,-0.0465 -1.53883,0.50207 -2.17523,-0.1103 z"
       id="path178-0-0"
       inkscape:connector-curvature="0" />
    <path
       transform="translate(0,-680.31494)"
       style="display:inline;fill:#000000;fill-rule:evenodd;stroke:#000000;stroke-width:0.26300700999999999"
       d="m 179.66326,752.10709 c 1.50787,-2.15424 4.29383,0.79466 3.1297,2.69919 -0.67408,2.00455 -3.80338,1.56402 -4.11265,-0.44158 -0.41475,-0.90987 -0.24508,-2.2088 0.98295,-2.25761 z"
       id="path180-0-0"
       inkscape:connector-curvature="0" />
    <path
       transform="translate(0,-680.31494)"
       style="display:inline;fill:#000000;fill-rule:evenodd;stroke:#000000;stroke-width:0.26300700999999999"
       d="m 179.22077,760.3009 c -1.00984,-1.09115 -0.56479,-3.92846 1.34834,-3.04561 1.29597,0.23279 3.2391,1.1473 2.67632,2.98095 -0.60537,1.21834 -3.07697,2.14817 -3.94047,0.7816 -0.0992,-0.22337 -0.12709,-0.48081 -0.0841,-0.71694 z"
       id="path182-6-6"
       inkscape:connector-curvature="0" />
    <path
       transform="translate(0,-680.31494)"
       style="display:inline;fill:#000000;fill-rule:evenodd;stroke:#000000;stroke-width:0.26300700999999999"
       d="m 177.90829,785.58456 c -2.71337,-2.17375 1.55652,-5.40568 3.38487,-2.88678 2.13197,2.30228 -1.41384,5.0453 -3.38488,2.88689 l 1e-5,-1.1e-4 z"
       id="path184-1-1"
       inkscape:connector-curvature="0" />
    <path
       transform="translate(0,-680.31494)"
       style="display:inline;fill:#000000;fill-rule:evenodd;stroke:#000000;stroke-width:0.26300700999999999"
       d="m 175.73628,790.77627 c 0.68956,-3.18197 4.58861,-2.01379 4.36763,0.878 0.97964,3.66595 -4.70274,3.71128 -4.55035,0.41986 0.51708,-0.36849 -0.15289,-0.86069 0.18272,-1.29786 z"
       id="path186-3-3"
       inkscape:connector-curvature="0" />
    <path
       transform="translate(0,-680.31494)"
       style="display:inline;fill:#000000;fill-rule:evenodd;stroke:#000000;stroke-width:0.26300700999999999"
       d="m 175.8606,803.61222 c -0.96329,-2.5381 3.00077,-2.7402 3.71272,-0.72403 1.75386,2.8132 -4.91101,3.89641 -3.71272,0.72403 l 0,0 z"
       id="path188-8-8"
       inkscape:connector-curvature="0" />
    <path
       transform="translate(0,-680.31494)"
       style="display:inline;fill:#000000;fill-rule:evenodd;stroke:#000000;stroke-width:0.26300700999999999"
       d="m 177.5301,810.92603 c 0.0931,-3.26143 5.31353,-2.44399 5.28867,0.35841 -0.53724,2.27503 -3.53916,2.75336 -4.62459,0.7983 -0.42076,-0.21366 -0.69366,-0.6844 -0.66408,-1.15671 z"
       id="path190-9-9"
       inkscape:connector-curvature="0" />
    <path
       transform="translate(0,-680.31494)"
       style="display:inline;fill:#000000;fill-rule:evenodd;stroke:#000000;stroke-width:0.26300700999999999"
       d="m 182.34293,815.42065 c 1.31234,-1.49727 3.96653,-2.4538 5.43845,-0.62838 1.4026,2.15335 -2.04024,4.9084 -3.96675,3.45446 -0.27217,-1.2698 -2.343,-1.21194 -1.4717,-2.82608 z"
       id="path192-3-3"
       inkscape:connector-curvature="0" />
    <path
       transform="translate(0,-680.31494)"
       style="display:inline;fill:#000000;fill-rule:evenodd;stroke:#000000;stroke-width:0.26300700999999999"
       d="m 189.57424,822.48515 c -2.69531,0.18129 -2.18202,-4.12222 0.30192,-3.85103 2.56795,-0.5283 3.93865,3.66645 0.81888,3.78061 -0.38186,-0.0302 -0.73928,0.22181 -1.12079,0.0704 z"
       id="path194-4-4"
       inkscape:connector-curvature="0" />
    <path
       transform="translate(0,-680.31494)"
       style="display:inline;fill:#000000;fill-rule:evenodd;stroke:#000000;stroke-width:0.26300700999999999"
       d="m 201.55128,835.51924 c -2.902,-0.88417 -1.91076,-4.84201 1.11176,-3.51251 2.59169,-0.24908 4.40542,3.81636 0.96063,3.7269 -0.68376,-0.0485 -1.44114,0.106 -2.07239,-0.21439 z"
       id="path196-4-4"
       inkscape:connector-curvature="0" />
    <path
       transform="translate(0,-680.31494)"
       style="display:inline;fill:#000000;fill-rule:evenodd;stroke:#000000;stroke-width:0.26300700999999999"
       d="m 192.95558,827.3845 c -0.0291,-2.93686 3.97569,-2.97938 5.06216,-0.7631 0.84942,2.51346 -2.64062,3.1329 -4.39715,2.63597 -0.83131,-0.36025 -0.65398,-1.17265 -0.66501,-1.87287 z"
       id="path198-6-6"
       inkscape:connector-curvature="0" />
    <path
       transform="translate(0,-680.31494)"
       style="display:inline;fill:#000000;fill-rule:evenodd;stroke:#000000;stroke-width:0.26300700999999999"
       d="m 206.71719,839.30948 c 1.22216,-2.53295 5.59585,-1.7052 4.71653,1.38814 -0.64782,2.78189 -5.54846,2.55707 -5.37079,-0.52675 0.0712,-0.36724 0.31965,-0.69424 0.65427,-0.86139 z"
       id="path200-0-0"
       inkscape:connector-curvature="0" />
    <path
       transform="translate(0,-680.31494)"
       style="display:inline;fill:#000000;fill-rule:evenodd;stroke:#000000;stroke-width:0.26300700999999999"
       d="m 212.82714,848.54209 c -2.57622,-3.04959 2.84488,-5.0071 4.98515,-3.25094 2.29466,2.97787 -2.83114,5.43379 -4.98515,3.25094 z"
       id="path202-6-6"
       inkscape:connector-curvature="0" />
    <path
       transform="translate(0,-680.31494)"
       style="display:inline;fill:#000000;fill-rule:evenodd;stroke:#000000;stroke-width:0.26300700999999999"
       d="m 218.22376,853.2229 c 3.14287,-1.31077 3.97386,4.90293 0.79745,4.43055 -2.71673,-0.083 -4.33554,-3.85202 -0.79745,-4.43055 z"
       id="path204-6-6"
       inkscape:connector-curvature="0" />
    <path
       transform="translate(0,-680.31494)"
       style="display:inline;fill:#000000;fill-rule:evenodd;stroke:#000000;stroke-width:0.26300700999999999"
       d="m 223.79742,861.88508 c 3.28459,0.63485 1.72205,5.43919 -1.38761,3.90559 -2.90192,-0.85515 -2.1327,-5.27385 1.007,-4.19245 l 0.38062,0.28655 -1e-5,3.1e-4 z"
       id="path206-1-1"
       inkscape:connector-curvature="0" />
    <path
       transform="translate(0,-680.31494)"
       style="display:inline;fill:#000000;fill-rule:evenodd;stroke:#000000;stroke-width:0.26300700999999999"
       d="m 226.67187,874.15519 c -3.70891,-0.58045 -1.85341,-5.42892 1.27834,-3.43709 2.83526,0.54925 0.93992,5.38859 -1.27834,3.43709 z"
       id="path208-8-8"
       inkscape:connector-curvature="0" />
    <path
       transform="translate(0,-680.31494)"
       style="display:inline;fill:#000000;fill-rule:evenodd;stroke:#000000;stroke-width:0.26300700999999999"
       d="m 228.12682,884.80684 c -3.52975,-0.0702 -1.96864,-5.89514 1.43669,-4.28525 3.8019,0.67125 1.88862,5.69994 -1.43669,4.28525 z"
       id="path210-4-4"
       inkscape:connector-curvature="0" />
    <path
       transform="translate(0,-680.31494)"
       style="display:inline;fill:#000000;fill-rule:evenodd;stroke:#000000;stroke-width:0.26300700999999999"
       d="m 230.31867,890.931 c 2.30254,1.84438 -1.00848,5.23385 -3.28724,4.02533 -3.0569,-1.3658 0.42559,-6.00956 2.85348,-4.77045 l 0.28158,0.32911 0.15218,0.41601 0,0 z"
       id="path212-9-9"
       inkscape:connector-curvature="0" />
    <path
       transform="translate(0,-680.31494)"
       style="display:inline;fill:#000000;fill-rule:evenodd;stroke:#000000;stroke-width:0.26300700999999999"
       d="m 227.41051,900.0794 c 1.79662,-2.18621 5.37166,1.87502 2.85578,3.42488 -2.2088,1.40481 -5.83213,-1.50726 -2.85578,-3.42488 z"
       id="path214-6-6"
       inkscape:connector-curvature="0" />
    <path
       transform="translate(0,-680.31494)"
       style="display:inline;fill:#000000;fill-rule:evenodd;stroke:#000000;stroke-width:0.26300700999999999"
       d="m 179.27939,767.42835 c -1.50748,-2.88206 2.71192,-3.7075 4.17642,-1.79215 1.82087,1.1593 0.88951,4.3795 -1.38712,3.64873 -0.90848,-0.66508 -1.99912,-1.08112 -2.7893,-1.85658 z"
       id="path258-0-0"
       inkscape:connector-curvature="0" />
    <path
       transform="translate(0,-680.31494)"
       style="display:inline;fill:#000000;fill-rule:evenodd;stroke:#000000;stroke-width:0.26300700999999999"
       d="m 177.99366,776.06642 c -1.60394,-2.79481 4.13783,-2.81045 4.57421,-0.57121 0.1095,1.86797 -4.01294,1.89376 -4.57421,0.57121 z"
       id="path268-2-2"
       inkscape:connector-curvature="0" />
    <path
       transform="translate(0,-680.31494)"
       style="display:inline;fill:none;stroke:#000000;stroke-width:1.50000000000000000;stroke-linecap:butt;stroke-linejoin:miter;stroke-miterlimit:4;stroke-opacity:1;stroke-dasharray:none"
       d="m 146.16716,788.33879 c 0.68664,-0.20756 2.18618,-0.43642 4.11151,0.60475 1.03326,1.14244 1.13909,1.49681 1.41371,2.66649 -2.07396,-1.58454 -3.91324,-1.72659 -5.52522,-3.27124 z"
       id="path5120"
       inkscape:connector-curvature="0"
       sodipodi:nodetypes="cccc" />
    <path
       transform="translate(0,-680.31494)"
       style="display:inline;fill:none;stroke:#000000;stroke-width:1.50000000000000000;stroke-linecap:butt;stroke-linejoin:miter;stroke-miterlimit:4;stroke-opacity:1;stroke-dasharray:none"
       d="m 138.16492,788.16802 c -0.8683,-0.0895 -1.7796,-0.14 -3.09374,0.17519 -1.72819,1.57554 -1.50432,2.09441 -1.46052,3.33942 1.70673,-1.7149 3.59053,-2.05398 4.55426,-3.51461 z"
       id="path5122"
       inkscape:connector-curvature="0"
       sodipodi:nodetypes="cccc" />
    <path
       transform="translate(0,-680.31494)"
       inkscape:connector-curvature="0"
       id="path146-6-6"
       d="m 142.86181,809.19352 c -0.37408,-1.46368 2.03873,-0.79092 2.67198,-0.093 0.8447,0.93028 -0.87817,2.0703 -1.81171,0.69072"
       style="display:inline;fill:none;stroke:none" />
    <g
       transform="matrix(1.25,0,0,1.25,4.3991541,-17.536222)"
       style="display:inline;fill-rule:evenodd"
       id="g3126">
      <path
         sodipodi:nodetypes="ccccccsccccccccccccc"
         style="fill:#000000;stroke:#000000;stroke-width:0.2104056"
         d="m 90.053354,79.091844 c 8.4e-4,4.1e-5 0.0017,-3.31e-4 0.0026,-7.23e-4 0.04108,-0.01328 0.08284,-0.02348 0.124537,-0.03236 2.47322,-0.657301 5.072426,-1.603816 7.655056,-0.918197 2.13647,0.567139 4.490303,2.718744 5.536353,4.654592 1.22351,2.263375 0.92712,9.446769 -0.4478,11.43831 -2.965863,4.29619 -8.415332,7.413134 -15.460397,8.125844 -2.413029,0.24411 -3.071047,-10.070776 -3.647202,-12.54424 -0.574801,-2.466659 0.01882,-5.223561 1.691022,-7.135841 l 3.974151,-3.260777 c 0.0027,-0.0021 0.0062,-0.0062 0.0093,-0.0083 0.05238,-0.04677 0.10795,-0.08988 0.167156,-0.129767 0.0048,-0.0042 0.0099,-0.006 0.01489,-0.01018 0.0084,-0.0061 0.01598,-0.01013 0.02436,-0.01627 0.0027,-0.0016 0.0048,-0.0042 0.0074,-0.004 0.01956,-0.01214 0.03863,-0.02387 0.05854,-0.03468 0.0052,-0.0042 0.01076,-0.006 0.0163,-0.0079 0.08521,-0.04648 0.17464,-0.08425 0.265746,-0.113221 0.0026,-7.02e-4 0.0051,-0.0019 0.0082,-0.0018 z"
         id="path66-2-2"
         inkscape:connector-curvature="0" />
      <path
         sodipodi:nodetypes="ccccccc"
         style="fill:#b6bcc6;fill-opacity:1;stroke:none"
         d="m 91.180071,81.937399 c -2.426012,1.334414 -4.555132,3.056145 -4.517959,6.207122 0.03149,2.61523 1.139579,9.861132 3.651788,9.608072 2.975634,-0.300167 7.68983,-2.716761 9.378602,-5.11989 0.684278,-0.973818 1.654148,-7.209221 1.002558,-8.392522 -0.65278,-1.185081 -2.306552,-2.824666 -3.667244,-3.165562 -1.910768,-0.479124 -4.022016,0.357019 -5.847745,0.86278 z"
         id="path250-1-1"
         inkscape:connector-curvature="0" />
      <path
         sodipodi:nodetypes="ccccc"
         style="fill:#000000;fill-opacity:1;stroke:#000000;stroke-width:0.25797001"
         d="m 94.450171,86.833173 c 2.149685,-0.138404 3.363375,1.474508 3.460159,4.239 -0.470652,5.067466 -1.332001,5.374994 -5.246222,6.080731 -1.844781,-0.413567 -2.662864,-5.3717 -1.703874,-7.506723 1.013903,-1.811161 1.480675,-1.991375 3.489937,-2.813008 z"
         id="path252-5-5"
         inkscape:connector-curvature="0" />
      <path
         sodipodi:nodetypes="cccccccccccc"
         style="fill:#000000;stroke:#000000;stroke-width:0.2104056"
         d="m 127.87669,77.447019 c 0.50396,0.160034 1.00264,0.333684 1.49072,0.526233 l 0.1862,0.04194 c 0.0908,0.03863 0.17559,0.0857 0.25442,0.138371 2.3811,1.012469 4.43149,2.532619 5.30655,5.234571 1.33567,4.124996 -0.59087,17.042356 -4.76383,18.152096 -5.29425,-1.34564 -8.80543,-3.342131 -12.76399,-5.906066 -3.13898,-2.759151 -2.17831,-13.562819 1.26061,-15.753254 2.40996,-1.535369 5.02841,-2.687835 7.94418,-2.489975 l 0.3895,0.08841 c 0.21938,-0.06225 0.45646,-0.07696 0.69561,-0.03202 z"
         id="path256-2-2"
         inkscape:connector-curvature="0" />
      <path
         sodipodi:nodetypes="cccccccc"
         style="fill:#b6bcc6;fill-opacity:1;stroke:none"
         d="m 128.61739,80.898677 c -0.0859,-0.01942 -0.17089,-0.04752 -0.25415,-0.08296 -3.36121,-0.897667 -8.40049,0.238413 -9.5247,4.004353 -0.45884,1.537442 0.20083,8.09889 1.26554,8.707738 2.31794,1.325833 6.49685,4.688282 9.1552,4.008348 2.86773,-0.733434 4.03361,-11.590879 2.53932,-14.107469 -0.76995,-1.296466 -1.89905,-2.01081 -3.18122,-2.529904 z"
         id="path266-7-7"
         inkscape:connector-curvature="0" />
      <path
         sodipodi:nodetypes="cccccc"
         style="fill:#000000;fill-opacity:1;stroke:#000000;stroke-width:0.23730901"
         d="m 124.68651,86.307605 c 1.05165,-0.411391 3.06535,0.871738 3.71935,1.743247 0.9434,1.586813 1.10823,2.344385 0.90877,4.434143 -0.31895,4.355185 -3.4396,5.58781 -5.55188,3.727872 -1.50325,-0.786016 -1.80636,-1.398754 -2.05655,-5.322529 -0.0374,-2.678875 1.4513,-4.173175 2.98031,-4.582733 z"
         id="path272-0-0"
         inkscape:connector-curvature="0" />
      <path
         sodipodi:nodetypes="ccccc"
         inkscape:connector-curvature="0"
         id="path5100-17"
         d="m 124.63077,87.553931 c 1.01476,-0.427098 2.11106,0.08043 2.71902,0.699932 0.75241,0.711282 1.10468,1.652554 1.12303,2.3345 -0.0766,1.36606 -0.91971,1.605413 -1.09829,0.885263 -0.25759,-3.257352 -2.48869,-2.838477 -2.74376,-3.919695 z"
         style="fill:#e6e8eb;fill-opacity:1;stroke:none" />
      <path
         sodipodi:nodetypes="ccccc"
         inkscape:connector-curvature="0"
         id="path5100-1-4"
         d="m 94.188788,87.868012 c 0.800085,-0.75469 1.913735,0.03421 2.405683,0.535493 0.608823,0.575545 0.550438,1.687859 0.565297,2.239668 -0.06185,1.105375 -0.325886,1.931392 -1.385131,0.855555 0.08774,-2.009303 -1.676255,-2.525331 -1.585849,-3.630716 z"
         style="fill:#e6e8eb;fill-opacity:1;fill-rule:evenodd;stroke:none" />
    </g>
    <g
       style="display:inline;fill-rule:evenodd"
       id="g5144"
       transform="matrix(1.2485415,0.06036618,-0.06036618,1.2485415,51.793175,-24.65578)">
      <path
         style="fill:#417d29;fill-opacity:1;stroke:none"
         d="m 96.36499,203.03537 -4.03415,-2.4516 c -2.140756,-0.97669 -4.390029,-0.47214 -6.670869,-0.77133 -2.359488,-0.30927 -5.324731,-1.26744 -5.882961,-3.97825 -0.38071,-1.84985 -0.82325,-4.37045 0.23473,-6.11509 1.733964,-2.85808 5.982667,-2.44528 8.751884,-2.14357 3.574776,0.38923 7.207206,1.68489 9.802272,4.25516 2.039374,2.02067 2.740614,4.24924 3.427134,6.80182 0.60407,2.0169 0.28563,4.38602 -1.983,5.40016 -1.517749,0.67874 -2.598432,-0.34507 -3.64504,-0.9973 z"
         id="path114-3-3"
         inkscape:connector-curvature="0" />
      <path
         style="fill:#adeca8;stroke:#adeca8;stroke-width:0.2104056"
         d="m 98.499431,201.11062 c 1.060912,0.62236 0.760978,-1.33184 0.600707,-1.86457 -0.617112,-2.28411 -1.146306,-4.01908 -2.73052,-5.58068 -2.966101,-2.92289 -7.330052,-3.62815 -11.321703,-3.67318 -0.658764,-0.007 -2.895423,0.0993 -3.028775,1.20224 -0.158166,1.30827 -0.51406,3.83812 0.80179,4.85437 1.885817,1.45722 4.837186,0.92281 7.022103,1.06041 2.527762,0.1586 6.859749,2.21932 8.656398,4.00141 z"
         id="path116-8-8"
         inkscape:connector-curvature="0" />
    </g>
    <path
       transform="translate(0,-680.31494)"
       style="display:inline;fill:#5d6975;fill-opacity:1;fill-rule:evenodd;stroke:none"
       d="m 143.77167,731.42964 c 2.3794,-5.33105 11.28861,-3.05069 15.63479,-1.05431 5.27706,2.2036 8.86478,6.16774 10.21407,9.42553 2.10484,6.7105 -1.90531,9.23777 -4.17031,6.05677 -6.82404,-10.3413 -20.73904,-7.0984 -21.67855,-14.42799 z"
       id="path5100-4"
       inkscape:connector-curvature="0"
       sodipodi:nodetypes="ccccc" />
    <path
       transform="translate(0,-680.31494)"
       style="display:inline;fill:#5d6975;fill-opacity:1;fill-rule:evenodd;stroke:none"
       d="m 196.39509,912.24689 c 1.91148,-5.51615 8.2406,-6.55436 12.74254,-4.93966 5.44724,1.74099 9.23411,1.98314 10.85893,5.11262 0.86077,4.90341 -0.31355,5.94144 -2.93534,4.85441 -7.68923,-9.71523 -19.74428,-0.10688 -20.66613,-5.02737 z"
       id="path5100-4-0"
       inkscape:connector-curvature="0"
       sodipodi:nodetypes="ccccc" />
    <path
       transform="translate(0,-680.31494)"
       style="display:inline;fill:#5d6975;fill-opacity:1;fill-rule:evenodd;stroke:none"
       d="m 189.06179,838.98092 c 1.41135,-8.78257 8.76862,2.1237 14.81941,7.98551 5.84943,6.01429 9.00498,11.09244 10.35427,14.35022 5.92799,13.70479 2.65444,16.64597 0.38944,13.46498 -6.4073,-18.96056 -21.22613,-28.32175 -25.56311,-35.80071 z"
       id="path5100-4-9"
       inkscape:connector-curvature="0"
       sodipodi:nodetypes="ccccc" />
    <path
       transform="translate(0,-680.31494)"
       style="display:inline;fill:#ffe969;fill-opacity:1;fill-rule:evenodd;stroke:#fede49;stroke-width:0.66597687999999999px;stroke-linecap:butt;stroke-linejoin:miter;stroke-opacity:1"
       d="m 143.26001,789.456 c 1.56158,0.88293 1.82883,1.10744 3.30791,2.59813 -1.13905,2.35167 -1.63484,3.59771 -4.04974,6.08241 -1.17391,0.33533 -1.57575,0.4183 -2.88702,0.49083 l 1.0811,-2.76395 c 1.16062,-3.25175 1.73357,-4.30863 2.54775,-6.40742 z"
       id="path5124"
       inkscape:connector-curvature="0"
       sodipodi:nodetypes="cccccc" />
    <path
       style="display:inline;fill:#ffe869;fill-opacity:1;fill-rule:evenodd;stroke:#fede49;stroke-width:1.14811599000000000px;stroke-linecap:butt;stroke-linejoin:miter;stroke-opacity:1"
       d="m 157.46162,116.17453 c 3.10478,-0.13809 5.85908,-0.89596 6.53991,0.33037 -4.5751,4.48657 -8.8981,7.71997 -12.22358,9.99663 -4.90773,4.70279 -8.82471,4.05742 -10.4984,3.67678 5.00672,-3.67475 11.32682,-8.59408 16.18207,-14.00378 z"
       id="path5124-7"
       inkscape:connector-curvature="0"
       sodipodi:nodetypes="ccccc" />
  </g>
</svg>
