<svg xmlns="http://www.w3.org/2000/svg" viewBox="0,0,254.78,691.79"><defs><clipPath id="a"><rect fill-opacity=".528" rx="3.692" height="305.91" width="332.14" y="329.51" x="201.43" fill="#0F0"/></clipPath><filter id="b" color-interpolation-filters="sRGB"><feGaussianBlur stdDeviation=".18"/></filter></defs><g transform="translate(-99.82 -256.398)"><rect ry="0" height="160.29" width="157.99" stroke="#000" y="287.78" x="132.16" fill="#FFF" enable-background="accumulate" color="#000"/><g clip-path="url(#a)" transform="translate(-156.834 -114.305)" stroke="#4d4d4d" fill="#FFF"><g stroke-width=".556"><path d="M260.238 554.09h8.982c1.71 0 3.088-1.69 3.088-3.787 0-2.098-1.377-3.786-3.088-3.786h-8.982c-1.71 0-3.087 1.688-3.087 3.786s1.377 3.786 3.087 3.786z" stroke-width="1.00037744"/><path d="M269.576 557.976H285.1c2.034 0 3.671-2.008 3.671-4.503v-6.328c0-2.495-1.637-4.503-3.671-4.503h-15.523c-2.034 0-3.671 2.008-3.671 4.503v6.328c0 2.494 1.637 4.503 3.671 4.503zM260.238 534.062h8.982c1.71 0 3.088-1.688 3.088-3.786s-1.377-3.786-3.088-3.786h-8.982c-1.71 0-3.087 1.688-3.087 3.786s1.377 3.786 3.087 3.786z" stroke-width="1.00037744"/><path d="M269.576 537.949H285.1c2.034 0 3.671-2.009 3.671-4.503v-6.328c0-2.495-1.637-4.503-3.671-4.503h-15.523c-2.034 0-3.671 2.008-3.671 4.503v6.328c0 2.494 1.637 4.503 3.671 4.503zM260.238 494.008h8.982c1.71 0 3.088-1.689 3.088-3.786 0-2.098-1.377-3.787-3.088-3.787h-8.982c-1.71 0-3.087 1.689-3.087 3.787s1.377 3.786 3.087 3.786z" stroke-width="1.00037744"/><path d="M269.576 497.894H285.1c2.034 0 3.671-2.008 3.671-4.503v-6.328c0-2.494-1.637-4.502-3.671-4.502h-15.523c-2.034 0-3.671 2.008-3.671 4.502v6.328c0 2.495 1.637 4.503 3.671 4.503zM260.238 473.98h8.982c1.71 0 3.088-1.688 3.088-3.786 0-2.097-1.377-3.786-3.088-3.786h-8.982c-1.71 0-3.087 1.689-3.087 3.786s1.377 3.787 3.087 3.787z" stroke-width="1.00037744"/><path d="M269.576 477.867H285.1c2.034 0 3.671-2.008 3.671-4.503v-6.328c0-2.494-1.637-4.503-3.671-4.503h-15.523c-2.034 0-3.671 2.009-3.671 4.503v6.328c0 2.495 1.637 4.503 3.671 4.503z" stroke-width="1.00037744"/><g><path d="M260.238 453.954h8.982c1.71 0 3.088-1.689 3.088-3.787 0-2.097-1.377-3.786-3.088-3.786h-8.982c-1.71 0-3.087 1.689-3.087 3.786s1.377 3.787 3.087 3.787z" stroke-width="1.00037744"/><path d="M269.576 457.84H285.1c2.034 0 3.671-2.008 3.671-4.503v-6.328c0-2.494-1.637-4.503-3.671-4.503h-15.523c-2.034 0-3.671 2.009-3.671 4.503v6.328c0 2.495 1.637 4.503 3.671 4.503z" stroke-width="1.00037744"/></g><g><path d="M260.238 514.035h8.982c1.71 0 3.088-1.689 3.088-3.786 0-2.098-1.377-3.787-3.088-3.787h-8.982c-1.71 0-3.087 1.689-3.087 3.787s1.377 3.786 3.087 3.786z" stroke-width="1.00037744"/><path d="M269.576 517.921H285.1c2.034 0 3.671-2.008 3.671-4.502v-6.329c0-2.494-1.637-4.502-3.671-4.502h-15.523c-2.034 0-3.671 2.008-3.671 4.502v6.329c0 2.494 1.637 4.502 3.671 4.502z" stroke-width="1.00037744"/></g><g><path d="M260.238 413.9h8.982c1.71 0 3.088-1.69 3.088-3.787s-1.377-3.786-3.088-3.786h-8.982c-1.71 0-3.087 1.688-3.087 3.786s1.377 3.786 3.087 3.786z" stroke-width="1.00037744"/><path d="M269.576 417.786H285.1c2.034 0 3.671-2.008 3.671-4.503v-6.328c0-2.495-1.637-4.503-3.671-4.503h-15.523c-2.034 0-3.671 2.008-3.671 4.503v6.328c0 2.494 1.637 4.503 3.671 4.503z" stroke-width="1.00037744"/></g><g><path d="M260.238 433.927h8.982c1.71 0 3.088-1.69 3.088-3.787s-1.377-3.786-3.088-3.786h-8.982c-1.71 0-3.087 1.689-3.087 3.786s1.377 3.787 3.087 3.787z" stroke-width="1.00037744"/><path d="M269.576 437.813H285.1c2.034 0 3.671-2.008 3.671-4.503v-6.328c0-2.494-1.637-4.503-3.671-4.503h-15.523c-2.034 0-3.671 2.008-3.671 4.503v6.328c0 2.495 1.637 4.503 3.671 4.503z" stroke-width="1.00037744"/></g><g><path d="M475.757 555.906h-8.982c-1.71 0-3.088-1.688-3.088-3.786s1.377-3.786 3.088-3.786h8.982c1.71 0 3.087 1.688 3.087 3.786s-1.377 3.786-3.087 3.786z" stroke-width="1.00037744"/><path d="M466.418 559.793h-15.522c-2.034 0-3.672-2.008-3.672-4.503v-6.328c0-2.495 1.638-4.503 3.672-4.503h15.522c2.035 0 3.672 2.008 3.672 4.503v6.328c0 2.494-1.637 4.503-3.672 4.503zM475.757 535.88h-8.982c-1.71 0-3.088-1.69-3.088-3.787 0-2.098 1.377-3.786 3.088-3.786h8.982c1.71 0 3.087 1.688 3.087 3.786s-1.377 3.786-3.087 3.786z" stroke-width="1.00037744"/><path d="M466.418 539.766h-15.522c-2.034 0-3.672-2.009-3.672-4.503v-6.328c0-2.495 1.638-4.503 3.672-4.503h15.522c2.035 0 3.672 2.008 3.672 4.503v6.328c0 2.494-1.637 4.503-3.672 4.503zM475.757 495.825h-8.982c-1.71 0-3.088-1.689-3.088-3.786 0-2.098 1.377-3.787 3.088-3.787h8.982c1.71 0 3.087 1.689 3.087 3.787s-1.377 3.786-3.087 3.786z" stroke-width="1.00037744"/><path d="M466.418 499.711h-15.522c-2.034 0-3.672-2.008-3.672-4.502v-6.329c0-2.494 1.638-4.502 3.672-4.502h15.522c2.035 0 3.672 2.008 3.672 4.502v6.329c0 2.494-1.637 4.502-3.672 4.502zM475.757 475.798h-8.982c-1.71 0-3.088-1.689-3.088-3.786 0-2.098 1.377-3.787 3.088-3.787h8.982c1.71 0 3.087 1.689 3.087 3.787s-1.377 3.786-3.087 3.786z" stroke-width="1.00037744"/><path d="M466.418 479.684h-15.522c-2.034 0-3.672-2.008-3.672-4.503v-6.328c0-2.494 1.638-4.502 3.672-4.502h15.522c2.035 0 3.672 2.008 3.672 4.502v6.328c0 2.495-1.637 4.503-3.672 4.503z" stroke-width="1.00037744"/><g><path d="M475.757 455.77h-8.982c-1.71 0-3.088-1.688-3.088-3.786 0-2.097 1.377-3.786 3.088-3.786h8.982c1.71 0 3.087 1.689 3.087 3.786s-1.377 3.787-3.087 3.787z" stroke-width="1.00037744"/><path d="M466.418 459.657h-15.522c-2.034 0-3.672-2.008-3.672-4.503v-6.328c0-2.494 1.638-4.503 3.672-4.503h15.522c2.035 0 3.672 2.009 3.672 4.503v6.328c0 2.495-1.637 4.503-3.672 4.503z" stroke-width="1.00037744"/></g><g><path d="M475.757 515.852h-8.982c-1.71 0-3.088-1.689-3.088-3.786 0-2.098 1.377-3.787 3.088-3.787h8.982c1.71 0 3.087 1.69 3.087 3.787s-1.377 3.786-3.087 3.786z" stroke-width="1.00037744"/><path d="M466.418 519.738h-15.522c-2.034 0-3.672-2.008-3.672-4.502v-6.328c0-2.495 1.638-4.503 3.672-4.503h15.522c2.035 0 3.672 2.008 3.672 4.503v6.328c0 2.494-1.637 4.502-3.672 4.502z" stroke-width="1.00037744"/></g><g><path d="M475.757 415.716h-8.982c-1.71 0-3.088-1.688-3.088-3.786 0-2.097 1.377-3.786 3.088-3.786h8.982c1.71 0 3.087 1.689 3.087 3.786s-1.377 3.786-3.087 3.786z" stroke-width="1.00037744"/><path d="M466.418 419.603h-15.522c-2.034 0-3.672-2.008-3.672-4.503v-6.328c0-2.495 1.638-4.503 3.672-4.503h15.522c2.035 0 3.672 2.008 3.672 4.503v6.328c0 2.495-1.637 4.503-3.672 4.503z" stroke-width="1.00037744"/></g><g><path d="M475.757 435.744h-8.982c-1.71 0-3.088-1.689-3.088-3.787 0-2.097 1.377-3.786 3.088-3.786h8.982c1.71 0 3.087 1.689 3.087 3.786s-1.377 3.787-3.087 3.787z" stroke-width="1.00037744"/><path d="M466.418 439.63h-15.522c-2.034 0-3.672-2.008-3.672-4.503V428.8c0-2.494 1.638-4.503 3.672-4.503h15.522c2.035 0 3.672 2.008 3.672 4.503v6.328c0 2.495-1.637 4.503-3.672 4.503z" stroke-width="1.00037744"/></g></g></g><g stroke-width=".556"><path d="M440.057 589.806v-8.982c0-1.71-1.688-3.088-3.786-3.088s-3.786 1.377-3.786 3.088v8.982c0 1.71 1.688 3.087 3.786 3.087s3.786-1.377 3.786-3.087z" stroke-width="1.00037744"/><path d="M443.944 580.468v-15.523c0-2.034-2.009-3.671-4.503-3.671h-6.328c-2.495 0-4.503 1.637-4.503 3.671v15.523c0 2.034 2.008 3.671 4.503 3.671h6.328c2.494 0 4.503-1.637 4.503-3.671zM420.03 589.806v-8.982c0-1.71-1.689-3.088-3.786-3.088-2.098 0-3.787 1.378-3.787 3.088v8.982c0 1.71 1.69 3.087 3.787 3.087s3.786-1.377 3.786-3.087z" stroke-width="1.00037744"/><path d="M423.916 580.468v-15.523c0-2.034-2.008-3.671-4.502-3.671h-6.328c-2.495 0-4.503 1.637-4.503 3.671v15.523c0 2.034 2.008 3.671 4.503 3.671h6.328c2.494 0 4.502-1.637 4.502-3.671zM379.976 589.806v-8.982c0-1.71-1.689-3.088-3.787-3.088-2.097 0-3.786 1.377-3.786 3.088v8.982c0 1.71 1.689 3.087 3.786 3.087s3.787-1.377 3.787-3.087z" stroke-width="1.00037744"/><path d="M383.862 580.468v-15.523c0-2.034-2.008-3.671-4.503-3.671h-6.328c-2.494 0-4.502 1.637-4.502 3.671v15.523c0 2.034 2.008 3.671 4.502 3.671h6.328c2.495 0 4.503-1.637 4.503-3.671zM359.949 589.806v-8.982c0-1.71-1.689-3.088-3.787-3.088-2.097 0-3.786 1.378-3.786 3.088v8.982c0 1.71 1.689 3.087 3.786 3.087s3.787-1.377 3.787-3.087z" stroke-width="1.00037744"/><path d="M363.835 580.468v-15.523c0-2.034-2.008-3.671-4.503-3.671h-6.328c-2.494 0-4.503 1.637-4.503 3.671v15.523c0 2.034 2.009 3.671 4.503 3.671h6.328c2.495 0 4.503-1.637 4.503-3.671z" stroke-width="1.00037744"/><g><path d="M339.922 589.806v-8.982c0-1.71-1.69-3.088-3.787-3.088s-3.786 1.377-3.786 3.088v8.982c0 1.71 1.689 3.087 3.786 3.087s3.787-1.377 3.787-3.087z" stroke-width="1.00037744"/><path d="M343.808 580.468v-15.523c0-2.034-2.008-3.671-4.503-3.671h-6.328c-2.494 0-4.503 1.637-4.503 3.671v15.523c0 2.034 2.008 3.671 4.503 3.671h6.328c2.495 0 4.503-1.637 4.503-3.671z" stroke-width="1.00037744"/></g><g><path d="M400.003 589.806v-8.982c0-1.71-1.689-3.088-3.786-3.088-2.098 0-3.787 1.377-3.787 3.088v8.982c0 1.71 1.689 3.087 3.787 3.087s3.786-1.377 3.786-3.087z" stroke-width="1.00037744"/><path d="M403.89 580.468v-15.523c0-2.034-2.009-3.671-4.504-3.671h-6.328c-2.494 0-4.502 1.637-4.502 3.671v15.523c0 2.034 2.008 3.671 4.502 3.671h6.328c2.495 0 4.503-1.637 4.503-3.671z" stroke-width="1.00037744"/></g><g><path d="M299.867 589.806v-8.982c0-1.71-1.688-3.088-3.786-3.088s-3.786 1.377-3.786 3.088v8.982c0 1.71 1.688 3.087 3.786 3.087s3.786-1.377 3.786-3.087z" stroke-width="1.00037744"/><path d="M303.754 580.468v-15.523c0-2.034-2.008-3.671-4.503-3.671h-6.328c-2.495 0-4.503 1.637-4.503 3.671v15.523c0 2.034 2.008 3.671 4.503 3.671h6.328c2.494 0 4.503-1.637 4.503-3.671z" stroke-width="1.00037744"/></g><g><path d="M319.895 589.806v-8.982c0-1.71-1.69-3.088-3.787-3.088s-3.786 1.377-3.786 3.088v8.982c0 1.71 1.689 3.087 3.786 3.087s3.787-1.377 3.787-3.087z" stroke-width="1.00037744"/><path d="M323.78 580.468v-15.523c0-2.034-2.007-3.671-4.502-3.671h-6.328c-2.494 0-4.503 1.637-4.503 3.671v15.523c0 2.034 2.008 3.671 4.503 3.671h6.328c2.495 0 4.503-1.637 4.503-3.671z" stroke-width="1.00037744"/></g></g><path stroke-linejoin="round" d="M452.33 397.81l-10 9.992-.023 148.6 10.027 10-.004-168.59" stroke-width="2"/><g stroke-width=".556"><path d="M441.874 374.288v8.981c0 1.71-1.688 3.088-3.786 3.088s-3.786-1.377-3.786-3.088v-8.981c0-1.711 1.688-3.088 3.786-3.088s3.786 1.377 3.786 3.088z" stroke-width="1.00037744"/><path d="M445.76 383.626v15.522c0 2.034-2.007 3.672-4.502 3.672h-6.328c-2.495 0-4.503-1.638-4.503-3.672v-15.522c0-2.035 2.008-3.672 4.503-3.672h6.328c2.494 0 4.503 1.637 4.503 3.672zM421.847 374.287v8.982c0 1.71-1.688 3.088-3.786 3.088s-3.786-1.377-3.786-3.088v-8.982c0-1.71 1.688-3.087 3.786-3.087s3.786 1.377 3.786 3.087z" stroke-width="1.00037744"/><path d="M425.734 383.626v15.522c0 2.034-2.009 3.672-4.503 3.672h-6.328c-2.495 0-4.503-1.638-4.503-3.672v-15.522c0-2.035 2.008-3.672 4.503-3.672h6.328c2.494 0 4.503 1.637 4.503 3.672zM381.793 374.288v8.981c0 1.71-1.689 3.088-3.786 3.088-2.098 0-3.787-1.377-3.787-3.088v-8.981c0-1.711 1.689-3.088 3.787-3.088s3.786 1.377 3.786 3.088z" stroke-width="1.00037744"/><path d="M385.68 383.626v15.522c0 2.034-2.009 3.672-4.504 3.672h-6.328c-2.494 0-4.502-1.638-4.502-3.672v-15.522c0-2.035 2.008-3.672 4.502-3.672h6.328c2.495 0 4.503 1.637 4.503 3.672zM361.766 374.287v8.982c0 1.71-1.689 3.088-3.787 3.088-2.097 0-3.786-1.377-3.786-3.088v-8.982c0-1.71 1.689-3.087 3.786-3.087s3.787 1.377 3.787 3.087z" stroke-width="1.00037744"/><path d="M365.652 383.626v15.522c0 2.034-2.008 3.672-4.503 3.672h-6.328c-2.494 0-4.503-1.638-4.503-3.672v-15.522c0-2.035 2.009-3.672 4.503-3.672h6.328c2.495 0 4.503 1.637 4.503 3.672z" stroke-width="1.00037744"/><g><path d="M341.739 374.288v8.981c0 1.71-1.689 3.088-3.787 3.088-2.097 0-3.786-1.377-3.786-3.088v-8.981c0-1.711 1.689-3.088 3.786-3.088s3.787 1.377 3.787 3.088z" stroke-width="1.00037744"/><path d="M345.625 383.626v15.522c0 2.034-2.008 3.672-4.503 3.672h-6.328c-2.494 0-4.503-1.638-4.503-3.672v-15.522c0-2.035 2.009-3.672 4.503-3.672h6.328c2.495 0 4.503 1.637 4.503 3.672z" stroke-width="1.00037744"/></g><g><path d="M401.82 374.288v8.981c0 1.71-1.689 3.088-3.786 3.088-2.098 0-3.787-1.377-3.787-3.088v-8.981c0-1.711 1.689-3.088 3.787-3.088s3.786 1.377 3.786 3.088z" stroke-width="1.00037744"/><path d="M405.706 383.626v15.522c0 2.034-2.008 3.672-4.502 3.672h-6.329c-2.494 0-4.502-1.638-4.502-3.672v-15.522c0-2.035 2.008-3.672 4.502-3.672h6.329c2.494 0 4.502 1.637 4.502 3.672z" stroke-width="1.00037744"/></g><g><path d="M301.684 374.288v8.981c0 1.71-1.688 3.088-3.786 3.088-2.097 0-3.786-1.377-3.786-3.088v-8.981c0-1.711 1.688-3.088 3.786-3.088s3.786 1.377 3.786 3.088z" stroke-width="1.00037744"/><path d="M305.57 383.626v15.522c0 2.034-2.007 3.672-4.502 3.672h-6.328c-2.495 0-4.503-1.638-4.503-3.672v-15.522c0-2.035 2.008-3.672 4.503-3.672h6.328c2.494 0 4.503 1.637 4.503 3.672z" stroke-width="1.00037744"/></g><g><path d="M321.712 374.288v8.981c0 1.71-1.69 3.088-3.787 3.088s-3.786-1.377-3.786-3.088v-8.981c0-1.711 1.689-3.088 3.786-3.088s3.787 1.377 3.787 3.088z" stroke-width="1.00037744"/><path d="M325.598 383.626v15.522c0 2.034-2.008 3.672-4.503 3.672h-6.328c-2.494 0-4.503-1.638-4.503-3.672v-15.522c0-2.035 2.008-3.672 4.503-3.672h6.328c2.495 0 4.503 1.637 4.503 3.672z" stroke-width="1.00037744"/></g></g><path stroke-linejoin="round" d="M283.71 397.85l9.992 10 148.6.023 10-10.027-168.59.004M452.31 566.36l-9.992-10-148.6-.023-10 10.027 168.59-.004" stroke-width="2"/><path stroke-linejoin="round" d="M283.66 566.37l10-9.992.023-148.6-10.027-10 .004 168.59" stroke-width="2"/><rect stroke-linejoin="round" ry="10.165" height="20.329" filter="url(#b)" width="20.329" y="416" x="298.77" stroke-width="2"/></g><g font-family="Sans" font-size="112" fill="#FFF" letter-spacing="-5" word-spacing="0"><path d="M387.69 379.08l7.273-9.297 17.117-18.594h18.812l-24.28 26.523 25.757 34.617h-19.25l-17.609-24.773-7.164 5.742v19.031h-16.68v-85.094h16.68v37.953l-.875 13.891h.219M440.52 335.38c0-5.432 3.026-8.148 9.078-8.148s9.078 2.716 9.078 8.148c0 2.589-.765 4.612-2.297 6.07-1.495 1.422-3.755 2.133-6.78 2.133-6.053 0-9.079-2.734-9.079-8.203m17.391 76.945h-16.68v-61.141h16.68v61.141M501.11 400.13c2.917 0 6.417-.638 10.5-1.914v12.414c-4.156 1.86-9.26 2.789-15.312 2.789-6.672 0-11.539-1.677-14.602-5.031-3.026-3.39-4.54-8.459-4.54-15.203v-29.477h-7.983v-7.055l9.187-5.578 4.813-12.906h10.664v13.016h17.117v12.523h-17.117v29.477c0 2.37.656 4.12 1.968 5.25 1.35 1.13 3.117 1.695 5.305 1.695M580.35 412.33h-16.68v-35.711c0-4.411-.784-7.71-2.352-9.898-1.567-2.224-4.065-3.336-7.492-3.336-4.666 0-8.039 1.568-10.117 4.703-2.078 3.099-3.117 8.258-3.117 15.477v28.766h-16.68V351.19h12.742l2.242 7.82h.93c1.86-2.953 4.411-5.177 7.656-6.672 3.281-1.531 7-2.297 11.156-2.297 7.11 0 12.505 1.933 16.188 5.797 3.682 3.828 5.523 9.37 5.523 16.625v39.867M596.92 335.38c0-5.432 3.026-8.148 9.078-8.148s9.078 2.716 9.078 8.148c0 2.589-.765 4.612-2.297 6.07-1.495 1.422-3.755 2.133-6.78 2.133-6.053 0-9.079-2.734-9.079-8.203m17.391 76.945h-16.68v-61.141h16.68v61.141M656.59 413.42c-19.031 0-28.547-10.445-28.547-31.336 0-10.391 2.588-18.32 7.766-23.789 5.177-5.505 12.596-8.258 22.258-8.258 7.072 0 13.417 1.386 19.03 4.156l-4.921 12.906c-2.625-1.057-5.068-1.914-7.328-2.57a23.043 23.043 0 0 0-6.782-1.039c-8.677 0-13.016 6.162-13.016 18.484 0 11.958 4.339 17.938 13.016 17.938 3.209 0 6.18-.42 8.914-1.258 2.735-.875 5.47-2.224 8.204-4.047v14.273c-2.698 1.714-5.433 2.899-8.204 3.555-2.734.656-6.198.984-10.39.984M686.94 404.51c0-1.714.237-3.154.71-4.32.511-1.203 1.204-2.17 2.079-2.899.875-.729 1.896-1.257 3.063-1.586s2.424-.492 3.773-.492c1.276 0 2.48.164 3.61.492 1.166.329 2.187.857 3.062 1.586.875.73 1.568 1.696 2.078 2.899.51 1.166.766 2.607.766 4.32 0 1.64-.256 3.044-.766 4.21-.51 1.168-1.203 2.134-2.078 2.9a7.784 7.784 0 0 1-3.063 1.64c-1.13.364-2.333.547-3.61.547-1.348 0-2.606-.183-3.772-.547a7.785 7.785 0 0 1-3.063-1.64c-.875-.766-1.568-1.733-2.078-2.9-.474-1.166-.711-2.57-.711-4.21M720.52 335.38c0-5.432 3.026-8.148 9.078-8.148s9.078 2.716 9.078 8.148c0 2.589-.765 4.612-2.297 6.07-1.495 1.422-3.755 2.133-6.78 2.133-6.053 0-9.079-2.734-9.079-8.203m17.391 76.945h-16.68v-61.141h16.68v61.141M781.11 400.13c2.917 0 6.417-.638 10.5-1.914v12.414c-4.156 1.86-9.26 2.789-15.312 2.789-6.672 0-11.539-1.677-14.602-5.031-3.026-3.39-4.54-8.459-4.54-15.203v-29.477h-7.983v-7.055l9.187-5.578 4.813-12.906h10.664v13.016h17.117v12.523h-17.117v29.477c0 2.37.656 4.12 1.968 5.25 1.35 1.13 3.118 1.695 5.305 1.695"/></g><g stroke="#FFF"><path stroke-linejoin="bevel" d="M251.271 365.613l87.758 87.076-31.853-2.331 22.918 40.788-30.3 15.927-18.645-42.342-26.415 27.58z" stroke-linecap="round" stroke-width="8.22169753" fill="#FFF"/><path stroke-linejoin="bevel" d="M251.89 370.912l78.752 78.14-28.585-2.09 20.567 36.602-27.19 14.292L278.7 459.86l-23.705 24.75z" stroke-linecap="round" stroke-width="7.37811313" fill="#373737"/></g></g></svg>