<?xml version="1.0" encoding="UTF-8" standalone="no"?>
<!-- Created with Inkscape (http://www.inkscape.org/) -->
<svg id="svg2" xmlns:rdf="http://www.w3.org/1999/02/22-rdf-syntax-ns#" xmlns="http://www.w3.org/2000/svg" height="61.43" width="137.05" version="1.1" xmlns:cc="http://creativecommons.org/ns#" xmlns:dc="http://purl.org/dc/elements/1.1/">
 <metadata id="metadata7">
  <rdf:RDF>
   <cc:Work rdf:about="">
    <dc:format>image/svg+xml</dc:format>
    <dc:type rdf:resource="http://purl.org/dc/dcmitype/StillImage"/>
    <dc:title/>
   </cc:Work>
  </rdf:RDF>
 </metadata>
 <g id="layer1" transform="translate(-296.01004,-373.85609)">
  <g id="text2985" style="letter-spacing:0px;word-spacing:0px;" font-weight="normal" font-size="40px" font-style="normal" font-stretch="normal" line-height="125%" font-variant="normal" font-family="Noto Sans" fill="#FFF">
   <g id="text3059" font-family="Noto Sans" font-size="27.84835815px" line-height="125%">
    <path id="path12484" d="m328.97,412.52c-0.00001,1.7949-0.64818,3.2091-1.9445,4.2425-1.2873,1.0334-3.0822,1.5502-5.3847,1.5502-2.1213,0-3.9978-0.39887-5.6295-1.1966v-3.9162c1.3416,0.59831,2.4748,1.0198,3.3995,1.2646,0.93371,0.24476,1.7858,0.36714,2.5564,0.36714,0.92464,0,1.6317-0.17677,2.1213-0.53031,0.49858-0.35354,0.74787-0.87933,0.74788-1.5774-0.00001-0.3898-0.10879-0.73428-0.32635-1.0334-0.21757-0.30821-0.53939-0.60283-0.96544-0.88386-0.41701-0.28101-1.2737-0.72974-2.57-1.3462-1.2148-0.5711-2.1258-1.1196-2.7332-1.6453-0.60737-0.52577-1.0924-1.1377-1.455-1.8357-0.36261-0.69801-0.54391-1.5139-0.54391-2.4476,0-1.7586,0.59377-3.1411,1.7813-4.1473,1.1966-1.0062,2.8465-1.5093,4.9496-1.5094,1.0334,0.00002,2.017,0.1224,2.9507,0.36714,0.94277,0.24478,1.9263,0.58926,2.9507,1.0334l-1.3598,3.2771c-1.0606-0.43512-1.94-0.7388-2.638-0.91106-0.68896-0.17222-1.3688-0.25834-2.0397-0.25835-0.79775,0.00001-1.4096,0.18585-1.8357,0.55751-0.42607,0.37169-0.6391,0.85668-0.6391,1.455,0,0.37168,0.0861,0.69803,0.25836,0.97904,0.17224,0.27197,0.44419,0.53939,0.81587,0.80227,0.38073,0.25384,1.2737,0.71617,2.6788,1.387,1.8584,0.8884,3.132,1.7813,3.821,2.6788,0.68894,0.8884,1.0334,1.9808,1.0334,3.2771"/>
    <path id="path12486" d="m343.02,418.04-0.55751-1.9445-0.21757,0c-0.4442,0.70709-1.0742,1.2555-1.8901,1.6453-0.81588,0.38074-1.7451,0.57111-2.7876,0.57111-1.7858,0-3.132-0.47593-4.0386-1.4278-0.90652-0.96091-1.3598-2.3388-1.3598-4.1337v-9.9128h4.1473v8.8794c-0.00001,1.0969,0.1949,1.9218,0.58471,2.4748,0.38979,0.54392,1.0108,0.81588,1.8629,0.81587,1.1603,0.00001,1.9989-0.38527,2.5156-1.1558,0.5167-0.77961,0.77506-2.0669,0.77507-3.8618v-7.1525h4.1473v15.202h-3.1819"/>
    <path id="path12488" d="m359.03,402.56c1.7949,0.00002,3.2,0.70257,4.2153,2.1077,1.0153,1.3961,1.5229,3.3134,1.523,5.7519-0.00002,2.5111-0.5258,4.4556-1.5774,5.8335-1.0425,1.3779-2.4658,2.0669-4.2697,2.0669-1.7859,0-3.1864-0.64817-4.2017-1.9445h-0.28555l-0.69349,1.6725h-3.1683v-21.158h4.1473v4.9224c0,0.62551-0.0544,1.6272-0.16317,3.0051h0.16317c0.96997-1.5048,2.4068-2.2572,4.3105-2.2572m-1.3326,3.3179c-1.0244,0.00001-1.7723,0.3173-2.2436,0.95185-0.47139,0.62551-0.71615,1.6635-0.73428,3.1139v0.44873c0,1.6318,0.24022,2.8012,0.72069,3.5082,0.48951,0.70709,1.26,1.0606,2.3116,1.0606,0.85212,0,1.5275-0.3898,2.0261-1.1694,0.50765-0.78867,0.76147-1.9309,0.76148-3.4267-0.00001-1.4958-0.25383-2.6153-0.76148-3.3587-0.50766-0.7524-1.2012-1.1286-2.0805-1.1286"/>
    <path id="path12490" d="m381.81,418.04-4.1473,0,0-8.8794c-0.00001-1.0969-0.18584-1.9173-0.55751-2.4612-0.36262-0.55297-0.93826-0.82946-1.7269-0.82947-1.0606,0.00001-1.8312,0.38982-2.3116,1.1694-0.48047,0.77962-0.72069,2.0624-0.72069,3.8482v7.1525h-4.1473v-15.202h3.1683l0.55751,1.9445h0.23116c0.40793-0.698,0.99717-1.2419,1.7677-1.6317,0.77054-0.39885,1.6544-0.59828,2.6516-0.5983,2.2754,0.00002,3.8164,0.74336,4.6233,2.23h0.36714c0.40792-0.70707,1.0062-1.2555,1.7949-1.6453,0.79772-0.38979,1.6952-0.58469,2.6924-0.58471,1.7224,0.00002,3.0232,0.44421,3.9026,1.3326,0.88837,0.87934,1.3326,2.2935,1.3326,4.2425v9.9128h-4.1609v-8.8794c-0.00003-1.0969-0.18586-1.9173-0.55752-2.4612-0.36262-0.55297-0.93827-0.82946-1.7269-0.82947-1.0153,0.00001-1.7768,0.36262-2.2844,1.0878-0.4986,0.72522-0.74789,1.8765-0.74788,3.4538v7.6284"/>
    <path id="path12492" d="m395.38,398.91c0-1.3507,0.75241-2.026,2.2572-2.0261,1.5048,0.00003,2.2572,0.67538,2.2572,2.0261-0.00001,0.64365-0.19038,1.1468-0.57111,1.5094-0.37168,0.35356-0.93372,0.53033-1.6861,0.53032-1.5048,0.00001-2.2572-0.67988-2.2572-2.0397m4.3241,19.132-4.1473,0,0-15.202,4.1473,0,0,15.202"/>
    <path id="path12494" d="m410.45,415.01c0.7252,0.00001,1.5955-0.15864,2.6108-0.47592v3.0867c-1.0334,0.46232-2.3026,0.69349-3.8074,0.69349-1.6589,0-2.8692-0.417-3.6306-1.251-0.75242-0.84307-1.1286-2.1031-1.1286-3.7802v-7.3292h-1.9853v-1.7541l2.2844-1.387,1.1966-3.2091h2.6516v3.2363h4.2561v3.1139h-4.2561v7.3292c0,0.58924,0.16317,1.0244,0.48953,1.3054,0.3354,0.28103,0.77507,0.42154,1.319,0.42153"/>
   </g>
  </g>
 </g>
</svg>
