G04 #@! TF.FileFunction,Copper,L2,Bot,Signal*
%FSLAX46Y46*%
G04 Gerber Fmt 4.6, Leading zero omitted, Abs format (unit mm)*
G04 Created by KiCad (PCBNEW 0.201505121916+5652~23~ubuntu14.04.1-product) date Mon 25 May 2015 21:29:56 BST*
%MOMM*%
G01*
G04 APERTURE LIST*
%ADD10C,0.150000*%
%ADD11C,0.149860*%
%ADD12C,1.879600*%
%ADD13R,1.000760X1.143000*%
%ADD14R,0.889000X1.600200*%
%ADD15R,0.650240X1.000760*%
%ADD16R,2.499360X0.998220*%
%ADD17C,3.403600*%
%ADD18R,1.600200X0.609600*%
%ADD19R,1.480820X0.584200*%
%ADD20R,1.143000X0.635000*%
%ADD21R,1.397000X0.889000*%
%ADD22R,0.889000X1.397000*%
%ADD23R,1.000760X0.650240*%
%ADD24R,0.635000X1.143000*%
%ADD25R,1.300000X0.400000*%
%ADD26R,1.095000X0.390000*%
%ADD27R,0.200000X1.500000*%
%ADD28R,1.300000X1.300000*%
%ADD29C,0.551180*%
%ADD30C,0.299720*%
%ADD31C,0.152400*%
G04 APERTURE END LIST*
D10*
D11*
X51798500Y-50700000D02*
X50401500Y-50700000D01*
X47050000Y-55149620D02*
X47050000Y-56150380D01*
X48100380Y-49500000D02*
X47099620Y-49500000D01*
D12*
X60960000Y-45847000D03*
X63500000Y-45593000D03*
X66040000Y-45847000D03*
X68580000Y-45593000D03*
X71120000Y-45847000D03*
X73660000Y-45593000D03*
D13*
X43100840Y-49000000D03*
X44899160Y-49000000D03*
D14*
X70276800Y-48558200D03*
X68371800Y-48558200D03*
X66466800Y-48558200D03*
D12*
X66040000Y-56007000D03*
X68580000Y-55753000D03*
X71120000Y-56007000D03*
X73660000Y-55753000D03*
D15*
X46847500Y-45430000D03*
X48752500Y-45430000D03*
X46847500Y-47970000D03*
X47800000Y-45430000D03*
X48752500Y-47970000D03*
D16*
X49625000Y-56499820D03*
X49625000Y-54300180D03*
D17*
X64500000Y-51700000D03*
D12*
X40640000Y-43307000D03*
X43180000Y-43053000D03*
X45720000Y-43307000D03*
X48260000Y-43053000D03*
X50800000Y-43307000D03*
X53340000Y-43053000D03*
X55880000Y-43307000D03*
X58420000Y-43053000D03*
X60960000Y-43307000D03*
X63500000Y-43053000D03*
X66040000Y-43307000D03*
X68580000Y-43053000D03*
X71120000Y-43307000D03*
X73660000Y-43053000D03*
X40640000Y-58547000D03*
X43180000Y-58293000D03*
X45720000Y-58547000D03*
X48260000Y-58293000D03*
X50800000Y-58547000D03*
X53340000Y-58293000D03*
X55880000Y-58547000D03*
X58420000Y-58293000D03*
X60960000Y-58547000D03*
X63500000Y-58293000D03*
X66040000Y-58547000D03*
X68580000Y-58293000D03*
X71120000Y-58547000D03*
X73660000Y-58293000D03*
D18*
X52499980Y-49205000D03*
X52499980Y-47935000D03*
X52499980Y-46665000D03*
X52499980Y-45395000D03*
X57900020Y-45395000D03*
X57900020Y-46665000D03*
X57900020Y-47935000D03*
X57900020Y-49205000D03*
D19*
X50440040Y-49205000D03*
X50440040Y-47935000D03*
X50440040Y-46665000D03*
X50440040Y-45395000D03*
D20*
X47500000Y-50938000D03*
X47500000Y-52462000D03*
D21*
X45200000Y-45147500D03*
X45200000Y-47052500D03*
D20*
X59900000Y-49262000D03*
X59900000Y-47738000D03*
D13*
X51999160Y-50700000D03*
X50200840Y-50700000D03*
D22*
X73852500Y-51500000D03*
X71947500Y-51500000D03*
X68747500Y-52500000D03*
X70652500Y-52500000D03*
D20*
X47050000Y-56412000D03*
X47050000Y-54888000D03*
D23*
X74213800Y-48113700D03*
X74213800Y-50018700D03*
X71673800Y-48113700D03*
X74213800Y-49066200D03*
X71673800Y-50018700D03*
D20*
X45500000Y-56412000D03*
X45500000Y-54888000D03*
D24*
X46838000Y-49500000D03*
X48362000Y-49500000D03*
D25*
X69900000Y-51150000D03*
X69900000Y-50050000D03*
D26*
X69955000Y-50600000D03*
D27*
X69150000Y-50600000D03*
D28*
X42800000Y-50700000D03*
X40700000Y-50700000D03*
X42800000Y-52800000D03*
X40700000Y-52800000D03*
D12*
X40630000Y-45700000D03*
X43170000Y-45700000D03*
D29*
X49310800Y-50596800D03*
X42110000Y-50620000D03*
X45830000Y-52010000D03*
X56885080Y-45976540D03*
X55875000Y-49550000D03*
X54809900Y-45537120D03*
X53800000Y-47500000D03*
X51825000Y-56150000D03*
X61299600Y-56210200D03*
X60690000Y-55829200D03*
X53300000Y-56100000D03*
X46900000Y-50100000D03*
X41700000Y-51700000D03*
X44330000Y-51250000D03*
X46600000Y-45400000D03*
X50326800Y-56083200D03*
X59826400Y-53060600D03*
X57845200Y-53035200D03*
X50809400Y-54127400D03*
X56175000Y-55250000D03*
X54314600Y-54127400D03*
X49225000Y-46525000D03*
X47420000Y-54120000D03*
X54619400Y-48514000D03*
X44280000Y-54240000D03*
X50330000Y-52510000D03*
X55000400Y-52374800D03*
X56010000Y-54180000D03*
X58090000Y-55840000D03*
X46300000Y-53700000D03*
X69700000Y-52400000D03*
X72900000Y-51500000D03*
D30*
X49310800Y-50596800D02*
X49935640Y-50596800D01*
X49935640Y-50596800D02*
X50138840Y-50800000D01*
X49200000Y-50486000D02*
X49310800Y-50596800D01*
X42200000Y-50620000D02*
X42110000Y-50620000D01*
X44620000Y-50620000D02*
X42200000Y-50620000D01*
X49200000Y-48417500D02*
X48752500Y-47970000D01*
X49200000Y-50486000D02*
X49200000Y-48417500D01*
X45830000Y-51830000D02*
X45830000Y-52010000D01*
X44620000Y-50620000D02*
X45830000Y-51830000D01*
X43200000Y-50620000D02*
X43120000Y-50620000D01*
X42200000Y-50620000D02*
X43200000Y-50620000D01*
X43200000Y-49099160D02*
X43100840Y-49000000D01*
X43200000Y-50620000D02*
X43200000Y-49099160D01*
D31*
X45500000Y-58327000D02*
X45720000Y-58547000D01*
X45500000Y-56412000D02*
X45500000Y-58327000D01*
X57900020Y-45395000D02*
X57318480Y-45976540D01*
X57318480Y-45976540D02*
X56885080Y-45976540D01*
X50440040Y-49205000D02*
X52499980Y-49205000D01*
X55663862Y-49761138D02*
X53056118Y-49761138D01*
X53056118Y-49761138D02*
X52499980Y-49205000D01*
X55875000Y-49550000D02*
X55663862Y-49761138D01*
X56050226Y-46665000D02*
X57900020Y-46665000D01*
X54922346Y-45537120D02*
X56050226Y-46665000D01*
X54809900Y-45537120D02*
X54922346Y-45537120D01*
X50440040Y-47935000D02*
X52499980Y-47935000D01*
X53800000Y-47500000D02*
X53365000Y-47935000D01*
X53365000Y-47935000D02*
X52499980Y-47935000D01*
X51825000Y-56150000D02*
X52357640Y-56682640D01*
X60267616Y-56682640D02*
X60613056Y-56337200D01*
X60613056Y-56337200D02*
X61172600Y-56337200D01*
X61172600Y-56337200D02*
X61299600Y-56210200D01*
X52357640Y-56682640D02*
X60267616Y-56682640D01*
X60141362Y-56377838D02*
X60690000Y-55829200D01*
X53577838Y-56377838D02*
X60141362Y-56377838D01*
X53300000Y-56100000D02*
X53577838Y-56377838D01*
X46900000Y-50100000D02*
X46710000Y-49500000D01*
X46710000Y-49500000D02*
X46838000Y-49500000D01*
X41700000Y-51700000D02*
X40700000Y-52700000D01*
X40700000Y-52700000D02*
X40700000Y-52800000D01*
X42800000Y-52780000D02*
X42800000Y-52800000D01*
X44330000Y-51250000D02*
X42800000Y-52780000D01*
D30*
X48752500Y-46011696D02*
X47604196Y-47160000D01*
X47604196Y-47160000D02*
X46390000Y-47160000D01*
X46390000Y-47160000D02*
X46210000Y-47340000D01*
X46210000Y-47340000D02*
X46210000Y-47689160D01*
X46210000Y-47689160D02*
X44899160Y-49000000D01*
X48752500Y-45430000D02*
X48752500Y-46011696D01*
X48752500Y-44752500D02*
X48600000Y-44600000D01*
X48600000Y-44600000D02*
X46400000Y-44600000D01*
X46400000Y-44600000D02*
X45852500Y-45147500D01*
X45852500Y-45147500D02*
X45200000Y-45147500D01*
X48752500Y-45430000D02*
X48752500Y-44752500D01*
X43700000Y-44400000D02*
X41960000Y-44400000D01*
X41960000Y-44400000D02*
X40640000Y-45720000D01*
X44447500Y-45147500D02*
X43700000Y-44400000D01*
X45200000Y-45147500D02*
X44447500Y-45147500D01*
X73896300Y-50336200D02*
X74213800Y-50018700D01*
X73896300Y-51860200D02*
X73896300Y-50336200D01*
X73896300Y-55416700D02*
X73896300Y-51860200D01*
X73660000Y-55753000D02*
X73996300Y-55416700D01*
X74632900Y-48113700D02*
X75033200Y-48514000D01*
X75033200Y-48514000D02*
X75033200Y-49657000D01*
X74671500Y-50018700D02*
X74213800Y-50018700D01*
X74671500Y-50018700D02*
X75033200Y-49657000D01*
X74213800Y-48113700D02*
X74632900Y-48113700D01*
X70461200Y-48742600D02*
X72442400Y-48742600D01*
X72442400Y-48742600D02*
X73071300Y-48113700D01*
X73071300Y-48113700D02*
X74213800Y-48113700D01*
X70276800Y-48558200D02*
X70461200Y-48742600D01*
X62249276Y-47552122D02*
X64237276Y-47552122D01*
X60783702Y-49715698D02*
X60783702Y-49017696D01*
X57438800Y-49885600D02*
X60613800Y-49885600D01*
X60613800Y-49885600D02*
X60783702Y-49715698D01*
X64689398Y-47100000D02*
X64237276Y-47552122D01*
X60783702Y-49017696D02*
X62249276Y-47552122D01*
X56524400Y-50800000D02*
X57438800Y-49885600D01*
X56524400Y-50800000D02*
X51937160Y-50800000D01*
X72400000Y-45275000D02*
X72400000Y-47550000D01*
X73071300Y-48113700D02*
X72963700Y-48113700D01*
X69150000Y-46850000D02*
X69850000Y-46150000D01*
X66850000Y-46850000D02*
X69150000Y-46850000D01*
X66600000Y-47100000D02*
X66850000Y-46850000D01*
X69850000Y-46150000D02*
X69850000Y-45275000D01*
X69850000Y-45275000D02*
X70550000Y-44575000D01*
X70550000Y-44575000D02*
X71700000Y-44575000D01*
X71700000Y-44575000D02*
X72400000Y-45275000D01*
X72400000Y-47550000D02*
X72963700Y-48113700D01*
X64689398Y-47100000D02*
X66600000Y-47100000D01*
D31*
X46630000Y-45430000D02*
X46847500Y-45430000D01*
X46600000Y-45400000D02*
X46630000Y-45430000D01*
X46290000Y-48527500D02*
X46290000Y-50220000D01*
X46290000Y-50220000D02*
X47008000Y-50938000D01*
X47008000Y-50938000D02*
X47500000Y-50938000D01*
X46847500Y-47970000D02*
X46290000Y-48527500D01*
D30*
X71281300Y-50018700D02*
X70700000Y-50600000D01*
X70700000Y-50600000D02*
X69955000Y-50600000D01*
X71673800Y-50018700D02*
X71281300Y-50018700D01*
X68371800Y-47678200D02*
X68747878Y-47302122D01*
X68747878Y-47302122D02*
X70862222Y-47302122D01*
X70862222Y-47302122D02*
X71673800Y-48113700D01*
X68371800Y-48558200D02*
X68371800Y-47678200D01*
D31*
X50326800Y-56083200D02*
X50276000Y-56134000D01*
X49910180Y-56499820D02*
X50326800Y-56083200D01*
X49625000Y-56499820D02*
X49910180Y-56499820D01*
X59801000Y-53035200D02*
X59826400Y-53060600D01*
X57845200Y-53035200D02*
X59801000Y-53035200D01*
X50809400Y-54127400D02*
X50636620Y-54300180D01*
X50636620Y-54300180D02*
X49625000Y-54300180D01*
D30*
X50440040Y-46665000D02*
X52499980Y-46665000D01*
X57900020Y-47935000D02*
X57900020Y-49205000D01*
X57957020Y-49262000D02*
X59900000Y-49262000D01*
X57900020Y-49205000D02*
X57957020Y-49262000D01*
X55081800Y-47935000D02*
X53811800Y-46665000D01*
X53811800Y-46665000D02*
X52499980Y-46665000D01*
X57900020Y-47935000D02*
X55081800Y-47935000D01*
X49365000Y-46665000D02*
X49225000Y-46525000D01*
X50440040Y-46665000D02*
X49365000Y-46665000D01*
X64050000Y-47100000D02*
X64775000Y-46375000D01*
X64775000Y-46375000D02*
X64775000Y-45275000D01*
X64775000Y-45275000D02*
X65475000Y-44575000D01*
X65475000Y-44575000D02*
X67562000Y-44575000D01*
X67562000Y-44575000D02*
X68580000Y-45593000D01*
X62062000Y-47100000D02*
X59900000Y-49262000D01*
X64050000Y-47100000D02*
X62062000Y-47100000D01*
X55052400Y-54127400D02*
X54314600Y-54127400D01*
X56175000Y-55250000D02*
X55052400Y-54127400D01*
X52900000Y-55500000D02*
X53600000Y-55500000D01*
X53600000Y-55500000D02*
X54099376Y-55999376D01*
X54099376Y-55999376D02*
X55425624Y-55999376D01*
X55425624Y-55999376D02*
X56175000Y-55250000D01*
X48400000Y-55500000D02*
X48050000Y-55850000D01*
X47788000Y-56412000D02*
X47050000Y-56412000D01*
X48050000Y-55850000D02*
X48050000Y-56150000D01*
X48050000Y-56150000D02*
X47788000Y-56412000D01*
X52900000Y-55500000D02*
X48400000Y-55500000D01*
X48362000Y-48862000D02*
X48100000Y-48600000D01*
X48100000Y-48600000D02*
X48100000Y-47300000D01*
X48100000Y-47300000D02*
X48875000Y-46525000D01*
X48875000Y-46525000D02*
X49225000Y-46525000D01*
X48362000Y-49500000D02*
X48362000Y-48862000D01*
X48380000Y-49518000D02*
X48380000Y-50958000D01*
X48380000Y-50958000D02*
X49022000Y-51600000D01*
X52900000Y-51930000D02*
X52900000Y-55500000D01*
X52570000Y-51600000D02*
X52900000Y-51930000D01*
X49022000Y-51600000D02*
X52570000Y-51600000D01*
X48362000Y-49500000D02*
X48380000Y-49518000D01*
X56175000Y-55250000D02*
X56916600Y-54508400D01*
X69000000Y-51400000D02*
X69250000Y-51150000D01*
X68747500Y-51652500D02*
X69000000Y-51400000D01*
X69250000Y-51150000D02*
X69900000Y-51150000D01*
D31*
X69150000Y-51250000D02*
X69000000Y-51400000D01*
X69900000Y-50050000D02*
X69150000Y-50050000D01*
D30*
X67958600Y-50050000D02*
X66466800Y-48558200D01*
X69900000Y-50050000D02*
X67958600Y-50050000D01*
D31*
X69150000Y-50050000D02*
X69900000Y-50050000D01*
X68747500Y-51652500D02*
X69150000Y-51250000D01*
X68747500Y-51700000D02*
X68747500Y-51652500D01*
D30*
X68747500Y-51700000D02*
X68747500Y-52500000D01*
D31*
X69150000Y-51250000D02*
X69150000Y-50600000D01*
X69050000Y-50050000D02*
X69150000Y-50150000D01*
X69150000Y-50150000D02*
X69150000Y-51250000D01*
X69900000Y-50050000D02*
X69050000Y-50050000D01*
D30*
X56916600Y-54508400D02*
X56175000Y-55250000D01*
X67191600Y-54508400D02*
X56916600Y-54508400D01*
X68747500Y-54508400D02*
X67191600Y-54508400D01*
X71200000Y-54508400D02*
X71526400Y-54508400D01*
X72390000Y-57023000D02*
X72390000Y-55372000D01*
X73660000Y-58293000D02*
X72390000Y-57023000D01*
X72390000Y-55372000D02*
X71526400Y-54508400D01*
X71200000Y-54508400D02*
X68747500Y-54508400D01*
X68747500Y-52500000D02*
X68747500Y-54508400D01*
X47420000Y-54120000D02*
X47420000Y-54518000D01*
X47420000Y-54518000D02*
X47050000Y-54888000D01*
D31*
X69800000Y-52500000D02*
X69700000Y-52400000D01*
X70652500Y-52500000D02*
X69800000Y-52500000D01*
X71947500Y-51500000D02*
X72900000Y-51500000D01*
D11*
G36*
X57494890Y-48644874D02*
X57074889Y-48644919D01*
X57025781Y-48654643D01*
X56979498Y-48673720D01*
X56937801Y-48701423D01*
X56902279Y-48736698D01*
X56874285Y-48778200D01*
X56854886Y-48824350D01*
X56844820Y-48873388D01*
X56844470Y-48923448D01*
X56844639Y-49534831D01*
X56854363Y-49583939D01*
X56873440Y-49630222D01*
X56901143Y-49671919D01*
X56936418Y-49707441D01*
X56977920Y-49735435D01*
X57004747Y-49746711D01*
X56356589Y-50394870D01*
X52754864Y-50394870D01*
X52754821Y-50103469D01*
X52745097Y-50054361D01*
X52726020Y-50008078D01*
X52724930Y-50006437D01*
X52724930Y-49898719D01*
X52821733Y-49995522D01*
X52845402Y-50014964D01*
X52868848Y-50034638D01*
X52870374Y-50035477D01*
X52871722Y-50036584D01*
X52898660Y-50051027D01*
X52925538Y-50065804D01*
X52927205Y-50066333D01*
X52928735Y-50067153D01*
X52957921Y-50076076D01*
X52987202Y-50085365D01*
X52988937Y-50085559D01*
X52990600Y-50086068D01*
X53020965Y-50089152D01*
X53051490Y-50092576D01*
X53054908Y-50092599D01*
X53054961Y-50092605D01*
X53055010Y-50092600D01*
X53056118Y-50092608D01*
X55663862Y-50092608D01*
X55694343Y-50089619D01*
X55724836Y-50086952D01*
X55726512Y-50086464D01*
X55728245Y-50086295D01*
X55757532Y-50077452D01*
X55776568Y-50071921D01*
X55811840Y-50079677D01*
X55915924Y-50081857D01*
X56018450Y-50063779D01*
X56115511Y-50026131D01*
X56203412Y-49970348D01*
X56278803Y-49898553D01*
X56338814Y-49813483D01*
X56381158Y-49718376D01*
X56404223Y-49616856D01*
X56405883Y-49497946D01*
X56385662Y-49395822D01*
X56345990Y-49299570D01*
X56288378Y-49212857D01*
X56215020Y-49138986D01*
X56128712Y-49080770D01*
X56032739Y-49040427D01*
X55930759Y-49019493D01*
X55826654Y-49018766D01*
X55724391Y-49038274D01*
X55627864Y-49077273D01*
X55540751Y-49134279D01*
X55466370Y-49207118D01*
X55407553Y-49293019D01*
X55366540Y-49388707D01*
X55357833Y-49429668D01*
X53555514Y-49429668D01*
X53555361Y-48875169D01*
X53545637Y-48826061D01*
X53526560Y-48779778D01*
X53498857Y-48738081D01*
X53463582Y-48702559D01*
X53422080Y-48674565D01*
X53375930Y-48655166D01*
X53326892Y-48645100D01*
X53276832Y-48644750D01*
X51674849Y-48644919D01*
X51625741Y-48654643D01*
X51579458Y-48673720D01*
X51537761Y-48701423D01*
X51502239Y-48736698D01*
X51474245Y-48778200D01*
X51454846Y-48824350D01*
X51444780Y-48873388D01*
X51444779Y-48873530D01*
X51432891Y-48873530D01*
X51426007Y-48838761D01*
X51406930Y-48792478D01*
X51379227Y-48750781D01*
X51343952Y-48715259D01*
X51302450Y-48687265D01*
X51256300Y-48667866D01*
X51207262Y-48657800D01*
X51157202Y-48657450D01*
X49674599Y-48657619D01*
X49625491Y-48667343D01*
X49605130Y-48675735D01*
X49605130Y-48464294D01*
X49623780Y-48472134D01*
X49672818Y-48482200D01*
X49722878Y-48482550D01*
X51205481Y-48482381D01*
X51254589Y-48472657D01*
X51300872Y-48453580D01*
X51342569Y-48425877D01*
X51378091Y-48390602D01*
X51406085Y-48349100D01*
X51425484Y-48302950D01*
X51432972Y-48266470D01*
X51444923Y-48266470D01*
X51454323Y-48313939D01*
X51473400Y-48360222D01*
X51501103Y-48401919D01*
X51536378Y-48437441D01*
X51577880Y-48465435D01*
X51624030Y-48484834D01*
X51673068Y-48494900D01*
X51723128Y-48495250D01*
X53325111Y-48495081D01*
X53374219Y-48485357D01*
X53420502Y-48466280D01*
X53462199Y-48438577D01*
X53497721Y-48403302D01*
X53525715Y-48361800D01*
X53545114Y-48315650D01*
X53555180Y-48266612D01*
X53555530Y-48216552D01*
X53555526Y-48205302D01*
X53572098Y-48191786D01*
X53596090Y-48172635D01*
X53598522Y-48170235D01*
X53598565Y-48170201D01*
X53598597Y-48170161D01*
X53599385Y-48169385D01*
X53739046Y-48029723D01*
X53840924Y-48031857D01*
X53943450Y-48013779D01*
X54040511Y-47976131D01*
X54128412Y-47920348D01*
X54203803Y-47848553D01*
X54263814Y-47763483D01*
X54286465Y-47712605D01*
X54795330Y-48221470D01*
X54824223Y-48245202D01*
X54852915Y-48269278D01*
X54854783Y-48270305D01*
X54856428Y-48271656D01*
X54889396Y-48289333D01*
X54922202Y-48307369D01*
X54924231Y-48308012D01*
X54926110Y-48309020D01*
X54961883Y-48319956D01*
X54997569Y-48331277D01*
X54999688Y-48331514D01*
X55001724Y-48332137D01*
X55038888Y-48335911D01*
X55076144Y-48340091D01*
X55080314Y-48340119D01*
X55080386Y-48340127D01*
X55080452Y-48340120D01*
X55081800Y-48340130D01*
X56865158Y-48340130D01*
X56873440Y-48360222D01*
X56901143Y-48401919D01*
X56936418Y-48437441D01*
X56977920Y-48465435D01*
X57024070Y-48484834D01*
X57073108Y-48494900D01*
X57123168Y-48495250D01*
X57494890Y-48495210D01*
X57494890Y-48644874D01*
X57494890Y-48644874D01*
G37*
X57494890Y-48644874D02*
X57074889Y-48644919D01*
X57025781Y-48654643D01*
X56979498Y-48673720D01*
X56937801Y-48701423D01*
X56902279Y-48736698D01*
X56874285Y-48778200D01*
X56854886Y-48824350D01*
X56844820Y-48873388D01*
X56844470Y-48923448D01*
X56844639Y-49534831D01*
X56854363Y-49583939D01*
X56873440Y-49630222D01*
X56901143Y-49671919D01*
X56936418Y-49707441D01*
X56977920Y-49735435D01*
X57004747Y-49746711D01*
X56356589Y-50394870D01*
X52754864Y-50394870D01*
X52754821Y-50103469D01*
X52745097Y-50054361D01*
X52726020Y-50008078D01*
X52724930Y-50006437D01*
X52724930Y-49898719D01*
X52821733Y-49995522D01*
X52845402Y-50014964D01*
X52868848Y-50034638D01*
X52870374Y-50035477D01*
X52871722Y-50036584D01*
X52898660Y-50051027D01*
X52925538Y-50065804D01*
X52927205Y-50066333D01*
X52928735Y-50067153D01*
X52957921Y-50076076D01*
X52987202Y-50085365D01*
X52988937Y-50085559D01*
X52990600Y-50086068D01*
X53020965Y-50089152D01*
X53051490Y-50092576D01*
X53054908Y-50092599D01*
X53054961Y-50092605D01*
X53055010Y-50092600D01*
X53056118Y-50092608D01*
X55663862Y-50092608D01*
X55694343Y-50089619D01*
X55724836Y-50086952D01*
X55726512Y-50086464D01*
X55728245Y-50086295D01*
X55757532Y-50077452D01*
X55776568Y-50071921D01*
X55811840Y-50079677D01*
X55915924Y-50081857D01*
X56018450Y-50063779D01*
X56115511Y-50026131D01*
X56203412Y-49970348D01*
X56278803Y-49898553D01*
X56338814Y-49813483D01*
X56381158Y-49718376D01*
X56404223Y-49616856D01*
X56405883Y-49497946D01*
X56385662Y-49395822D01*
X56345990Y-49299570D01*
X56288378Y-49212857D01*
X56215020Y-49138986D01*
X56128712Y-49080770D01*
X56032739Y-49040427D01*
X55930759Y-49019493D01*
X55826654Y-49018766D01*
X55724391Y-49038274D01*
X55627864Y-49077273D01*
X55540751Y-49134279D01*
X55466370Y-49207118D01*
X55407553Y-49293019D01*
X55366540Y-49388707D01*
X55357833Y-49429668D01*
X53555514Y-49429668D01*
X53555361Y-48875169D01*
X53545637Y-48826061D01*
X53526560Y-48779778D01*
X53498857Y-48738081D01*
X53463582Y-48702559D01*
X53422080Y-48674565D01*
X53375930Y-48655166D01*
X53326892Y-48645100D01*
X53276832Y-48644750D01*
X51674849Y-48644919D01*
X51625741Y-48654643D01*
X51579458Y-48673720D01*
X51537761Y-48701423D01*
X51502239Y-48736698D01*
X51474245Y-48778200D01*
X51454846Y-48824350D01*
X51444780Y-48873388D01*
X51444779Y-48873530D01*
X51432891Y-48873530D01*
X51426007Y-48838761D01*
X51406930Y-48792478D01*
X51379227Y-48750781D01*
X51343952Y-48715259D01*
X51302450Y-48687265D01*
X51256300Y-48667866D01*
X51207262Y-48657800D01*
X51157202Y-48657450D01*
X49674599Y-48657619D01*
X49625491Y-48667343D01*
X49605130Y-48675735D01*
X49605130Y-48464294D01*
X49623780Y-48472134D01*
X49672818Y-48482200D01*
X49722878Y-48482550D01*
X51205481Y-48482381D01*
X51254589Y-48472657D01*
X51300872Y-48453580D01*
X51342569Y-48425877D01*
X51378091Y-48390602D01*
X51406085Y-48349100D01*
X51425484Y-48302950D01*
X51432972Y-48266470D01*
X51444923Y-48266470D01*
X51454323Y-48313939D01*
X51473400Y-48360222D01*
X51501103Y-48401919D01*
X51536378Y-48437441D01*
X51577880Y-48465435D01*
X51624030Y-48484834D01*
X51673068Y-48494900D01*
X51723128Y-48495250D01*
X53325111Y-48495081D01*
X53374219Y-48485357D01*
X53420502Y-48466280D01*
X53462199Y-48438577D01*
X53497721Y-48403302D01*
X53525715Y-48361800D01*
X53545114Y-48315650D01*
X53555180Y-48266612D01*
X53555530Y-48216552D01*
X53555526Y-48205302D01*
X53572098Y-48191786D01*
X53596090Y-48172635D01*
X53598522Y-48170235D01*
X53598565Y-48170201D01*
X53598597Y-48170161D01*
X53599385Y-48169385D01*
X53739046Y-48029723D01*
X53840924Y-48031857D01*
X53943450Y-48013779D01*
X54040511Y-47976131D01*
X54128412Y-47920348D01*
X54203803Y-47848553D01*
X54263814Y-47763483D01*
X54286465Y-47712605D01*
X54795330Y-48221470D01*
X54824223Y-48245202D01*
X54852915Y-48269278D01*
X54854783Y-48270305D01*
X54856428Y-48271656D01*
X54889396Y-48289333D01*
X54922202Y-48307369D01*
X54924231Y-48308012D01*
X54926110Y-48309020D01*
X54961883Y-48319956D01*
X54997569Y-48331277D01*
X54999688Y-48331514D01*
X55001724Y-48332137D01*
X55038888Y-48335911D01*
X55076144Y-48340091D01*
X55080314Y-48340119D01*
X55080386Y-48340127D01*
X55080452Y-48340120D01*
X55081800Y-48340130D01*
X56865158Y-48340130D01*
X56873440Y-48360222D01*
X56901143Y-48401919D01*
X56936418Y-48437441D01*
X56977920Y-48465435D01*
X57024070Y-48484834D01*
X57073108Y-48494900D01*
X57123168Y-48495250D01*
X57494890Y-48495210D01*
X57494890Y-48644874D01*
G36*
X68794680Y-51032379D02*
X68713600Y-51113459D01*
X68713529Y-51113530D01*
X68461030Y-51366030D01*
X68410844Y-51427128D01*
X68373480Y-51496811D01*
X68358379Y-51546203D01*
X68277969Y-51546219D01*
X68228861Y-51555943D01*
X68182578Y-51575020D01*
X68140881Y-51602723D01*
X68105359Y-51637998D01*
X68077365Y-51679500D01*
X68057966Y-51725650D01*
X68047900Y-51774688D01*
X68047550Y-51824748D01*
X68047719Y-53223531D01*
X68057443Y-53272639D01*
X68076520Y-53318922D01*
X68104223Y-53360619D01*
X68139498Y-53396141D01*
X68181000Y-53424135D01*
X68227150Y-53443534D01*
X68276188Y-53453600D01*
X68326248Y-53453950D01*
X68342370Y-53453946D01*
X68342370Y-54103270D01*
X67191600Y-54103270D01*
X60357283Y-54103270D01*
X60357283Y-53008546D01*
X60337062Y-52906422D01*
X60297390Y-52810170D01*
X60239778Y-52723457D01*
X60166420Y-52649586D01*
X60080112Y-52591370D01*
X59984139Y-52551027D01*
X59882159Y-52530093D01*
X59778054Y-52529366D01*
X59675791Y-52548874D01*
X59579264Y-52587873D01*
X59492151Y-52644879D01*
X59432054Y-52703730D01*
X58262347Y-52703730D01*
X58258578Y-52698057D01*
X58185220Y-52624186D01*
X58098912Y-52565970D01*
X58002939Y-52525627D01*
X57900959Y-52504693D01*
X57796854Y-52503966D01*
X57694591Y-52523474D01*
X57598064Y-52562473D01*
X57510951Y-52619479D01*
X57436570Y-52692318D01*
X57377753Y-52778219D01*
X57336740Y-52873907D01*
X57315095Y-52975739D01*
X57313642Y-53079836D01*
X57332435Y-53182233D01*
X57370760Y-53279029D01*
X57427155Y-53366538D01*
X57499474Y-53441427D01*
X57584962Y-53500842D01*
X57680361Y-53542521D01*
X57782040Y-53564877D01*
X57886124Y-53567057D01*
X57988650Y-53548979D01*
X58085711Y-53511331D01*
X58173612Y-53455548D01*
X58249003Y-53383753D01*
X58261053Y-53366670D01*
X59392071Y-53366670D01*
X59408355Y-53391938D01*
X59480674Y-53466827D01*
X59566162Y-53526242D01*
X59661561Y-53567921D01*
X59763240Y-53590277D01*
X59867324Y-53592457D01*
X59969850Y-53574379D01*
X60066911Y-53536731D01*
X60154812Y-53480948D01*
X60230203Y-53409153D01*
X60290214Y-53324083D01*
X60332558Y-53228976D01*
X60355623Y-53127456D01*
X60357283Y-53008546D01*
X60357283Y-54103270D01*
X56916600Y-54103270D01*
X56879316Y-54106925D01*
X56842075Y-54110184D01*
X56840030Y-54110778D01*
X56837910Y-54110986D01*
X56802077Y-54121804D01*
X56766148Y-54132243D01*
X56764257Y-54133222D01*
X56762217Y-54133839D01*
X56729156Y-54151417D01*
X56695950Y-54168630D01*
X56694286Y-54169958D01*
X56692404Y-54170959D01*
X56663422Y-54194595D01*
X56634156Y-54217959D01*
X56631184Y-54220889D01*
X56631132Y-54220932D01*
X56631091Y-54220980D01*
X56630129Y-54221930D01*
X56174999Y-54677059D01*
X55338870Y-53840930D01*
X55309976Y-53817197D01*
X55281285Y-53793122D01*
X55279416Y-53792094D01*
X55277772Y-53790744D01*
X55244822Y-53773076D01*
X55211998Y-53755031D01*
X55209965Y-53754386D01*
X55208089Y-53753380D01*
X55172330Y-53742447D01*
X55136631Y-53731123D01*
X55134511Y-53730885D01*
X55132476Y-53730263D01*
X55095311Y-53726488D01*
X55058056Y-53722309D01*
X55053885Y-53722280D01*
X55053814Y-53722273D01*
X55053747Y-53722279D01*
X55052400Y-53722270D01*
X54660463Y-53722270D01*
X54654620Y-53716386D01*
X54568312Y-53658170D01*
X54472339Y-53617827D01*
X54370359Y-53596893D01*
X54266254Y-53596166D01*
X54163991Y-53615674D01*
X54067464Y-53654673D01*
X53980351Y-53711679D01*
X53905970Y-53784518D01*
X53847153Y-53870419D01*
X53806140Y-53966107D01*
X53784495Y-54067939D01*
X53783042Y-54172036D01*
X53801835Y-54274433D01*
X53840160Y-54371229D01*
X53896555Y-54458738D01*
X53968874Y-54533627D01*
X54054362Y-54593042D01*
X54149761Y-54634721D01*
X54251440Y-54657077D01*
X54355524Y-54659257D01*
X54458050Y-54641179D01*
X54555111Y-54603531D01*
X54643012Y-54547748D01*
X54658992Y-54532530D01*
X54884590Y-54532530D01*
X55602059Y-55249999D01*
X55257813Y-55594246D01*
X54267186Y-55594246D01*
X53886470Y-55213530D01*
X53857576Y-55189797D01*
X53828885Y-55165722D01*
X53827016Y-55164694D01*
X53825372Y-55163344D01*
X53792422Y-55145676D01*
X53759598Y-55127631D01*
X53757565Y-55126986D01*
X53755689Y-55125980D01*
X53719930Y-55115047D01*
X53684231Y-55103723D01*
X53682111Y-55103485D01*
X53680076Y-55102863D01*
X53642911Y-55099088D01*
X53605656Y-55094909D01*
X53601485Y-55094880D01*
X53601414Y-55094873D01*
X53601347Y-55094879D01*
X53600000Y-55094870D01*
X53305130Y-55094870D01*
X53305130Y-51930000D01*
X53301477Y-51892753D01*
X53298216Y-51855476D01*
X53297622Y-51853431D01*
X53297414Y-51851310D01*
X53286592Y-51815465D01*
X53276157Y-51779548D01*
X53275177Y-51777657D01*
X53274561Y-51775617D01*
X53256982Y-51742556D01*
X53239770Y-51709350D01*
X53238441Y-51707685D01*
X53237441Y-51705804D01*
X53213828Y-51676853D01*
X53190442Y-51647556D01*
X53187509Y-51644582D01*
X53187468Y-51644532D01*
X53187420Y-51644492D01*
X53186470Y-51643529D01*
X52856470Y-51313530D01*
X52827576Y-51289797D01*
X52798885Y-51265722D01*
X52797016Y-51264694D01*
X52795372Y-51263344D01*
X52762422Y-51245676D01*
X52754989Y-51241589D01*
X52754983Y-51205130D01*
X56524400Y-51205130D01*
X56561646Y-51201477D01*
X56598924Y-51198216D01*
X56600968Y-51197622D01*
X56603090Y-51197414D01*
X56638934Y-51186592D01*
X56674852Y-51176157D01*
X56676742Y-51175177D01*
X56678783Y-51174561D01*
X56711843Y-51156982D01*
X56745050Y-51139770D01*
X56746713Y-51138441D01*
X56748596Y-51137441D01*
X56777571Y-51113809D01*
X56806843Y-51090442D01*
X56809811Y-51087514D01*
X56809868Y-51087468D01*
X56809911Y-51087415D01*
X56810870Y-51086470D01*
X57606610Y-50290730D01*
X60613800Y-50290730D01*
X60651046Y-50287077D01*
X60688324Y-50283816D01*
X60690368Y-50283222D01*
X60692490Y-50283014D01*
X60728334Y-50272192D01*
X60764252Y-50261757D01*
X60766142Y-50260777D01*
X60768183Y-50260161D01*
X60801243Y-50242582D01*
X60834450Y-50225370D01*
X60836113Y-50224041D01*
X60837996Y-50223041D01*
X60866971Y-50199409D01*
X60896243Y-50176042D01*
X60899211Y-50173114D01*
X60899268Y-50173068D01*
X60899311Y-50173015D01*
X60900270Y-50172070D01*
X61070172Y-50002169D01*
X61093925Y-49973250D01*
X61117980Y-49944583D01*
X61119007Y-49942714D01*
X61120358Y-49941070D01*
X61138016Y-49908136D01*
X61156071Y-49875296D01*
X61156716Y-49873261D01*
X61157721Y-49871388D01*
X61168648Y-49835647D01*
X61179979Y-49799929D01*
X61180216Y-49797810D01*
X61180839Y-49795775D01*
X61184610Y-49758644D01*
X61188793Y-49721354D01*
X61188821Y-49717173D01*
X61188828Y-49717113D01*
X61188822Y-49717056D01*
X61188832Y-49715698D01*
X61188832Y-49185506D01*
X62417086Y-47957252D01*
X64237276Y-47957252D01*
X64274522Y-47953599D01*
X64311800Y-47950338D01*
X64313844Y-47949744D01*
X64315966Y-47949536D01*
X64351810Y-47938714D01*
X64387728Y-47928279D01*
X64389618Y-47927299D01*
X64391659Y-47926683D01*
X64424719Y-47909104D01*
X64457926Y-47891892D01*
X64459589Y-47890563D01*
X64461472Y-47889563D01*
X64490447Y-47865931D01*
X64519719Y-47842564D01*
X64522687Y-47839636D01*
X64522744Y-47839590D01*
X64522787Y-47839537D01*
X64523746Y-47838592D01*
X64857208Y-47505130D01*
X65985598Y-47505130D01*
X65948161Y-47512543D01*
X65901878Y-47531620D01*
X65860181Y-47559323D01*
X65824659Y-47594598D01*
X65796665Y-47636100D01*
X65777266Y-47682250D01*
X65767200Y-47731288D01*
X65766850Y-47781348D01*
X65767019Y-49383331D01*
X65776743Y-49432439D01*
X65795820Y-49478722D01*
X65823523Y-49520419D01*
X65858798Y-49555941D01*
X65900300Y-49583935D01*
X65946450Y-49603334D01*
X65995488Y-49613400D01*
X66045548Y-49613750D01*
X66936331Y-49613581D01*
X66947106Y-49611447D01*
X67672129Y-50336470D01*
X67701047Y-50360223D01*
X67729715Y-50384278D01*
X67731583Y-50385305D01*
X67733228Y-50386656D01*
X67766161Y-50404314D01*
X67799002Y-50422369D01*
X67801036Y-50423014D01*
X67802910Y-50424019D01*
X67838650Y-50434946D01*
X67874369Y-50446277D01*
X67876487Y-50446514D01*
X67878523Y-50447137D01*
X67915653Y-50450908D01*
X67952944Y-50455091D01*
X67957124Y-50455119D01*
X67957185Y-50455126D01*
X67957241Y-50455120D01*
X67958600Y-50455130D01*
X68794615Y-50455130D01*
X68794680Y-51032379D01*
X68794680Y-51032379D01*
G37*
X68794680Y-51032379D02*
X68713600Y-51113459D01*
X68713529Y-51113530D01*
X68461030Y-51366030D01*
X68410844Y-51427128D01*
X68373480Y-51496811D01*
X68358379Y-51546203D01*
X68277969Y-51546219D01*
X68228861Y-51555943D01*
X68182578Y-51575020D01*
X68140881Y-51602723D01*
X68105359Y-51637998D01*
X68077365Y-51679500D01*
X68057966Y-51725650D01*
X68047900Y-51774688D01*
X68047550Y-51824748D01*
X68047719Y-53223531D01*
X68057443Y-53272639D01*
X68076520Y-53318922D01*
X68104223Y-53360619D01*
X68139498Y-53396141D01*
X68181000Y-53424135D01*
X68227150Y-53443534D01*
X68276188Y-53453600D01*
X68326248Y-53453950D01*
X68342370Y-53453946D01*
X68342370Y-54103270D01*
X67191600Y-54103270D01*
X60357283Y-54103270D01*
X60357283Y-53008546D01*
X60337062Y-52906422D01*
X60297390Y-52810170D01*
X60239778Y-52723457D01*
X60166420Y-52649586D01*
X60080112Y-52591370D01*
X59984139Y-52551027D01*
X59882159Y-52530093D01*
X59778054Y-52529366D01*
X59675791Y-52548874D01*
X59579264Y-52587873D01*
X59492151Y-52644879D01*
X59432054Y-52703730D01*
X58262347Y-52703730D01*
X58258578Y-52698057D01*
X58185220Y-52624186D01*
X58098912Y-52565970D01*
X58002939Y-52525627D01*
X57900959Y-52504693D01*
X57796854Y-52503966D01*
X57694591Y-52523474D01*
X57598064Y-52562473D01*
X57510951Y-52619479D01*
X57436570Y-52692318D01*
X57377753Y-52778219D01*
X57336740Y-52873907D01*
X57315095Y-52975739D01*
X57313642Y-53079836D01*
X57332435Y-53182233D01*
X57370760Y-53279029D01*
X57427155Y-53366538D01*
X57499474Y-53441427D01*
X57584962Y-53500842D01*
X57680361Y-53542521D01*
X57782040Y-53564877D01*
X57886124Y-53567057D01*
X57988650Y-53548979D01*
X58085711Y-53511331D01*
X58173612Y-53455548D01*
X58249003Y-53383753D01*
X58261053Y-53366670D01*
X59392071Y-53366670D01*
X59408355Y-53391938D01*
X59480674Y-53466827D01*
X59566162Y-53526242D01*
X59661561Y-53567921D01*
X59763240Y-53590277D01*
X59867324Y-53592457D01*
X59969850Y-53574379D01*
X60066911Y-53536731D01*
X60154812Y-53480948D01*
X60230203Y-53409153D01*
X60290214Y-53324083D01*
X60332558Y-53228976D01*
X60355623Y-53127456D01*
X60357283Y-53008546D01*
X60357283Y-54103270D01*
X56916600Y-54103270D01*
X56879316Y-54106925D01*
X56842075Y-54110184D01*
X56840030Y-54110778D01*
X56837910Y-54110986D01*
X56802077Y-54121804D01*
X56766148Y-54132243D01*
X56764257Y-54133222D01*
X56762217Y-54133839D01*
X56729156Y-54151417D01*
X56695950Y-54168630D01*
X56694286Y-54169958D01*
X56692404Y-54170959D01*
X56663422Y-54194595D01*
X56634156Y-54217959D01*
X56631184Y-54220889D01*
X56631132Y-54220932D01*
X56631091Y-54220980D01*
X56630129Y-54221930D01*
X56174999Y-54677059D01*
X55338870Y-53840930D01*
X55309976Y-53817197D01*
X55281285Y-53793122D01*
X55279416Y-53792094D01*
X55277772Y-53790744D01*
X55244822Y-53773076D01*
X55211998Y-53755031D01*
X55209965Y-53754386D01*
X55208089Y-53753380D01*
X55172330Y-53742447D01*
X55136631Y-53731123D01*
X55134511Y-53730885D01*
X55132476Y-53730263D01*
X55095311Y-53726488D01*
X55058056Y-53722309D01*
X55053885Y-53722280D01*
X55053814Y-53722273D01*
X55053747Y-53722279D01*
X55052400Y-53722270D01*
X54660463Y-53722270D01*
X54654620Y-53716386D01*
X54568312Y-53658170D01*
X54472339Y-53617827D01*
X54370359Y-53596893D01*
X54266254Y-53596166D01*
X54163991Y-53615674D01*
X54067464Y-53654673D01*
X53980351Y-53711679D01*
X53905970Y-53784518D01*
X53847153Y-53870419D01*
X53806140Y-53966107D01*
X53784495Y-54067939D01*
X53783042Y-54172036D01*
X53801835Y-54274433D01*
X53840160Y-54371229D01*
X53896555Y-54458738D01*
X53968874Y-54533627D01*
X54054362Y-54593042D01*
X54149761Y-54634721D01*
X54251440Y-54657077D01*
X54355524Y-54659257D01*
X54458050Y-54641179D01*
X54555111Y-54603531D01*
X54643012Y-54547748D01*
X54658992Y-54532530D01*
X54884590Y-54532530D01*
X55602059Y-55249999D01*
X55257813Y-55594246D01*
X54267186Y-55594246D01*
X53886470Y-55213530D01*
X53857576Y-55189797D01*
X53828885Y-55165722D01*
X53827016Y-55164694D01*
X53825372Y-55163344D01*
X53792422Y-55145676D01*
X53759598Y-55127631D01*
X53757565Y-55126986D01*
X53755689Y-55125980D01*
X53719930Y-55115047D01*
X53684231Y-55103723D01*
X53682111Y-55103485D01*
X53680076Y-55102863D01*
X53642911Y-55099088D01*
X53605656Y-55094909D01*
X53601485Y-55094880D01*
X53601414Y-55094873D01*
X53601347Y-55094879D01*
X53600000Y-55094870D01*
X53305130Y-55094870D01*
X53305130Y-51930000D01*
X53301477Y-51892753D01*
X53298216Y-51855476D01*
X53297622Y-51853431D01*
X53297414Y-51851310D01*
X53286592Y-51815465D01*
X53276157Y-51779548D01*
X53275177Y-51777657D01*
X53274561Y-51775617D01*
X53256982Y-51742556D01*
X53239770Y-51709350D01*
X53238441Y-51707685D01*
X53237441Y-51705804D01*
X53213828Y-51676853D01*
X53190442Y-51647556D01*
X53187509Y-51644582D01*
X53187468Y-51644532D01*
X53187420Y-51644492D01*
X53186470Y-51643529D01*
X52856470Y-51313530D01*
X52827576Y-51289797D01*
X52798885Y-51265722D01*
X52797016Y-51264694D01*
X52795372Y-51263344D01*
X52762422Y-51245676D01*
X52754989Y-51241589D01*
X52754983Y-51205130D01*
X56524400Y-51205130D01*
X56561646Y-51201477D01*
X56598924Y-51198216D01*
X56600968Y-51197622D01*
X56603090Y-51197414D01*
X56638934Y-51186592D01*
X56674852Y-51176157D01*
X56676742Y-51175177D01*
X56678783Y-51174561D01*
X56711843Y-51156982D01*
X56745050Y-51139770D01*
X56746713Y-51138441D01*
X56748596Y-51137441D01*
X56777571Y-51113809D01*
X56806843Y-51090442D01*
X56809811Y-51087514D01*
X56809868Y-51087468D01*
X56809911Y-51087415D01*
X56810870Y-51086470D01*
X57606610Y-50290730D01*
X60613800Y-50290730D01*
X60651046Y-50287077D01*
X60688324Y-50283816D01*
X60690368Y-50283222D01*
X60692490Y-50283014D01*
X60728334Y-50272192D01*
X60764252Y-50261757D01*
X60766142Y-50260777D01*
X60768183Y-50260161D01*
X60801243Y-50242582D01*
X60834450Y-50225370D01*
X60836113Y-50224041D01*
X60837996Y-50223041D01*
X60866971Y-50199409D01*
X60896243Y-50176042D01*
X60899211Y-50173114D01*
X60899268Y-50173068D01*
X60899311Y-50173015D01*
X60900270Y-50172070D01*
X61070172Y-50002169D01*
X61093925Y-49973250D01*
X61117980Y-49944583D01*
X61119007Y-49942714D01*
X61120358Y-49941070D01*
X61138016Y-49908136D01*
X61156071Y-49875296D01*
X61156716Y-49873261D01*
X61157721Y-49871388D01*
X61168648Y-49835647D01*
X61179979Y-49799929D01*
X61180216Y-49797810D01*
X61180839Y-49795775D01*
X61184610Y-49758644D01*
X61188793Y-49721354D01*
X61188821Y-49717173D01*
X61188828Y-49717113D01*
X61188822Y-49717056D01*
X61188832Y-49715698D01*
X61188832Y-49185506D01*
X62417086Y-47957252D01*
X64237276Y-47957252D01*
X64274522Y-47953599D01*
X64311800Y-47950338D01*
X64313844Y-47949744D01*
X64315966Y-47949536D01*
X64351810Y-47938714D01*
X64387728Y-47928279D01*
X64389618Y-47927299D01*
X64391659Y-47926683D01*
X64424719Y-47909104D01*
X64457926Y-47891892D01*
X64459589Y-47890563D01*
X64461472Y-47889563D01*
X64490447Y-47865931D01*
X64519719Y-47842564D01*
X64522687Y-47839636D01*
X64522744Y-47839590D01*
X64522787Y-47839537D01*
X64523746Y-47838592D01*
X64857208Y-47505130D01*
X65985598Y-47505130D01*
X65948161Y-47512543D01*
X65901878Y-47531620D01*
X65860181Y-47559323D01*
X65824659Y-47594598D01*
X65796665Y-47636100D01*
X65777266Y-47682250D01*
X65767200Y-47731288D01*
X65766850Y-47781348D01*
X65767019Y-49383331D01*
X65776743Y-49432439D01*
X65795820Y-49478722D01*
X65823523Y-49520419D01*
X65858798Y-49555941D01*
X65900300Y-49583935D01*
X65946450Y-49603334D01*
X65995488Y-49613400D01*
X66045548Y-49613750D01*
X66936331Y-49613581D01*
X66947106Y-49611447D01*
X67672129Y-50336470D01*
X67701047Y-50360223D01*
X67729715Y-50384278D01*
X67731583Y-50385305D01*
X67733228Y-50386656D01*
X67766161Y-50404314D01*
X67799002Y-50422369D01*
X67801036Y-50423014D01*
X67802910Y-50424019D01*
X67838650Y-50434946D01*
X67874369Y-50446277D01*
X67876487Y-50446514D01*
X67878523Y-50447137D01*
X67915653Y-50450908D01*
X67952944Y-50455091D01*
X67957124Y-50455119D01*
X67957185Y-50455126D01*
X67957241Y-50455120D01*
X67958600Y-50455130D01*
X68794615Y-50455130D01*
X68794680Y-51032379D01*
G36*
X74308730Y-49141130D02*
X74288730Y-49141130D01*
X74288730Y-49161130D01*
X74138870Y-49161130D01*
X74138870Y-49141130D01*
X73544827Y-49141130D01*
X73488630Y-49197327D01*
X73488621Y-49413362D01*
X73497184Y-49456606D01*
X73513983Y-49497363D01*
X73527792Y-49518148D01*
X73515779Y-49530078D01*
X73487785Y-49571580D01*
X73468386Y-49617730D01*
X73458320Y-49666768D01*
X73457970Y-49716828D01*
X73458139Y-50368851D01*
X73467863Y-50417959D01*
X73486940Y-50464242D01*
X73491170Y-50470608D01*
X73491170Y-50546198D01*
X73382969Y-50546219D01*
X73333861Y-50555943D01*
X73287578Y-50575020D01*
X73245881Y-50602723D01*
X73210359Y-50637998D01*
X73182365Y-50679500D01*
X73162966Y-50725650D01*
X73152900Y-50774688D01*
X73152550Y-50824748D01*
X73152719Y-52223531D01*
X73162443Y-52272639D01*
X73181520Y-52318922D01*
X73209223Y-52360619D01*
X73244498Y-52396141D01*
X73286000Y-52424135D01*
X73332150Y-52443534D01*
X73381188Y-52453600D01*
X73431248Y-52453950D01*
X73491170Y-52453938D01*
X73491170Y-54568534D01*
X73320950Y-54601006D01*
X73103650Y-54688801D01*
X72907542Y-54817130D01*
X72740094Y-54981107D01*
X72671795Y-55080854D01*
X72616947Y-55026006D01*
X72616947Y-52178028D01*
X72616790Y-51631127D01*
X72560593Y-51574930D01*
X72022430Y-51574930D01*
X72022430Y-52367093D01*
X72078627Y-52423290D01*
X72414042Y-52423299D01*
X72457286Y-52414736D01*
X72498043Y-52397937D01*
X72534761Y-52373542D01*
X72566041Y-52342479D01*
X72590693Y-52305932D01*
X72607776Y-52265293D01*
X72616640Y-52222110D01*
X72616947Y-52178028D01*
X72616947Y-55026006D01*
X71872570Y-54281629D01*
X71812870Y-54221930D01*
X71783976Y-54198197D01*
X71755285Y-54174122D01*
X71753416Y-54173094D01*
X71751772Y-54171744D01*
X71718822Y-54154076D01*
X71685998Y-54136031D01*
X71683965Y-54135386D01*
X71682089Y-54134380D01*
X71646330Y-54123447D01*
X71610631Y-54112123D01*
X71608511Y-54111885D01*
X71606476Y-54111263D01*
X71569311Y-54107488D01*
X71532056Y-54103309D01*
X71527885Y-54103280D01*
X71527814Y-54103273D01*
X71527747Y-54103279D01*
X71526400Y-54103270D01*
X71321947Y-54103270D01*
X71321947Y-53178028D01*
X71321790Y-52631127D01*
X71265593Y-52574930D01*
X70727430Y-52574930D01*
X70727430Y-53367093D01*
X70783627Y-53423290D01*
X71119042Y-53423299D01*
X71162286Y-53414736D01*
X71203043Y-53397937D01*
X71239761Y-53373542D01*
X71271041Y-53342479D01*
X71295693Y-53305932D01*
X71312776Y-53265293D01*
X71321640Y-53222110D01*
X71321947Y-53178028D01*
X71321947Y-54103270D01*
X71200000Y-54103270D01*
X70577570Y-54103270D01*
X70577570Y-53367093D01*
X70577570Y-52574930D01*
X70039407Y-52574930D01*
X69983210Y-52631127D01*
X69983053Y-53178028D01*
X69983360Y-53222110D01*
X69992224Y-53265293D01*
X70009307Y-53305932D01*
X70033959Y-53342479D01*
X70065239Y-53373542D01*
X70101957Y-53397937D01*
X70142714Y-53414736D01*
X70185958Y-53423299D01*
X70521373Y-53423290D01*
X70577570Y-53367093D01*
X70577570Y-54103270D01*
X69152630Y-54103270D01*
X69152630Y-53453793D01*
X69217031Y-53453781D01*
X69266139Y-53444057D01*
X69312422Y-53424980D01*
X69354119Y-53397277D01*
X69389641Y-53362002D01*
X69417635Y-53320500D01*
X69437034Y-53274350D01*
X69447100Y-53225312D01*
X69447450Y-53175252D01*
X69447281Y-51776469D01*
X69437557Y-51727361D01*
X69418480Y-51681078D01*
X69390777Y-51639381D01*
X69362267Y-51610672D01*
X69367502Y-51605437D01*
X70097020Y-51605343D01*
X70065239Y-51626458D01*
X70033959Y-51657521D01*
X70009307Y-51694068D01*
X69992224Y-51734707D01*
X69983360Y-51777890D01*
X69983053Y-51821972D01*
X69983210Y-52368873D01*
X70039407Y-52425070D01*
X70577570Y-52425070D01*
X70577570Y-52405070D01*
X70727430Y-52405070D01*
X70727430Y-52425070D01*
X71265593Y-52425070D01*
X71321790Y-52368873D01*
X71321800Y-52331866D01*
X71328959Y-52342479D01*
X71360239Y-52373542D01*
X71396957Y-52397937D01*
X71437714Y-52414736D01*
X71480958Y-52423299D01*
X71816373Y-52423290D01*
X71872570Y-52367093D01*
X71872570Y-51574930D01*
X71334407Y-51574930D01*
X71278210Y-51631127D01*
X71278199Y-51668133D01*
X71271041Y-51657521D01*
X71239761Y-51626458D01*
X71203043Y-51602063D01*
X71162286Y-51585264D01*
X71119042Y-51576701D01*
X70783627Y-51576710D01*
X70727432Y-51632905D01*
X70727432Y-51576710D01*
X70669863Y-51576710D01*
X70670422Y-51576480D01*
X70712119Y-51548777D01*
X70747641Y-51513502D01*
X70775635Y-51472000D01*
X70795034Y-51425850D01*
X70805100Y-51376812D01*
X70805450Y-51326752D01*
X70805308Y-50989377D01*
X70814534Y-50986592D01*
X70850452Y-50976157D01*
X70852342Y-50975177D01*
X70854383Y-50974561D01*
X70887443Y-50956982D01*
X70920650Y-50939770D01*
X70922313Y-50938441D01*
X70924196Y-50937441D01*
X70953171Y-50913809D01*
X70982443Y-50890442D01*
X70985411Y-50887514D01*
X70985468Y-50887468D01*
X70985511Y-50887415D01*
X70986470Y-50886470D01*
X71273682Y-50599257D01*
X71403817Y-50599235D01*
X71396957Y-50602063D01*
X71360239Y-50626458D01*
X71328959Y-50657521D01*
X71304307Y-50694068D01*
X71287224Y-50734707D01*
X71278360Y-50777890D01*
X71278053Y-50821972D01*
X71278210Y-51368873D01*
X71334407Y-51425070D01*
X71872570Y-51425070D01*
X71872570Y-51405070D01*
X72022430Y-51405070D01*
X72022430Y-51425070D01*
X72560593Y-51425070D01*
X72616790Y-51368873D01*
X72616947Y-50821972D01*
X72616640Y-50777890D01*
X72607776Y-50734707D01*
X72590693Y-50694068D01*
X72566041Y-50657521D01*
X72534761Y-50626458D01*
X72498043Y-50602063D01*
X72457286Y-50585264D01*
X72414042Y-50576701D01*
X72279063Y-50576704D01*
X72294602Y-50570300D01*
X72336299Y-50542597D01*
X72371821Y-50507322D01*
X72399815Y-50465820D01*
X72419214Y-50419670D01*
X72429280Y-50370632D01*
X72429630Y-50320572D01*
X72429461Y-49668549D01*
X72419737Y-49619441D01*
X72400660Y-49573158D01*
X72372957Y-49531461D01*
X72337682Y-49495939D01*
X72296180Y-49467945D01*
X72250030Y-49448546D01*
X72200992Y-49438480D01*
X72150932Y-49438130D01*
X71148389Y-49438299D01*
X71099281Y-49448023D01*
X71052998Y-49467100D01*
X71011301Y-49494803D01*
X70975779Y-49530078D01*
X70947785Y-49571580D01*
X70928386Y-49617730D01*
X70918320Y-49666768D01*
X70917970Y-49716828D01*
X70917993Y-49809066D01*
X70805321Y-49921738D01*
X70805281Y-49824969D01*
X70795557Y-49775861D01*
X70776480Y-49729578D01*
X70748777Y-49687881D01*
X70713502Y-49652359D01*
X70672000Y-49624365D01*
X70646390Y-49613599D01*
X70746331Y-49613581D01*
X70795439Y-49603857D01*
X70841722Y-49584780D01*
X70883419Y-49557077D01*
X70918941Y-49521802D01*
X70946935Y-49480300D01*
X70966334Y-49434150D01*
X70976400Y-49385112D01*
X70976750Y-49335052D01*
X70976730Y-49147730D01*
X72442400Y-49147730D01*
X72479646Y-49144077D01*
X72516924Y-49140816D01*
X72518968Y-49140222D01*
X72521090Y-49140014D01*
X72556934Y-49129192D01*
X72592852Y-49118757D01*
X72594742Y-49117777D01*
X72596783Y-49117161D01*
X72629843Y-49099582D01*
X72663050Y-49082370D01*
X72664713Y-49081041D01*
X72666596Y-49080041D01*
X72695571Y-49056409D01*
X72724843Y-49033042D01*
X72727811Y-49030114D01*
X72727868Y-49030068D01*
X72727911Y-49030015D01*
X72728870Y-49029070D01*
X73239110Y-48518830D01*
X73470282Y-48518830D01*
X73486940Y-48559242D01*
X73514643Y-48600939D01*
X73527820Y-48614209D01*
X73513983Y-48635037D01*
X73497184Y-48675794D01*
X73488621Y-48719038D01*
X73488630Y-48935073D01*
X73544827Y-48991270D01*
X74138870Y-48991270D01*
X74138870Y-48971270D01*
X74288730Y-48971270D01*
X74288730Y-48991270D01*
X74308730Y-48991270D01*
X74308730Y-49141130D01*
X74308730Y-49141130D01*
G37*
X74308730Y-49141130D02*
X74288730Y-49141130D01*
X74288730Y-49161130D01*
X74138870Y-49161130D01*
X74138870Y-49141130D01*
X73544827Y-49141130D01*
X73488630Y-49197327D01*
X73488621Y-49413362D01*
X73497184Y-49456606D01*
X73513983Y-49497363D01*
X73527792Y-49518148D01*
X73515779Y-49530078D01*
X73487785Y-49571580D01*
X73468386Y-49617730D01*
X73458320Y-49666768D01*
X73457970Y-49716828D01*
X73458139Y-50368851D01*
X73467863Y-50417959D01*
X73486940Y-50464242D01*
X73491170Y-50470608D01*
X73491170Y-50546198D01*
X73382969Y-50546219D01*
X73333861Y-50555943D01*
X73287578Y-50575020D01*
X73245881Y-50602723D01*
X73210359Y-50637998D01*
X73182365Y-50679500D01*
X73162966Y-50725650D01*
X73152900Y-50774688D01*
X73152550Y-50824748D01*
X73152719Y-52223531D01*
X73162443Y-52272639D01*
X73181520Y-52318922D01*
X73209223Y-52360619D01*
X73244498Y-52396141D01*
X73286000Y-52424135D01*
X73332150Y-52443534D01*
X73381188Y-52453600D01*
X73431248Y-52453950D01*
X73491170Y-52453938D01*
X73491170Y-54568534D01*
X73320950Y-54601006D01*
X73103650Y-54688801D01*
X72907542Y-54817130D01*
X72740094Y-54981107D01*
X72671795Y-55080854D01*
X72616947Y-55026006D01*
X72616947Y-52178028D01*
X72616790Y-51631127D01*
X72560593Y-51574930D01*
X72022430Y-51574930D01*
X72022430Y-52367093D01*
X72078627Y-52423290D01*
X72414042Y-52423299D01*
X72457286Y-52414736D01*
X72498043Y-52397937D01*
X72534761Y-52373542D01*
X72566041Y-52342479D01*
X72590693Y-52305932D01*
X72607776Y-52265293D01*
X72616640Y-52222110D01*
X72616947Y-52178028D01*
X72616947Y-55026006D01*
X71872570Y-54281629D01*
X71812870Y-54221930D01*
X71783976Y-54198197D01*
X71755285Y-54174122D01*
X71753416Y-54173094D01*
X71751772Y-54171744D01*
X71718822Y-54154076D01*
X71685998Y-54136031D01*
X71683965Y-54135386D01*
X71682089Y-54134380D01*
X71646330Y-54123447D01*
X71610631Y-54112123D01*
X71608511Y-54111885D01*
X71606476Y-54111263D01*
X71569311Y-54107488D01*
X71532056Y-54103309D01*
X71527885Y-54103280D01*
X71527814Y-54103273D01*
X71527747Y-54103279D01*
X71526400Y-54103270D01*
X71321947Y-54103270D01*
X71321947Y-53178028D01*
X71321790Y-52631127D01*
X71265593Y-52574930D01*
X70727430Y-52574930D01*
X70727430Y-53367093D01*
X70783627Y-53423290D01*
X71119042Y-53423299D01*
X71162286Y-53414736D01*
X71203043Y-53397937D01*
X71239761Y-53373542D01*
X71271041Y-53342479D01*
X71295693Y-53305932D01*
X71312776Y-53265293D01*
X71321640Y-53222110D01*
X71321947Y-53178028D01*
X71321947Y-54103270D01*
X71200000Y-54103270D01*
X70577570Y-54103270D01*
X70577570Y-53367093D01*
X70577570Y-52574930D01*
X70039407Y-52574930D01*
X69983210Y-52631127D01*
X69983053Y-53178028D01*
X69983360Y-53222110D01*
X69992224Y-53265293D01*
X70009307Y-53305932D01*
X70033959Y-53342479D01*
X70065239Y-53373542D01*
X70101957Y-53397937D01*
X70142714Y-53414736D01*
X70185958Y-53423299D01*
X70521373Y-53423290D01*
X70577570Y-53367093D01*
X70577570Y-54103270D01*
X69152630Y-54103270D01*
X69152630Y-53453793D01*
X69217031Y-53453781D01*
X69266139Y-53444057D01*
X69312422Y-53424980D01*
X69354119Y-53397277D01*
X69389641Y-53362002D01*
X69417635Y-53320500D01*
X69437034Y-53274350D01*
X69447100Y-53225312D01*
X69447450Y-53175252D01*
X69447281Y-51776469D01*
X69437557Y-51727361D01*
X69418480Y-51681078D01*
X69390777Y-51639381D01*
X69362267Y-51610672D01*
X69367502Y-51605437D01*
X70097020Y-51605343D01*
X70065239Y-51626458D01*
X70033959Y-51657521D01*
X70009307Y-51694068D01*
X69992224Y-51734707D01*
X69983360Y-51777890D01*
X69983053Y-51821972D01*
X69983210Y-52368873D01*
X70039407Y-52425070D01*
X70577570Y-52425070D01*
X70577570Y-52405070D01*
X70727430Y-52405070D01*
X70727430Y-52425070D01*
X71265593Y-52425070D01*
X71321790Y-52368873D01*
X71321800Y-52331866D01*
X71328959Y-52342479D01*
X71360239Y-52373542D01*
X71396957Y-52397937D01*
X71437714Y-52414736D01*
X71480958Y-52423299D01*
X71816373Y-52423290D01*
X71872570Y-52367093D01*
X71872570Y-51574930D01*
X71334407Y-51574930D01*
X71278210Y-51631127D01*
X71278199Y-51668133D01*
X71271041Y-51657521D01*
X71239761Y-51626458D01*
X71203043Y-51602063D01*
X71162286Y-51585264D01*
X71119042Y-51576701D01*
X70783627Y-51576710D01*
X70727432Y-51632905D01*
X70727432Y-51576710D01*
X70669863Y-51576710D01*
X70670422Y-51576480D01*
X70712119Y-51548777D01*
X70747641Y-51513502D01*
X70775635Y-51472000D01*
X70795034Y-51425850D01*
X70805100Y-51376812D01*
X70805450Y-51326752D01*
X70805308Y-50989377D01*
X70814534Y-50986592D01*
X70850452Y-50976157D01*
X70852342Y-50975177D01*
X70854383Y-50974561D01*
X70887443Y-50956982D01*
X70920650Y-50939770D01*
X70922313Y-50938441D01*
X70924196Y-50937441D01*
X70953171Y-50913809D01*
X70982443Y-50890442D01*
X70985411Y-50887514D01*
X70985468Y-50887468D01*
X70985511Y-50887415D01*
X70986470Y-50886470D01*
X71273682Y-50599257D01*
X71403817Y-50599235D01*
X71396957Y-50602063D01*
X71360239Y-50626458D01*
X71328959Y-50657521D01*
X71304307Y-50694068D01*
X71287224Y-50734707D01*
X71278360Y-50777890D01*
X71278053Y-50821972D01*
X71278210Y-51368873D01*
X71334407Y-51425070D01*
X71872570Y-51425070D01*
X71872570Y-51405070D01*
X72022430Y-51405070D01*
X72022430Y-51425070D01*
X72560593Y-51425070D01*
X72616790Y-51368873D01*
X72616947Y-50821972D01*
X72616640Y-50777890D01*
X72607776Y-50734707D01*
X72590693Y-50694068D01*
X72566041Y-50657521D01*
X72534761Y-50626458D01*
X72498043Y-50602063D01*
X72457286Y-50585264D01*
X72414042Y-50576701D01*
X72279063Y-50576704D01*
X72294602Y-50570300D01*
X72336299Y-50542597D01*
X72371821Y-50507322D01*
X72399815Y-50465820D01*
X72419214Y-50419670D01*
X72429280Y-50370632D01*
X72429630Y-50320572D01*
X72429461Y-49668549D01*
X72419737Y-49619441D01*
X72400660Y-49573158D01*
X72372957Y-49531461D01*
X72337682Y-49495939D01*
X72296180Y-49467945D01*
X72250030Y-49448546D01*
X72200992Y-49438480D01*
X72150932Y-49438130D01*
X71148389Y-49438299D01*
X71099281Y-49448023D01*
X71052998Y-49467100D01*
X71011301Y-49494803D01*
X70975779Y-49530078D01*
X70947785Y-49571580D01*
X70928386Y-49617730D01*
X70918320Y-49666768D01*
X70917970Y-49716828D01*
X70917993Y-49809066D01*
X70805321Y-49921738D01*
X70805281Y-49824969D01*
X70795557Y-49775861D01*
X70776480Y-49729578D01*
X70748777Y-49687881D01*
X70713502Y-49652359D01*
X70672000Y-49624365D01*
X70646390Y-49613599D01*
X70746331Y-49613581D01*
X70795439Y-49603857D01*
X70841722Y-49584780D01*
X70883419Y-49557077D01*
X70918941Y-49521802D01*
X70946935Y-49480300D01*
X70966334Y-49434150D01*
X70976400Y-49385112D01*
X70976750Y-49335052D01*
X70976730Y-49147730D01*
X72442400Y-49147730D01*
X72479646Y-49144077D01*
X72516924Y-49140816D01*
X72518968Y-49140222D01*
X72521090Y-49140014D01*
X72556934Y-49129192D01*
X72592852Y-49118757D01*
X72594742Y-49117777D01*
X72596783Y-49117161D01*
X72629843Y-49099582D01*
X72663050Y-49082370D01*
X72664713Y-49081041D01*
X72666596Y-49080041D01*
X72695571Y-49056409D01*
X72724843Y-49033042D01*
X72727811Y-49030114D01*
X72727868Y-49030068D01*
X72727911Y-49030015D01*
X72728870Y-49029070D01*
X73239110Y-48518830D01*
X73470282Y-48518830D01*
X73486940Y-48559242D01*
X73514643Y-48600939D01*
X73527820Y-48614209D01*
X73513983Y-48635037D01*
X73497184Y-48675794D01*
X73488621Y-48719038D01*
X73488630Y-48935073D01*
X73544827Y-48991270D01*
X74138870Y-48991270D01*
X74138870Y-48971270D01*
X74288730Y-48971270D01*
X74288730Y-48991270D01*
X74308730Y-48991270D01*
X74308730Y-49141130D01*
G36*
X75133200Y-59396073D02*
X74636072Y-59893200D01*
X72289936Y-59893200D01*
X72289936Y-58521040D01*
X72262612Y-58294293D01*
X72191767Y-58077171D01*
X72108831Y-57921191D01*
X71958936Y-57814031D01*
X71852969Y-57919998D01*
X71852969Y-57708064D01*
X71852969Y-56845936D01*
X71120000Y-56112967D01*
X71014033Y-56218934D01*
X71014033Y-56007000D01*
X70281064Y-55274031D01*
X70131169Y-55381191D01*
X70028448Y-55585174D01*
X69967303Y-55805224D01*
X69950064Y-56032960D01*
X69977388Y-56259707D01*
X70048233Y-56476829D01*
X70131169Y-56632809D01*
X70281064Y-56739969D01*
X71014033Y-56007000D01*
X71014033Y-56218934D01*
X70387031Y-56845936D01*
X70494191Y-56995831D01*
X70698174Y-57098552D01*
X70918224Y-57159697D01*
X71145960Y-57176936D01*
X71372707Y-57149612D01*
X71589829Y-57078767D01*
X71745809Y-56995831D01*
X71852969Y-56845936D01*
X71852969Y-57708064D01*
X71745809Y-57558169D01*
X71541826Y-57455448D01*
X71321776Y-57394303D01*
X71094040Y-57377064D01*
X70867293Y-57404388D01*
X70650171Y-57475233D01*
X70494191Y-57558169D01*
X70387031Y-57708064D01*
X71120000Y-58441033D01*
X71852969Y-57708064D01*
X71852969Y-57919998D01*
X71225967Y-58547000D01*
X71958936Y-59279969D01*
X72108831Y-59172809D01*
X72211552Y-58968826D01*
X72272697Y-58748776D01*
X72289936Y-58521040D01*
X72289936Y-59893200D01*
X71852969Y-59893200D01*
X71852969Y-59385936D01*
X71120000Y-58652967D01*
X71014033Y-58758934D01*
X71014033Y-58547000D01*
X70281064Y-57814031D01*
X70131169Y-57921191D01*
X70028448Y-58125174D01*
X69967303Y-58345224D01*
X69950064Y-58572960D01*
X69977388Y-58799707D01*
X70048233Y-59016829D01*
X70131169Y-59172809D01*
X70281064Y-59279969D01*
X71014033Y-58547000D01*
X71014033Y-58758934D01*
X70387031Y-59385936D01*
X70494191Y-59535831D01*
X70698174Y-59638552D01*
X70918224Y-59699697D01*
X71145960Y-59716936D01*
X71372707Y-59689612D01*
X71589829Y-59618767D01*
X71745809Y-59535831D01*
X71852969Y-59385936D01*
X71852969Y-59893200D01*
X69775121Y-59893200D01*
X69775121Y-58175817D01*
X69729599Y-57945916D01*
X69640289Y-57729234D01*
X69510594Y-57534026D01*
X69345452Y-57367728D01*
X69151154Y-57236672D01*
X68935102Y-57145852D01*
X68705523Y-57098726D01*
X68471164Y-57097090D01*
X68240950Y-57141006D01*
X68023650Y-57228801D01*
X67827542Y-57357130D01*
X67660094Y-57521107D01*
X67527685Y-57714485D01*
X67435359Y-57929899D01*
X67386632Y-58159142D01*
X67383360Y-58393485D01*
X67425667Y-58624000D01*
X67511943Y-58841907D01*
X67638900Y-59038907D01*
X67801704Y-59207495D01*
X67994153Y-59341250D01*
X68208916Y-59435078D01*
X68437814Y-59485405D01*
X68672128Y-59490313D01*
X68902933Y-59449616D01*
X69121437Y-59364863D01*
X69319318Y-59239284D01*
X69489039Y-59077661D01*
X69624135Y-58886151D01*
X69719460Y-58672048D01*
X69771383Y-58443507D01*
X69775121Y-58175817D01*
X69775121Y-59893200D01*
X67235121Y-59893200D01*
X67235121Y-58429817D01*
X67189599Y-58199916D01*
X67100289Y-57983234D01*
X66970594Y-57788026D01*
X66805452Y-57621728D01*
X66611154Y-57490672D01*
X66395102Y-57399852D01*
X66165523Y-57352726D01*
X65931164Y-57351090D01*
X65700950Y-57395006D01*
X65483650Y-57482801D01*
X65287542Y-57611130D01*
X65120094Y-57775107D01*
X64987685Y-57968485D01*
X64895359Y-58183899D01*
X64846632Y-58413142D01*
X64843360Y-58647485D01*
X64885667Y-58878000D01*
X64971943Y-59095907D01*
X65098900Y-59292907D01*
X65261704Y-59461495D01*
X65454153Y-59595250D01*
X65668916Y-59689078D01*
X65897814Y-59739405D01*
X66132128Y-59744313D01*
X66362933Y-59703616D01*
X66581437Y-59618863D01*
X66779318Y-59493284D01*
X66949039Y-59331661D01*
X67084135Y-59140151D01*
X67179460Y-58926048D01*
X67231383Y-58697507D01*
X67235121Y-58429817D01*
X67235121Y-59893200D01*
X64695121Y-59893200D01*
X64695121Y-58175817D01*
X64649599Y-57945916D01*
X64560289Y-57729234D01*
X64430594Y-57534026D01*
X64265452Y-57367728D01*
X64071154Y-57236672D01*
X63855102Y-57145852D01*
X63625523Y-57098726D01*
X63391164Y-57097090D01*
X63160950Y-57141006D01*
X62943650Y-57228801D01*
X62747542Y-57357130D01*
X62580094Y-57521107D01*
X62447685Y-57714485D01*
X62355359Y-57929899D01*
X62306632Y-58159142D01*
X62303360Y-58393485D01*
X62345667Y-58624000D01*
X62431943Y-58841907D01*
X62558900Y-59038907D01*
X62721704Y-59207495D01*
X62914153Y-59341250D01*
X63128916Y-59435078D01*
X63357814Y-59485405D01*
X63592128Y-59490313D01*
X63822933Y-59449616D01*
X64041437Y-59364863D01*
X64239318Y-59239284D01*
X64409039Y-59077661D01*
X64544135Y-58886151D01*
X64639460Y-58672048D01*
X64691383Y-58443507D01*
X64695121Y-58175817D01*
X64695121Y-59893200D01*
X62155121Y-59893200D01*
X62155121Y-58429817D01*
X62109599Y-58199916D01*
X62020289Y-57983234D01*
X61890594Y-57788026D01*
X61725452Y-57621728D01*
X61531154Y-57490672D01*
X61315102Y-57399852D01*
X61085523Y-57352726D01*
X60851164Y-57351090D01*
X60620950Y-57395006D01*
X60403650Y-57482801D01*
X60207542Y-57611130D01*
X60040094Y-57775107D01*
X59907685Y-57968485D01*
X59815359Y-58183899D01*
X59766632Y-58413142D01*
X59763360Y-58647485D01*
X59805667Y-58878000D01*
X59891943Y-59095907D01*
X60018900Y-59292907D01*
X60181704Y-59461495D01*
X60374153Y-59595250D01*
X60588916Y-59689078D01*
X60817814Y-59739405D01*
X61052128Y-59744313D01*
X61282933Y-59703616D01*
X61501437Y-59618863D01*
X61699318Y-59493284D01*
X61869039Y-59331661D01*
X62004135Y-59140151D01*
X62099460Y-58926048D01*
X62151383Y-58697507D01*
X62155121Y-58429817D01*
X62155121Y-59893200D01*
X59615121Y-59893200D01*
X59615121Y-58175817D01*
X59569599Y-57945916D01*
X59480289Y-57729234D01*
X59350594Y-57534026D01*
X59185452Y-57367728D01*
X58991154Y-57236672D01*
X58775102Y-57145852D01*
X58545523Y-57098726D01*
X58311164Y-57097090D01*
X58080950Y-57141006D01*
X57863650Y-57228801D01*
X57667542Y-57357130D01*
X57500094Y-57521107D01*
X57367685Y-57714485D01*
X57275359Y-57929899D01*
X57226632Y-58159142D01*
X57223360Y-58393485D01*
X57265667Y-58624000D01*
X57351943Y-58841907D01*
X57478900Y-59038907D01*
X57641704Y-59207495D01*
X57834153Y-59341250D01*
X58048916Y-59435078D01*
X58277814Y-59485405D01*
X58512128Y-59490313D01*
X58742933Y-59449616D01*
X58961437Y-59364863D01*
X59159318Y-59239284D01*
X59329039Y-59077661D01*
X59464135Y-58886151D01*
X59559460Y-58672048D01*
X59611383Y-58443507D01*
X59615121Y-58175817D01*
X59615121Y-59893200D01*
X57075121Y-59893200D01*
X57075121Y-58429817D01*
X57029599Y-58199916D01*
X56940289Y-57983234D01*
X56810594Y-57788026D01*
X56645452Y-57621728D01*
X56451154Y-57490672D01*
X56235102Y-57399852D01*
X56005523Y-57352726D01*
X55771164Y-57351090D01*
X55540950Y-57395006D01*
X55323650Y-57482801D01*
X55127542Y-57611130D01*
X54960094Y-57775107D01*
X54827685Y-57968485D01*
X54735359Y-58183899D01*
X54686632Y-58413142D01*
X54683360Y-58647485D01*
X54725667Y-58878000D01*
X54811943Y-59095907D01*
X54938900Y-59292907D01*
X55101704Y-59461495D01*
X55294153Y-59595250D01*
X55508916Y-59689078D01*
X55737814Y-59739405D01*
X55972128Y-59744313D01*
X56202933Y-59703616D01*
X56421437Y-59618863D01*
X56619318Y-59493284D01*
X56789039Y-59331661D01*
X56924135Y-59140151D01*
X57019460Y-58926048D01*
X57071383Y-58697507D01*
X57075121Y-58429817D01*
X57075121Y-59893200D01*
X54535121Y-59893200D01*
X54535121Y-58175817D01*
X54489599Y-57945916D01*
X54400289Y-57729234D01*
X54270594Y-57534026D01*
X54105452Y-57367728D01*
X53911154Y-57236672D01*
X53695102Y-57145852D01*
X53465523Y-57098726D01*
X53231164Y-57097090D01*
X53000950Y-57141006D01*
X52783650Y-57228801D01*
X52587542Y-57357130D01*
X52420094Y-57521107D01*
X52287685Y-57714485D01*
X52195359Y-57929899D01*
X52146632Y-58159142D01*
X52143360Y-58393485D01*
X52185667Y-58624000D01*
X52271943Y-58841907D01*
X52398900Y-59038907D01*
X52561704Y-59207495D01*
X52754153Y-59341250D01*
X52968916Y-59435078D01*
X53197814Y-59485405D01*
X53432128Y-59490313D01*
X53662933Y-59449616D01*
X53881437Y-59364863D01*
X54079318Y-59239284D01*
X54249039Y-59077661D01*
X54384135Y-58886151D01*
X54479460Y-58672048D01*
X54531383Y-58443507D01*
X54535121Y-58175817D01*
X54535121Y-59893200D01*
X51995121Y-59893200D01*
X51995121Y-58429817D01*
X51949599Y-58199916D01*
X51860289Y-57983234D01*
X51730594Y-57788026D01*
X51565452Y-57621728D01*
X51371154Y-57490672D01*
X51155102Y-57399852D01*
X50925523Y-57352726D01*
X50691164Y-57351090D01*
X50460950Y-57395006D01*
X50243650Y-57482801D01*
X50047542Y-57611130D01*
X49880094Y-57775107D01*
X49747685Y-57968485D01*
X49655359Y-58183899D01*
X49606632Y-58413142D01*
X49603360Y-58647485D01*
X49645667Y-58878000D01*
X49731943Y-59095907D01*
X49858900Y-59292907D01*
X50021704Y-59461495D01*
X50214153Y-59595250D01*
X50428916Y-59689078D01*
X50657814Y-59739405D01*
X50892128Y-59744313D01*
X51122933Y-59703616D01*
X51341437Y-59618863D01*
X51539318Y-59493284D01*
X51709039Y-59331661D01*
X51844135Y-59140151D01*
X51939460Y-58926048D01*
X51991383Y-58697507D01*
X51995121Y-58429817D01*
X51995121Y-59893200D01*
X44375121Y-59893200D01*
X44375121Y-58175817D01*
X44329599Y-57945916D01*
X44240289Y-57729234D01*
X44110594Y-57534026D01*
X43945452Y-57367728D01*
X43751154Y-57236672D01*
X43535102Y-57145852D01*
X43305523Y-57098726D01*
X43071164Y-57097090D01*
X42840950Y-57141006D01*
X42623650Y-57228801D01*
X42427542Y-57357130D01*
X42260094Y-57521107D01*
X42127685Y-57714485D01*
X42035359Y-57929899D01*
X41986632Y-58159142D01*
X41983360Y-58393485D01*
X42025667Y-58624000D01*
X42111943Y-58841907D01*
X42238900Y-59038907D01*
X42401704Y-59207495D01*
X42594153Y-59341250D01*
X42808916Y-59435078D01*
X43037814Y-59485405D01*
X43272128Y-59490313D01*
X43502933Y-59449616D01*
X43721437Y-59364863D01*
X43919318Y-59239284D01*
X44089039Y-59077661D01*
X44224135Y-58886151D01*
X44319460Y-58672048D01*
X44371383Y-58443507D01*
X44375121Y-58175817D01*
X44375121Y-59893200D01*
X41835121Y-59893200D01*
X41835121Y-58429817D01*
X41789599Y-58199916D01*
X41700289Y-57983234D01*
X41570594Y-57788026D01*
X41405452Y-57621728D01*
X41211154Y-57490672D01*
X40995102Y-57399852D01*
X40765523Y-57352726D01*
X40531164Y-57351090D01*
X40300950Y-57395006D01*
X40083650Y-57482801D01*
X39887542Y-57611130D01*
X39720094Y-57775107D01*
X39587685Y-57968485D01*
X39495359Y-58183899D01*
X39446632Y-58413142D01*
X39443360Y-58647485D01*
X39485667Y-58878000D01*
X39571943Y-59095907D01*
X39698900Y-59292907D01*
X39861704Y-59461495D01*
X40054153Y-59595250D01*
X40268916Y-59689078D01*
X40497814Y-59739405D01*
X40732128Y-59744313D01*
X40962933Y-59703616D01*
X41181437Y-59618863D01*
X41379318Y-59493284D01*
X41549039Y-59331661D01*
X41684135Y-59140151D01*
X41779460Y-58926048D01*
X41831383Y-58697507D01*
X41835121Y-58429817D01*
X41835121Y-59893200D01*
X39663927Y-59893200D01*
X39167270Y-59396543D01*
X39167270Y-42203457D01*
X39663927Y-41706800D01*
X74636072Y-41706800D01*
X75133200Y-42203927D01*
X75133200Y-48041059D01*
X74969490Y-47877350D01*
X74969461Y-47763549D01*
X74959737Y-47714441D01*
X74940660Y-47668158D01*
X74912957Y-47626461D01*
X74877682Y-47590939D01*
X74836180Y-47562945D01*
X74790030Y-47543546D01*
X74740992Y-47533480D01*
X74690932Y-47533130D01*
X73688389Y-47533299D01*
X73639281Y-47543023D01*
X73592998Y-47562100D01*
X73551301Y-47589803D01*
X73515779Y-47625078D01*
X73487785Y-47666580D01*
X73470134Y-47708570D01*
X73131510Y-47708570D01*
X72805130Y-47382190D01*
X72805130Y-46428200D01*
X72881704Y-46507495D01*
X73074153Y-46641250D01*
X73288916Y-46735078D01*
X73517814Y-46785405D01*
X73752128Y-46790313D01*
X73982933Y-46749616D01*
X74201437Y-46664863D01*
X74399318Y-46539284D01*
X74569039Y-46377661D01*
X74704135Y-46186151D01*
X74799460Y-45972048D01*
X74851383Y-45743507D01*
X74855121Y-45475817D01*
X74855121Y-42935817D01*
X74809599Y-42705916D01*
X74720289Y-42489234D01*
X74590594Y-42294026D01*
X74425452Y-42127728D01*
X74231154Y-41996672D01*
X74015102Y-41905852D01*
X73785523Y-41858726D01*
X73551164Y-41857090D01*
X73320950Y-41901006D01*
X73103650Y-41988801D01*
X72907542Y-42117130D01*
X72740094Y-42281107D01*
X72607685Y-42474485D01*
X72515359Y-42689899D01*
X72466632Y-42919142D01*
X72463360Y-43153485D01*
X72505667Y-43384000D01*
X72591943Y-43601907D01*
X72718900Y-43798907D01*
X72881704Y-43967495D01*
X73074153Y-44101250D01*
X73288916Y-44195078D01*
X73517814Y-44245405D01*
X73752128Y-44250313D01*
X73982933Y-44209616D01*
X74201437Y-44124863D01*
X74399318Y-43999284D01*
X74569039Y-43837661D01*
X74704135Y-43646151D01*
X74799460Y-43432048D01*
X74851383Y-43203507D01*
X74855121Y-42935817D01*
X74855121Y-45475817D01*
X74809599Y-45245916D01*
X74720289Y-45029234D01*
X74590594Y-44834026D01*
X74425452Y-44667728D01*
X74231154Y-44536672D01*
X74015102Y-44445852D01*
X73785523Y-44398726D01*
X73551164Y-44397090D01*
X73320950Y-44441006D01*
X73103650Y-44528801D01*
X72907542Y-44657130D01*
X72740094Y-44821107D01*
X72650254Y-44952313D01*
X71986470Y-44288530D01*
X71957576Y-44264797D01*
X71928885Y-44240722D01*
X71927016Y-44239694D01*
X71925372Y-44238344D01*
X71893149Y-44221066D01*
X72029039Y-44091661D01*
X72164135Y-43900151D01*
X72259460Y-43686048D01*
X72311383Y-43457507D01*
X72315121Y-43189817D01*
X72269599Y-42959916D01*
X72180289Y-42743234D01*
X72050594Y-42548026D01*
X71885452Y-42381728D01*
X71691154Y-42250672D01*
X71475102Y-42159852D01*
X71245523Y-42112726D01*
X71011164Y-42111090D01*
X70780950Y-42155006D01*
X70563650Y-42242801D01*
X70367542Y-42371130D01*
X70200094Y-42535107D01*
X70067685Y-42728485D01*
X69975359Y-42943899D01*
X69926632Y-43173142D01*
X69923360Y-43407485D01*
X69965667Y-43638000D01*
X70051943Y-43855907D01*
X70178900Y-44052907D01*
X70341704Y-44221495D01*
X70347746Y-44225694D01*
X70329350Y-44235230D01*
X70327685Y-44236558D01*
X70325804Y-44237559D01*
X70296853Y-44261171D01*
X70267556Y-44284558D01*
X70264582Y-44287490D01*
X70264532Y-44287532D01*
X70264492Y-44287579D01*
X70263529Y-44288530D01*
X69749936Y-44802123D01*
X69749936Y-43027040D01*
X69722612Y-42800293D01*
X69651767Y-42583171D01*
X69568831Y-42427191D01*
X69418936Y-42320031D01*
X69312969Y-42425998D01*
X69312969Y-42214064D01*
X69205809Y-42064169D01*
X69001826Y-41961448D01*
X68781776Y-41900303D01*
X68554040Y-41883064D01*
X68327293Y-41910388D01*
X68110171Y-41981233D01*
X67954191Y-42064169D01*
X67847031Y-42214064D01*
X68580000Y-42947033D01*
X69312969Y-42214064D01*
X69312969Y-42425998D01*
X68685967Y-43053000D01*
X69418936Y-43785969D01*
X69568831Y-43678809D01*
X69671552Y-43474826D01*
X69732697Y-43254776D01*
X69749936Y-43027040D01*
X69749936Y-44802123D01*
X69593400Y-44958659D01*
X69510594Y-44834026D01*
X69345452Y-44667728D01*
X69312969Y-44645817D01*
X69312969Y-43891936D01*
X68580000Y-43158967D01*
X68474033Y-43264934D01*
X68474033Y-43053000D01*
X67741064Y-42320031D01*
X67591169Y-42427191D01*
X67488448Y-42631174D01*
X67427303Y-42851224D01*
X67410064Y-43078960D01*
X67437388Y-43305707D01*
X67508233Y-43522829D01*
X67591169Y-43678809D01*
X67741064Y-43785969D01*
X68474033Y-43053000D01*
X68474033Y-43264934D01*
X67847031Y-43891936D01*
X67954191Y-44041831D01*
X68158174Y-44144552D01*
X68378224Y-44205697D01*
X68605960Y-44222936D01*
X68832707Y-44195612D01*
X69049829Y-44124767D01*
X69205809Y-44041831D01*
X69312969Y-43891936D01*
X69312969Y-44645817D01*
X69151154Y-44536672D01*
X68935102Y-44445852D01*
X68705523Y-44398726D01*
X68471164Y-44397090D01*
X68240950Y-44441006D01*
X68070010Y-44510070D01*
X67848470Y-44288530D01*
X67819576Y-44264797D01*
X67790885Y-44240722D01*
X67789016Y-44239694D01*
X67787372Y-44238344D01*
X67754422Y-44220676D01*
X67721598Y-44202631D01*
X67719565Y-44201986D01*
X67717689Y-44200980D01*
X67681930Y-44190047D01*
X67646231Y-44178723D01*
X67644111Y-44178485D01*
X67642076Y-44177863D01*
X67604911Y-44174088D01*
X67567656Y-44169909D01*
X67563485Y-44169880D01*
X67563414Y-44169873D01*
X67563347Y-44169879D01*
X67562000Y-44169870D01*
X66866911Y-44169870D01*
X66949039Y-44091661D01*
X67084135Y-43900151D01*
X67179460Y-43686048D01*
X67231383Y-43457507D01*
X67235121Y-43189817D01*
X67189599Y-42959916D01*
X67100289Y-42743234D01*
X66970594Y-42548026D01*
X66805452Y-42381728D01*
X66611154Y-42250672D01*
X66395102Y-42159852D01*
X66165523Y-42112726D01*
X65931164Y-42111090D01*
X65700950Y-42155006D01*
X65483650Y-42242801D01*
X65287542Y-42371130D01*
X65120094Y-42535107D01*
X64987685Y-42728485D01*
X64895359Y-42943899D01*
X64846632Y-43173142D01*
X64843360Y-43407485D01*
X64885667Y-43638000D01*
X64971943Y-43855907D01*
X65098900Y-44052907D01*
X65261704Y-44221495D01*
X65269882Y-44227178D01*
X65254350Y-44235230D01*
X65252685Y-44236558D01*
X65250804Y-44237559D01*
X65221853Y-44261171D01*
X65192556Y-44284558D01*
X65189582Y-44287490D01*
X65189532Y-44287532D01*
X65189492Y-44287579D01*
X65188529Y-44288530D01*
X64695121Y-44781938D01*
X64695121Y-42935817D01*
X64649599Y-42705916D01*
X64560289Y-42489234D01*
X64430594Y-42294026D01*
X64265452Y-42127728D01*
X64071154Y-41996672D01*
X63855102Y-41905852D01*
X63625523Y-41858726D01*
X63391164Y-41857090D01*
X63160950Y-41901006D01*
X62943650Y-41988801D01*
X62747542Y-42117130D01*
X62580094Y-42281107D01*
X62447685Y-42474485D01*
X62355359Y-42689899D01*
X62306632Y-42919142D01*
X62303360Y-43153485D01*
X62345667Y-43384000D01*
X62431943Y-43601907D01*
X62558900Y-43798907D01*
X62721704Y-43967495D01*
X62914153Y-44101250D01*
X63128916Y-44195078D01*
X63357814Y-44245405D01*
X63592128Y-44250313D01*
X63822933Y-44209616D01*
X64041437Y-44124863D01*
X64239318Y-43999284D01*
X64409039Y-43837661D01*
X64544135Y-43646151D01*
X64639460Y-43432048D01*
X64691383Y-43203507D01*
X64695121Y-42935817D01*
X64695121Y-44781938D01*
X64515395Y-44961664D01*
X64430594Y-44834026D01*
X64265452Y-44667728D01*
X64071154Y-44536672D01*
X63855102Y-44445852D01*
X63625523Y-44398726D01*
X63391164Y-44397090D01*
X63160950Y-44441006D01*
X62943650Y-44528801D01*
X62747542Y-44657130D01*
X62580094Y-44821107D01*
X62447685Y-45014485D01*
X62355359Y-45229899D01*
X62306632Y-45459142D01*
X62303360Y-45693485D01*
X62345667Y-45924000D01*
X62431943Y-46141907D01*
X62558900Y-46338907D01*
X62721704Y-46507495D01*
X62914153Y-46641250D01*
X63036883Y-46694870D01*
X62155121Y-46694870D01*
X62155121Y-45729817D01*
X62155121Y-43189817D01*
X62109599Y-42959916D01*
X62020289Y-42743234D01*
X61890594Y-42548026D01*
X61725452Y-42381728D01*
X61531154Y-42250672D01*
X61315102Y-42159852D01*
X61085523Y-42112726D01*
X60851164Y-42111090D01*
X60620950Y-42155006D01*
X60403650Y-42242801D01*
X60207542Y-42371130D01*
X60040094Y-42535107D01*
X59907685Y-42728485D01*
X59815359Y-42943899D01*
X59766632Y-43173142D01*
X59763360Y-43407485D01*
X59805667Y-43638000D01*
X59891943Y-43855907D01*
X60018900Y-44052907D01*
X60181704Y-44221495D01*
X60374153Y-44355250D01*
X60588916Y-44449078D01*
X60817814Y-44499405D01*
X61052128Y-44504313D01*
X61282933Y-44463616D01*
X61501437Y-44378863D01*
X61699318Y-44253284D01*
X61869039Y-44091661D01*
X62004135Y-43900151D01*
X62099460Y-43686048D01*
X62151383Y-43457507D01*
X62155121Y-43189817D01*
X62155121Y-45729817D01*
X62109599Y-45499916D01*
X62020289Y-45283234D01*
X61890594Y-45088026D01*
X61725452Y-44921728D01*
X61531154Y-44790672D01*
X61315102Y-44699852D01*
X61085523Y-44652726D01*
X60851164Y-44651090D01*
X60620950Y-44695006D01*
X60403650Y-44782801D01*
X60207542Y-44911130D01*
X60040094Y-45075107D01*
X59907685Y-45268485D01*
X59815359Y-45483899D01*
X59766632Y-45713142D01*
X59763360Y-45947485D01*
X59805667Y-46178000D01*
X59891943Y-46395907D01*
X60018900Y-46592907D01*
X60181704Y-46761495D01*
X60374153Y-46895250D01*
X60588916Y-46989078D01*
X60817814Y-47039405D01*
X61052128Y-47044313D01*
X61282933Y-47003616D01*
X61501437Y-46918863D01*
X61699318Y-46793284D01*
X61869039Y-46631661D01*
X62004135Y-46440151D01*
X62099460Y-46226048D01*
X62151383Y-45997507D01*
X62155121Y-45729817D01*
X62155121Y-46694870D01*
X62062000Y-46694870D01*
X62024716Y-46698525D01*
X61987475Y-46701784D01*
X61985430Y-46702378D01*
X61983310Y-46702586D01*
X61947477Y-46713404D01*
X61911548Y-46723843D01*
X61909657Y-46724822D01*
X61907617Y-46725439D01*
X61874556Y-46743017D01*
X61841350Y-46760230D01*
X61839686Y-46761558D01*
X61837804Y-46762559D01*
X61808822Y-46786195D01*
X61779556Y-46809559D01*
X61776584Y-46812489D01*
X61776532Y-46812532D01*
X61776491Y-46812580D01*
X61775529Y-46813530D01*
X60696299Y-47892760D01*
X60696299Y-47398458D01*
X60687736Y-47355214D01*
X60670937Y-47314457D01*
X60646542Y-47277739D01*
X60615479Y-47246459D01*
X60578932Y-47221807D01*
X60538293Y-47204724D01*
X60495110Y-47195860D01*
X60451028Y-47195553D01*
X60031127Y-47195710D01*
X59974930Y-47251907D01*
X59974930Y-47663070D01*
X60640093Y-47663070D01*
X60696290Y-47606873D01*
X60696299Y-47398458D01*
X60696299Y-47892760D01*
X60696291Y-47892768D01*
X60696290Y-47869127D01*
X60640093Y-47812930D01*
X59974930Y-47812930D01*
X59974930Y-48224093D01*
X60031127Y-48280290D01*
X60308665Y-48280393D01*
X59899928Y-48689130D01*
X59825070Y-48689141D01*
X59825070Y-48224093D01*
X59825070Y-47812930D01*
X59825070Y-47663070D01*
X59825070Y-47251907D01*
X59768873Y-47195710D01*
X59615121Y-47195652D01*
X59615121Y-42935817D01*
X59569599Y-42705916D01*
X59480289Y-42489234D01*
X59350594Y-42294026D01*
X59185452Y-42127728D01*
X58991154Y-41996672D01*
X58775102Y-41905852D01*
X58545523Y-41858726D01*
X58311164Y-41857090D01*
X58080950Y-41901006D01*
X57863650Y-41988801D01*
X57667542Y-42117130D01*
X57500094Y-42281107D01*
X57367685Y-42474485D01*
X57275359Y-42689899D01*
X57226632Y-42919142D01*
X57223360Y-43153485D01*
X57265667Y-43384000D01*
X57351943Y-43601907D01*
X57478900Y-43798907D01*
X57641704Y-43967495D01*
X57834153Y-44101250D01*
X58048916Y-44195078D01*
X58277814Y-44245405D01*
X58512128Y-44250313D01*
X58742933Y-44209616D01*
X58961437Y-44124863D01*
X59159318Y-43999284D01*
X59329039Y-43837661D01*
X59464135Y-43646151D01*
X59559460Y-43432048D01*
X59611383Y-43203507D01*
X59615121Y-42935817D01*
X59615121Y-47195652D01*
X59348972Y-47195553D01*
X59304890Y-47195860D01*
X59261707Y-47204724D01*
X59221068Y-47221807D01*
X59184521Y-47246459D01*
X59153458Y-47277739D01*
X59129063Y-47314457D01*
X59112264Y-47355214D01*
X59103701Y-47398458D01*
X59103710Y-47606873D01*
X59159907Y-47663070D01*
X59825070Y-47663070D01*
X59825070Y-47812930D01*
X59159907Y-47812930D01*
X59103710Y-47869127D01*
X59103701Y-48077542D01*
X59112264Y-48120786D01*
X59129063Y-48161543D01*
X59153458Y-48198261D01*
X59184521Y-48229541D01*
X59221068Y-48254193D01*
X59261707Y-48271276D01*
X59304890Y-48280140D01*
X59348972Y-48280447D01*
X59768873Y-48280290D01*
X59825070Y-48224093D01*
X59825070Y-48689141D01*
X59303469Y-48689219D01*
X59254361Y-48698943D01*
X59208078Y-48718020D01*
X59166381Y-48745723D01*
X59130859Y-48780998D01*
X59102865Y-48822500D01*
X59088417Y-48856870D01*
X58951777Y-48856870D01*
X58945677Y-48826061D01*
X58926600Y-48779778D01*
X58898897Y-48738081D01*
X58863622Y-48702559D01*
X58822120Y-48674565D01*
X58775970Y-48655166D01*
X58726932Y-48645100D01*
X58676872Y-48644750D01*
X58305150Y-48644789D01*
X58305150Y-48495125D01*
X58725151Y-48495081D01*
X58774259Y-48485357D01*
X58820542Y-48466280D01*
X58862239Y-48438577D01*
X58897761Y-48403302D01*
X58925755Y-48361800D01*
X58945154Y-48315650D01*
X58955220Y-48266612D01*
X58955570Y-48216552D01*
X58955570Y-46946552D01*
X58955401Y-46335169D01*
X58945677Y-46286061D01*
X58926600Y-46239778D01*
X58898897Y-46198081D01*
X58863622Y-46162559D01*
X58822120Y-46134565D01*
X58775970Y-46115166D01*
X58726932Y-46105100D01*
X58676872Y-46104750D01*
X57658932Y-46104857D01*
X57808611Y-45955177D01*
X58725151Y-45955081D01*
X58774259Y-45945357D01*
X58820542Y-45926280D01*
X58862239Y-45898577D01*
X58897761Y-45863302D01*
X58925755Y-45821800D01*
X58945154Y-45775650D01*
X58955220Y-45726612D01*
X58955570Y-45676552D01*
X58955401Y-45065169D01*
X58945677Y-45016061D01*
X58926600Y-44969778D01*
X58898897Y-44928081D01*
X58863622Y-44892559D01*
X58822120Y-44864565D01*
X58775970Y-44845166D01*
X58726932Y-44835100D01*
X58676872Y-44834750D01*
X57075121Y-44834918D01*
X57075121Y-43189817D01*
X57029599Y-42959916D01*
X56940289Y-42743234D01*
X56810594Y-42548026D01*
X56645452Y-42381728D01*
X56451154Y-42250672D01*
X56235102Y-42159852D01*
X56005523Y-42112726D01*
X55771164Y-42111090D01*
X55540950Y-42155006D01*
X55323650Y-42242801D01*
X55127542Y-42371130D01*
X54960094Y-42535107D01*
X54827685Y-42728485D01*
X54735359Y-42943899D01*
X54686632Y-43173142D01*
X54683360Y-43407485D01*
X54725667Y-43638000D01*
X54811943Y-43855907D01*
X54938900Y-44052907D01*
X55101704Y-44221495D01*
X55294153Y-44355250D01*
X55508916Y-44449078D01*
X55737814Y-44499405D01*
X55972128Y-44504313D01*
X56202933Y-44463616D01*
X56421437Y-44378863D01*
X56619318Y-44253284D01*
X56789039Y-44091661D01*
X56924135Y-43900151D01*
X57019460Y-43686048D01*
X57071383Y-43457507D01*
X57075121Y-43189817D01*
X57075121Y-44834918D01*
X57074889Y-44834919D01*
X57025781Y-44844643D01*
X56979498Y-44863720D01*
X56937801Y-44891423D01*
X56902279Y-44926698D01*
X56874285Y-44968200D01*
X56854886Y-45014350D01*
X56844820Y-45063388D01*
X56844470Y-45113448D01*
X56844561Y-45445360D01*
X56836734Y-45445306D01*
X56734471Y-45464814D01*
X56637944Y-45503813D01*
X56550831Y-45560819D01*
X56476450Y-45633658D01*
X56417633Y-45719559D01*
X56376620Y-45815247D01*
X56354975Y-45917079D01*
X56353522Y-46021176D01*
X56372315Y-46123573D01*
X56410640Y-46220369D01*
X56467035Y-46307878D01*
X56491806Y-46333530D01*
X56187526Y-46333530D01*
X55340759Y-45486763D01*
X55340783Y-45485066D01*
X55320562Y-45382942D01*
X55280890Y-45286690D01*
X55223278Y-45199977D01*
X55149920Y-45126106D01*
X55063612Y-45067890D01*
X54967639Y-45027547D01*
X54865659Y-45006613D01*
X54761554Y-45005886D01*
X54659291Y-45025394D01*
X54562764Y-45064393D01*
X54535121Y-45082482D01*
X54535121Y-42935817D01*
X54489599Y-42705916D01*
X54400289Y-42489234D01*
X54270594Y-42294026D01*
X54105452Y-42127728D01*
X53911154Y-41996672D01*
X53695102Y-41905852D01*
X53465523Y-41858726D01*
X53231164Y-41857090D01*
X53000950Y-41901006D01*
X52783650Y-41988801D01*
X52587542Y-42117130D01*
X52420094Y-42281107D01*
X52287685Y-42474485D01*
X52195359Y-42689899D01*
X52146632Y-42919142D01*
X52143360Y-43153485D01*
X52185667Y-43384000D01*
X52271943Y-43601907D01*
X52398900Y-43798907D01*
X52561704Y-43967495D01*
X52754153Y-44101250D01*
X52968916Y-44195078D01*
X53197814Y-44245405D01*
X53432128Y-44250313D01*
X53662933Y-44209616D01*
X53881437Y-44124863D01*
X54079318Y-43999284D01*
X54249039Y-43837661D01*
X54384135Y-43646151D01*
X54479460Y-43432048D01*
X54531383Y-43203507D01*
X54535121Y-42935817D01*
X54535121Y-45082482D01*
X54475651Y-45121399D01*
X54401270Y-45194238D01*
X54342453Y-45280139D01*
X54301440Y-45375827D01*
X54279795Y-45477659D01*
X54278342Y-45581756D01*
X54297135Y-45684153D01*
X54335460Y-45780949D01*
X54391855Y-45868458D01*
X54464174Y-45943347D01*
X54549662Y-46002762D01*
X54645061Y-46044441D01*
X54746740Y-46066797D01*
X54850824Y-46068977D01*
X54953350Y-46050899D01*
X54963440Y-46046984D01*
X55815841Y-46899385D01*
X55839518Y-46918833D01*
X55862956Y-46938500D01*
X55864485Y-46939340D01*
X55865831Y-46940446D01*
X55892782Y-46954897D01*
X55919646Y-46969666D01*
X55921309Y-46970193D01*
X55922843Y-46971016D01*
X55952063Y-46979949D01*
X55981310Y-46989227D01*
X55983046Y-46989421D01*
X55984709Y-46989930D01*
X56015068Y-46993013D01*
X56045598Y-46996438D01*
X56049016Y-46996461D01*
X56049069Y-46996467D01*
X56049118Y-46996462D01*
X56050226Y-46996470D01*
X56844963Y-46996470D01*
X56854363Y-47043939D01*
X56873440Y-47090222D01*
X56901143Y-47131919D01*
X56936418Y-47167441D01*
X56977920Y-47195435D01*
X57024070Y-47214834D01*
X57073108Y-47224900D01*
X57123168Y-47225250D01*
X58725151Y-47225081D01*
X58774259Y-47215357D01*
X58820542Y-47196280D01*
X58862239Y-47168577D01*
X58897761Y-47133302D01*
X58925755Y-47091800D01*
X58945154Y-47045650D01*
X58955220Y-46996612D01*
X58955570Y-46946552D01*
X58955570Y-48216552D01*
X58955401Y-47605169D01*
X58945677Y-47556061D01*
X58926600Y-47509778D01*
X58898897Y-47468081D01*
X58863622Y-47432559D01*
X58822120Y-47404565D01*
X58775970Y-47385166D01*
X58726932Y-47375100D01*
X58676872Y-47374750D01*
X57074889Y-47374919D01*
X57025781Y-47384643D01*
X56979498Y-47403720D01*
X56937801Y-47431423D01*
X56902279Y-47466698D01*
X56874285Y-47508200D01*
X56865176Y-47529870D01*
X55249610Y-47529870D01*
X54098270Y-46378530D01*
X54069376Y-46354797D01*
X54040685Y-46330722D01*
X54038816Y-46329694D01*
X54037172Y-46328344D01*
X54004222Y-46310676D01*
X53971398Y-46292631D01*
X53969365Y-46291986D01*
X53967489Y-46290980D01*
X53931730Y-46280047D01*
X53896031Y-46268723D01*
X53893911Y-46268485D01*
X53891876Y-46267863D01*
X53854711Y-46264088D01*
X53817456Y-46259909D01*
X53813285Y-46259880D01*
X53813214Y-46259873D01*
X53813147Y-46259879D01*
X53811800Y-46259870D01*
X53534841Y-46259870D01*
X53526560Y-46239778D01*
X53524879Y-46237247D01*
X53524879Y-45721842D01*
X53524879Y-45068158D01*
X53516316Y-45024914D01*
X53499517Y-44984157D01*
X53475122Y-44947439D01*
X53444059Y-44916159D01*
X53407512Y-44891507D01*
X53366873Y-44874424D01*
X53323690Y-44865560D01*
X53279608Y-44865253D01*
X52631107Y-44865410D01*
X52574910Y-44921607D01*
X52574910Y-45320070D01*
X53468673Y-45320070D01*
X53524870Y-45263873D01*
X53524879Y-45068158D01*
X53524879Y-45721842D01*
X53524870Y-45526127D01*
X53468673Y-45469930D01*
X52574910Y-45469930D01*
X52574910Y-45868393D01*
X52631107Y-45924590D01*
X53279608Y-45924747D01*
X53323690Y-45924440D01*
X53366873Y-45915576D01*
X53407512Y-45898493D01*
X53444059Y-45873841D01*
X53475122Y-45842561D01*
X53499517Y-45805843D01*
X53516316Y-45765086D01*
X53524879Y-45721842D01*
X53524879Y-46237247D01*
X53498857Y-46198081D01*
X53463582Y-46162559D01*
X53422080Y-46134565D01*
X53375930Y-46115166D01*
X53326892Y-46105100D01*
X53276832Y-46104750D01*
X52425050Y-46104839D01*
X52425050Y-45868393D01*
X52425050Y-45469930D01*
X52425050Y-45320070D01*
X52425050Y-44921607D01*
X52368853Y-44865410D01*
X51995121Y-44865319D01*
X51995121Y-43189817D01*
X51949599Y-42959916D01*
X51860289Y-42743234D01*
X51730594Y-42548026D01*
X51565452Y-42381728D01*
X51371154Y-42250672D01*
X51155102Y-42159852D01*
X50925523Y-42112726D01*
X50691164Y-42111090D01*
X50460950Y-42155006D01*
X50243650Y-42242801D01*
X50047542Y-42371130D01*
X49880094Y-42535107D01*
X49747685Y-42728485D01*
X49655359Y-42943899D01*
X49606632Y-43173142D01*
X49603360Y-43407485D01*
X49645667Y-43638000D01*
X49731943Y-43855907D01*
X49858900Y-44052907D01*
X50021704Y-44221495D01*
X50214153Y-44355250D01*
X50428916Y-44449078D01*
X50657814Y-44499405D01*
X50892128Y-44504313D01*
X51122933Y-44463616D01*
X51341437Y-44378863D01*
X51539318Y-44253284D01*
X51709039Y-44091661D01*
X51844135Y-43900151D01*
X51939460Y-43686048D01*
X51991383Y-43457507D01*
X51995121Y-43189817D01*
X51995121Y-44865319D01*
X51720352Y-44865253D01*
X51676270Y-44865560D01*
X51633087Y-44874424D01*
X51592448Y-44891507D01*
X51555901Y-44916159D01*
X51524838Y-44947439D01*
X51500443Y-44984157D01*
X51483644Y-45024914D01*
X51475081Y-45068158D01*
X51475090Y-45263873D01*
X51531287Y-45320070D01*
X52425050Y-45320070D01*
X52425050Y-45469930D01*
X51531287Y-45469930D01*
X51475090Y-45526127D01*
X51475081Y-45721842D01*
X51483644Y-45765086D01*
X51500443Y-45805843D01*
X51524838Y-45842561D01*
X51555901Y-45873841D01*
X51592448Y-45898493D01*
X51633087Y-45915576D01*
X51676270Y-45924440D01*
X51720352Y-45924747D01*
X52368853Y-45924590D01*
X52425050Y-45868393D01*
X52425050Y-46104839D01*
X51674849Y-46104919D01*
X51625741Y-46114643D01*
X51579458Y-46133720D01*
X51537761Y-46161423D01*
X51502239Y-46196698D01*
X51474245Y-46238200D01*
X51465136Y-46259870D01*
X51409976Y-46259870D01*
X51406930Y-46252478D01*
X51405249Y-46249947D01*
X51405249Y-45709142D01*
X51405249Y-45080858D01*
X51396686Y-45037614D01*
X51379887Y-44996857D01*
X51355492Y-44960139D01*
X51324429Y-44928859D01*
X51287882Y-44904207D01*
X51247243Y-44887124D01*
X51204060Y-44878260D01*
X51159978Y-44877953D01*
X50571167Y-44878110D01*
X50514970Y-44934307D01*
X50514970Y-45320070D01*
X51349043Y-45320070D01*
X51405240Y-45263873D01*
X51405249Y-45080858D01*
X51405249Y-45709142D01*
X51405240Y-45526127D01*
X51349043Y-45469930D01*
X50514970Y-45469930D01*
X50514970Y-45855693D01*
X50571167Y-45911890D01*
X51159978Y-45912047D01*
X51204060Y-45911740D01*
X51247243Y-45902876D01*
X51287882Y-45885793D01*
X51324429Y-45861141D01*
X51355492Y-45829861D01*
X51379887Y-45793143D01*
X51396686Y-45752386D01*
X51405249Y-45709142D01*
X51405249Y-46249947D01*
X51379227Y-46210781D01*
X51343952Y-46175259D01*
X51302450Y-46147265D01*
X51256300Y-46127866D01*
X51207262Y-46117800D01*
X51157202Y-46117450D01*
X50365110Y-46117540D01*
X50365110Y-45855693D01*
X50365110Y-45469930D01*
X50365110Y-45320070D01*
X50365110Y-44934307D01*
X50308913Y-44878110D01*
X49720102Y-44877953D01*
X49676020Y-44878260D01*
X49632837Y-44887124D01*
X49592198Y-44904207D01*
X49555651Y-44928859D01*
X49524588Y-44960139D01*
X49500193Y-44996857D01*
X49483394Y-45037614D01*
X49474831Y-45080858D01*
X49474840Y-45263873D01*
X49531037Y-45320070D01*
X50365110Y-45320070D01*
X50365110Y-45469930D01*
X49531037Y-45469930D01*
X49474840Y-45526127D01*
X49474831Y-45709142D01*
X49483394Y-45752386D01*
X49500193Y-45793143D01*
X49524588Y-45829861D01*
X49555651Y-45861141D01*
X49592198Y-45885793D01*
X49632837Y-45902876D01*
X49676020Y-45911740D01*
X49720102Y-45912047D01*
X50308913Y-45911890D01*
X50365110Y-45855693D01*
X50365110Y-46117540D01*
X49674599Y-46117619D01*
X49625491Y-46127343D01*
X49591994Y-46141149D01*
X49565020Y-46113986D01*
X49478712Y-46055770D01*
X49382739Y-46015427D01*
X49323271Y-46003219D01*
X49332720Y-45957192D01*
X49333070Y-45907132D01*
X49332901Y-44904589D01*
X49323177Y-44855481D01*
X49304100Y-44809198D01*
X49276397Y-44767501D01*
X49241122Y-44731979D01*
X49199620Y-44703985D01*
X49153470Y-44684586D01*
X49151254Y-44684131D01*
X49150716Y-44677975D01*
X49150121Y-44675930D01*
X49149914Y-44673810D01*
X49139095Y-44637977D01*
X49128657Y-44602048D01*
X49127677Y-44600157D01*
X49127061Y-44598117D01*
X49109482Y-44565056D01*
X49092270Y-44531850D01*
X49090941Y-44530185D01*
X49089941Y-44528304D01*
X49066328Y-44499353D01*
X49042942Y-44470056D01*
X49040009Y-44467082D01*
X49039968Y-44467032D01*
X49039920Y-44466992D01*
X49038970Y-44466029D01*
X48886470Y-44313530D01*
X48857576Y-44289797D01*
X48828885Y-44265722D01*
X48827016Y-44264694D01*
X48825372Y-44263344D01*
X48792422Y-44245676D01*
X48759598Y-44227631D01*
X48757565Y-44226986D01*
X48755689Y-44225980D01*
X48719930Y-44215047D01*
X48684231Y-44203723D01*
X48682111Y-44203485D01*
X48680076Y-44202863D01*
X48642911Y-44199088D01*
X48617441Y-44196230D01*
X48801437Y-44124863D01*
X48999318Y-43999284D01*
X49169039Y-43837661D01*
X49304135Y-43646151D01*
X49399460Y-43432048D01*
X49451383Y-43203507D01*
X49455121Y-42935817D01*
X49409599Y-42705916D01*
X49320289Y-42489234D01*
X49190594Y-42294026D01*
X49025452Y-42127728D01*
X48831154Y-41996672D01*
X48615102Y-41905852D01*
X48385523Y-41858726D01*
X48151164Y-41857090D01*
X47920950Y-41901006D01*
X47703650Y-41988801D01*
X47507542Y-42117130D01*
X47340094Y-42281107D01*
X47207685Y-42474485D01*
X47115359Y-42689899D01*
X47066632Y-42919142D01*
X47063360Y-43153485D01*
X47105667Y-43384000D01*
X47191943Y-43601907D01*
X47318900Y-43798907D01*
X47481704Y-43967495D01*
X47674153Y-44101250D01*
X47888439Y-44194870D01*
X46520658Y-44194870D01*
X46629039Y-44091661D01*
X46764135Y-43900151D01*
X46859460Y-43686048D01*
X46911383Y-43457507D01*
X46915121Y-43189817D01*
X46869599Y-42959916D01*
X46780289Y-42743234D01*
X46650594Y-42548026D01*
X46485452Y-42381728D01*
X46291154Y-42250672D01*
X46075102Y-42159852D01*
X45845523Y-42112726D01*
X45611164Y-42111090D01*
X45380950Y-42155006D01*
X45163650Y-42242801D01*
X44967542Y-42371130D01*
X44800094Y-42535107D01*
X44667685Y-42728485D01*
X44575359Y-42943899D01*
X44526632Y-43173142D01*
X44523360Y-43407485D01*
X44565667Y-43638000D01*
X44651943Y-43855907D01*
X44778900Y-44052907D01*
X44941704Y-44221495D01*
X45134153Y-44355250D01*
X45345565Y-44447613D01*
X44476469Y-44447719D01*
X44427361Y-44457443D01*
X44381078Y-44476520D01*
X44362081Y-44489141D01*
X43986470Y-44113530D01*
X43957576Y-44089797D01*
X43928885Y-44065722D01*
X43927016Y-44064694D01*
X43925372Y-44063344D01*
X43892422Y-44045676D01*
X43867663Y-44032064D01*
X43919318Y-43999284D01*
X44089039Y-43837661D01*
X44224135Y-43646151D01*
X44319460Y-43432048D01*
X44371383Y-43203507D01*
X44375121Y-42935817D01*
X44329599Y-42705916D01*
X44240289Y-42489234D01*
X44110594Y-42294026D01*
X43945452Y-42127728D01*
X43751154Y-41996672D01*
X43535102Y-41905852D01*
X43305523Y-41858726D01*
X43071164Y-41857090D01*
X42840950Y-41901006D01*
X42623650Y-41988801D01*
X42427542Y-42117130D01*
X42260094Y-42281107D01*
X42127685Y-42474485D01*
X42035359Y-42689899D01*
X41986632Y-42919142D01*
X41983360Y-43153485D01*
X42025667Y-43384000D01*
X42111943Y-43601907D01*
X42238900Y-43798907D01*
X42401704Y-43967495D01*
X42441091Y-43994870D01*
X41960000Y-43994870D01*
X41922716Y-43998525D01*
X41885475Y-44001784D01*
X41883430Y-44002378D01*
X41881310Y-44002586D01*
X41845477Y-44013404D01*
X41835121Y-44016412D01*
X41835121Y-43189817D01*
X41789599Y-42959916D01*
X41700289Y-42743234D01*
X41570594Y-42548026D01*
X41405452Y-42381728D01*
X41211154Y-42250672D01*
X40995102Y-42159852D01*
X40765523Y-42112726D01*
X40531164Y-42111090D01*
X40300950Y-42155006D01*
X40083650Y-42242801D01*
X39887542Y-42371130D01*
X39720094Y-42535107D01*
X39587685Y-42728485D01*
X39495359Y-42943899D01*
X39446632Y-43173142D01*
X39443360Y-43407485D01*
X39485667Y-43638000D01*
X39571943Y-43855907D01*
X39698900Y-44052907D01*
X39861704Y-44221495D01*
X40054153Y-44355250D01*
X40268916Y-44449078D01*
X40497814Y-44499405D01*
X40732128Y-44504313D01*
X40962933Y-44463616D01*
X41181437Y-44378863D01*
X41379318Y-44253284D01*
X41549039Y-44091661D01*
X41684135Y-43900151D01*
X41779460Y-43686048D01*
X41831383Y-43457507D01*
X41835121Y-43189817D01*
X41835121Y-44016412D01*
X41809548Y-44023843D01*
X41807657Y-44024822D01*
X41805617Y-44025439D01*
X41772556Y-44043017D01*
X41739350Y-44060230D01*
X41737686Y-44061558D01*
X41735804Y-44062559D01*
X41706822Y-44086195D01*
X41677556Y-44109559D01*
X41674584Y-44112489D01*
X41674532Y-44112532D01*
X41674491Y-44112580D01*
X41673529Y-44113530D01*
X41160483Y-44626575D01*
X40985102Y-44552852D01*
X40755523Y-44505726D01*
X40521164Y-44504090D01*
X40290950Y-44548006D01*
X40073650Y-44635801D01*
X39877542Y-44764130D01*
X39710094Y-44928107D01*
X39577685Y-45121485D01*
X39485359Y-45336899D01*
X39436632Y-45566142D01*
X39433360Y-45800485D01*
X39475667Y-46031000D01*
X39561943Y-46248907D01*
X39688900Y-46445907D01*
X39851704Y-46614495D01*
X40044153Y-46748250D01*
X40258916Y-46842078D01*
X40487814Y-46892405D01*
X40722128Y-46897313D01*
X40952933Y-46856616D01*
X41171437Y-46771863D01*
X41369318Y-46646284D01*
X41539039Y-46484661D01*
X41674135Y-46293151D01*
X41769460Y-46079048D01*
X41821383Y-45850507D01*
X41825121Y-45582817D01*
X41779599Y-45352916D01*
X41721349Y-45211591D01*
X42127810Y-44805130D01*
X42477018Y-44805130D01*
X42437031Y-44861064D01*
X43170000Y-45594033D01*
X43184142Y-45579890D01*
X43290109Y-45685857D01*
X43275967Y-45700000D01*
X44008936Y-46432969D01*
X44158831Y-46325809D01*
X44261552Y-46121826D01*
X44322697Y-45901776D01*
X44331667Y-45783266D01*
X44337998Y-45789641D01*
X44379500Y-45817635D01*
X44425650Y-45837034D01*
X44474688Y-45847100D01*
X44524748Y-45847450D01*
X45923531Y-45847281D01*
X45972639Y-45837557D01*
X46018922Y-45818480D01*
X46060619Y-45790777D01*
X46096141Y-45755502D01*
X46124135Y-45714000D01*
X46142549Y-45670191D01*
X46181955Y-45731338D01*
X46254274Y-45806227D01*
X46267075Y-45815124D01*
X46267099Y-45955411D01*
X46276823Y-46004519D01*
X46295900Y-46050802D01*
X46323603Y-46092499D01*
X46358878Y-46128021D01*
X46400380Y-46156015D01*
X46446530Y-46175414D01*
X46495568Y-46185480D01*
X46545628Y-46185830D01*
X47197651Y-46185661D01*
X47246759Y-46175937D01*
X47293042Y-46156860D01*
X47334739Y-46129157D01*
X47348009Y-46115979D01*
X47368837Y-46129817D01*
X47409594Y-46146616D01*
X47452838Y-46155179D01*
X47668873Y-46155170D01*
X47725070Y-46098973D01*
X47725070Y-45504930D01*
X47705070Y-45504930D01*
X47705070Y-45355070D01*
X47725070Y-45355070D01*
X47725070Y-45335070D01*
X47874930Y-45335070D01*
X47874930Y-45355070D01*
X47894930Y-45355070D01*
X47894930Y-45504930D01*
X47874930Y-45504930D01*
X47874930Y-46098973D01*
X47931127Y-46155170D01*
X48036081Y-46155174D01*
X47436386Y-46754870D01*
X46390000Y-46754870D01*
X46352753Y-46758522D01*
X46315476Y-46761784D01*
X46313431Y-46762377D01*
X46311310Y-46762586D01*
X46275465Y-46773407D01*
X46239548Y-46783843D01*
X46237657Y-46784822D01*
X46235617Y-46785439D01*
X46202556Y-46803017D01*
X46169350Y-46820230D01*
X46167685Y-46821558D01*
X46165804Y-46822559D01*
X46136853Y-46846171D01*
X46123291Y-46856996D01*
X46123299Y-46585958D01*
X46114736Y-46542714D01*
X46097937Y-46501957D01*
X46073542Y-46465239D01*
X46042479Y-46433959D01*
X46005932Y-46409307D01*
X45965293Y-46392224D01*
X45922110Y-46383360D01*
X45878028Y-46383053D01*
X45331127Y-46383210D01*
X45274930Y-46439407D01*
X45274930Y-46977570D01*
X45294930Y-46977570D01*
X45294930Y-47127430D01*
X45274930Y-47127430D01*
X45274930Y-47665593D01*
X45331127Y-47721790D01*
X45604350Y-47721868D01*
X45153131Y-48173087D01*
X45125070Y-48173091D01*
X45125070Y-47665593D01*
X45125070Y-47127430D01*
X45125070Y-46977570D01*
X45125070Y-46439407D01*
X45068873Y-46383210D01*
X44521972Y-46383053D01*
X44477890Y-46383360D01*
X44434707Y-46392224D01*
X44394068Y-46409307D01*
X44357521Y-46433959D01*
X44326458Y-46465239D01*
X44302063Y-46501957D01*
X44285264Y-46542714D01*
X44276701Y-46585958D01*
X44276710Y-46921373D01*
X44332907Y-46977570D01*
X45125070Y-46977570D01*
X45125070Y-47127430D01*
X44332907Y-47127430D01*
X44276710Y-47183627D01*
X44276701Y-47519042D01*
X44285264Y-47562286D01*
X44302063Y-47603043D01*
X44326458Y-47639761D01*
X44357521Y-47671041D01*
X44394068Y-47695693D01*
X44434707Y-47712776D01*
X44477890Y-47721640D01*
X44521972Y-47721947D01*
X45068873Y-47721790D01*
X45125070Y-47665593D01*
X45125070Y-48173091D01*
X44373749Y-48173219D01*
X44324641Y-48182943D01*
X44278358Y-48202020D01*
X44236661Y-48229723D01*
X44201139Y-48264998D01*
X44173145Y-48306500D01*
X44153746Y-48352650D01*
X44143680Y-48401688D01*
X44143330Y-48451748D01*
X44143499Y-49596531D01*
X44153223Y-49645639D01*
X44172300Y-49691922D01*
X44200003Y-49733619D01*
X44235278Y-49769141D01*
X44276780Y-49797135D01*
X44322930Y-49816534D01*
X44371968Y-49826600D01*
X44422028Y-49826950D01*
X45424571Y-49826781D01*
X45473679Y-49817057D01*
X45519962Y-49797980D01*
X45561659Y-49770277D01*
X45597181Y-49735002D01*
X45625175Y-49693500D01*
X45644574Y-49647350D01*
X45654640Y-49598312D01*
X45654990Y-49548252D01*
X45654882Y-48817218D01*
X45959741Y-48512359D01*
X45958562Y-48522872D01*
X45958538Y-48526279D01*
X45958532Y-48526343D01*
X45958537Y-48526402D01*
X45958530Y-48527500D01*
X45958530Y-50220000D01*
X45961518Y-50250481D01*
X45964186Y-50280974D01*
X45964673Y-50282650D01*
X45964843Y-50284383D01*
X45973685Y-50313670D01*
X45982235Y-50343097D01*
X45983037Y-50344645D01*
X45983541Y-50346313D01*
X45997904Y-50373327D01*
X46012006Y-50400532D01*
X46013094Y-50401895D01*
X46013912Y-50403433D01*
X46033213Y-50427098D01*
X46052365Y-50451090D01*
X46054764Y-50453522D01*
X46054799Y-50453565D01*
X46054838Y-50453597D01*
X46055615Y-50454385D01*
X46673163Y-51071932D01*
X46673219Y-51280531D01*
X46682943Y-51329639D01*
X46702020Y-51375922D01*
X46729723Y-51417619D01*
X46764998Y-51453141D01*
X46806500Y-51481135D01*
X46852650Y-51500534D01*
X46901688Y-51510600D01*
X46951748Y-51510950D01*
X48096531Y-51510781D01*
X48145639Y-51501057D01*
X48191922Y-51481980D01*
X48233619Y-51454277D01*
X48268599Y-51419539D01*
X48735530Y-51886470D01*
X48764423Y-51910202D01*
X48793115Y-51934278D01*
X48794983Y-51935305D01*
X48796628Y-51936656D01*
X48829577Y-51954323D01*
X48862402Y-51972369D01*
X48864434Y-51973013D01*
X48866311Y-51974020D01*
X48902069Y-51984952D01*
X48937769Y-51996277D01*
X48939888Y-51996514D01*
X48941924Y-51997137D01*
X48979088Y-52000911D01*
X49016344Y-52005091D01*
X49020514Y-52005119D01*
X49020586Y-52005127D01*
X49020652Y-52005120D01*
X49022000Y-52005130D01*
X52402189Y-52005130D01*
X52494870Y-52097810D01*
X52494870Y-55094870D01*
X51340283Y-55094870D01*
X51340283Y-54075346D01*
X51320062Y-53973222D01*
X51280390Y-53876970D01*
X51222778Y-53790257D01*
X51149420Y-53716386D01*
X51102978Y-53685060D01*
X51101160Y-53680648D01*
X51073457Y-53638951D01*
X51038182Y-53603429D01*
X50996680Y-53575435D01*
X50950530Y-53556036D01*
X50901492Y-53545970D01*
X50851432Y-53545620D01*
X48350289Y-53545789D01*
X48301181Y-53555513D01*
X48296299Y-53557525D01*
X48296299Y-52801542D01*
X48296299Y-52122458D01*
X48287736Y-52079214D01*
X48270937Y-52038457D01*
X48246542Y-52001739D01*
X48215479Y-51970459D01*
X48178932Y-51945807D01*
X48138293Y-51928724D01*
X48095110Y-51919860D01*
X48051028Y-51919553D01*
X47631127Y-51919710D01*
X47574930Y-51975907D01*
X47574930Y-52387070D01*
X48240093Y-52387070D01*
X48296290Y-52330873D01*
X48296299Y-52122458D01*
X48296299Y-52801542D01*
X48296290Y-52593127D01*
X48240093Y-52536930D01*
X47574930Y-52536930D01*
X47574930Y-52948093D01*
X47631127Y-53004290D01*
X48051028Y-53004447D01*
X48095110Y-53004140D01*
X48138293Y-52995276D01*
X48178932Y-52978193D01*
X48215479Y-52953541D01*
X48246542Y-52922261D01*
X48270937Y-52885543D01*
X48287736Y-52844786D01*
X48296299Y-52801542D01*
X48296299Y-53557525D01*
X48254898Y-53574590D01*
X48213201Y-53602293D01*
X48177679Y-53637568D01*
X48149685Y-53679070D01*
X48130286Y-53725220D01*
X48120220Y-53774258D01*
X48119870Y-53824318D01*
X48120039Y-54824321D01*
X48129763Y-54873429D01*
X48148840Y-54919712D01*
X48176543Y-54961409D01*
X48211818Y-54996931D01*
X48253320Y-55024925D01*
X48299470Y-55044324D01*
X48348508Y-55054390D01*
X48398568Y-55054740D01*
X50899711Y-55054571D01*
X50948819Y-55044847D01*
X50995102Y-55025770D01*
X51036799Y-54998067D01*
X51072321Y-54962792D01*
X51100315Y-54921290D01*
X51119714Y-54875140D01*
X51129780Y-54826102D01*
X51130130Y-54776042D01*
X51130092Y-54552647D01*
X51137812Y-54547748D01*
X51213203Y-54475953D01*
X51273214Y-54390883D01*
X51315558Y-54295776D01*
X51338623Y-54194256D01*
X51340283Y-54075346D01*
X51340283Y-55094870D01*
X48400000Y-55094870D01*
X48362716Y-55098525D01*
X48325475Y-55101784D01*
X48323430Y-55102378D01*
X48321310Y-55102586D01*
X48285477Y-55113404D01*
X48249548Y-55123843D01*
X48247657Y-55124822D01*
X48245617Y-55125439D01*
X48212556Y-55143017D01*
X48179350Y-55160230D01*
X48177686Y-55161558D01*
X48175804Y-55162559D01*
X48146822Y-55186195D01*
X48117556Y-55209559D01*
X48114584Y-55212489D01*
X48114532Y-55212532D01*
X48114491Y-55212580D01*
X48113529Y-55213530D01*
X47874930Y-55452129D01*
X47874930Y-55240447D01*
X47876600Y-55232312D01*
X47876950Y-55182252D01*
X47876781Y-54545469D01*
X47874930Y-54536121D01*
X47874930Y-54396076D01*
X47883814Y-54383483D01*
X47926158Y-54288376D01*
X47949223Y-54186856D01*
X47950883Y-54067946D01*
X47930662Y-53965822D01*
X47890990Y-53869570D01*
X47833378Y-53782857D01*
X47760020Y-53708986D01*
X47673712Y-53650770D01*
X47577739Y-53610427D01*
X47475759Y-53589493D01*
X47425070Y-53589139D01*
X47425070Y-52948093D01*
X47425070Y-52536930D01*
X47425070Y-52387070D01*
X47425070Y-51975907D01*
X47368873Y-51919710D01*
X46948972Y-51919553D01*
X46904890Y-51919860D01*
X46861707Y-51928724D01*
X46821068Y-51945807D01*
X46784521Y-51970459D01*
X46753458Y-52001739D01*
X46729063Y-52038457D01*
X46712264Y-52079214D01*
X46703701Y-52122458D01*
X46703710Y-52330873D01*
X46759907Y-52387070D01*
X47425070Y-52387070D01*
X47425070Y-52536930D01*
X46759907Y-52536930D01*
X46703710Y-52593127D01*
X46703701Y-52801542D01*
X46712264Y-52844786D01*
X46729063Y-52885543D01*
X46753458Y-52922261D01*
X46784521Y-52953541D01*
X46821068Y-52978193D01*
X46861707Y-52995276D01*
X46904890Y-53004140D01*
X46948972Y-53004447D01*
X47368873Y-53004290D01*
X47425070Y-52948093D01*
X47425070Y-53589139D01*
X47371654Y-53588766D01*
X47269391Y-53608274D01*
X47172864Y-53647273D01*
X47085751Y-53704279D01*
X47011370Y-53777118D01*
X46952553Y-53863019D01*
X46911540Y-53958707D01*
X46889895Y-54060539D01*
X46888442Y-54164636D01*
X46907235Y-54267033D01*
X46926285Y-54315149D01*
X46453469Y-54315219D01*
X46404361Y-54324943D01*
X46404052Y-54325070D01*
X46360883Y-54325070D01*
X46360883Y-51957946D01*
X46340662Y-51855822D01*
X46300990Y-51759570D01*
X46243378Y-51672857D01*
X46170020Y-51598986D01*
X46151926Y-51586781D01*
X46143809Y-51576828D01*
X46120442Y-51547557D01*
X46117514Y-51544588D01*
X46117468Y-51544532D01*
X46117415Y-51544488D01*
X46116470Y-51543530D01*
X44906470Y-50333530D01*
X44877576Y-50309797D01*
X44848885Y-50285722D01*
X44847016Y-50284694D01*
X44845372Y-50283344D01*
X44812422Y-50265676D01*
X44779598Y-50247631D01*
X44777565Y-50246986D01*
X44775689Y-50245980D01*
X44739930Y-50235047D01*
X44704231Y-50223723D01*
X44702111Y-50223485D01*
X44700076Y-50222863D01*
X44662911Y-50219088D01*
X44625656Y-50214909D01*
X44621485Y-50214880D01*
X44621414Y-50214873D01*
X44621347Y-50214879D01*
X44620000Y-50214870D01*
X43902969Y-50214870D01*
X43902969Y-46538936D01*
X43170000Y-45805967D01*
X43064033Y-45911934D01*
X43064033Y-45700000D01*
X42331064Y-44967031D01*
X42181169Y-45074191D01*
X42078448Y-45278174D01*
X42017303Y-45498224D01*
X42000064Y-45725960D01*
X42027388Y-45952707D01*
X42098233Y-46169829D01*
X42181169Y-46325809D01*
X42331064Y-46432969D01*
X43064033Y-45700000D01*
X43064033Y-45911934D01*
X42437031Y-46538936D01*
X42544191Y-46688831D01*
X42748174Y-46791552D01*
X42968224Y-46852697D01*
X43195960Y-46869936D01*
X43422707Y-46842612D01*
X43639829Y-46771767D01*
X43795809Y-46688831D01*
X43902969Y-46538936D01*
X43902969Y-50214870D01*
X43705305Y-50214870D01*
X43705281Y-50024969D01*
X43695557Y-49975861D01*
X43676480Y-49929578D01*
X43648777Y-49887881D01*
X43613502Y-49852359D01*
X43605130Y-49846711D01*
X43605130Y-49826784D01*
X43626251Y-49826781D01*
X43675359Y-49817057D01*
X43721642Y-49797980D01*
X43763339Y-49770277D01*
X43798861Y-49735002D01*
X43826855Y-49693500D01*
X43846254Y-49647350D01*
X43856320Y-49598312D01*
X43856670Y-49548252D01*
X43856501Y-48403469D01*
X43846777Y-48354361D01*
X43827700Y-48308078D01*
X43799997Y-48266381D01*
X43764722Y-48230859D01*
X43723220Y-48202865D01*
X43677070Y-48183466D01*
X43628032Y-48173400D01*
X43577972Y-48173050D01*
X42575429Y-48173219D01*
X42526321Y-48182943D01*
X42480038Y-48202020D01*
X42438341Y-48229723D01*
X42402819Y-48264998D01*
X42374825Y-48306500D01*
X42355426Y-48352650D01*
X42345360Y-48401688D01*
X42345010Y-48451748D01*
X42345179Y-49596531D01*
X42354903Y-49645639D01*
X42373980Y-49691922D01*
X42401683Y-49733619D01*
X42436958Y-49769141D01*
X42474810Y-49794673D01*
X42124969Y-49794719D01*
X42075861Y-49804443D01*
X42029578Y-49823520D01*
X41987881Y-49851223D01*
X41952359Y-49886498D01*
X41924365Y-49928000D01*
X41904966Y-49974150D01*
X41894900Y-50023188D01*
X41894550Y-50073248D01*
X41894557Y-50134467D01*
X41862864Y-50147273D01*
X41775751Y-50204279D01*
X41701370Y-50277118D01*
X41642553Y-50363019D01*
X41601540Y-50458707D01*
X41579895Y-50560539D01*
X41578442Y-50664636D01*
X41597235Y-50767033D01*
X41635560Y-50863829D01*
X41691955Y-50951338D01*
X41764274Y-51026227D01*
X41849762Y-51085642D01*
X41894683Y-51105268D01*
X41894697Y-51205962D01*
X41857739Y-51190427D01*
X41755759Y-51169493D01*
X41651654Y-51168766D01*
X41574947Y-51183398D01*
X41574947Y-50070472D01*
X41574640Y-50026390D01*
X41565776Y-49983207D01*
X41548693Y-49942568D01*
X41524041Y-49906021D01*
X41492761Y-49874958D01*
X41456043Y-49850563D01*
X41415286Y-49833764D01*
X41372042Y-49825201D01*
X40831127Y-49825210D01*
X40774930Y-49881407D01*
X40774930Y-50625070D01*
X41518593Y-50625070D01*
X41574790Y-50568873D01*
X41574947Y-50070472D01*
X41574947Y-51183398D01*
X41574900Y-51183407D01*
X41574790Y-50831127D01*
X41518593Y-50774930D01*
X40774930Y-50774930D01*
X40774930Y-51518593D01*
X40831127Y-51574790D01*
X41183869Y-51574795D01*
X41169895Y-51640539D01*
X41168442Y-51744636D01*
X41171256Y-51759973D01*
X41036642Y-51894587D01*
X40625070Y-51894640D01*
X40625070Y-51518593D01*
X40625070Y-50774930D01*
X40625070Y-50625070D01*
X40625070Y-49881407D01*
X40568873Y-49825210D01*
X40027958Y-49825201D01*
X39984714Y-49833764D01*
X39943957Y-49850563D01*
X39907239Y-49874958D01*
X39875959Y-49906021D01*
X39851307Y-49942568D01*
X39834224Y-49983207D01*
X39825360Y-50026390D01*
X39825053Y-50070472D01*
X39825210Y-50568873D01*
X39881407Y-50625070D01*
X40625070Y-50625070D01*
X40625070Y-50774930D01*
X39881407Y-50774930D01*
X39825210Y-50831127D01*
X39825053Y-51329528D01*
X39825360Y-51373610D01*
X39834224Y-51416793D01*
X39851307Y-51457432D01*
X39875959Y-51493979D01*
X39907239Y-51525042D01*
X39943957Y-51549437D01*
X39984714Y-51566236D01*
X40027958Y-51574799D01*
X40568873Y-51574790D01*
X40625070Y-51518593D01*
X40625070Y-51894640D01*
X40024969Y-51894719D01*
X39975861Y-51904443D01*
X39929578Y-51923520D01*
X39887881Y-51951223D01*
X39852359Y-51986498D01*
X39824365Y-52028000D01*
X39804966Y-52074150D01*
X39794900Y-52123188D01*
X39794550Y-52173248D01*
X39794719Y-53475031D01*
X39804443Y-53524139D01*
X39823520Y-53570422D01*
X39851223Y-53612119D01*
X39886498Y-53647641D01*
X39928000Y-53675635D01*
X39974150Y-53695034D01*
X40023188Y-53705100D01*
X40073248Y-53705450D01*
X41375031Y-53705281D01*
X41424139Y-53695557D01*
X41470422Y-53676480D01*
X41512119Y-53648777D01*
X41547641Y-53613502D01*
X41575635Y-53572000D01*
X41595034Y-53525850D01*
X41605100Y-53476812D01*
X41605450Y-53426752D01*
X41605298Y-52263470D01*
X41639046Y-52229723D01*
X41740924Y-52231857D01*
X41843450Y-52213779D01*
X41894552Y-52193957D01*
X41894719Y-53475031D01*
X41904443Y-53524139D01*
X41923520Y-53570422D01*
X41951223Y-53612119D01*
X41986498Y-53647641D01*
X42028000Y-53675635D01*
X42074150Y-53695034D01*
X42123188Y-53705100D01*
X42173248Y-53705450D01*
X43475031Y-53705281D01*
X43524139Y-53695557D01*
X43570422Y-53676480D01*
X43612119Y-53648777D01*
X43647641Y-53613502D01*
X43675635Y-53572000D01*
X43695034Y-53525850D01*
X43705100Y-53476812D01*
X43705450Y-53426752D01*
X43705309Y-52343460D01*
X44269045Y-51779723D01*
X44370924Y-51781857D01*
X44473450Y-51763779D01*
X44570511Y-51726131D01*
X44658412Y-51670348D01*
X44733803Y-51598553D01*
X44793814Y-51513483D01*
X44836158Y-51418376D01*
X44837875Y-51410815D01*
X45313516Y-51886456D01*
X45299895Y-51950539D01*
X45298442Y-52054636D01*
X45317235Y-52157033D01*
X45355560Y-52253829D01*
X45411955Y-52341338D01*
X45484274Y-52416227D01*
X45569762Y-52475642D01*
X45665161Y-52517321D01*
X45766840Y-52539677D01*
X45870924Y-52541857D01*
X45973450Y-52523779D01*
X46070511Y-52486131D01*
X46158412Y-52430348D01*
X46233803Y-52358553D01*
X46293814Y-52273483D01*
X46336158Y-52178376D01*
X46359223Y-52076856D01*
X46360883Y-51957946D01*
X46360883Y-54325070D01*
X46225070Y-54325070D01*
X46225070Y-54406117D01*
X46215479Y-54396459D01*
X46178932Y-54371807D01*
X46138293Y-54354724D01*
X46095110Y-54345860D01*
X46051028Y-54345553D01*
X45631127Y-54345710D01*
X45574930Y-54401907D01*
X45574930Y-54813070D01*
X45594930Y-54813070D01*
X45594930Y-54962930D01*
X45574930Y-54962930D01*
X45574930Y-55374093D01*
X45631127Y-55430290D01*
X46051028Y-55430447D01*
X46095110Y-55430140D01*
X46138293Y-55421276D01*
X46178932Y-55404193D01*
X46215479Y-55379541D01*
X46225070Y-55369882D01*
X46225070Y-55890159D01*
X46193500Y-55868865D01*
X46147350Y-55849466D01*
X46098312Y-55839400D01*
X46048252Y-55839050D01*
X45425070Y-55839141D01*
X45425070Y-55374093D01*
X45425070Y-54962930D01*
X45425070Y-54813070D01*
X45425070Y-54401907D01*
X45368873Y-54345710D01*
X44948972Y-54345553D01*
X44904890Y-54345860D01*
X44861707Y-54354724D01*
X44821068Y-54371807D01*
X44784521Y-54396459D01*
X44753458Y-54427739D01*
X44729063Y-54464457D01*
X44712264Y-54505214D01*
X44703701Y-54548458D01*
X44703710Y-54756873D01*
X44759907Y-54813070D01*
X45425070Y-54813070D01*
X45425070Y-54962930D01*
X44759907Y-54962930D01*
X44703710Y-55019127D01*
X44703701Y-55227542D01*
X44712264Y-55270786D01*
X44729063Y-55311543D01*
X44753458Y-55348261D01*
X44784521Y-55379541D01*
X44821068Y-55404193D01*
X44861707Y-55421276D01*
X44904890Y-55430140D01*
X44948972Y-55430447D01*
X45368873Y-55430290D01*
X45425070Y-55374093D01*
X45425070Y-55839141D01*
X44903469Y-55839219D01*
X44854361Y-55848943D01*
X44808078Y-55868020D01*
X44766381Y-55895723D01*
X44730859Y-55930998D01*
X44702865Y-55972500D01*
X44683466Y-56018650D01*
X44673400Y-56067688D01*
X44673050Y-56117748D01*
X44673219Y-56754531D01*
X44682943Y-56803639D01*
X44702020Y-56849922D01*
X44729723Y-56891619D01*
X44764998Y-56927141D01*
X44806500Y-56955135D01*
X44852650Y-56974534D01*
X44901688Y-56984600D01*
X44951748Y-56984950D01*
X45168530Y-56984917D01*
X45168530Y-57480829D01*
X45163650Y-57482801D01*
X44967542Y-57611130D01*
X44800094Y-57775107D01*
X44667685Y-57968485D01*
X44575359Y-58183899D01*
X44526632Y-58413142D01*
X44523360Y-58647485D01*
X44565667Y-58878000D01*
X44651943Y-59095907D01*
X44778900Y-59292907D01*
X44941704Y-59461495D01*
X45134153Y-59595250D01*
X45348916Y-59689078D01*
X45577814Y-59739405D01*
X45812128Y-59744313D01*
X46042933Y-59703616D01*
X46261437Y-59618863D01*
X46459318Y-59493284D01*
X46629039Y-59331661D01*
X46764135Y-59140151D01*
X46859460Y-58926048D01*
X46911383Y-58697507D01*
X46915121Y-58429817D01*
X46869599Y-58199916D01*
X46780289Y-57983234D01*
X46650594Y-57788026D01*
X46485452Y-57621728D01*
X46291154Y-57490672D01*
X46075102Y-57399852D01*
X45845523Y-57352726D01*
X45831470Y-57352627D01*
X45831470Y-56984820D01*
X46096531Y-56984781D01*
X46145639Y-56975057D01*
X46191922Y-56955980D01*
X46225070Y-56933956D01*
X46225070Y-56974930D01*
X46404579Y-56974930D01*
X46451688Y-56984600D01*
X46501748Y-56984950D01*
X47646531Y-56984781D01*
X47695639Y-56975057D01*
X47695947Y-56974930D01*
X47874930Y-56974930D01*
X47874930Y-56806926D01*
X47902534Y-56798592D01*
X47938452Y-56788157D01*
X47940342Y-56787177D01*
X47942383Y-56786561D01*
X47975443Y-56768982D01*
X48008650Y-56751770D01*
X48010313Y-56750441D01*
X48012196Y-56749441D01*
X48041171Y-56725809D01*
X48070443Y-56702442D01*
X48073411Y-56699514D01*
X48073468Y-56699468D01*
X48073511Y-56699415D01*
X48074470Y-56698470D01*
X48119976Y-56652963D01*
X48120039Y-57023961D01*
X48129763Y-57073069D01*
X48140502Y-57099123D01*
X47920950Y-57141006D01*
X47703650Y-57228801D01*
X47507542Y-57357130D01*
X47340094Y-57521107D01*
X47207685Y-57714485D01*
X47115359Y-57929899D01*
X47066632Y-58159142D01*
X47063360Y-58393485D01*
X47105667Y-58624000D01*
X47191943Y-58841907D01*
X47318900Y-59038907D01*
X47481704Y-59207495D01*
X47674153Y-59341250D01*
X47888916Y-59435078D01*
X48117814Y-59485405D01*
X48352128Y-59490313D01*
X48582933Y-59449616D01*
X48801437Y-59364863D01*
X48999318Y-59239284D01*
X49169039Y-59077661D01*
X49304135Y-58886151D01*
X49399460Y-58672048D01*
X49451383Y-58443507D01*
X49455121Y-58175817D01*
X49409599Y-57945916D01*
X49320289Y-57729234D01*
X49190594Y-57534026D01*
X49025452Y-57367728D01*
X48857361Y-57254348D01*
X50899711Y-57254211D01*
X50948819Y-57244487D01*
X50995102Y-57225410D01*
X51036799Y-57197707D01*
X51072321Y-57162432D01*
X51100315Y-57120930D01*
X51119714Y-57074780D01*
X51129780Y-57025742D01*
X51130130Y-56975682D01*
X51129961Y-55975679D01*
X51120237Y-55926571D01*
X51111399Y-55905130D01*
X51352362Y-55905130D01*
X51316540Y-55988707D01*
X51294895Y-56090539D01*
X51293442Y-56194636D01*
X51312235Y-56297033D01*
X51350560Y-56393829D01*
X51406955Y-56481338D01*
X51479274Y-56556227D01*
X51564762Y-56615642D01*
X51660161Y-56657321D01*
X51761840Y-56679677D01*
X51865924Y-56681857D01*
X51884765Y-56678534D01*
X52123255Y-56917024D01*
X52146924Y-56936466D01*
X52170370Y-56956140D01*
X52171896Y-56956979D01*
X52173244Y-56958086D01*
X52200217Y-56972548D01*
X52227060Y-56987306D01*
X52228723Y-56987833D01*
X52230257Y-56988656D01*
X52259477Y-56997589D01*
X52288724Y-57006867D01*
X52290460Y-57007061D01*
X52292123Y-57007570D01*
X52322482Y-57010653D01*
X52353012Y-57014078D01*
X52356430Y-57014101D01*
X52356483Y-57014107D01*
X52356532Y-57014102D01*
X52357640Y-57014110D01*
X60267616Y-57014110D01*
X60298097Y-57011121D01*
X60328590Y-57008454D01*
X60330266Y-57007966D01*
X60331999Y-57007797D01*
X60361286Y-56998954D01*
X60390713Y-56990405D01*
X60392261Y-56989602D01*
X60393929Y-56989099D01*
X60420943Y-56974735D01*
X60448148Y-56960634D01*
X60449511Y-56959545D01*
X60451049Y-56958728D01*
X60474714Y-56939426D01*
X60498706Y-56920275D01*
X60501138Y-56917875D01*
X60501181Y-56917841D01*
X60501213Y-56917801D01*
X60502001Y-56917025D01*
X60750355Y-56668670D01*
X61029042Y-56668670D01*
X61039362Y-56675842D01*
X61134761Y-56717521D01*
X61236440Y-56739877D01*
X61340524Y-56742057D01*
X61443050Y-56723979D01*
X61540111Y-56686331D01*
X61628012Y-56630548D01*
X61703403Y-56558753D01*
X61763414Y-56473683D01*
X61805758Y-56378576D01*
X61828823Y-56277056D01*
X61830483Y-56158146D01*
X61810262Y-56056022D01*
X61770590Y-55959770D01*
X61712978Y-55873057D01*
X61639620Y-55799186D01*
X61553312Y-55740970D01*
X61457339Y-55700627D01*
X61355359Y-55679693D01*
X61251254Y-55678966D01*
X61203255Y-55688122D01*
X61200662Y-55675022D01*
X61160990Y-55578770D01*
X61103378Y-55492057D01*
X61030020Y-55418186D01*
X60943712Y-55359970D01*
X60847739Y-55319627D01*
X60745759Y-55298693D01*
X60641654Y-55297966D01*
X60539391Y-55317474D01*
X60442864Y-55356473D01*
X60355751Y-55413479D01*
X60281370Y-55486318D01*
X60222553Y-55572219D01*
X60181540Y-55667907D01*
X60159895Y-55769739D01*
X60158442Y-55873836D01*
X60161256Y-55889173D01*
X60004062Y-56046368D01*
X55951572Y-56046368D01*
X56216117Y-55781822D01*
X56318450Y-55763779D01*
X56415511Y-55726131D01*
X56503412Y-55670348D01*
X56578803Y-55598553D01*
X56638814Y-55513483D01*
X56681158Y-55418376D01*
X56704223Y-55316856D01*
X56704550Y-55293389D01*
X57084410Y-54913530D01*
X65556098Y-54913530D01*
X65483650Y-54942801D01*
X65287542Y-55071130D01*
X65120094Y-55235107D01*
X64987685Y-55428485D01*
X64895359Y-55643899D01*
X64846632Y-55873142D01*
X64843360Y-56107485D01*
X64885667Y-56338000D01*
X64971943Y-56555907D01*
X65098900Y-56752907D01*
X65261704Y-56921495D01*
X65454153Y-57055250D01*
X65668916Y-57149078D01*
X65897814Y-57199405D01*
X66132128Y-57204313D01*
X66362933Y-57163616D01*
X66581437Y-57078863D01*
X66779318Y-56953284D01*
X66949039Y-56791661D01*
X67084135Y-56600151D01*
X67179460Y-56386048D01*
X67231383Y-56157507D01*
X67235121Y-55889817D01*
X67189599Y-55659916D01*
X67100289Y-55443234D01*
X66970594Y-55248026D01*
X66805452Y-55081728D01*
X66611154Y-54950672D01*
X66522796Y-54913530D01*
X67191600Y-54913530D01*
X67729101Y-54913530D01*
X67660094Y-54981107D01*
X67527685Y-55174485D01*
X67435359Y-55389899D01*
X67386632Y-55619142D01*
X67383360Y-55853485D01*
X67425667Y-56084000D01*
X67511943Y-56301907D01*
X67638900Y-56498907D01*
X67801704Y-56667495D01*
X67994153Y-56801250D01*
X68208916Y-56895078D01*
X68437814Y-56945405D01*
X68672128Y-56950313D01*
X68902933Y-56909616D01*
X69121437Y-56824863D01*
X69319318Y-56699284D01*
X69489039Y-56537661D01*
X69624135Y-56346151D01*
X69719460Y-56132048D01*
X69771383Y-55903507D01*
X69775121Y-55635817D01*
X69729599Y-55405916D01*
X69640289Y-55189234D01*
X69510594Y-54994026D01*
X69430657Y-54913530D01*
X70716685Y-54913530D01*
X70650171Y-54935233D01*
X70494191Y-55018169D01*
X70387031Y-55168064D01*
X71120000Y-55901033D01*
X71134142Y-55886890D01*
X71240109Y-55992857D01*
X71225967Y-56007000D01*
X71958936Y-56739969D01*
X71984870Y-56721428D01*
X71984870Y-57023000D01*
X71988522Y-57060246D01*
X71991784Y-57097524D01*
X71992377Y-57099568D01*
X71992586Y-57101690D01*
X72003407Y-57137534D01*
X72013843Y-57173452D01*
X72014822Y-57175342D01*
X72015439Y-57177383D01*
X72033017Y-57210443D01*
X72050230Y-57243650D01*
X72051558Y-57245313D01*
X72052559Y-57247196D01*
X72076190Y-57276171D01*
X72099558Y-57305443D01*
X72102485Y-57308411D01*
X72102532Y-57308468D01*
X72102584Y-57308511D01*
X72103530Y-57309470D01*
X72577941Y-57783881D01*
X72515359Y-57929899D01*
X72466632Y-58159142D01*
X72463360Y-58393485D01*
X72505667Y-58624000D01*
X72591943Y-58841907D01*
X72718900Y-59038907D01*
X72881704Y-59207495D01*
X73074153Y-59341250D01*
X73288916Y-59435078D01*
X73517814Y-59485405D01*
X73752128Y-59490313D01*
X73982933Y-59449616D01*
X74201437Y-59364863D01*
X74399318Y-59239284D01*
X74569039Y-59077661D01*
X74704135Y-58886151D01*
X74799460Y-58672048D01*
X74851383Y-58443507D01*
X74855121Y-58175817D01*
X74809599Y-57945916D01*
X74720289Y-57729234D01*
X74590594Y-57534026D01*
X74425452Y-57367728D01*
X74231154Y-57236672D01*
X74015102Y-57145852D01*
X73785523Y-57098726D01*
X73551164Y-57097090D01*
X73320950Y-57141006D01*
X73150010Y-57210070D01*
X72795130Y-56855190D01*
X72795130Y-56577845D01*
X72881704Y-56667495D01*
X73074153Y-56801250D01*
X73288916Y-56895078D01*
X73517814Y-56945405D01*
X73752128Y-56950313D01*
X73982933Y-56909616D01*
X74201437Y-56824863D01*
X74399318Y-56699284D01*
X74569039Y-56537661D01*
X74704135Y-56346151D01*
X74799460Y-56132048D01*
X74851383Y-55903507D01*
X74855121Y-55635817D01*
X74809599Y-55405916D01*
X74720289Y-55189234D01*
X74590594Y-54994026D01*
X74425452Y-54827728D01*
X74301430Y-54744073D01*
X74301430Y-52453784D01*
X74322031Y-52453781D01*
X74371139Y-52444057D01*
X74417422Y-52424980D01*
X74459119Y-52397277D01*
X74494641Y-52362002D01*
X74522635Y-52320500D01*
X74542034Y-52274350D01*
X74552100Y-52225312D01*
X74552450Y-52175252D01*
X74552281Y-50776469D01*
X74542557Y-50727361D01*
X74523480Y-50681078D01*
X74495777Y-50639381D01*
X74460502Y-50603859D01*
X74453519Y-50599149D01*
X74739211Y-50599101D01*
X74788319Y-50589377D01*
X74834602Y-50570300D01*
X74876299Y-50542597D01*
X74911821Y-50507322D01*
X74939815Y-50465820D01*
X74959214Y-50419670D01*
X74969280Y-50370632D01*
X74969630Y-50320572D01*
X74969622Y-50293517D01*
X75133200Y-50129940D01*
X75133200Y-59396073D01*
X75133200Y-59396073D01*
G37*
X75133200Y-59396073D02*
X74636072Y-59893200D01*
X72289936Y-59893200D01*
X72289936Y-58521040D01*
X72262612Y-58294293D01*
X72191767Y-58077171D01*
X72108831Y-57921191D01*
X71958936Y-57814031D01*
X71852969Y-57919998D01*
X71852969Y-57708064D01*
X71852969Y-56845936D01*
X71120000Y-56112967D01*
X71014033Y-56218934D01*
X71014033Y-56007000D01*
X70281064Y-55274031D01*
X70131169Y-55381191D01*
X70028448Y-55585174D01*
X69967303Y-55805224D01*
X69950064Y-56032960D01*
X69977388Y-56259707D01*
X70048233Y-56476829D01*
X70131169Y-56632809D01*
X70281064Y-56739969D01*
X71014033Y-56007000D01*
X71014033Y-56218934D01*
X70387031Y-56845936D01*
X70494191Y-56995831D01*
X70698174Y-57098552D01*
X70918224Y-57159697D01*
X71145960Y-57176936D01*
X71372707Y-57149612D01*
X71589829Y-57078767D01*
X71745809Y-56995831D01*
X71852969Y-56845936D01*
X71852969Y-57708064D01*
X71745809Y-57558169D01*
X71541826Y-57455448D01*
X71321776Y-57394303D01*
X71094040Y-57377064D01*
X70867293Y-57404388D01*
X70650171Y-57475233D01*
X70494191Y-57558169D01*
X70387031Y-57708064D01*
X71120000Y-58441033D01*
X71852969Y-57708064D01*
X71852969Y-57919998D01*
X71225967Y-58547000D01*
X71958936Y-59279969D01*
X72108831Y-59172809D01*
X72211552Y-58968826D01*
X72272697Y-58748776D01*
X72289936Y-58521040D01*
X72289936Y-59893200D01*
X71852969Y-59893200D01*
X71852969Y-59385936D01*
X71120000Y-58652967D01*
X71014033Y-58758934D01*
X71014033Y-58547000D01*
X70281064Y-57814031D01*
X70131169Y-57921191D01*
X70028448Y-58125174D01*
X69967303Y-58345224D01*
X69950064Y-58572960D01*
X69977388Y-58799707D01*
X70048233Y-59016829D01*
X70131169Y-59172809D01*
X70281064Y-59279969D01*
X71014033Y-58547000D01*
X71014033Y-58758934D01*
X70387031Y-59385936D01*
X70494191Y-59535831D01*
X70698174Y-59638552D01*
X70918224Y-59699697D01*
X71145960Y-59716936D01*
X71372707Y-59689612D01*
X71589829Y-59618767D01*
X71745809Y-59535831D01*
X71852969Y-59385936D01*
X71852969Y-59893200D01*
X69775121Y-59893200D01*
X69775121Y-58175817D01*
X69729599Y-57945916D01*
X69640289Y-57729234D01*
X69510594Y-57534026D01*
X69345452Y-57367728D01*
X69151154Y-57236672D01*
X68935102Y-57145852D01*
X68705523Y-57098726D01*
X68471164Y-57097090D01*
X68240950Y-57141006D01*
X68023650Y-57228801D01*
X67827542Y-57357130D01*
X67660094Y-57521107D01*
X67527685Y-57714485D01*
X67435359Y-57929899D01*
X67386632Y-58159142D01*
X67383360Y-58393485D01*
X67425667Y-58624000D01*
X67511943Y-58841907D01*
X67638900Y-59038907D01*
X67801704Y-59207495D01*
X67994153Y-59341250D01*
X68208916Y-59435078D01*
X68437814Y-59485405D01*
X68672128Y-59490313D01*
X68902933Y-59449616D01*
X69121437Y-59364863D01*
X69319318Y-59239284D01*
X69489039Y-59077661D01*
X69624135Y-58886151D01*
X69719460Y-58672048D01*
X69771383Y-58443507D01*
X69775121Y-58175817D01*
X69775121Y-59893200D01*
X67235121Y-59893200D01*
X67235121Y-58429817D01*
X67189599Y-58199916D01*
X67100289Y-57983234D01*
X66970594Y-57788026D01*
X66805452Y-57621728D01*
X66611154Y-57490672D01*
X66395102Y-57399852D01*
X66165523Y-57352726D01*
X65931164Y-57351090D01*
X65700950Y-57395006D01*
X65483650Y-57482801D01*
X65287542Y-57611130D01*
X65120094Y-57775107D01*
X64987685Y-57968485D01*
X64895359Y-58183899D01*
X64846632Y-58413142D01*
X64843360Y-58647485D01*
X64885667Y-58878000D01*
X64971943Y-59095907D01*
X65098900Y-59292907D01*
X65261704Y-59461495D01*
X65454153Y-59595250D01*
X65668916Y-59689078D01*
X65897814Y-59739405D01*
X66132128Y-59744313D01*
X66362933Y-59703616D01*
X66581437Y-59618863D01*
X66779318Y-59493284D01*
X66949039Y-59331661D01*
X67084135Y-59140151D01*
X67179460Y-58926048D01*
X67231383Y-58697507D01*
X67235121Y-58429817D01*
X67235121Y-59893200D01*
X64695121Y-59893200D01*
X64695121Y-58175817D01*
X64649599Y-57945916D01*
X64560289Y-57729234D01*
X64430594Y-57534026D01*
X64265452Y-57367728D01*
X64071154Y-57236672D01*
X63855102Y-57145852D01*
X63625523Y-57098726D01*
X63391164Y-57097090D01*
X63160950Y-57141006D01*
X62943650Y-57228801D01*
X62747542Y-57357130D01*
X62580094Y-57521107D01*
X62447685Y-57714485D01*
X62355359Y-57929899D01*
X62306632Y-58159142D01*
X62303360Y-58393485D01*
X62345667Y-58624000D01*
X62431943Y-58841907D01*
X62558900Y-59038907D01*
X62721704Y-59207495D01*
X62914153Y-59341250D01*
X63128916Y-59435078D01*
X63357814Y-59485405D01*
X63592128Y-59490313D01*
X63822933Y-59449616D01*
X64041437Y-59364863D01*
X64239318Y-59239284D01*
X64409039Y-59077661D01*
X64544135Y-58886151D01*
X64639460Y-58672048D01*
X64691383Y-58443507D01*
X64695121Y-58175817D01*
X64695121Y-59893200D01*
X62155121Y-59893200D01*
X62155121Y-58429817D01*
X62109599Y-58199916D01*
X62020289Y-57983234D01*
X61890594Y-57788026D01*
X61725452Y-57621728D01*
X61531154Y-57490672D01*
X61315102Y-57399852D01*
X61085523Y-57352726D01*
X60851164Y-57351090D01*
X60620950Y-57395006D01*
X60403650Y-57482801D01*
X60207542Y-57611130D01*
X60040094Y-57775107D01*
X59907685Y-57968485D01*
X59815359Y-58183899D01*
X59766632Y-58413142D01*
X59763360Y-58647485D01*
X59805667Y-58878000D01*
X59891943Y-59095907D01*
X60018900Y-59292907D01*
X60181704Y-59461495D01*
X60374153Y-59595250D01*
X60588916Y-59689078D01*
X60817814Y-59739405D01*
X61052128Y-59744313D01*
X61282933Y-59703616D01*
X61501437Y-59618863D01*
X61699318Y-59493284D01*
X61869039Y-59331661D01*
X62004135Y-59140151D01*
X62099460Y-58926048D01*
X62151383Y-58697507D01*
X62155121Y-58429817D01*
X62155121Y-59893200D01*
X59615121Y-59893200D01*
X59615121Y-58175817D01*
X59569599Y-57945916D01*
X59480289Y-57729234D01*
X59350594Y-57534026D01*
X59185452Y-57367728D01*
X58991154Y-57236672D01*
X58775102Y-57145852D01*
X58545523Y-57098726D01*
X58311164Y-57097090D01*
X58080950Y-57141006D01*
X57863650Y-57228801D01*
X57667542Y-57357130D01*
X57500094Y-57521107D01*
X57367685Y-57714485D01*
X57275359Y-57929899D01*
X57226632Y-58159142D01*
X57223360Y-58393485D01*
X57265667Y-58624000D01*
X57351943Y-58841907D01*
X57478900Y-59038907D01*
X57641704Y-59207495D01*
X57834153Y-59341250D01*
X58048916Y-59435078D01*
X58277814Y-59485405D01*
X58512128Y-59490313D01*
X58742933Y-59449616D01*
X58961437Y-59364863D01*
X59159318Y-59239284D01*
X59329039Y-59077661D01*
X59464135Y-58886151D01*
X59559460Y-58672048D01*
X59611383Y-58443507D01*
X59615121Y-58175817D01*
X59615121Y-59893200D01*
X57075121Y-59893200D01*
X57075121Y-58429817D01*
X57029599Y-58199916D01*
X56940289Y-57983234D01*
X56810594Y-57788026D01*
X56645452Y-57621728D01*
X56451154Y-57490672D01*
X56235102Y-57399852D01*
X56005523Y-57352726D01*
X55771164Y-57351090D01*
X55540950Y-57395006D01*
X55323650Y-57482801D01*
X55127542Y-57611130D01*
X54960094Y-57775107D01*
X54827685Y-57968485D01*
X54735359Y-58183899D01*
X54686632Y-58413142D01*
X54683360Y-58647485D01*
X54725667Y-58878000D01*
X54811943Y-59095907D01*
X54938900Y-59292907D01*
X55101704Y-59461495D01*
X55294153Y-59595250D01*
X55508916Y-59689078D01*
X55737814Y-59739405D01*
X55972128Y-59744313D01*
X56202933Y-59703616D01*
X56421437Y-59618863D01*
X56619318Y-59493284D01*
X56789039Y-59331661D01*
X56924135Y-59140151D01*
X57019460Y-58926048D01*
X57071383Y-58697507D01*
X57075121Y-58429817D01*
X57075121Y-59893200D01*
X54535121Y-59893200D01*
X54535121Y-58175817D01*
X54489599Y-57945916D01*
X54400289Y-57729234D01*
X54270594Y-57534026D01*
X54105452Y-57367728D01*
X53911154Y-57236672D01*
X53695102Y-57145852D01*
X53465523Y-57098726D01*
X53231164Y-57097090D01*
X53000950Y-57141006D01*
X52783650Y-57228801D01*
X52587542Y-57357130D01*
X52420094Y-57521107D01*
X52287685Y-57714485D01*
X52195359Y-57929899D01*
X52146632Y-58159142D01*
X52143360Y-58393485D01*
X52185667Y-58624000D01*
X52271943Y-58841907D01*
X52398900Y-59038907D01*
X52561704Y-59207495D01*
X52754153Y-59341250D01*
X52968916Y-59435078D01*
X53197814Y-59485405D01*
X53432128Y-59490313D01*
X53662933Y-59449616D01*
X53881437Y-59364863D01*
X54079318Y-59239284D01*
X54249039Y-59077661D01*
X54384135Y-58886151D01*
X54479460Y-58672048D01*
X54531383Y-58443507D01*
X54535121Y-58175817D01*
X54535121Y-59893200D01*
X51995121Y-59893200D01*
X51995121Y-58429817D01*
X51949599Y-58199916D01*
X51860289Y-57983234D01*
X51730594Y-57788026D01*
X51565452Y-57621728D01*
X51371154Y-57490672D01*
X51155102Y-57399852D01*
X50925523Y-57352726D01*
X50691164Y-57351090D01*
X50460950Y-57395006D01*
X50243650Y-57482801D01*
X50047542Y-57611130D01*
X49880094Y-57775107D01*
X49747685Y-57968485D01*
X49655359Y-58183899D01*
X49606632Y-58413142D01*
X49603360Y-58647485D01*
X49645667Y-58878000D01*
X49731943Y-59095907D01*
X49858900Y-59292907D01*
X50021704Y-59461495D01*
X50214153Y-59595250D01*
X50428916Y-59689078D01*
X50657814Y-59739405D01*
X50892128Y-59744313D01*
X51122933Y-59703616D01*
X51341437Y-59618863D01*
X51539318Y-59493284D01*
X51709039Y-59331661D01*
X51844135Y-59140151D01*
X51939460Y-58926048D01*
X51991383Y-58697507D01*
X51995121Y-58429817D01*
X51995121Y-59893200D01*
X44375121Y-59893200D01*
X44375121Y-58175817D01*
X44329599Y-57945916D01*
X44240289Y-57729234D01*
X44110594Y-57534026D01*
X43945452Y-57367728D01*
X43751154Y-57236672D01*
X43535102Y-57145852D01*
X43305523Y-57098726D01*
X43071164Y-57097090D01*
X42840950Y-57141006D01*
X42623650Y-57228801D01*
X42427542Y-57357130D01*
X42260094Y-57521107D01*
X42127685Y-57714485D01*
X42035359Y-57929899D01*
X41986632Y-58159142D01*
X41983360Y-58393485D01*
X42025667Y-58624000D01*
X42111943Y-58841907D01*
X42238900Y-59038907D01*
X42401704Y-59207495D01*
X42594153Y-59341250D01*
X42808916Y-59435078D01*
X43037814Y-59485405D01*
X43272128Y-59490313D01*
X43502933Y-59449616D01*
X43721437Y-59364863D01*
X43919318Y-59239284D01*
X44089039Y-59077661D01*
X44224135Y-58886151D01*
X44319460Y-58672048D01*
X44371383Y-58443507D01*
X44375121Y-58175817D01*
X44375121Y-59893200D01*
X41835121Y-59893200D01*
X41835121Y-58429817D01*
X41789599Y-58199916D01*
X41700289Y-57983234D01*
X41570594Y-57788026D01*
X41405452Y-57621728D01*
X41211154Y-57490672D01*
X40995102Y-57399852D01*
X40765523Y-57352726D01*
X40531164Y-57351090D01*
X40300950Y-57395006D01*
X40083650Y-57482801D01*
X39887542Y-57611130D01*
X39720094Y-57775107D01*
X39587685Y-57968485D01*
X39495359Y-58183899D01*
X39446632Y-58413142D01*
X39443360Y-58647485D01*
X39485667Y-58878000D01*
X39571943Y-59095907D01*
X39698900Y-59292907D01*
X39861704Y-59461495D01*
X40054153Y-59595250D01*
X40268916Y-59689078D01*
X40497814Y-59739405D01*
X40732128Y-59744313D01*
X40962933Y-59703616D01*
X41181437Y-59618863D01*
X41379318Y-59493284D01*
X41549039Y-59331661D01*
X41684135Y-59140151D01*
X41779460Y-58926048D01*
X41831383Y-58697507D01*
X41835121Y-58429817D01*
X41835121Y-59893200D01*
X39663927Y-59893200D01*
X39167270Y-59396543D01*
X39167270Y-42203457D01*
X39663927Y-41706800D01*
X74636072Y-41706800D01*
X75133200Y-42203927D01*
X75133200Y-48041059D01*
X74969490Y-47877350D01*
X74969461Y-47763549D01*
X74959737Y-47714441D01*
X74940660Y-47668158D01*
X74912957Y-47626461D01*
X74877682Y-47590939D01*
X74836180Y-47562945D01*
X74790030Y-47543546D01*
X74740992Y-47533480D01*
X74690932Y-47533130D01*
X73688389Y-47533299D01*
X73639281Y-47543023D01*
X73592998Y-47562100D01*
X73551301Y-47589803D01*
X73515779Y-47625078D01*
X73487785Y-47666580D01*
X73470134Y-47708570D01*
X73131510Y-47708570D01*
X72805130Y-47382190D01*
X72805130Y-46428200D01*
X72881704Y-46507495D01*
X73074153Y-46641250D01*
X73288916Y-46735078D01*
X73517814Y-46785405D01*
X73752128Y-46790313D01*
X73982933Y-46749616D01*
X74201437Y-46664863D01*
X74399318Y-46539284D01*
X74569039Y-46377661D01*
X74704135Y-46186151D01*
X74799460Y-45972048D01*
X74851383Y-45743507D01*
X74855121Y-45475817D01*
X74855121Y-42935817D01*
X74809599Y-42705916D01*
X74720289Y-42489234D01*
X74590594Y-42294026D01*
X74425452Y-42127728D01*
X74231154Y-41996672D01*
X74015102Y-41905852D01*
X73785523Y-41858726D01*
X73551164Y-41857090D01*
X73320950Y-41901006D01*
X73103650Y-41988801D01*
X72907542Y-42117130D01*
X72740094Y-42281107D01*
X72607685Y-42474485D01*
X72515359Y-42689899D01*
X72466632Y-42919142D01*
X72463360Y-43153485D01*
X72505667Y-43384000D01*
X72591943Y-43601907D01*
X72718900Y-43798907D01*
X72881704Y-43967495D01*
X73074153Y-44101250D01*
X73288916Y-44195078D01*
X73517814Y-44245405D01*
X73752128Y-44250313D01*
X73982933Y-44209616D01*
X74201437Y-44124863D01*
X74399318Y-43999284D01*
X74569039Y-43837661D01*
X74704135Y-43646151D01*
X74799460Y-43432048D01*
X74851383Y-43203507D01*
X74855121Y-42935817D01*
X74855121Y-45475817D01*
X74809599Y-45245916D01*
X74720289Y-45029234D01*
X74590594Y-44834026D01*
X74425452Y-44667728D01*
X74231154Y-44536672D01*
X74015102Y-44445852D01*
X73785523Y-44398726D01*
X73551164Y-44397090D01*
X73320950Y-44441006D01*
X73103650Y-44528801D01*
X72907542Y-44657130D01*
X72740094Y-44821107D01*
X72650254Y-44952313D01*
X71986470Y-44288530D01*
X71957576Y-44264797D01*
X71928885Y-44240722D01*
X71927016Y-44239694D01*
X71925372Y-44238344D01*
X71893149Y-44221066D01*
X72029039Y-44091661D01*
X72164135Y-43900151D01*
X72259460Y-43686048D01*
X72311383Y-43457507D01*
X72315121Y-43189817D01*
X72269599Y-42959916D01*
X72180289Y-42743234D01*
X72050594Y-42548026D01*
X71885452Y-42381728D01*
X71691154Y-42250672D01*
X71475102Y-42159852D01*
X71245523Y-42112726D01*
X71011164Y-42111090D01*
X70780950Y-42155006D01*
X70563650Y-42242801D01*
X70367542Y-42371130D01*
X70200094Y-42535107D01*
X70067685Y-42728485D01*
X69975359Y-42943899D01*
X69926632Y-43173142D01*
X69923360Y-43407485D01*
X69965667Y-43638000D01*
X70051943Y-43855907D01*
X70178900Y-44052907D01*
X70341704Y-44221495D01*
X70347746Y-44225694D01*
X70329350Y-44235230D01*
X70327685Y-44236558D01*
X70325804Y-44237559D01*
X70296853Y-44261171D01*
X70267556Y-44284558D01*
X70264582Y-44287490D01*
X70264532Y-44287532D01*
X70264492Y-44287579D01*
X70263529Y-44288530D01*
X69749936Y-44802123D01*
X69749936Y-43027040D01*
X69722612Y-42800293D01*
X69651767Y-42583171D01*
X69568831Y-42427191D01*
X69418936Y-42320031D01*
X69312969Y-42425998D01*
X69312969Y-42214064D01*
X69205809Y-42064169D01*
X69001826Y-41961448D01*
X68781776Y-41900303D01*
X68554040Y-41883064D01*
X68327293Y-41910388D01*
X68110171Y-41981233D01*
X67954191Y-42064169D01*
X67847031Y-42214064D01*
X68580000Y-42947033D01*
X69312969Y-42214064D01*
X69312969Y-42425998D01*
X68685967Y-43053000D01*
X69418936Y-43785969D01*
X69568831Y-43678809D01*
X69671552Y-43474826D01*
X69732697Y-43254776D01*
X69749936Y-43027040D01*
X69749936Y-44802123D01*
X69593400Y-44958659D01*
X69510594Y-44834026D01*
X69345452Y-44667728D01*
X69312969Y-44645817D01*
X69312969Y-43891936D01*
X68580000Y-43158967D01*
X68474033Y-43264934D01*
X68474033Y-43053000D01*
X67741064Y-42320031D01*
X67591169Y-42427191D01*
X67488448Y-42631174D01*
X67427303Y-42851224D01*
X67410064Y-43078960D01*
X67437388Y-43305707D01*
X67508233Y-43522829D01*
X67591169Y-43678809D01*
X67741064Y-43785969D01*
X68474033Y-43053000D01*
X68474033Y-43264934D01*
X67847031Y-43891936D01*
X67954191Y-44041831D01*
X68158174Y-44144552D01*
X68378224Y-44205697D01*
X68605960Y-44222936D01*
X68832707Y-44195612D01*
X69049829Y-44124767D01*
X69205809Y-44041831D01*
X69312969Y-43891936D01*
X69312969Y-44645817D01*
X69151154Y-44536672D01*
X68935102Y-44445852D01*
X68705523Y-44398726D01*
X68471164Y-44397090D01*
X68240950Y-44441006D01*
X68070010Y-44510070D01*
X67848470Y-44288530D01*
X67819576Y-44264797D01*
X67790885Y-44240722D01*
X67789016Y-44239694D01*
X67787372Y-44238344D01*
X67754422Y-44220676D01*
X67721598Y-44202631D01*
X67719565Y-44201986D01*
X67717689Y-44200980D01*
X67681930Y-44190047D01*
X67646231Y-44178723D01*
X67644111Y-44178485D01*
X67642076Y-44177863D01*
X67604911Y-44174088D01*
X67567656Y-44169909D01*
X67563485Y-44169880D01*
X67563414Y-44169873D01*
X67563347Y-44169879D01*
X67562000Y-44169870D01*
X66866911Y-44169870D01*
X66949039Y-44091661D01*
X67084135Y-43900151D01*
X67179460Y-43686048D01*
X67231383Y-43457507D01*
X67235121Y-43189817D01*
X67189599Y-42959916D01*
X67100289Y-42743234D01*
X66970594Y-42548026D01*
X66805452Y-42381728D01*
X66611154Y-42250672D01*
X66395102Y-42159852D01*
X66165523Y-42112726D01*
X65931164Y-42111090D01*
X65700950Y-42155006D01*
X65483650Y-42242801D01*
X65287542Y-42371130D01*
X65120094Y-42535107D01*
X64987685Y-42728485D01*
X64895359Y-42943899D01*
X64846632Y-43173142D01*
X64843360Y-43407485D01*
X64885667Y-43638000D01*
X64971943Y-43855907D01*
X65098900Y-44052907D01*
X65261704Y-44221495D01*
X65269882Y-44227178D01*
X65254350Y-44235230D01*
X65252685Y-44236558D01*
X65250804Y-44237559D01*
X65221853Y-44261171D01*
X65192556Y-44284558D01*
X65189582Y-44287490D01*
X65189532Y-44287532D01*
X65189492Y-44287579D01*
X65188529Y-44288530D01*
X64695121Y-44781938D01*
X64695121Y-42935817D01*
X64649599Y-42705916D01*
X64560289Y-42489234D01*
X64430594Y-42294026D01*
X64265452Y-42127728D01*
X64071154Y-41996672D01*
X63855102Y-41905852D01*
X63625523Y-41858726D01*
X63391164Y-41857090D01*
X63160950Y-41901006D01*
X62943650Y-41988801D01*
X62747542Y-42117130D01*
X62580094Y-42281107D01*
X62447685Y-42474485D01*
X62355359Y-42689899D01*
X62306632Y-42919142D01*
X62303360Y-43153485D01*
X62345667Y-43384000D01*
X62431943Y-43601907D01*
X62558900Y-43798907D01*
X62721704Y-43967495D01*
X62914153Y-44101250D01*
X63128916Y-44195078D01*
X63357814Y-44245405D01*
X63592128Y-44250313D01*
X63822933Y-44209616D01*
X64041437Y-44124863D01*
X64239318Y-43999284D01*
X64409039Y-43837661D01*
X64544135Y-43646151D01*
X64639460Y-43432048D01*
X64691383Y-43203507D01*
X64695121Y-42935817D01*
X64695121Y-44781938D01*
X64515395Y-44961664D01*
X64430594Y-44834026D01*
X64265452Y-44667728D01*
X64071154Y-44536672D01*
X63855102Y-44445852D01*
X63625523Y-44398726D01*
X63391164Y-44397090D01*
X63160950Y-44441006D01*
X62943650Y-44528801D01*
X62747542Y-44657130D01*
X62580094Y-44821107D01*
X62447685Y-45014485D01*
X62355359Y-45229899D01*
X62306632Y-45459142D01*
X62303360Y-45693485D01*
X62345667Y-45924000D01*
X62431943Y-46141907D01*
X62558900Y-46338907D01*
X62721704Y-46507495D01*
X62914153Y-46641250D01*
X63036883Y-46694870D01*
X62155121Y-46694870D01*
X62155121Y-45729817D01*
X62155121Y-43189817D01*
X62109599Y-42959916D01*
X62020289Y-42743234D01*
X61890594Y-42548026D01*
X61725452Y-42381728D01*
X61531154Y-42250672D01*
X61315102Y-42159852D01*
X61085523Y-42112726D01*
X60851164Y-42111090D01*
X60620950Y-42155006D01*
X60403650Y-42242801D01*
X60207542Y-42371130D01*
X60040094Y-42535107D01*
X59907685Y-42728485D01*
X59815359Y-42943899D01*
X59766632Y-43173142D01*
X59763360Y-43407485D01*
X59805667Y-43638000D01*
X59891943Y-43855907D01*
X60018900Y-44052907D01*
X60181704Y-44221495D01*
X60374153Y-44355250D01*
X60588916Y-44449078D01*
X60817814Y-44499405D01*
X61052128Y-44504313D01*
X61282933Y-44463616D01*
X61501437Y-44378863D01*
X61699318Y-44253284D01*
X61869039Y-44091661D01*
X62004135Y-43900151D01*
X62099460Y-43686048D01*
X62151383Y-43457507D01*
X62155121Y-43189817D01*
X62155121Y-45729817D01*
X62109599Y-45499916D01*
X62020289Y-45283234D01*
X61890594Y-45088026D01*
X61725452Y-44921728D01*
X61531154Y-44790672D01*
X61315102Y-44699852D01*
X61085523Y-44652726D01*
X60851164Y-44651090D01*
X60620950Y-44695006D01*
X60403650Y-44782801D01*
X60207542Y-44911130D01*
X60040094Y-45075107D01*
X59907685Y-45268485D01*
X59815359Y-45483899D01*
X59766632Y-45713142D01*
X59763360Y-45947485D01*
X59805667Y-46178000D01*
X59891943Y-46395907D01*
X60018900Y-46592907D01*
X60181704Y-46761495D01*
X60374153Y-46895250D01*
X60588916Y-46989078D01*
X60817814Y-47039405D01*
X61052128Y-47044313D01*
X61282933Y-47003616D01*
X61501437Y-46918863D01*
X61699318Y-46793284D01*
X61869039Y-46631661D01*
X62004135Y-46440151D01*
X62099460Y-46226048D01*
X62151383Y-45997507D01*
X62155121Y-45729817D01*
X62155121Y-46694870D01*
X62062000Y-46694870D01*
X62024716Y-46698525D01*
X61987475Y-46701784D01*
X61985430Y-46702378D01*
X61983310Y-46702586D01*
X61947477Y-46713404D01*
X61911548Y-46723843D01*
X61909657Y-46724822D01*
X61907617Y-46725439D01*
X61874556Y-46743017D01*
X61841350Y-46760230D01*
X61839686Y-46761558D01*
X61837804Y-46762559D01*
X61808822Y-46786195D01*
X61779556Y-46809559D01*
X61776584Y-46812489D01*
X61776532Y-46812532D01*
X61776491Y-46812580D01*
X61775529Y-46813530D01*
X60696299Y-47892760D01*
X60696299Y-47398458D01*
X60687736Y-47355214D01*
X60670937Y-47314457D01*
X60646542Y-47277739D01*
X60615479Y-47246459D01*
X60578932Y-47221807D01*
X60538293Y-47204724D01*
X60495110Y-47195860D01*
X60451028Y-47195553D01*
X60031127Y-47195710D01*
X59974930Y-47251907D01*
X59974930Y-47663070D01*
X60640093Y-47663070D01*
X60696290Y-47606873D01*
X60696299Y-47398458D01*
X60696299Y-47892760D01*
X60696291Y-47892768D01*
X60696290Y-47869127D01*
X60640093Y-47812930D01*
X59974930Y-47812930D01*
X59974930Y-48224093D01*
X60031127Y-48280290D01*
X60308665Y-48280393D01*
X59899928Y-48689130D01*
X59825070Y-48689141D01*
X59825070Y-48224093D01*
X59825070Y-47812930D01*
X59825070Y-47663070D01*
X59825070Y-47251907D01*
X59768873Y-47195710D01*
X59615121Y-47195652D01*
X59615121Y-42935817D01*
X59569599Y-42705916D01*
X59480289Y-42489234D01*
X59350594Y-42294026D01*
X59185452Y-42127728D01*
X58991154Y-41996672D01*
X58775102Y-41905852D01*
X58545523Y-41858726D01*
X58311164Y-41857090D01*
X58080950Y-41901006D01*
X57863650Y-41988801D01*
X57667542Y-42117130D01*
X57500094Y-42281107D01*
X57367685Y-42474485D01*
X57275359Y-42689899D01*
X57226632Y-42919142D01*
X57223360Y-43153485D01*
X57265667Y-43384000D01*
X57351943Y-43601907D01*
X57478900Y-43798907D01*
X57641704Y-43967495D01*
X57834153Y-44101250D01*
X58048916Y-44195078D01*
X58277814Y-44245405D01*
X58512128Y-44250313D01*
X58742933Y-44209616D01*
X58961437Y-44124863D01*
X59159318Y-43999284D01*
X59329039Y-43837661D01*
X59464135Y-43646151D01*
X59559460Y-43432048D01*
X59611383Y-43203507D01*
X59615121Y-42935817D01*
X59615121Y-47195652D01*
X59348972Y-47195553D01*
X59304890Y-47195860D01*
X59261707Y-47204724D01*
X59221068Y-47221807D01*
X59184521Y-47246459D01*
X59153458Y-47277739D01*
X59129063Y-47314457D01*
X59112264Y-47355214D01*
X59103701Y-47398458D01*
X59103710Y-47606873D01*
X59159907Y-47663070D01*
X59825070Y-47663070D01*
X59825070Y-47812930D01*
X59159907Y-47812930D01*
X59103710Y-47869127D01*
X59103701Y-48077542D01*
X59112264Y-48120786D01*
X59129063Y-48161543D01*
X59153458Y-48198261D01*
X59184521Y-48229541D01*
X59221068Y-48254193D01*
X59261707Y-48271276D01*
X59304890Y-48280140D01*
X59348972Y-48280447D01*
X59768873Y-48280290D01*
X59825070Y-48224093D01*
X59825070Y-48689141D01*
X59303469Y-48689219D01*
X59254361Y-48698943D01*
X59208078Y-48718020D01*
X59166381Y-48745723D01*
X59130859Y-48780998D01*
X59102865Y-48822500D01*
X59088417Y-48856870D01*
X58951777Y-48856870D01*
X58945677Y-48826061D01*
X58926600Y-48779778D01*
X58898897Y-48738081D01*
X58863622Y-48702559D01*
X58822120Y-48674565D01*
X58775970Y-48655166D01*
X58726932Y-48645100D01*
X58676872Y-48644750D01*
X58305150Y-48644789D01*
X58305150Y-48495125D01*
X58725151Y-48495081D01*
X58774259Y-48485357D01*
X58820542Y-48466280D01*
X58862239Y-48438577D01*
X58897761Y-48403302D01*
X58925755Y-48361800D01*
X58945154Y-48315650D01*
X58955220Y-48266612D01*
X58955570Y-48216552D01*
X58955570Y-46946552D01*
X58955401Y-46335169D01*
X58945677Y-46286061D01*
X58926600Y-46239778D01*
X58898897Y-46198081D01*
X58863622Y-46162559D01*
X58822120Y-46134565D01*
X58775970Y-46115166D01*
X58726932Y-46105100D01*
X58676872Y-46104750D01*
X57658932Y-46104857D01*
X57808611Y-45955177D01*
X58725151Y-45955081D01*
X58774259Y-45945357D01*
X58820542Y-45926280D01*
X58862239Y-45898577D01*
X58897761Y-45863302D01*
X58925755Y-45821800D01*
X58945154Y-45775650D01*
X58955220Y-45726612D01*
X58955570Y-45676552D01*
X58955401Y-45065169D01*
X58945677Y-45016061D01*
X58926600Y-44969778D01*
X58898897Y-44928081D01*
X58863622Y-44892559D01*
X58822120Y-44864565D01*
X58775970Y-44845166D01*
X58726932Y-44835100D01*
X58676872Y-44834750D01*
X57075121Y-44834918D01*
X57075121Y-43189817D01*
X57029599Y-42959916D01*
X56940289Y-42743234D01*
X56810594Y-42548026D01*
X56645452Y-42381728D01*
X56451154Y-42250672D01*
X56235102Y-42159852D01*
X56005523Y-42112726D01*
X55771164Y-42111090D01*
X55540950Y-42155006D01*
X55323650Y-42242801D01*
X55127542Y-42371130D01*
X54960094Y-42535107D01*
X54827685Y-42728485D01*
X54735359Y-42943899D01*
X54686632Y-43173142D01*
X54683360Y-43407485D01*
X54725667Y-43638000D01*
X54811943Y-43855907D01*
X54938900Y-44052907D01*
X55101704Y-44221495D01*
X55294153Y-44355250D01*
X55508916Y-44449078D01*
X55737814Y-44499405D01*
X55972128Y-44504313D01*
X56202933Y-44463616D01*
X56421437Y-44378863D01*
X56619318Y-44253284D01*
X56789039Y-44091661D01*
X56924135Y-43900151D01*
X57019460Y-43686048D01*
X57071383Y-43457507D01*
X57075121Y-43189817D01*
X57075121Y-44834918D01*
X57074889Y-44834919D01*
X57025781Y-44844643D01*
X56979498Y-44863720D01*
X56937801Y-44891423D01*
X56902279Y-44926698D01*
X56874285Y-44968200D01*
X56854886Y-45014350D01*
X56844820Y-45063388D01*
X56844470Y-45113448D01*
X56844561Y-45445360D01*
X56836734Y-45445306D01*
X56734471Y-45464814D01*
X56637944Y-45503813D01*
X56550831Y-45560819D01*
X56476450Y-45633658D01*
X56417633Y-45719559D01*
X56376620Y-45815247D01*
X56354975Y-45917079D01*
X56353522Y-46021176D01*
X56372315Y-46123573D01*
X56410640Y-46220369D01*
X56467035Y-46307878D01*
X56491806Y-46333530D01*
X56187526Y-46333530D01*
X55340759Y-45486763D01*
X55340783Y-45485066D01*
X55320562Y-45382942D01*
X55280890Y-45286690D01*
X55223278Y-45199977D01*
X55149920Y-45126106D01*
X55063612Y-45067890D01*
X54967639Y-45027547D01*
X54865659Y-45006613D01*
X54761554Y-45005886D01*
X54659291Y-45025394D01*
X54562764Y-45064393D01*
X54535121Y-45082482D01*
X54535121Y-42935817D01*
X54489599Y-42705916D01*
X54400289Y-42489234D01*
X54270594Y-42294026D01*
X54105452Y-42127728D01*
X53911154Y-41996672D01*
X53695102Y-41905852D01*
X53465523Y-41858726D01*
X53231164Y-41857090D01*
X53000950Y-41901006D01*
X52783650Y-41988801D01*
X52587542Y-42117130D01*
X52420094Y-42281107D01*
X52287685Y-42474485D01*
X52195359Y-42689899D01*
X52146632Y-42919142D01*
X52143360Y-43153485D01*
X52185667Y-43384000D01*
X52271943Y-43601907D01*
X52398900Y-43798907D01*
X52561704Y-43967495D01*
X52754153Y-44101250D01*
X52968916Y-44195078D01*
X53197814Y-44245405D01*
X53432128Y-44250313D01*
X53662933Y-44209616D01*
X53881437Y-44124863D01*
X54079318Y-43999284D01*
X54249039Y-43837661D01*
X54384135Y-43646151D01*
X54479460Y-43432048D01*
X54531383Y-43203507D01*
X54535121Y-42935817D01*
X54535121Y-45082482D01*
X54475651Y-45121399D01*
X54401270Y-45194238D01*
X54342453Y-45280139D01*
X54301440Y-45375827D01*
X54279795Y-45477659D01*
X54278342Y-45581756D01*
X54297135Y-45684153D01*
X54335460Y-45780949D01*
X54391855Y-45868458D01*
X54464174Y-45943347D01*
X54549662Y-46002762D01*
X54645061Y-46044441D01*
X54746740Y-46066797D01*
X54850824Y-46068977D01*
X54953350Y-46050899D01*
X54963440Y-46046984D01*
X55815841Y-46899385D01*
X55839518Y-46918833D01*
X55862956Y-46938500D01*
X55864485Y-46939340D01*
X55865831Y-46940446D01*
X55892782Y-46954897D01*
X55919646Y-46969666D01*
X55921309Y-46970193D01*
X55922843Y-46971016D01*
X55952063Y-46979949D01*
X55981310Y-46989227D01*
X55983046Y-46989421D01*
X55984709Y-46989930D01*
X56015068Y-46993013D01*
X56045598Y-46996438D01*
X56049016Y-46996461D01*
X56049069Y-46996467D01*
X56049118Y-46996462D01*
X56050226Y-46996470D01*
X56844963Y-46996470D01*
X56854363Y-47043939D01*
X56873440Y-47090222D01*
X56901143Y-47131919D01*
X56936418Y-47167441D01*
X56977920Y-47195435D01*
X57024070Y-47214834D01*
X57073108Y-47224900D01*
X57123168Y-47225250D01*
X58725151Y-47225081D01*
X58774259Y-47215357D01*
X58820542Y-47196280D01*
X58862239Y-47168577D01*
X58897761Y-47133302D01*
X58925755Y-47091800D01*
X58945154Y-47045650D01*
X58955220Y-46996612D01*
X58955570Y-46946552D01*
X58955570Y-48216552D01*
X58955401Y-47605169D01*
X58945677Y-47556061D01*
X58926600Y-47509778D01*
X58898897Y-47468081D01*
X58863622Y-47432559D01*
X58822120Y-47404565D01*
X58775970Y-47385166D01*
X58726932Y-47375100D01*
X58676872Y-47374750D01*
X57074889Y-47374919D01*
X57025781Y-47384643D01*
X56979498Y-47403720D01*
X56937801Y-47431423D01*
X56902279Y-47466698D01*
X56874285Y-47508200D01*
X56865176Y-47529870D01*
X55249610Y-47529870D01*
X54098270Y-46378530D01*
X54069376Y-46354797D01*
X54040685Y-46330722D01*
X54038816Y-46329694D01*
X54037172Y-46328344D01*
X54004222Y-46310676D01*
X53971398Y-46292631D01*
X53969365Y-46291986D01*
X53967489Y-46290980D01*
X53931730Y-46280047D01*
X53896031Y-46268723D01*
X53893911Y-46268485D01*
X53891876Y-46267863D01*
X53854711Y-46264088D01*
X53817456Y-46259909D01*
X53813285Y-46259880D01*
X53813214Y-46259873D01*
X53813147Y-46259879D01*
X53811800Y-46259870D01*
X53534841Y-46259870D01*
X53526560Y-46239778D01*
X53524879Y-46237247D01*
X53524879Y-45721842D01*
X53524879Y-45068158D01*
X53516316Y-45024914D01*
X53499517Y-44984157D01*
X53475122Y-44947439D01*
X53444059Y-44916159D01*
X53407512Y-44891507D01*
X53366873Y-44874424D01*
X53323690Y-44865560D01*
X53279608Y-44865253D01*
X52631107Y-44865410D01*
X52574910Y-44921607D01*
X52574910Y-45320070D01*
X53468673Y-45320070D01*
X53524870Y-45263873D01*
X53524879Y-45068158D01*
X53524879Y-45721842D01*
X53524870Y-45526127D01*
X53468673Y-45469930D01*
X52574910Y-45469930D01*
X52574910Y-45868393D01*
X52631107Y-45924590D01*
X53279608Y-45924747D01*
X53323690Y-45924440D01*
X53366873Y-45915576D01*
X53407512Y-45898493D01*
X53444059Y-45873841D01*
X53475122Y-45842561D01*
X53499517Y-45805843D01*
X53516316Y-45765086D01*
X53524879Y-45721842D01*
X53524879Y-46237247D01*
X53498857Y-46198081D01*
X53463582Y-46162559D01*
X53422080Y-46134565D01*
X53375930Y-46115166D01*
X53326892Y-46105100D01*
X53276832Y-46104750D01*
X52425050Y-46104839D01*
X52425050Y-45868393D01*
X52425050Y-45469930D01*
X52425050Y-45320070D01*
X52425050Y-44921607D01*
X52368853Y-44865410D01*
X51995121Y-44865319D01*
X51995121Y-43189817D01*
X51949599Y-42959916D01*
X51860289Y-42743234D01*
X51730594Y-42548026D01*
X51565452Y-42381728D01*
X51371154Y-42250672D01*
X51155102Y-42159852D01*
X50925523Y-42112726D01*
X50691164Y-42111090D01*
X50460950Y-42155006D01*
X50243650Y-42242801D01*
X50047542Y-42371130D01*
X49880094Y-42535107D01*
X49747685Y-42728485D01*
X49655359Y-42943899D01*
X49606632Y-43173142D01*
X49603360Y-43407485D01*
X49645667Y-43638000D01*
X49731943Y-43855907D01*
X49858900Y-44052907D01*
X50021704Y-44221495D01*
X50214153Y-44355250D01*
X50428916Y-44449078D01*
X50657814Y-44499405D01*
X50892128Y-44504313D01*
X51122933Y-44463616D01*
X51341437Y-44378863D01*
X51539318Y-44253284D01*
X51709039Y-44091661D01*
X51844135Y-43900151D01*
X51939460Y-43686048D01*
X51991383Y-43457507D01*
X51995121Y-43189817D01*
X51995121Y-44865319D01*
X51720352Y-44865253D01*
X51676270Y-44865560D01*
X51633087Y-44874424D01*
X51592448Y-44891507D01*
X51555901Y-44916159D01*
X51524838Y-44947439D01*
X51500443Y-44984157D01*
X51483644Y-45024914D01*
X51475081Y-45068158D01*
X51475090Y-45263873D01*
X51531287Y-45320070D01*
X52425050Y-45320070D01*
X52425050Y-45469930D01*
X51531287Y-45469930D01*
X51475090Y-45526127D01*
X51475081Y-45721842D01*
X51483644Y-45765086D01*
X51500443Y-45805843D01*
X51524838Y-45842561D01*
X51555901Y-45873841D01*
X51592448Y-45898493D01*
X51633087Y-45915576D01*
X51676270Y-45924440D01*
X51720352Y-45924747D01*
X52368853Y-45924590D01*
X52425050Y-45868393D01*
X52425050Y-46104839D01*
X51674849Y-46104919D01*
X51625741Y-46114643D01*
X51579458Y-46133720D01*
X51537761Y-46161423D01*
X51502239Y-46196698D01*
X51474245Y-46238200D01*
X51465136Y-46259870D01*
X51409976Y-46259870D01*
X51406930Y-46252478D01*
X51405249Y-46249947D01*
X51405249Y-45709142D01*
X51405249Y-45080858D01*
X51396686Y-45037614D01*
X51379887Y-44996857D01*
X51355492Y-44960139D01*
X51324429Y-44928859D01*
X51287882Y-44904207D01*
X51247243Y-44887124D01*
X51204060Y-44878260D01*
X51159978Y-44877953D01*
X50571167Y-44878110D01*
X50514970Y-44934307D01*
X50514970Y-45320070D01*
X51349043Y-45320070D01*
X51405240Y-45263873D01*
X51405249Y-45080858D01*
X51405249Y-45709142D01*
X51405240Y-45526127D01*
X51349043Y-45469930D01*
X50514970Y-45469930D01*
X50514970Y-45855693D01*
X50571167Y-45911890D01*
X51159978Y-45912047D01*
X51204060Y-45911740D01*
X51247243Y-45902876D01*
X51287882Y-45885793D01*
X51324429Y-45861141D01*
X51355492Y-45829861D01*
X51379887Y-45793143D01*
X51396686Y-45752386D01*
X51405249Y-45709142D01*
X51405249Y-46249947D01*
X51379227Y-46210781D01*
X51343952Y-46175259D01*
X51302450Y-46147265D01*
X51256300Y-46127866D01*
X51207262Y-46117800D01*
X51157202Y-46117450D01*
X50365110Y-46117540D01*
X50365110Y-45855693D01*
X50365110Y-45469930D01*
X50365110Y-45320070D01*
X50365110Y-44934307D01*
X50308913Y-44878110D01*
X49720102Y-44877953D01*
X49676020Y-44878260D01*
X49632837Y-44887124D01*
X49592198Y-44904207D01*
X49555651Y-44928859D01*
X49524588Y-44960139D01*
X49500193Y-44996857D01*
X49483394Y-45037614D01*
X49474831Y-45080858D01*
X49474840Y-45263873D01*
X49531037Y-45320070D01*
X50365110Y-45320070D01*
X50365110Y-45469930D01*
X49531037Y-45469930D01*
X49474840Y-45526127D01*
X49474831Y-45709142D01*
X49483394Y-45752386D01*
X49500193Y-45793143D01*
X49524588Y-45829861D01*
X49555651Y-45861141D01*
X49592198Y-45885793D01*
X49632837Y-45902876D01*
X49676020Y-45911740D01*
X49720102Y-45912047D01*
X50308913Y-45911890D01*
X50365110Y-45855693D01*
X50365110Y-46117540D01*
X49674599Y-46117619D01*
X49625491Y-46127343D01*
X49591994Y-46141149D01*
X49565020Y-46113986D01*
X49478712Y-46055770D01*
X49382739Y-46015427D01*
X49323271Y-46003219D01*
X49332720Y-45957192D01*
X49333070Y-45907132D01*
X49332901Y-44904589D01*
X49323177Y-44855481D01*
X49304100Y-44809198D01*
X49276397Y-44767501D01*
X49241122Y-44731979D01*
X49199620Y-44703985D01*
X49153470Y-44684586D01*
X49151254Y-44684131D01*
X49150716Y-44677975D01*
X49150121Y-44675930D01*
X49149914Y-44673810D01*
X49139095Y-44637977D01*
X49128657Y-44602048D01*
X49127677Y-44600157D01*
X49127061Y-44598117D01*
X49109482Y-44565056D01*
X49092270Y-44531850D01*
X49090941Y-44530185D01*
X49089941Y-44528304D01*
X49066328Y-44499353D01*
X49042942Y-44470056D01*
X49040009Y-44467082D01*
X49039968Y-44467032D01*
X49039920Y-44466992D01*
X49038970Y-44466029D01*
X48886470Y-44313530D01*
X48857576Y-44289797D01*
X48828885Y-44265722D01*
X48827016Y-44264694D01*
X48825372Y-44263344D01*
X48792422Y-44245676D01*
X48759598Y-44227631D01*
X48757565Y-44226986D01*
X48755689Y-44225980D01*
X48719930Y-44215047D01*
X48684231Y-44203723D01*
X48682111Y-44203485D01*
X48680076Y-44202863D01*
X48642911Y-44199088D01*
X48617441Y-44196230D01*
X48801437Y-44124863D01*
X48999318Y-43999284D01*
X49169039Y-43837661D01*
X49304135Y-43646151D01*
X49399460Y-43432048D01*
X49451383Y-43203507D01*
X49455121Y-42935817D01*
X49409599Y-42705916D01*
X49320289Y-42489234D01*
X49190594Y-42294026D01*
X49025452Y-42127728D01*
X48831154Y-41996672D01*
X48615102Y-41905852D01*
X48385523Y-41858726D01*
X48151164Y-41857090D01*
X47920950Y-41901006D01*
X47703650Y-41988801D01*
X47507542Y-42117130D01*
X47340094Y-42281107D01*
X47207685Y-42474485D01*
X47115359Y-42689899D01*
X47066632Y-42919142D01*
X47063360Y-43153485D01*
X47105667Y-43384000D01*
X47191943Y-43601907D01*
X47318900Y-43798907D01*
X47481704Y-43967495D01*
X47674153Y-44101250D01*
X47888439Y-44194870D01*
X46520658Y-44194870D01*
X46629039Y-44091661D01*
X46764135Y-43900151D01*
X46859460Y-43686048D01*
X46911383Y-43457507D01*
X46915121Y-43189817D01*
X46869599Y-42959916D01*
X46780289Y-42743234D01*
X46650594Y-42548026D01*
X46485452Y-42381728D01*
X46291154Y-42250672D01*
X46075102Y-42159852D01*
X45845523Y-42112726D01*
X45611164Y-42111090D01*
X45380950Y-42155006D01*
X45163650Y-42242801D01*
X44967542Y-42371130D01*
X44800094Y-42535107D01*
X44667685Y-42728485D01*
X44575359Y-42943899D01*
X44526632Y-43173142D01*
X44523360Y-43407485D01*
X44565667Y-43638000D01*
X44651943Y-43855907D01*
X44778900Y-44052907D01*
X44941704Y-44221495D01*
X45134153Y-44355250D01*
X45345565Y-44447613D01*
X44476469Y-44447719D01*
X44427361Y-44457443D01*
X44381078Y-44476520D01*
X44362081Y-44489141D01*
X43986470Y-44113530D01*
X43957576Y-44089797D01*
X43928885Y-44065722D01*
X43927016Y-44064694D01*
X43925372Y-44063344D01*
X43892422Y-44045676D01*
X43867663Y-44032064D01*
X43919318Y-43999284D01*
X44089039Y-43837661D01*
X44224135Y-43646151D01*
X44319460Y-43432048D01*
X44371383Y-43203507D01*
X44375121Y-42935817D01*
X44329599Y-42705916D01*
X44240289Y-42489234D01*
X44110594Y-42294026D01*
X43945452Y-42127728D01*
X43751154Y-41996672D01*
X43535102Y-41905852D01*
X43305523Y-41858726D01*
X43071164Y-41857090D01*
X42840950Y-41901006D01*
X42623650Y-41988801D01*
X42427542Y-42117130D01*
X42260094Y-42281107D01*
X42127685Y-42474485D01*
X42035359Y-42689899D01*
X41986632Y-42919142D01*
X41983360Y-43153485D01*
X42025667Y-43384000D01*
X42111943Y-43601907D01*
X42238900Y-43798907D01*
X42401704Y-43967495D01*
X42441091Y-43994870D01*
X41960000Y-43994870D01*
X41922716Y-43998525D01*
X41885475Y-44001784D01*
X41883430Y-44002378D01*
X41881310Y-44002586D01*
X41845477Y-44013404D01*
X41835121Y-44016412D01*
X41835121Y-43189817D01*
X41789599Y-42959916D01*
X41700289Y-42743234D01*
X41570594Y-42548026D01*
X41405452Y-42381728D01*
X41211154Y-42250672D01*
X40995102Y-42159852D01*
X40765523Y-42112726D01*
X40531164Y-42111090D01*
X40300950Y-42155006D01*
X40083650Y-42242801D01*
X39887542Y-42371130D01*
X39720094Y-42535107D01*
X39587685Y-42728485D01*
X39495359Y-42943899D01*
X39446632Y-43173142D01*
X39443360Y-43407485D01*
X39485667Y-43638000D01*
X39571943Y-43855907D01*
X39698900Y-44052907D01*
X39861704Y-44221495D01*
X40054153Y-44355250D01*
X40268916Y-44449078D01*
X40497814Y-44499405D01*
X40732128Y-44504313D01*
X40962933Y-44463616D01*
X41181437Y-44378863D01*
X41379318Y-44253284D01*
X41549039Y-44091661D01*
X41684135Y-43900151D01*
X41779460Y-43686048D01*
X41831383Y-43457507D01*
X41835121Y-43189817D01*
X41835121Y-44016412D01*
X41809548Y-44023843D01*
X41807657Y-44024822D01*
X41805617Y-44025439D01*
X41772556Y-44043017D01*
X41739350Y-44060230D01*
X41737686Y-44061558D01*
X41735804Y-44062559D01*
X41706822Y-44086195D01*
X41677556Y-44109559D01*
X41674584Y-44112489D01*
X41674532Y-44112532D01*
X41674491Y-44112580D01*
X41673529Y-44113530D01*
X41160483Y-44626575D01*
X40985102Y-44552852D01*
X40755523Y-44505726D01*
X40521164Y-44504090D01*
X40290950Y-44548006D01*
X40073650Y-44635801D01*
X39877542Y-44764130D01*
X39710094Y-44928107D01*
X39577685Y-45121485D01*
X39485359Y-45336899D01*
X39436632Y-45566142D01*
X39433360Y-45800485D01*
X39475667Y-46031000D01*
X39561943Y-46248907D01*
X39688900Y-46445907D01*
X39851704Y-46614495D01*
X40044153Y-46748250D01*
X40258916Y-46842078D01*
X40487814Y-46892405D01*
X40722128Y-46897313D01*
X40952933Y-46856616D01*
X41171437Y-46771863D01*
X41369318Y-46646284D01*
X41539039Y-46484661D01*
X41674135Y-46293151D01*
X41769460Y-46079048D01*
X41821383Y-45850507D01*
X41825121Y-45582817D01*
X41779599Y-45352916D01*
X41721349Y-45211591D01*
X42127810Y-44805130D01*
X42477018Y-44805130D01*
X42437031Y-44861064D01*
X43170000Y-45594033D01*
X43184142Y-45579890D01*
X43290109Y-45685857D01*
X43275967Y-45700000D01*
X44008936Y-46432969D01*
X44158831Y-46325809D01*
X44261552Y-46121826D01*
X44322697Y-45901776D01*
X44331667Y-45783266D01*
X44337998Y-45789641D01*
X44379500Y-45817635D01*
X44425650Y-45837034D01*
X44474688Y-45847100D01*
X44524748Y-45847450D01*
X45923531Y-45847281D01*
X45972639Y-45837557D01*
X46018922Y-45818480D01*
X46060619Y-45790777D01*
X46096141Y-45755502D01*
X46124135Y-45714000D01*
X46142549Y-45670191D01*
X46181955Y-45731338D01*
X46254274Y-45806227D01*
X46267075Y-45815124D01*
X46267099Y-45955411D01*
X46276823Y-46004519D01*
X46295900Y-46050802D01*
X46323603Y-46092499D01*
X46358878Y-46128021D01*
X46400380Y-46156015D01*
X46446530Y-46175414D01*
X46495568Y-46185480D01*
X46545628Y-46185830D01*
X47197651Y-46185661D01*
X47246759Y-46175937D01*
X47293042Y-46156860D01*
X47334739Y-46129157D01*
X47348009Y-46115979D01*
X47368837Y-46129817D01*
X47409594Y-46146616D01*
X47452838Y-46155179D01*
X47668873Y-46155170D01*
X47725070Y-46098973D01*
X47725070Y-45504930D01*
X47705070Y-45504930D01*
X47705070Y-45355070D01*
X47725070Y-45355070D01*
X47725070Y-45335070D01*
X47874930Y-45335070D01*
X47874930Y-45355070D01*
X47894930Y-45355070D01*
X47894930Y-45504930D01*
X47874930Y-45504930D01*
X47874930Y-46098973D01*
X47931127Y-46155170D01*
X48036081Y-46155174D01*
X47436386Y-46754870D01*
X46390000Y-46754870D01*
X46352753Y-46758522D01*
X46315476Y-46761784D01*
X46313431Y-46762377D01*
X46311310Y-46762586D01*
X46275465Y-46773407D01*
X46239548Y-46783843D01*
X46237657Y-46784822D01*
X46235617Y-46785439D01*
X46202556Y-46803017D01*
X46169350Y-46820230D01*
X46167685Y-46821558D01*
X46165804Y-46822559D01*
X46136853Y-46846171D01*
X46123291Y-46856996D01*
X46123299Y-46585958D01*
X46114736Y-46542714D01*
X46097937Y-46501957D01*
X46073542Y-46465239D01*
X46042479Y-46433959D01*
X46005932Y-46409307D01*
X45965293Y-46392224D01*
X45922110Y-46383360D01*
X45878028Y-46383053D01*
X45331127Y-46383210D01*
X45274930Y-46439407D01*
X45274930Y-46977570D01*
X45294930Y-46977570D01*
X45294930Y-47127430D01*
X45274930Y-47127430D01*
X45274930Y-47665593D01*
X45331127Y-47721790D01*
X45604350Y-47721868D01*
X45153131Y-48173087D01*
X45125070Y-48173091D01*
X45125070Y-47665593D01*
X45125070Y-47127430D01*
X45125070Y-46977570D01*
X45125070Y-46439407D01*
X45068873Y-46383210D01*
X44521972Y-46383053D01*
X44477890Y-46383360D01*
X44434707Y-46392224D01*
X44394068Y-46409307D01*
X44357521Y-46433959D01*
X44326458Y-46465239D01*
X44302063Y-46501957D01*
X44285264Y-46542714D01*
X44276701Y-46585958D01*
X44276710Y-46921373D01*
X44332907Y-46977570D01*
X45125070Y-46977570D01*
X45125070Y-47127430D01*
X44332907Y-47127430D01*
X44276710Y-47183627D01*
X44276701Y-47519042D01*
X44285264Y-47562286D01*
X44302063Y-47603043D01*
X44326458Y-47639761D01*
X44357521Y-47671041D01*
X44394068Y-47695693D01*
X44434707Y-47712776D01*
X44477890Y-47721640D01*
X44521972Y-47721947D01*
X45068873Y-47721790D01*
X45125070Y-47665593D01*
X45125070Y-48173091D01*
X44373749Y-48173219D01*
X44324641Y-48182943D01*
X44278358Y-48202020D01*
X44236661Y-48229723D01*
X44201139Y-48264998D01*
X44173145Y-48306500D01*
X44153746Y-48352650D01*
X44143680Y-48401688D01*
X44143330Y-48451748D01*
X44143499Y-49596531D01*
X44153223Y-49645639D01*
X44172300Y-49691922D01*
X44200003Y-49733619D01*
X44235278Y-49769141D01*
X44276780Y-49797135D01*
X44322930Y-49816534D01*
X44371968Y-49826600D01*
X44422028Y-49826950D01*
X45424571Y-49826781D01*
X45473679Y-49817057D01*
X45519962Y-49797980D01*
X45561659Y-49770277D01*
X45597181Y-49735002D01*
X45625175Y-49693500D01*
X45644574Y-49647350D01*
X45654640Y-49598312D01*
X45654990Y-49548252D01*
X45654882Y-48817218D01*
X45959741Y-48512359D01*
X45958562Y-48522872D01*
X45958538Y-48526279D01*
X45958532Y-48526343D01*
X45958537Y-48526402D01*
X45958530Y-48527500D01*
X45958530Y-50220000D01*
X45961518Y-50250481D01*
X45964186Y-50280974D01*
X45964673Y-50282650D01*
X45964843Y-50284383D01*
X45973685Y-50313670D01*
X45982235Y-50343097D01*
X45983037Y-50344645D01*
X45983541Y-50346313D01*
X45997904Y-50373327D01*
X46012006Y-50400532D01*
X46013094Y-50401895D01*
X46013912Y-50403433D01*
X46033213Y-50427098D01*
X46052365Y-50451090D01*
X46054764Y-50453522D01*
X46054799Y-50453565D01*
X46054838Y-50453597D01*
X46055615Y-50454385D01*
X46673163Y-51071932D01*
X46673219Y-51280531D01*
X46682943Y-51329639D01*
X46702020Y-51375922D01*
X46729723Y-51417619D01*
X46764998Y-51453141D01*
X46806500Y-51481135D01*
X46852650Y-51500534D01*
X46901688Y-51510600D01*
X46951748Y-51510950D01*
X48096531Y-51510781D01*
X48145639Y-51501057D01*
X48191922Y-51481980D01*
X48233619Y-51454277D01*
X48268599Y-51419539D01*
X48735530Y-51886470D01*
X48764423Y-51910202D01*
X48793115Y-51934278D01*
X48794983Y-51935305D01*
X48796628Y-51936656D01*
X48829577Y-51954323D01*
X48862402Y-51972369D01*
X48864434Y-51973013D01*
X48866311Y-51974020D01*
X48902069Y-51984952D01*
X48937769Y-51996277D01*
X48939888Y-51996514D01*
X48941924Y-51997137D01*
X48979088Y-52000911D01*
X49016344Y-52005091D01*
X49020514Y-52005119D01*
X49020586Y-52005127D01*
X49020652Y-52005120D01*
X49022000Y-52005130D01*
X52402189Y-52005130D01*
X52494870Y-52097810D01*
X52494870Y-55094870D01*
X51340283Y-55094870D01*
X51340283Y-54075346D01*
X51320062Y-53973222D01*
X51280390Y-53876970D01*
X51222778Y-53790257D01*
X51149420Y-53716386D01*
X51102978Y-53685060D01*
X51101160Y-53680648D01*
X51073457Y-53638951D01*
X51038182Y-53603429D01*
X50996680Y-53575435D01*
X50950530Y-53556036D01*
X50901492Y-53545970D01*
X50851432Y-53545620D01*
X48350289Y-53545789D01*
X48301181Y-53555513D01*
X48296299Y-53557525D01*
X48296299Y-52801542D01*
X48296299Y-52122458D01*
X48287736Y-52079214D01*
X48270937Y-52038457D01*
X48246542Y-52001739D01*
X48215479Y-51970459D01*
X48178932Y-51945807D01*
X48138293Y-51928724D01*
X48095110Y-51919860D01*
X48051028Y-51919553D01*
X47631127Y-51919710D01*
X47574930Y-51975907D01*
X47574930Y-52387070D01*
X48240093Y-52387070D01*
X48296290Y-52330873D01*
X48296299Y-52122458D01*
X48296299Y-52801542D01*
X48296290Y-52593127D01*
X48240093Y-52536930D01*
X47574930Y-52536930D01*
X47574930Y-52948093D01*
X47631127Y-53004290D01*
X48051028Y-53004447D01*
X48095110Y-53004140D01*
X48138293Y-52995276D01*
X48178932Y-52978193D01*
X48215479Y-52953541D01*
X48246542Y-52922261D01*
X48270937Y-52885543D01*
X48287736Y-52844786D01*
X48296299Y-52801542D01*
X48296299Y-53557525D01*
X48254898Y-53574590D01*
X48213201Y-53602293D01*
X48177679Y-53637568D01*
X48149685Y-53679070D01*
X48130286Y-53725220D01*
X48120220Y-53774258D01*
X48119870Y-53824318D01*
X48120039Y-54824321D01*
X48129763Y-54873429D01*
X48148840Y-54919712D01*
X48176543Y-54961409D01*
X48211818Y-54996931D01*
X48253320Y-55024925D01*
X48299470Y-55044324D01*
X48348508Y-55054390D01*
X48398568Y-55054740D01*
X50899711Y-55054571D01*
X50948819Y-55044847D01*
X50995102Y-55025770D01*
X51036799Y-54998067D01*
X51072321Y-54962792D01*
X51100315Y-54921290D01*
X51119714Y-54875140D01*
X51129780Y-54826102D01*
X51130130Y-54776042D01*
X51130092Y-54552647D01*
X51137812Y-54547748D01*
X51213203Y-54475953D01*
X51273214Y-54390883D01*
X51315558Y-54295776D01*
X51338623Y-54194256D01*
X51340283Y-54075346D01*
X51340283Y-55094870D01*
X48400000Y-55094870D01*
X48362716Y-55098525D01*
X48325475Y-55101784D01*
X48323430Y-55102378D01*
X48321310Y-55102586D01*
X48285477Y-55113404D01*
X48249548Y-55123843D01*
X48247657Y-55124822D01*
X48245617Y-55125439D01*
X48212556Y-55143017D01*
X48179350Y-55160230D01*
X48177686Y-55161558D01*
X48175804Y-55162559D01*
X48146822Y-55186195D01*
X48117556Y-55209559D01*
X48114584Y-55212489D01*
X48114532Y-55212532D01*
X48114491Y-55212580D01*
X48113529Y-55213530D01*
X47874930Y-55452129D01*
X47874930Y-55240447D01*
X47876600Y-55232312D01*
X47876950Y-55182252D01*
X47876781Y-54545469D01*
X47874930Y-54536121D01*
X47874930Y-54396076D01*
X47883814Y-54383483D01*
X47926158Y-54288376D01*
X47949223Y-54186856D01*
X47950883Y-54067946D01*
X47930662Y-53965822D01*
X47890990Y-53869570D01*
X47833378Y-53782857D01*
X47760020Y-53708986D01*
X47673712Y-53650770D01*
X47577739Y-53610427D01*
X47475759Y-53589493D01*
X47425070Y-53589139D01*
X47425070Y-52948093D01*
X47425070Y-52536930D01*
X47425070Y-52387070D01*
X47425070Y-51975907D01*
X47368873Y-51919710D01*
X46948972Y-51919553D01*
X46904890Y-51919860D01*
X46861707Y-51928724D01*
X46821068Y-51945807D01*
X46784521Y-51970459D01*
X46753458Y-52001739D01*
X46729063Y-52038457D01*
X46712264Y-52079214D01*
X46703701Y-52122458D01*
X46703710Y-52330873D01*
X46759907Y-52387070D01*
X47425070Y-52387070D01*
X47425070Y-52536930D01*
X46759907Y-52536930D01*
X46703710Y-52593127D01*
X46703701Y-52801542D01*
X46712264Y-52844786D01*
X46729063Y-52885543D01*
X46753458Y-52922261D01*
X46784521Y-52953541D01*
X46821068Y-52978193D01*
X46861707Y-52995276D01*
X46904890Y-53004140D01*
X46948972Y-53004447D01*
X47368873Y-53004290D01*
X47425070Y-52948093D01*
X47425070Y-53589139D01*
X47371654Y-53588766D01*
X47269391Y-53608274D01*
X47172864Y-53647273D01*
X47085751Y-53704279D01*
X47011370Y-53777118D01*
X46952553Y-53863019D01*
X46911540Y-53958707D01*
X46889895Y-54060539D01*
X46888442Y-54164636D01*
X46907235Y-54267033D01*
X46926285Y-54315149D01*
X46453469Y-54315219D01*
X46404361Y-54324943D01*
X46404052Y-54325070D01*
X46360883Y-54325070D01*
X46360883Y-51957946D01*
X46340662Y-51855822D01*
X46300990Y-51759570D01*
X46243378Y-51672857D01*
X46170020Y-51598986D01*
X46151926Y-51586781D01*
X46143809Y-51576828D01*
X46120442Y-51547557D01*
X46117514Y-51544588D01*
X46117468Y-51544532D01*
X46117415Y-51544488D01*
X46116470Y-51543530D01*
X44906470Y-50333530D01*
X44877576Y-50309797D01*
X44848885Y-50285722D01*
X44847016Y-50284694D01*
X44845372Y-50283344D01*
X44812422Y-50265676D01*
X44779598Y-50247631D01*
X44777565Y-50246986D01*
X44775689Y-50245980D01*
X44739930Y-50235047D01*
X44704231Y-50223723D01*
X44702111Y-50223485D01*
X44700076Y-50222863D01*
X44662911Y-50219088D01*
X44625656Y-50214909D01*
X44621485Y-50214880D01*
X44621414Y-50214873D01*
X44621347Y-50214879D01*
X44620000Y-50214870D01*
X43902969Y-50214870D01*
X43902969Y-46538936D01*
X43170000Y-45805967D01*
X43064033Y-45911934D01*
X43064033Y-45700000D01*
X42331064Y-44967031D01*
X42181169Y-45074191D01*
X42078448Y-45278174D01*
X42017303Y-45498224D01*
X42000064Y-45725960D01*
X42027388Y-45952707D01*
X42098233Y-46169829D01*
X42181169Y-46325809D01*
X42331064Y-46432969D01*
X43064033Y-45700000D01*
X43064033Y-45911934D01*
X42437031Y-46538936D01*
X42544191Y-46688831D01*
X42748174Y-46791552D01*
X42968224Y-46852697D01*
X43195960Y-46869936D01*
X43422707Y-46842612D01*
X43639829Y-46771767D01*
X43795809Y-46688831D01*
X43902969Y-46538936D01*
X43902969Y-50214870D01*
X43705305Y-50214870D01*
X43705281Y-50024969D01*
X43695557Y-49975861D01*
X43676480Y-49929578D01*
X43648777Y-49887881D01*
X43613502Y-49852359D01*
X43605130Y-49846711D01*
X43605130Y-49826784D01*
X43626251Y-49826781D01*
X43675359Y-49817057D01*
X43721642Y-49797980D01*
X43763339Y-49770277D01*
X43798861Y-49735002D01*
X43826855Y-49693500D01*
X43846254Y-49647350D01*
X43856320Y-49598312D01*
X43856670Y-49548252D01*
X43856501Y-48403469D01*
X43846777Y-48354361D01*
X43827700Y-48308078D01*
X43799997Y-48266381D01*
X43764722Y-48230859D01*
X43723220Y-48202865D01*
X43677070Y-48183466D01*
X43628032Y-48173400D01*
X43577972Y-48173050D01*
X42575429Y-48173219D01*
X42526321Y-48182943D01*
X42480038Y-48202020D01*
X42438341Y-48229723D01*
X42402819Y-48264998D01*
X42374825Y-48306500D01*
X42355426Y-48352650D01*
X42345360Y-48401688D01*
X42345010Y-48451748D01*
X42345179Y-49596531D01*
X42354903Y-49645639D01*
X42373980Y-49691922D01*
X42401683Y-49733619D01*
X42436958Y-49769141D01*
X42474810Y-49794673D01*
X42124969Y-49794719D01*
X42075861Y-49804443D01*
X42029578Y-49823520D01*
X41987881Y-49851223D01*
X41952359Y-49886498D01*
X41924365Y-49928000D01*
X41904966Y-49974150D01*
X41894900Y-50023188D01*
X41894550Y-50073248D01*
X41894557Y-50134467D01*
X41862864Y-50147273D01*
X41775751Y-50204279D01*
X41701370Y-50277118D01*
X41642553Y-50363019D01*
X41601540Y-50458707D01*
X41579895Y-50560539D01*
X41578442Y-50664636D01*
X41597235Y-50767033D01*
X41635560Y-50863829D01*
X41691955Y-50951338D01*
X41764274Y-51026227D01*
X41849762Y-51085642D01*
X41894683Y-51105268D01*
X41894697Y-51205962D01*
X41857739Y-51190427D01*
X41755759Y-51169493D01*
X41651654Y-51168766D01*
X41574947Y-51183398D01*
X41574947Y-50070472D01*
X41574640Y-50026390D01*
X41565776Y-49983207D01*
X41548693Y-49942568D01*
X41524041Y-49906021D01*
X41492761Y-49874958D01*
X41456043Y-49850563D01*
X41415286Y-49833764D01*
X41372042Y-49825201D01*
X40831127Y-49825210D01*
X40774930Y-49881407D01*
X40774930Y-50625070D01*
X41518593Y-50625070D01*
X41574790Y-50568873D01*
X41574947Y-50070472D01*
X41574947Y-51183398D01*
X41574900Y-51183407D01*
X41574790Y-50831127D01*
X41518593Y-50774930D01*
X40774930Y-50774930D01*
X40774930Y-51518593D01*
X40831127Y-51574790D01*
X41183869Y-51574795D01*
X41169895Y-51640539D01*
X41168442Y-51744636D01*
X41171256Y-51759973D01*
X41036642Y-51894587D01*
X40625070Y-51894640D01*
X40625070Y-51518593D01*
X40625070Y-50774930D01*
X40625070Y-50625070D01*
X40625070Y-49881407D01*
X40568873Y-49825210D01*
X40027958Y-49825201D01*
X39984714Y-49833764D01*
X39943957Y-49850563D01*
X39907239Y-49874958D01*
X39875959Y-49906021D01*
X39851307Y-49942568D01*
X39834224Y-49983207D01*
X39825360Y-50026390D01*
X39825053Y-50070472D01*
X39825210Y-50568873D01*
X39881407Y-50625070D01*
X40625070Y-50625070D01*
X40625070Y-50774930D01*
X39881407Y-50774930D01*
X39825210Y-50831127D01*
X39825053Y-51329528D01*
X39825360Y-51373610D01*
X39834224Y-51416793D01*
X39851307Y-51457432D01*
X39875959Y-51493979D01*
X39907239Y-51525042D01*
X39943957Y-51549437D01*
X39984714Y-51566236D01*
X40027958Y-51574799D01*
X40568873Y-51574790D01*
X40625070Y-51518593D01*
X40625070Y-51894640D01*
X40024969Y-51894719D01*
X39975861Y-51904443D01*
X39929578Y-51923520D01*
X39887881Y-51951223D01*
X39852359Y-51986498D01*
X39824365Y-52028000D01*
X39804966Y-52074150D01*
X39794900Y-52123188D01*
X39794550Y-52173248D01*
X39794719Y-53475031D01*
X39804443Y-53524139D01*
X39823520Y-53570422D01*
X39851223Y-53612119D01*
X39886498Y-53647641D01*
X39928000Y-53675635D01*
X39974150Y-53695034D01*
X40023188Y-53705100D01*
X40073248Y-53705450D01*
X41375031Y-53705281D01*
X41424139Y-53695557D01*
X41470422Y-53676480D01*
X41512119Y-53648777D01*
X41547641Y-53613502D01*
X41575635Y-53572000D01*
X41595034Y-53525850D01*
X41605100Y-53476812D01*
X41605450Y-53426752D01*
X41605298Y-52263470D01*
X41639046Y-52229723D01*
X41740924Y-52231857D01*
X41843450Y-52213779D01*
X41894552Y-52193957D01*
X41894719Y-53475031D01*
X41904443Y-53524139D01*
X41923520Y-53570422D01*
X41951223Y-53612119D01*
X41986498Y-53647641D01*
X42028000Y-53675635D01*
X42074150Y-53695034D01*
X42123188Y-53705100D01*
X42173248Y-53705450D01*
X43475031Y-53705281D01*
X43524139Y-53695557D01*
X43570422Y-53676480D01*
X43612119Y-53648777D01*
X43647641Y-53613502D01*
X43675635Y-53572000D01*
X43695034Y-53525850D01*
X43705100Y-53476812D01*
X43705450Y-53426752D01*
X43705309Y-52343460D01*
X44269045Y-51779723D01*
X44370924Y-51781857D01*
X44473450Y-51763779D01*
X44570511Y-51726131D01*
X44658412Y-51670348D01*
X44733803Y-51598553D01*
X44793814Y-51513483D01*
X44836158Y-51418376D01*
X44837875Y-51410815D01*
X45313516Y-51886456D01*
X45299895Y-51950539D01*
X45298442Y-52054636D01*
X45317235Y-52157033D01*
X45355560Y-52253829D01*
X45411955Y-52341338D01*
X45484274Y-52416227D01*
X45569762Y-52475642D01*
X45665161Y-52517321D01*
X45766840Y-52539677D01*
X45870924Y-52541857D01*
X45973450Y-52523779D01*
X46070511Y-52486131D01*
X46158412Y-52430348D01*
X46233803Y-52358553D01*
X46293814Y-52273483D01*
X46336158Y-52178376D01*
X46359223Y-52076856D01*
X46360883Y-51957946D01*
X46360883Y-54325070D01*
X46225070Y-54325070D01*
X46225070Y-54406117D01*
X46215479Y-54396459D01*
X46178932Y-54371807D01*
X46138293Y-54354724D01*
X46095110Y-54345860D01*
X46051028Y-54345553D01*
X45631127Y-54345710D01*
X45574930Y-54401907D01*
X45574930Y-54813070D01*
X45594930Y-54813070D01*
X45594930Y-54962930D01*
X45574930Y-54962930D01*
X45574930Y-55374093D01*
X45631127Y-55430290D01*
X46051028Y-55430447D01*
X46095110Y-55430140D01*
X46138293Y-55421276D01*
X46178932Y-55404193D01*
X46215479Y-55379541D01*
X46225070Y-55369882D01*
X46225070Y-55890159D01*
X46193500Y-55868865D01*
X46147350Y-55849466D01*
X46098312Y-55839400D01*
X46048252Y-55839050D01*
X45425070Y-55839141D01*
X45425070Y-55374093D01*
X45425070Y-54962930D01*
X45425070Y-54813070D01*
X45425070Y-54401907D01*
X45368873Y-54345710D01*
X44948972Y-54345553D01*
X44904890Y-54345860D01*
X44861707Y-54354724D01*
X44821068Y-54371807D01*
X44784521Y-54396459D01*
X44753458Y-54427739D01*
X44729063Y-54464457D01*
X44712264Y-54505214D01*
X44703701Y-54548458D01*
X44703710Y-54756873D01*
X44759907Y-54813070D01*
X45425070Y-54813070D01*
X45425070Y-54962930D01*
X44759907Y-54962930D01*
X44703710Y-55019127D01*
X44703701Y-55227542D01*
X44712264Y-55270786D01*
X44729063Y-55311543D01*
X44753458Y-55348261D01*
X44784521Y-55379541D01*
X44821068Y-55404193D01*
X44861707Y-55421276D01*
X44904890Y-55430140D01*
X44948972Y-55430447D01*
X45368873Y-55430290D01*
X45425070Y-55374093D01*
X45425070Y-55839141D01*
X44903469Y-55839219D01*
X44854361Y-55848943D01*
X44808078Y-55868020D01*
X44766381Y-55895723D01*
X44730859Y-55930998D01*
X44702865Y-55972500D01*
X44683466Y-56018650D01*
X44673400Y-56067688D01*
X44673050Y-56117748D01*
X44673219Y-56754531D01*
X44682943Y-56803639D01*
X44702020Y-56849922D01*
X44729723Y-56891619D01*
X44764998Y-56927141D01*
X44806500Y-56955135D01*
X44852650Y-56974534D01*
X44901688Y-56984600D01*
X44951748Y-56984950D01*
X45168530Y-56984917D01*
X45168530Y-57480829D01*
X45163650Y-57482801D01*
X44967542Y-57611130D01*
X44800094Y-57775107D01*
X44667685Y-57968485D01*
X44575359Y-58183899D01*
X44526632Y-58413142D01*
X44523360Y-58647485D01*
X44565667Y-58878000D01*
X44651943Y-59095907D01*
X44778900Y-59292907D01*
X44941704Y-59461495D01*
X45134153Y-59595250D01*
X45348916Y-59689078D01*
X45577814Y-59739405D01*
X45812128Y-59744313D01*
X46042933Y-59703616D01*
X46261437Y-59618863D01*
X46459318Y-59493284D01*
X46629039Y-59331661D01*
X46764135Y-59140151D01*
X46859460Y-58926048D01*
X46911383Y-58697507D01*
X46915121Y-58429817D01*
X46869599Y-58199916D01*
X46780289Y-57983234D01*
X46650594Y-57788026D01*
X46485452Y-57621728D01*
X46291154Y-57490672D01*
X46075102Y-57399852D01*
X45845523Y-57352726D01*
X45831470Y-57352627D01*
X45831470Y-56984820D01*
X46096531Y-56984781D01*
X46145639Y-56975057D01*
X46191922Y-56955980D01*
X46225070Y-56933956D01*
X46225070Y-56974930D01*
X46404579Y-56974930D01*
X46451688Y-56984600D01*
X46501748Y-56984950D01*
X47646531Y-56984781D01*
X47695639Y-56975057D01*
X47695947Y-56974930D01*
X47874930Y-56974930D01*
X47874930Y-56806926D01*
X47902534Y-56798592D01*
X47938452Y-56788157D01*
X47940342Y-56787177D01*
X47942383Y-56786561D01*
X47975443Y-56768982D01*
X48008650Y-56751770D01*
X48010313Y-56750441D01*
X48012196Y-56749441D01*
X48041171Y-56725809D01*
X48070443Y-56702442D01*
X48073411Y-56699514D01*
X48073468Y-56699468D01*
X48073511Y-56699415D01*
X48074470Y-56698470D01*
X48119976Y-56652963D01*
X48120039Y-57023961D01*
X48129763Y-57073069D01*
X48140502Y-57099123D01*
X47920950Y-57141006D01*
X47703650Y-57228801D01*
X47507542Y-57357130D01*
X47340094Y-57521107D01*
X47207685Y-57714485D01*
X47115359Y-57929899D01*
X47066632Y-58159142D01*
X47063360Y-58393485D01*
X47105667Y-58624000D01*
X47191943Y-58841907D01*
X47318900Y-59038907D01*
X47481704Y-59207495D01*
X47674153Y-59341250D01*
X47888916Y-59435078D01*
X48117814Y-59485405D01*
X48352128Y-59490313D01*
X48582933Y-59449616D01*
X48801437Y-59364863D01*
X48999318Y-59239284D01*
X49169039Y-59077661D01*
X49304135Y-58886151D01*
X49399460Y-58672048D01*
X49451383Y-58443507D01*
X49455121Y-58175817D01*
X49409599Y-57945916D01*
X49320289Y-57729234D01*
X49190594Y-57534026D01*
X49025452Y-57367728D01*
X48857361Y-57254348D01*
X50899711Y-57254211D01*
X50948819Y-57244487D01*
X50995102Y-57225410D01*
X51036799Y-57197707D01*
X51072321Y-57162432D01*
X51100315Y-57120930D01*
X51119714Y-57074780D01*
X51129780Y-57025742D01*
X51130130Y-56975682D01*
X51129961Y-55975679D01*
X51120237Y-55926571D01*
X51111399Y-55905130D01*
X51352362Y-55905130D01*
X51316540Y-55988707D01*
X51294895Y-56090539D01*
X51293442Y-56194636D01*
X51312235Y-56297033D01*
X51350560Y-56393829D01*
X51406955Y-56481338D01*
X51479274Y-56556227D01*
X51564762Y-56615642D01*
X51660161Y-56657321D01*
X51761840Y-56679677D01*
X51865924Y-56681857D01*
X51884765Y-56678534D01*
X52123255Y-56917024D01*
X52146924Y-56936466D01*
X52170370Y-56956140D01*
X52171896Y-56956979D01*
X52173244Y-56958086D01*
X52200217Y-56972548D01*
X52227060Y-56987306D01*
X52228723Y-56987833D01*
X52230257Y-56988656D01*
X52259477Y-56997589D01*
X52288724Y-57006867D01*
X52290460Y-57007061D01*
X52292123Y-57007570D01*
X52322482Y-57010653D01*
X52353012Y-57014078D01*
X52356430Y-57014101D01*
X52356483Y-57014107D01*
X52356532Y-57014102D01*
X52357640Y-57014110D01*
X60267616Y-57014110D01*
X60298097Y-57011121D01*
X60328590Y-57008454D01*
X60330266Y-57007966D01*
X60331999Y-57007797D01*
X60361286Y-56998954D01*
X60390713Y-56990405D01*
X60392261Y-56989602D01*
X60393929Y-56989099D01*
X60420943Y-56974735D01*
X60448148Y-56960634D01*
X60449511Y-56959545D01*
X60451049Y-56958728D01*
X60474714Y-56939426D01*
X60498706Y-56920275D01*
X60501138Y-56917875D01*
X60501181Y-56917841D01*
X60501213Y-56917801D01*
X60502001Y-56917025D01*
X60750355Y-56668670D01*
X61029042Y-56668670D01*
X61039362Y-56675842D01*
X61134761Y-56717521D01*
X61236440Y-56739877D01*
X61340524Y-56742057D01*
X61443050Y-56723979D01*
X61540111Y-56686331D01*
X61628012Y-56630548D01*
X61703403Y-56558753D01*
X61763414Y-56473683D01*
X61805758Y-56378576D01*
X61828823Y-56277056D01*
X61830483Y-56158146D01*
X61810262Y-56056022D01*
X61770590Y-55959770D01*
X61712978Y-55873057D01*
X61639620Y-55799186D01*
X61553312Y-55740970D01*
X61457339Y-55700627D01*
X61355359Y-55679693D01*
X61251254Y-55678966D01*
X61203255Y-55688122D01*
X61200662Y-55675022D01*
X61160990Y-55578770D01*
X61103378Y-55492057D01*
X61030020Y-55418186D01*
X60943712Y-55359970D01*
X60847739Y-55319627D01*
X60745759Y-55298693D01*
X60641654Y-55297966D01*
X60539391Y-55317474D01*
X60442864Y-55356473D01*
X60355751Y-55413479D01*
X60281370Y-55486318D01*
X60222553Y-55572219D01*
X60181540Y-55667907D01*
X60159895Y-55769739D01*
X60158442Y-55873836D01*
X60161256Y-55889173D01*
X60004062Y-56046368D01*
X55951572Y-56046368D01*
X56216117Y-55781822D01*
X56318450Y-55763779D01*
X56415511Y-55726131D01*
X56503412Y-55670348D01*
X56578803Y-55598553D01*
X56638814Y-55513483D01*
X56681158Y-55418376D01*
X56704223Y-55316856D01*
X56704550Y-55293389D01*
X57084410Y-54913530D01*
X65556098Y-54913530D01*
X65483650Y-54942801D01*
X65287542Y-55071130D01*
X65120094Y-55235107D01*
X64987685Y-55428485D01*
X64895359Y-55643899D01*
X64846632Y-55873142D01*
X64843360Y-56107485D01*
X64885667Y-56338000D01*
X64971943Y-56555907D01*
X65098900Y-56752907D01*
X65261704Y-56921495D01*
X65454153Y-57055250D01*
X65668916Y-57149078D01*
X65897814Y-57199405D01*
X66132128Y-57204313D01*
X66362933Y-57163616D01*
X66581437Y-57078863D01*
X66779318Y-56953284D01*
X66949039Y-56791661D01*
X67084135Y-56600151D01*
X67179460Y-56386048D01*
X67231383Y-56157507D01*
X67235121Y-55889817D01*
X67189599Y-55659916D01*
X67100289Y-55443234D01*
X66970594Y-55248026D01*
X66805452Y-55081728D01*
X66611154Y-54950672D01*
X66522796Y-54913530D01*
X67191600Y-54913530D01*
X67729101Y-54913530D01*
X67660094Y-54981107D01*
X67527685Y-55174485D01*
X67435359Y-55389899D01*
X67386632Y-55619142D01*
X67383360Y-55853485D01*
X67425667Y-56084000D01*
X67511943Y-56301907D01*
X67638900Y-56498907D01*
X67801704Y-56667495D01*
X67994153Y-56801250D01*
X68208916Y-56895078D01*
X68437814Y-56945405D01*
X68672128Y-56950313D01*
X68902933Y-56909616D01*
X69121437Y-56824863D01*
X69319318Y-56699284D01*
X69489039Y-56537661D01*
X69624135Y-56346151D01*
X69719460Y-56132048D01*
X69771383Y-55903507D01*
X69775121Y-55635817D01*
X69729599Y-55405916D01*
X69640289Y-55189234D01*
X69510594Y-54994026D01*
X69430657Y-54913530D01*
X70716685Y-54913530D01*
X70650171Y-54935233D01*
X70494191Y-55018169D01*
X70387031Y-55168064D01*
X71120000Y-55901033D01*
X71134142Y-55886890D01*
X71240109Y-55992857D01*
X71225967Y-56007000D01*
X71958936Y-56739969D01*
X71984870Y-56721428D01*
X71984870Y-57023000D01*
X71988522Y-57060246D01*
X71991784Y-57097524D01*
X71992377Y-57099568D01*
X71992586Y-57101690D01*
X72003407Y-57137534D01*
X72013843Y-57173452D01*
X72014822Y-57175342D01*
X72015439Y-57177383D01*
X72033017Y-57210443D01*
X72050230Y-57243650D01*
X72051558Y-57245313D01*
X72052559Y-57247196D01*
X72076190Y-57276171D01*
X72099558Y-57305443D01*
X72102485Y-57308411D01*
X72102532Y-57308468D01*
X72102584Y-57308511D01*
X72103530Y-57309470D01*
X72577941Y-57783881D01*
X72515359Y-57929899D01*
X72466632Y-58159142D01*
X72463360Y-58393485D01*
X72505667Y-58624000D01*
X72591943Y-58841907D01*
X72718900Y-59038907D01*
X72881704Y-59207495D01*
X73074153Y-59341250D01*
X73288916Y-59435078D01*
X73517814Y-59485405D01*
X73752128Y-59490313D01*
X73982933Y-59449616D01*
X74201437Y-59364863D01*
X74399318Y-59239284D01*
X74569039Y-59077661D01*
X74704135Y-58886151D01*
X74799460Y-58672048D01*
X74851383Y-58443507D01*
X74855121Y-58175817D01*
X74809599Y-57945916D01*
X74720289Y-57729234D01*
X74590594Y-57534026D01*
X74425452Y-57367728D01*
X74231154Y-57236672D01*
X74015102Y-57145852D01*
X73785523Y-57098726D01*
X73551164Y-57097090D01*
X73320950Y-57141006D01*
X73150010Y-57210070D01*
X72795130Y-56855190D01*
X72795130Y-56577845D01*
X72881704Y-56667495D01*
X73074153Y-56801250D01*
X73288916Y-56895078D01*
X73517814Y-56945405D01*
X73752128Y-56950313D01*
X73982933Y-56909616D01*
X74201437Y-56824863D01*
X74399318Y-56699284D01*
X74569039Y-56537661D01*
X74704135Y-56346151D01*
X74799460Y-56132048D01*
X74851383Y-55903507D01*
X74855121Y-55635817D01*
X74809599Y-55405916D01*
X74720289Y-55189234D01*
X74590594Y-54994026D01*
X74425452Y-54827728D01*
X74301430Y-54744073D01*
X74301430Y-52453784D01*
X74322031Y-52453781D01*
X74371139Y-52444057D01*
X74417422Y-52424980D01*
X74459119Y-52397277D01*
X74494641Y-52362002D01*
X74522635Y-52320500D01*
X74542034Y-52274350D01*
X74552100Y-52225312D01*
X74552450Y-52175252D01*
X74552281Y-50776469D01*
X74542557Y-50727361D01*
X74523480Y-50681078D01*
X74495777Y-50639381D01*
X74460502Y-50603859D01*
X74453519Y-50599149D01*
X74739211Y-50599101D01*
X74788319Y-50589377D01*
X74834602Y-50570300D01*
X74876299Y-50542597D01*
X74911821Y-50507322D01*
X74939815Y-50465820D01*
X74959214Y-50419670D01*
X74969280Y-50370632D01*
X74969630Y-50320572D01*
X74969622Y-50293517D01*
X75133200Y-50129940D01*
X75133200Y-59396073D01*
M02*
