M48
;DRILL file {KiCad 0.201505121916+5652~23~ubuntu14.04.1-product} date Mon 25 May 2015 22:13:38 BST
;FORMAT={3:3/ absolute / metric / suppress leading zeros}
FMAT,2
METRIC,TZ
T1C0.300
T2C1.016
T3C3.401
%
G90
G05
M71
T1
X41700Y-51700
X42110Y-50620
X44280Y-54240
X44330Y-51250
X45830Y-52010
X46300Y-53700
X46600Y-45400
X46900Y-50100
X47420Y-54120
X49225Y-46525
X49311Y-50597
X50327Y-56083
X50330Y-52510
X50809Y-54127
X51825Y-56150
X53300Y-56100
X53800Y-47500
X54315Y-54127
X54619Y-48514
X54810Y-45537
X55000Y-52375
X55875Y-49550
X56010Y-54180
X56175Y-55250
X56885Y-45977
X57845Y-53035
X58090Y-55840
X59826Y-53061
X60690Y-55829
X61300Y-56210
X69700Y-52400
X72900Y-51500
T2
X40630Y-45700
X40640Y-43307
X40640Y-58547
X43170Y-45700
X43180Y-43053
X43180Y-58293
X45720Y-43307
X45720Y-58547
X48260Y-43053
X48260Y-58293
X50800Y-43307
X50800Y-58547
X53340Y-43053
X53340Y-58293
X55880Y-43307
X55880Y-58547
X58420Y-43053
X58420Y-58293
X60960Y-43307
X60960Y-45847
X60960Y-58547
X63500Y-43053
X63500Y-45593
X63500Y-58293
X66040Y-43307
X66040Y-45847
X66040Y-56007
X66040Y-58547
X68580Y-43053
X68580Y-45593
X68580Y-55753
X68580Y-58293
X71120Y-43307
X71120Y-45847
X71120Y-56007
X71120Y-58547
X73660Y-43053
X73660Y-45593
X73660Y-55753
X73660Y-58293
T3
X64500Y-51700
T0
M30
