<svg xmlns="http://www.w3.org/2000/svg" version="1.1" xmlns:xlink="http://www.w3.org/1999/xlink" width="2.3627in" height="1.4570999999999998in" viewBox="438.40000000000003 459.90000000000003 2362.7 1457.1" stroke-linecap="round" stroke-linejoin="round" stroke-width="0" stroke="#000" class="Board"><style type="text/css"> .Board--board { color: dimgrey; } .Board--cu { color: lightgrey; } .Board--cf { color: silver; } .Board--sm { color: darkred; opacity: 0.75; } .Board--ss { color: white; } .Board--sp { color: silver; } .Board--out { color: black; } </style><defs><rect x="-27.6" y="-27.6" width="55.2" height="55.2" id="tool-D10-pad-1000"/><circle cx="0" cy="0" r="21.7" id="tool-D11-pad-1001"/><rect x="-36" y="-36" width="72" height="72" id="tool-D12-pad-1002"/><polygon points="35.99992681901609,14.91165793287538 14.911657932875382,35.99992681901609 -14.911657932875379,35.99992681901609 -35.99992681901609,14.911657932875384 -35.999926819016096,-14.911657932875375 -14.911657932875402,-35.99992681901608 14.91165793287539,-35.99992681901609 35.99992681901608,-14.911657932875404" id="tool-D13-pad-1003"/><circle cx="0" cy="0" r="67" id="tool-D14-pad-1004"/><circle cx="0" cy="0" r="29" id="tool-D15-pad-1005"/><g fill="currentColor" stroke="currentColor" id="bottom-bsm_8"><use x="987.9" y="1818.4" xlink:href="#tool-D10-pad-1000"/><use x="1070.6" y="1818.4" xlink:href="#tool-D10-pad-1000"/><use x="1381.6" y="1818.4" xlink:href="#tool-D10-pad-1000"/><use x="1464.3" y="1818.4" xlink:href="#tool-D10-pad-1000"/><use x="1775.3" y="1818.4" xlink:href="#tool-D10-pad-1000"/><use x="1858" y="1818.4" xlink:href="#tool-D10-pad-1000"/><use x="2169" y="1818.4" xlink:href="#tool-D10-pad-1000"/><use x="2251.7" y="1818.4" xlink:href="#tool-D10-pad-1000"/><use x="645.4" y="1275" xlink:href="#tool-D11-pad-1001"/><use x="645.4" y="1101.8" xlink:href="#tool-D11-pad-1001"/><use x="1419.8" y="597.9" xlink:href="#tool-D12-pad-1002"/><use x="2516.2" y="988.4" xlink:href="#tool-D12-pad-1002"/><use x="2416.2" y="988.4" xlink:href="#tool-D13-pad-1003"/><use x="2416.2" y="1088.4" xlink:href="#tool-D13-pad-1003"/><use x="2516.2" y="1088.4" xlink:href="#tool-D13-pad-1003"/><use x="2516.2" y="1188.4" xlink:href="#tool-D13-pad-1003"/><use x="2416.2" y="1188.4" xlink:href="#tool-D13-pad-1003"/><use x="2416.2" y="1288.4" xlink:href="#tool-D13-pad-1003"/><use x="2516.2" y="1288.4" xlink:href="#tool-D13-pad-1003"/><use x="2516.2" y="1388.4" xlink:href="#tool-D13-pad-1003"/><use x="2416.2" y="1388.4" xlink:href="#tool-D13-pad-1003"/><use x="1819.8" y="597.9" xlink:href="#tool-D13-pad-1003"/><use x="1719.8" y="597.9" xlink:href="#tool-D13-pad-1003"/><use x="1619.8" y="597.9" xlink:href="#tool-D13-pad-1003"/><use x="1519.8" y="597.9" xlink:href="#tool-D13-pad-1003"/><use x="596.1" y="617.6" xlink:href="#tool-D14-pad-1004"/><use x="596.1" y="1759.3" xlink:href="#tool-D14-pad-1004"/><use x="2643.4" y="1759.3" xlink:href="#tool-D14-pad-1004"/><use x="2643.4" y="617.6" xlink:href="#tool-D14-pad-1004"/><use x="1547.4" y="921.7" xlink:href="#tool-D15-pad-1005"/><use x="1677.4" y="1246.7" xlink:href="#tool-D15-pad-1005"/><use x="1369.9" y="1560.1" xlink:href="#tool-D15-pad-1005"/><use x="672.4" y="1544.2" xlink:href="#tool-D15-pad-1005"/></g><rect x="-23.6" y="-23.6" width="47.2" height="47.2" id="tool-D10-pad-1024"/><rect x="-32" y="-32" width="64" height="64" id="tool-D11-pad-1025"/><polygon points="31.999934950236533,13.254807051444784 13.254807051444786,31.999934950236533 -13.254807051444782,31.999934950236533 -31.999934950236533,13.254807051444788 -31.999934950236536,-13.25480705144478 -13.254807051444804,-31.999934950236526 13.254807051444793,-31.99993495023653 31.999934950236526,-13.254807051444805" id="tool-D12-pad-1026"/><circle cx="0" cy="0" r="20" id="tool-D13-pad-1027"/><circle cx="0" cy="0" r="22.5" id="tool-D14-pad-1028"/><circle cx="0" cy="0" r="25" id="tool-D18-pad-1032"/><g fill="currentColor" stroke="currentColor" id="bottom-bcu_9"><use x="987.9" y="1818.4" xlink:href="#tool-D10-pad-1024"/><use x="1070.6" y="1818.4" xlink:href="#tool-D10-pad-1024"/><use x="1381.6" y="1818.4" xlink:href="#tool-D10-pad-1024"/><use x="1464.3" y="1818.4" xlink:href="#tool-D10-pad-1024"/><use x="1775.3" y="1818.4" xlink:href="#tool-D10-pad-1024"/><use x="1858" y="1818.4" xlink:href="#tool-D10-pad-1024"/><use x="2169" y="1818.4" xlink:href="#tool-D10-pad-1024"/><use x="2251.7" y="1818.4" xlink:href="#tool-D10-pad-1024"/><use x="2516.2" y="988.4" xlink:href="#tool-D11-pad-1025"/><use x="1419.8" y="597.9" xlink:href="#tool-D11-pad-1025"/><use x="1519.8" y="597.9" xlink:href="#tool-D12-pad-1026"/><use x="1619.8" y="597.9" xlink:href="#tool-D12-pad-1026"/><use x="1719.8" y="597.9" xlink:href="#tool-D12-pad-1026"/><use x="1819.8" y="597.9" xlink:href="#tool-D12-pad-1026"/><use x="2416.2" y="988.4" xlink:href="#tool-D12-pad-1026"/><use x="2416.2" y="1088.4" xlink:href="#tool-D12-pad-1026"/><use x="2516.2" y="1088.4" xlink:href="#tool-D12-pad-1026"/><use x="2516.2" y="1188.4" xlink:href="#tool-D12-pad-1026"/><use x="2416.2" y="1188.4" xlink:href="#tool-D12-pad-1026"/><use x="2416.2" y="1288.4" xlink:href="#tool-D12-pad-1026"/><use x="2516.2" y="1288.4" xlink:href="#tool-D12-pad-1026"/><use x="2516.2" y="1388.4" xlink:href="#tool-D12-pad-1026"/><use x="2416.2" y="1388.4" xlink:href="#tool-D12-pad-1026"/><use x="2236.5" y="1239.6" xlink:href="#tool-D13-pad-1027"/><use x="2159.3" y="1226.7" xlink:href="#tool-D13-pad-1027"/><use x="2271.2" y="1126.7" xlink:href="#tool-D13-pad-1027"/><use x="2341.6" y="1188.4" xlink:href="#tool-D13-pad-1027"/><use x="2664.4" y="1141.5" xlink:href="#tool-D13-pad-1027"/><use x="2666.4" y="1340.5" xlink:href="#tool-D13-pad-1027"/><use x="2668.4" y="1475.7" xlink:href="#tool-D13-pad-1027"/><use x="2761.5" y="1601.8" xlink:href="#tool-D13-pad-1027"/><use x="2387.6" y="1567.7" xlink:href="#tool-D13-pad-1027"/><use x="2188.7" y="1560.1" xlink:href="#tool-D13-pad-1027"/><use x="2111.9" y="1737.8" xlink:href="#tool-D13-pad-1027"/><use x="2111.9" y="1818.4" xlink:href="#tool-D13-pad-1027"/><use x="2348.7" y="1818.4" xlink:href="#tool-D13-pad-1027"/><use x="2485.9" y="1877.4" xlink:href="#tool-D13-pad-1027"/><use x="1876.2" y="1628.8" xlink:href="#tool-D13-pad-1027"/><use x="1663.7" y="1735.1" xlink:href="#tool-D13-pad-1027"/><use x="1718.2" y="1818.4" xlink:href="#tool-D13-pad-1027"/><use x="1371.2" y="1620.5" xlink:href="#tool-D13-pad-1027"/><use x="1252.4" y="1526.7" xlink:href="#tool-D13-pad-1027"/><use x="1371.2" y="1489.2" xlink:href="#tool-D13-pad-1027"/><use x="1502.4" y="1489.2" xlink:href="#tool-D13-pad-1027"/><use x="1472.4" y="1376.7" xlink:href="#tool-D13-pad-1027"/><use x="1392.4" y="1251.7" xlink:href="#tool-D13-pad-1027"/><use x="1347.4" y="1106.7" xlink:href="#tool-D13-pad-1027"/><use x="1177.4" y="1056.7" xlink:href="#tool-D13-pad-1027"/><use x="1057.4" y="1051.7" xlink:href="#tool-D13-pad-1027"/><use x="1047.4" y="1116.7" xlink:href="#tool-D13-pad-1027"/><use x="1167.4" y="1206.7" xlink:href="#tool-D13-pad-1027"/><use x="1000.4" y="1326.7" xlink:href="#tool-D13-pad-1027"/><use x="863.7" y="1385.1" xlink:href="#tool-D13-pad-1027"/><use x="782.4" y="1522.6" xlink:href="#tool-D13-pad-1027"/><use x="1022.4" y="1619.2" xlink:href="#tool-D13-pad-1027"/><use x="1138.7" y="1760.1" xlink:href="#tool-D13-pad-1027"/><use x="1324.5" y="1751.4" xlink:href="#tool-D13-pad-1027"/><use x="1324.5" y="1818.4" xlink:href="#tool-D13-pad-1027"/><use x="930.8" y="1818.4" xlink:href="#tool-D13-pad-1027"/><use x="753.6" y="1877.4" xlink:href="#tool-D13-pad-1027"/><use x="478" y="1601.8" xlink:href="#tool-D13-pad-1027"/><use x="1153.7" y="1426.7" xlink:href="#tool-D13-pad-1027"/><use x="635.5" y="1168.7" xlink:href="#tool-D13-pad-1027"/><use x="851.4" y="1077.7" xlink:href="#tool-D13-pad-1027"/><use x="1057.4" y="966.7" xlink:href="#tool-D13-pad-1027"/><use x="1137.4" y="861.7" xlink:href="#tool-D13-pad-1027"/><use x="1032.4" y="836.7" xlink:href="#tool-D13-pad-1027"/><use x="972.4" y="856.7" xlink:href="#tool-D13-pad-1027"/><use x="771.4" y="913.7" xlink:href="#tool-D13-pad-1027"/><use x="635.5" y="1031" xlink:href="#tool-D13-pad-1027"/><use x="478" y="775" xlink:href="#tool-D13-pad-1027"/><use x="753.6" y="499.5" xlink:href="#tool-D13-pad-1027"/><use x="970.2" y="656.9" xlink:href="#tool-D13-pad-1027"/><use x="1108" y="656.9" xlink:href="#tool-D13-pad-1027"/><use x="1288.7" y="828.8" xlink:href="#tool-D13-pad-1027"/><use x="1351.2" y="835.1" xlink:href="#tool-D13-pad-1027"/><use x="1697.4" y="1036.7" xlink:href="#tool-D13-pad-1027"/><use x="1547.4" y="1066.7" xlink:href="#tool-D13-pad-1027"/><use x="1692.4" y="1156.7" xlink:href="#tool-D13-pad-1027"/><use x="1971.4" y="1036.7" xlink:href="#tool-D13-pad-1027"/><use x="1952.4" y="947.7" xlink:href="#tool-D13-pad-1027"/><use x="1896.7" y="912.5" xlink:href="#tool-D13-pad-1027"/><use x="1842.4" y="871" xlink:href="#tool-D13-pad-1027"/><use x="1727.4" y="831.7" xlink:href="#tool-D13-pad-1027"/><use x="1712.4" y="886.7" xlink:href="#tool-D13-pad-1027"/><use x="1897.9" y="710.7" xlink:href="#tool-D13-pad-1027"/><use x="1972.4" y="716.7" xlink:href="#tool-D13-pad-1027"/><use x="1982.4" y="666.7" xlink:href="#tool-D13-pad-1027"/><use x="2162.4" y="666.7" xlink:href="#tool-D13-pad-1027"/><use x="2192.4" y="751.7" xlink:href="#tool-D13-pad-1027"/><use x="2303.7" y="816.7" xlink:href="#tool-D13-pad-1027"/><use x="2263.7" y="866.7" xlink:href="#tool-D13-pad-1027"/><use x="2213.7" y="916.7" xlink:href="#tool-D13-pad-1027"/><use x="2290.6" y="981.7" xlink:href="#tool-D13-pad-1027"/><use x="2525.4" y="815.7" xlink:href="#tool-D13-pad-1027"/><use x="2604.4" y="914.7" xlink:href="#tool-D13-pad-1027"/><use x="2761.5" y="775" xlink:href="#tool-D13-pad-1027"/><use x="2382.4" y="626.7" xlink:href="#tool-D13-pad-1027"/><use x="2342.4" y="676.7" xlink:href="#tool-D13-pad-1027"/><use x="2485.9" y="499.5" xlink:href="#tool-D13-pad-1027"/><use x="2038.7" y="560.1" xlink:href="#tool-D13-pad-1027"/><use x="1973.5" y="1383.2" xlink:href="#tool-D13-pad-1027"/><use x="1757.4" y="1422.6" xlink:href="#tool-D13-pad-1027"/><use x="2240.6" y="1426.7" xlink:href="#tool-D14-pad-1028"/><use x="1501.2" y="728.8" xlink:href="#tool-D14-pad-1028"/><path stroke-width="12" fill="none" d="M 732.4 610.8 L 732.4 478.3 L 2507.1 478.3 L 2507.1 610.8 L 2506.6 611.3 L 2507.1 618.2 L 2507.1 625.1 L 2507.6 625.6 L 2507.9 629.6 L 2507.1 630.9 L 2508.4 637 L 2508.9 643.2 L 2510 644.2 L 2511 648.8 L 2510.4 650.1 L 2512.6 656 L 2513.9 662.1 L 2515.1 662.9 L 2516.8 667.3 L 2516.4 668.7 L 2519.4 674.2 L 2521.5 680.1 L 2522.9 680.7 L 2525.2 684.8 L 2524.9 686.3 L 2528.7 691.3 L 2531.7 696.8 L 2533.1 697.2 L 2535.9 701 L 2535.9 702.4 L 2540.3 706.9 L 2544.1 711.9 L 2545.5 712.1 L 2548.9 715.4 L 2549.1 716.9 L 2554.1 720.6 L 2558.5 725 L 2560 725 L 2563.8 727.9 L 2564.2 729.3 L 2569.7 732.3 L 2574.7 736 L 2576.1 735.8 L 2580.3 738.1 L 2580.9 739.4 L 2586.7 741.6 L 2592.2 744.6 L 2593.6 744.2 L 2598.1 745.8 L 2598.9 747.1 L 2605 748.4 L 2610.8 750.6 L 2612.2 750 L 2616.8 751 L 2617.8 752.1 L 2624 752.5 L 2630.1 753.9 L 2631.3 753.1 L 2635.3 753.3 L 2635.8 753.9 L 2642.7 753.9 L 2649.6 754.4 L 2650.2 753.9 L 2782.7 753.9 L 2782.7 1623 L 2650.2 1623 L 2649.6 1622.5 L 2642.7 1623 L 2635.8 1623 L 2635.3 1623.5 L 2631.3 1623.8 L 2630.1 1623 L 2624 1624.3 L 2617.8 1624.8 L 2616.8 1625.9 L 2612.2 1626.9 L 2610.8 1626.3 L 2605 1628.5 L 2598.9 1629.8 L 2598.1 1631 L 2593.6 1632.7 L 2592.2 1632.3 L 2586.7 1635.3 L 2580.9 1637.4 L 2580.3 1638.8 L 2576.1 1641.1 L 2574.7 1640.9 L 2569.7 1644.6 L 2564.2 1647.6 L 2563.8 1649 L 2560 1651.8 L 2558.5 1651.8 L 2554.1 1656.2 L 2549.1 1660 L 2548.9 1661.5 L 2545.5 1664.8 L 2544.1 1665 L 2540.3 1670 L 2535.9 1674.4 L 2535.9 1675.9 L 2533.1 1679.7 L 2531.7 1680.1 L 2528.7 1685.6 L 2524.9 1690.6 L 2525.2 1692 L 2522.9 1696.2 L 2521.5 1696.8 L 2519.4 1702.7 L 2516.4 1708.1 L 2516.8 1709.5 L 2515.1 1714 L 2513.9 1714.8 L 2512.6 1720.9 L 2510.4 1726.7 L 2511 1728.1 L 2510 1732.7 L 2508.9 1733.7 L 2508.4 1739.9 L 2507.1 1746 L 2507.9 1747.2 L 2507.6 1751.2 L 2507.1 1751.8 L 2507.1 1758.6 L 2506.6 1765.5 L 2507.1 1766.1 L 2507.1 1898.6 L 732.4 1898.6 L 732.4 1766.1 L 732.9 1765.5 L 732.4 1758.6 L 732.4 1751.8 L 731.9 1751.2 L 731.6 1747.2 L 732.4 1746 L 731.1 1739.9 L 730.7 1733.7 L 729.5 1732.7 L 728.5 1728.1 L 729.2 1726.7 L 727 1720.9 L 725.6 1714.8 L 724.4 1714 L 722.7 1709.5 L 723.2 1708.1 L 720.2 1702.7 L 718 1696.8 L 716.6 1696.2 L 714.4 1692 L 714.6 1690.6 L 710.8 1685.6 L 707.9 1680.1 L 706.4 1679.7 L 703.6 1675.9 L 703.6 1674.4 L 699.2 1670 L 695.5 1665 L 694 1664.8 L 690.6 1661.5 L 690.4 1660 L 685.4 1656.2 L 681 1651.8 L 679.5 1651.8 L 675.8 1649 L 675.3 1647.6 L 669.9 1644.6 L 664.9 1640.9 L 663.4 1641.1 L 659.2 1638.8 L 658.6 1637.4 L 652.8 1635.3 L 647.3 1632.3 L 645.9 1632.7 L 641.5 1631 L 640.7 1629.8 L 634.6 1628.5 L 628.7 1626.3 L 627.4 1626.9 L 622.7 1625.9 L 621.8 1624.8 L 615.5 1624.3 L 609.5 1623 L 608.2 1623.8 L 604.2 1623.5 L 603.7 1623 L 596.8 1623 L 589.9 1622.5 L 589.4 1623 L 456.9 1623 L 456.9 753.9 L 589.4 753.9 L 589.9 754.4 L 596.8 753.9 L 603.7 753.9 L 604.2 753.3 L 608.2 753.1 L 609.5 753.9 L 615.5 752.5 L 621.8 752.1 L 622.7 751 L 627.4 750 L 628.7 750.6 L 634.6 748.4 L 640.7 747.1 L 641.5 745.8 L 645.9 744.2 L 647.3 744.6 L 652.8 741.6 L 658.6 739.4 L 659.2 738.1 L 663.4 735.8 L 664.9 736 L 669.9 732.3 L 675.3 729.3 L 675.8 727.9 L 679.5 725 L 681 725 L 685.4 720.6 L 690.4 716.9 L 690.6 715.4 L 694 712.1 L 695.5 711.9 L 699.2 706.9 L 703.6 702.4 L 703.6 701 L 706.4 697.2 L 707.9 696.8 L 710.8 691.3 L 714.6 686.3 L 714.4 684.8 L 716.6 680.7 L 718 680.1 L 720.2 674.2 L 723.2 668.7 L 722.7 667.3 L 724.4 662.9 L 725.6 662.1 L 727 656 L 729.2 650.1 L 728.5 648.8 L 729.5 644.2 L 730.7 643.2 L 731.1 637 L 732.4 630.9 L 731.6 629.6 L 731.9 625.6 L 732.4 625.1 L 732.4 618.2 L 732.9 611.3 L 732.4 610.8 M 732.7 614.1 L 1369.8 614.1 M 1369.8 602.3 L 732.4 602.3 M 732.4 590.4 L 1369.8 590.4 M 1369.8 578.6 L 732.4 578.6 M 732.4 566.7 L 1369.8 566.7 M 1369.8 558.4 L 1380.3 547.9 L 1459.2 547.9 L 1469.8 558.4 L 1469.8 637.3 L 1459.2 647.9 L 1380.3 647.9 L 1369.8 637.3 L 1369.8 558.4 M 1373.3 554.9 L 732.4 554.9 M 732.4 543 L 2252.2 543 M 2258.8 536.4 L 2267.7 532.7 L 2396.7 532.7 L 2405.5 536.4 L 2483.3 614.1 L 2486.9 623 L 2486.9 938.4 L 2555.7 938.4 L 2566.2 949 L 2566.2 1027.9 L 2555.7 1038.4 L 2486.9 1038.4 L 2486.9 1047 L 2495.5 1038.4 L 2536.9 1038.4 L 2566.2 1067.7 L 2566.2 1109.1 L 2536.9 1138.4 L 2495.5 1138.4 L 2486.9 1129.8 L 2486.9 1141 L 2486.9 1145.7 L 2486.9 1145.8 L 2486.9 1145.9 L 2486.1 1147.8 L 2495.5 1138.4 L 2536.9 1138.4 L 2566.2 1167.7 L 2566.2 1209.1 L 2536.9 1238.4 L 2499.7 1238.4 L 2499.7 1238.4 L 2536.9 1238.4 L 2566.2 1267.7 L 2566.2 1309.1 L 2536.9 1338.4 L 2495.5 1338.4 L 2466.2 1309.1 L 2436.9 1338.4 L 2414.1 1338.4 L 2412.1 1340.4 L 2412.2 1340.4 L 2412.2 1384.4 L 2420.2 1384.4 L 2420.2 1340.4 L 2436.1 1340.4 L 2464.2 1368.6 L 2464.2 1384.4 L 2466.2 1384.4 M 2464.2 1384.4 L 2420.2 1384.4 L 2412.2 1384.4 L 2368.2 1384.4 L 2367.9 1384.4 M 2368.2 1384.4 L 2368.2 1384.1 L 2343.9 1408.3 L 2343.9 1495.6 L 2338.7 1508.1 L 2267.5 1579.3 L 2257.9 1588.9 L 2245.4 1594.1 L 2205.9 1594.1 L 2196.2 1598.1 L 2181.1 1598.1 L 2171.4 1594.1 L 1396.7 1594.1 L 1394.3 1596.5 L 1378.5 1603.1 L 1361.4 1603.1 L 1345.6 1596.5 L 1333.5 1584.4 L 1326.9 1568.6 L 1326.9 1551.5 L 1333.5 1535.7 L 1345.6 1523.6 L 1361.4 1517.1 L 1378.5 1517.1 L 1394.3 1523.6 L 1396.7 1526.1 L 2171.4 1526.1 L 2181.1 1522.1 L 2196.2 1522.1 L 2205.9 1526.1 L 2224.6 1526.1 L 2275.9 1474.8 L 2275.9 1400.8 L 2275.9 1400.8 L 2275.9 1394.1 L 2275.9 1387.3 L 2275.9 1387.2 L 2278.5 1381.1 L 2281.1 1374.9 L 2281.1 1374.8 L 2281.1 1374.8 L 2285.9 1370 L 2290.7 1365.3 L 2366.2 1290.2 L 2366.2 1267.7 L 2369.9 1264.1 L 2265.7 1264.1 L 2258 1271.8 L 2244 1277.6 L 2228.9 1277.6 L 2214.9 1271.8 L 2204.2 1261.1 L 2198.5 1247.2 L 2198.5 1232.1 L 2204.2 1218.1 L 2214.9 1207.4 L 2228.9 1201.6 L 2244 1201.6 L 2258 1207.4 L 2266.7 1216.1 L 2373.2 1216.1 L 2366.2 1209.1 L 2366.2 1167.7 L 2395.5 1138.4 L 2369.5 1112.4 L 2088.4 1112.4 L 2079.6 1108.8 L 2072.8 1102 L 2009.4 1038.7 L 2009.4 1044.3 L 2003.7 1058.3 L 1993 1069 L 1979 1074.7 L 1963.9 1074.7 L 1949.9 1069 L 1941.7 1060.7 L 1857.7 1060.7 L 1848.8 1057.1 L 1716.5 924.7 L 1704.9 924.7 L 1690.9 919 L 1680.2 908.3 L 1674.4 894.3 L 1674.4 879.2 L 1680.2 865.2 L 1690.9 854.5 L 1704.9 848.7 L 1720 848.7 L 1734 854.5 L 1744.7 865.2 L 1750.4 879.2 L 1750.4 890.8 L 1872.4 1012.7 L 1941.7 1012.7 L 1949.9 1004.5 L 1963.9 998.7 L 1969.5 998.7 L 1956.5 985.7 L 1944.9 985.7 L 1930.9 979.9 L 1920.2 969.2 L 1914.4 955.3 L 1914.4 946.3 L 1904.3 950.5 L 1889.1 950.5 L 1875.2 944.7 L 1864.5 934 L 1858.7 920 L 1858.7 905.4 L 1850 909 L 1834.9 909 L 1820.9 903.2 L 1810.2 892.5 L 1804.4 878.6 L 1804.4 863.4 L 1810.2 849.5 L 1820.9 838.8 L 1834.9 833 L 1850 833 L 1864 838.8 L 1872.2 847 L 1969.3 847 L 1978.2 850.6 L 1984.9 857.4 L 2060.3 932.7 L 2179.2 932.7 L 2175.7 924.3 L 2175.7 909.2 L 2181.5 895.2 L 2189.9 886.8 L 2189.9 850.6 L 2193.6 841.7 L 2200.3 835 L 2210.9 824.4 L 2210.9 785.2 L 2200 789.7 L 2191.2 789.7 L 2187.2 793.8 L 2177.6 797.7 L 1311.3 797.7 L 1320.9 807.3 L 1326.7 821.3 L 1326.7 832.9 L 1412.8 919 L 1416.4 927.8 L 1416.4 1222 L 1424.7 1230.2 L 1430.4 1244.2 L 1430.4 1259.3 L 1424.7 1273.3 L 1414 1284 L 1400 1289.7 L 1384.9 1289.7 L 1370.9 1284 L 1360.2 1273.3 L 1354.4 1259.3 L 1354.4 1244.2 L 1360.2 1230.2 L 1368.4 1222 L 1368.4 942.6 L 1292.7 866.8 L 1281.1 866.8 L 1267.1 861.1 L 1256.4 850.4 L 1250.7 836.4 L 1250.7 821.3 L 1256.4 807.3 L 1266 797.7 L 1108.2 797.7 L 1070.4 835.5 L 1070.4 844.3 L 1064.7 858.3 L 1054 869 L 1040 874.7 L 1024.9 874.7 L 1010.9 869 L 1000.2 858.3 L 994.4 844.3 L 994.4 829.2 L 1000.2 815.2 L 1010.9 804.5 L 1024.9 798.7 L 1033.7 798.7 L 1075.4 757 L 1081.7 750.7 L 806.5 750.7 L 606.9 950.4 L 606.9 1430.6 L 677.5 1501.2 L 681 1501.2 L 696.8 1507.8 L 708.9 1519.9 L 715.4 1535.7 L 715.4 1552.8 L 708.9 1568.6 L 696.8 1580.7 L 681 1587.2 L 663.9 1587.2 L 648.1 1580.7 L 636 1568.6 L 629.4 1552.8 L 629.4 1549.3 L 553.7 1473.5 L 544.1 1464 L 538.9 1451.5 L 538.9 929.5 L 544.1 917 L 553.7 907.4 L 773.2 687.9 L 785.7 682.7 L 1426 682.7 L 1480 628.8 L 1469.8 618.6 L 1469.8 577.2 L 1499.1 547.9 L 1540.5 547.9 L 1569.8 577.2 L 1569.8 618.6 L 1553.8 634.6 L 1553.8 643.8 L 1548.6 656.3 L 1539 665.9 L 1459.3 745.6 L 1458.9 745.7 L 1947.7 745.7 L 1940.2 738.3 L 1934.4 724.3 L 1934.4 709.2 L 1940.2 695.2 L 1949.3 686.1 L 1944.4 674.3 L 1944.4 659.2 L 1950.2 645.2 L 1960.9 634.5 L 1974.9 628.7 L 1990 628.7 L 2004 634.5 L 2012.2 642.7 L 2132.7 642.7 L 2140.9 634.5 L 2154.9 628.7 L 2166.5 628.7 L 2258.8 536.4 M 2272.4 556.7 L 2162.4 666.7 L 1982.4 666.7 M 1948.4 649.7 L 1551.3 649.7 M 1553.8 637.8 L 1591.8 637.8 M 1599.9 645.9 L 1571.8 617.8 L 1571.8 601.9 L 1615.8 601.9 L 1615.8 645.9 L 1599.9 645.9 M 1615.8 637.8 L 1623.8 637.8 M 1623.8 645.9 L 1623.8 601.9 L 1667.8 601.9 L 1667.8 617.8 L 1639.6 645.9 L 1623.8 645.9 M 1623.8 626 L 1615.8 626 M 1615.8 614.1 L 1623.8 614.1 M 1623.8 602.3 L 1615.8 602.3 M 1615.8 601.9 L 1623.8 601.9 L 1623.8 593.9 L 1667.8 593.9 L 1667.8 578 L 1639.6 549.9 L 1623.8 549.9 L 1623.8 593.9 L 1615.8 593.9 L 1615.8 549.9 L 1599.9 549.9 L 1571.8 578 L 1571.8 593.9 L 1615.8 593.9 L 1615.8 601.9 M 1615.8 590.4 L 1623.8 590.4 M 1623.8 578.6 L 1615.8 578.6 M 1615.8 566.7 L 1623.8 566.7 M 1623.8 554.9 L 1615.8 554.9 M 1594.9 554.9 L 1547.5 554.9 M 1559.3 566.7 L 1583 566.7 M 1571.8 578.6 L 1569.8 578.6 M 1569.8 590.4 L 1571.8 590.4 M 1571.8 602.3 L 1569.8 602.3 M 1569.8 614.1 L 1571.8 614.1 M 1580 626 L 1562.4 626 M 1543.4 661.5 L 1944.4 661.5 M 1944.4 673.4 L 1531.5 673.4 M 1519.7 685.2 L 1949 685.2 M 1939.5 697.1 L 1507.8 697.1 M 1496 708.9 L 1934.5 708.9 M 1934.4 720.8 L 1484.1 720.8 M 1472.3 732.6 L 1937.9 732.6 M 1946.4 744.5 L 1460.4 744.5 M 1435.3 673.4 L 720.6 673.4 M 725.8 661.5 L 1447.2 661.5 M 1459 649.7 L 728.9 649.7 M 731 637.8 L 1370.3 637.8 M 1369.8 626 L 731.9 626 M 714.4 685.2 L 779.6 685.2 M 764 697.1 L 706.7 697.1 M 697.6 708.9 L 752.2 708.9 M 740.3 720.8 L 685.3 720.8 M 669.4 732.6 L 728.5 732.6 M 716.6 744.5 L 647.5 744.5 M 647 744.5 L 645 744.5 M 681.1 780 L 456.9 780 M 456.9 768.2 L 692.9 768.2 M 704.8 756.3 L 456.9 756.3 M 456.9 791.9 L 669.2 791.9 M 657.4 803.7 L 456.9 803.7 M 456.9 815.6 L 645.5 815.6 M 633.7 827.4 L 456.9 827.4 M 456.9 839.3 L 621.8 839.3 M 610 851.1 L 456.9 851.1 M 456.9 863 L 598.1 863 M 586.3 874.8 L 456.9 874.8 M 456.9 886.7 L 574.4 886.7 M 562.6 898.5 L 456.9 898.5 M 456.9 910.4 L 550.7 910.4 M 541.9 922.2 L 456.9 922.2 M 456.9 934.1 L 538.9 934.1 M 538.9 945.9 L 456.9 945.9 M 456.9 957.8 L 538.9 957.8 M 538.9 969.6 L 456.9 969.6 M 456.9 981.5 L 538.9 981.5 M 538.9 993.3 L 456.9 993.3 M 456.9 1005.2 L 538.9 1005.2 M 538.9 1017 L 456.9 1017 M 456.9 1028.9 L 538.9 1028.9 M 538.9 1040.7 L 456.9 1040.7 M 456.9 1052.6 L 538.9 1052.6 M 538.9 1064.4 L 456.9 1064.4 M 456.9 1076.3 L 538.9 1076.3 M 538.9 1088.1 L 456.9 1088.1 M 456.9 1100 L 538.9 1100 M 538.9 1111.8 L 456.9 1111.8 M 456.9 1123.7 L 538.9 1123.7 M 538.9 1135.5 L 456.9 1135.5 M 456.9 1147.4 L 538.9 1147.4 M 538.9 1159.2 L 456.9 1159.2 M 456.9 1171.1 L 538.9 1171.1 M 538.9 1182.9 L 456.9 1182.9 M 456.9 1194.8 L 538.9 1194.8 M 538.9 1206.6 L 456.9 1206.6 M 456.9 1218.5 L 538.9 1218.5 M 538.9 1230.3 L 456.9 1230.3 M 456.9 1242.2 L 538.9 1242.2 M 538.9 1254 L 456.9 1254 M 456.9 1265.9 L 538.9 1265.9 M 538.9 1277.7 L 456.9 1277.7 M 456.9 1289.6 L 538.9 1289.6 M 538.9 1301.4 L 456.9 1301.4 M 456.9 1313.3 L 538.9 1313.3 M 538.9 1325.1 L 456.9 1325.1 M 456.9 1337 L 538.9 1337 M 538.9 1348.8 L 456.9 1348.8 M 456.9 1360.7 L 538.9 1360.7 M 538.9 1372.5 L 456.9 1372.5 M 456.9 1384.4 L 538.9 1384.4 M 538.9 1396.2 L 456.9 1396.2 M 456.9 1408.1 L 538.9 1408.1 M 538.9 1419.9 L 456.9 1419.9 M 456.9 1431.8 L 538.9 1431.8 M 538.9 1443.6 L 456.9 1443.6 M 456.9 1455.5 L 540.6 1455.5 M 547.5 1467.3 L 456.9 1467.3 M 456.9 1479.2 L 559.3 1479.2 M 571.2 1491 L 456.9 1491 M 456.9 1502.9 L 583 1502.9 M 594.9 1514.7 L 456.9 1514.7 M 456.9 1526.6 L 606.7 1526.6 M 618.6 1538.4 L 456.9 1538.4 M 456.9 1550.3 L 629.4 1550.3 M 633.3 1562.1 L 456.9 1562.1 M 456.9 1574 L 641.4 1574 M 660.5 1585.8 L 456.9 1585.8 M 456.9 1597.7 L 990.3 1597.7 M 990.2 1597.7 L 996.6 1591.3 L 996.9 1556.2 L 996.9 1402.2 L 1000.9 1392.6 L 1047.9 1345.6 L 1047.9 1180.1 L 1032.7 1164.9 L 1025.4 1157.6 L 1021.4 1148 L 1021.4 1144.5 L 1015.2 1138.3 L 1009.4 1124.3 L 1009.4 1109.2 L 1015.2 1095.2 L 1025.9 1084.5 L 1033.4 1081.4 L 1025.2 1073.3 L 1019.4 1059.3 L 1019.4 1044.2 L 1025.2 1030.2 L 1035.9 1019.5 L 1049.9 1013.7 L 1065 1013.7 L 1079 1019.5 L 1089.7 1030.2 L 1095.4 1044.2 L 1095.4 1055.8 L 1121 1081.4 L 1127.8 1088.1 L 1368.4 1088.1 M 1368.4 1076.3 L 1115.9 1076.3 M 1104.1 1064.4 L 1368.4 1064.4 M 1368.4 1052.6 L 1095.4 1052.6 M 1094 1040.7 L 1368.4 1040.7 M 1368.4 1028.9 L 1088.3 1028.9 M 1073 1017 L 1368.4 1017 M 1368.4 1005.2 L 606.9 1005.2 M 606.9 1017 L 1041.9 1017 M 1026.6 1028.9 L 606.9 1028.9 M 606.9 1040.7 L 1020.9 1040.7 M 1019.4 1052.6 L 606.9 1052.6 M 606.9 1064.4 L 1021.6 1064.4 M 1028.2 1076.3 L 670.3 1076.3 M 665.6 1071.5 L 675.6 1081.6 L 681.1 1094.7 L 681.1 1108.9 L 675.6 1122.1 L 665.6 1132.1 L 652.5 1137.5 L 638.2 1137.5 L 625.1 1132.1 L 615.1 1122.1 L 609.6 1108.9 L 609.6 1094.7 L 615.1 1081.6 L 625.1 1071.5 L 638.2 1066.1 L 652.5 1066.1 L 665.6 1071.5 M 678.3 1088.1 L 1022.3 1088.1 M 1013.2 1100 L 681.1 1100 M 679.9 1111.8 L 1009.4 1111.8 M 1009.4 1123.7 L 674 1123.7 M 657.3 1135.5 L 1014.1 1135.5 M 1021.4 1147.4 L 606.9 1147.4 M 606.9 1159.2 L 1027 1159.2 M 1038.9 1171.1 L 606.9 1171.1 M 606.9 1182.9 L 1047.9 1182.9 M 1047.9 1194.8 L 606.9 1194.8 M 606.9 1206.6 L 1047.9 1206.6 M 1047.9 1218.5 L 606.9 1218.5 M 606.9 1230.3 L 1047.9 1230.3 M 1047.9 1242.2 L 659.4 1242.2 M 665.6 1244.8 L 675.6 1254.8 L 681.1 1267.9 L 681.1 1282.2 L 675.6 1295.3 L 665.6 1305.3 L 652.5 1310.8 L 638.2 1310.8 L 625.1 1305.3 L 615.1 1295.3 L 609.6 1282.2 L 609.6 1267.9 L 615.1 1254.8 L 625.1 1244.8 L 638.2 1239.3 L 652.5 1239.3 L 665.6 1244.8 M 674.9 1254 L 1047.9 1254 M 1047.9 1265.9 L 680.2 1265.9 M 681.1 1277.7 L 1047.9 1277.7 M 1047.9 1289.6 L 678 1289.6 M 669.5 1301.4 L 1047.9 1301.4 M 1047.9 1313.3 L 606.9 1313.3 M 606.9 1325.1 L 1047.9 1325.1 M 1047.9 1337 L 606.9 1337 M 606.9 1348.8 L 1044.6 1348.8 M 1032.8 1360.7 L 606.9 1360.7 M 606.9 1372.5 L 1020.9 1372.5 M 1009.1 1384.4 L 606.9 1384.4 M 606.9 1396.2 L 999.4 1396.2 M 996.9 1408.1 L 606.9 1408.1 M 606.9 1419.9 L 996.9 1419.9 M 996.9 1431.8 L 608.1 1431.8 M 619.9 1443.6 L 996.9 1443.6 M 996.9 1455.5 L 631.8 1455.5 M 643.6 1467.3 L 996.9 1467.3 M 996.9 1479.2 L 655.5 1479.2 M 667.3 1491 L 996.9 1491 M 996.9 1502.9 L 685 1502.9 M 703.8 1514.7 L 996.9 1514.7 M 996.9 1526.6 L 711.7 1526.6 M 715.4 1538.4 L 996.9 1538.4 M 996.9 1550.3 L 715.4 1550.3 M 711.6 1562.1 L 996.9 1562.1 M 996.8 1574 L 703.5 1574 M 684.4 1585.8 L 996.7 1585.8 M 990.2 1597.7 L 984.4 1611.7 L 984.4 1626.8 L 990.2 1640.8 L 1000.9 1651.5 L 1014.9 1657.2 L 1030 1657.2 L 1044 1651.5 L 1054.7 1640.8 L 1060.4 1626.8 L 1060.4 1611.7 L 1054.7 1597.7 L 1048.6 1591.7 L 1048.9 1561.5 L 1048.9 1561.4 L 1048.9 1556.4 L 1049 1551.3 L 1048.9 1551.2 L 1048.9 1418.1 L 1083.4 1383.6 L 1083.4 1614 L 1087.1 1622.8 L 1229.3 1765 L 1236.1 1771.8 L 1244.9 1775.4 L 1294.7 1775.4 L 1303 1783.6 L 1306 1784.9 L 1303 1786.1 L 1292.3 1796.8 L 1286.5 1810.8 L 1286.5 1825.9 L 1292.3 1839.9 L 1303 1850.6 L 1316.9 1856.4 L 1332 1856.4 L 1342.5 1852 L 1350.5 1860 L 1412.7 1860 L 1422.9 1849.7 L 1433.2 1860 L 1495.3 1860 L 1505.9 1849.4 L 1505.9 1787.3 L 1695.5 1787.3 M 1696.7 1786.1 L 1710.6 1780.4 L 1725.7 1780.4 L 1736.2 1784.7 L 1744.2 1776.7 L 1806.4 1776.7 L 1816.9 1787.3 L 1820.2 1787.3 M 1819.4 1788.6 L 1821.5 1784.9 L 1824.5 1781.9 L 1828.2 1779.8 L 1832.2 1778.7 L 1852.1 1778.7 L 1852.1 1812.5 L 1863.8 1812.5 L 1863.8 1824.2 L 1852.1 1824.2 L 1852.1 1858 L 1832.2 1858 L 1828.2 1856.9 L 1824.5 1854.8 L 1821.5 1851.8 L 1819.4 1848.2 L 1818.3 1844.1 L 1818.3 1824.2 L 1852.1 1824.2 L 1852.1 1812.5 L 1818.3 1812.5 L 1818.3 1792.6 L 1819.4 1788.6 M 1816.9 1787.3 L 1816.9 1849.4 L 1806.4 1860 L 1744.2 1860 L 1736.2 1852 L 1725.7 1856.4 L 1710.6 1856.4 L 1696.7 1850.6 L 1686 1839.9 L 1680.2 1825.9 L 1680.2 1810.8 L 1686 1796.8 L 1696.7 1786.1 M 1685 1799.1 L 1505.9 1799.1 M 1505.9 1787.3 L 1495.3 1776.7 L 1474.3 1776.7 L 1428.6 1731.1 L 1419.8 1727.4 L 1354.2 1727.4 L 1346 1719.2 L 1332 1713.4 L 1316.9 1713.4 L 1303 1719.2 L 1294.7 1727.4 L 1259.6 1727.4 L 1131.4 1599.2 L 1131.4 1097 L 1127.8 1088.1 M 1131.4 1100 L 1368.4 1100 M 1368.4 1111.8 L 1131.4 1111.8 M 1131.4 1123.7 L 1368.4 1123.7 M 1368.4 1135.5 L 1131.4 1135.5 M 1131.4 1147.4 L 1368.4 1147.4 M 1368.4 1159.2 L 1131.4 1159.2 M 1131.4 1171.1 L 1368.4 1171.1 M 1368.4 1182.9 L 1131.4 1182.9 M 1131.4 1194.8 L 1368.4 1194.8 M 1368.4 1206.6 L 1131.4 1206.6 M 1131.4 1218.5 L 1368.4 1218.5 M 1360.2 1230.3 L 1131.4 1230.3 M 1131.4 1242.2 L 1355.3 1242.2 M 1354.4 1254 L 1131.4 1254 M 1131.4 1265.9 L 1357.2 1265.9 M 1364.7 1277.7 L 1131.4 1277.7 M 1131.4 1289.6 L 1384.5 1289.6 M 1400.4 1289.6 L 1668.5 1289.6 M 1668.9 1289.7 L 1653.1 1283.2 L 1641 1271.1 L 1634.4 1255.3 L 1634.4 1246.2 L 1592 1203.7 L 1587.4 1192.7 L 1587.4 1004.2 L 1548 964.7 L 1538.9 964.7 L 1523.1 958.2 L 1511 946.1 L 1504.4 930.3 L 1504.4 913.2 L 1511 897.4 L 1523.1 885.3 L 1538.9 878.7 L 1556 878.7 L 1571.8 885.3 L 1583.9 897.4 L 1590.4 913.2 L 1590.4 922.3 L 1634.4 966.3 L 1642.9 974.7 L 1647.4 985.8 L 1647.4 1174.3 L 1676.9 1203.7 L 1686 1203.7 L 1701.8 1210.3 L 1713.9 1222.4 L 1720.4 1238.2 L 1720.4 1255.3 L 1713.9 1271.1 L 1701.8 1283.2 L 1686 1289.7 L 1668.9 1289.7 M 1686.4 1289.6 L 2366.2 1289.6 M 2366.2 1277.7 L 1707.3 1277.7 M 1716.1 1265.9 L 2209 1265.9 M 2201.3 1254 L 1720.4 1254 M 1720.4 1242.2 L 2198.5 1242.2 M 2199.2 1230.3 L 1717.2 1230.3 M 1710 1218.5 L 2204.1 1218.5 M 2216.8 1206.6 L 1693 1206.6 M 1667.9 1194.8 L 2366.2 1194.8 M 2366.2 1206.6 L 2256.1 1206.6 M 2243.9 1240.1 L 2236.5 1239.6 M 2243.9 1240.1 L 2467.2 1240.1 L 2516.2 1288.4 M 2566.2 1289.6 L 2782.7 1289.6 M 2782.7 1301.4 L 2566.2 1301.4 M 2562.1 1313.3 L 2782.7 1313.3 M 2782.7 1325.1 L 2550.2 1325.1 M 2538.4 1337 L 2782.7 1337 M 2782.7 1348.8 L 2547.3 1348.8 M 2536.9 1338.4 L 2495.5 1338.4 L 2466.2 1367.7 L 2466.2 1409.1 L 2495.5 1438.4 L 2536.9 1438.4 L 2566.2 1409.1 L 2566.2 1367.7 L 2536.9 1338.4 M 2559.2 1360.7 L 2782.7 1360.7 M 2782.7 1372.5 L 2566.2 1372.5 M 2566.2 1384.4 L 2782.7 1384.4 M 2782.7 1396.2 L 2566.2 1396.2 M 2566.2 1408.1 L 2782.7 1408.1 M 2782.7 1419.9 L 2555.4 1419.9 M 2543.6 1431.8 L 2782.7 1431.8 M 2782.7 1443.6 L 2343.9 1443.6 M 2343.9 1431.8 L 2391.7 1431.8 M 2396.3 1436.4 L 2368.2 1408.3 L 2368.2 1392.4 L 2412.2 1392.4 L 2412.2 1384.4 M 2420.2 1384.4 L 2420.2 1392.4 L 2464.2 1392.4 L 2464.2 1408.3 L 2436.1 1436.4 L 2420.2 1436.4 L 2420.2 1392.4 L 2412.2 1392.4 L 2412.2 1436.4 L 2396.3 1436.4 M 2412.2 1431.8 L 2420.2 1431.8 M 2420.2 1419.9 L 2412.2 1419.9 M 2412.2 1408.1 L 2420.2 1408.1 M 2420.2 1396.2 L 2412.2 1396.2 M 2412.2 1372.5 L 2420.2 1372.5 M 2420.2 1360.7 L 2412.2 1360.7 M 2412.2 1348.8 L 2420.2 1348.8 M 2438.4 1337 L 2494.1 1337 M 2485.1 1348.8 L 2444.5 1348.8 M 2456.4 1360.7 L 2473.3 1360.7 M 2466.2 1372.5 L 2464.2 1372.5 M 2464.2 1396.2 L 2466.2 1396.2 M 2466.2 1408.1 L 2464.2 1408.1 M 2452.6 1419.9 L 2477 1419.9 M 2488.9 1431.8 L 2440.7 1431.8 M 2379.8 1419.9 L 2343.9 1419.9 M 2344.1 1408.1 L 2368.2 1408.1 M 2368.2 1396.2 L 2356 1396.2 M 2283.4 1372.5 L 1131.4 1372.5 M 1131.4 1360.7 L 2295.3 1360.7 M 2290.7 1365.3 L 2290.7 1365.3 M 2307.2 1348.8 L 1131.4 1348.8 M 1131.4 1337 L 2319.1 1337 M 2331.1 1325.1 L 1131.4 1325.1 M 1131.4 1313.3 L 2343 1313.3 M 2354.9 1301.4 L 1131.4 1301.4 M 1131.4 1384.4 L 2277.1 1384.4 M 2275.9 1387.3 L 2275.9 1387.3 M 2275.9 1396.2 L 1131.4 1396.2 M 1131.4 1408.1 L 2275.9 1408.1 M 2275.9 1419.9 L 1131.4 1419.9 M 1131.4 1431.8 L 2275.9 1431.8 M 2275.9 1443.6 L 1131.4 1443.6 M 1131.4 1455.5 L 2275.9 1455.5 M 2275.9 1467.3 L 1131.4 1467.3 M 1131.4 1479.2 L 2271.5 1479.2 M 2259.6 1491 L 1131.4 1491 M 1131.4 1502.9 L 2247.8 1502.9 M 2235.9 1514.7 L 1131.4 1514.7 M 1131.4 1526.6 L 1342.6 1526.6 M 1332.3 1538.4 L 1131.4 1538.4 M 1131.4 1550.3 L 1327.4 1550.3 M 1326.9 1562.1 L 1131.4 1562.1 M 1131.4 1574 L 1329.1 1574 M 1334.9 1585.8 L 1131.4 1585.8 M 1131.4 1597.7 L 1348.3 1597.7 M 1391.5 1597.7 L 2180.1 1597.7 M 2197.2 1597.7 L 2782.7 1597.7 M 2782.7 1609.5 L 1141.7 1609.5 M 1153.6 1621.4 L 2782.7 1621.4 M 2782.7 1585.8 L 2261 1585.8 M 2272.8 1574 L 2782.7 1574 M 2782.7 1562.1 L 2284.7 1562.1 M 2296.5 1550.3 L 2782.7 1550.3 M 2782.7 1538.4 L 2308.4 1538.4 M 2320.2 1526.6 L 2782.7 1526.6 M 2782.7 1514.7 L 2332.1 1514.7 M 2340.9 1502.9 L 2782.7 1502.9 M 2782.7 1491 L 2343.9 1491 M 2343.9 1479.2 L 2782.7 1479.2 M 2782.7 1467.3 L 2343.9 1467.3 M 2343.9 1455.5 L 2782.7 1455.5 M 2782.7 1277.7 L 2566.2 1277.7 M 2564.4 1265.9 L 2782.7 1265.9 M 2782.7 1254 L 2552.5 1254 M 2540.7 1242.2 L 2782.7 1242.2 M 2782.7 1230.3 L 2545 1230.3 M 2556.9 1218.5 L 2782.7 1218.5 M 2782.7 1206.6 L 2566.2 1206.6 M 2566.2 1194.8 L 2782.7 1194.8 M 2782.7 1182.9 L 2566.2 1182.9 M 2566.2 1171.1 L 2782.7 1171.1 M 2782.7 1159.2 L 2557.7 1159.2 M 2545.9 1147.4 L 2782.7 1147.4 M 2782.7 1135.5 L 2539.8 1135.5 M 2551.7 1123.7 L 2782.7 1123.7 M 2782.7 1111.8 L 2563.5 1111.8 M 2566.2 1100 L 2782.7 1100 M 2782.7 1088.1 L 2566.2 1088.1 M 2566.2 1076.3 L 2782.7 1076.3 M 2782.7 1064.4 L 2562.9 1064.4 M 2551.1 1052.6 L 2782.7 1052.6 M 2782.7 1040.7 L 2539.2 1040.7 M 2565.2 1028.9 L 2782.7 1028.9 M 2782.7 1017 L 2566.2 1017 M 2566.2 1005.2 L 2782.7 1005.2 M 2782.7 993.3 L 2566.2 993.3 M 2566.2 981.5 L 2782.7 981.5 M 2782.7 969.6 L 2566.2 969.6 M 2566.2 957.8 L 2782.7 957.8 M 2782.7 945.9 L 2563.2 945.9 M 2486.9 934.1 L 2782.7 934.1 M 2782.7 922.2 L 2486.9 922.2 M 2486.9 910.4 L 2782.7 910.4 M 2782.7 898.5 L 2486.9 898.5 M 2486.9 886.7 L 2782.7 886.7 M 2782.7 874.8 L 2486.9 874.8 M 2486.9 863 L 2782.7 863 M 2782.7 851.1 L 2486.9 851.1 M 2486.9 839.3 L 2782.7 839.3 M 2782.7 827.4 L 2486.9 827.4 M 2486.9 815.6 L 2782.7 815.6 M 2782.7 803.7 L 2486.9 803.7 M 2486.9 791.9 L 2782.7 791.9 M 2782.7 780 L 2486.9 780 M 2486.9 768.2 L 2782.7 768.2 M 2782.7 756.3 L 2486.9 756.3 M 2486.9 744.5 L 2592 744.5 M 2592.6 744.5 L 2594.5 744.5 M 2570.2 732.6 L 2486.9 732.6 M 2486.9 720.8 L 2554.3 720.8 M 2541.9 708.9 L 2486.9 708.9 M 2486.9 697.1 L 2532.8 697.1 M 2525.1 685.2 L 2486.9 685.2 M 2486.9 673.4 L 2518.9 673.4 M 2513.8 661.5 L 2486.9 661.5 M 2486.9 649.7 L 2510.6 649.7 M 2508.5 637.8 L 2486.9 637.8 M 2486.9 626 L 2507.6 626 M 2506.8 614.1 L 2483.3 614.1 M 2471.4 602.3 L 2507.1 602.3 M 2507.1 590.4 L 2459.6 590.4 M 2447.7 578.6 L 2507.1 578.6 M 2507.1 566.7 L 2435.9 566.7 M 2424 554.9 L 2507.1 554.9 M 2507.1 543 L 2412.2 543 M 2391.9 556.7 L 2462.9 627.7 L 2462.9 1141.1 L 2416.2 1188.4 M 2366.2 1182.9 L 1656.1 1182.9 M 1647.4 1171.1 L 2366.2 1171.1 M 2374.7 1159.2 L 1647.4 1159.2 M 1647.4 1147.4 L 2386.6 1147.4 M 2395.5 1138.4 L 2431.8 1138.4 L 2431.8 1138.4 L 2395.5 1138.4 M 2392.6 1135.5 L 1647.4 1135.5 M 1647.4 1123.7 L 2380.8 1123.7 M 2416.2 1088.4 L 2093.1 1088.4 L 1952.4 947.7 M 1934.7 981.5 L 1841.1 981.5 M 1829.3 969.6 L 1920.6 969.6 M 1915.5 957.8 L 1817.4 957.8 M 1805.6 945.9 L 1878.1 945.9 M 1864.6 934.1 L 1793.7 934.1 M 1781.9 922.2 L 1859.6 922.2 M 1858.7 910.4 L 1770 910.4 M 1758.2 898.5 L 1816.2 898.5 M 1807.8 886.7 L 1750.4 886.7 M 1748.6 874.8 L 1804.4 874.8 M 1804.6 863 L 1742.4 863 M 1725.8 851.1 L 1809.5 851.1 M 1820.4 839.3 L 1333.1 839.3 M 1326.7 827.4 L 2207.9 827.4 M 2210.9 815.6 L 1324.3 815.6 M 1317.3 803.7 L 2210.9 803.7 M 2210.9 791.9 L 2189.1 791.9 M 2196 839.3 L 1864.5 839.3 M 1842.4 871 L 1964.6 871 L 2050.3 956.7 L 2235.6 956.7 L 2265.6 926.7 L 2353.9 926.7 L 2416.2 988.4 M 2486.9 1040.7 L 2493.2 1040.7 M 2492.6 1135.5 L 2486.9 1135.5 M 2486.3 1147.4 L 2486.6 1147.4 M 2466.2 1272.8 L 2466.2 1309.1 L 2466.2 1272.8 L 2466.2 1272.8 M 2466.2 1277.7 L 2466.2 1277.7 M 2466.2 1289.6 L 2466.2 1289.6 M 2466.2 1301.4 L 2466.2 1301.4 M 2462.1 1313.3 L 2470.4 1313.3 M 2482.2 1325.1 L 2450.2 1325.1 M 2368.1 1265.9 L 2263.9 1265.9 M 2086.9 1111.8 L 1647.4 1111.8 M 1647.4 1100 L 2070.8 1100 M 2058.9 1088.1 L 1647.4 1088.1 M 1647.4 1076.3 L 2047.1 1076.3 M 2035.2 1064.4 L 1997.5 1064.4 M 2006 1052.6 L 2023.4 1052.6 M 2011.5 1040.7 L 2009.4 1040.7 M 1971.4 1036.7 L 1862.4 1036.7 L 1712.4 886.7 M 1674.4 886.7 L 1573.2 886.7 M 1584.4 898.5 L 1676.2 898.5 M 1682.3 910.4 L 1589.3 910.4 M 1590.4 922.2 L 1698.8 922.2 M 1725.8 934.1 L 1602.2 934.1 M 1614.1 945.9 L 1737.7 945.9 M 1749.5 957.8 L 1625.9 957.8 M 1637.8 969.6 L 1761.4 969.6 M 1773.2 981.5 L 1645.7 981.5 M 1647.4 993.3 L 1785.1 993.3 M 1796.9 1005.2 L 1647.4 1005.2 M 1647.4 1017 L 1808.8 1017 M 1820.6 1028.9 L 1647.4 1028.9 M 1647.4 1040.7 L 1832.5 1040.7 M 1844.3 1052.6 L 1647.4 1052.6 M 1647.4 1064.4 L 1945.4 1064.4 M 1949.3 1005.2 L 1864.8 1005.2 M 1853 993.3 L 1964.1 993.3 M 2040.3 981.7 L 1961.1 902.5 L 1906.7 902.5 L 1896.7 912.5 M 1990.5 863 L 2189.9 863 M 2189.9 874.8 L 2002.4 874.8 M 2014.2 886.7 L 2189.9 886.7 M 2180.1 898.5 L 2026.1 898.5 M 2037.9 910.4 L 2175.7 910.4 M 2175.7 922.2 L 2049.8 922.2 M 2040.3 981.7 L 2290.6 981.7 M 2213.9 916.5 L 2213.7 916.7 M 2213.9 916.5 L 2213.9 855.3 L 2234.9 834.3 L 2234.9 732.3 L 2209.3 706.7 L 1982.4 706.7 L 1972.4 716.7 M 1957.6 637.8 L 1850.5 637.8 M 1840.5 647.9 L 1799.1 647.9 L 1769.8 618.6 L 1769.8 577.2 L 1799.1 547.9 L 1840.5 547.9 L 1869.8 577.2 L 1869.8 618.6 L 1840.5 647.9 M 1862.4 626 L 2169.3 626 M 2181.1 614.1 L 1869.8 614.1 M 1869.8 602.3 L 2193 602.3 M 2204.8 590.4 L 1869.8 590.4 M 1869.8 578.6 L 2216.7 578.6 M 2228.5 566.7 L 1859.3 566.7 M 1847.5 554.9 L 2240.4 554.9 M 2272.4 556.7 L 2391.9 556.7 M 2382.4 626.7 L 2382.4 738 L 2303.7 816.7 M 2263.7 794.6 L 2342.4 715.8 L 2342.4 676.7 M 2263.7 794.6 L 2263.7 866.7 M 2189.9 851.1 L 1978.7 851.1 M 1699.1 851.1 L 1344.9 851.1 M 1356.8 863 L 1682.5 863 M 1676.2 874.8 L 1368.6 874.8 M 1380.5 886.7 L 1521.7 886.7 M 1510.5 898.5 L 1392.3 898.5 M 1404.2 910.4 L 1505.6 910.4 M 1504.4 922.2 L 1414.1 922.2 M 1416.4 934.1 L 1506 934.1 M 1510.9 945.9 L 1416.4 945.9 M 1416.4 957.8 L 1522.7 957.8 M 1552.9 969.6 L 1416.4 969.6 M 1416.4 981.5 L 1564.8 981.5 M 1576.6 993.3 L 1416.4 993.3 M 1416.4 1005.2 L 1587.4 1005.2 M 1587.4 1017 L 1416.4 1017 M 1416.4 1028.9 L 1587.4 1028.9 M 1587.4 1040.7 L 1416.4 1040.7 M 1416.4 1052.6 L 1587.4 1052.6 M 1587.4 1064.4 L 1416.4 1064.4 M 1416.4 1076.3 L 1587.4 1076.3 M 1587.4 1088.1 L 1416.4 1088.1 M 1416.4 1100 L 1587.4 1100 M 1587.4 1111.8 L 1416.4 1111.8 M 1416.4 1123.7 L 1587.4 1123.7 M 1587.4 1135.5 L 1416.4 1135.5 M 1416.4 1147.4 L 1587.4 1147.4 M 1587.4 1159.2 L 1416.4 1159.2 M 1416.4 1171.1 L 1587.4 1171.1 M 1587.4 1182.9 L 1416.4 1182.9 M 1416.4 1194.8 L 1588.3 1194.8 M 1594.9 1206.6 L 1416.4 1206.6 M 1416.4 1218.5 L 1606.8 1218.5 M 1618.6 1230.3 L 1424.7 1230.3 M 1429.6 1242.2 L 1630.5 1242.2 M 1634.4 1254 L 1430.4 1254 M 1427.7 1265.9 L 1638.8 1265.9 M 1647.6 1277.7 L 1420.2 1277.7 M 1392.4 1251.7 L 1392.4 932.6 L 1288.7 828.8 M 1253 815.6 L 1090.4 815.6 M 1102.2 803.7 L 1260 803.7 M 1250.7 827.4 L 1078.5 827.4 M 1070.4 839.3 L 1251.9 839.3 M 1257.2 851.1 L 1067.6 851.1 M 1059.9 863 L 1271.8 863 M 1300.7 874.8 L 682.4 874.8 M 694.3 863 L 1004.9 863 M 997.3 851.1 L 706.1 851.1 M 718 839.3 L 994.4 839.3 M 995.2 827.4 L 729.8 827.4 M 741.7 815.6 L 1000.1 815.6 M 1012.8 803.7 L 753.5 803.7 M 765.4 791.9 L 1040.5 791.9 M 1052.4 780 L 777.2 780 M 789.1 768.2 L 1064.2 768.2 M 1075.4 757 L 1075.4 757 M 1076.1 756.3 L 800.9 756.3 M 670.6 886.7 L 1312.6 886.7 M 1324.4 898.5 L 658.7 898.5 M 646.9 910.4 L 1336.3 910.4 M 1348.1 922.2 L 635 922.2 M 623.2 934.1 L 1360 934.1 M 1368.4 945.9 L 611.3 945.9 M 606.9 957.8 L 1368.4 957.8 M 1368.4 969.6 L 606.9 969.6 M 606.9 981.5 L 1368.4 981.5 M 1368.4 993.3 L 606.9 993.3 M 606.9 1076.3 L 620.4 1076.3 M 612.4 1088.1 L 606.9 1088.1 M 606.9 1100 L 609.6 1100 M 610.8 1111.8 L 606.9 1111.8 M 606.9 1123.7 L 616.7 1123.7 M 606.9 1135.5 L 633.4 1135.5 M 631.4 1242.2 L 606.9 1242.2 M 606.9 1254 L 615.9 1254 M 610.5 1265.9 L 606.9 1265.9 M 606.9 1277.7 L 609.6 1277.7 M 606.9 1289.6 L 612.7 1289.6 M 606.9 1301.4 L 621.2 1301.4 M 1048.9 1419.9 L 1083.4 1419.9 M 1083.4 1408.1 L 1058.9 1408.1 M 1070.8 1396.2 L 1083.4 1396.2 M 1082.6 1384.4 L 1083.4 1384.4 M 1083.4 1431.8 L 1048.9 1431.8 M 1048.9 1443.6 L 1083.4 1443.6 M 1083.4 1455.5 L 1048.9 1455.5 M 1048.9 1467.3 L 1083.4 1467.3 M 1083.4 1479.2 L 1048.9 1479.2 M 1048.9 1491 L 1083.4 1491 M 1083.4 1502.9 L 1048.9 1502.9 M 1048.9 1514.7 L 1083.4 1514.7 M 1083.4 1526.6 L 1048.9 1526.6 M 1048.9 1538.4 L 1083.4 1538.4 M 1083.4 1550.3 L 1048.9 1550.3 M 1048.9 1562.1 L 1083.4 1562.1 M 1083.4 1574 L 1048.8 1574 M 1048.7 1585.8 L 1083.4 1585.8 M 1083.4 1597.7 L 1054.6 1597.7 M 1059.6 1609.5 L 1083.4 1609.5 M 1086.5 1621.4 L 1060.4 1621.4 M 1057.8 1633.2 L 1097.6 1633.2 M 1109.4 1645.1 L 1050.3 1645.1 M 1030.7 1656.9 L 1121.3 1656.9 M 1133.1 1668.8 L 698.3 1668.8 M 708.2 1680.6 L 1145 1680.6 M 1156.8 1692.5 L 714.6 1692.5 M 721.1 1704.3 L 1168.7 1704.3 M 1180.5 1716.2 L 726 1716.2 M 728.6 1728 L 1192.4 1728 M 1204.2 1739.9 L 731.1 1739.9 M 732.4 1751.7 L 1216.1 1751.7 M 1227.9 1763.6 L 732.8 1763.6 M 732.4 1775.4 L 1294.8 1775.4 M 1301.8 1787.3 L 1108.4 1787.3 M 1109.1 1788.6 L 1110.2 1792.6 L 1110.2 1812.5 L 1076.4 1812.5 L 1076.4 1824.2 L 1064.7 1824.2 L 1064.7 1858 L 1044.8 1858 L 1040.8 1856.9 L 1037.1 1854.8 L 1034.1 1851.8 L 1032 1848.2 L 1030.9 1844.1 L 1030.9 1824.2 L 1064.7 1824.2 L 1064.7 1812.5 L 1076.4 1812.5 L 1076.4 1778.7 L 1096.3 1778.7 L 1100.3 1779.8 L 1104 1781.9 L 1107 1784.9 L 1109.1 1788.6 M 1110.2 1799.1 L 1291.3 1799.1 M 1286.5 1811 L 1110.2 1811 M 1110.2 1824.2 L 1076.4 1824.2 L 1076.4 1858 L 1096.3 1858 L 1100.3 1856.9 L 1104 1854.8 L 1107 1851.8 L 1109.1 1848.2 L 1110.2 1844.1 L 1110.2 1824.2 M 1110.2 1834.7 L 1290.1 1834.7 M 1286.5 1822.8 L 1076.4 1822.8 M 1064.7 1822.8 L 1029.5 1822.8 M 1030.9 1812.5 L 1030.9 1792.6 L 1032 1788.6 L 1034.1 1784.9 L 1037.1 1781.9 L 1040.8 1779.8 L 1044.8 1778.7 L 1064.7 1778.7 L 1064.7 1812.5 L 1030.9 1812.5 M 1030.9 1811 L 1029.5 1811 M 1029.5 1799.1 L 1030.9 1799.1 M 1029.5 1787.3 L 1032.8 1787.3 M 1029.5 1787.3 L 1029.5 1849.4 L 1019 1860 L 956.8 1860 L 948.8 1852 L 938.3 1856.4 L 923.2 1856.4 L 909.3 1850.6 L 898.6 1839.9 L 892.8 1825.9 L 892.8 1810.8 L 898.6 1796.8 L 909.3 1786.1 L 923.2 1780.4 L 938.3 1780.4 L 948.8 1784.7 L 956.8 1776.7 L 1019 1776.7 L 1029.5 1787.3 M 1064.7 1787.3 L 1076.4 1787.3 M 1076.4 1799.1 L 1064.7 1799.1 M 1064.7 1811 L 1076.4 1811 M 1076.4 1834.7 L 1064.7 1834.7 M 1064.7 1846.5 L 1076.4 1846.5 M 1109.5 1846.5 L 1298.9 1846.5 M 1324.5 1818.4 L 1381.6 1818.4 M 1414.2 1858.4 L 1431.6 1858.4 M 1464.3 1818.4 L 1464.3 1800.6 L 1415 1751.4 L 1324.5 1751.4 L 1249.7 1751.4 L 1107.4 1609.2 L 1107.4 1101.7 L 1057.4 1051.7 M 1469.3 637.8 L 1470.9 637.8 M 1469.8 626 L 1477.2 626 M 1469.8 614.1 L 1469.8 614.1 M 1469.8 602.3 L 1469.8 602.3 M 1469.8 590.4 L 1469.8 590.4 M 1469.8 578.6 L 1469.8 578.6 M 1469.8 566.7 L 1480.2 566.7 M 1492 554.9 L 1466.2 554.9 M 1644.7 554.9 L 1692 554.9 M 1699.1 547.9 L 1740.5 547.9 L 1769.8 577.2 L 1769.8 618.6 L 1740.5 647.9 L 1699.1 647.9 L 1669.8 618.6 L 1669.8 577.2 L 1699.1 547.9 M 1680.2 566.7 L 1656.5 566.7 M 1667.8 578.6 L 1669.8 578.6 M 1669.8 590.4 L 1667.8 590.4 M 1667.8 602.3 L 1669.8 602.3 M 1669.8 614.1 L 1667.8 614.1 M 1659.5 626 L 1677.2 626 M 1689 637.8 L 1647.7 637.8 M 1750.5 637.8 L 1789 637.8 M 1777.2 626 L 1762.4 626 M 1769.8 614.1 L 1769.8 614.1 M 1769.8 602.3 L 1769.8 602.3 M 1769.8 590.4 L 1769.8 590.4 M 1769.8 578.6 L 1769.8 578.6 M 1759.3 566.7 L 1780.2 566.7 M 1792 554.9 L 1747.5 554.9 M 2007.3 637.8 L 2137.6 637.8 M 2507.1 531.2 L 732.4 531.2 M 732.4 519.3 L 2507.1 519.3 M 2507.1 507.5 L 732.4 507.5 M 732.4 495.6 L 2507.1 495.6 M 2507.1 483.8 L 732.4 483.8 M 985.3 1609.5 L 456.9 1609.5 M 456.9 1621.4 L 984.4 1621.4 M 987.1 1633.2 L 649.1 1633.2 M 670.8 1645.1 L 994.5 1645.1 M 1014.2 1656.9 L 686.4 1656.9 M 732.4 1787.3 L 908.1 1787.3 M 897.6 1799.1 L 732.4 1799.1 M 732.4 1811 L 892.8 1811 M 892.8 1822.8 L 732.4 1822.8 M 732.4 1834.7 L 896.4 1834.7 M 905.2 1846.5 L 732.4 1846.5 M 732.4 1858.4 L 955.2 1858.4 M 930.8 1818.4 L 987.9 1818.4 M 1029.5 1834.7 L 1030.9 1834.7 M 1029.5 1846.5 L 1031.6 1846.5 M 1020.5 1858.4 L 1348.9 1858.4 M 1449.3 1751.7 L 2507.1 1751.7 M 2508.4 1739.9 L 1437.4 1739.9 M 1421.3 1728 L 2511 1728 M 2513.6 1716.2 L 1338.7 1716.2 M 1310.3 1716.2 L 1248.4 1716.2 M 1236.5 1704.3 L 2518.4 1704.3 M 2524.9 1692.5 L 1224.7 1692.5 M 1212.8 1680.6 L 2531.4 1680.6 M 2541.2 1668.8 L 1201 1668.8 M 1189.1 1656.9 L 2553.2 1656.9 M 2568.8 1645.1 L 1177.3 1645.1 M 1165.4 1633.2 L 2590.5 1633.2 M 2506.7 1763.6 L 1461.1 1763.6 M 1473 1775.4 L 2507.1 1775.4 M 2507.1 1787.3 L 2289.5 1787.3 M 2290.2 1788.6 L 2291.3 1792.6 L 2291.3 1812.5 L 2257.5 1812.5 L 2257.5 1824.2 L 2245.8 1824.2 L 2245.8 1812.5 L 2257.5 1812.5 L 2257.5 1778.7 L 2277.4 1778.7 L 2281.5 1779.8 L 2285.1 1781.9 L 2288.1 1784.9 L 2290.2 1788.6 M 2291.3 1799.1 L 2507.1 1799.1 M 2507.1 1811 L 2291.3 1811 M 2291.3 1824.2 L 2257.5 1824.2 L 2257.5 1858 L 2277.4 1858 L 2281.5 1856.9 L 2285.1 1854.8 L 2288.1 1851.8 L 2290.2 1848.2 L 2291.3 1844.1 L 2291.3 1824.2 M 2291.3 1834.7 L 2507.1 1834.7 M 2507.1 1846.5 L 2290.6 1846.5 M 2257.5 1846.5 L 2245.8 1846.5 M 2245.8 1858 L 2225.9 1858 L 2221.9 1856.9 L 2218.2 1854.8 L 2215.2 1851.8 L 2213.1 1848.2 L 2212 1844.1 L 2212 1824.2 L 2245.8 1824.2 L 2245.8 1858 M 2245.8 1834.7 L 2257.5 1834.7 M 2257.5 1822.8 L 2507.1 1822.8 M 2507.1 1858.4 L 2201.6 1858.4 M 2200.1 1860 L 2210.6 1849.4 L 2210.6 1787.3 L 2213.9 1787.3 M 2213.1 1788.6 L 2215.2 1784.9 L 2218.2 1781.9 L 2221.9 1779.8 L 2225.9 1778.7 L 2245.8 1778.7 L 2245.8 1812.5 L 2212 1812.5 L 2212 1792.6 L 2213.1 1788.6 M 2210.6 1787.3 L 2200.1 1776.7 L 2137.9 1776.7 L 2129.9 1784.7 L 2119.4 1780.4 L 2104.3 1780.4 L 2090.4 1786.1 L 2079.7 1796.8 L 2073.9 1810.8 L 2073.9 1825.9 L 2079.7 1839.9 L 2090.4 1850.6 L 2104.3 1856.4 L 2119.4 1856.4 L 2129.9 1852 L 2137.9 1860 L 2200.1 1860 M 2210.6 1846.5 L 2212.7 1846.5 M 2212 1834.7 L 2210.6 1834.7 M 2210.6 1822.8 L 2245.8 1822.8 M 2245.8 1811 L 2257.5 1811 M 2257.5 1799.1 L 2245.8 1799.1 M 2245.8 1787.3 L 2257.5 1787.3 M 2212 1799.1 L 2210.6 1799.1 M 2210.6 1811 L 2212 1811 M 2169 1818.4 L 2111.9 1818.4 M 2086.3 1846.5 L 1896.9 1846.5 M 1896.5 1848.2 L 1894.4 1851.8 L 1891.4 1854.8 L 1887.8 1856.9 L 1883.7 1858 L 1863.8 1858 L 1863.8 1824.2 L 1897.6 1824.2 L 1897.6 1844.1 L 1896.5 1848.2 M 1897.6 1834.7 L 2077.5 1834.7 M 2073.9 1822.8 L 1863.8 1822.8 M 1863.8 1812.5 L 1897.6 1812.5 L 1897.6 1792.6 L 1896.5 1788.6 L 1894.4 1784.9 L 1891.4 1781.9 L 1887.8 1779.8 L 1883.7 1778.7 L 1863.8 1778.7 L 1863.8 1812.5 M 1863.8 1811 L 1852.1 1811 M 1852.1 1822.8 L 1816.9 1822.8 M 1816.9 1811 L 1818.3 1811 M 1816.9 1799.1 L 1818.3 1799.1 M 1852.1 1799.1 L 1863.8 1799.1 M 1863.8 1787.3 L 1852.1 1787.3 M 1895.8 1787.3 L 2089.2 1787.3 M 2078.7 1799.1 L 1897.6 1799.1 M 1897.6 1811 L 2073.9 1811 M 2136.3 1858.4 L 1807.9 1858.4 M 1816.9 1846.5 L 1819 1846.5 M 1818.3 1834.7 L 1816.9 1834.7 M 1852.1 1834.7 L 1863.8 1834.7 M 1863.8 1846.5 L 1852.1 1846.5 M 1775.3 1818.4 L 1718.2 1818.4 M 1692.6 1846.5 L 1505.9 1846.5 M 1505.9 1834.7 L 1683.8 1834.7 M 1680.2 1822.8 L 1505.9 1822.8 M 1505.9 1811 L 1680.2 1811 M 1742.6 1858.4 L 1496.9 1858.4 M 732.4 1870.2 L 2507.1 1870.2 M 2507.1 1882.1 L 732.4 1882.1 M 732.4 1893.9 L 2507.1 1893.9"/><path stroke-width="24" fill="none" d="M 1677.4 1246.7 L 1617.4 1186.7 L 1617.4 991.7 L 1547.4 921.7"/><path stroke-width="32" fill="none" d="M 1440.1 716.7 L 1519.8 637.1 L 1519.8 597.9 M 1440.1 716.7 L 792.4 716.7 L 572.9 936.3 L 572.9 1444.7 L 672.4 1544.2 M 1369.9 1560.1 L 2188.7 1560.1 L 2238.7 1560.1 L 2309.9 1488.8 L 2309.9 1394.1 L 2416.2 1288.4"/><use x="1677.4" y="1246.7" xlink:href="#tool-D18-pad-1032"/><use x="1547.4" y="921.7" xlink:href="#tool-D18-pad-1032"/><use x="672.4" y="1544.2" xlink:href="#tool-D18-pad-1032"/><use x="1369.9" y="1560.1" xlink:href="#tool-D18-pad-1032"/><path stroke-width="16" fill="none" d="M 1022.9 1556.3 L 1022.9 1407.3 L 1073.9 1356.3 L 1073.9 1169.3 L 1047.4 1142.9 L 1047.4 1116.7 M 1032.4 836.7 L 1097.4 771.7 L 2172.4 771.7 L 2192.4 751.7 M 1022.9 1556.3 L 1022.4 1619.2"/></g><g fill="currentColor" stroke="currentColor" id="bottom-out_10"><path stroke-width="0" fill="none" d="M 533.1 617.6 L 533.3 622.6 L 533.9 627.6 L 534.9 632.5 L 536.3 637.3 L 538 642 L 540.1 646.5 L 542.6 650.9 L 545.4 655 L 548.6 658.9 L 552 662.6 L 555.7 666 L 559.7 669 L 563.9 671.7 L 568.3 674.1 L 572.9 676.2 L 577.6 677.8 L 582.4 679.1 L 587.4 680 L 592.3 680.5 L 597.4 680.6 L 602.4 680.3 L 607.3 679.6 L 612.2 678.5 L 617 677 L 621.6 675.2 L 626.1 673 L 630.4 670.4 L 634.5 667.5 L 638.4 664.3 L 642 660.8 L 645.2 657 L 648.2 653 L 650.9 648.7 L 653.2 644.3 L 655.1 639.7 L 656.7 634.9 L 657.9 630 L 658.7 625.1 L 659.1 620.1 L 659.1 615.1 L 658.7 610.1 L 657.9 605.2 L 656.7 600.3 L 655.1 595.5 L 653.2 590.9 L 650.9 586.5 L 648.2 582.2 L 645.2 578.2 L 642 574.4 L 638.4 570.9 L 634.5 567.7 L 630.4 564.8 L 626.1 562.2 L 621.6 560 L 617 558.2 L 612.2 556.7 L 607.3 555.6 L 602.4 554.9 L 597.4 554.6 L 592.3 554.7 L 587.4 555.2 L 582.4 556.1 L 577.6 557.4 L 572.9 559 L 568.3 561.1 L 563.9 563.5 L 559.7 566.2 L 555.7 569.2 L 552 572.6 L 548.6 576.3 L 545.4 580.2 L 542.6 584.3 L 540.1 588.7 L 538 593.2 L 536.3 597.9 L 534.9 602.7 L 533.9 607.6 L 533.3 612.6 L 533.1 617.6 M 627.7 1101.8 L 627.9 1104.4 L 628.5 1107 L 629.5 1109.5 L 630.8 1111.8 L 632.4 1113.8 L 634.4 1115.6 L 636.6 1117.1 L 638.9 1118.3 L 641.5 1119.1 L 644.1 1119.5 L 646.7 1119.5 L 649.3 1119.1 L 651.9 1118.3 L 654.3 1117.1 L 656.4 1115.6 L 658.4 1113.8 L 660 1111.8 L 661.3 1109.5 L 662.3 1107 L 662.9 1104.4 L 663.1 1101.8 L 662.9 1099.2 L 662.3 1096.6 L 661.3 1094.1 L 660 1091.8 L 658.4 1089.8 L 656.4 1088 L 654.2 1086.5 L 651.9 1085.3 L 649.3 1084.5 L 646.7 1084.1 L 644.1 1084.1 L 641.5 1084.5 L 638.9 1085.3 L 636.5 1086.5 L 634.4 1088 L 632.4 1089.8 L 630.8 1091.8 L 629.5 1094.1 L 628.5 1096.6 L 627.9 1099.2 L 627.7 1101.8 M 627.7 1275 L 627.9 1277.6 L 628.5 1280.2 L 629.5 1282.7 L 630.8 1285 L 632.4 1287 L 634.4 1288.8 L 636.6 1290.3 L 638.9 1291.5 L 641.5 1292.3 L 644.1 1292.7 L 646.7 1292.7 L 649.3 1292.3 L 651.9 1291.5 L 654.3 1290.3 L 656.4 1288.8 L 658.4 1287 L 660 1285 L 661.3 1282.7 L 662.3 1280.2 L 662.9 1277.6 L 663.1 1275 L 662.9 1272.4 L 662.3 1269.8 L 661.3 1267.3 L 660 1265 L 658.4 1263 L 656.4 1261.2 L 654.2 1259.7 L 651.9 1258.5 L 649.3 1257.7 L 646.7 1257.3 L 644.1 1257.3 L 641.5 1257.7 L 638.9 1258.5 L 636.5 1259.7 L 634.4 1261.2 L 632.4 1263 L 630.8 1265 L 629.5 1267.3 L 628.5 1269.8 L 627.9 1272.4 L 627.7 1275 M 533.1 1759.3 L 533.3 1764.3 L 533.9 1769.3 L 534.9 1774.2 L 536.3 1779 L 538 1783.7 L 540.1 1788.2 L 542.6 1792.6 L 545.4 1796.7 L 548.6 1800.6 L 552 1804.3 L 555.7 1807.7 L 559.7 1810.7 L 563.9 1813.4 L 568.3 1815.8 L 572.9 1817.9 L 577.6 1819.5 L 582.4 1820.8 L 587.4 1821.7 L 592.3 1822.2 L 597.4 1822.3 L 602.4 1822 L 607.3 1821.3 L 612.2 1820.2 L 617 1818.7 L 621.6 1816.9 L 626.1 1814.7 L 630.4 1812.1 L 634.5 1809.2 L 638.4 1806 L 642 1802.5 L 645.2 1798.7 L 648.2 1794.7 L 650.9 1790.4 L 653.2 1786 L 655.1 1781.4 L 656.7 1776.6 L 657.9 1771.7 L 658.7 1766.8 L 659.1 1761.8 L 659.1 1756.8 L 658.7 1751.8 L 657.9 1746.9 L 656.7 1742 L 655.1 1737.2 L 653.2 1732.6 L 650.9 1728.2 L 648.2 1723.9 L 645.2 1719.9 L 642 1716.1 L 638.4 1712.6 L 634.5 1709.4 L 630.4 1706.5 L 626.1 1703.9 L 621.6 1701.7 L 617 1699.9 L 612.2 1698.4 L 607.3 1697.3 L 602.4 1696.6 L 597.4 1696.3 L 592.3 1696.4 L 587.4 1696.9 L 582.4 1697.8 L 577.6 1699.1 L 572.9 1700.7 L 568.3 1702.8 L 563.9 1705.2 L 559.7 1707.9 L 555.7 1710.9 L 552 1714.3 L 548.6 1718 L 545.4 1721.9 L 542.6 1726 L 540.1 1730.4 L 538 1734.9 L 536.3 1739.6 L 534.9 1744.4 L 533.9 1749.3 L 533.3 1754.3 L 533.1 1759.3 M 2580.4 1759.3 L 2580.6 1764.3 L 2581.2 1769.3 L 2582.2 1774.2 L 2583.6 1779 L 2585.3 1783.7 L 2587.4 1788.2 L 2589.9 1792.6 L 2592.7 1796.7 L 2595.9 1800.6 L 2599.3 1804.3 L 2603 1807.7 L 2607 1810.7 L 2611.2 1813.4 L 2615.6 1815.8 L 2620.2 1817.9 L 2624.9 1819.5 L 2629.7 1820.8 L 2634.7 1821.7 L 2639.6 1822.2 L 2644.7 1822.3 L 2649.7 1822 L 2654.6 1821.3 L 2659.5 1820.2 L 2664.3 1818.7 L 2668.9 1816.9 L 2673.4 1814.7 L 2677.7 1812.1 L 2681.8 1809.2 L 2685.7 1806 L 2689.3 1802.5 L 2692.5 1798.7 L 2695.5 1794.7 L 2698.2 1790.4 L 2700.5 1786 L 2702.4 1781.4 L 2704 1776.6 L 2705.2 1771.7 L 2706 1766.8 L 2706.4 1761.8 L 2706.4 1756.8 L 2706 1751.8 L 2705.2 1746.9 L 2704 1742 L 2702.4 1737.2 L 2700.5 1732.6 L 2698.2 1728.2 L 2695.5 1723.9 L 2692.5 1719.9 L 2689.3 1716.1 L 2685.7 1712.6 L 2681.8 1709.4 L 2677.7 1706.5 L 2673.4 1703.9 L 2668.9 1701.7 L 2664.3 1699.9 L 2659.5 1698.4 L 2654.6 1697.3 L 2649.7 1696.6 L 2644.7 1696.3 L 2639.6 1696.4 L 2634.7 1696.9 L 2629.7 1697.8 L 2624.9 1699.1 L 2620.2 1700.7 L 2615.6 1702.8 L 2611.2 1705.2 L 2607 1707.9 L 2603 1710.9 L 2599.3 1714.3 L 2595.9 1718 L 2592.7 1721.9 L 2589.9 1726 L 2587.4 1730.4 L 2585.3 1734.9 L 2583.6 1739.6 L 2582.2 1744.4 L 2581.2 1749.3 L 2580.6 1754.3 L 2580.4 1759.3 M 2580.4 617.6 L 2580.6 622.6 L 2581.2 627.6 L 2582.2 632.5 L 2583.6 637.3 L 2585.3 642 L 2587.4 646.5 L 2589.9 650.9 L 2592.7 655 L 2595.9 658.9 L 2599.3 662.6 L 2603 666 L 2607 669 L 2611.2 671.7 L 2615.6 674.1 L 2620.2 676.2 L 2624.9 677.8 L 2629.7 679.1 L 2634.7 680 L 2639.6 680.5 L 2644.7 680.6 L 2649.7 680.3 L 2654.6 679.6 L 2659.5 678.5 L 2664.3 677 L 2668.9 675.2 L 2673.4 673 L 2677.7 670.4 L 2681.8 667.5 L 2685.7 664.3 L 2689.3 660.8 L 2692.5 657 L 2695.5 653 L 2698.2 648.7 L 2700.5 644.3 L 2702.4 639.7 L 2704 634.9 L 2705.2 630 L 2706 625.1 L 2706.4 620.1 L 2706.4 615.1 L 2706 610.1 L 2705.2 605.2 L 2704 600.3 L 2702.4 595.5 L 2700.5 590.9 L 2698.2 586.5 L 2695.5 582.2 L 2692.5 578.2 L 2689.3 574.4 L 2685.7 570.9 L 2681.8 567.7 L 2677.7 564.8 L 2673.4 562.2 L 2668.9 560 L 2664.3 558.2 L 2659.5 556.7 L 2654.6 555.6 L 2649.7 554.9 L 2644.7 554.6 L 2639.6 554.7 L 2634.7 555.2 L 2629.7 556.1 L 2624.9 557.4 L 2620.2 559 L 2615.6 561.1 L 2611.2 563.5 L 2607 566.2 L 2603 569.2 L 2599.3 572.6 L 2595.9 576.3 L 2592.7 580.2 L 2589.9 584.3 L 2587.4 588.7 L 2585.3 593.2 L 2583.6 597.9 L 2582.2 602.7 L 2581.2 607.6 L 2580.6 612.6 L 2580.4 617.6"/><path stroke-width="0.4" fill="none" d="M 2643.4 460.1 L 596.1 460.1 L 588.4 460.3 L 580.7 460.9 L 573 461.8 L 565.4 463.1 L 557.8 464.8 L 550.4 466.9 L 543 469.3 L 535.8 472.1 L 528.8 475.2 L 521.9 478.7 L 515.1 482.5 L 508.6 486.6 L 502.3 491.1 L 496.2 495.9 L 490.3 500.9 L 484.7 506.2 L 479.4 511.8 L 474.4 517.7 L 469.6 523.8 L 465.1 530.1 L 461 536.6 L 457.2 543.4 L 453.7 550.3 L 450.6 557.3 L 447.8 564.5 L 445.4 571.9 L 443.3 579.3 L 441.6 586.9 L 440.3 594.5 L 439.4 602.2 L 438.8 609.9 L 438.6 617.6 M 438.7 617.6 L 438.7 1759.3 M 438.6 1759.3 L 438.8 1767 L 439.4 1774.7 L 440.3 1782.4 L 441.6 1790 L 443.3 1797.6 L 445.4 1805 L 447.8 1812.4 L 450.6 1819.6 L 453.7 1826.6 L 457.2 1833.5 L 461 1840.3 L 465.1 1846.8 L 469.6 1853.1 L 474.4 1859.2 L 479.4 1865.1 L 484.7 1870.7 L 490.3 1876 L 496.2 1881 L 502.3 1885.8 L 508.6 1890.3 L 515.1 1894.4 L 521.9 1898.2 L 528.8 1901.7 L 535.8 1904.8 L 543 1907.6 L 550.4 1910 L 557.8 1912.1 L 565.4 1913.8 L 573 1915.1 L 580.7 1916 L 588.4 1916.6 L 596.1 1916.8 L 2643.4 1916.8 L 2651.1 1916.6 L 2658.8 1916 L 2666.5 1915.1 L 2674.1 1913.8 L 2681.7 1912.1 L 2689.1 1910 L 2696.5 1907.6 L 2703.7 1904.8 L 2710.7 1901.7 L 2717.6 1898.2 L 2724.4 1894.4 L 2730.9 1890.3 L 2737.2 1885.8 L 2743.3 1881 L 2749.2 1876 L 2754.8 1870.7 L 2760.1 1865.1 L 2765.1 1859.2 L 2769.9 1853.1 L 2774.4 1846.8 L 2778.5 1840.3 L 2782.3 1833.5 L 2785.8 1826.6 L 2788.9 1819.6 L 2791.7 1812.4 L 2794.1 1805 L 2796.2 1797.6 L 2797.9 1790 L 2799.2 1782.4 L 2800.1 1774.7 L 2800.7 1767 L 2800.9 1759.3 L 2800.9 617.6 L 2800.7 609.9 L 2800.1 602.2 L 2799.2 594.5 L 2797.9 586.9 L 2796.2 579.3 L 2794.1 571.9 L 2791.7 564.5 L 2788.9 557.3 L 2785.8 550.3 L 2782.3 543.4 L 2778.5 536.6 L 2774.4 530.1 L 2769.9 523.8 L 2765.1 517.7 L 2760.1 511.8 L 2754.8 506.2 L 2749.2 500.9 L 2743.3 495.9 L 2737.2 491.1 L 2730.9 486.6 L 2724.4 482.5 L 2717.6 478.7 L 2710.7 475.2 L 2703.7 472.1 L 2696.5 469.3 L 2689.1 466.9 L 2681.7 464.8 L 2674.1 463.1 L 2666.5 461.8 L 2658.8 460.9 L 2651.1 460.3 L 2643.4 460.1 L 2651.1 460.3 L 2658.8 460.9 L 2666.5 461.8 L 2674.1 463.1 L 2681.7 464.8 L 2689.1 466.9 L 2696.5 469.3 L 2703.7 472.1 L 2710.7 475.2 L 2717.6 478.7 L 2724.4 482.5 L 2730.9 486.6 L 2737.2 491.1 L 2743.3 495.9 L 2749.2 500.9 L 2754.8 506.2 L 2760.1 511.8 L 2765.1 517.7 L 2769.9 523.8 L 2774.4 530.1 L 2778.5 536.6 L 2782.3 543.4 L 2785.8 550.3 L 2788.9 557.3 L 2791.7 564.5 L 2794.1 571.9 L 2796.2 579.3 L 2797.9 586.9 L 2799.2 594.5 L 2800.1 602.2 L 2800.7 609.9 L 2800.9 617.6 M 2800.9 1759.3 L 2800.7 1767 L 2800.1 1774.7 L 2799.2 1782.4 L 2797.9 1790 L 2796.2 1797.6 L 2794.1 1805 L 2791.7 1812.4 L 2788.9 1819.6 L 2785.8 1826.6 L 2782.3 1833.5 L 2778.5 1840.3 L 2774.4 1846.8 L 2769.9 1853.1 L 2765.1 1859.2 L 2760.1 1865.1 L 2754.8 1870.7 L 2749.2 1876 L 2743.3 1881 L 2737.2 1885.8 L 2730.9 1890.3 L 2724.4 1894.4 L 2717.6 1898.2 L 2710.7 1901.7 L 2703.7 1904.8 L 2696.5 1907.6 L 2689.1 1910 L 2681.7 1912.1 L 2674.1 1913.8 L 2666.5 1915.1 L 2658.8 1916 L 2651.1 1916.6 L 2643.4 1916.8 M 596.1 1916.8 L 588.4 1916.6 L 580.7 1916 L 573 1915.1 L 565.4 1913.8 L 557.8 1912.1 L 550.4 1910 L 543 1907.6 L 535.8 1904.8 L 528.8 1901.7 L 521.9 1898.2 L 515.1 1894.4 L 508.6 1890.3 L 502.3 1885.8 L 496.2 1881 L 490.3 1876 L 484.7 1870.7 L 479.4 1865.1 L 474.4 1859.2 L 469.6 1853.1 L 465.1 1846.8 L 461 1840.3 L 457.2 1833.5 L 453.7 1826.6 L 450.6 1819.6 L 447.8 1812.4 L 445.4 1805 L 443.3 1797.6 L 441.6 1790 L 440.3 1782.4 L 439.4 1774.7 L 438.8 1767 L 438.6 1759.3 M 438.6 617.6 L 438.8 609.9 L 439.4 602.2 L 440.3 594.5 L 441.6 586.9 L 443.3 579.3 L 445.4 571.9 L 447.8 564.5 L 450.6 557.3 L 453.7 550.3 L 457.2 543.4 L 461 536.6 L 465.1 530.1 L 469.6 523.8 L 474.4 517.7 L 479.4 511.8 L 484.7 506.2 L 490.3 500.9 L 496.2 495.9 L 502.3 491.1 L 508.6 486.6 L 515.1 482.5 L 521.9 478.7 L 528.8 475.2 L 535.8 472.1 L 543 469.3 L 550.4 466.9 L 557.8 464.8 L 565.4 463.1 L 573 461.8 L 580.7 460.9 L 588.4 460.3 L 596.1 460.1"/></g><circle cx="0" cy="0" r="10" id="tool-T1-pad-1055"/><circle cx="0" cy="0" r="12.5" id="tool-T2-pad-1056"/><circle cx="0" cy="0" r="15" id="tool-T3-pad-1057"/><circle cx="0" cy="0" r="17.7" id="tool-T4-pad-1058"/><circle cx="0" cy="0" r="20" id="tool-T5-pad-1059"/><circle cx="0" cy="0" r="63" id="tool-T6-pad-1060"/><g fill="currentColor" stroke="currentColor" id="bottom-drl_11"><use x="753.6" y="499.5" xlink:href="#tool-T1-pad-1055"/><use x="970.2" y="656.9" xlink:href="#tool-T1-pad-1055"/><use x="1108" y="656.9" xlink:href="#tool-T1-pad-1055"/><use x="1288.7" y="828.8" xlink:href="#tool-T1-pad-1055"/><use x="1351.2" y="835.1" xlink:href="#tool-T1-pad-1055"/><use x="1137.4" y="861.7" xlink:href="#tool-T1-pad-1055"/><use x="1032.4" y="836.7" xlink:href="#tool-T1-pad-1055"/><use x="972.4" y="856.7" xlink:href="#tool-T1-pad-1055"/><use x="1057.4" y="966.7" xlink:href="#tool-T1-pad-1055"/><use x="1057.4" y="1051.7" xlink:href="#tool-T1-pad-1055"/><use x="1047.4" y="1116.7" xlink:href="#tool-T1-pad-1055"/><use x="1177.4" y="1056.7" xlink:href="#tool-T1-pad-1055"/><use x="1347.4" y="1106.7" xlink:href="#tool-T1-pad-1055"/><use x="1167.4" y="1206.7" xlink:href="#tool-T1-pad-1055"/><use x="1000.4" y="1326.7" xlink:href="#tool-T1-pad-1055"/><use x="863.7" y="1385.1" xlink:href="#tool-T1-pad-1055"/><use x="782.4" y="1522.6" xlink:href="#tool-T1-pad-1055"/><use x="1022.4" y="1619.2" xlink:href="#tool-T1-pad-1055"/><use x="1138.7" y="1760.1" xlink:href="#tool-T1-pad-1055"/><use x="1324.5" y="1751.4" xlink:href="#tool-T1-pad-1055"/><use x="1324.5" y="1818.4" xlink:href="#tool-T1-pad-1055"/><use x="1371.2" y="1620.5" xlink:href="#tool-T1-pad-1055"/><use x="1252.4" y="1526.7" xlink:href="#tool-T1-pad-1055"/><use x="1371.2" y="1489.2" xlink:href="#tool-T1-pad-1055"/><use x="1502.4" y="1489.2" xlink:href="#tool-T1-pad-1055"/><use x="1472.4" y="1376.7" xlink:href="#tool-T1-pad-1055"/><use x="1392.4" y="1251.7" xlink:href="#tool-T1-pad-1055"/><use x="1692.4" y="1156.7" xlink:href="#tool-T1-pad-1055"/><use x="1547.4" y="1066.7" xlink:href="#tool-T1-pad-1055"/><use x="1697.4" y="1036.7" xlink:href="#tool-T1-pad-1055"/><use x="1896.7" y="912.5" xlink:href="#tool-T1-pad-1055"/><use x="1952.4" y="947.7" xlink:href="#tool-T1-pad-1055"/><use x="1971.4" y="1036.7" xlink:href="#tool-T1-pad-1055"/><use x="2213.7" y="916.7" xlink:href="#tool-T1-pad-1055"/><use x="2263.7" y="866.7" xlink:href="#tool-T1-pad-1055"/><use x="2303.7" y="816.7" xlink:href="#tool-T1-pad-1055"/><use x="2192.4" y="751.7" xlink:href="#tool-T1-pad-1055"/><use x="2162.4" y="666.7" xlink:href="#tool-T1-pad-1055"/><use x="1982.4" y="666.7" xlink:href="#tool-T1-pad-1055"/><use x="1972.4" y="716.7" xlink:href="#tool-T1-pad-1055"/><use x="1897.9" y="710.7" xlink:href="#tool-T1-pad-1055"/><use x="1727.4" y="831.7" xlink:href="#tool-T1-pad-1055"/><use x="1712.4" y="886.7" xlink:href="#tool-T1-pad-1055"/><use x="1842.4" y="871" xlink:href="#tool-T1-pad-1055"/><use x="2290.6" y="981.7" xlink:href="#tool-T1-pad-1055"/><use x="2271.2" y="1126.7" xlink:href="#tool-T1-pad-1055"/><use x="2341.6" y="1188.4" xlink:href="#tool-T1-pad-1055"/><use x="2236.5" y="1239.6" xlink:href="#tool-T1-pad-1055"/><use x="2159.3" y="1226.7" xlink:href="#tool-T1-pad-1055"/><use x="1973.5" y="1383.2" xlink:href="#tool-T1-pad-1055"/><use x="1757.4" y="1422.6" xlink:href="#tool-T1-pad-1055"/><use x="1876.2" y="1628.8" xlink:href="#tool-T1-pad-1055"/><use x="1663.7" y="1735.1" xlink:href="#tool-T1-pad-1055"/><use x="1718.2" y="1818.4" xlink:href="#tool-T1-pad-1055"/><use x="2111.9" y="1818.4" xlink:href="#tool-T1-pad-1055"/><use x="2111.9" y="1737.8" xlink:href="#tool-T1-pad-1055"/><use x="2348.7" y="1818.4" xlink:href="#tool-T1-pad-1055"/><use x="2485.9" y="1877.4" xlink:href="#tool-T1-pad-1055"/><use x="2761.5" y="1601.8" xlink:href="#tool-T1-pad-1055"/><use x="2668.4" y="1475.7" xlink:href="#tool-T1-pad-1055"/><use x="2666.4" y="1340.5" xlink:href="#tool-T1-pad-1055"/><use x="2664.4" y="1141.5" xlink:href="#tool-T1-pad-1055"/><use x="2604.4" y="914.7" xlink:href="#tool-T1-pad-1055"/><use x="2525.4" y="815.7" xlink:href="#tool-T1-pad-1055"/><use x="2342.4" y="676.7" xlink:href="#tool-T1-pad-1055"/><use x="2382.4" y="626.7" xlink:href="#tool-T1-pad-1055"/><use x="2485.9" y="499.5" xlink:href="#tool-T1-pad-1055"/><use x="2761.5" y="775" xlink:href="#tool-T1-pad-1055"/><use x="2038.7" y="560.1" xlink:href="#tool-T1-pad-1055"/><use x="851.4" y="1077.7" xlink:href="#tool-T1-pad-1055"/><use x="635.5" y="1031" xlink:href="#tool-T1-pad-1055"/><use x="771.4" y="913.7" xlink:href="#tool-T1-pad-1055"/><use x="478" y="775" xlink:href="#tool-T1-pad-1055"/><use x="635.5" y="1168.7" xlink:href="#tool-T1-pad-1055"/><use x="1153.7" y="1426.7" xlink:href="#tool-T1-pad-1055"/><use x="478" y="1601.8" xlink:href="#tool-T1-pad-1055"/><use x="753.6" y="1877.4" xlink:href="#tool-T1-pad-1055"/><use x="930.8" y="1818.4" xlink:href="#tool-T1-pad-1055"/><use x="2188.7" y="1560.1" xlink:href="#tool-T1-pad-1055"/><use x="2387.6" y="1567.7" xlink:href="#tool-T1-pad-1055"/><use x="2240.6" y="1426.7" xlink:href="#tool-T2-pad-1056"/><use x="1501.2" y="728.8" xlink:href="#tool-T2-pad-1056"/><use x="1547.4" y="921.7" xlink:href="#tool-T3-pad-1057"/><use x="1677.4" y="1246.7" xlink:href="#tool-T3-pad-1057"/><use x="1369.9" y="1560.1" xlink:href="#tool-T3-pad-1057"/><use x="672.4" y="1544.2" xlink:href="#tool-T3-pad-1057"/><use x="645.4" y="1275" xlink:href="#tool-T4-pad-1058"/><use x="645.4" y="1101.8" xlink:href="#tool-T4-pad-1058"/><use x="1419.8" y="597.9" xlink:href="#tool-T5-pad-1059"/><use x="1519.8" y="597.9" xlink:href="#tool-T5-pad-1059"/><use x="1619.8" y="597.9" xlink:href="#tool-T5-pad-1059"/><use x="1719.8" y="597.9" xlink:href="#tool-T5-pad-1059"/><use x="1819.8" y="597.9" xlink:href="#tool-T5-pad-1059"/><use x="2416.2" y="988.4" xlink:href="#tool-T5-pad-1059"/><use x="2516.2" y="988.4" xlink:href="#tool-T5-pad-1059"/><use x="2516.2" y="1088.4" xlink:href="#tool-T5-pad-1059"/><use x="2416.2" y="1088.4" xlink:href="#tool-T5-pad-1059"/><use x="2416.2" y="1188.4" xlink:href="#tool-T5-pad-1059"/><use x="2516.2" y="1188.4" xlink:href="#tool-T5-pad-1059"/><use x="2516.2" y="1288.4" xlink:href="#tool-T5-pad-1059"/><use x="2416.2" y="1288.4" xlink:href="#tool-T5-pad-1059"/><use x="2416.2" y="1388.4" xlink:href="#tool-T5-pad-1059"/><use x="2516.2" y="1388.4" xlink:href="#tool-T5-pad-1059"/><use x="2643.4" y="1759.3" xlink:href="#tool-T6-pad-1060"/><use x="2643.4" y="617.6" xlink:href="#tool-T6-pad-1060"/><use x="596.1" y="617.6" xlink:href="#tool-T6-pad-1060"/><use x="596.1" y="1759.3" xlink:href="#tool-T6-pad-1060"/></g><mask id="bottom-sm_12" color="#fff"><use xlink:href="#bottom-bcu_9"/></mask><mask id="bottom-sm_13" color="#000"><rect class="Board--cover" fill="#fff" x="438.40000000000003" y="459.90000000000003" width="2362.7" height="1457.1"/><use xlink:href="#bottom-bsm_8"/></mask><mask id="bottom-mech_14" color="#000"><rect class="Board--cover" fill="#fff" x="438.40000000000003" y="459.90000000000003" width="2362.7" height="1457.1"/><use xlink:href="#bottom-drl_11"/></mask></defs><g transform="translate(3239.5,2376.9) scale(-1,-1)" mask="url(#bottom-mech_14)"><rect class="Board--board" fill="currentColor" x="438.40000000000003" y="459.90000000000003" width="2362.7" height="1457.1"/><use class="Board--cu" xlink:href="#bottom-bcu_9"/><use class="Board--cf" mask="url(#bottom-sm_12)" xlink:href="#bottom-bsm_8"/><g mask="url(#bottom-sm_13)"><rect class="Board--sm" fill="currentColor" x="438.40000000000003" y="459.90000000000003" width="2362.7" height="1457.1"/></g><use class="Board--out" xlink:href="#bottom-out_10"/></g></svg>