<?xml version="1.0" encoding="UTF-8" standalone="no"?>
<!DOCTYPE svg PUBLIC "-//W3C//DTD SVG 1.1//EN"
 "http://www.w3.org/Graphics/SVG/1.1/DTD/svg11.dtd">
<!-- Generated by graphviz version 2.38.0 (20140413.2041)
 -->
<!-- Title: current Pages: 1 -->
<svg width="267pt" height="265pt"
 viewBox="0.00 0.00 267.00 265.43" xmlns="http://www.w3.org/2000/svg" xmlns:xlink="http://www.w3.org/1999/xlink">
<g id="graph0" class="graph" transform="scale(1 1) rotate(0) translate(4 261.43)">
<title>current</title>
<polygon fill="white" stroke="none" points="-4,4 -4,-261.43 263,-261.43 263,4 -4,4"/>
<g id="clust1" class="cluster"><title>cluster_01</title>
<polygon fill="none" stroke="black" points="8,-8 8,-60 251,-60 251,-8 8,-8"/>
</g>
<!-- user -->
<g id="node1" class="node"><title>user</title>
<polygon fill="none" stroke="black" points="194.444,-220.266 155.144,-220.266 143,-257.645 130.856,-220.266 91.5555,-220.266 123.35,-197.164 111.206,-159.784 143,-182.886 174.794,-159.784 162.65,-197.164 194.444,-220.266"/>
<text text-anchor="middle" x="143" y="-205.015" font-family="Times,serif" font-size="14.00">user</text>
</g>
<!-- frontend (/submit) -->
<g id="node2" class="node"><title>frontend (/submit)</title>
<ellipse fill="none" stroke="black" cx="143" cy="-106" rx="75.2868" ry="18"/>
<text text-anchor="middle" x="143" y="-102.3" font-family="Times,serif" font-size="14.00">frontend (/submit)</text>
</g>
<!-- user&#45;&gt;frontend (/submit) -->
<g id="edge1" class="edge"><title>user&#45;&gt;frontend (/submit)</title>
<path fill="none" stroke="black" stroke-dasharray="1,5" d="M143,-182.819C143,-168.101 143,-149.444 143,-134.321"/>
<polygon fill="black" stroke="black" points="146.5,-134.04 143,-124.04 139.5,-134.04 146.5,-134.04"/>
</g>
<!-- partinfo -->
<g id="node3" class="node"><title>partinfo</title>
<ellipse fill="none" stroke="black" cx="205" cy="-34" rx="38.1938" ry="18"/>
<text text-anchor="middle" x="205" y="-30.3" font-family="Times,serif" font-size="14.00">partinfo</text>
</g>
<!-- frontend (/submit)&#45;&gt;partinfo -->
<g id="edge4" class="edge"><title>frontend (/submit)&#45;&gt;partinfo</title>
</g>
<!-- git&#45;clone&#45;server -->
<g id="node4" class="node"><title>git&#45;clone&#45;server</title>
<ellipse fill="none" stroke="black" cx="82" cy="-34" rx="66.0889" ry="18"/>
<text text-anchor="middle" x="82" y="-30.3" font-family="Times,serif" font-size="14.00">git&#45;clone&#45;server</text>
</g>
<!-- frontend (/submit)&#45;&gt;git&#45;clone&#45;server -->
<g id="edge3" class="edge"><title>frontend (/submit)&#45;&gt;git&#45;clone&#45;server</title>
<path fill="none" stroke="black" stroke-dasharray="1,5" d="M134.112,-88.055C127.368,-79.243 118.04,-68.3285 109.075,-58.6943"/>
<polygon fill="black" stroke="black" points="111.457,-56.1213 102.019,-51.307 106.395,-60.956 111.457,-56.1213"/>
</g>
<!-- partinfo&#45;&gt;frontend (/submit) -->
<g id="edge2" class="edge"><title>partinfo&#45;&gt;frontend (/submit)</title>
<path fill="none" stroke="black" stroke-dasharray="1,5" d="M186.172,-49.888C177.256,-58.7125 166.872,-70.1189 158.425,-80.2633"/>
<polygon fill="black" stroke="black" points="155.692,-78.0766 152.13,-88.055 161.137,-82.4754 155.692,-78.0766"/>
</g>
<!-- git&#45;clone&#45;server&#45;&gt;frontend (/submit) -->
<g id="edge5" class="edge"><title>git&#45;clone&#45;server&#45;&gt;frontend (/submit)</title>
<path fill="none" stroke="black" stroke-dasharray="1,5" d="M90.8967,-51.9562C97.5832,-60.6921 106.808,-71.4923 115.699,-81.0625"/>
<polygon fill="black" stroke="black" points="113.271,-83.5875 122.704,-88.411 118.338,-78.7577 113.271,-83.5875"/>
</g>
</g>
</svg>
