<?xml version="1.0" encoding="UTF-8" standalone="no"?>
<!DOCTYPE svg PUBLIC "-//W3C//DTD SVG 1.1//EN"
 "http://www.w3.org/Graphics/SVG/1.1/DTD/svg11.dtd">
<!-- Generated by graphviz version 2.38.0 (20140413.2041)
 -->
<!-- Title: key Pages: 1 -->
<svg width="239pt" height="129pt"
 viewBox="0.00 0.00 239.00 129.00" xmlns="http://www.w3.org/2000/svg" xmlns:xlink="http://www.w3.org/1999/xlink">
<g id="graph0" class="graph" transform="scale(1 1) rotate(0) translate(4 125)">
<title>key</title>
<polygon fill="white" stroke="none" points="-4,4 -4,-125 235,-125 235,4 -4,4"/>
<g id="clust1" class="cluster"><title>cluster_01</title>
<polygon fill="none" stroke="black" points="8,-8 8,-113 223,-113 223,-8 8,-8"/>
<text text-anchor="middle" x="115.5" y="-97.8" font-family="Times,serif" font-size="14.00">Legend</text>
</g>
<!-- key -->
<g id="node1" class="node"><title>key</title>
<text text-anchor="start" x="39.5" y="-63.8" font-family="Times,serif" font-size="14.00">Authenticated</text>
<text text-anchor="start" x="26.5" y="-44.8" font-family="Times,serif" font-size="14.00">Unauthenticated</text>
<text text-anchor="start" x="34.5" y="-25.8" font-family="Times,serif" font-size="14.00">Authentication</text>
</g>
<!-- key2 -->
<g id="node2" class="node"><title>key2</title>
<text text-anchor="start" x="186" y="-63.8" font-family="Times,serif" font-size="14.00"> </text>
<text text-anchor="start" x="186" y="-44.8" font-family="Times,serif" font-size="14.00"> </text>
<text text-anchor="start" x="186" y="-25.8" font-family="Times,serif" font-size="14.00"> </text>
</g>
<!-- key&#45;&gt;key2 -->
<g id="edge1" class="edge"><title>key:i1:e&#45;&gt;key2:i1:w</title>
<path fill="none" stroke="black" d="M118.5,-68C143.471,-68 152.128,-68 172.894,-68"/>
<polygon fill="black" stroke="black" points="173,-71.5001 183,-68 173,-64.5001 173,-71.5001"/>
</g>
<!-- key&#45;&gt;key2 -->
<g id="edge2" class="edge"><title>key:i2:e&#45;&gt;key2:i2:w</title>
<path fill="none" stroke="black" stroke-dasharray="1,5" d="M118.5,-48C143.471,-48 152.128,-48 172.894,-48"/>
<polygon fill="black" stroke="black" points="173,-51.5001 183,-48 173,-44.5001 173,-51.5001"/>
</g>
<!-- key&#45;&gt;key2 -->
<g id="edge3" class="edge"><title>key:i3:e&#45;&gt;key2:i3:w</title>
<path fill="none" stroke="black" stroke-dasharray="5,2" d="M118.5,-29C143.471,-29 152.128,-29 172.894,-29"/>
<polygon fill="black" stroke="black" points="173,-32.5001 183,-29 173,-25.5001 173,-32.5001"/>
</g>
</g>
</svg>
