<?xml version="1.0" encoding="UTF-8" standalone="no"?>
<!DOCTYPE svg PUBLIC "-//W3C//DTD SVG 1.1//EN"
 "http://www.w3.org/Graphics/SVG/1.1/DTD/svg11.dtd">
<!-- Generated by graphviz version 2.38.0 (20140413.2041)
 -->
<!-- Title: current Pages: 1 -->
<svg width="322pt" height="425pt"
 viewBox="0.00 0.00 322.00 425.43" xmlns="http://www.w3.org/2000/svg" xmlns:xlink="http://www.w3.org/1999/xlink">
<g id="graph0" class="graph" transform="scale(1 1) rotate(0) translate(4 421.43)">
<title>current</title>
<polygon fill="white" stroke="none" points="-4,4 -4,-421.43 318,-421.43 318,4 -4,4"/>
<g id="clust1" class="cluster"><title>cluster_01</title>
<polygon fill="none" stroke="none" points="188,-224 188,-409.43 306,-409.43 306,-224 188,-224"/>
</g>
<g id="clust2" class="cluster"><title>cluster_02</title>
<polygon fill="none" stroke="black" points="8,-8 8,-276 180,-276 180,-8 8,-8"/>
</g>
<!-- user -->
<g id="node1" class="node"><title>user</title>
<polygon fill="none" stroke="black" points="298.444,-364.266 259.144,-364.266 247,-401.645 234.856,-364.266 195.556,-364.266 227.35,-341.164 215.206,-303.784 247,-326.886 278.794,-303.784 266.65,-341.164 298.444,-364.266"/>
<text text-anchor="middle" x="247" y="-349.015" font-family="Times,serif" font-size="14.00">user</text>
</g>
<!-- frontend -->
<g id="node2" class="node"><title>frontend</title>
<ellipse fill="none" stroke="black" cx="236" cy="-250" rx="40.0939" ry="18"/>
<text text-anchor="middle" x="236" y="-246.3" font-family="Times,serif" font-size="14.00">frontend</text>
</g>
<!-- user&#45;&gt;frontend -->
<g id="edge1" class="edge"><title>user&#45;&gt;frontend</title>
<path fill="none" stroke="black" d="M235.77,-309.9C234.385,-299.226 233.357,-288.024 232.904,-278.289"/>
<polygon fill="black" stroke="black" points="232.312,-310.444 237.191,-319.848 239.242,-309.453 232.312,-310.444"/>
<polygon fill="black" stroke="black" points="236.397,-277.938 232.649,-268.028 229.399,-278.112 236.397,-277.938"/>
</g>
<!-- user&#45;&gt;frontend -->
<g id="edge2" class="edge"><title>user&#45;&gt;frontend</title>
<path fill="none" stroke="black" stroke-dasharray="1,5" d="M249.482,-314.563C248.553,-302.442 246.948,-289.221 245.006,-277.992"/>
<polygon fill="black" stroke="black" points="245.999,-314.96 250.11,-324.725 252.986,-314.528 245.999,-314.96"/>
<polygon fill="black" stroke="black" points="248.395,-277.085 243.051,-267.937 241.524,-278.421 248.395,-277.085"/>
</g>
<!-- gitlab proxy -->
<g id="node3" class="node"><title>gitlab proxy</title>
<ellipse fill="none" stroke="black" cx="118" cy="-250" rx="53.8905" ry="18"/>
<text text-anchor="middle" x="118" y="-246.3" font-family="Times,serif" font-size="14.00">gitlab proxy</text>
</g>
<!-- frontend&#45;&gt;gitlab proxy -->
<g id="edge3" class="edge"><title>frontend&#45;&gt;gitlab proxy</title>
<path fill="none" stroke="black" d="M203.441,-239.211C191.752,-236.814 180.063,-236.006 168.374,-236.789"/>
<polygon fill="black" stroke="black" points="167.674,-233.343 158.102,-237.885 168.417,-240.304 167.674,-233.343"/>
</g>
<!-- frontend&#45;&gt;gitlab proxy -->
<g id="edge4" class="edge"><title>frontend&#45;&gt;gitlab proxy</title>
<path fill="none" stroke="black" stroke-dasharray="1,5" d="M203.441,-260.789C191.752,-263.186 180.063,-263.994 168.374,-263.211"/>
<polygon fill="black" stroke="black" points="168.417,-259.696 158.102,-262.115 167.674,-266.657 168.417,-259.696"/>
</g>
<!-- gitlab -->
<g id="node4" class="node"><title>gitlab</title>
<ellipse fill="none" stroke="black" cx="141" cy="-178" rx="30.5947" ry="18"/>
<text text-anchor="middle" x="141" y="-174.3" font-family="Times,serif" font-size="14.00">gitlab</text>
</g>
<!-- frontend&#45;&gt;gitlab -->
<g id="edge5" class="edge"><title>frontend&#45;&gt;gitlab</title>
<path fill="none" stroke="black" stroke-dasharray="5,2" d="M215.853,-234.155C201.791,-223.793 182.876,-209.856 167.579,-198.585"/>
<polygon fill="black" stroke="black" points="169.634,-195.751 159.507,-192.637 165.482,-201.387 169.634,-195.751"/>
</g>
<!-- gitlab proxy&#45;&gt;gitlab -->
<g id="edge6" class="edge"><title>gitlab proxy&#45;&gt;gitlab</title>
<path fill="none" stroke="black" d="M123.568,-232.055C126.195,-224.059 129.391,-214.331 132.326,-205.4"/>
<polygon fill="black" stroke="black" points="135.687,-206.382 135.484,-195.789 129.037,-204.197 135.687,-206.382"/>
</g>
<!-- process project -->
<g id="node5" class="node"><title>process project</title>
<ellipse fill="none" stroke="black" cx="108" cy="-106" rx="63.8893" ry="18"/>
<text text-anchor="middle" x="108" y="-102.3" font-family="Times,serif" font-size="14.00">process project</text>
</g>
<!-- gitlab&#45;&gt;process project -->
<g id="edge7" class="edge"><title>gitlab&#45;&gt;process project</title>
<path fill="none" stroke="black" d="M133.179,-160.411C129.332,-152.249 124.604,-142.22 120.288,-133.065"/>
<polygon fill="black" stroke="black" points="123.424,-131.509 115.994,-123.956 117.092,-134.494 123.424,-131.509"/>
</g>
<!-- process project&#45;&gt;frontend -->
<g id="edge10" class="edge"><title>process project&#45;&gt;frontend</title>
<path fill="none" stroke="black" d="M134.272,-122.48C149.112,-132.057 167.362,-145.307 181,-160 198.653,-179.019 213.732,-204.528 223.612,-223.36"/>
<polygon fill="black" stroke="black" points="220.497,-224.956 228.162,-232.27 226.731,-221.772 220.497,-224.956"/>
</g>
<!-- project server -->
<g id="node7" class="node"><title>project server</title>
<ellipse fill="none" stroke="black" cx="110" cy="-34" rx="59.2899" ry="18"/>
<text text-anchor="middle" x="110" y="-30.3" font-family="Times,serif" font-size="14.00">project server</text>
</g>
<!-- process project&#45;&gt;project server -->
<g id="edge9" class="edge"><title>process project&#45;&gt;project server</title>
<path fill="none" stroke="black" d="M108.494,-87.6966C108.715,-79.9827 108.98,-70.7125 109.225,-62.1124"/>
<polygon fill="black" stroke="black" points="112.724,-62.2002 109.511,-52.1043 105.727,-62.0003 112.724,-62.2002"/>
</g>
<!-- partinfo -->
<g id="node6" class="node"><title>partinfo</title>
<ellipse fill="none" stroke="black" cx="54" cy="-178" rx="38.1938" ry="18"/>
<text text-anchor="middle" x="54" y="-174.3" font-family="Times,serif" font-size="14.00">partinfo</text>
</g>
<!-- partinfo&#45;&gt;process project -->
<g id="edge8" class="edge"><title>partinfo&#45;&gt;process project</title>
<path fill="none" stroke="black" d="M66.5244,-160.765C73.1754,-152.143 81.4901,-141.365 88.9251,-131.727"/>
<polygon fill="black" stroke="black" points="91.8317,-133.689 95.1685,-123.633 86.2892,-129.413 91.8317,-133.689"/>
</g>
<!-- project server&#45;&gt;frontend -->
<g id="edge11" class="edge"><title>project server&#45;&gt;frontend</title>
<path fill="none" stroke="black" stroke-dasharray="1,5" d="M137.328,-50.132C151.979,-59.4213 169.361,-72.5026 181,-88 211.571,-128.705 225.908,-187.574 232.013,-221.701"/>
<polygon fill="black" stroke="black" points="228.61,-222.574 233.716,-231.857 235.514,-221.416 228.61,-222.574"/>
</g>
</g>
</svg>
