G04 #@! TF.FileFunction,Legend,Top*
%FSLAX46Y46*%
G04 Gerber Fmt 4.6, Leading zero omitted, Abs format (unit mm)*
G04 Created by KiCad (PCBNEW 0.201505121916+5652~23~ubuntu14.04.1-product) date Mon 25 May 2015 21:29:56 BST*
%MOMM*%
G01*
G04 APERTURE LIST*
%ADD10C,0.150000*%
%ADD11C,0.149860*%
%ADD12C,0.203200*%
%ADD13C,0.198120*%
%ADD14C,0.120000*%
G04 APERTURE END LIST*
D10*
D11*
X68966667Y-51200000D02*
X68900001Y-51166667D01*
X68800001Y-51166667D01*
X68700001Y-51200000D01*
X68633334Y-51266667D01*
X68600001Y-51333333D01*
X68566667Y-51466667D01*
X68566667Y-51566667D01*
X68600001Y-51700000D01*
X68633334Y-51766667D01*
X68700001Y-51833333D01*
X68800001Y-51866667D01*
X68866667Y-51866667D01*
X68966667Y-51833333D01*
X69000001Y-51800000D01*
X69000001Y-51566667D01*
X68866667Y-51566667D01*
X69300001Y-51866667D02*
X69300001Y-51166667D01*
X69700001Y-51866667D01*
X69700001Y-51166667D01*
X70033334Y-51866667D02*
X70033334Y-51166667D01*
X70200000Y-51166667D01*
X70300000Y-51200000D01*
X70366667Y-51266667D01*
X70400000Y-51333333D01*
X70433334Y-51466667D01*
X70433334Y-51566667D01*
X70400000Y-51700000D01*
X70366667Y-51766667D01*
X70300000Y-51833333D01*
X70200000Y-51866667D01*
X70033334Y-51866667D01*
X67800000Y-51700000D02*
X67800000Y-51300000D01*
X68200000Y-51700000D02*
X67800000Y-51700000D01*
X68200000Y-51300000D02*
X68200000Y-51700000D01*
X67800000Y-51300000D02*
X68200000Y-51300000D01*
X68500001Y-50116667D02*
X68733334Y-50816667D01*
X68966667Y-50116667D01*
X69200001Y-50450000D02*
X69433334Y-50450000D01*
X69533334Y-50816667D02*
X69200001Y-50816667D01*
X69200001Y-50116667D01*
X69533334Y-50116667D01*
X69766667Y-50116667D02*
X70233334Y-50816667D01*
X70233334Y-50116667D02*
X69766667Y-50816667D01*
X70400001Y-50116667D02*
X70800001Y-50116667D01*
X70600001Y-50816667D02*
X70600001Y-50116667D01*
X68141000Y-50591000D02*
G75*
G03X67859000Y-50591000I-141000J141000D01*
G01*
X68566667Y-49066667D02*
X69000000Y-49066667D01*
X68766667Y-49333333D01*
X68866667Y-49333333D01*
X68933334Y-49366667D01*
X68966667Y-49400000D01*
X69000000Y-49466667D01*
X69000000Y-49633333D01*
X68966667Y-49700000D01*
X68933334Y-49733333D01*
X68866667Y-49766667D01*
X68666667Y-49766667D01*
X68600000Y-49733333D01*
X68566667Y-49700000D01*
X69300001Y-49700000D02*
X69333334Y-49733333D01*
X69300001Y-49766667D01*
X69266667Y-49733333D01*
X69300001Y-49700000D01*
X69300001Y-49766667D01*
X69566667Y-49066667D02*
X70000000Y-49066667D01*
X69766667Y-49333333D01*
X69866667Y-49333333D01*
X69933334Y-49366667D01*
X69966667Y-49400000D01*
X70000000Y-49466667D01*
X70000000Y-49633333D01*
X69966667Y-49700000D01*
X69933334Y-49733333D01*
X69866667Y-49766667D01*
X69666667Y-49766667D01*
X69600000Y-49733333D01*
X69566667Y-49700000D01*
X70200001Y-49066667D02*
X70433334Y-49766667D01*
X70666667Y-49066667D01*
X68206155Y-49400000D02*
G75*
G03X68206155Y-49400000I-206155J0D01*
G01*
X64900000Y-53100000D02*
X64900000Y-56100000D01*
X66200000Y-53100000D02*
X64900000Y-53100000D01*
X69700000Y-53100000D02*
X69700000Y-56100000D01*
X69000000Y-53100000D02*
X69700000Y-53100000D01*
X64621410Y-57406699D02*
X64724679Y-57385566D01*
X64770213Y-57397768D01*
X64832415Y-57438835D01*
X64882415Y-57525438D01*
X64886880Y-57599840D01*
X64874679Y-57645374D01*
X64833611Y-57707575D01*
X64602671Y-57840908D01*
X64252671Y-57234690D01*
X64454744Y-57118024D01*
X64529145Y-57113558D01*
X64574679Y-57125758D01*
X64636880Y-57166827D01*
X64670213Y-57224562D01*
X64674679Y-57298963D01*
X64662479Y-57344498D01*
X64621410Y-57406699D01*
X64419338Y-57523365D01*
X64863354Y-56959092D02*
X64875556Y-56913558D01*
X64916624Y-56851357D01*
X65060961Y-56768024D01*
X65135363Y-56763558D01*
X65180897Y-56775758D01*
X65243098Y-56816827D01*
X65276431Y-56874562D01*
X65297564Y-56977832D01*
X65151154Y-57524242D01*
X65526431Y-57307575D01*
X69900000Y-48400000D02*
X69900000Y-45000000D01*
X65300000Y-48400000D02*
X69900000Y-48400000D01*
X62600000Y-48400000D02*
X59600000Y-48400000D01*
X62972389Y-48507323D02*
X62972389Y-49106763D01*
X62972389Y-48592957D02*
X63015206Y-48550140D01*
X63100840Y-48507323D01*
X63229292Y-48507323D01*
X63314926Y-48550140D01*
X63357743Y-48635774D01*
X63357743Y-49106763D01*
X64299720Y-49106763D02*
X64000000Y-48678591D01*
X63785915Y-49106763D02*
X63785915Y-48207603D01*
X64128452Y-48207603D01*
X64214086Y-48250420D01*
X64256903Y-48293237D01*
X64299720Y-48378871D01*
X64299720Y-48507323D01*
X64256903Y-48592957D01*
X64214086Y-48635774D01*
X64128452Y-48678591D01*
X63785915Y-48678591D01*
X64984795Y-48635774D02*
X64685075Y-48635774D01*
X64685075Y-49106763D02*
X64685075Y-48207603D01*
X65113246Y-48207603D01*
X59600000Y-45000000D02*
X59600000Y-48400000D01*
X63230000Y-46164500D02*
X63230000Y-45720000D01*
X72263000Y-54864000D02*
X72263000Y-57150000D01*
X72263000Y-57150000D02*
X69977000Y-57150000D01*
X69977000Y-57150000D02*
X69977000Y-54864000D01*
X69977000Y-54864000D02*
X72263000Y-54864000D01*
X66379712Y-53363946D02*
X66508163Y-53406763D01*
X66722249Y-53406763D01*
X66807883Y-53363946D01*
X66850700Y-53321129D01*
X66893517Y-53235494D01*
X66893517Y-53149860D01*
X66850700Y-53064226D01*
X66807883Y-53021409D01*
X66722249Y-52978591D01*
X66550980Y-52935774D01*
X66465346Y-52892957D01*
X66422529Y-52850140D01*
X66379712Y-52764506D01*
X66379712Y-52678871D01*
X66422529Y-52593237D01*
X66465346Y-52550420D01*
X66550980Y-52507603D01*
X66765066Y-52507603D01*
X66893517Y-52550420D01*
X67193237Y-52507603D02*
X67407323Y-53406763D01*
X67578592Y-52764506D01*
X67749860Y-53406763D01*
X67963946Y-52507603D01*
X68306483Y-53406763D02*
X68306483Y-52507603D01*
X68520568Y-52507603D01*
X68649020Y-52550420D01*
X68734654Y-52636054D01*
X68777471Y-52721689D01*
X68820288Y-52892957D01*
X68820288Y-53021409D01*
X68777471Y-53192677D01*
X68734654Y-53278311D01*
X68649020Y-53363946D01*
X68520568Y-53406763D01*
X68306483Y-53406763D01*
X40800000Y-57150000D02*
X41333333Y-57150000D01*
X41066666Y-57416667D02*
X41066666Y-56883333D01*
X41633333Y-57216667D02*
X41966667Y-57216667D01*
X41566667Y-57416667D02*
X41800000Y-56716667D01*
X42033333Y-57416667D01*
X42266667Y-57150000D02*
X42800000Y-57150000D01*
X72223964Y-44774839D02*
X72211763Y-44820374D01*
X72141827Y-44899242D01*
X72084093Y-44932575D01*
X71980823Y-44953707D01*
X71889755Y-44929306D01*
X71827554Y-44888237D01*
X71732020Y-44789434D01*
X71682020Y-44702832D01*
X71644221Y-44570694D01*
X71639755Y-44496293D01*
X71664157Y-44405224D01*
X71734093Y-44326357D01*
X71791827Y-44293024D01*
X71895096Y-44271891D01*
X71940631Y-44284091D01*
X72834647Y-44499242D02*
X72488237Y-44699242D01*
X72661442Y-44599242D02*
X72311442Y-43993024D01*
X72303708Y-44112959D01*
X72279306Y-44204027D01*
X72238237Y-44266229D01*
X74498365Y-44509049D02*
X74577232Y-44439113D01*
X74622767Y-44426913D01*
X74697168Y-44431378D01*
X74783771Y-44481378D01*
X74824839Y-44543580D01*
X74837040Y-44589113D01*
X74832575Y-44663516D01*
X74699242Y-44894455D01*
X74093024Y-44544455D01*
X74209690Y-44342383D01*
X74271891Y-44301314D01*
X74317425Y-44289113D01*
X74391827Y-44293580D01*
X74449562Y-44326913D01*
X74490630Y-44389113D01*
X74502832Y-44434647D01*
X74498365Y-44509049D01*
X74381699Y-44711122D01*
X75232575Y-43970695D02*
X75032575Y-44317105D01*
X75132575Y-44143900D02*
X74526357Y-43793900D01*
X74579626Y-43901635D01*
X74604027Y-43992703D01*
X74599562Y-44067105D01*
X74743024Y-43418622D02*
X74976357Y-43014477D01*
X75432575Y-43624284D01*
X69750882Y-45593000D02*
G75*
G03X69750882Y-45593000I-1170882J0D01*
G01*
X67123964Y-47374839D02*
X67111763Y-47420374D01*
X67041827Y-47499242D01*
X66984093Y-47532575D01*
X66880823Y-47553707D01*
X66789755Y-47529306D01*
X66727554Y-47488237D01*
X66632020Y-47389434D01*
X66582020Y-47302832D01*
X66544221Y-47170694D01*
X66539755Y-47096293D01*
X66564157Y-47005224D01*
X66634093Y-46926357D01*
X66691827Y-46893024D01*
X66795096Y-46871891D01*
X66840631Y-46884091D01*
X67071570Y-46750758D02*
X67083772Y-46705224D01*
X67124840Y-46643024D01*
X67269178Y-46559690D01*
X67343580Y-46555224D01*
X67389113Y-46567425D01*
X67451314Y-46608494D01*
X67484647Y-46666229D01*
X67505780Y-46769498D01*
X67359370Y-47315908D01*
X67734647Y-47099242D01*
X67023964Y-44824839D02*
X67011763Y-44870374D01*
X66941827Y-44949242D01*
X66884093Y-44982575D01*
X66780823Y-45003707D01*
X66689755Y-44979306D01*
X66627554Y-44938237D01*
X66532020Y-44839434D01*
X66482020Y-44752832D01*
X66444221Y-44620694D01*
X66439755Y-44546293D01*
X66464157Y-44455224D01*
X66534093Y-44376357D01*
X66591827Y-44343024D01*
X66695096Y-44321891D01*
X66740631Y-44334091D01*
X66909370Y-44159690D02*
X67284647Y-43943024D01*
X67215908Y-44290630D01*
X67302511Y-44240630D01*
X67376913Y-44236165D01*
X67422447Y-44248365D01*
X67484647Y-44289434D01*
X67567980Y-44433771D01*
X67572447Y-44508173D01*
X67560246Y-44553707D01*
X67519178Y-44615908D01*
X67345973Y-44715908D01*
X67271570Y-44720374D01*
X67226037Y-44708173D01*
X49325321Y-57501037D02*
X49613997Y-57334370D01*
X49367586Y-57707575D02*
X49219659Y-56984690D01*
X49771731Y-57474242D01*
X49628269Y-56825758D02*
X49640471Y-56780224D01*
X49681539Y-56718024D01*
X49825876Y-56634690D01*
X49900278Y-56630224D01*
X49945812Y-56642425D01*
X50008013Y-56683494D01*
X50041346Y-56741229D01*
X50062479Y-56844498D01*
X49916069Y-57390908D01*
X50291346Y-57174242D01*
X68233334Y-54516667D02*
X68233334Y-53816667D01*
X68700000Y-53816667D02*
X68833333Y-53816667D01*
X68900000Y-53850000D01*
X68966667Y-53916667D01*
X69000000Y-54050000D01*
X69000000Y-54283333D01*
X68966667Y-54416667D01*
X68900000Y-54483333D01*
X68833333Y-54516667D01*
X68700000Y-54516667D01*
X68633333Y-54483333D01*
X68566667Y-54416667D01*
X68533333Y-54283333D01*
X68533333Y-54050000D01*
X68566667Y-53916667D01*
X68633333Y-53850000D01*
X68700000Y-53816667D01*
X65966667Y-54450000D02*
X65933333Y-54483333D01*
X65833333Y-54516667D01*
X65766667Y-54516667D01*
X65666667Y-54483333D01*
X65600000Y-54416667D01*
X65566667Y-54350000D01*
X65533333Y-54216667D01*
X65533333Y-54116667D01*
X65566667Y-53983333D01*
X65600000Y-53916667D01*
X65666667Y-53850000D01*
X65766667Y-53816667D01*
X65833333Y-53816667D01*
X65933333Y-53850000D01*
X65966667Y-53883333D01*
X66266667Y-54516667D02*
X66266667Y-53816667D01*
X66666667Y-54516667D02*
X66366667Y-54116667D01*
X66666667Y-53816667D02*
X66266667Y-54216667D01*
X72123964Y-47474839D02*
X72111763Y-47520374D01*
X72041827Y-47599242D01*
X71984093Y-47632575D01*
X71880823Y-47653707D01*
X71789755Y-47629306D01*
X71727554Y-47588237D01*
X71632020Y-47489434D01*
X71582020Y-47402832D01*
X71544221Y-47270694D01*
X71539755Y-47196293D01*
X71564157Y-47105224D01*
X71634093Y-47026357D01*
X71691827Y-46993024D01*
X71795096Y-46971891D01*
X71840631Y-46984091D01*
X72182575Y-46709690D02*
X72240310Y-46676357D01*
X72314711Y-46671891D01*
X72360246Y-46684091D01*
X72422447Y-46725160D01*
X72517980Y-46823963D01*
X72601314Y-46968301D01*
X72639113Y-47100438D01*
X72643580Y-47174839D01*
X72631378Y-47220374D01*
X72590310Y-47282575D01*
X72532575Y-47315908D01*
X72458173Y-47320374D01*
X72412639Y-47308173D01*
X72350438Y-47267104D01*
X72254904Y-47168301D01*
X72171570Y-47023963D01*
X72133772Y-46891827D01*
X72129306Y-46817425D01*
X72141506Y-46771891D01*
X72182575Y-46709690D01*
X73790951Y-47215032D02*
X73894220Y-47193899D01*
X73939754Y-47206101D01*
X74001955Y-47247168D01*
X74051955Y-47333771D01*
X74056420Y-47408173D01*
X74044220Y-47453707D01*
X74003151Y-47515909D01*
X73772212Y-47649242D01*
X73422212Y-47043024D01*
X73624284Y-46926357D01*
X73698686Y-46921891D01*
X73744220Y-46934092D01*
X73806420Y-46975161D01*
X73839754Y-47032896D01*
X73844220Y-47107297D01*
X73832020Y-47152832D01*
X73790951Y-47215032D01*
X73588878Y-47331699D01*
X74695972Y-47115909D02*
X74349562Y-47315909D01*
X74522767Y-47215909D02*
X74172767Y-46609691D01*
X74165032Y-46729626D01*
X74140630Y-46820694D01*
X74099562Y-46882896D01*
X74865588Y-46209690D02*
X74750117Y-46276357D01*
X74709049Y-46338558D01*
X74696848Y-46384092D01*
X74689113Y-46504027D01*
X74726912Y-46636165D01*
X74860245Y-46867105D01*
X74922447Y-46908173D01*
X74967980Y-46920374D01*
X75042383Y-46915908D01*
X75157853Y-46849242D01*
X75198921Y-46787040D01*
X75211122Y-46741506D01*
X75206655Y-46667105D01*
X75123322Y-46522768D01*
X75061122Y-46481699D01*
X75015588Y-46469498D01*
X74941186Y-46473963D01*
X74825716Y-46540630D01*
X74784647Y-46602832D01*
X74772447Y-46648365D01*
X74776912Y-46722768D01*
X67021410Y-57406699D02*
X67124679Y-57385566D01*
X67170213Y-57397768D01*
X67232415Y-57438835D01*
X67282415Y-57525438D01*
X67286880Y-57599840D01*
X67274679Y-57645374D01*
X67233611Y-57707575D01*
X67002671Y-57840908D01*
X66652671Y-57234690D01*
X66854744Y-57118024D01*
X66929145Y-57113558D01*
X66974679Y-57125758D01*
X67036880Y-57166827D01*
X67070213Y-57224562D01*
X67074679Y-57298963D01*
X67062479Y-57344498D01*
X67021410Y-57406699D01*
X66819338Y-57523365D01*
X67201154Y-56918024D02*
X67576431Y-56701357D01*
X67507692Y-57048963D01*
X67594294Y-56998963D01*
X67668697Y-56994498D01*
X67714230Y-57006699D01*
X67776431Y-57047768D01*
X67859764Y-57192105D01*
X67864230Y-57266506D01*
X67852030Y-57312040D01*
X67810961Y-57374242D01*
X67637756Y-57474242D01*
X67563354Y-57478707D01*
X67517820Y-57466506D01*
X61879626Y-57248365D02*
X61982895Y-57227232D01*
X62028430Y-57239434D01*
X62090631Y-57280501D01*
X62140631Y-57367104D01*
X62145096Y-57441506D01*
X62132895Y-57487040D01*
X62091827Y-57549242D01*
X61860888Y-57682575D01*
X61510888Y-57076357D01*
X61712960Y-56959690D01*
X61787362Y-56955224D01*
X61832895Y-56967425D01*
X61895096Y-57008494D01*
X61928430Y-57066229D01*
X61932895Y-57140630D01*
X61920695Y-57186165D01*
X61879626Y-57248365D01*
X61677554Y-57365032D01*
X62784647Y-57149242D02*
X62438237Y-57349242D01*
X62611442Y-57249242D02*
X62261442Y-56643024D01*
X62253708Y-56762959D01*
X62229306Y-56854027D01*
X62188237Y-56916229D01*
X59529626Y-57298365D02*
X59632895Y-57277232D01*
X59678430Y-57289434D01*
X59740631Y-57330501D01*
X59790631Y-57417104D01*
X59795096Y-57491506D01*
X59782895Y-57537040D01*
X59741827Y-57599242D01*
X59510888Y-57732575D01*
X59160888Y-57126357D01*
X59362960Y-57009690D01*
X59437362Y-57005224D01*
X59482895Y-57017425D01*
X59545096Y-57058494D01*
X59578430Y-57116229D01*
X59582895Y-57190630D01*
X59570695Y-57236165D01*
X59529626Y-57298365D01*
X59327554Y-57415032D01*
X59882575Y-56709690D02*
X59940310Y-56676357D01*
X60014711Y-56671891D01*
X60060246Y-56684091D01*
X60122447Y-56725160D01*
X60217980Y-56823963D01*
X60301314Y-56968301D01*
X60339113Y-57100438D01*
X60343580Y-57174839D01*
X60331378Y-57220374D01*
X60290310Y-57282575D01*
X60232575Y-57315908D01*
X60158173Y-57320374D01*
X60112639Y-57308173D01*
X60050438Y-57267104D01*
X59954904Y-57168301D01*
X59871570Y-57023963D01*
X59833772Y-56891827D01*
X59829306Y-56817425D01*
X59841506Y-56771891D01*
X59882575Y-56709690D01*
X56836645Y-57617704D02*
X57125321Y-57451037D01*
X56878911Y-57824242D02*
X56730983Y-57101357D01*
X57283055Y-57590909D01*
X57802670Y-57290909D02*
X57456260Y-57490909D01*
X57629465Y-57390909D02*
X57279465Y-56784691D01*
X57271731Y-56904626D01*
X57247329Y-56995694D01*
X57206260Y-57057896D01*
X58091346Y-57124242D02*
X58206816Y-57057575D01*
X58247884Y-56995374D01*
X58260085Y-56949840D01*
X58267820Y-56829904D01*
X58230021Y-56697768D01*
X58096688Y-56466827D01*
X58034487Y-56425758D01*
X57988953Y-56413558D01*
X57914551Y-56418024D01*
X57799082Y-56484690D01*
X57758013Y-56546891D01*
X57745812Y-56592425D01*
X57750277Y-56666827D01*
X57833611Y-56811165D01*
X57895812Y-56852232D01*
X57941346Y-56864434D01*
X58015748Y-56859968D01*
X58131218Y-56793301D01*
X58172287Y-56731101D01*
X58184487Y-56685566D01*
X58180021Y-56611165D01*
X54436645Y-57667704D02*
X54725321Y-57501037D01*
X54478911Y-57874242D02*
X54330983Y-57151357D01*
X54883055Y-57640909D01*
X55402670Y-57340909D02*
X55056260Y-57540909D01*
X55229465Y-57440909D02*
X54879465Y-56834691D01*
X54871731Y-56954626D01*
X54847329Y-57045694D01*
X54806260Y-57107896D01*
X55549082Y-56794498D02*
X55474679Y-56798963D01*
X55429145Y-56786763D01*
X55366944Y-56745694D01*
X55350277Y-56716827D01*
X55345812Y-56642425D01*
X55358013Y-56596891D01*
X55399082Y-56534690D01*
X55514551Y-56468024D01*
X55588953Y-56463558D01*
X55634487Y-56475758D01*
X55696688Y-56516827D01*
X55713354Y-56545694D01*
X55717820Y-56620096D01*
X55705620Y-56665630D01*
X55664551Y-56727832D01*
X55549082Y-56794498D01*
X55508013Y-56856699D01*
X55495812Y-56902232D01*
X55500277Y-56976635D01*
X55566944Y-57092105D01*
X55629145Y-57133173D01*
X55674679Y-57145374D01*
X55749082Y-57140908D01*
X55864551Y-57074242D01*
X55905620Y-57012040D01*
X55917820Y-56966506D01*
X55913354Y-56892105D01*
X55846688Y-56776635D01*
X55784487Y-56735566D01*
X55738953Y-56723365D01*
X55664551Y-56727832D01*
X51725321Y-57501037D02*
X52013997Y-57334370D01*
X51767586Y-57707575D02*
X51619659Y-56984690D01*
X52171731Y-57474242D01*
X52400278Y-56803429D02*
X52633612Y-57207575D01*
X52122607Y-56655822D02*
X52228269Y-57172168D01*
X52603547Y-56955501D01*
X46575321Y-57501037D02*
X46863997Y-57334370D01*
X46617586Y-57707575D02*
X46469659Y-56984690D01*
X47021731Y-57474242D01*
X47541346Y-57174242D02*
X47194936Y-57374242D01*
X47368141Y-57274242D02*
X47018141Y-56668024D01*
X47010407Y-56787959D01*
X46986004Y-56879027D01*
X46944936Y-56941229D01*
X44561924Y-57474241D02*
X44193184Y-57302232D01*
X44215514Y-57674241D02*
X43865514Y-57068023D01*
X44096454Y-56934690D01*
X44170855Y-56930224D01*
X44216389Y-56942425D01*
X44278591Y-56983493D01*
X44328591Y-57070096D01*
X44333056Y-57144498D01*
X44320855Y-57190032D01*
X44279787Y-57252232D01*
X44048847Y-57385565D01*
X44638398Y-57006698D02*
X44840471Y-56890032D01*
X45110407Y-57157575D02*
X44821732Y-57324241D01*
X44471732Y-56718023D01*
X44760407Y-56551357D01*
X45388953Y-56573365D02*
X45186881Y-56690032D01*
X45370214Y-57007575D02*
X45020214Y-56401357D01*
X45308889Y-56234690D01*
X62023964Y-47474839D02*
X62011763Y-47520374D01*
X61941827Y-47599242D01*
X61884093Y-47632575D01*
X61780823Y-47653707D01*
X61689755Y-47629306D01*
X61627554Y-47588237D01*
X61532020Y-47489434D01*
X61482020Y-47402832D01*
X61444221Y-47270694D01*
X61439755Y-47196293D01*
X61464157Y-47105224D01*
X61534093Y-47026357D01*
X61591827Y-46993024D01*
X61695096Y-46971891D01*
X61740631Y-46984091D01*
X62343580Y-46828429D02*
X62576913Y-47232575D01*
X62065908Y-46680822D02*
X62171570Y-47197168D01*
X62546849Y-46980501D01*
X64623964Y-44574839D02*
X64611763Y-44620374D01*
X64541827Y-44699242D01*
X64484093Y-44732575D01*
X64380823Y-44753707D01*
X64289755Y-44729306D01*
X64227554Y-44688237D01*
X64132020Y-44589434D01*
X64082020Y-44502832D01*
X64044221Y-44370694D01*
X64039755Y-44296293D01*
X64064157Y-44205224D01*
X64134093Y-44126357D01*
X64191827Y-44093024D01*
X64295096Y-44071891D01*
X64340631Y-44084091D01*
X64855780Y-43709690D02*
X64567105Y-43876357D01*
X64704904Y-44181699D01*
X64717105Y-44136165D01*
X64758173Y-44073963D01*
X64902511Y-43990630D01*
X64976913Y-43986165D01*
X65022447Y-43998365D01*
X65084647Y-44039434D01*
X65167980Y-44183771D01*
X65172447Y-44258173D01*
X65160246Y-44303707D01*
X65119178Y-44365908D01*
X64974840Y-44449242D01*
X64900438Y-44453707D01*
X64854904Y-44441506D01*
X64323964Y-47274839D02*
X64311763Y-47320374D01*
X64241827Y-47399242D01*
X64184093Y-47432575D01*
X64080823Y-47453707D01*
X63989755Y-47429306D01*
X63927554Y-47388237D01*
X63832020Y-47289434D01*
X63782020Y-47202832D01*
X63744221Y-47070694D01*
X63739755Y-46996293D01*
X63764157Y-46905224D01*
X63834093Y-46826357D01*
X63891827Y-46793024D01*
X63995096Y-46771891D01*
X64040631Y-46784091D01*
X64526913Y-46426357D02*
X64411442Y-46493024D01*
X64370374Y-46555224D01*
X64358173Y-46600758D01*
X64350438Y-46720694D01*
X64388237Y-46852832D01*
X64521570Y-47083771D01*
X64583772Y-47124839D01*
X64629306Y-47137040D01*
X64703708Y-47132575D01*
X64819178Y-47065908D01*
X64860246Y-47003707D01*
X64872447Y-46958173D01*
X64867980Y-46883771D01*
X64784647Y-46739434D01*
X64722447Y-46698365D01*
X64676913Y-46686165D01*
X64602511Y-46690630D01*
X64487041Y-46757296D01*
X64445973Y-46819498D01*
X64433772Y-46865032D01*
X64438237Y-46939434D01*
X62223964Y-44674839D02*
X62211763Y-44720374D01*
X62141827Y-44799242D01*
X62084093Y-44832575D01*
X61980823Y-44853707D01*
X61889755Y-44829306D01*
X61827554Y-44788237D01*
X61732020Y-44689434D01*
X61682020Y-44602832D01*
X61644221Y-44470694D01*
X61639755Y-44396293D01*
X61664157Y-44305224D01*
X61734093Y-44226357D01*
X61791827Y-44193024D01*
X61895096Y-44171891D01*
X61940631Y-44184091D01*
X62109370Y-44009690D02*
X62513516Y-43776357D01*
X62603708Y-44532575D01*
X59110888Y-44932575D02*
X58760888Y-44326357D01*
X58905225Y-44243024D01*
X59008494Y-44221891D01*
X59099562Y-44246293D01*
X59161763Y-44287361D01*
X59257298Y-44386165D01*
X59307298Y-44472767D01*
X59345096Y-44604904D01*
X59349562Y-44679306D01*
X59325160Y-44770374D01*
X59255225Y-44849242D01*
X59110888Y-44932575D01*
X59482575Y-43909690D02*
X59540310Y-43876357D01*
X59614711Y-43871891D01*
X59660246Y-43884091D01*
X59722447Y-43925160D01*
X59817980Y-44023963D01*
X59901314Y-44168301D01*
X59939113Y-44300438D01*
X59943580Y-44374839D01*
X59931378Y-44420374D01*
X59890310Y-44482575D01*
X59832575Y-44515908D01*
X59758173Y-44520374D01*
X59712639Y-44508173D01*
X59650438Y-44467104D01*
X59554904Y-44368301D01*
X59471570Y-44223963D01*
X59433772Y-44091827D01*
X59429306Y-44017425D01*
X59441506Y-43971891D01*
X59482575Y-43909690D01*
X56910888Y-45032575D02*
X56560888Y-44426357D01*
X56705225Y-44343024D01*
X56808494Y-44321891D01*
X56899562Y-44346293D01*
X56961763Y-44387361D01*
X57057298Y-44486165D01*
X57107298Y-44572767D01*
X57145096Y-44704904D01*
X57149562Y-44779306D01*
X57125160Y-44870374D01*
X57055225Y-44949242D01*
X56910888Y-45032575D01*
X57834647Y-44499242D02*
X57488237Y-44699242D01*
X57661442Y-44599242D02*
X57311442Y-43993024D01*
X57303708Y-44112959D01*
X57279306Y-44204027D01*
X57238237Y-44266229D01*
X54010888Y-44932575D02*
X53660888Y-44326357D01*
X53805225Y-44243024D01*
X53908494Y-44221891D01*
X53999562Y-44246293D01*
X54061763Y-44287361D01*
X54157298Y-44386165D01*
X54207298Y-44472767D01*
X54245096Y-44604904D01*
X54249562Y-44679306D01*
X54225160Y-44770374D01*
X54155225Y-44849242D01*
X54010888Y-44932575D01*
X54271570Y-44050758D02*
X54283772Y-44005224D01*
X54324840Y-43943024D01*
X54469178Y-43859690D01*
X54543580Y-43855224D01*
X54589113Y-43867425D01*
X54651314Y-43908494D01*
X54684647Y-43966229D01*
X54705780Y-44069498D01*
X54559370Y-44615908D01*
X54934647Y-44399242D01*
X51710888Y-45032575D02*
X51360888Y-44426357D01*
X51505225Y-44343024D01*
X51608494Y-44321891D01*
X51699562Y-44346293D01*
X51761763Y-44387361D01*
X51857298Y-44486165D01*
X51907298Y-44572767D01*
X51945096Y-44704904D01*
X51949562Y-44779306D01*
X51925160Y-44870374D01*
X51855225Y-44949242D01*
X51710888Y-45032575D01*
X51909370Y-44109690D02*
X52284647Y-43893024D01*
X52215908Y-44240630D01*
X52302511Y-44190630D01*
X52376913Y-44186165D01*
X52422447Y-44198365D01*
X52484647Y-44239434D01*
X52567980Y-44383771D01*
X52572447Y-44458173D01*
X52560246Y-44503707D01*
X52519178Y-44565908D01*
X52345973Y-44665908D01*
X52271570Y-44670374D01*
X52226037Y-44658173D01*
X49010888Y-44932575D02*
X48660888Y-44326357D01*
X48805225Y-44243024D01*
X48908494Y-44221891D01*
X48999562Y-44246293D01*
X49061763Y-44287361D01*
X49157298Y-44386165D01*
X49207298Y-44472767D01*
X49245096Y-44604904D01*
X49249562Y-44679306D01*
X49225160Y-44770374D01*
X49155225Y-44849242D01*
X49010888Y-44932575D01*
X49643580Y-44028429D02*
X49876913Y-44432575D01*
X49365908Y-43880822D02*
X49471570Y-44397168D01*
X49846849Y-44180501D01*
X46710888Y-45032575D02*
X46360888Y-44426357D01*
X46505225Y-44343024D01*
X46608494Y-44321891D01*
X46699562Y-44346293D01*
X46761763Y-44387361D01*
X46857298Y-44486165D01*
X46907298Y-44572767D01*
X46945096Y-44704904D01*
X46949562Y-44779306D01*
X46925160Y-44870374D01*
X46855225Y-44949242D01*
X46710888Y-45032575D01*
X47255780Y-43909690D02*
X46967105Y-44076357D01*
X47104904Y-44381699D01*
X47117105Y-44336165D01*
X47158173Y-44273963D01*
X47302511Y-44190630D01*
X47376913Y-44186165D01*
X47422447Y-44198365D01*
X47484647Y-44239434D01*
X47567980Y-44383771D01*
X47572447Y-44458173D01*
X47560246Y-44503707D01*
X47519178Y-44565908D01*
X47374840Y-44649242D01*
X47300438Y-44653707D01*
X47254904Y-44641506D01*
X44010888Y-44832575D02*
X43660888Y-44226357D01*
X43805225Y-44143024D01*
X43908494Y-44121891D01*
X43999562Y-44146293D01*
X44061763Y-44187361D01*
X44157298Y-44286165D01*
X44207298Y-44372767D01*
X44245096Y-44504904D01*
X44249562Y-44579306D01*
X44225160Y-44670374D01*
X44155225Y-44749242D01*
X44010888Y-44832575D01*
X44526913Y-43726357D02*
X44411442Y-43793024D01*
X44370374Y-43855224D01*
X44358173Y-43900758D01*
X44350438Y-44020694D01*
X44388237Y-44152832D01*
X44521570Y-44383771D01*
X44583772Y-44424839D01*
X44629306Y-44437040D01*
X44703708Y-44432575D01*
X44819178Y-44365908D01*
X44860246Y-44303707D01*
X44872447Y-44258173D01*
X44867980Y-44183771D01*
X44784647Y-44039434D01*
X44722447Y-43998365D01*
X44676913Y-43986165D01*
X44602511Y-43990630D01*
X44487041Y-44057296D01*
X44445973Y-44119498D01*
X44433772Y-44165032D01*
X44438237Y-44239434D01*
X41610888Y-45032575D02*
X41260888Y-44426357D01*
X41405225Y-44343024D01*
X41508494Y-44321891D01*
X41599562Y-44346293D01*
X41661763Y-44387361D01*
X41757298Y-44486165D01*
X41807298Y-44572767D01*
X41845096Y-44704904D01*
X41849562Y-44779306D01*
X41825160Y-44870374D01*
X41755225Y-44949242D01*
X41610888Y-45032575D01*
X41809370Y-44109690D02*
X42213516Y-43876357D01*
X42303708Y-44632575D01*
X74830882Y-58293000D02*
G75*
G03X74830882Y-58293000I-1170882J0D01*
G01*
X69977000Y-57404000D02*
X72263000Y-57404000D01*
X69977000Y-59690000D02*
X69977000Y-57404000D01*
X72263000Y-59690000D02*
X69977000Y-59690000D01*
X72263000Y-57404000D02*
X72263000Y-59690000D01*
X69723000Y-44196000D02*
X69723000Y-41910000D01*
X67437000Y-44196000D02*
X69723000Y-44196000D01*
X67437000Y-41910000D02*
X67437000Y-44196000D01*
X69723000Y-41910000D02*
X67437000Y-41910000D01*
X74485500Y-56578500D02*
G75*
G03X72834500Y-56578500I-825500J825500D01*
G01*
X58730926Y-53908936D02*
X59185716Y-53125171D01*
X59136760Y-53802113D01*
X59737503Y-53359391D01*
X59282713Y-54143156D01*
X60193119Y-54436571D02*
X60132050Y-54457164D01*
X59992154Y-54444296D01*
X59913327Y-54410836D01*
X59816743Y-54323324D01*
X59781231Y-54215219D01*
X59785130Y-54123845D01*
X59832343Y-53957827D01*
X59897314Y-53845860D01*
X60023353Y-53713302D01*
X60106080Y-53655387D01*
X60228220Y-53614203D01*
X60368117Y-53627071D01*
X60446943Y-53660531D01*
X60543527Y-53748043D01*
X60561284Y-53802095D01*
X61135142Y-54929465D02*
X61589932Y-54145701D01*
X61373365Y-54518922D02*
X61846325Y-54719681D01*
X61608102Y-55130225D02*
X62062892Y-54346460D01*
X62518509Y-55423641D02*
X62457439Y-55444233D01*
X62317543Y-55431365D01*
X62238716Y-55397905D01*
X62142132Y-55310393D01*
X62106620Y-55202288D01*
X62110520Y-55110914D01*
X62157732Y-54944896D01*
X62222703Y-54832929D01*
X62348742Y-54700371D01*
X62431470Y-54642456D01*
X62553609Y-54601272D01*
X62693506Y-54614140D01*
X62772333Y-54647600D01*
X62868916Y-54735112D01*
X62886673Y-54789164D01*
X62829917Y-55648855D02*
X63284707Y-54865090D01*
X63302877Y-55849615D02*
X63208037Y-55251179D01*
X63757667Y-55065850D02*
X63024827Y-55312956D01*
X63700911Y-55925541D02*
X63718668Y-55979593D01*
X63657598Y-56000185D01*
X63639842Y-55946133D01*
X63700911Y-55925541D01*
X63657598Y-56000185D01*
X63830851Y-55701608D02*
X64051319Y-55237012D01*
X64112388Y-55216420D01*
X64130145Y-55270472D01*
X63830851Y-55701608D01*
X64112388Y-55216420D01*
X43949980Y-49850220D02*
X43949980Y-47449920D01*
X43949980Y-47449920D02*
X41801140Y-47449920D01*
X43949980Y-53949780D02*
X43949980Y-56350080D01*
X43949980Y-56350080D02*
X41801140Y-56350080D01*
X60652400Y-49752400D02*
X60347600Y-49600000D01*
X60347600Y-49600000D02*
X60652400Y-49447600D01*
X60652400Y-49447600D02*
X60652400Y-49752400D01*
X61833500Y-50235000D02*
X59166500Y-50235000D01*
X59166500Y-50235000D02*
X59166500Y-48965000D01*
X59166500Y-48965000D02*
X61833500Y-48965000D01*
X61833500Y-48965000D02*
X61833500Y-50235000D01*
X49463200Y-54099460D02*
X49262540Y-53898800D01*
X49262540Y-53898800D02*
X49262540Y-47701200D01*
X49262540Y-47701200D02*
X49463200Y-47500540D01*
X49463200Y-47500540D02*
X55660800Y-47500540D01*
X55660800Y-47500540D02*
X55861460Y-47701200D01*
X55660800Y-54099460D02*
X49463200Y-54099460D01*
X55861460Y-47701200D02*
X55861460Y-53898800D01*
X49463200Y-54201060D02*
X49160940Y-53898800D01*
X55963060Y-53898800D02*
X55660800Y-54201060D01*
X55660800Y-47398940D02*
X55963060Y-47701200D01*
X49463200Y-47398940D02*
X49160940Y-47701200D01*
D12*
X48368491Y-47096680D02*
G75*
G03X48368491Y-47096680I-104171J0D01*
G01*
D13*
X50304332Y-48450500D02*
G75*
G03X50304332Y-48450500I-140092J0D01*
G01*
D11*
X71882000Y-54254400D02*
X71882000Y-48412400D01*
X71882000Y-48412400D02*
X75184000Y-48412400D01*
X75184000Y-48412400D02*
X75184000Y-54254400D01*
X75184000Y-54254400D02*
X71882000Y-54254400D01*
D14*
X45500000Y-47200000D02*
X45500000Y-45400000D01*
X45500000Y-45400000D02*
X47300000Y-45400000D01*
X47300000Y-45400000D02*
X47300000Y-47200000D01*
X47300000Y-47200000D02*
X45500000Y-47200000D01*
D11*
X41416667Y-52133333D02*
X41916667Y-52133333D01*
X42016667Y-52166667D01*
X42083333Y-52233333D01*
X42116667Y-52333333D01*
X42116667Y-52400000D01*
X41416667Y-51866667D02*
X41416667Y-51433334D01*
X41683333Y-51666667D01*
X41683333Y-51566667D01*
X41716667Y-51500000D01*
X41750000Y-51466667D01*
X41816667Y-51433334D01*
X41983333Y-51433334D01*
X42050000Y-51466667D01*
X42083333Y-51500000D01*
X42116667Y-51566667D01*
X42116667Y-51766667D01*
X42083333Y-51833334D01*
X42050000Y-51866667D01*
X57883334Y-50016667D02*
X57883334Y-49316667D01*
X58050000Y-49316667D01*
X58150000Y-49350000D01*
X58216667Y-49416667D01*
X58250000Y-49483333D01*
X58283334Y-49616667D01*
X58283334Y-49716667D01*
X58250000Y-49850000D01*
X58216667Y-49916667D01*
X58150000Y-49983333D01*
X58050000Y-50016667D01*
X57883334Y-50016667D01*
X58950000Y-50016667D02*
X58550000Y-50016667D01*
X58750000Y-50016667D02*
X58750000Y-49316667D01*
X58683334Y-49416667D01*
X58616667Y-49483333D01*
X58550000Y-49516667D01*
X52028667Y-50416667D02*
X52028667Y-50983333D01*
X52062000Y-51050000D01*
X52095333Y-51083333D01*
X52162000Y-51116667D01*
X52295333Y-51116667D01*
X52362000Y-51083333D01*
X52395333Y-51050000D01*
X52428667Y-50983333D01*
X52428667Y-50416667D01*
X53128666Y-51116667D02*
X52728666Y-51116667D01*
X52928666Y-51116667D02*
X52928666Y-50416667D01*
X52862000Y-50516667D01*
X52795333Y-50583333D01*
X52728666Y-50616667D01*
X72999666Y-51616733D02*
X73099666Y-51650067D01*
X73266333Y-51650067D01*
X73333000Y-51616733D01*
X73366333Y-51583400D01*
X73399666Y-51516733D01*
X73399666Y-51450067D01*
X73366333Y-51383400D01*
X73333000Y-51350067D01*
X73266333Y-51316733D01*
X73133000Y-51283400D01*
X73066333Y-51250067D01*
X73033000Y-51216733D01*
X72999666Y-51150067D01*
X72999666Y-51083400D01*
X73033000Y-51016733D01*
X73066333Y-50983400D01*
X73133000Y-50950067D01*
X73299666Y-50950067D01*
X73399666Y-50983400D01*
X74066333Y-51650067D02*
X73666333Y-51650067D01*
X73866333Y-51650067D02*
X73866333Y-50950067D01*
X73799667Y-51050067D01*
X73733000Y-51116733D01*
X73666333Y-51150067D01*
D10*
X44816667Y-48016666D02*
X44483333Y-48250000D01*
X44816667Y-48416666D02*
X44116667Y-48416666D01*
X44116667Y-48150000D01*
X44150000Y-48083333D01*
X44183333Y-48050000D01*
X44250000Y-48016666D01*
X44350000Y-48016666D01*
X44416667Y-48050000D01*
X44450000Y-48083333D01*
X44483333Y-48150000D01*
X44483333Y-48416666D01*
X44816667Y-47350000D02*
X44816667Y-47750000D01*
X44816667Y-47550000D02*
X44116667Y-47550000D01*
X44216667Y-47616666D01*
X44283333Y-47683333D01*
X44316667Y-47750000D01*
X44816667Y-49416666D02*
X44483333Y-49650000D01*
X44816667Y-49816666D02*
X44116667Y-49816666D01*
X44116667Y-49550000D01*
X44150000Y-49483333D01*
X44183333Y-49450000D01*
X44250000Y-49416666D01*
X44350000Y-49416666D01*
X44416667Y-49450000D01*
X44450000Y-49483333D01*
X44483333Y-49550000D01*
X44483333Y-49816666D01*
X44183333Y-49150000D02*
X44150000Y-49116666D01*
X44116667Y-49050000D01*
X44116667Y-48883333D01*
X44150000Y-48816666D01*
X44183333Y-48783333D01*
X44250000Y-48750000D01*
X44316667Y-48750000D01*
X44416667Y-48783333D01*
X44816667Y-49183333D01*
X44816667Y-48750000D01*
X49350000Y-46416666D02*
X49383333Y-46450000D01*
X49416667Y-46550000D01*
X49416667Y-46616666D01*
X49383333Y-46716666D01*
X49316667Y-46783333D01*
X49250000Y-46816666D01*
X49116667Y-46850000D01*
X49016667Y-46850000D01*
X48883333Y-46816666D01*
X48816667Y-46783333D01*
X48750000Y-46716666D01*
X48716667Y-46616666D01*
X48716667Y-46550000D01*
X48750000Y-46450000D01*
X48783333Y-46416666D01*
X48716667Y-46183333D02*
X48716667Y-45750000D01*
X48983333Y-45983333D01*
X48983333Y-45883333D01*
X49016667Y-45816666D01*
X49050000Y-45783333D01*
X49116667Y-45750000D01*
X49283333Y-45750000D01*
X49350000Y-45783333D01*
X49383333Y-45816666D01*
X49416667Y-45883333D01*
X49416667Y-46083333D01*
X49383333Y-46150000D01*
X49350000Y-46183333D01*
X45583334Y-52750000D02*
X45550000Y-52783333D01*
X45450000Y-52816667D01*
X45383334Y-52816667D01*
X45283334Y-52783333D01*
X45216667Y-52716667D01*
X45183334Y-52650000D01*
X45150000Y-52516667D01*
X45150000Y-52416667D01*
X45183334Y-52283333D01*
X45216667Y-52216667D01*
X45283334Y-52150000D01*
X45383334Y-52116667D01*
X45450000Y-52116667D01*
X45550000Y-52150000D01*
X45583334Y-52183333D01*
X46250000Y-52816667D02*
X45850000Y-52816667D01*
X46050000Y-52816667D02*
X46050000Y-52116667D01*
X45983334Y-52216667D01*
X45916667Y-52283333D01*
X45850000Y-52316667D01*
X56883334Y-54650000D02*
X56850000Y-54683333D01*
X56750000Y-54716667D01*
X56683334Y-54716667D01*
X56583334Y-54683333D01*
X56516667Y-54616667D01*
X56483334Y-54550000D01*
X56450000Y-54416667D01*
X56450000Y-54316667D01*
X56483334Y-54183333D01*
X56516667Y-54116667D01*
X56583334Y-54050000D01*
X56683334Y-54016667D01*
X56750000Y-54016667D01*
X56850000Y-54050000D01*
X56883334Y-54083333D01*
X57516667Y-54016667D02*
X57183334Y-54016667D01*
X57150000Y-54350000D01*
X57183334Y-54316667D01*
X57250000Y-54283333D01*
X57416667Y-54283333D01*
X57483334Y-54316667D01*
X57516667Y-54350000D01*
X57550000Y-54416667D01*
X57550000Y-54583333D01*
X57516667Y-54650000D01*
X57483334Y-54683333D01*
X57416667Y-54716667D01*
X57250000Y-54716667D01*
X57183334Y-54683333D01*
X57150000Y-54650000D01*
X49450000Y-55516666D02*
X49483333Y-55550000D01*
X49516667Y-55650000D01*
X49516667Y-55716666D01*
X49483333Y-55816666D01*
X49416667Y-55883333D01*
X49350000Y-55916666D01*
X49216667Y-55950000D01*
X49116667Y-55950000D01*
X48983333Y-55916666D01*
X48916667Y-55883333D01*
X48850000Y-55816666D01*
X48816667Y-55716666D01*
X48816667Y-55650000D01*
X48850000Y-55550000D01*
X48883333Y-55516666D01*
X49050000Y-54916666D02*
X49516667Y-54916666D01*
X48783333Y-55083333D02*
X49283333Y-55250000D01*
X49283333Y-54816666D01*
X58283334Y-51950000D02*
X58250000Y-51983333D01*
X58150000Y-52016667D01*
X58083334Y-52016667D01*
X57983334Y-51983333D01*
X57916667Y-51916667D01*
X57883334Y-51850000D01*
X57850000Y-51716667D01*
X57850000Y-51616667D01*
X57883334Y-51483333D01*
X57916667Y-51416667D01*
X57983334Y-51350000D01*
X58083334Y-51316667D01*
X58150000Y-51316667D01*
X58250000Y-51350000D01*
X58283334Y-51383333D01*
X58883334Y-51316667D02*
X58750000Y-51316667D01*
X58683334Y-51350000D01*
X58650000Y-51383333D01*
X58583334Y-51483333D01*
X58550000Y-51616667D01*
X58550000Y-51883333D01*
X58583334Y-51950000D01*
X58616667Y-51983333D01*
X58683334Y-52016667D01*
X58816667Y-52016667D01*
X58883334Y-51983333D01*
X58916667Y-51950000D01*
X58950000Y-51883333D01*
X58950000Y-51716667D01*
X58916667Y-51650000D01*
X58883334Y-51616667D01*
X58816667Y-51583333D01*
X58683334Y-51583333D01*
X58616667Y-51616667D01*
X58583334Y-51650000D01*
X58550000Y-51716667D01*
X58283334Y-51016667D02*
X58050000Y-50683333D01*
X57883334Y-51016667D02*
X57883334Y-50316667D01*
X58150000Y-50316667D01*
X58216667Y-50350000D01*
X58250000Y-50383333D01*
X58283334Y-50450000D01*
X58283334Y-50550000D01*
X58250000Y-50616667D01*
X58216667Y-50650000D01*
X58150000Y-50683333D01*
X57883334Y-50683333D01*
X58516667Y-50316667D02*
X58950000Y-50316667D01*
X58716667Y-50583333D01*
X58816667Y-50583333D01*
X58883334Y-50616667D01*
X58916667Y-50650000D01*
X58950000Y-50716667D01*
X58950000Y-50883333D01*
X58916667Y-50950000D01*
X58883334Y-50983333D01*
X58816667Y-51016667D01*
X58616667Y-51016667D01*
X58550000Y-50983333D01*
X58516667Y-50950000D01*
X45583334Y-53750000D02*
X45550000Y-53783333D01*
X45450000Y-53816667D01*
X45383334Y-53816667D01*
X45283334Y-53783333D01*
X45216667Y-53716667D01*
X45183334Y-53650000D01*
X45150000Y-53516667D01*
X45150000Y-53416667D01*
X45183334Y-53283333D01*
X45216667Y-53216667D01*
X45283334Y-53150000D01*
X45383334Y-53116667D01*
X45450000Y-53116667D01*
X45550000Y-53150000D01*
X45583334Y-53183333D01*
X45850000Y-53183333D02*
X45883334Y-53150000D01*
X45950000Y-53116667D01*
X46116667Y-53116667D01*
X46183334Y-53150000D01*
X46216667Y-53183333D01*
X46250000Y-53250000D01*
X46250000Y-53316667D01*
X46216667Y-53416667D01*
X45816667Y-53816667D01*
X46250000Y-53816667D01*
D11*
X45289286Y-46578571D02*
X45327857Y-46617142D01*
X45366429Y-46732856D01*
X45366429Y-46809999D01*
X45327857Y-46925714D01*
X45250714Y-47002856D01*
X45173571Y-47041428D01*
X45019286Y-47079999D01*
X44903571Y-47079999D01*
X44749286Y-47041428D01*
X44672143Y-47002856D01*
X44595000Y-46925714D01*
X44556429Y-46809999D01*
X44556429Y-46732856D01*
X44595000Y-46617142D01*
X44633571Y-46578571D01*
X45366429Y-46231428D02*
X44556429Y-46231428D01*
X44942143Y-46231428D02*
X44942143Y-45768571D01*
X45366429Y-45768571D02*
X44556429Y-45768571D01*
X44595000Y-44958571D02*
X44556429Y-45035714D01*
X44556429Y-45151428D01*
X44595000Y-45267143D01*
X44672143Y-45344285D01*
X44749286Y-45382857D01*
X44903571Y-45421428D01*
X45019286Y-45421428D01*
X45173571Y-45382857D01*
X45250714Y-45344285D01*
X45327857Y-45267143D01*
X45366429Y-45151428D01*
X45366429Y-45074285D01*
X45327857Y-44958571D01*
X45289286Y-44920000D01*
X45019286Y-44920000D01*
X45019286Y-45074285D01*
M02*
